<svg viewBox="0 0 16 16" height="16" width="16" xmlns="http://www.w3.org/2000/svg" xml:space="preserve" style="fill-rule:evenodd;clip-rule:evenodd;stroke-linejoin:round;stroke-miterlimit:2"><path d="M7 18c-1.667 0-3.083-.583-4.25-1.75C1.583 15.083 1 13.667 1 12c0-1.667.583-3.083 1.75-4.25C3.917 6.583 5.333 6 7 6c1.35 0 2.529.379 3.538 1.137C11.546 7.896 12.25 8.85 12.65 10H23v4h-2v4h-4v-4h-4.35c-.4 1.15-1.104 2.104-2.112 2.863C9.529 17.621 8.35 18 7 18Zm0-4a1.93 1.93 0 0 0 1.413-.587A1.93 1.93 0 0 0 9 12a1.93 1.93 0 0 0-.587-1.413A1.93 1.93 0 0 0 7 10c-.55 0-1.021.196-1.412.587A1.927 1.927 0 0 0 5 12c0 .55.196 1.021.588 1.413.391.391.862.587 1.412.587Z" style="fill-rule:nonzero" transform="matrix(.63636 0 0 .63636 .364 -.018)"/></svg>