<svg width="16" height="16" version="1.1" viewBox="0 0 16 16" xmlns="http://www.w3.org/2000/svg"><g transform="matrix(1.1667,0,0,1.1667,-1.3333,-1.3333)"><path d="m10.213 2.1807-0.36662 0.63949-0.54909 0.95589-0.36327 0.63279h-0.00167l-0.5491 0.95589-1.1936 2.0775a3.3075 3.3075 0 0 0-3.4636 1.6021 3.3075 3.3075 0 0 0 1.2187 4.5149 3.3075 3.3075 0 0 0 4.5166-1.2187 3.3075 3.3075 0 0 0-0.91236-4.3107l1.1099-1.9319 0.95589 0.54909 0.54909-0.95589-0.95421-0.54909 0.36327-0.63279 1.592 0.91404 0.54909-0.95589-1.592-0.91404 0.36662-0.63949zm-3.7097 6.6761a1.8375 1.8375 0 0 1 1.0061 0.24274 1.8375 1.8375 0 0 1 0.67632 2.5077 1.8375 1.8375 0 0 1-2.5077 0.678 1.8375 1.8375 0 0 1-0.67799-2.5094 1.8375 1.8375 0 0 1 1.5033-0.91906z"/></g></svg>
