<svg viewBox="0 0 16 16" height="16" width="16" xmlns="http://www.w3.org/2000/svg" xml:space="preserve" style="fill-rule:evenodd;clip-rule:evenodd;stroke-linejoin:round;stroke-miterlimit:2"><path d="M5 22c-.55 0-1.021-.196-1.412-.587A1.927 1.927 0 0 1 3 20V8.725a2.187 2.187 0 0 1-.725-.713A1.863 1.863 0 0 1 2 7V4c0-.55.196-1.021.588-1.413A1.926 1.926 0 0 1 4 2h16c.55 0 1.021.196 1.413.587.391.392.587.863.587 1.413v3c0 .383-.092.721-.275 1.012-.183.292-.425.53-.725.713V20a1.93 1.93 0 0 1-.587 1.413A1.93 1.93 0 0 1 19 22H5ZM4 7h16V4H4v3Zm5 7h6v-2H9v2Z" style="fill-rule:nonzero" transform="matrix(.7 0 0 .7 -.4 -.4)"/></svg>