<svg width="16" height="16" version="1.1" viewBox="0 0 16 16" xmlns="http://www.w3.org/2000/svg"><path d="m11.226 1c-2.036 0.03-3.8 1.64-3.8 3.75 0 2.03 1.62 3.75 3.8 3.75 2.25 0 3.7-2.076 3.7-3.61 0-0.12-0.13-0.11-0.23-0.054l-2.384 1.35-1.64-0.9v-1.873l2.483-1.43c0.097-0.049 0.199-0.123 0.145-0.223-0.38-0.66-1.41-0.76-2.074-0.76zm-4.17 5.4-6 6.223c-0.08 0.0785-0.07 0.2 0 0.275l2.165 2.04c0.08 0.08 0.21 0.08 0.28 0l5.969-6.138c0.09-0.1 0.06-0.27-0.07-0.32-1-0.41-1.65-1.13-2-2.015-0.09-0.225-0.25-0.165-0.346-0.065z"/></svg>
