<svg viewBox="0 0 16 16" height="16" width="16" xmlns="http://www.w3.org/2000/svg" xml:space="preserve" style="fill-rule:evenodd;clip-rule:evenodd;stroke-linejoin:round;stroke-miterlimit:2"><path d="m17.15 20.7-6.05-6.1a5.677 5.677 0 0 1-1.012.3c-.342.067-.705.1-1.088.1-1.667 0-3.083-.583-4.25-1.75C3.583 12.083 3 10.667 3 9c0-.6.083-1.171.25-1.713a6.58 6.58 0 0 1 .7-1.537L7.6 9.4l1.8-1.8-3.65-3.65a6.57 6.57 0 0 1 1.538-.7A5.773 5.773 0 0 1 9 3c1.667 0 3.083.583 4.25 1.75C14.417 5.917 15 7.333 15 9c0 .383-.033.746-.1 1.087-.067.342-.167.68-.3 1.013l6.1 6.05c.2.2.3.442.3.725s-.1.525-.3.725l-2.1 2.1c-.2.2-.442.3-.725.3a.988.988 0 0 1-.725-.3Z" style="fill-rule:nonzero" transform="matrix(-.77778 0 0 .77778 17.333 -1.333)"/></svg>