<svg width="16" height="16" version="1" xmlns="http://www.w3.org/2000/svg"><g transform="matrix(.0085314 0 0 -.008521 .82084 12.998)"><path d="m1662 919c0-26-7.6667-61.333-23-106-31.333-89.333-86.167-161.83-164.5-217.5s-164.5-83.5-258.5-83.5c-123.33 0-228.83 43.833-316.5 131.5s-131.5 193.17-131.5 316.5c0 123.33 43.833 228.83 131.5 316.5s193.17 131.5 316.5 131.5c38.667 0 79.167-5.5 121.5-16.5s78.167-26.5 107.5-46.5c10.667-7.3333 16-16.667 16-28s-5.3333-20.667-16-28l-293-169v-224l193-107c285 165 251.71 146.08 285 165 10 0 17.833-3.3333 23.5-10s8.5-15 8.5-25z" stroke-width="117.29"/><path d="m743.61 746.2-710.38-743.34 256.18-245.49 702.6 734.86c-53.53 21.913-102.59 55.092-146.98 99.478-46.397 46.397-79.576 98.102-101.42 154.49z" stroke="#000" stroke-linecap="round" stroke-linejoin="round" stroke-miterlimit="100" stroke-width="46.914" style="paint-order:stroke fill markers"/></g></svg>
