<svg viewBox="0 0 16 16" height="16" width="16" xmlns="http://www.w3.org/2000/svg" xml:space="preserve" style="fill-rule:evenodd;clip-rule:evenodd;stroke-linejoin:round;stroke-miterlimit:2"><path d="M11 8.275V7.85a3.451 3.451 0 0 1-1.8-1.237C8.733 6.004 8.5 5.3 8.5 4.5c0-.967.342-1.792 1.025-2.475A3.373 3.373 0 0 1 12 1c.967 0 1.792.342 2.475 1.025A3.373 3.373 0 0 1 15.5 4.5c0 .8-.233 1.504-.7 2.113A3.451 3.451 0 0 1 13 7.85v.425l7 4.025c.317.183.563.429.738.738.175.308.262.645.262 1.012v1.9c0 .367-.087.704-.262 1.013A1.956 1.956 0 0 1 20 17.7l-7 4.025A1.97 1.97 0 0 1 12 22a1.97 1.97 0 0 1-1-.275L4 17.7a1.953 1.953 0 0 1-.737-.737A2.02 2.02 0 0 1 3 15.95v-1.9c0-.367.088-.704.263-1.012.175-.309.42-.555.737-.738l7-4.025ZM6.8 13l5.2 3 5.2-3-4.2-2.425V14h-2v-3.425L6.8 13Z" style="fill-rule:nonzero" transform="matrix(.66667 0 0 .66667 0 .333)"/></svg>