<svg xmlns="http://www.w3.org/2000/svg" height="16" viewBox="0 0 16 16" width="16" version="1.1"><path d="m8 1c-1.1 0-2 0.9-2 2 0 0.714 0.38 1.37 1 1.73v4.27c0 1.354 2 1.354 2 0v-4.27c0.6-0.357 1-1.02 1-1.73 0-1.1-0.9-2-2-2zm-4.5 5.9c-0.277 0-0.424 0.234-0.5 0.5-0.657 1.685-1.4 3.43-2 5.1v2c0 0.277 0.223 0.5 0.5 0.5h13c0.277 0 0.5-0.223 0.5-0.5v-2l-2-5.1c-0.08-0.266-0.223-0.5-0.5-0.5h-2.5v2.1c0.038 2.705-4.04 2.7-4 0v-2.1h-2.5zm0.5 3.1c0.83 0 1.5 0.49 1.5 1s-0.67 1-1.5 1-1.5-0.49-1.5-1 0.67-1 1.5-1zm8 0c0.83 0 1.5 0.49 1.5 1s-0.67 1-1.5 1-1.5-0.49-1.5-1 0.67-1 1.5-1z"/></svg>
