<svg xmlns="http://www.w3.org/2000/svg" height="16" width="16" version="1.1" viewBox="0 0 16 16"><path d="m11.6 1.154c-0.2-0.2-0.52-0.2-0.72 0l-2.52 2.586-1.42-1.455c-1.38 1.125-2.01 2.955-1.615 4.715 0.119 0.537 0.315 1 0.595 1.465l-4.77 4.9c-0.2 0.2-0.2 0.535 0 0.74l0.72 0.74c0.2 0.2 0.52 0.2 0.72 0l4.776-4.895c0.434 0.28 0.907 0.49 1.42 0.61 1.724 0.41 3.504-0.237 4.6-1.66l-1.056-1.086 2.52-2.59c0.2-0.2 0.2-0.533 0-0.74l-0.36-0.374c-0.2-0.2-0.52-0.2-0.72 0l-2.525 2.59-1.805-1.846 2.525-2.59c0.2-0.2 0.2-0.534 0-0.74l-0.365-0.37z"/></svg>
