<svg viewBox="0 0 16 16" height="16" width="16" xmlns="http://www.w3.org/2000/svg" xml:space="preserve" style="fill-rule:evenodd;clip-rule:evenodd;stroke-linejoin:round;stroke-miterlimit:2"><path d="M4 20c-.55 0-1.021-.196-1.412-.587A1.927 1.927 0 0 1 2 18v-5h5.375L9.1 16.45a.864.864 0 0 0 .375.413 1.083 1.083 0 0 0 1.05 0 .864.864 0 0 0 .375-.413l3.1-6.2 1.1 2.2a.857.857 0 0 0 .375.412c.167.092.342.138.525.138h6v5a1.93 1.93 0 0 1-.587 1.413A1.93 1.93 0 0 1 20 20H4Zm-2-9V6c0-.55.196-1.021.588-1.413A1.926 1.926 0 0 1 4 4h16c.55 0 1.021.196 1.413.587.391.392.587.863.587 1.413v5h-5.375L14.9 7.55a.745.745 0 0 0-.375-.388A1.267 1.267 0 0 0 14 7.05c-.183 0-.358.037-.525.112a.745.745 0 0 0-.375.388l-3.1 6.2-1.1-2.2a.864.864 0 0 0-.375-.413A1.083 1.083 0 0 0 8 11H2Z" style="fill-rule:nonzero" transform="matrix(.7 0 0 .7 -.4 -.35)"/></svg>