<svg xmlns="http://www.w3.org/2000/svg" width="16" height="16"><path d="M3.084 3A1.847 1.847 0 0 0 1.25 4.834V7h-.236c-1.353-.02-1.353 2.02 0 2h.236v2.166c0 1.003.831 1.834 1.834 1.834h4.332a1.847 1.847 0 0 0 1.834-1.834V9h3.336l-1.783 1.783c-.982.943.471 2.396 1.414 1.414l3.49-3.49a1.003 1.003 0 0 0 0-1.414l-3.49-3.49A1 1 0 0 0 11.5 3.5c-.897 0-1.34 1.091-.697 1.717L12.586 7H9.25V4.834A1.847 1.847 0 0 0 7.416 3H3.084zm0 1.5h4.332c.198 0 .334.136.334.334v6.332a.318.318 0 0 1-.334.334H3.084a.318.318 0 0 1-.334-.334V4.834c0-.198.136-.334.334-.334z"/></svg>
