<svg viewBox="0 0 16 16" height="16" width="16" xmlns="http://www.w3.org/2000/svg" xml:space="preserve" style="fill-rule:evenodd;clip-rule:evenodd;stroke-linejoin:round;stroke-miterlimit:2"><path d="M5 23a2.894 2.894 0 0 1-2.125-.875A2.894 2.894 0 0 1 2 20c0-.833.292-1.542.875-2.125A2.894 2.894 0 0 1 5 17c.45 0 .883.104 1.3.313.417.208.767.487 1.05.837A6.784 6.784 0 0 0 9.75 16c.617-.9 1-1.9 1.15-3H7.8c-.2.6-.558 1.083-1.075 1.45A2.911 2.911 0 0 1 5 15a2.894 2.894 0 0 1-2.125-.875A2.894 2.894 0 0 1 2 12c0-.833.292-1.542.875-2.125A2.894 2.894 0 0 1 5 9c.633 0 1.208.183 1.725.55.517.367.875.85 1.075 1.45h3.1c-.15-1.1-.533-2.1-1.15-3a6.784 6.784 0 0 0-2.4-2.15 3.14 3.14 0 0 1-1.05.838C5.883 6.896 5.45 7 5 7a2.894 2.894 0 0 1-2.125-.875A2.894 2.894 0 0 1 2 4c0-.833.292-1.542.875-2.125A2.894 2.894 0 0 1 5 1c.833 0 1.533.283 2.1.85.567.567.867 1.267.9 2.1a9.368 9.368 0 0 1 3.35 2.9 8.807 8.807 0 0 1 1.6 4.15h5.25l-1.6-1.6L18 8l4 4-4 4-1.4-1.4 1.6-1.6h-5.25a9.03 9.03 0 0 1-1.575 4.163A8.8 8.8 0 0 1 8 20.05c-.033.833-.333 1.533-.9 2.1-.567.567-1.267.85-2.1.85Z" style="fill-rule:nonzero" transform="matrix(.72727 0 0 .72727 -.705 -.727)"/></svg>