<svg version="1.1" xmlns="http://www.w3.org/2000/svg" viewBox="0 0 36 36" xml:space="preserve"><ellipse fill="#ccc" cx="19.6" cy="17.1" rx="1.9" ry="2"/><ellipse fill="#ccc" cx="12.8" cy="17.1" rx="1.9" ry="2"/><path fill="#ccc" d="M28.5,0H3.8C1.7,0,0,1.7,0,3.7v24.3c0,2.1,1.7,3.7,3.8,3.7h21l-1-3.3l2.4,2.1l2.2,2l4,3.4v-7.9v-1.8V3.7 C32.3,1.7,30.6,0,28.5,0z M21.4,23.5c0,0-0.7-0.8-1.2-1.5c2.4-0.7,3.3-2.1,3.3-2.1c-0.8,0.5-1.5,0.8-2.1,1.1 c-0.9,0.4-1.8,0.6-2.7,0.8c-1.8,0.3-3.4,0.2-4.8,0c-1.1-0.2-2-0.5-2.7-0.8c-0.4-0.2-0.9-0.4-1.4-0.6c-0.1,0-0.1-0.1-0.2-0.1 c0,0-0.1,0-0.1,0c-0.3-0.2-0.5-0.3-0.5-0.3s0.9,1.4,3.2,2.1c-0.6,0.7-1.2,1.5-1.2,1.5c-4.1-0.1-5.6-2.7-5.6-2.7   c0-5.8,2.7-10.5,2.7-10.5c2.7-2,5.2-1.9,5.2-1.9l0.2,0.2C10.2,9.5,8.7,11,8.7,11s0.4-0.2,1.1-0.5c2-0.8,3.5-1.1,4.2-1.1 c0.1,0,0.2,0,0.3,0c1.1-0.1,2.4-0.2,3.7,0c1.8,0.2,3.6,0.7,5.6,1.7c0,0-1.5-1.4-4.6-2.3l0.3-0.3c0,0,2.5-0.1,5.2,1.9 c0,0,2.7,4.7,2.7,10.5C27.1,20.8,25.5,23.4,21.4,23.5z"/></svg>
