<svg xmlns="http://www.w3.org/2000/svg" viewBox="0 0 16 16" width="16" version="1.1" height="16"><circle cx="8" cy="8" r="8" fill="#d95032"/><path fill="#fff" d="m6.018 11.95c-2.216 0-4.018-1.77-4.018-3.95 0-2.1765 1.803-3.95 4.018-3.95 0.97 0 1.905 0.344 2.636 0.968l-1.022 1.153c-0.447-0.382-1.02-0.593-1.614-0.593-1.358 0-2.462 1.085-2.462 2.42 0 1.333 1.105 2.418 2.462 2.418 1.15 0 1.9-0.55 2.145-1.538h-2.126v-1.53h3.77v0.764c0 2.29-1.522 3.83-3.79 3.831zm7.982-4.595h-1.165v-1.165h-0.932v1.165h-1.165v0.932h1.165v1.165h0.932v-1.165h1.165z"/></svg>
