<svg height="256px" style="enable-background:new 0 0 256 256;" version="1.1" viewBox="0 0 256 256" width="256px" xml:space="preserve" xmlns="http://www.w3.org/2000/svg" xmlns:xlink="http://www.w3.org/1999/xlink"><g id="Background_1_" style="enable-background:new;"><g id="Background"><g><path d="M249.422,30.679c-2.721-4.985-5.816-9.536-9.793-13.521     c-3.992-3.998-8.709-7.587-13.703-10.314c-8.381-4.576-18.788-6.856-29.002-6.856H59.075c-10.444,0-20.542,2.345-29.265,6.949     c-5.022,2.649-9.588,6.146-13.502,10.126c-3.932,3.998-7.491,8.488-10.046,13.572c-4.289,8.533-6.274,18.477-6.274,28.65v137.429     c0,10.327,1.671,20.679,6.296,29.135c2.681,4.9,6.191,9.86,10.087,13.794c3.934,3.971,8.583,7.226,13.503,9.956     c8.465,4.7,18.842,6.413,29.201,6.413h137.849c10.568,0,20.399-1.523,28.982-6.401c4.739-2.692,9.879-6.113,13.687-9.966     c3.923-3.969,7.2-8.851,9.886-13.799c4.566-8.415,6.533-18.874,6.533-29.132V59.285     C256.012,48.978,254.031,39.124,249.422,30.679z" style="fill-rule:evenodd;clip-rule:evenodd;fill:#FFFFFF;"/></g></g></g><g id="Shape_1_1_" style="enable-background:new    ;"><g id="Shape_1"><g><path d="M214.885,158.731c-0.119-12.758-4.868-19.68-10.316-28.706     c-2.455-3.77-5.289-6.295-7.742-10.064c-0.382-2.043,0.416-3.574-0.154-8.944c-0.547-8.051-3.371-11.171-3.966-12.157     c0.255-2.141-0.563-19.787-6.694-30.226c-18.701-34.813-54.123-36.083-58.458-36.106h-0.042     c-4.335,0.023-39.757,1.294-58.457,36.106c-6.132,10.438-6.95,28.085-6.695,30.226c-0.595,0.986-3.419,4.106-3.965,12.157     c-0.57,5.37,0.228,6.901-0.154,8.944c-2.454,3.77-5.289,6.295-7.743,10.064c-5.449,9.026-10.198,15.948-10.316,28.706     c-0.088,9.511,2.071,22.484,8.483,22.662c2.019-0.167,3.743-1.563,7.249-5.654c1.047-1.231,4.738-6.4,5.484-7.834     c0.72,1.979,2.424,15.78,14.338,22.969c-12.239,6-18.227,9.795-18.437,17.582c0.256,4.505,5.42,10.494,14.917,13.285     c11.962,3.483,25.877,3.561,37.459,0.649c6.848-1.721,8.909-3.445,17.858-8.572c8.95,5.127,11.01,6.852,17.858,8.572     c11.582,2.911,25.496,2.834,37.459-0.649c9.496-2.791,14.66-8.78,14.916-13.285c-0.209-7.787-6.197-11.582-18.436-17.582     c11.913-7.188,13.617-20.989,14.337-22.969c0.747,1.434,4.438,6.603,5.484,7.834c3.507,4.092,5.23,5.487,7.249,5.654     C212.813,181.216,214.973,168.242,214.885,158.731z" style="fill-rule:evenodd;clip-rule:evenodd;fill:#457DCA;"/></g></g></g></svg>
