<svg xmlns="http://www.w3.org/2000/svg" width="800.072" height="678.559"><filter color-interpolation-filters="sRGB" id="a"><feGaussianBlur stdDeviation="1.71"/></filter><g fill="#FFF"><path d="M613.832 425.707c-16.68-22.826-34.57-41.396-34.57-83.871v-141c0-59.759 4.331-114.619-40.186-155.732C504.035 11.763 445.826 0 401.309 0c-87.065 0-184.191 32.13-204.56 138.599-2.156 11.309 6.146 17.229 13.672 18.893l88.655 9.493c8.302-.417 14.297-8.491 15.903-16.623 7.603-36.688 38.654-54.313 73.545-54.313 18.817 0 40.187 6.808 51.324 23.507 12.822 18.589 11.101 44.138 11.101 65.602v11.819c-53.024 5.863-122.39 9.759-172.051 31.298-57.28 24.546-97.505 74.491-97.505 147.902 0 94.082 59.854 141.114 136.916 141.114 65.035 0 100.626-15.186 150.796-65.791 16.644 23.865 22.089 35.363 52.441 60.345 6.807 3.595 15.583 3.252 21.614-2.154l.021-.02.207.227c18.269-16.074 51.438-44.592 70.141-60.098 7.47-6.071 6.146-15.886.303-24.093zm-179.995-40.658c-14.522 25.529-37.652 41.149-63.353 41.149-35.042 0-55.617-26.476-55.617-65.642 0-77.1 69.933-91.093 136.064-91.093v19.535h.02c0 35.269.852 64.637-17.114 96.051zM723.171 579.567c-87.572 64.612-214.569 98.99-323.94 98.99-153.229 0-291.25-56.637-395.69-150.927-8.192-7.414-.88-17.539 8.962-11.782C125.2 581.426 264.54 620.9 408.454 620.9c97.094 0 203.805-20.13 301.993-61.804 14.812-6.264 27.225 9.785 12.724 20.47z"/><path d="M759.612 537.947c-11.193-14.325-74.065-6.788-102.26-3.382-8.578.995-9.896-6.448-2.191-11.91 50.135-35.212 132.29-25.022 141.846-13.251 9.63 11.934-2.514 94.285-49.51 133.572-7.23 6.063-14.095 2.87-10.902-5.13 10.571-26.435 34.251-85.55 23.017-99.899z"/></g></svg>