<svg xmlns="http://www.w3.org/2000/svg" viewBox="0 0 32 32" stroke-miterlimit="1.41400003" width="64" height="64" fill-rule="evenodd" stroke-linejoin="round"><path fill="#FFF" d="M25.943 22.468c-.272 0-.407.137-.407.137S22.13 25.337 16 25.337s-9.528-2.734-9.528-2.734-.272-.135-.407-.135c-.273 0-.547.137-.547.545v.135l.954 5.175C6.88 30.366 10.967 32 15.868 32s9-1.634 9.397-3.677c0-.272.407-2.314.945-5.175v-.135c.13-.273 0-.545-.276-.545zM16.007 0C8.377 0 2.112 2.04 2.112 4.627c0 .683 1.634 10.35 2.316 14.163C4.7 20.56 9.196 23 16.003 23s11.166-2.442 11.575-4.215l2.3-14.158C29.743 2.05 23.623.01 15.992.01zm0 19.88a4.3 4.3 0 0 1-4.356-4.358c0-2.457 1.904-4.36 4.355-4.36a4.3 4.3 0 0 1 4.358 4.361c0 2.3-1.907 4.346-4.358 4.346zm.001-6.667a2.19 2.19 0 0 1 2.18 2.18 2.18 2.18 0 1 1-4.361 0 2.19 2.19 0 0 1 2.18-2.18zm-.003-7.224c-4.904 0-8.852-.814-8.852-1.904s3.948-1.907 8.852-1.907 8.852.817 8.852 1.904S20.906 6 16.005 6z"/></svg>
