<svg xmlns="http://www.w3.org/2000/svg" width="612.404" height="678.559" viewBox="91.821 0 612.404 678.559" enable-background="new 91.821 0 612.404 678.559"><filter color-interpolation-filters="sRGB" id="a"><feGaussianBlur stdDeviation="1.71"/></filter><ellipse fill="#FFF" cx="462.288" cy="323.214" rx="35.911" ry="37.803"/><ellipse fill="#FFF" cx="333.759" cy="323.214" rx="35.912" ry="37.803"/><path fill="#FFF" d="M630.508 0H163.645c-39.692 0-71.824 32.133-71.824 69.936v459.302c0 39.693 32.132 69.936 71.824 69.936h396.929l-18.901-62.375 45.364 39.691 41.583 37.804 75.605 64.265V69.936C702.335 32.133 670.202 0 630.508 0zM496.309 444.183s-13.23-15.123-22.68-28.353c45.362-13.231 62.372-39.693 62.372-39.693-15.12 9.453-28.351 15.122-39.692 20.793-17.009 7.561-34.021 11.339-51.032 15.121-34.022 5.671-64.265 3.779-90.728 0-20.791-3.782-37.803-9.452-51.032-15.121-7.562-3.78-17.011-7.562-26.464-11.34-1.889 0-1.889-1.892-3.779-1.892h-1.89c-5.671-3.78-9.453-5.669-9.453-5.669s17.013 26.461 60.485 39.693c-11.339 13.229-22.683 28.351-22.683 28.351-77.495-1.89-105.846-51.033-105.846-51.033 0-109.629 51.034-198.465 51.034-198.465 51.033-37.803 98.288-35.912 98.288-35.912l3.779 3.779c-62.374 15.122-90.726 43.474-90.726 43.474s7.559-3.781 20.79-9.451c37.803-15.121 66.157-20.792 79.388-20.792h5.669c20.792-1.89 45.363-3.78 69.935 0 34.021 3.781 68.045 13.231 105.849 32.133 0 0-28.354-26.462-86.947-43.474l5.67-5.669s47.253-1.891 98.286 35.912c0 0 51.033 88.835 51.033 198.465-1.888-1.892-32.13 47.254-109.626 49.143z"/></svg>