<svg xmlns="http://www.w3.org/2000/svg" width="695.557" height="678.392" viewBox="51.444 0 695.557 678.392" enable-background="new 51.444 0 695.557 678.392"><filter color-interpolation-filters="sRGB" id="a"><feGaussianBlur stdDeviation="1.71"/></filter><path fill="#FFF" d="M399.223 0C207.078 0 51.444 155.633 51.444 347.777c0 153.895 99.553 283.887 237.803 329.949 17.386 3.057 23.9-7.388 23.9-16.515 0-8.278-.445-35.62-.445-64.784-87.369 16.09-109.976-21.269-116.938-40.84-3.906-10.02-20.865-40.883-35.639-49.118-12.163-6.539-29.569-22.629-.425-23.054 27.383-.467 46.932 25.217 53.47 35.618 31.288 52.644 81.276 37.869 101.273 28.699 3.057-22.586 12.183-37.783 22.182-46.485-77.393-8.704-158.247-38.677-158.247-171.726 0-37.824 13.479-69.113 35.662-93.46-3.481-8.703-15.665-44.341 3.459-92.166 0 0 29.144-9.126 95.647 35.64 27.83-7.812 57.376-11.738 86.966-11.738 29.547 0 59.096 3.926 86.902 11.738 66.524-45.212 95.689-35.64 95.689-35.64 19.104 47.825 6.92 83.463 3.439 92.166 22.202 24.348 35.661 55.21 35.661 93.46 0 133.476-81.299 163.021-158.649 171.726 12.566 10.868 23.435 31.714 23.435 64.316 0 46.527-.425 83.886-.425 95.647 0 9.127 6.538 19.995 23.901 16.515C651.648 629.921 746.956 497.212 747 347.776 747.001 155.633 591.365 0 399.223 0z"/></svg>