<svg xmlns="http://www.w3.org/2000/svg" width="728.271" height="673.403" viewBox="0.852 0 728.271 673.403" enable-background="new 0.852 0 728.271 673.403"><filter color-interpolation-filters="sRGB" id="a"><feGaussianBlur stdDeviation="1.71"/></filter><path fill="#FFF" d="M726.959 377.201L688.76 259.832a16.485 16.485 0 0 0-.925-3.159L611.201 20.776A30.466 30.466 0 0 0 582.111 0a29.946 29.946 0 0 0-28.745 20.947l-73.047 224.791H249.77L176.617 20.947A29.952 29.952 0 0 0 147.999 0h-.171a30.552 30.552 0 0 0-29.004 20.969l-76.7 236.177c0 .214-.171.387-.235.602L3.002 377.221c-5.861 17.978.533 37.684 15.835 48.793l335.972 244.125a17.184 17.184 0 0 0 20.303-.108l336.035-244.017c15.308-11.114 21.696-30.836 15.812-48.813m-502.196-96.959l93.65 288.233L93.601 280.242M411.677 568.54l89.804-276.332 3.866-11.967h131.271l-203.395 260.56M582.412 43.077l65.807 202.661H516.498m-47.33 34.375l-65.247 200.791-38.931 119.584-104.025-320.375M147.677 43.077l65.937 202.661H81.98M39.053 398.212a9.264 9.264 0 0 1-3.353-10.377l28.876-88.73 211.771 271.497m414.604-172.39L453.635 570.538l.795-1.031 210.975-270.402 28.877 88.687a9.262 9.262 0 0 1-3.33 10.399"/></svg>