<svg version="1.0" viewBox="0 0 236.3 197.4" xmlns="http://www.w3.org/2000/svg"><g transform="translate(-28.118 -31.29)"><path d="m263.82 81.19c-0.4-0.4-0.9-0.6-1.5-0.6h-34.2c-0.7 0-1.2-0.3-1.6-0.9l-27.4-47.5c-0.3-0.6-0.9-0.9-1.6-0.9h-111.8c-0.7 0-1.3 0.3-1.6 0.9l-28.4 49.3-1 1.8-26.4 45.8c-0.2 0.3-0.2 0.6-0.2 0.9 0 0.2 0 0.5 0.1 0.7 0 0.1 0.1 0.2 0.1 0.2l3 5.2 24.4 42.3 0.1 0.1 28.4 49.3c0.3 0.6 0.9 0.9 1.6 0.9h111.9c0.7 0 1.3-0.3 1.6-0.9l27.4-47.5c0.3-0.6 0.9-0.9 1.6-0.9h34.3c0.5 0 0.9-0.3 1.2-0.6 0.1-0.1 0.2-0.2 0.2-0.3 0.1-0.1 0.1-0.2 0.2-0.3 0.1-0.2 0.2-0.5 0.2-0.8v-94.7c0-0.6-0.2-1.1-0.6-1.5zm-132.2 99.1-8.6 14.8c-0.1 0.2-0.3 0.4-0.6 0.5-0.2 0.1-0.5 0.2-0.8 0.2h-17.1c-0.6 0-1.1-0.3-1.4-0.8l-9.1-15.7-16.3-28.4-2.5-4.4-9.1-15.7c-0.1-0.2-0.2-0.5-0.2-0.8s0.1-0.6 0.2-0.8l9.2-15.9 18.9-32.7 9-15.6c0.3-0.5 0.8-0.8 1.4-0.8h17.1c0.3 0 0.6 0.1 0.8 0.2s0.4 0.3 0.6 0.5l0.1 0.1 8.6 14.9c0.1 0.2 0.2 0.5 0.2 0.7 0 0.3-0.1 0.6-0.2 0.8l-27.6 47.8c-0.1 0.2-0.2 0.5-0.2 0.8s0 0.5 0.2 0.8v0.1l27.5 47.7c0.1 0.2 0.2 0.5 0.2 0.7 0 0.4-0.1 0.7-0.3 1zm48.5 14.8c-0.3 0.5-0.8 0.8-1.4 0.8h-17.1c-0.3 0-0.6-0.1-0.8-0.2s-0.4-0.3-0.6-0.5l-8.6-14.9c-0.1-0.3-0.2-0.5-0.2-0.8 0-0.2 0.1-0.5 0.2-0.7l27.5-47.8c0.2-0.2 0.2-0.5 0.2-0.8s-0.1-0.6-0.2-0.8l-27.5-47.7c-0.2-0.3-0.2-0.6-0.2-0.9s0.1-0.5 0.2-0.8l8.6-14.9c0.1-0.2 0.3-0.4 0.6-0.5 0.2-0.1 0.5-0.2 0.8-0.2h17.1c0.6 0 1.1 0.3 1.4 0.8l9 15.6 19 33 9 15.6c0.2 0.2 0.2 0.5 0.2 0.8s-0.1 0.6-0.2 0.8l-28 48.5z" fill="#fff"/></g></svg>
