<svg xmlns="http://www.w3.org/2000/svg" width="567.699" height="670.599" viewBox="196.445 0 567.699 670.599" enable-background="new 196.445 0 567.699 670.599"><filter color-interpolation-filters="sRGB" id="a"><feGaussianBlur stdDeviation="1.71"/></filter><path fill="#FFF" d="M361.053 394.227c-5.176 28.392-25.73 160.736-31.793 198.148-.444 2.661-1.479 3.697-4.436 3.697H214.511c-11.238 0-19.371-9.76-17.893-20.555l86.653-549.936c2.218-14.196 14.935-24.99 29.574-24.99 225.208 0 244.136-5.471 301.658 16.857 88.871 34.454 97.005 117.558 65.063 207.464-31.79 92.569-107.204 132.346-207.166 133.529-64.177 1.036-102.771-10.351-111.347 35.786zm363.32-212.788c-2.661-1.922-3.696-2.662-4.436 1.922-2.958 16.857-7.542 33.271-13.013 49.685-59.001 168.278-222.548 153.639-302.398 153.639-9.021 0-14.935 4.879-16.118 13.899-33.419 207.611-40.073 250.938-40.073 250.938-1.479 10.499 5.175 19.075 15.675 19.075h93.898c12.717 0 23.216-9.316 25.729-22.032 1.036-7.985-1.626 9.02 21.294-135.007 6.802-32.532 21.146-29.131 43.326-29.131 104.988 0 186.91-42.588 211.31-166.061 9.612-51.457 6.802-105.578-35.194-136.927z"/></svg>