<svg version="1.1" xmlns="http://www.w3.org/2000/svg" xmlns:xlink="http://www.w3.org/1999/xlink" x="0px" y="0px" viewBox="0 0 1000 1000" enable-background="new 0 0 1000 1000" xml:space="preserve">
<metadata> Svg Vector Icons : http://www.onlinewebfonts.com/icon </metadata>
<g><path fill="#FFF" d="M180.9,405.2c0,0-148.6,174.6-113.1,299c0,0,5.9,12.1,21.6,4c10.4-5.4,33.9-32.9,58.3-58c0,0,3.5,280.2,354.5,280.2c0,0,285.7-2.3,343.8-275.3c0,0,42.6,48.3,66.2,59.1c6,2.8,12.4,2.4,16.4,0.3c4.2-2.2,6.7-9.4,8.1-21.3c5.1-42.3-10.7-145.8-67.4-217.8c0,0-43.2-63.3-56.5-70.1c0,0-218.6,139.1-292.9,139.1C445.7,544.3,200.3,424.6,180.9,405.2z"/><path fill="#FFF" d="M192,864.1c0,0-77.4,22.1-77.4,60.8c0,38.7,84,56.4,84,56.4s170.2,34.3,259.7-33.1c89.5-67.4-123.8-84-123.8-84S251.7,850.9,192,864.1z"/><path fill="#FFF" d="M800.8,864.1c0,0,77.4,22.1,77.4,60.8c0,38.7-84,56.4-84,56.4s-170.2,34.3-259.7-33.1c-89.5-67.4,123.8-84,123.8-84S741.1,850.9,800.8,864.1z"/><path fill="#FFF" d="M821.5,415.6c0,152.2-150.2,277.3-324.7,277.3l0,0c-174.5,0-324.7-125.1-324.7-277.3l8.7-130c0-152.2,141.5-275.6,316-275.6l0,0c174.5,0,316,123.4,316,275.6L821.5,415.6z"/></g>
</svg>
