<svg xmlns="http://www.w3.org/2000/svg" width="962.11" height="673.426" viewBox="79.219 -0.29 962.11 673.426" enable-background="new 79.219 -0.29 962.11 673.426"><filter color-interpolation-filters="sRGB" id="a"><feGaussianBlur stdDeviation="1.71"/></filter><path fill="#FFF" d="M479.591 73.158c31.029-32.332 74.228-52.381 122.006-52.381 63.506 0 118.918 35.414 148.426 87.988 25.64-11.458 54.024-17.831 83.893-17.831 114.547 0 207.413 93.675 207.413 209.225 0 115.561-92.866 209.236-207.413 209.236a205.857 205.857 0 0 1-40.861-4.07c-25.98 46.356-75.496 77.672-132.334 77.672-23.796 0-46.294-5.497-66.335-15.268-26.342 61.962-87.713 105.408-159.241 105.408-74.488 0-137.971-47.135-162.339-113.234-10.648 2.263-21.682 3.438-33.002 3.438-88.686 0-160.584-72.64-160.584-162.258 0-60.053 32.304-112.491 80.299-140.546-9.881-22.738-15.377-47.832-15.377-74.215 0-103.064 83.671-186.61 186.871-186.61 60.589-.002 114.438 28.807 148.578 73.446"/></svg>