<svg xmlns="http://www.w3.org/2000/svg" width="812.49" height="676.909" viewBox="-15.367 0.979 812.49 676.909" enable-background="new -15.367 0.979 812.49 676.909"><filter color-interpolation-filters="sRGB" id="a"><feGaussianBlur stdDeviation="1.71"/></filter><path fill="#FFF" d="M541.579.979c-92.617 0-167.721 75.311-167.721 167.677 0 14.13 2.231 28.421 5.124 40.115H366.01c-115.131-6.527-218.037-47.385-291.445-127.938-16.068-17.228-31.147-35.691-43.828-55.316-24.87 43.045-27.515 93.075-16.07 139.424 10.412 34.698 28.752 65.642 54.118 88.816l12.722 11.608-16.109-3.47c-20.696-5.741-41.435-12.683-61.056-20.737 2.271 41.473 18.424 79.52 43.746 109.471 24.167 28.793 56.431 50.729 93.321 61.141-26.233 2.644-52.217 1.9-78.365 1.157 26.48 64.524 87.576 111.699 160.158 117.565-66.841 49.489-149.751 77.168-238.569 77.168 65.644 40.402 140.497 65.768 222.333 70.227h53.043C512.248 664.176 711.53 455.475 711.776 199.72v-24.288c9.337-8.056 18.424-16.069 27.678-25.366 21.895-19.622 41.476-42.673 57.669-66.84-26.521 17.229-57.669 26.482-92.285 26.482h-1.24c31.065-20.74 55.355-51.888 67.749-87.58-34.7 17.928-67.915 29-104.103 35.941C628.411 24.238 597.016.979 541.579.979z"/></svg>