<svg xmlns="http://www.w3.org/2000/svg" width="1123.444" height="674.071" viewBox="-154.664 1.023 1123.444 674.071" enable-background="new -154.664 1.023 1123.444 674.071"><filter color-interpolation-filters="sRGB" id="a"><feGaussianBlur stdDeviation="1.71"/></filter><path fill="#FFF" d="M750.274 167.657c-27.499 7.411-279.02 202.461-295.602 250.319-3.652 16.528.37 176.826 4.022 200.864 16.58 3.684 136.228.479 158.184 4.147l-2.635 49.556c-21.503-1.673-173.539-1.28-260.284-1.28-44.092 0-185.811 4.877-229.336 3.606l8.229-47.163c23.888-1.77 122.713 4.403 144.374-18.687 10.771-11.483 7.387-163.823 3.729-189.58C271.806 391.886 51.382 115.704-6.209 70.454h-148.455V1.023h500.67v4.79c.438 0 1.273.079 1.699.165l-1.699 11.733v52.74H195.029c67.291 98.4 163.77 217.199 204.918 274.288l201.658-182.752H481.739l-16.884-69.354h439.078l-3.239 4.945c.339 0 1.071.078 1.548.078l-31.366 45.492c-.281 0-.755.078-1.003.154l-12.653 18.686h-80.991c-10.484 2.311-19.713 4.372-25.955 5.669zm143.27 434.828l-38.766-1.913-43.253-5.274.37 74.14 34.108 2.938 36.764 2.719 10.777-72.61zm75.236-354.403c-13.077-.462-132.018-11.719-147.476-14.78l1.829 313.221 67.313 5.438 78.334-303.879z"/></svg>