<svg xmlns="http://www.w3.org/2000/svg" height="16" width="16" viewbox="0 0 16 16"><path d="M6.938 0A.43.43 0 0 0 6.5.438v1.25a5.818 5.818 0 0 0-1.53.656l-.907-.906a.436.436 0 0 0-.625 0l-1.5 1.5a.436.436 0 0 0 0 .624l.906.907c-.285.48-.514.976-.656 1.53H.938a.43.43 0 0 0-.438.438v2.125C.5 8.81.69 9 .938 9h1.25a5.82 5.82 0 0 0 .656 1.53l-.907.908a.436.436 0 0 0 0 .625l1.5 1.5c.176.176.45.176.625 0l.907-.907c.48.285.976.514 1.53.656v1.25c0 .25.19.438.437.438h2.125a.43.43 0 0 0 .438-.438v-1.25a5.82 5.82 0 0 0 1.53-.657l.907.907c.176.175.45.175.625 0l1.5-1.5a.436.436 0 0 0 0-.625l-.906-.906A5.79 5.79 0 0 0 13.812 9h1.25a.43.43 0 0 0 .438-.438V6.437A.43.43 0 0 0 15.062 6h-1.25a5.79 5.79 0 0 0-.656-1.532l.906-.906a.436.436 0 0 0 0-.625l-1.5-1.5a.436.436 0 0 0-.625 0l-.906.906a5.816 5.816 0 0 0-1.53-.656V.437A.43.43 0 0 0 9.063 0zM8 4.157a3.344 3.344 0 0 1 0 6.686 3.344 3.344 0 0 1 0-6.686z" display="block"/></svg>
