<svg viewBox="0 0 16 16" height="16" width="16" xmlns="http://www.w3.org/2000/svg" xml:space="preserve" style="fill-rule:evenodd;clip-rule:evenodd;stroke-linejoin:round;stroke-miterlimit:2"><path d="M7 21c-1.383 0-2.562-.487-3.537-1.462C2.488 18.563 2 17.383 2 16c0-1.217.379-2.279 1.138-3.187A4.893 4.893 0 0 1 6 11.1v2.075c-.583.2-1.062.558-1.437 1.075A2.907 2.907 0 0 0 4 16c0 .833.292 1.542.875 2.125A2.894 2.894 0 0 0 7 19c.833 0 1.542-.292 2.125-.875A2.894 2.894 0 0 0 10 16v-1h5.875c.133-.15.296-.271.488-.363.191-.091.404-.137.637-.137.417 0 .771.146 1.063.438.291.291.437.645.437 1.062 0 .417-.146.771-.437 1.063A1.45 1.45 0 0 1 17 17.5c-.233 0-.446-.046-.637-.137a1.523 1.523 0 0 1-.488-.363H11.9a4.902 4.902 0 0 1-1.712 2.863C9.279 20.621 8.217 21 7 21Zm10 0c-.933 0-1.779-.229-2.537-.687a5.034 5.034 0 0 1-1.788-1.813h2.675c.233.167.492.292.775.375.283.083.575.125.875.125.833 0 1.542-.292 2.125-.875A2.894 2.894 0 0 0 20 16c0-.833-.292-1.542-.875-2.125A2.894 2.894 0 0 0 17 13a3.01 3.01 0 0 0-.925.137c-.283.092-.55.23-.8.413l-3.05-5.075a1.505 1.505 0 0 1-.875-.5A1.432 1.432 0 0 1 11 7c0-.417.146-.771.438-1.062A1.443 1.443 0 0 1 12.5 5.5c.417 0 .771.146 1.063.438.291.291.437.645.437 1.062v.212c0 .059-.017.13-.05.213l2.175 3.65a2.35 2.35 0 0 1 .425-.063c.15-.008.3-.012.45-.012 1.383 0 2.563.487 3.538 1.462C21.513 13.438 22 14.617 22 16s-.487 2.563-1.462 3.538C19.563 20.513 18.383 21 17 21ZM7 17.5c-.417 0-.771-.146-1.062-.437A1.447 1.447 0 0 1 5.5 16c0-.367.117-.683.35-.95a1.63 1.63 0 0 1 .85-.525l2.35-3.9a4.85 4.85 0 0 1-1.137-1.612A4.943 4.943 0 0 1 7.5 7c0-1.383.488-2.562 1.463-3.538C9.938 2.487 11.117 2 12.5 2s2.563.487 3.538 1.462C17.013 4.438 17.5 5.617 17.5 7h-2c0-.833-.292-1.542-.875-2.125A2.894 2.894 0 0 0 12.5 4c-.833 0-1.542.292-2.125.875A2.894 2.894 0 0 0 9.5 7c0 .717.217 1.346.65 1.888.433.541.983.887 1.65 1.037L8.425 15.55a.967.967 0 0 1 .063.225c.008.067.012.142.012.225 0 .417-.146.771-.437 1.063A1.45 1.45 0 0 1 7 17.5Z" style="fill-rule:nonzero" transform="matrix(.8 0 0 .8 -1.6 -1.2)"/></svg>