<?xml version="1.0" encoding="utf-8"?><svg width="176" height="166" viewBox="0 0 176 166" xmlns="http://www.w3.org/2000/svg" xmlns:xlink="http://www.w3.org/1999/xlink"><svg height="16" width="16" viewBox="0 0 16 16" id="add" x="16" y="134"><path d="M9.02 13.98h-2v-5h-5v-2h5v-5h2v5l5-.028V8.98h-5z"/></svg><svg height="16" width="16" viewBox="0 0 16 16" id="audio" x="128" y="80"><path d="M8 1c-1.108 0-2 .892-2 2v4c0 1.108.892 2 2 2s2-.892 2-2V3c0-1.108-.892-2-2-2zM4 5c-.554 0-1 .446-1 1v1a4.988 4.988 0 0 0 4 4.9V13H5v2h6v-2H9v-1.1c2.287-.46 4-2.473 4-4.9V6c0-.554-.446-1-1-1s-1 .446-1 1v1c0 1.662-1.338 3-3 3S5 8.662 5 7V6c0-.554-.446-1-1-1z" fill-rule="evenodd"/></svg><svg height="16" width="16" viewBox="0 0 16 16" id="audio-off" x="80" y="102"><path d="M8 1c-1.108 0-2 .892-2 2v4c0 .053.011.104.016.156L10 3.174V3c0-1.108-.892-2-2-2zm4.486 1.514c-.127 0-.256.023-.377.072a1.017 1.017 0 0 0-.33.22l-8.486 8.485A1 1 0 0 0 4 13a.999.999 0 0 0 .709-.293l8.484-8.486a1 1 0 0 0 .221-.33v-.002a.996.996 0 0 0-.221-1.082.996.996 0 0 0-.707-.293zM4 5c-.554 0-1 .446-1 1v1a4.988 4.988 0 0 0 .672 2.5L5.18 7.992A2.985 2.985 0 0 1 5 7V6c0-.554-.446-1-1-1zm8.973.86l-2.161 2.158a2.978 2.978 0 0 1-1.794 1.794l-2.075 2.075A4.988 4.988 0 0 0 7 11.9V13H5.83l-.414.414a1.96 1.96 0 0 1-.416.307V15h6v-2H9v-1.1c2.287-.46 4-2.473 4-4.9V6c0-.05-.02-.093-.027-.14z"/></svg><svg height="16" width="16" viewBox="0 0 16 16" id="audio-off-white" x="144" y="112"><defs><filter id="ada" height="1.315" width="1.42" y="-.157" x="-.21" color-interpolation-filters="sRGB"><feGaussianBlur stdDeviation=".918"/></filter></defs><path opacity=".5" d="M8 1c-1.108 0-2 .892-2 2v4c0 .053.011.104.016.156L10 3.174V3c0-1.108-.892-2-2-2zm4.486 1.514c-.127 0-.256.023-.377.072a1.017 1.017 0 0 0-.33.22l-8.486 8.485A1 1 0 0 0 4 13a.999.999 0 0 0 .709-.293l8.484-8.486a1 1 0 0 0 .221-.33v-.002a.996.996 0 0 0-.221-1.082.996.996 0 0 0-.707-.293zM4 5c-.554 0-1 .446-1 1v1a4.988 4.988 0 0 0 .672 2.5L5.18 7.992A2.985 2.985 0 0 1 5 7V6c0-.554-.446-1-1-1zm8.973.86l-2.161 2.158a2.978 2.978 0 0 1-1.794 1.794l-2.075 2.075A4.988 4.988 0 0 0 7 11.9V13H5.83l-.414.414a1.96 1.96 0 0 1-.416.307V15h6v-2H9v-1.1c2.287-.46 4-2.473 4-4.9V6c0-.05-.02-.093-.027-.14z" filter="url(#ada)"/><path fill="#fff" d="M8 1c-1.108 0-2 .892-2 2v4c0 .053.011.104.016.156L10 3.174V3c0-1.108-.892-2-2-2zm4.486 1.514c-.127 0-.256.023-.377.072a1.017 1.017 0 0 0-.33.22l-8.486 8.485A1 1 0 0 0 4 13a.999.999 0 0 0 .709-.293l8.484-8.486a1 1 0 0 0 .221-.33v-.002a.996.996 0 0 0-.221-1.082.996.996 0 0 0-.707-.293zM4 5c-.554 0-1 .446-1 1v1a4.988 4.988 0 0 0 .672 2.5L5.18 7.992A2.985 2.985 0 0 1 5 7V6c0-.554-.446-1-1-1zm8.973.86l-2.161 2.158a2.978 2.978 0 0 1-1.794 1.794l-2.075 2.075A4.988 4.988 0 0 0 7 11.9V13H5.83l-.414.414a1.96 1.96 0 0 1-.416.307V15h6v-2H9v-1.1c2.287-.46 4-2.473 4-4.9V6c0-.05-.02-.093-.027-.14z"/></svg><svg height="16" width="16" viewBox="0 0 16 16" id="audio-white" y="134"><defs><filter id="aea" height="1.309" width="1.432" y="-.154" x="-.216" color-interpolation-filters="sRGB"><feGaussianBlur stdDeviation=".9"/></filter></defs><path opacity=".5" d="M8 1c-1.108 0-2 .892-2 2v4c0 1.108.892 2 2 2s2-.892 2-2V3c0-1.108-.892-2-2-2zM4 5c-.554 0-1 .446-1 1v1a4.988 4.988 0 0 0 4 4.9V13H5v2h6v-2H9v-1.1c2.287-.46 4-2.473 4-4.9V6c0-.554-.446-1-1-1s-1 .446-1 1v1c0 1.662-1.338 3-3 3S5 8.662 5 7V6c0-.554-.446-1-1-1z" fill-rule="evenodd" filter="url(#aea)"/><path fill="#fff" d="M8 1c-1.108 0-2 .892-2 2v4c0 1.108.892 2 2 2s2-.892 2-2V3c0-1.108-.892-2-2-2zM4 5c-.554 0-1 .446-1 1v1a4.988 4.988 0 0 0 4 4.9V13H5v2h6v-2H9v-1.1c2.287-.46 4-2.473 4-4.9V6c0-.554-.446-1-1-1s-1 .446-1 1v1c0 1.662-1.338 3-3 3S5 8.662 5 7V6c0-.554-.446-1-1-1z" fill-rule="evenodd"/></svg><svg height="10" width="10" version="1" viewBox="0 0 10 10" id="caret" x="83" y="64"><path style="block-progression:tb;text-transform:none;text-indent:0" d="M1 3l4 4 4-3.994z" fill="#fff" color="#000"/></svg><svg height="16" width="16" version="1" viewBox="0 0 16 16" id="caret-dark" x="160" y="96"><path style="block-progression:tb;text-transform:none;text-indent:0" d="M4 6l4 4 4-3.994z" color="#000"/></svg><svg height="16" width="16" viewBox="0 0 16 16" id="checkbox-mark" x="160" y="112"><path d="M11.924 4.066l-4.932 4.97-2.828-2.83L2.75 7.618l4.242 4.243 6.365-6.365-1.433-1.432z" fill="#fff"/></svg><svg height="16" width="16" viewBox="0 0 16 16" id="checkbox-mark-white" x="160" y="128"><path d="M11.924 4.066l-4.932 4.97-2.828-2.83L2.75 7.618l4.242 4.243 6.365-6.365-1.433-1.432z"/></svg><svg width="16" height="16" viewBox="0 0 16 16" id="checkbox-mixed" y="150"><path d="M4 7v2h8V7H4z" fill="#fff"/></svg><svg width="16" height="16" viewBox="0 0 16 16" id="checkbox-mixed-white" x="96"><path d="M4 7v2h8V7H4z"/></svg><svg height="16" viewBox="-0.5 -0.5 16 16" width="16" overflow="visible" id="checkmark" x="96" y="16"><path d="M6.09 12.5L1.14 7.55l1.413-1.414L6.09 9.67l6.344-6.382 1.433 1.434z"/></svg><svg height="16" viewBox="-0.5 -0.5 16 16" width="16" overflow="visible" id="checkmark-color" x="96" y="32"><path d="M6.09 12.5L1.14 7.55l1.413-1.414L6.09 9.67l6.344-6.382 1.433 1.434z" fill="#00d400"/></svg><svg height="16" viewBox="-0.5 -0.5 16 16" width="16" overflow="visible" id="checkmark-white" x="96" y="48"><path d="M6.09 12.5L1.14 7.55l1.413-1.414L6.09 9.67l6.345-6.382 1.433 1.434z" fill="#fff"/></svg><svg height="16" width="16" viewBox="0 0 16 16" id="clippy" x="96" y="64"><path opacity=".5" d="M13 15H2V5h11v3h1l.001-5c0-.584-.416-1-1-1H9.534c0-1.183-.95-2-2.133-2S5.268.817 5.268 2h-3.2C1.484 2 1 2.417 1 3v12c0 .584.483 1 1.067 1H13c.584-.001 1-.416 1-1v-3h-1zM4.2 3h1.067c.583 0 1.066-.416 1.066-1 0-.583.484-.933 1.067-.933s1.067.35 1.067.933c0 .584.533 1 1.066 1H10.8c.517 0 1.2.417 1.2 1H3c0-.65.599-1 1.199-1zM3 11h2v-1H3zm8-2V7l-4 3 4 3v-2h5V9h-5zm-8 4h4v-1H3zm6-7H3v1h6zM6 8H3v1h3z"/></svg><svg height="16" width="16" viewBox="0 0 16 16" id="close" y="86"><defs><filter id="apa" height="1.599" width="1.601" y="-.3" x="-.3" color-interpolation-filters="sRGB"><feGaussianBlur stdDeviation="1.239"/></filter></defs><path filter="url(#apa)" stroke="#fff" stroke-width="2" d="M12.95 11.536l-1.414 1.414L8 9.414 4.465 12.95 3.05 11.536 6.586 8 3.05 4.464 4.465 3.05 8 6.586l3.516-3.555 1.434 1.434L9.414 8z" fill="#fff"/><path d="M12.95 11.536l-1.414 1.414L8 9.414 4.465 12.95 3.05 11.536 6.586 8 3.05 4.464 4.465 3.05 8 6.586l3.516-3.555 1.434 1.434L9.414 8z"/></svg><svg height="16" width="16" viewBox="0 0 16 16" id="close-white" x="16" y="86"><path fill="#fff" d="M12.95 11.536l-1.414 1.414L8 9.414 4.465 12.95 3.05 11.536 6.586 8 3.05 4.464 4.465 3.05 8 6.586l3.516-3.555 1.434 1.434L9.414 8z"/></svg><svg height="16" width="16" viewBox="0 0 16 16" id="comment" x="32" y="86"><path d="M8 1.5C3.582 1.5 0 3.962 0 7s3.582 5.5 8 5.5c.25 0 .49-.016.734-.03L13 16v-4.703c1.83-1.008 3-2.56 3-4.297 0-3.038-3.582-5.5-8-5.5z"/></svg><svg height="16" width="16" viewBox="0 0 16 16" id="confirm" x="48" y="86"><path d="M8.633.635a.998.998 0 0 0-.707 1.707L12.584 7H1c-.554 0-1 .446-1 1s.446 1 1 1h11.586l-4.658 4.658a.998.998 0 0 0 0 1.414.997.997 0 0 0 1.414 0l6.363-6.363v-.002h.002a1 1 0 0 0 .217-.328l.002-.002v-.002c.02-.05.019-.105.031-.158.016-.072.043-.14.043-.217 0-.071-.027-.134-.041-.201-.012-.058-.012-.12-.033-.174v-.002l-.002-.004a.994.994 0 0 0-.217-.326l-.002-.002L9.342.928a1 1 0 0 0-.71-.293z" fill-rule="evenodd"/></svg><svg height="16" width="16" viewBox="0 0 16 16" id="confirm-white" x="64" y="86"><path d="M8.633.635a.998.998 0 0 0-.707 1.707L12.584 7H1c-.554 0-1 .446-1 1s.446 1 1 1h11.586l-4.658 4.658a.998.998 0 0 0 0 1.414.997.997 0 0 0 1.414 0l6.363-6.363v-.002h.002a1 1 0 0 0 .217-.328l.002-.002v-.002c.02-.05.019-.105.031-.158.016-.072.043-.14.043-.217 0-.071-.027-.134-.041-.201-.012-.058-.012-.12-.033-.174v-.002l-.002-.004a.994.994 0 0 0-.217-.326l-.002-.002L9.342.928a1 1 0 0 0-.71-.293z" fill-rule="evenodd" fill="#fff"/></svg><svg height="16" width="16" viewBox="0 0 16 16" id="delete" x="80" y="86"><path d="M6.5 1L6 2H3c-.554 0-1 .446-1 1v1h12V3c0-.554-.446-1-1-1h-3l-.5-1zM3 5l.875 9c.06.55.573 1 1.125 1h6c.552 0 1.064-.45 1.125-1L13 5z" fill-rule="evenodd"/></svg><svg height="16" width="16" viewBox="0 0 16 16" id="delete-hover" x="96" y="86"><path fill="#d40000" d="M6.5 1L6 2H3c-.554 0-1 .446-1 1v1h12V3c0-.554-.446-1-1-1h-3l-.5-1zM3 5l.875 9c.06.55.573 1 1.125 1h6c.552 0 1.064-.45 1.125-1L13 5z" fill-rule="evenodd"/></svg><svg height="16" width="16" viewBox="0 0 16 16" id="delete-white" x="112"><path d="M6.5 1L6 2H3c-.554 0-1 .446-1 1v1h12V3c0-.554-.446-1-1-1h-3l-.5-1zM3 5l.875 9c.06.55.573 1 1.125 1h6c.552 0 1.064-.45 1.125-1L13 5z" fill-rule="evenodd" fill="#fff"/></svg><svg height="16" width="16" version="1" viewBox="0 0 16 16" id="details" x="112" y="16"><path d="M5 7.474c.155.382.325.69.644.246.407-.268 1.76-1.427 1.662-.342-.368 2.017-.834 4.017-1.17 6.04-.393 1.114.634 2.067 1.637 1.31 1.078-.502 1.99-1.287 2.927-2.01-.144-.323-.25-.79-.596-.347-.468.24-1.47 1.318-1.696.472.315-2.18.975-4.295 1.365-6.462.397-1.005-.364-2.223-1.4-1.363C7.117 5.634 6.083 6.6 5 7.474zM9.46.005C8.15-.017 7.553 2.147 8.815 2.68c1.023.378 2.077-.714 1.79-1.75-.098-.542-.598-.97-1.147-.93z"/></svg><svg height="16" width="16" viewBox="0 0 16 16" id="download" x="112" y="32"><path d="M6 1h4v7h5l-7 7-7-7h5z"/></svg><svg height="16" width="16" viewBox="0 0 16 16" id="download-white" x="112" y="48"><path fill="#fff" d="M6 1h4v7h5l-7 7-7-7h5z"/></svg><svg height="16" width="16" version="1" viewBox="0 0 16 16" id="edit" x="112" y="64"><path style="block-progression:tb;text-transform:none;text-indent:0" d="M2.35 1.002A.45.45 0 0 0 2 1.44v13.12c0 .232.206.44.432.44H13.57a.452.452 0 0 0 .432-.438V4.42a.458.458 0 0 0-.055-.192l-3.312-3.2a.427.427 0 0 0-.135-.026H2.43a.424.424 0 0 0-.08 0zM4 3h6v1H4V3zm0 3h5v1H4V6zm0 3h8v1H4V9zm0 3h4v1H4v-1z" color="#000"/></svg><svg height="16" width="16" viewBox="0 0 16 16" id="error" x="112" y="80"><path d="M5.516 2L2 5.516v4.968L5.516 14h4.968L14 10.484V5.516L10.484 2H5.516zM7 4h2v5H7V4zm0 6h2v2H7v-2z"/></svg><svg height="16" width="16" viewBox="0 0 16 16" id="error-color" y="102"><path d="M5.516 2L2 5.516v4.968L5.516 14h4.968L14 10.484V5.516L10.484 2H5.516zM7 4h2v5H7V4zm0 6h2v2H7v-2z" fill="#d40000"/></svg><svg height="16" width="16" viewBox="0 0 16 16" id="error-white" x="16" y="102"><path d="M5.516 2L2 5.516v4.968L5.516 14h4.968L14 10.484V5.516L10.484 2H5.516zM7 4h2v5H7V4zm0 6h2v2H7v-2z" fill="#fff"/></svg><svg height="16" width="16" viewBox="0 0 16 16" id="external" x="32" y="102"><path d="M7.452 1.62l2.38 2.256-3.57 3.386L8.64 9.52l3.57-3.387 2.38 2.257V1.618H7.45zM2.69 2.746c-.66 0-1.19.504-1.19 1.13v9.028c0 .625.53 1.128 1.19 1.128h9.522c.66 0 1.19-.503 1.19-1.128V9.52l-1.19-1.13v4.515h-9.52v-9.03h4.76l-1.19-1.128H2.69z"/></svg><svg height="16" width="16" viewBox="0 0 16 16" id="fullscreen" x="48" y="102"><path d="M8 1c-.554 0-1 .446-1 1s.446 1 1 1h5v5c0 .554.446 1 1 1s1-.446 1-1V2c0-.554-.446-1-1-1H8zM2 7c-.554 0-1 .446-1 1v6c0 .554.446 1 1 1h6c.554 0 1-.446 1-1s-.446-1-1-1H3V8c0-.554-.446-1-1-1z" fill-rule="evenodd"/></svg><svg height="16" width="16" viewBox="0 0 16 16" id="fullscreen-white" x="64" y="102"><defs><filter id="bga" height="1.36" width="1.36" y="-.18" x="-.18" color-interpolation-filters="sRGB"><feGaussianBlur stdDeviation="1.05"/></filter></defs><path opacity=".5" d="M8 1c-.554 0-1 .446-1 1s.446 1 1 1h5v5c0 .554.446 1 1 1s1-.446 1-1V2c0-.554-.446-1-1-1H8zM2 7c-.554 0-1 .446-1 1v6c0 .554.446 1 1 1h6c.554 0 1-.446 1-1s-.446-1-1-1H3V8c0-.554-.446-1-1-1z" fill-rule="evenodd" filter="url(#bga)"/><path fill-rule="evenodd" fill="#fff" d="M8 1c-.554 0-1 .446-1 1s.446 1 1 1h5v5c0 .554.446 1 1 1s1-.446 1-1V2c0-.554-.446-1-1-1H8zM2 7c-.554 0-1 .446-1 1v6c0 .554.446 1 1 1h6c.554 0 1-.446 1-1s-.446-1-1-1H3V8c0-.554-.446-1-1-1z"/></svg><svg height="17" width="17" viewBox="0 0 17 17" id="history" x="66" y="64"><path d="M9.525 2.08c-3.95 0-6.535 3.447-6.364 6.72H1l3.904 3.92 4.08-3.874H6.837C6.6 7.146 8 5.732 9.526 5.754c1.595.024 2.8 1.23 2.8 2.734.09 1.594-1.63 3.428-3.966 2.53 0 1.23.003 2.545 0 3.765 4.19.83 7.64-2.51 7.64-6.25C16 4.97 13.08 2.08 9.525 2.08z"/></svg><svg height="16" width="16" version="1" viewBox="0 0 16 16" id="info" x="96" y="102"><path color="#000" fill="none" d="M-62.897-32.993h163.31v97.986h-163.31z"/><path opacity=".5" d="M5 7.474c.155.382.325.69.644.246.407-.268 1.76-1.427 1.662-.342-.368 2.017-.834 4.017-1.17 6.04-.393 1.114.634 2.067 1.637 1.31 1.078-.502 1.99-1.287 2.927-2.01-.144-.323-.25-.79-.596-.347-.468.24-1.47 1.318-1.696.472.315-2.18.975-4.295 1.365-6.462.397-1.005-.364-2.223-1.4-1.363C7.117 5.634 6.083 6.6 5 7.474zM9.46.005C8.15-.017 7.553 2.147 8.815 2.68c1.023.378 2.077-.714 1.79-1.75-.098-.542-.598-.97-1.147-.93z"/></svg><svg height="16" width="16" version="1" viewBox="0 0 16 16" id="info-white" x="112" y="102"><path color="#000" fill="none" d="M-62.897-32.993h163.31v97.986h-163.31z"/><path d="M5 7.474c.155.382.325.69.644.246.407-.268 1.76-1.427 1.662-.342-.368 2.017-.834 4.017-1.17 6.04-.393 1.114.634 2.067 1.637 1.31 1.078-.502 1.99-1.287 2.927-2.01-.144-.323-.25-.79-.596-.347-.468.24-1.47 1.318-1.696.472.315-2.18.975-4.295 1.365-6.462.397-1.005-.364-2.223-1.4-1.363C7.117 5.634 6.083 6.6 5 7.474zM9.46.005C8.15-.017 7.553 2.147 8.815 2.68c1.023.378 2.077-.714 1.79-1.75-.098-.542-.598-.97-1.147-.93z" fill="#fff"/></svg><svg height="16" width="16" version="1" viewBox="0 0 16 16" id="logout" x="128"><path style="block-progression:tb;text-transform:none;text-indent:0" d="M8 0c-.47 0-.96.542-.95 1v6c-.007.528.422 1 .95 1s.958-.472.95-1V1A.967.967 0 0 0 8 0zM4.656 2.5a.952.952 0 0 0-.25.094c-3 1.57-3.918 4.798-3.125 7.47A6.907 6.907 0 0 0 7.97 15c3.358 0 5.876-2.15 6.718-4.78.84-2.634-.058-5.825-3.125-7.595-.434-.254-1.06-.09-1.313.343-.254.434-.09 1.06.344 1.313 2.39 1.38 2.882 3.495 2.28 5.376-.6 1.88-2.343 3.437-4.905 3.437-2.577 0-4.3-1.65-4.876-3.594-.578-1.944-.047-4.05 2.187-5.22a.98.98 0 0 0 .457-1.105.98.98 0 0 0-.987-.675.978.978 0 0 0-.094 0z" color="#000"/></svg><svg height="16" width="16" version="1" viewBox="0 0 16 16" id="mail" x="128" y="16"><path d="M.89 3a.887.887 0 0 0-.89.89v8.222c0 .492.396.888.89.888h14.22c.494 0 .89-.396.89-.888V3.89a.887.887 0 0 0-.89-.89zm.75 1.028l6.08 6.082h.528l6.11-6.082.612.61-3.64 3.696 2.75 2.805-.61.61-2.805-2.805L8.64 11H7.36L5.335 8.945l-2.806 2.833-.61-.64 2.777-2.804L1.028 4.64z"/></svg><svg height="16" width="16" viewBox="0 0 16 16" id="menu" x="128" y="32"><path d="M2 2v2h12V2zm0 5v2h12V7zm0 5v2h12v-2z"/></svg><svg height="16" width="16" version="1" viewBox="0 0 16 16" id="more" x="128" y="48"><path color="#000" fill="none" d="M-62.897-32.993h163.31v97.986h-163.31z"/><path d="M3 6a2 2 0 1 0 0 4 2 2 0 0 0 0-4zm5 0a2 2 0 1 0 0 4 2 2 0 0 0 0-4zm5 0a2 2 0 1 0 0 4 2 2 0 0 0 0-4z" fill-rule="evenodd"/></svg><svg height="16" width="16" version="1" viewBox="0 0 16 16" id="more-white" x="128" y="64"><path color="#000" fill="none" d="M-62.897-32.993h163.31v97.986h-163.31z"/><path d="M3 6a2 2 0 1 0 0 4 2 2 0 0 0 0-4zm5 0a2 2 0 1 0 0 4 2 2 0 0 0 0-4zm5 0a2 2 0 1 0 0 4 2 2 0 0 0 0-4z" fill-rule="evenodd" fill="#fff"/></svg><svg height="16" width="16" viewBox="0 0 71 100" id="password" x="16" y="150"><path d="M35.5 6.25c-13.807 0-25 11.193-25 25v12.5H4.25V87.5h62.5V43.75H60.5v-12.5c0-13.807-11.194-25-25-25zm0 12.5c6.904 0 12.5 5.596 12.5 12.5v12.5H23v-12.5c0-6.904 5.596-12.5 12.5-12.5z"/></svg><svg height="16" width="16" viewBox="0 0 16 16" id="pause" x="128" y="96"><path d="M3 3v10h4V3H3zm6 0v10h4V3H9z"/></svg><svg height="16" width="16" viewBox="0 0 16 16" id="pause-big" y="118"><path d="M1 1v14h5V1zm9 0v14h5V1z"/></svg><svg height="16" width="16" viewBox="0 0 16 16" id="play" x="16" y="118"><path d="M2 2l12 6-12 6z"/></svg><svg height="16" width="16" viewBox="0 0 16 16" id="play-add" x="32" y="118"><path d="M2 1l11 6-11 6zm9 8v2H9v2h2v2h2v-2h2v-2h-2V9z"/></svg><svg height="16" width="16" viewBox="0 0 16 16" id="play-big" x="48" y="118"><path d="M0 0l16 8-16 8z"/></svg><svg height="16" width="16" viewBox="0 0 16 16" id="play-next" x="64" y="118"><path d="M7 2l7 6-7 6z"/><path d="M2 2l7 6-7 6z"/></svg><svg height="16" width="16" viewBox="0 0 16 16" id="play-previous" x="80" y="118"><path d="M9 2L2 8l7 6z"/><path d="M14 2L7 8l7 6z"/></svg><svg height="16" width="16" viewBox="0 0 16 16" id="public" x="96" y="118"><g color="#000"><path style="block-progression:tb;text-transform:none;text-indent:0" d="M5.99 5.318a3.332 3.332 0 0 0 0 4.693c.116.118.226.22.355.315l1.383-1.383A1.4 1.4 0 0 1 7.33 6.66l3.352-3.352c.568-.57 1.442-.57 2.01 0s.57 1.442 0 2.01l-1.13 1.132c.34.725.464 1.518.377 2.304l2.094-2.095c1.288-1.29 1.288-3.406 0-4.694s-3.405-1.288-4.693 0L5.99 5.318z"/><path style="block-progression:tb;text-transform:none;text-indent:0" d="M10.01 10.68a3.332 3.332 0 0 0 0-4.692 3.126 3.126 0 0 0-.355-.314L8.272 7.057A1.4 1.4 0 0 1 8.67 9.34l-3.35 3.35c-.57.57-1.444.57-2.013.002s-.568-1.442 0-2.01L4.44 9.55a4.288 4.288 0 0 1-.38-2.305L1.967 9.34c-1.288 1.29-1.288 3.405 0 4.693s3.405 1.29 4.693 0l3.35-3.352z"/></g></svg><svg height="16" width="16" viewBox="0 0 16 16" id="rename" x="112" y="118"><path d="M12.594 1.344C12.062 1.314 11.5 1.5 11 2l3 3c1.5-1.5.188-3.563-1.406-3.656zM10 3l-7 7-2 5 5-2 7-7-3-3zm-6.5 7.5l2 2L3 14l-1-1 1.5-2.5z"/></svg><svg height="16" width="16" version="1" viewBox="0 0 16 16" id="search" x="128" y="118"><path color="#000" fill="none" d="M-62.897-32.993h163.31v97.986h-163.31z"/><path opacity=".5" d="M6 1a5 5 0 0 0 0 10 4.91 4.91 0 0 0 2.656-.78l4.47 4.624A.463.463 0 0 0 13.5 15a.59.59 0 0 0 .406-.188l.938-1.062c.192-.22.195-.536 0-.72L10.25 8.626C10.728 7.86 11 6.97 11 6a5 5 0 0 0-5-5zm0 2a3 3 0 1 1 0 6 3 3 0 0 1 0-6z" color="#000"/></svg><svg height="16" width="16" version="1" viewBox="0 0 16 16" id="search-white" x="144"><path color="#000" fill="none" d="M-62.897-32.993h163.31v97.986h-163.31z"/><path d="M6 1a5 5 0 0 0 0 10 4.91 4.91 0 0 0 2.656-.78l4.47 4.624A.463.463 0 0 0 13.5 15a.59.59 0 0 0 .406-.188l.938-1.062c.192-.22.195-.536 0-.72L10.25 8.626C10.728 7.86 11 6.97 11 6a5 5 0 0 0-5-5zm0 2a3 3 0 1 1 0 6 3 3 0 0 1 0-6z" fill="#fff" color="#000"/></svg><svg height="16" width="16" version="1" viewBox="0 0 16 16" id="settings" x="144" y="16"><path d="M6.938 0A.43.43 0 0 0 6.5.438v1.25a5.818 5.818 0 0 0-1.53.656l-.907-.906a.436.436 0 0 0-.625 0l-1.5 1.5a.436.436 0 0 0 0 .624l.906.907c-.285.48-.514.976-.656 1.53H.938a.43.43 0 0 0-.438.438v2.125C.5 8.81.69 9 .938 9h1.25a5.82 5.82 0 0 0 .656 1.53l-.907.908a.436.436 0 0 0 0 .625l1.5 1.5c.176.176.45.176.625 0l.907-.907c.48.285.976.514 1.53.656v1.25c0 .25.19.438.437.438h2.125a.43.43 0 0 0 .438-.438v-1.25a5.82 5.82 0 0 0 1.53-.657l.907.907c.176.175.45.175.625 0l1.5-1.5a.436.436 0 0 0 0-.625l-.906-.906A5.79 5.79 0 0 0 13.812 9h1.25a.43.43 0 0 0 .438-.438V6.437A.43.43 0 0 0 15.062 6h-1.25a5.79 5.79 0 0 0-.656-1.532l.906-.906a.436.436 0 0 0 0-.625l-1.5-1.5a.436.436 0 0 0-.625 0l-.906.906a5.816 5.816 0 0 0-1.53-.656V.437A.43.43 0 0 0 9.063 0zM8 4.157a3.344 3.344 0 0 1 0 6.686 3.344 3.344 0 0 1 0-6.686z" display="block" opacity=".5"/></svg><svg height="16" width="16" version="1" viewBox="0 0 16 16" id="settings-dark" x="144" y="32"><path d="M6.938 0A.43.43 0 0 0 6.5.438v1.25a5.818 5.818 0 0 0-1.53.656l-.907-.906a.436.436 0 0 0-.625 0l-1.5 1.5a.436.436 0 0 0 0 .624l.906.907c-.285.48-.514.976-.656 1.53H.938a.43.43 0 0 0-.438.438v2.125C.5 8.81.69 9 .938 9h1.25a5.82 5.82 0 0 0 .656 1.53l-.907.908a.436.436 0 0 0 0 .625l1.5 1.5c.176.176.45.176.625 0l.907-.907c.48.285.976.514 1.53.656v1.25c0 .25.19.438.437.438h2.125a.43.43 0 0 0 .438-.438v-1.25a5.82 5.82 0 0 0 1.53-.657l.907.907c.176.175.45.175.625 0l1.5-1.5a.436.436 0 0 0 0-.625l-.906-.906A5.79 5.79 0 0 0 13.812 9h1.25a.43.43 0 0 0 .438-.438V6.437A.43.43 0 0 0 15.062 6h-1.25a5.79 5.79 0 0 0-.656-1.532l.906-.906a.436.436 0 0 0 0-.625l-1.5-1.5a.436.436 0 0 0-.625 0l-.906.906a5.816 5.816 0 0 0-1.53-.656V.437A.43.43 0 0 0 9.063 0zM8 4.157a3.344 3.344 0 0 1 0 6.686 3.344 3.344 0 0 1 0-6.686z" display="block"/></svg><svg height="16" width="16" viewBox="0 0 16 16" id="share" x="144" y="48"><path d="M12.228 1a2.457 2.457 0 0 0-2.46 2.454c0 .075.01.15.016.224L5.05 6.092a2.445 2.445 0 0 0-1.596-.586A2.453 2.453 0 0 0 1 7.96a2.453 2.453 0 0 0 2.454 2.455 2.45 2.45 0 0 0 1.46-.477l4.865 2.474c-.004.044-.01.09-.01.134a2.457 2.457 0 1 0 .804-1.818l-4.696-2.4c.02-.123.035-.25.035-.378 0-.072-.01-.144-.015-.214l4.74-2.414A2.457 2.457 0 1 0 12.228.99z"/></svg><svg height="16" width="16" viewBox="0 0 16 16" id="shared" x="144" y="64"><path d="M12.228 1a2.457 2.457 0 0 0-2.46 2.454c0 .075.01.15.016.224L5.05 6.092a2.445 2.445 0 0 0-1.596-.586A2.453 2.453 0 0 0 1 7.96a2.453 2.453 0 0 0 2.454 2.455 2.45 2.45 0 0 0 1.46-.477l4.865 2.474c-.004.044-.01.09-.01.134a2.457 2.457 0 1 0 .804-1.818l-4.696-2.4c.02-.123.035-.25.035-.378 0-.072-.01-.144-.015-.214l4.74-2.414A2.457 2.457 0 1 0 12.228.99z"/></svg><svg height="16" width="16" viewBox="0 0 16 16" id="sound" x="144" y="80"><path d="M1 6v4h3l3 3h1V3H7L4 6zm12.25-3l-.78.625C13.433 4.825 14 6.34 14 8s-.566 3.175-1.53 4.375l.78.625C14.348 11.63 15 9.892 15 8s-.652-3.63-1.75-5zm-1.563 1.25l-.812.656C11.563 5.763 12 6.816 12 8s-.437 2.237-1.125 3.094l.813.656C12.51 10.723 13 9.42 13 8s-.49-2.723-1.313-3.75zM10.126 5.5l-.78.625C9.754 6.638 10 7.29 10 8s-.245 1.36-.656 1.875l.78.625a4.008 4.008 0 0 0 0-5z"/></svg><svg height="16" width="16" viewBox="0 0 16 16" id="sound-off" x="144" y="96"><path d="M1 6v4h3l3 3h1V3H7L4 6z"/></svg><svg height="22" width="22" viewBox="0 0 22 22" id="star" y="64"><path d="M11.017.06l2.946 7.384L22 8.077l-6.11 5.082L17.77 21l-6.72-4.242-6.876 4.213 1.957-7.703L0 8.03l7.932-.52z" opacity=".5"/></svg><svg height="22" width="22" viewBox="0 0 22 22" id="star-dark" x="22" y="64"><path d="M11.017.06l2.946 7.384L22 8.077l-6.11 5.082L17.77 21l-6.72-4.242-6.876 4.213 1.957-7.703L0 8.03l7.932-.52z"/></svg><svg height="22" width="22" viewBox="0 0 22 22" id="starred" x="44" y="64"><path fill="#FC0" d="M11.017.06l2.946 7.384L22 8.077l-6.11 5.082L17.77 21l-6.72-4.242-6.876 4.213 1.957-7.703L0 8.03l7.932-.52z"/></svg><svg height="16" width="16" version="1" viewBox="0 0 16 16" id="tag" x="32" y="134"><path color="#000" fill="none" d="M-62.897-32.993h163.31v97.986h-163.31z"/><path d="M6.186.96L1.38.975c-.273 0-.347.21-.348.346l-.015 4.802 8.723 8.722a.498.498 0 0 0 .71 0l4.456-4.457a.5.5 0 0 0 .002-.71v.01L6.54 1.318 6.186.964zM4.02 2.814a1.144 1.144 0 0 1 1.143 1.144A1.144 1.144 0 0 1 4.02 5.1a1.144 1.144 0 0 1-1.145-1.143A1.144 1.144 0 0 1 4.02 2.813z"/></svg><svg height="16" viewBox="0 0 16 16" width="16" overflow="visible" id="toggle" x="48" y="134"><path d="M8 3C4.89 3 2.073 4.72 0 7.5 2.073 10.28 4.89 12 8 12c3.11 0 5.927-1.72 8-4.5C13.927 4.72 11.11 3 8 3zm0 1.5a3 3 0 1 1 0 6 3 3 0 0 1 0-6zM8 6a1.5 1.5 0 1 0 0 3 1.5 1.5 0 0 0 0-3z" fill="#222"/></svg><svg height="16" width="16" version="1" viewBox="0 0 16 16" id="toggle-filelist" x="64" y="134"><rect rx=".5" ry=".5" height="4" width="4" y="1" x="1"/><rect rx=".5" ry=".5" height="1" width="9" y="2" x="6"/><rect rx=".5" ry=".5" height="4" width="4" y="6" x="1"/><rect rx=".5" ry=".5" height="1" width="9" y="7" x="6"/><rect rx=".5" ry=".5" height="4" width="4" y="11" x="1"/><rect rx=".5" ry=".5" height="1" width="9" y="12" x="6"/></svg><svg height="16" width="16" version="1" viewBox="0 0 16 16" id="toggle-pictures" x="80" y="134"><rect rx=".5" ry=".5" height="6" width="6" y="1" x="1"/><rect rx=".5" ry=".5" height="6" width="6" y="1" x="9"/><rect rx=".5" ry=".5" height="6" width="6" y="9" x="9"/><rect rx=".5" ry=".5" height="6" width="6" y="9" x="1"/></svg><svg height="16" width="16" viewBox="0 0 16 16" id="triangle-e" x="96" y="134"><path style="block-progression:tb;text-transform:none;text-indent:0" d="M6 12l4-4-3.994-4z" color="#000"/></svg><svg height="16" width="16" viewBox="0 0 16 16" id="triangle-n" x="112" y="134"><path style="block-progression:tb;text-transform:none;text-indent:0" d="M12 10L8 6 4 9.994z" color="#000"/></svg><svg height="16" width="16" viewBox="0 0 16 16" id="triangle-s" x="128" y="134"><path style="block-progression:tb;text-transform:none;text-indent:0" d="M4 6l4 4 4-3.994z" color="#000"/></svg><svg height="16" width="16" viewBox="0 0 16 16" id="upload" x="144" y="134"><path d="M8 1L2 7h4v4h4V7h4zM2 13v2h12v-2z"/></svg><svg height="16" width="16" viewBox="0 0 16 16" id="upload-white" x="160"><path fill="#fff" d="M8 1L2 7h4v4h4V7h4zM2 13v2h12v-2z"/></svg><svg height="16" width="16" version="1" viewBox="0 0 16 16" id="user" x="160" y="16"><path color="#000" fill="none" d="M-62.897-32.993h163.31v97.986h-163.31z"/><path style="block-progression:tb;text-transform:none;text-indent:0" d="M8.404 1c-1.732 0-3.2 1.266-3.2 2.9.012.516.058 1.153.366 2.5v.033l.034.034c.1.283.243.445.433.666s.417.482.633.7l.067.067c.043.186.095.387.133.567.103.478.093.817.067.933-.744.26-1.67.572-2.5.933-.466.203-.888.384-1.233.6-.345.217-.688.38-.8.867-.16.633-.2.754-.4 1.533-.027.21.083.43.267.534C3.78 14.68 6.096 15.01 8.405 15s4.606-.356 6.066-1.133c.117-.074.143-.11.133-.234-.043-.69-.08-1.367-.133-1.766a.537.537 0 0 0-.133-.267c-.464-.554-1.157-.892-1.967-1.233-.74-.312-1.607-.635-2.466-1-.05-.107-.096-.42 0-.9.025-.13.066-.268.1-.4.08-.09.143-.165.233-.267.19-.218.396-.447.566-.667s.31-.408.4-.666l.034-.034c.348-1.406.348-1.992.366-2.5V3.9c0-1.634-1.468-2.9-3.2-2.9z" color="#000"/></svg><svg height="16" width="16" viewBox="0 0 16 16" id="video" x="160" y="32"><path d="M3 3c-1.108 0-2 .892-2 2v6c0 1.108.892 2 2 2h6c1.108 0 2-.892 2-2V9.666L15 13V3l-4 3.334V5c0-1.108-.892-2-2-2z"/></svg><svg height="16" width="16" viewBox="0 0 16 16" id="video-off" x="160" y="48"><path d="M13.486 1.514a.997.997 0 0 0-.707.293L2.293 12.29a1 1 0 0 0 0 1.416 1 1 0 0 0 1.416 0L14.193 3.22a.998.998 0 0 0 0-1.415.996.996 0 0 0-.707-.293zM3 3c-1.108 0-2 .892-2 2v6c0 .368.105.706.277 1.002.085-.149.183-.292.309-.418l8.346-8.346A1.98 1.98 0 0 0 9 3H3zm12 .807c-.034.04-.062.083-.1.12L5.83 13H9c1.108 0 2-.892 2-2V9.666L15 13V3.807z"/></svg><svg height="16" width="16" viewBox="0 0 16 16" id="video-off-white" x="160" y="64"><defs><filter id="cwa" height="1.382" width="1.341" y="-.191" x="-.17" color-interpolation-filters="sRGB"><feGaussianBlur stdDeviation=".993"/></filter></defs><path opacity=".5" d="M13.486 1.514a.997.997 0 0 0-.707.293L2.293 12.29a1 1 0 0 0 0 1.416 1 1 0 0 0 1.416 0L14.193 3.22a.998.998 0 0 0 0-1.415.996.996 0 0 0-.707-.293zM3 3c-1.108 0-2 .892-2 2v6c0 .368.105.706.277 1.002.085-.149.183-.292.309-.418l8.346-8.346A1.98 1.98 0 0 0 9 3H3zm12 .807c-.034.04-.062.083-.1.12L5.83 13H9c1.108 0 2-.892 2-2V9.666L15 13V3.807z" filter="url(#cwa)"/><path fill="#fff" d="M13.486 1.514a.997.997 0 0 0-.707.293L2.293 12.29a1 1 0 0 0 0 1.416 1 1 0 0 0 1.416 0L14.193 3.22a.998.998 0 0 0 0-1.415.996.996 0 0 0-.707-.293zM3 3c-1.108 0-2 .892-2 2v6c0 .368.105.706.277 1.002.085-.149.183-.292.309-.418l8.346-8.346A1.98 1.98 0 0 0 9 3H3zm12 .807c-.034.04-.062.083-.1.12L5.83 13H9c1.108 0 2-.892 2-2V9.666L15 13V3.807z"/></svg><svg height="16" width="16" viewBox="0 0 16 16" id="video-white" x="160" y="80"><defs><filter id="cxa" height="1.432" width="1.309" y="-.216" x="-.154" color-interpolation-filters="sRGB"><feGaussianBlur stdDeviation=".9"/></filter></defs><path opacity=".5" d="M3 3c-1.108 0-2 .892-2 2v6c0 1.108.892 2 2 2h6c1.108 0 2-.892 2-2V9.666L15 13V3l-4 3.334V5c0-1.108-.892-2-2-2z" filter="url(#cxa)"/><path d="M3 3c-1.108 0-2 .892-2 2v6c0 1.108.892 2 2 2h6c1.108 0 2-.892 2-2V9.666L15 13V3l-4 3.334V5c0-1.108-.892-2-2-2z" fill="#fff"/></svg><svg height="32" width="32" viewBox="0 0 32 32" id="view-close" y="32"><defs><filter id="cya" height="1.6" width="1.6" y="-.3" x="-.3" color-interpolation-filters="sRGB"><feGaussianBlur stdDeviation="2.239"/></filter></defs><path filter="url(#cya)" stroke="#000" stroke-width="2" d="M24.955 23.538l-1.414 1.414-7.535-7.536-7.536 7.536-1.415-1.414 7.536-7.536-7.535-7.536L8.47 7.052l7.535 7.536 7.516-7.555 1.435 1.433-7.536 7.536z"/><path d="M24.955 23.538l-1.414 1.414-7.535-7.536-7.536 7.536-1.415-1.414 7.536-7.536-7.535-7.536L8.47 7.052l7.535 7.536 7.516-7.555 1.435 1.433-7.536 7.536z" fill="#fff"/></svg><svg height="32" width="32" viewBox="0 0 32 32" id="view-download" x="32" y="32"><defs><filter id="cza" height="1.6" width="1.6" y="-.3" x="-.3" color-interpolation-filters="sRGB"><feGaussianBlur stdDeviation="1.75"/></filter></defs><path d="M6 1037.4h4v7h5l-7 7-7-7h5z" transform="translate(4.57 -1476) scale(1.4286)" filter="url(#cza)" stroke="#000"/><path d="M13.143 6.03h5.714v10H26l-10 10-10-10h7.143z" fill="#fff"/></svg><svg height="32" width="32" viewBox="0 0 32 32" id="view-next" x="64"><defs><filter id="daa" height="1.448" width="1.807" y="-.224" x="-.404" color-interpolation-filters="sRGB"><feGaussianBlur stdDeviation="2.416"/></filter></defs><path filter="url(#daa)" stroke="#000" stroke-width="2" d="M10.414 28.952L9 27.538l11.535-11.536L9 4.466l1.414-1.414 12.95 12.95z"/><path d="M10.414 28.952L9 27.538l11.535-11.536L9 4.466l1.414-1.414 12.95 12.95z" fill="#fff"/></svg><svg height="32" width="32" viewBox="0 0 32 32" id="view-pause" x="64" y="32"><defs><filter id="dba" height="1.6" width="1.6" y="-.3" x="-.3" color-interpolation-filters="sRGB"><feGaussianBlur stdDeviation="2.5"/></filter></defs><path d="M6 1026.4v20h8v-20H6zm12 0v20h8v-20h-8z" filter="url(#dba)" stroke="#000" stroke-width="2.222" transform="matrix(.9 0 0 .9 1.6 -916.76)"/><path d="M7 7v18h7.2V7H7zm10.8 0v18H25V7h-7.2z" fill="#fff"/></svg><svg height="32" width="32" viewBox="0 0 32 32" id="view-play" x="32"><defs><filter id="dca" height="1.6" width="1.6" y="-.3" x="-.3" color-interpolation-filters="sRGB"><feGaussianBlur stdDeviation="3"/></filter></defs><path d="M4 1024.4l24 12-24 12z" filter="url(#dca)" stroke="#000" stroke-width="2.4" transform="translate(2.667 -847.67) scale(.83333)"/><path d="M6 5.993l20 10-20 10z" fill="#fff"/></svg><svg height="32" width="32" viewBox="0 0 32 32" id="view-previous"><defs><filter id="dda" height="1.448" width="1.807" y="-.224" x="-.404" color-interpolation-filters="sRGB"><feGaussianBlur stdDeviation="2.416"/></filter></defs><path filter="url(#dda)" stroke="#000" stroke-width="2" d="M10.414 28.952L9 27.538l11.535-11.536L9 4.466l1.414-1.414 12.95 12.95z" transform="matrix(-1 0 0 1 32.364 0)"/><path d="M21.95 28.952l1.414-1.414-11.536-11.536L23.364 4.466 21.95 3.052 9 16.002z" fill="#fff"/></svg></svg>