<?xml version="1.0" encoding="utf-8"?>
<!-- Generator: Adobe Illustrator 16.0.0, SVG Export Plug-In . SVG Version: 6.00 Build 0)  -->
<!DOCTYPE svg PUBLIC "-//W3C//DTD SVG 1.1//EN" "http://www.w3.org/Graphics/SVG/1.1/DTD/svg11.dtd">
<svg version="1.1" id="Layer_1" xmlns="http://www.w3.org/2000/svg" xmlns:xlink="http://www.w3.org/1999/xlink" x="0px" y="0px"
	 width="120.4px" height="20.938px" viewBox="0 0 120.4 20.938" enable-background="new 0 0 120.4 20.938" xml:space="preserve">
<path opacity="0.5" fill="#5F5F5F" enable-background="new    " d="M13.017,0l2.944,7.383L24,8.015l-6.109,5.083l1.88,7.84
	l-6.721-4.24l-6.876,4.211l1.957-7.703L2,7.97l7.933-0.52L13.017,0z M37.017,0l2.944,7.383L48,8.015l-6.109,5.083l1.88,7.84
	l-6.721-4.24l-6.876,4.211l1.957-7.703L26,7.97l7.933-0.52L37.017,0z M61.017,0l2.944,7.383L72,8.015l-6.109,5.083l1.88,7.84
	l-6.721-4.24l-6.876,4.211l1.957-7.703L50,7.97l7.933-0.52L61.017,0z M85.017,0l2.944,7.383L96,8.015l-6.109,5.083l1.88,7.84
	l-6.721-4.24l-6.876,4.211l1.957-7.703L74,7.97l7.933-0.52L85.017,0z M109.017,0l2.944,7.383L120,8.015l-6.109,5.083l1.88,7.84
	l-6.721-4.24l-6.876,4.211l1.957-7.703L98,7.97l7.933-0.52L109.017,0z"/>
</svg>
