<?xml version="1.0" encoding="UTF-8" standalone="no"?>
<svg
   xmlns:dc="http://purl.org/dc/elements/1.1/"
   xmlns:cc="http://creativecommons.org/ns#"
   xmlns:rdf="http://www.w3.org/1999/02/22-rdf-syntax-ns#"
   xmlns:svg="http://www.w3.org/2000/svg"
   xmlns="http://www.w3.org/2000/svg"
   xmlns:sodipodi="http://sodipodi.sourceforge.net/DTD/sodipodi-0.dtd"
   xmlns:inkscape="http://www.inkscape.org/namespaces/inkscape"
   height="20.937906"
   width="120.39989"
   version="1.1"
   id="svg3386"
   inkscape:version="0.91 r13725"
   sodipodi:docname="star.svg">
  <metadata
     id="metadata3396">
    <rdf:RDF>
      <cc:Work
         rdf:about="">
        <dc:format>image/svg+xml</dc:format>
        <dc:type
           rdf:resource="http://purl.org/dc/dcmitype/StillImage" />
        <dc:title></dc:title>
      </cc:Work>
    </rdf:RDF>
  </metadata>
  <defs
     id="defs3394" />
  <sodipodi:namedview
     pagecolor="#ffffff"
     bordercolor="#666666"
     borderopacity="1"
     objecttolerance="10"
     gridtolerance="10"
     guidetolerance="10"
     inkscape:pageopacity="0"
     inkscape:pageshadow="2"
     inkscape:window-width="1301"
     inkscape:window-height="744"
     id="namedview3392"
     showgrid="false"
     inkscape:zoom="6.8977273"
     inkscape:cx="45.793885"
     inkscape:cy="3.4967853"
     inkscape:window-x="65"
     inkscape:window-y="24"
     inkscape:window-maximized="1"
     inkscape:current-layer="svg3386"
     fit-margin-right="2.4"
     fit-margin-top="0"
     fit-margin-left="0"
     fit-margin-bottom="0" />
  <g
     transform="matrix(0.068322,0,0,0.068322,-8.114184,-50.963429)"
     id="g3388"
     style="opacity:0.5">
    <path
       d="m 330.36,858.43 43.111,108.06 117.64,9.2572 -89.445,74.392 27.55,114.75 -98.391,-62.079 -100.62,61.66 28.637,-112.76 -89.734,-76.638 116.09,-7.6094 z"
       transform="translate(-21.071,-112.5)"
       id="path3390"
       inkscape:connector-curvature="0" />
  </g>
  <g
     id="g3414"
     transform="matrix(0.068322,0,0,0.068322,15.885816,-50.963429)"
     style="opacity:0.5">
    <path
       id="path3416"
       transform="translate(-21.071,-112.5)"
       d="m 330.36,858.43 43.111,108.06 117.64,9.2572 -89.445,74.392 27.55,114.75 -98.391,-62.079 -100.62,61.66 28.637,-112.76 -89.734,-76.638 116.09,-7.6094 z"
       inkscape:connector-curvature="0" />
  </g>
  <g
     style="opacity:0.5"
     transform="matrix(0.068322,0,0,0.068322,39.885816,-50.963429)"
     id="g3418">
    <path
       inkscape:connector-curvature="0"
       d="m 330.36,858.43 43.111,108.06 117.64,9.2572 -89.445,74.392 27.55,114.75 -98.391,-62.079 -100.62,61.66 28.637,-112.76 -89.734,-76.638 116.09,-7.6094 z"
       transform="translate(-21.071,-112.5)"
       id="path3420" />
  </g>
  <g
     id="g3422"
     transform="matrix(0.068322,0,0,0.068322,63.885816,-50.963429)"
     style="opacity:0.5">
    <path
       id="path3424"
       transform="translate(-21.071,-112.5)"
       d="m 330.36,858.43 43.111,108.06 117.64,9.2572 -89.445,74.392 27.55,114.75 -98.391,-62.079 -100.62,61.66 28.637,-112.76 -89.734,-76.638 116.09,-7.6094 z"
       inkscape:connector-curvature="0" />
  </g>
  <g
     style="opacity:0.5"
     transform="matrix(0.068322,0,0,0.068322,87.885816,-50.963429)"
     id="g3426">
    <path
       inkscape:connector-curvature="0"
       d="m 330.36,858.43 43.111,108.06 117.64,9.2572 -89.445,74.392 27.55,114.75 -98.391,-62.079 -100.62,61.66 28.637,-112.76 -89.734,-76.638 116.09,-7.6094 z"
       transform="translate(-21.071,-112.5)"
       id="path3428" />
  </g>
</svg>
