<?xml version="1.0" encoding="utf-8"?>
<!-- Generator: Adobe Illustrator 16.0.0, SVG Export Plug-In . SVG Version: 6.00 Build 0)  -->
<!DOCTYPE svg PUBLIC "-//W3C//DTD SVG 1.1//EN" "http://www.w3.org/Graphics/SVG/1.1/DTD/svg11.dtd">
<svg version="1.1"
	 id="svg3386" xmlns:rdf="http://www.w3.org/1999/02/22-rdf-syntax-ns#" xmlns:cc="http://creativecommons.org/ns#" xmlns:inkscape="http://www.inkscape.org/namespaces/inkscape" xmlns:dc="http://purl.org/dc/elements/1.1/" xmlns:svg="http://www.w3.org/2000/svg" xmlns:sodipodi="http://sodipodi.sourceforge.net/DTD/sodipodi-0.dtd" sodipodi:docname="s10.svg" inkscape:version="0.91 r13725"
	 xmlns="http://www.w3.org/2000/svg" xmlns:xlink="http://www.w3.org/1999/xlink" x="0px" y="0px" width="120.4px"
	 height="20.938px" viewBox="0 0 120.4 20.938" enable-background="new 0 0 120.4 20.938" xml:space="preserve">
<sodipodi:namedview  id="namedview3392" fit-margin-left="0" showgrid="false" bordercolor="#666666" objecttolerance="10" inkscape:zoom="9.4269191" gridtolerance="10" pagecolor="#ffffff" borderopacity="1" inkscape:cy="23.198457" guidetolerance="10" inkscape:cx="72.929447" fit-margin-top="0" fit-margin-bottom="0" fit-margin-right="2.4" inkscape:current-layer="svg3386" inkscape:window-maximized="1" inkscape:window-y="24" inkscape:window-x="65" inkscape:window-height="744" inkscape:window-width="1301" inkscape:pageshadow="2" inkscape:pageopacity="0">
	</sodipodi:namedview>
<g id="g3795" transform="matrix(0.068322,0,0,0.068322,15.885816,-50.963429)">
	<path id="path3797" inkscape:connector-curvature="0" fill="#0082C9" d="M309.293,745.934l43.109,108.059l117.636,9.248
		l-89.449,74.398l27.558,114.749l-98.396-62.077l-100.612,61.662l28.63-112.762l-89.735-76.642l116.092-7.604L309.293,745.934z"/>
</g>
<g id="g3807" transform="matrix(0.068322,0,0,0.068322,-8.0871839,-50.963429)">
	<path id="path3809" inkscape:connector-curvature="0" fill="#0082C9" d="M309.283,745.935l43.109,108.059l117.65,9.248
		l-89.449,74.398l27.558,114.749l-98.397-62.077l-100.626,61.662l28.644-112.762l-89.735-76.642l116.092-7.604L309.283,745.935z"/>
</g>
<g id="g3897" transform="matrix(0.068322,0,0,0.068322,39.885816,-50.963429)">
	<path id="path3899" inkscape:connector-curvature="0" fill="#0082C9" d="M309.292,745.935l43.109,108.059l117.636,9.248
		l-89.449,74.398l27.558,114.749l-98.396-62.077l-100.612,61.662l28.63-112.762l-89.735-76.642l116.092-7.604L309.292,745.935z"/>
</g>
<g id="g3939" transform="matrix(0.068322,0,0,0.068322,63.885816,-50.963429)">
	<path id="path3941" inkscape:connector-curvature="0" fill="#0082C9" d="M309.292,745.935l43.109,108.059l117.636,9.248
		l-89.449,74.398l27.558,114.749l-98.396-62.077l-100.612,61.662l28.63-112.762l-89.735-76.642l116.092-7.604L309.292,745.935z"/>
</g>
<g id="g3981" transform="matrix(0.068322,0,0,0.068322,87.885816,-50.963429)">
	<path id="path3983" inkscape:connector-curvature="0" fill="#0082C9" d="M309.292,745.935l43.109,108.059l117.636,9.248
		l-89.449,74.398l27.558,114.749l-98.397-62.077l-100.612,61.662l28.63-112.762l-89.735-76.642l116.092-7.604L309.292,745.935z"/>
</g>
</svg>
