<svg xmlns="http://www.w3.org/2000/svg" height="20.938" width="120.4"><path d="M61.017 0l2.945 7.383L72 8.015l-6.11 5.083 1.88 7.84-6.72-4.24-6.876 4.21 1.957-7.703L50 7.97l7.932-.52zm24 0l2.945 7.383L96 8.015l-6.11 5.083 1.88 7.84-6.72-4.24-6.876 4.21 1.957-7.703L74 7.97l7.932-.52zm24 0l2.945 7.383 8.038.632-6.11 5.083 1.88 7.84-6.72-4.24-6.876 4.21 1.957-7.703L98 7.97l7.932-.52z" opacity=".5"/><g fill="#fc0"><path d="M14.635-28.59v16.697L7.792-7.68l1.957-7.704-6.133-5.236 7.93-.52z"/><path d="M14.635-28.59v16.697L7.792-7.68l1.957-7.704-6.133-5.236 7.93-.52z"/></g><path d="M31.37-28.11l2.944 7.382 8.038.632-6.11 5.083 1.88 7.84-6.753-4.24v-9.25zm-41.357-2.76l2.946 7.384 8.035.632-6.11 5.083 1.88 7.84-6.752-4.243v-9.248z" opacity=".5"/><g fill="#fc0"><path d="M-9.976-30.84v16.695l-6.842 4.213 1.956-7.705-6.13-5.236 7.93-.52z"/><path d="M-9.976-30.84v16.695l-6.842 4.213 1.956-7.705-6.13-5.236 7.93-.52z"/></g><path d="M55.603-27.613l2.945 7.382 8.037.63-6.11 5.083 1.882 7.84-6.723-4.24-6.874 4.212 1.956-7.704-6.13-5.235 7.93-.52zM13.043 0l2.946 7.383 8.036.632-6.11 5.083 1.88 7.84-6.72-4.24-6.876 4.21 1.958-7.703-6.13-5.236 7.93-.52z" fill="#fc0"/><path d="M37.006 0l2.945 7.383 8.04.632-6.11 5.083 1.88 7.84-6.753-4.24v-9.25z" opacity=".5"/><g fill="#fc0"><path d="M37.017.03v16.694l-6.843 4.213 1.957-7.704L26 7.998l7.932-.52z"/><path d="M37.017.03v16.694l-6.843 4.213 1.957-7.704L26 7.998l7.932-.52z"/></g></svg>