<svg xmlns="http://www.w3.org/2000/svg" height="20.938" width="120.4"><path d="M61.017 0l2.945 7.383L72 8.015l-6.11 5.083 1.88 7.84-6.72-4.24-6.876 4.21 1.957-7.703L50 7.97l7.932-.52zM85.017 0l2.945 7.383L96 8.015l-6.11 5.083 1.88 7.84-6.72-4.24-6.876 4.21 1.957-7.703L74 7.97l7.932-.52zM109.017 0l2.945 7.383 8.038.632-6.11 5.083 1.88 7.84-6.72-4.24-6.876 4.21 1.957-7.703L98 7.97l7.932-.52z" opacity=".5"/><g fill="#fc0"><path d="M14.635-28.59v16.697L7.792-7.68l1.957-7.704-6.132-5.236 7.93-.52z"/><path d="M14.635-28.59v16.697L7.792-7.68l1.957-7.704-6.132-5.236 7.93-.52z"/></g><path d="M31.37-28.11l2.944 7.382 8.038.632-6.11 5.083 1.88 7.84-6.753-4.24v-9.249zM-9.987-30.87l2.946 7.384 8.036.632-6.11 5.083 1.88 7.84-6.752-4.242v-9.248z" opacity=".5"/><g fill="#fc0"><path d="M-9.976-30.84v16.695l-6.842 4.213 1.956-7.705-6.13-5.236 7.93-.52z"/><path d="M-9.976-30.84v16.695l-6.842 4.213 1.956-7.705-6.13-5.236 7.93-.52z"/></g><path d="M37.017 0l2.945 7.383L48 8.015l-6.11 5.083 1.88 7.84-6.72-4.24-6.876 4.21 1.957-7.703L26 7.97l7.932-.52zM13.044 0l2.945 7.383 8.037.632-6.11 5.083 1.88 7.84-6.72-4.24-6.876 4.21 1.958-7.703-6.13-5.236 7.93-.52z" fill="#fc0"/><g><path d="M56.63-24.823l2.946 7.383 8.037.633-6.11 5.082 1.882 7.84-6.754-4.24v-9.248z" opacity=".5"/><g fill="#fc0"><path d="M56.642-24.794V-8.098L49.8-3.885l1.955-7.704-6.13-5.235 7.93-.52z"/><path d="M56.642-24.794V-8.098L49.8-3.885l1.955-7.704-6.13-5.235 7.93-.52z"/></g></g></svg>