<?xml version="1.0" encoding="utf-8"?>
<!-- Generator: Adobe Illustrator 16.0.0, SVG Export Plug-In . SVG Version: 6.00 Build 0)  -->
<!DOCTYPE svg PUBLIC "-//W3C//DTD SVG 1.1//EN" "http://www.w3.org/Graphics/SVG/1.1/DTD/svg11.dtd">
<svg version="1.1" id="Layer_1" xmlns="http://www.w3.org/2000/svg" xmlns:xlink="http://www.w3.org/1999/xlink" x="0px" y="0px"
	 width="120.4px" height="20.938px" viewBox="0 0 120.4 20.938" enable-background="new 0 0 120.4 20.938" xml:space="preserve">
<path opacity="0.5" fill="#5F5F5F" enable-background="new    " d="M61.017,0l2.944,7.383L72,8.015l-6.109,5.083l1.88,7.84
	l-6.721-4.24l-6.876,4.211l1.957-7.703L50,7.97l7.933-0.52L61.017,0z M85.017,0l2.944,7.383L96,8.015l-6.109,5.083l1.88,7.84
	l-6.721-4.24l-6.876,4.211l1.957-7.703L74,7.97l7.933-0.52L85.017,0z M109.017,0l2.944,7.383L120,8.015l-6.109,5.083l1.88,7.84
	l-6.721-4.24l-6.876,4.211l1.957-7.703L98,7.97l7.933-0.52L109.017,0z"/>
<g>
	<path fill="#0082C9" d="M14.635-28.59v16.696L7.792-7.68l1.957-7.703L3.617-20.62l7.93-0.521L14.635-28.59z"/>
	<path fill="#0082C9" d="M14.635-28.59v16.696L7.792-7.68l1.957-7.703L3.617-20.62l7.93-0.521L14.635-28.59z"/>
</g>
<path opacity="0.5" fill="#5F5F5F" enable-background="new    " d="M31.37-28.11l2.944,7.382l8.038,0.632l-6.11,5.083l1.88,7.841
	l-6.753-4.24v-9.249L31.37-28.11z M-9.987-30.87l2.945,7.384l8.036,0.632l-6.11,5.083l1.881,7.84l-6.752-4.241v-9.248V-30.87z"/>
<g>
	<path fill="#0082C9" d="M-9.976-30.84v16.694l-6.842,4.213l1.956-7.705l-6.131-5.235l7.931-0.521L-9.976-30.84z"/>
	<path fill="#0082C9" d="M-9.976-30.84v16.694l-6.842,4.213l1.956-7.705l-6.131-5.235l7.931-0.521L-9.976-30.84z"/>
</g>
<path fill="#0082C9" d="M37.017,0l2.944,7.383L48,8.015l-6.109,5.083l1.88,7.84l-6.721-4.24l-6.876,4.211l1.957-7.703L26,7.97
	l7.933-0.52L37.017,0z M13.044,0l2.945,7.383l8.037,0.632l-6.11,5.083l1.88,7.84l-6.72-4.24L6.2,20.908l1.958-7.703l-6.13-5.236
	l7.93-0.521L13.044,0z"/>
<g>
	<path opacity="0.5" fill="#5F5F5F" enable-background="new    " d="M56.63-24.823l2.946,7.383l8.037,0.633l-6.11,5.082l1.882,7.84
		l-6.754-4.239v-9.248L56.63-24.823z"/>
	<g>
		<path fill="#0082C9" d="M56.642-24.794v16.695L49.8-3.885l1.955-7.703l-6.13-5.235l7.931-0.521L56.642-24.794z"/>
		<path fill="#0082C9" d="M56.642-24.794v16.695L49.8-3.885l1.955-7.703l-6.13-5.235l7.931-0.521L56.642-24.794z"/>
	</g>
</g>
</svg>
