<?xml version="1.0" encoding="UTF-8" standalone="no"?>
<svg
   xmlns:dc="http://purl.org/dc/elements/1.1/"
   xmlns:cc="http://creativecommons.org/ns#"
   xmlns:rdf="http://www.w3.org/1999/02/22-rdf-syntax-ns#"
   xmlns:svg="http://www.w3.org/2000/svg"
   xmlns="http://www.w3.org/2000/svg"
   xmlns:sodipodi="http://sodipodi.sourceforge.net/DTD/sodipodi-0.dtd"
   xmlns:inkscape="http://www.inkscape.org/namespaces/inkscape"
   height="20.937906"
   width="120.39989"
   version="1.1"
   id="svg3386"
   inkscape:version="0.91 r13725"
   sodipodi:docname="s4.svg">
  <metadata
     id="metadata3396">
    <rdf:RDF>
      <cc:Work
         rdf:about="">
        <dc:format>image/svg+xml</dc:format>
        <dc:type
           rdf:resource="http://purl.org/dc/dcmitype/StillImage" />
        <dc:title></dc:title>
      </cc:Work>
    </rdf:RDF>
  </metadata>
  <defs
     id="defs3394" />
  <sodipodi:namedview
     pagecolor="#ffffff"
     bordercolor="#666666"
     borderopacity="1"
     objecttolerance="10"
     gridtolerance="10"
     guidetolerance="10"
     inkscape:pageopacity="0"
     inkscape:pageshadow="2"
     inkscape:window-width="1301"
     inkscape:window-height="744"
     id="namedview3392"
     showgrid="false"
     inkscape:zoom="9.4269191"
     inkscape:cx="38.984104"
     inkscape:cy="18.955289"
     inkscape:window-x="65"
     inkscape:window-y="24"
     inkscape:window-maximized="1"
     inkscape:current-layer="svg3386"
     fit-margin-right="2.4"
     fit-margin-top="0"
     fit-margin-left="0"
     fit-margin-bottom="0" />
  <g
     style="opacity:0.5"
     transform="matrix(0.068322,0,0,0.068322,39.885816,-50.963429)"
     id="g3418">
    <path
       inkscape:connector-curvature="0"
       d="m 330.36,858.43 43.111,108.06 117.64,9.2572 -89.445,74.392 27.55,114.75 -98.391,-62.079 -100.62,61.66 28.637,-112.76 -89.734,-76.638 116.09,-7.6094 z"
       transform="translate(-21.071,-112.5)"
       id="path3420" />
  </g>
  <g
     id="g3422"
     transform="matrix(0.068322,0,0,0.068322,63.885816,-50.963429)"
     style="opacity:0.5">
    <path
       id="path3424"
       transform="translate(-21.071,-112.5)"
       d="m 330.36,858.43 43.111,108.06 117.64,9.2572 -89.445,74.392 27.55,114.75 -98.391,-62.079 -100.62,61.66 28.637,-112.76 -89.734,-76.638 116.09,-7.6094 z"
       inkscape:connector-curvature="0" />
  </g>
  <g
     style="opacity:0.5"
     transform="matrix(0.068322,0,0,0.068322,87.885816,-50.963429)"
     id="g3426">
    <path
       inkscape:connector-curvature="0"
       d="m 330.36,858.43 43.111,108.06 117.64,9.2572 -89.445,74.392 27.55,114.75 -98.391,-62.079 -100.62,61.66 28.637,-112.76 -89.734,-76.638 116.09,-7.6094 z"
       transform="translate(-21.071,-112.5)"
       id="path3428" />
  </g>
  <g
     id="g3598"
     transform="matrix(0.068322,0,0,0.068322,-6.4963717,-79.55292)">
    <path
       id="path3600"
       transform="translate(-21.071,-112.5)"
       d="m 330.36,858.43 0.002,108.06 -1.2e-4,34.0994 0,44.8919 0,55.7498 0,1.5791 -100.15676,61.66 28.637,-112.76 -89.734,-76.638 116.09,-7.6094 z"
       inkscape:connector-curvature="0"
       style="fill:#ffcc00"
       sodipodi:nodetypes="ccccccccccc" />
    <path
       sodipodi:nodetypes="ccccccccccc"
       style="fill:#ffcc00"
       inkscape:connector-curvature="0"
       d="m 330.36,858.43 0.002,108.06 -1.2e-4,34.0994 0,44.8919 0,55.7498 0,1.5791 -100.15676,61.66 28.637,-112.76 -89.734,-76.638 116.09,-7.6094 z"
       id="path3632"
       transform="translate(-21.071,-112.5)" />
  </g>
  <g
     style="opacity:0.5"
     id="g3628"
     transform="matrix(0.068322,0,0,0.068322,18.299536,-76.846754)">
    <path
       inkscape:connector-curvature="0"
       id="path3630"
       d="m 191.28867,713.3247 43.111,108.06 117.64,9.2572 -89.445,74.392 27.55,114.7499 -98.85277,-62.0789 0,-0.4454 0,-52.2072 0,-30.059 0,-52.6358 z"
       sodipodi:nodetypes="ccccccccccc" />
  </g>
  <g
     id="g3643"
     transform="translate(-23.019185,-30.869046)">
    <path
       inkscape:connector-curvature="0"
       id="path3640"
       d="m -77.090424,1124.7733 43.111002,108.06 117.640004,9.2572 -89.4450037,74.392 27.5499997,114.7499 -98.852772,-62.0789 0,-0.4454 0,-52.2072 0,-30.059 0,-52.6358 z"
       sodipodi:nodetypes="ccccccccccc"
       style="opacity:0.5"
       transform="matrix(0.068322,0,0,0.068322,18.299536,-76.846754)" />
    <g
       id="g3634"
       transform="matrix(0.068322,0,0,0.068322,-8.0875596,-50.934802)">
      <path
         id="path3636"
         transform="translate(-21.071,-112.5)"
         d="m 330.36,858.43 0.002,108.06 -1.2e-4,34.0994 0,44.8919 0,55.7498 0,1.5791 -100.15676,61.66 28.637,-112.76 -89.734,-76.638 116.09,-7.6094 z"
         inkscape:connector-curvature="0"
         style="fill:#ffcc00"
         sodipodi:nodetypes="ccccccccccc" />
      <path
         sodipodi:nodetypes="ccccccccccc"
         style="fill:#ffcc00"
         inkscape:connector-curvature="0"
         d="m 330.36,858.43 0.002,108.06 -1.2e-4,34.0994 0,44.8919 0,55.7498 0,1.5791 -100.15676,61.66 28.637,-112.76 -89.734,-76.638 116.09,-7.6094 z"
         id="path3638"
         transform="translate(-21.071,-112.5)" />
    </g>
  </g>
  <g
     id="g3795"
     transform="matrix(0.068322,0,0,0.068322,15.885816,-50.963429)">
    <path
       id="path3797"
       transform="translate(-21.071,-112.5)"
       d="m 330.36,858.43 43.111,108.06 117.64,9.2572 -89.445,74.392 27.55,114.75 -98.391,-62.079 -100.62,61.66 28.637,-112.76 -89.734,-76.638 116.09,-7.6094 z"
       inkscape:connector-curvature="0"
       style="fill:#ffcc00" />
  </g>
  <g
     transform="matrix(0.068322,0,0,0.068322,-8.0871839,-50.963429)"
     id="g3807">
    <path
       style="fill:#ffcc00"
       inkscape:connector-curvature="0"
       d="m 330.36,858.43 43.111,108.06 117.64,9.2572 -89.445,74.392 27.55,114.75 -98.391,-62.079 -100.62,61.66 28.637,-112.76 -89.734,-76.638 116.09,-7.6094 z"
       transform="translate(-21.071,-112.5)"
       id="path3809" />
  </g>
  <g
     transform="translate(43.598018,-24.822532)"
     id="g3830">
    <path
       transform="matrix(0.068322,0,0,0.068322,18.299536,-76.846754)"
       style="opacity:0.5"
       sodipodi:nodetypes="ccccccccccc"
       d="m -77.090424,1124.7733 43.111002,108.06 117.640004,9.2572 -89.4450037,74.392 27.5499997,114.7499 -98.852772,-62.0789 0,-0.4454 0,-52.2072 0,-30.059 0,-52.6358 z"
       id="path3832"
       inkscape:connector-curvature="0" />
    <g
       transform="matrix(0.068322,0,0,0.068322,-8.0875596,-50.934802)"
       id="g3834">
      <path
         sodipodi:nodetypes="ccccccccccc"
         style="fill:#ffcc00"
         inkscape:connector-curvature="0"
         d="m 330.36,858.43 0.002,108.06 -1.2e-4,34.0994 0,44.8919 0,55.7498 0,1.5791 -100.15676,61.66 28.637,-112.76 -89.734,-76.638 116.09,-7.6094 z"
         transform="translate(-21.071,-112.5)"
         id="path3836" />
      <path
         transform="translate(-21.071,-112.5)"
         id="path3838"
         d="m 330.36,858.43 0.002,108.06 -1.2e-4,34.0994 0,44.8919 0,55.7498 0,1.5791 -100.15676,61.66 28.637,-112.76 -89.734,-76.638 116.09,-7.6094 z"
         inkscape:connector-curvature="0"
         style="fill:#ffcc00"
         sodipodi:nodetypes="ccccccccccc" />
    </g>
  </g>
</svg>
