<svg xmlns="http://www.w3.org/2000/svg" height="20.938" width="120.4" viewBox="0 0 120.4 21"><path d="M85.017 0l2.945 7.383L96 8.015l-6.11 5.083 1.88 7.84-6.72-4.24-6.876 4.21 1.957-7.703L74 7.97l7.932-.52zm24 0l2.945 7.383 8.038.632-6.11 5.083 1.88 7.84-6.72-4.24-6.876 4.21 1.957-7.703L98 7.97l7.932-.52z" opacity=".5"/><path d="M37.017 0l2.945 7.383L48 8.015l-6.11 5.083 1.88 7.84-6.72-4.24-6.876 4.21 1.957-7.703L26 7.97l7.932-.52zM13.044 0l2.945 7.383 8.036.632-6.11 5.083 1.88 7.84-6.72-4.24-6.876 4.21 1.958-7.703-6.13-5.236 7.93-.52zm47.973 0l2.945 7.383L72 8.015l-6.11 5.083 1.88 7.84-6.72-4.24-6.876 4.21 1.957-7.703L50 7.97l7.932-.52z" fill="#fc0"/></svg>