<?xml version="1.0" encoding="utf-8"?>
<!-- Generator: Adobe Illustrator 16.0.0, SVG Export Plug-In . SVG Version: 6.00 Build 0)  -->
<!DOCTYPE svg PUBLIC "-//W3C//DTD SVG 1.1//EN" "http://www.w3.org/Graphics/SVG/1.1/DTD/svg11.dtd">
<svg version="1.1" id="Layer_1" xmlns="http://www.w3.org/2000/svg" xmlns:xlink="http://www.w3.org/1999/xlink" x="0px" y="0px"
	 width="120.4px" height="20.938px" viewBox="0 0 120.4 20.938" enable-background="new 0 0 120.4 20.938" xml:space="preserve">
<path fill="#0082C9" d="M37.017,0l2.943,7.383L48,8.015l-6.108,5.083l1.88,7.84l-6.722-4.24l-6.876,4.212l1.957-7.703L26,7.97
	l7.934-0.52L37.017,0z M13.044,0l2.945,7.383l8.037,0.632l-6.11,5.083l1.88,7.84l-6.72-4.24L6.2,20.908l1.958-7.703l-6.13-5.236
	l7.93-0.521L13.044,0z"/>
<path opacity="0.5" fill="#5F5F5F" enable-background="new    " d="M109.006,0l2.945,7.383l8.04,0.632l-6.112,5.083l1.884,7.84
	l-6.756-4.24v-9.25L109.006,0z"/>
<g>
	<path fill="#0082C9" d="M109.017,0.03v16.694l-6.845,4.213l1.957-7.704L98,7.998l7.934-0.521L109.017,0.03z"/>
	<path fill="#0082C9" d="M109.017,0.03v16.694l-6.845,4.213l1.957-7.704L98,7.998l7.934-0.521L109.017,0.03z"/>
</g>
<path fill="#0082C9" d="M61.017,0l2.943,7.383L72,8.015l-6.108,5.083l1.88,7.84l-6.722-4.24l-6.876,4.212l1.957-7.703L50,7.97
	l7.934-0.52L61.017,0z"/>
<g>
	<path fill="#0082C9" d="M85.017,0l2.943,7.383L96,8.015l-6.108,5.083l1.88,7.84l-6.722-4.24l-6.876,4.212l1.957-7.703L74,7.97
		l7.934-0.52L85.017,0z"/>
</g>
</svg>
