<?xml version="1.0" standalone="no"?>
<!DOCTYPE svg PUBLIC "-//W3C//DTD SVG 1.1//EN" "http://www.w3.org/Graphics/SVG/1.1/DTD/svg11.dtd" >
<svg xmlns="http://www.w3.org/2000/svg">
<metadata>
This is a custom SVG webfont generated by Font Squirrel.
Copyright   : Digitized data copyright  2006 Google Corporation
Foundry     : Ascender Corporation
Foundry URL : httpwwwascendercorpcom
</metadata>
<defs>
<font id="webfontq63XZdUr" horiz-adv-x="1228" >
<font-face units-per-em="2048" ascent="1638" descent="-410" />
<missing-glyph horiz-adv-x="500" />
<glyph unicode=" " />
<glyph unicode="!" d="M487 110.5q0 139.5 127 139.5t127 -139.5t-127 -139.5t-127 139.5zM504 1462h223l-51 -1048h-121z" />
<glyph unicode="&#x22;" d="M285 1462h237l-41 -528h-155zM707 1462h237l-41 -528h-155z" />
<glyph unicode="#" d="M45 428v137h244l65 328h-233v137h258l82 432h147l-82 -432h293l84 432h144l-84 -432h221v-137h-248l-64 -328h240v-137h-266l-82 -428h-148l84 428h-290l-82 -428h-144l78 428h-217zM436 565h291l64 328h-291z" />
<glyph unicode="$" d="M182 172v172q197 -92 365 -92v434q-197 66 -271 145q-78 84 -77 220q0 131 92 217q90 84 256 106v180h137v-176q182 -8 336 -78l-66 -145q-143 63 -270 72v-422q199 -68 279 -148q82 -82 81 -211q0 -281 -360 -335v-230h-137v221q-228 0 -365 70zM375 1049q0 -76 41 -121 q41 -43 131 -74v369q-172 -27 -172 -174zM684 262q184 28 184 184q0 127 -184 189v-373z" />
<glyph unicode="%" d="M0 1133q0 164 80 256q78 90 215 90q131 0 211 -92.5t80 -253.5q0 -166 -78 -256q-80 -92 -217 -93q-131 0 -211 95q-80 96 -80 254zM152 1133q0 -229 141 -230q139 0 139 230q0 225 -139 225q-141 0 -141 -225zM170 0l729 1462h158l-729 -1462h-158zM643 330 q0 164 80 256q78 90 215 90q131 0 211 -92t80 -254q0 -164 -78 -254q-82 -94 -217 -94q-131 0 -211 94q-80 96 -80 254zM795 330q0 -229 141 -230q139 0 139 230q0 225 -139 225q-141 0 -141 -225z" />
<glyph unicode="&#x26;" d="M61 381q0 133 64 229q63 98 235 199q-164 193 -163 356q0 147 96 233.5t274 86.5q168 0 260.5 -86t92.5 -234q0 -203 -318 -389l281 -348q70 119 104 266h184q-53 -236 -178 -403l234 -291h-217l-131 166q-174 -186 -412 -186q-190 0 -297 106q-109 109 -109 295z M252 387q0 -104 67 -176q68 -70 160 -70q162 0 299 146l-323 401q-203 -123 -203 -301zM375 1165q0 -117 133 -268q133 80 184 139q49 57 49 133q0 72 -49 119q-51 47 -131 47q-86 0 -137 -45q-49 -43 -49 -125z" />
<glyph unicode="'" d="M496 1462h237l-41 -528h-155z" />
<glyph unicode="(" d="M295 567q0 532 444 895h193q-449 -375 -449 -893q0 -522 447 -893h-191q-444 352 -444 891z" />
<glyph unicode=")" d="M297 1462h192q444 -362 445 -895q0 -541 -445 -891h-190q446 373 446 893q1 518 -448 893z" />
<glyph unicode="*" d="M133 1081l29 193l391 -111l-43 393h205l-43 -393l397 111l27 -193l-379 -28l246 -326l-179 -96l-176 358l-157 -358l-185 96l242 326z" />
<glyph unicode="+" d="M152 647v150h387v389h149v-389h387v-150h-387v-385h-149v385h-387z" />
<glyph unicode="," d="M440 -289q76 322 111 551h219l16 -24q-59 -229 -194 -527h-152z" />
<glyph unicode="-" d="M285 465v168h659v-168h-659z" />
<glyph unicode="." d="M463 135q0 166 151.5 166t151.5 -166t-151.5 -166t-151.5 166z" />
<glyph unicode="/" d="M211 0l627 1462h178l-627 -1462h-178z" />
<glyph unicode="0" d="M147 733q0 752 465 752q231 0 350 -192.5t119 -559.5q0 -754 -469 -753q-231 0 -348 194q-117 193 -117 559zM332 733q0 -317 67 -459q68 -139 213 -139q147 0 215 141q70 145 70 457q0 309 -70 455q-68 141 -215 141q-145 0 -213 -139q-67 -138 -67 -457z" />
<glyph unicode="1" d="M225 1163l383 299h150v-1462h-176v913q0 147 8 361q-43 -47 -121 -113l-147 -121z" />
<glyph unicode="2" d="M158 0v156l350 381q201 219 258 317q61 104 61 231q0 115 -63 179q-66 66 -172 65q-162 0 -318 -137l-102 119q190 172 422 172q197 0 305 -107q113 -109 113 -284q0 -115 -59.5 -244t-290.5 -375l-281 -299v-8h688v-166h-911z" />
<glyph unicode="3" d="M131 59v170q186 -96 383 -96q354 0 354 289q0 258 -381 258h-133v151h133q160 0 248 76t88 201q0 104 -67 162q-70 59 -183 59q-176 0 -344 -121l-92 125q186 150 436 150q205 0 322 -99q115 -96 115 -264q0 -141 -82 -231q-86 -94 -234 -119v-6q360 -45 361 -348 q0 -203 -137 -320q-138 -117 -400 -116q-243 -1 -387 79z" />
<glyph unicode="4" d="M61 328v159l664 983h188v-976h213v-166h-213v-328h-176v328h-676zM240 494h497v356q0 178 13 432h-9q-41 -111 -90 -180z" />
<glyph unicode="5" d="M172 59v172q145 -96 360 -96q336 0 336 314q0 295 -344 294q-78 0 -231 -26l-90 57l55 688h690v-166h-532l-39 -419q102 20 209 20q209 0 340 -115q129 -114 129 -313q0 -233 -137 -363q-135 -127 -390 -126q-224 -1 -356 79z" />
<glyph unicode="6" d="M154 625q0 858 639 858q104 0 172 -19v-155q-71 25 -166 24q-221 0 -336 -141t-123 -447h12q96 170 307 170q195 0 306 -118q111 -120 110 -326q0 -227 -121 -360q-119 -131 -323 -131q-219 0 -348 170t-129 475zM336 506q0 -150 82 -262q80 -111 211 -111q129 0 198 88 q72 90 72 250q0 147 -68 223q-68 78 -196 78q-125 0 -213 -82q-86 -80 -86 -184z" />
<glyph unicode="7" d="M143 1296v166h940v-145l-555 -1317h-194l563 1296h-754z" />
<glyph unicode="8" d="M156 373q0 258 282 393q-236 150 -235 369q0 160 116 256q115 94 295 94q184 0 297 -94q115 -96 115 -258q0 -229 -262 -359q309 -160 309 -393q0 -180 -127 -291q-126 -111 -332 -110q-217 0 -337.5 104.5t-120.5 288.5zM334 371q0 -240 276 -240q135 0 211 66 q74 66 74 182q0 90 -63.5 159.5t-213.5 143.5l-30 14q-254 -118 -254 -325zM381 1126q0 -92 49 -153q47 -57 186 -125q231 104 232 278q0 102 -64 154q-66 53 -172 53q-104 0 -167.5 -53.5t-63.5 -153.5z" />
<glyph unicode="9" d="M154 991q0 227 120 361q119 131 324 131q221 0 348 -170q129 -172 129 -475q0 -858 -639 -858q-104 0 -172 18v156q68 -25 166 -25q221 0 336 141.5t123 446.5h-12q-96 -170 -308 -170q-193 0 -305 119q-110 116 -110 325zM330 991q0 -143 69 -223q68 -78 195 -78 q129 0 213 82q86 84 86 184q0 152 -80 262.5t-213 110.5q-127 0 -198.5 -88t-71.5 -250z" />
<glyph unicode=":" d="M487 110.5q0 139.5 127 139.5t127 -139.5t-127 -139.5t-127 139.5zM487 987q0 139 127 139t127 -139t-127 -139t-127 139z" />
<glyph unicode=";" d="M410 -264q66 276 100 502h199l14 -23q-55 -209 -176 -479h-137zM494 987q0 139 127 139t127 -139t-127 -139t-127 139z" />
<glyph unicode="&#x3c;" d="M152 672v102l923 451v-160l-715 -342l715 -342v-160z" />
<glyph unicode="=" d="M152 442v150h923v-150h-923zM152 852v149h923v-149h-923z" />
<glyph unicode="&#x3e;" d="M152 221v160l714 342l-714 342v160l923 -451v-102z" />
<glyph unicode="?" d="M168 1386q205 96 426 97q217 0 340 -97q125 -98 125 -262q0 -133 -53 -217q-52 -83 -197 -190q-119 -88 -151.5 -141.5t-32.5 -143.5v-18h-160v37q0 119 47 194.5t160 157.5q131 100 172 155.5t41 157.5q0 92 -74 150q-72 57 -207 57q-172 0 -371 -90zM426 110.5 q0 139.5 127 139.5t127 -139.5t-127 -139.5t-127 139.5z" />
<glyph unicode="@" d="M31 602q0 395 168 629q166 231 454 231q248 0 396 -196q150 -199 149 -535q0 -236 -63 -371q-66 -139 -179 -139q-131 0 -157 180h-4q-74 -180 -230 -180q-120 0 -190 105q-70 102 -70 280q0 209 96 332q98 127 256 127q133 0 256 -47l-22 -416q-2 -25 -2 -70v-6 q0 -176 72 -176q100 0 100 383q0 279 -110.5 436.5t-299.5 157.5q-225 0 -352 -192.5t-127 -526.5q0 -311 129 -483q127 -170 369 -170q178 0 346 78v-133q-156 -82 -352 -82q-295 0 -465 207q-168 204 -168 577zM465 602q0 -252 127 -252q131 0 145 312l15 253 q-53 20 -103 21q-90 0 -137 -94.5t-47 -239.5z" />
<glyph unicode="A" d="M33 0l483 1468h195l485 -1468h-192l-144 453h-491l-146 -453h-190zM422 618h385l-133 424q-39 121 -62 226q-20 -88 -47 -183z" />
<glyph unicode="B" d="M135 0v1462h440q272 0 398 -88q123 -86 123 -282q0 -129 -78 -213t-213 -103v-10q332 -55 332 -342q0 -199 -127 -311.5t-348 -112.5h-527zM322 158h307q311 0 311 274q0 254 -324 254h-294v-528zM322 842h284q157 0 228 55q72 55 71 182q0 121 -75.5 172.5t-243.5 51.5 h-264v-461z" />
<glyph unicode="C" d="M129 733q0 344 178 547t490 203q219 0 383 -86l-78 -156q-156 78 -305 78q-215 0 -342 -158q-129 -160 -129 -430q0 -287 120 -438q119 -150 351 -150q135 0 327 58v-162q-150 -59 -358 -59q-310 0 -473 196q-164 199 -164 557z" />
<glyph unicode="D" d="M135 0v1462h342q319 0 494 -188q176 -193 176 -529q0 -365 -182 -552q-186 -193 -529 -193h-301zM322 160h96q532 0 532 579q0 563 -493 564h-135v-1143z" />
<glyph unicode="E" d="M217 0v1462h842v-164h-656v-452h617v-162h-617v-520h656v-164h-842z" />
<glyph unicode="F" d="M244 0v1462h841v-164h-655v-516h617v-164h-617v-618h-186z" />
<glyph unicode="G" d="M117 733q0 352 161.5 551t446.5 199q193 0 346 -86l-72 -162q-150 84 -280 84q-193 0 -299.5 -155.5t-106.5 -432.5q0 -588 394 -588q94 0 202 29v436h-237v164h422v-717q-199 -76 -420 -75q-262 0 -410 200q-147 200 -147 553z" />
<glyph unicode="H" d="M135 0v1462h187v-616h585v616h187v-1462h-187v682h-585v-682h-187z" />
<glyph unicode="I" d="M225 0v123l295 20v1176l-295 20v123h776v-123l-294 -20v-1176l294 -20v-123h-776z" />
<glyph unicode="J" d="M137 39v166q162 -61 309 -62q162 0 254.5 80t92.5 226v1013h186v-1011q0 -215 -141 -345q-139 -127 -377 -126q-215 0 -324 59z" />
<glyph unicode="K" d="M211 0v1462h186v-731l121 168l453 563h209l-521 -637l539 -825h-211l-450 698l-140 -114v-584h-186z" />
<glyph unicode="L" d="M233 0v1462h187v-1296h635v-166h-822z" />
<glyph unicode="M" d="M113 0v1462h247l248 -1192h6l250 1192h252v-1462h-153v887q0 121 14 391h-8l-283 -1278h-154l-278 1280h-8q18 -268 18 -406v-874h-151z" />
<glyph unicode="N" d="M135 0v1462h213l578 -1204h6q-14 285 -14 404v800h174v-1462h-215l-580 1210h-8q18 -276 18 -417v-793h-172z" />
<glyph unicode="O" d="M84 735q0 750 534 750q258 0 392 -195q137 -199 137 -557q0 -362 -137 -557q-138 -197 -394 -196q-532 -1 -532 755zM281 733q0 -590 335 -590q174 0 254 145.5t80 444.5q0 305 -82 445q-84 143 -250 143q-337 0 -337 -588z" />
<glyph unicode="P" d="M176 0v1462h404q514 0 514 -428q0 -219 -137.5 -342t-403.5 -123h-191v-569h-186zM362 727h170q195 0 283 72q86 70 86 225q0 279 -338 279h-201v-576z" />
<glyph unicode="Q" d="M84 735q0 750 534 750q258 0 392 -195q137 -199 137 -557q0 -526 -285 -694q86 -180 279 -311l-121 -142q-238 172 -328 400q-37 -6 -76 -6q-532 -1 -532 755zM281 733q0 -590 335 -590q174 0 254 145.5t80 444.5q0 305 -82 445q-84 143 -250 143q-337 0 -337 -588z" />
<glyph unicode="R" d="M186 0v1462h357q520 0 520 -415q0 -287 -289 -392l397 -655h-219l-350 604h-229v-604h-187zM373 762h164q170 0 251.5 65.5t81.5 210.5q0 141 -79.5 203t-258.5 62h-159v-541z" />
<glyph unicode="S" d="M141 49v178q211 -86 414 -86q350 0 350 240q0 104 -71 160q-74 57 -285 133q-211 74 -299 174q-90 102 -90 264q0 174 129 272.5t352 98.5q225 0 416 -78l-64 -164q-197 78 -360 78q-293 0 -293 -209q0 -102 66 -164q66 -63 270 -133q244 -88 327.5 -182t83.5 -240 q0 -190 -139 -301q-138 -111 -393 -110q-258 -1 -414 69z" />
<glyph unicode="T" d="M102 1298v164h1022v-164h-417v-1298h-187v1298h-418z" />
<glyph unicode="U" d="M125 520v942h186v-932q0 -387 307 -387q293 0 300 389v932h186v-948q0 -260 -125 -397q-127 -139 -371 -139q-483 -1 -483 540z" />
<glyph unicode="V" d="M33 1462h196l295 -927q45 -143 88 -334q33 152 93 340l292 921h199l-489 -1462h-187z" />
<glyph unicode="W" d="M2 1462h170l88 -663q18 -145 39 -377q18 -203 18 -242q27 162 70 312l141 516h177l145 -521q57 -205 72 -307q6 92 65 619l70 663h170l-187 -1462h-190l-168 580q-43 147 -66 282q-31 -168 -65 -284l-156 -578h-190z" />
<glyph unicode="X" d="M53 0l453 764l-422 698h199l331 -559l334 559h191l-422 -692l457 -770h-211l-355 635l-366 -635h-189z" />
<glyph unicode="Y" d="M33 1462h203l376 -739l381 739h201l-487 -893v-569h-187v559z" />
<glyph unicode="Z" d="M102 0v145l793 1151h-772v166h981v-145l-793 -1151h813v-166h-1022z" />
<glyph unicode="[" d="M412 -324v1786h528v-149h-346v-1487h346v-150h-528z" />
<glyph unicode="\" d="M211 1462h178l627 -1462h-178z" />
<glyph unicode="]" d="M289 -174h346v1487h-346v149h528v-1786h-528v150z" />
<glyph unicode="^" d="M111 549l424 924h102l481 -924h-162l-368 735l-318 -735h-159z" />
<glyph unicode="_" d="M-16 -184h1259v-140h-1259v140z" />
<glyph unicode="`" d="M418 1548v21h219q88 -182 174 -301v-27h-121q-163 139 -272 307z" />
<glyph unicode="a" d="M135 307q0 332 510 348l203 7v69q0 236 -244 236q-150 0 -328 -82l-63 137q199 96 383 96q223 0 328 -88q102 -86 102 -278v-752h-131l-37 152h-8q-74 -94 -158 -133t-209 -39q-164 0 -256 85.5t-92 241.5zM324 305q0 -178 200 -178q150 0 234 82q88 84 88 229v99 l-162 -7q-195 -8 -278 -61q-82 -51 -82 -164z" />
<glyph unicode="b" d="M158 0v1556h182v-376q0 -96 -8 -226h8q109 164 322 164q203 0 315 -149q115 -152 115 -418q0 -268 -115 -419.5t-315 -151.5q-207 0 -322 159h-12l-37 -139h-133zM340 551q0 -229 70 -324q72 -96 221 -96q272 0 272 422q0 414 -274 414q-154 0 -221.5 -94.5t-67.5 -321.5 z" />
<glyph unicode="c" d="M172 543q0 279 145 428q145 147 408 147q176 0 336 -59l-62 -158q-147 57 -268 57q-371 0 -371 -413q0 -406 361 -406q160 0 321 62v-160q-135 -61 -329 -61q-258 0 -400 145q-141 145 -141 418z" />
<glyph unicode="d" d="M137 547q0 268 115 419.5t315 151.5q205 0 322 -160h12q-12 129 -12 162v436h182v-1556h-147l-27 147h-8q-115 -168 -322 -167q-203 0 -315 149q-115 152 -115 418zM326 545q0 -414 274 -414q152 0 219 88q66 88 70 287v41q0 229 -70 323q-72 96 -221 97 q-272 0 -272 -422z" />
<glyph unicode="e" d="M133 541q0 266 135 421.5t363 155.5q212 0 338 -135q127 -137 127 -356v-113h-774q9 -375 344 -375q199 0 370 76v-160q-170 -76 -364 -75q-244 0 -391 149q-148 151 -148 412zM326 662h573q0 305 -272 305q-276 0 -301 -305z" />
<glyph unicode="f" d="M156 961v110l317 33v96q0 195 90 281q88 86 299 86q125 0 252 -35l-41 -143q-109 29 -207 28q-123 0 -168 -51q-43 -49 -43 -164v-104h389v-137h-389v-961h-182v961h-317z" />
<glyph unicode="g" d="M102 -186q0 212 240 270q-96 47 -96 154q0 113 133 192q-86 35 -139 123q-51 84 -52 186q0 182 106.5 280.5t303.5 98.5q88 0 150 -20h378v-113l-196 -27q66 -88 65 -213q0 -162 -106 -256q-109 -96 -297 -96q-55 0 -86 6q-100 -55 -100 -133q0 -84 161 -84h187 q172 0 266 -78q92 -76 92 -219q0 -377 -565 -377q-218 0 -332 80q-113 81 -113 226zM274 -180q0 -174 271 -174q395 0 395 223q0 88 -49 118.5t-199 30.5h-188q-230 1 -230 -198zM367 745q0 -227 227 -227q223 0 223 230q0 240 -225 239.5t-225 -242.5z" />
<glyph unicode="h" d="M160 0v1556h182v-462l-8 -144h10q104 168 336 168q389 0 389 -401v-717h-182v707q0 260 -238 260q-307 0 -307 -398v-569h-182z" />
<glyph unicode="i" d="M197 0v123l344 20v811l-269 21v123h451v-955l352 -20v-123h-878zM526 1435.5q0 114.5 106.5 114.5t106.5 -114q0 -57 -32.5 -86t-73.5 -29q-107 0 -107 114.5z" />
<glyph unicode="j" d="M135 -303q131 -39 289 -39q119 0 182 57q66 59 66 158v1081l-420 21v123h602v-1215q0 -180 -113 -278q-111 -96 -319 -97q-160 0 -287 35v154zM637 1435.5q0 114.5 106.5 114.5t106.5 -114.5t-106.5 -114.5t-106.5 114.5z" />
<glyph unicode="k" d="M215 0v1556h180v-714l-16 -289h4l135 152l395 393h222l-494 -475l522 -623h-213l-426 504l-129 -82v-422h-180z" />
<glyph unicode="l" d="M188 0v123l344 20v1270l-268 21v122h451v-1413l352 -20v-123h-879z" />
<glyph unicode="m" d="M92 0v1098h127l27 -148h10q68 168 201 168q164 0 213 -182h6q78 182 219 182q129 0 186 -92q57 -90 58 -309v-717h-162v707q0 147 -27 202q-27 57 -88 58q-88 0 -127 -82q-39 -80 -39 -279v-606h-161v707q0 260 -125 260q-82 0 -119 -80t-37 -318v-569h-162z" />
<glyph unicode="n" d="M160 0v1098h147l27 -148h10q104 168 336 168q389 0 389 -401v-717h-182v707q0 260 -238 260q-307 0 -307 -398v-569h-182z" />
<glyph unicode="o" d="M115 551q0 264 135 415.5t366 151.5q217 0 356.5 -155.5t139.5 -411.5q0 -266 -137 -418q-139 -154 -365 -153q-219 0 -356 155q-139 158 -139 416zM303 551q0 -420 311 -420q309 0 310 420q0 416 -312 416q-309 0 -309 -416z" />
<glyph unicode="p" d="M158 -492v1590h147l27 -148h8q111 168 322 168q203 0 315 -149q115 -152 115 -418q0 -268 -115 -419.5t-315 -151.5q-207 0 -322 159h-12q12 -129 12 -162v-469h-182zM340 551q0 -229 70 -324q72 -96 221 -96q272 0 272 422q0 414 -274 414q-152 0 -219.5 -88t-69.5 -287 v-41z" />
<glyph unicode="q" d="M137 547q0 268 115 419.5t315 151.5q209 0 322 -168h8l27 148h147v-1590h-182v469q0 41 12 170h-12q-115 -168 -322 -167q-203 0 -315 149q-115 152 -115 418zM326 545q0 -414 274 -414q152 0 219 88q66 88 70 287v41q0 229 -70 323q-72 96 -221 97q-272 0 -272 -422z " />
<glyph unicode="r" d="M264 0v1098h148l22 -201h8q76 117 162 170q84 51 215 51q119 0 240 -45l-49 -166q-121 45 -224 45q-163 0 -251 -92q-88 -90 -89 -268v-592h-182z" />
<glyph unicode="s" d="M203 49v166q195 -86 370 -86q274 0 275 162q0 55 -49 98t-226 107q-233 86 -294 159q-59 72 -60 172q0 135 111 213q113 78 309.5 78t368.5 -74l-60 -149q-184 72 -319 72q-236 0 -236 -133q0 -57 51.5 -96.5t231.5 -102.5q207 -76 280 -152q70 -72 70 -182 q0 -150 -116.5 -235.5t-331.5 -85.5q-246 -1 -375 69z" />
<glyph unicode="t" d="M139 961v94l267 49l77 287h105v-293h438v-137h-438v-637q0 -195 192 -195q98 0 240 21v-138q-137 -33 -252 -32q-362 0 -362 344v637h-267z" />
<glyph unicode="u" d="M160 381v717h182v-707q0 -260 236 -260q162 0 235.5 92t73.5 305v570h182v-1098h-147l-27 147h-10q-106 -168 -334 -167q-391 0 -391 401z" />
<glyph unicode="v" d="M82 1098h188l240 -652q84 -225 100 -325h6q8 53 101 325l239 652h189l-416 -1098h-231z" />
<glyph unicode="w" d="M-4 1098h162l98 -543q39 -215 57 -393h6q33 195 68 358l133 578h193l127 -578q43 -188 67 -358h6q29 225 60 393l102 543h158l-225 -1098h-195l-131 596l-68 330h-6l-65 -334l-135 -592h-189z" />
<glyph unicode="x" d="M96 0l414 563l-393 535h207l290 -410l291 410h207l-395 -535l413 -563h-206l-310 436l-311 -436h-207z" />
<glyph unicode="y" d="M82 1098h188l262 -654q82 -203 89 -290h6q20 106 90 292l239 652h189l-475 -1241q-70 -178 -156 -263q-89 -86 -246 -86q-94 0 -168 17v145q61 -12 136 -12q96 0 149 41t96 141l58 150z" />
<glyph unicode="z" d="M182 0v125l660 836h-627v137h811v-146l-647 -815h665v-137h-862z" />
<glyph unicode="{" d="M225 492v155q338 0 338 189v333q0 287 438 293v-149q-147 -4 -200 -39q-55 -37 -56 -119v-332q0 -209 -233 -248v-12q233 -39 233 -248v-331q0 -82 56 -119q53 -35 200 -39v-150q-438 6 -438 293v334q0 189 -338 189z" />
<glyph unicode="|" d="M539 -492v2048h149v-2048h-149z" />
<glyph unicode="}" d="M227 -174q141 0 198.5 39t57.5 119v331q0 209 234 248v12q-233 39 -234 248v332q0 80 -57 119t-199 39v149q438 -6 439 -293v-333q0 -188 338 -189v-155q-338 0 -338 -189v-334q0 -287 -439 -293v150z" />
<glyph unicode="~" d="M152 586v162q98 109 247 108q102 0 248 -63q129 -55 201 -56q106 0 227 121v-162q-98 -109 -248 -108q-102 0 -247 63q-133 55 -201 56q-106 0 -227 -121z" />
<glyph unicode="&#xa0;" />
<glyph unicode="&#xa1;" d="M487 979q0 139 127 139t127 -139t-127 -139t-127 139zM502 -373l51 1049h121l51 -1049h-223z" />
<glyph unicode="&#xa2;" d="M172 743q0 494 434 568v172h137v-164q158 -2 318 -59l-62 -158q-147 57 -268 57q-371 0 -371 -414q0 -406 361 -405q152 0 321 61v-159q-123 -59 -299 -62v-200h-137v206q-434 68 -434 557z" />
<glyph unicode="&#xa3;" d="M119 0v154q201 49 200 284v213h-198v137h198v324q0 166 109 268q106 100 289 101q193 0 346 -80l-66 -144q-143 72 -272 72q-223 0 -223 -246v-295h377v-137h-377v-211q0 -199 -140 -274h748v-166h-991z" />
<glyph unicode="&#xa4;" d="M174 1065l98 98l127 -129q101 68 215 68q115 0 213 -68l129 129l99 -96l-129 -129q68 -101 67 -215q0 -120 -67 -215l127 -127l-97 -96l-129 127q-100 -66 -213 -66q-117 0 -215 68l-127 -127l-96 96l127 127q-66 96 -65 213q0 113 65 213zM375 723q0 -98 71 -170 q70 -70 168 -70q102 0 172 70q72 72 72 170q0 100 -71.5 172t-172 72t-170 -70t-69.5 -174z" />
<glyph unicode="&#xa5;" d="M78 1462h192l342 -739l346 739h191l-385 -768h240v-137h-302v-158h302v-137h-302v-262h-178v262h-301v137h301v158h-301v137h234z" />
<glyph unicode="&#xa6;" d="M539 289h149v-781h-149v781zM539 776v780h149v-780h-149z" />
<glyph unicode="&#xa7;" d="M244 55v158q170 -82 323 -82q240 0 240 141q0 55 -43 97q-45 41 -195 102q-197 82 -254 160q-55 74 -55 178q0 178 160 258q-160 80 -160 236q0 123 105 192q106 72 276 72q160 0 326 -72l-56 -139q-157 68 -276 67q-201 0 -201 -116q0 -53 49 -93q47 -37 197 -100 q158 -61 231 -139q74 -77 74 -191q0 -180 -145 -270q145 -80 145 -225q0 -139 -110.5 -219t-307.5 -80q-202 -1 -323 65zM414 831q0 -74 57 -126q55 -51 207 -117l35 -15q115 78 114 185q0 90 -73 145q-68 51 -207 103q-133 -50 -133 -175z" />
<glyph unicode="&#xa8;" d="M330 1394.5q0 102.5 96 102.5t96 -102.5t-96 -102.5t-96 102.5zM705 1394.5q0 102.5 96 102.5t96 -102.5t-96 -102.5t-96 102.5z" />
<glyph unicode="&#xa9;" d="M6 731q0 342 160 547t448 205q283 0 447 -203q162 -201 162 -549t-162 -549q-164 -203 -447 -202q-285 0 -446.5 204.5t-161.5 546.5zM115 731q0 -301 129 -473q127 -170 370 -170q242 0 369 170q131 174 131 473t-131 473q-127 170 -368.5 170t-370.5 -172t-129 -471z M248 733q0 209 110.5 332t300.5 123q127 0 254 -62l-61 -127q-106 53 -193 54q-123 0 -186 -86q-66 -88 -65 -236q0 -324 251 -323q98 0 215 45v-131q-108 -49 -221 -50q-197 0 -301 123t-104 338z" />
<glyph unicode="&#xaa;" d="M276 989q0 117 84 168t277 57l125 5v10q0 133 -152 133q-117 0 -245 -51l-41 110q135 57 294 58q291 0 291 -238v-444h-110l-33 118q-104 -131 -268 -131q-222 0 -222 205zM428 987q0 -90 104 -90q106 0 168 55.5t62 145.5v20l-100 -2q-111 -2 -175 -29q-59 -24 -59 -100 z" />
<glyph unicode="&#xab;" d="M197 526v27l309 414l117 -78l-238 -348l238 -348l-117 -78zM604 526v27l309 414l117 -78l-237 -348l237 -348l-117 -78z" />
<glyph unicode="&#xac;" d="M152 647v150h923v-535h-149v385h-774z" />
<glyph unicode="&#xad;" d="M285 465v168h659v-168h-659z" />
<glyph unicode="&#xae;" d="M6 731q0 342 160 547t448 205q283 0 447 -203q162 -201 162 -549t-162 -549q-164 -203 -447 -202q-285 0 -446.5 204.5t-161.5 546.5zM115 731q0 -301 129 -473q127 -170 370 -170q242 0 369 170q131 174 131 473t-131 473q-127 170 -368.5 170t-370.5 -172t-129 -471z M348 285v893h234q326 0 325 -265q0 -163 -159 -233l237 -395h-178l-207 352h-94v-352h-158zM506 768h72q170 0 170 141q0 74 -41 103q-43 31 -132 30h-69v-274z" />
<glyph unicode="&#xaf;" d="M-20 1556v140h1269v-140h-1269z" />
<glyph unicode="&#xb0;" d="M299 1167q0 129 92 222q94 94 223 94q127 0 221.5 -94.5t94.5 -221.5q0 -129 -92.5 -221t-223.5 -92t-223 92t-92 221zM422 1167q0 -80 55 -135t137 -55q78 0 135.5 55t57.5 135t-57.5 137.5t-135.5 57.5q-80 0 -135 -57q-57 -62 -57 -138z" />
<glyph unicode="&#xb1;" d="M152 0v150h923v-150h-923zM152 647v150h387v389h149v-389h387v-150h-387v-385h-149v385h-387z" />
<glyph unicode="&#xb2;" d="M348 672v102l187 199q106 113 141 168q31 49 31 108q0 115 -111 115q-82 0 -164 -76l-78 86q115 102 248 103q121 0 182 -60q66 -61 66 -164q0 -66 -35 -135q-33 -66 -164 -196l-135 -136h363v-114h-531z" />
<glyph unicode="&#xb3;" d="M342 705v124q113 -66 203 -65q150 0 149 137q0 125 -147 125h-72v104h70q123 0 123 127q0 111 -97 111q-74 0 -161 -70l-66 86q111 92 238 93q113 0 174 -54q63 -55 63 -149q0 -139 -149 -189q176 -41 176 -186q0 -117 -74 -180q-72 -63 -215 -64q-132 1 -215 50z" />
<glyph unicode="&#xb4;" d="M418 1241v27q92 127 174 301h219v-21q-109 -168 -272 -307h-121z" />
<glyph unicode="&#xb5;" d="M180 -492v1590h182v-707q0 -260 218 -260q152 0 217 90q70 94 69 307v570h183v-1098h-148l-27 147h-10q-96 -168 -295 -167q-139 0 -213 88q6 -154 6 -240v-320h-182z" />
<glyph unicode="&#xb6;" d="M66 1042q0 256 108 388q106 127 342 126h563v-1816h-121v1657h-206v-1657h-121v819q-61 -18 -146 -18q-419 -1 -419 501z" />
<glyph unicode="&#xb7;" d="M487 723q0 139 127 139t127 -139t-127 -139t-127 139z" />
<glyph unicode="&#xb8;" d="M428 -375q34 -6 80 -6q152 0 151 92q0 72 -172 113l91 176h120l-57 -115q160 -37 160 -172q0 -205 -291 -205q-39 0 -82 9v108z" />
<glyph unicode="&#xb9;" d="M367 1309l219 151h135v-788h-146v465q0 84 9 200q-43 -45 -74 -65l-70 -51z" />
<glyph unicode="&#xba;" d="M281 1133q0 160 90 253q88 92 245 93q145 0 238 -93q94 -94 94 -253q0 -164 -92 -256.5t-244 -92.5q-145 0 -237 93q-94 94 -94 256zM432 1133q0 -229 182 -230q180 0 181 230q0 225 -181 225q-182 0 -182 -225z" />
<glyph unicode="&#xbb;" d="M197 193l237 348l-237 348l116 78l310 -414v-27l-310 -411zM604 193l238 348l-238 348l117 78l309 -414v-27l-309 -411z" />
<glyph unicode="&#xbc;" d="M23 1309l219 151h135v-788h-146v465q0 84 9 200q-43 -45 -74 -65l-70 -51zM170 0l729 1462h158l-729 -1462h-158zM606 174v98l377 523h141v-508h84v-113h-84v-174h-143v174h-375zM751 287h230v176q0 83 6 172q-37 -70 -80 -131z" />
<glyph unicode="&#xbd;" d="M2 1309l219 151h135v-788h-146v465q0 84 9 200q-43 -45 -74 -65l-70 -51zM104 0l729 1462h158l-729 -1462h-158zM694 0v102l187 199q106 113 141 168q31 49 31 108q0 115 -111 115q-82 0 -164 -76l-78 86q115 102 248 103q121 0 182 -60q66 -61 66 -164q0 -66 -35 -135 q-33 -66 -164 -196l-135 -136h363v-114h-531z" />
<glyph unicode="&#xbe;" d="M20 705v124q113 -66 203 -65q150 0 149 137q0 125 -147 125h-72v104h70q123 0 123 127q0 111 -97 111q-74 0 -161 -70l-66 86q111 92 238 93q113 0 174 -54q63 -55 63 -149q0 -139 -149 -189q176 -41 176 -186q0 -117 -74 -180q-72 -63 -215 -64q-132 1 -215 50zM223 0 l729 1462h158l-729 -1462h-158zM627 174v98l377 523h141v-508h84v-113h-84v-174h-143v174h-375zM772 287h230v176q0 83 6 172q-37 -70 -80 -131z" />
<glyph unicode="&#xbf;" d="M168 -35q0 133 53 217q52 83 197 191q113 80 151 141q33 51 33 143v19h160v-37q0 -115 -45 -193q-45 -76 -162 -159q-127 -96 -170 -156q-43 -57 -43 -158q0 -94 74 -149q76 -57 207 -57q178 0 370 90l62 -144q-215 -106 -422 -106q-217 0 -340 98q-125 100 -125 260z M547 979q0 139 127 139t127 -139t-127 -139t-127 139z" />
<glyph unicode="&#xc0;" d="M33 0l483 1468h195l485 -1468h-192l-144 453h-491l-146 -453h-190zM422 618h385l-133 424q-39 121 -62 226q-20 -88 -47 -183zM340 1886v21h219q88 -182 174 -301v-27h-121q-163 139 -272 307z" />
<glyph unicode="&#xc1;" d="M33 0l483 1468h195l485 -1468h-192l-144 453h-491l-146 -453h-190zM422 618h385l-133 424q-39 121 -62 226q-20 -88 -47 -183zM520 1579v27q92 127 174 301h219v-21q-109 -168 -272 -307h-121z" />
<glyph unicode="&#xc2;" d="M33 0l483 1468h195l485 -1468h-192l-144 453h-491l-146 -453h-190zM422 618h385l-133 424q-39 121 -62 226q-20 -88 -47 -183zM283 1579v27l59 67q141 156 176 234h193q35 -78 176 -234l59 -67v-27h-121q-78 49 -211 186q-133 -137 -211 -186h-120z" />
<glyph unicode="&#xc3;" d="M33 0l483 1468h195l485 -1468h-192l-144 453h-491l-146 -453h-190zM422 618h385l-133 424q-39 121 -62 226q-20 -88 -47 -183zM254 1579q25 264 211 264q57 0 162 -55q104 -57 135 -57q82 0 106 114h105q-27 -264 -211 -264q-57 0 -158 57q-100 55 -139 56 q-82 0 -107 -115h-104z" />
<glyph unicode="&#xc4;" d="M33 0l483 1468h195l485 -1468h-192l-144 453h-491l-146 -453h-190zM422 618h385l-133 424q-39 121 -62 226q-20 -88 -47 -183zM330 1732.5q0 102.5 96 102.5t96 -102.5t-96 -102.5t-96 102.5zM705 1732.5q0 102.5 96 102.5t96 -102.5t-96 -102.5t-96 102.5z" />
<glyph unicode="&#xc5;" d="M33 0l483 1468h195l485 -1468h-192l-144 453h-491l-146 -453h-190zM422 618h385l-133 424q-39 121 -62 226q-20 -88 -47 -183zM387 1581q0 100 62 158q59 57 161 57q100 0 166 -59q63 -57 64 -154q0 -100 -64 -158q-66 -59 -166 -59q-102 0 -161 57q-62 58 -62 158z M498 1581q0 -113 112 -113q53 0 82 29q31 31 31 84q0 51 -30.5 82t-82.5 31q-49 0 -80 -31q-32 -33 -32 -82z" />
<glyph unicode="&#xc6;" d="M0 0l338 1462h872v-164h-477v-452h438v-162h-438v-520h477v-164h-653v453h-289l-96 -453h-172zM305 618h252v680h-106z" />
<glyph unicode="&#xc7;" d="M129 733q0 344 178 547t490 203q219 0 383 -86l-78 -156q-156 78 -305 78q-215 0 -342 -158q-129 -160 -129 -430q0 -287 120 -438q119 -150 351 -150q135 0 327 58v-162q-150 -59 -358 -59q-310 0 -473 196q-164 199 -164 557zM508 -375q34 -6 80 -6q152 0 151 92 q0 72 -172 113l91 176h120l-57 -115q160 -37 160 -172q0 -205 -291 -205q-39 0 -82 9v108z" />
<glyph unicode="&#xc8;" d="M217 0v1462h842v-164h-656v-452h617v-162h-617v-520h656v-164h-842zM344 1886v21h219q88 -182 174 -301v-27h-121q-163 139 -272 307z" />
<glyph unicode="&#xc9;" d="M217 0v1462h842v-164h-656v-452h617v-162h-617v-520h656v-164h-842zM481 1579v27q92 127 174 301h219v-21q-109 -168 -272 -307h-121z" />
<glyph unicode="&#xca;" d="M217 0v1462h842v-164h-656v-452h617v-162h-617v-520h656v-164h-842zM318 1579v27l59 67q141 156 176 234h193q35 -78 176 -234l59 -67v-27h-121q-78 49 -211 186q-133 -137 -211 -186h-120z" />
<glyph unicode="&#xcb;" d="M217 0v1462h842v-164h-656v-452h617v-162h-617v-520h656v-164h-842zM355 1732.5q0 102.5 96 102.5t96 -102.5t-96 -102.5t-96 102.5zM730 1732.5q0 102.5 96 102.5t96 -102.5t-96 -102.5t-96 102.5z" />
<glyph unicode="&#xcc;" d="M225 0v123l295 20v1176l-295 20v123h776v-123l-294 -20v-1176l294 -20v-123h-776zM309 1886v21h219q88 -182 174 -301v-27h-121q-163 139 -272 307z" />
<glyph unicode="&#xcd;" d="M225 0v123l295 20v1176l-295 20v123h776v-123l-294 -20v-1176l294 -20v-123h-776zM537 1579v27q92 127 174 301h219v-21q-109 -168 -272 -307h-121z" />
<glyph unicode="&#xce;" d="M225 0v123l295 20v1176l-295 20v123h776v-123l-294 -20v-1176l294 -20v-123h-776zM283 1579v27l59 67q141 156 176 234h193q35 -78 176 -234l59 -67v-27h-121q-78 49 -211 186q-133 -137 -211 -186h-120z" />
<glyph unicode="&#xcf;" d="M225 0v123l295 20v1176l-295 20v123h776v-123l-294 -20v-1176l294 -20v-123h-776zM332 1732.5q0 102.5 96 102.5t96 -102.5t-96 -102.5t-96 102.5zM707 1732.5q0 102.5 96 102.5t96 -102.5t-96 -102.5t-96 102.5z" />
<glyph unicode="&#xd0;" d="M0 659v162h135v641h342q319 0 494 -188q176 -193 176 -529q0 -365 -182 -552q-186 -193 -529 -193h-301v659h-135zM322 160h96q532 0 532 579q0 563 -493 564h-135v-482h380v-162h-380v-499z" />
<glyph unicode="&#xd1;" d="M135 0v1462h213l578 -1204h6q-14 285 -14 404v800h174v-1462h-215l-580 1210h-8q18 -276 18 -417v-793h-172zM258 1579q25 264 211 264q57 0 162 -55q104 -57 135 -57q82 0 106 114h105q-27 -264 -211 -264q-57 0 -158 57q-100 55 -139 56q-82 0 -107 -115h-104z" />
<glyph unicode="&#xd2;" d="M84 735q0 750 534 750q258 0 392 -195q137 -199 137 -557q0 -362 -137 -557q-138 -197 -394 -196q-532 -1 -532 755zM281 733q0 -590 335 -590q174 0 254 145.5t80 444.5q0 305 -82 445q-84 143 -250 143q-337 0 -337 -588zM336 1886v21h219q88 -182 174 -301v-27h-121 q-163 139 -272 307z" />
<glyph unicode="&#xd3;" d="M84 735q0 750 534 750q258 0 392 -195q137 -199 137 -557q0 -362 -137 -557q-138 -197 -394 -196q-532 -1 -532 755zM281 733q0 -590 335 -590q174 0 254 145.5t80 444.5q0 305 -82 445q-84 143 -250 143q-337 0 -337 -588zM508 1579v27q92 127 174 301h219v-21 q-109 -168 -272 -307h-121z" />
<glyph unicode="&#xd4;" d="M84 735q0 750 534 750q258 0 392 -195q137 -199 137 -557q0 -362 -137 -557q-138 -197 -394 -196q-532 -1 -532 755zM281 733q0 -590 335 -590q174 0 254 145.5t80 444.5q0 305 -82 445q-84 143 -250 143q-337 0 -337 -588zM283 1579v27l59 67q141 156 176 234h193 q35 -78 176 -234l59 -67v-27h-121q-78 49 -211 186q-133 -137 -211 -186h-120z" />
<glyph unicode="&#xd5;" d="M84 735q0 750 534 750q258 0 392 -195q137 -199 137 -557q0 -362 -137 -557q-138 -197 -394 -196q-532 -1 -532 755zM281 733q0 -590 335 -590q174 0 254 145.5t80 444.5q0 305 -82 445q-84 143 -250 143q-337 0 -337 -588zM262 1579q25 264 211 264q57 0 162 -55 q104 -57 135 -57q82 0 106 114h105q-27 -264 -211 -264q-57 0 -158 57q-100 55 -139 56q-82 0 -107 -115h-104z" />
<glyph unicode="&#xd6;" d="M84 735q0 750 534 750q258 0 392 -195q137 -199 137 -557q0 -362 -137 -557q-138 -197 -394 -196q-532 -1 -532 755zM281 733q0 -590 335 -590q174 0 254 145.5t80 444.5q0 305 -82 445q-84 143 -250 143q-337 0 -337 -588zM332 1732.5q0 102.5 96 102.5t96 -102.5 t-96 -102.5t-96 102.5zM707 1732.5q0 102.5 96 102.5t96 -102.5t-96 -102.5t-96 102.5z" />
<glyph unicode="&#xd7;" d="M190 1042l105 105l317 -318l322 318l104 -103l-321 -321l319 -320l-102 -102l-322 317l-317 -315l-102 103l315 317z" />
<glyph unicode="&#xd8;" d="M80 2l121 197q-117 184 -117 536q0 750 534 750q186 0 310 -105l92 152l137 -78l-125 -201q115 -188 115 -520q0 -362 -137 -557q-138 -197 -394 -196q-193 0 -307 94l-92 -150zM281 733q0 -205 38 -342l515 836q-80 94 -216 94q-337 0 -337 -588zM403 229 q80 -86 213 -86q174 0 254 145.5t80 444.5q0 205 -35 328z" />
<glyph unicode="&#xd9;" d="M125 520v942h186v-932q0 -387 307 -387q293 0 300 389v932h186v-948q0 -260 -125 -397q-127 -139 -371 -139q-483 -1 -483 540zM348 1886v21h219q88 -182 174 -301v-27h-121q-163 139 -272 307z" />
<glyph unicode="&#xda;" d="M125 520v942h186v-932q0 -387 307 -387q293 0 300 389v932h186v-948q0 -260 -125 -397q-127 -139 -371 -139q-483 -1 -483 540zM494 1579v27q92 127 174 301h219v-21q-109 -168 -272 -307h-121z" />
<glyph unicode="&#xdb;" d="M125 520v942h186v-932q0 -387 307 -387q293 0 300 389v932h186v-948q0 -260 -125 -397q-127 -139 -371 -139q-483 -1 -483 540zM283 1579v27l59 67q141 156 176 234h193q35 -78 176 -234l59 -67v-27h-121q-78 49 -211 186q-133 -137 -211 -186h-120z" />
<glyph unicode="&#xdc;" d="M125 520v942h186v-932q0 -387 307 -387q293 0 300 389v932h186v-948q0 -260 -125 -397q-127 -139 -371 -139q-483 -1 -483 540zM332 1732.5q0 102.5 96 102.5t96 -102.5t-96 -102.5t-96 102.5zM707 1732.5q0 102.5 96 102.5t96 -102.5t-96 -102.5t-96 102.5z" />
<glyph unicode="&#xdd;" d="M33 1462h203l376 -739l381 739h201l-487 -893v-569h-187v559zM494 1579v27q92 127 174 301h219v-21q-109 -168 -272 -307h-121z" />
<glyph unicode="&#xde;" d="M176 0v1462h186v-252h218q514 0 514 -428q0 -219 -137.5 -342t-403.5 -123h-191v-317h-186zM362 475h170q195 0 283 72q86 72 86 225q0 279 -338 279h-201v-576z" />
<glyph unicode="&#xdf;" d="M164 0v1200q0 367 424 367q195 0 303 -80t108 -227q0 -131 -133 -248q-80 -72 -108 -107q-25 -31 -25 -63q0 -37 29 -70q27 -29 151 -110q144 -95 191 -173t47 -176q0 -162 -100.5 -247.5t-282.5 -85.5q-178 0 -289 69v166q143 -86 277 -86q213 0 213 174q0 80 -45 131 t-144 113q-125 78 -174 139.5t-49 147.5q0 117 129 223q129 108 129 196q0 164 -227 164q-242 0 -242 -215v-1202h-182z" />
<glyph unicode="&#xe0;" d="M135 307q0 332 510 348l203 7v69q0 236 -244 236q-150 0 -328 -82l-63 137q199 96 383 96q223 0 328 -88q102 -86 102 -278v-752h-131l-37 152h-8q-74 -94 -158 -133t-209 -39q-164 0 -256 85.5t-92 241.5zM324 305q0 -178 200 -178q150 0 234 82q88 84 88 229v99 l-162 -7q-195 -8 -278 -61q-82 -51 -82 -164zM332 1548v21h219q88 -182 174 -301v-27h-121q-163 139 -272 307z" />
<glyph unicode="&#xe1;" d="M135 307q0 332 510 348l203 7v69q0 236 -244 236q-150 0 -328 -82l-63 137q199 96 383 96q223 0 328 -88q102 -86 102 -278v-752h-131l-37 152h-8q-74 -94 -158 -133t-209 -39q-164 0 -256 85.5t-92 241.5zM324 305q0 -178 200 -178q150 0 234 82q88 84 88 229v99 l-162 -7q-195 -8 -278 -61q-82 -51 -82 -164zM502 1241v27q92 127 174 301h219v-21q-109 -168 -272 -307h-121z" />
<glyph unicode="&#xe2;" d="M135 307q0 332 510 348l203 7v69q0 236 -244 236q-150 0 -328 -82l-63 137q199 96 383 96q223 0 328 -88q102 -86 102 -278v-752h-131l-37 152h-8q-74 -94 -158 -133t-209 -39q-164 0 -256 85.5t-92 241.5zM324 305q0 -178 200 -178q150 0 234 82q88 84 88 229v99 l-162 -7q-195 -8 -278 -61q-82 -51 -82 -164zM291 1241v27l59 67q141 156 176 234h193q35 -78 176 -234l59 -67v-27h-121q-78 49 -211 186q-133 -137 -211 -186h-120z" />
<glyph unicode="&#xe3;" d="M135 307q0 332 510 348l203 7v69q0 236 -244 236q-150 0 -328 -82l-63 137q199 96 383 96q223 0 328 -88q102 -86 102 -278v-752h-131l-37 152h-8q-74 -94 -158 -133t-209 -39q-164 0 -256 85.5t-92 241.5zM324 305q0 -178 200 -178q150 0 234 82q88 84 88 229v99 l-162 -7q-195 -8 -278 -61q-82 -51 -82 -164zM264 1241q25 264 211 264q57 0 162 -55q104 -57 135 -57q82 0 106 114h105q-27 -264 -211 -264q-57 0 -158 57q-100 55 -139 56q-82 0 -107 -115h-104z" />
<glyph unicode="&#xe4;" d="M135 307q0 332 510 348l203 7v69q0 236 -244 236q-150 0 -328 -82l-63 137q199 96 383 96q223 0 328 -88q102 -86 102 -278v-752h-131l-37 152h-8q-74 -94 -158 -133t-209 -39q-164 0 -256 85.5t-92 241.5zM324 305q0 -178 200 -178q150 0 234 82q88 84 88 229v99 l-162 -7q-195 -8 -278 -61q-82 -51 -82 -164zM342 1394.5q0 102.5 96 102.5t96 -102.5t-96 -102.5t-96 102.5zM717 1394.5q0 102.5 96 102.5t96 -102.5t-96 -102.5t-96 102.5z" />
<glyph unicode="&#xe5;" d="M135 307q0 332 510 348l203 7v69q0 236 -244 236q-150 0 -328 -82l-63 137q199 96 383 96q223 0 328 -88q102 -86 102 -278v-752h-131l-37 152h-8q-74 -94 -158 -133t-209 -39q-164 0 -256 85.5t-92 241.5zM324 305q0 -178 200 -178q150 0 234 82q88 84 88 229v99 l-162 -7q-195 -8 -278 -61q-82 -51 -82 -164zM387 1456q0 100 62 158q59 57 161 57q100 0 166 -59q63 -57 64 -154q0 -100 -64 -158q-66 -59 -166 -59q-102 0 -161 57q-62 58 -62 158zM498 1456q0 -113 112 -113q53 0 82 29q31 31 31 84q0 51 -30.5 82t-82.5 31 q-49 0 -80 -31q-32 -33 -32 -82z" />
<glyph unicode="&#xe6;" d="M45 307q0 334 328 348l149 7v69q0 236 -139 236q-109 0 -211 -82l-57 137q133 96 276 96q187 0 246 -178q77 178 240 178q137 0 223 -135t86 -356v-113h-496q3 -190 68 -283q66 -92 168 -92q113 0 233 76v-162q-106 -74 -241 -73q-221 0 -316 229q-104 -229 -301 -229 q-117 0 -186 86q-70 83 -70 241zM215 305q0 -82 33 -131q31 -47 86 -47q84 0 135 82t51 229v99l-88 -7q-217 -18 -217 -225zM694 662h316q0 137 -41 223q-39 82 -111 82q-66 0 -113 -78q-45 -75 -51 -227z" />
<glyph unicode="&#xe7;" d="M172 543q0 279 145 428q145 147 408 147q176 0 336 -59l-62 -158q-147 57 -268 57q-371 0 -371 -413q0 -406 361 -406q160 0 321 62v-160q-135 -61 -329 -61q-258 0 -400 145q-141 145 -141 418zM477 -375q34 -6 80 -6q152 0 151 92q0 72 -172 113l91 176h120l-57 -115 q160 -37 160 -172q0 -205 -291 -205q-39 0 -82 9v108z" />
<glyph unicode="&#xe8;" d="M133 541q0 266 135 421.5t363 155.5q212 0 338 -135q127 -137 127 -356v-113h-774q9 -375 344 -375q199 0 370 76v-160q-170 -76 -364 -75q-244 0 -391 149q-148 151 -148 412zM326 662h573q0 305 -272 305q-276 0 -301 -305zM375 1548v21h219q88 -182 174 -301v-27h-121 q-163 139 -272 307z" />
<glyph unicode="&#xe9;" d="M133 541q0 266 135 421.5t363 155.5q212 0 338 -135q127 -137 127 -356v-113h-774q9 -375 344 -375q199 0 370 76v-160q-170 -76 -364 -75q-244 0 -391 149q-148 151 -148 412zM326 662h573q0 305 -272 305q-276 0 -301 -305zM500 1241v27q92 127 174 301h219v-21 q-109 -168 -272 -307h-121z" />
<glyph unicode="&#xea;" d="M133 541q0 266 135 421.5t363 155.5q212 0 338 -135q127 -137 127 -356v-113h-774q9 -375 344 -375q199 0 370 76v-160q-170 -76 -364 -75q-244 0 -391 149q-148 151 -148 412zM326 662h573q0 305 -272 305q-276 0 -301 -305zM299 1241v27l59 67q141 156 176 234h193 q35 -78 176 -234l59 -67v-27h-121q-78 49 -211 186q-133 -137 -211 -186h-120z" />
<glyph unicode="&#xeb;" d="M133 541q0 266 135 421.5t363 155.5q212 0 338 -135q127 -137 127 -356v-113h-774q9 -375 344 -375q199 0 370 76v-160q-170 -76 -364 -75q-244 0 -391 149q-148 151 -148 412zM326 662h573q0 305 -272 305q-276 0 -301 -305zM348 1394.5q0 102.5 96 102.5t96 -102.5 t-96 -102.5t-96 102.5zM723 1394.5q0 102.5 96 102.5t96 -102.5t-96 -102.5t-96 102.5z" />
<glyph unicode="&#xec;" d="M197 0v123l344 20v811l-269 21v123h451v-955l352 -20v-123h-878zM332 1548v21h219q88 -182 174 -301v-27h-121q-163 139 -272 307z" />
<glyph unicode="&#xed;" d="M197 0v123l344 20v811l-269 21v123h451v-955l352 -20v-123h-878zM531 1241v27q92 127 174 301h219v-21q-109 -168 -272 -307h-121z" />
<glyph unicode="&#xee;" d="M197 0v123l344 20v811l-269 21v123h451v-955l352 -20v-123h-878zM283 1241v27l59 67q141 156 176 234h193q35 -78 176 -234l59 -67v-27h-121q-78 49 -211 186q-133 -137 -211 -186h-120z" />
<glyph unicode="&#xef;" d="M197 0v123l344 20v811l-269 21v123h451v-955l352 -20v-123h-878zM330 1394.5q0 102.5 96 102.5t96 -102.5t-96 -102.5t-96 102.5zM705 1394.5q0 102.5 96 102.5t96 -102.5t-96 -102.5t-96 102.5z" />
<glyph unicode="&#xf0;" d="M135 477.5q0 233.5 121 364.5q121 129 334 129q211 0 299 -119l8 4q-57 225 -242 391l-256 -153l-73 114l217 131q-113 76 -172 109l69 123q135 -66 246 -148l227 138l74 -113l-194 -117q301 -291 301 -758q0 -279 -129 -436t-353 -157q-213 0 -346 133 q-131 131 -131 364.5zM328 471q0 -340 288 -340q152 0 222 100q68 98 67 295q0 129 -77.5 213t-213.5 84q-286 0 -286 -352z" />
<glyph unicode="&#xf1;" d="M160 0v1098h147l27 -148h10q104 168 336 168q389 0 389 -401v-717h-182v707q0 260 -238 260q-307 0 -307 -398v-569h-182zM260 1241q25 264 211 264q57 0 162 -55q104 -57 135 -57q82 0 106 114h105q-27 -264 -211 -264q-57 0 -158 57q-100 55 -139 56q-82 0 -107 -115 h-104z" />
<glyph unicode="&#xf2;" d="M115 551q0 264 135 415.5t366 151.5q217 0 356.5 -155.5t139.5 -411.5q0 -266 -137 -418q-139 -154 -365 -153q-219 0 -356 155q-139 158 -139 416zM303 551q0 -420 311 -420q309 0 310 420q0 416 -312 416q-309 0 -309 -416zM377 1548v21h219q88 -182 174 -301v-27h-121 q-163 139 -272 307z" />
<glyph unicode="&#xf3;" d="M115 551q0 264 135 415.5t366 151.5q217 0 356.5 -155.5t139.5 -411.5q0 -266 -137 -418q-139 -154 -365 -153q-219 0 -356 155q-139 158 -139 416zM303 551q0 -420 311 -420q309 0 310 420q0 416 -312 416q-309 0 -309 -416zM498 1241v27q92 127 174 301h219v-21 q-109 -168 -272 -307h-121z" />
<glyph unicode="&#xf4;" d="M115 551q0 264 135 415.5t366 151.5q217 0 356.5 -155.5t139.5 -411.5q0 -266 -137 -418q-139 -154 -365 -153q-219 0 -356 155q-139 158 -139 416zM303 551q0 -420 311 -420q309 0 310 420q0 416 -312 416q-309 0 -309 -416zM279 1241v27l59 67q141 156 176 234h193 q35 -78 176 -234l59 -67v-27h-121q-78 49 -211 186q-133 -137 -211 -186h-120z" />
<glyph unicode="&#xf5;" d="M115 551q0 264 135 415.5t366 151.5q217 0 356.5 -155.5t139.5 -411.5q0 -266 -137 -418q-139 -154 -365 -153q-219 0 -356 155q-139 158 -139 416zM303 551q0 -420 311 -420q309 0 310 420q0 416 -312 416q-309 0 -309 -416zM254 1241q25 264 211 264q57 0 162 -55 q104 -57 135 -57q82 0 106 114h105q-27 -264 -211 -264q-57 0 -158 57q-100 55 -139 56q-82 0 -107 -115h-104z" />
<glyph unicode="&#xf6;" d="M115 551q0 264 135 415.5t366 151.5q217 0 356.5 -155.5t139.5 -411.5q0 -266 -137 -418q-139 -154 -365 -153q-219 0 -356 155q-139 158 -139 416zM303 551q0 -420 311 -420q309 0 310 420q0 416 -312 416q-309 0 -309 -416zM324 1394.5q0 102.5 96 102.5t96 -102.5 t-96 -102.5t-96 102.5zM699 1394.5q0 102.5 96 102.5t96 -102.5t-96 -102.5t-96 102.5z" />
<glyph unicode="&#xf7;" d="M152 647v150h923v-150h-923zM498 373q0 125 114.5 125t114.5 -125t-114.5 -125t-114.5 125zM498 1071q0 125 114.5 125t114.5 -125t-114.5 -125t-114.5 125z" />
<glyph unicode="&#xf8;" d="M115 551q0 264 133 415.5t368 151.5q129 0 236 -57l76 119l131 -84l-84 -131q137 -156 137 -414q0 -272 -135 -421.5t-367 -149.5q-127 0 -233 53l-76 -119l-131 84l84 131q-139 158 -139 422zM303 551q0 -178 53 -275l406 656q-66 35 -156 35q-162 0 -231 -103 q-72 -106 -72 -313zM467 164q59 -33 154 -33q162 0 233 105q70 102 70 315q0 166 -52 266z" />
<glyph unicode="&#xf9;" d="M160 381v717h182v-707q0 -260 236 -260q162 0 235.5 92t73.5 305v570h182v-1098h-147l-27 147h-10q-106 -168 -334 -167q-391 0 -391 401zM340 1548v21h219q88 -182 174 -301v-27h-121q-163 139 -272 307z" />
<glyph unicode="&#xfa;" d="M160 381v717h182v-707q0 -260 236 -260q162 0 235.5 92t73.5 305v570h182v-1098h-147l-27 147h-10q-106 -168 -334 -167q-391 0 -391 401zM500 1241v27q92 127 174 301h219v-21q-109 -168 -272 -307h-121z" />
<glyph unicode="&#xfb;" d="M160 381v717h182v-707q0 -260 236 -260q162 0 235.5 92t73.5 305v570h182v-1098h-147l-27 147h-10q-106 -168 -334 -167q-391 0 -391 401zM291 1241v27l59 67q141 156 176 234h193q35 -78 176 -234l59 -67v-27h-121q-78 49 -211 186q-133 -137 -211 -186h-120z" />
<glyph unicode="&#xfc;" d="M160 381v717h182v-707q0 -260 236 -260q162 0 235.5 92t73.5 305v570h182v-1098h-147l-27 147h-10q-106 -168 -334 -167q-391 0 -391 401zM332 1394.5q0 102.5 96 102.5t96 -102.5t-96 -102.5t-96 102.5zM707 1394.5q0 102.5 96 102.5t96 -102.5t-96 -102.5t-96 102.5z " />
<glyph unicode="&#xfd;" d="M82 1098h188l262 -654q82 -203 89 -290h6q20 106 90 292l239 652h189l-475 -1241q-70 -178 -156 -263q-89 -86 -246 -86q-94 0 -168 17v145q61 -12 136 -12q96 0 149 41t96 141l58 150zM494 1241v27q92 127 174 301h219v-21q-109 -168 -272 -307h-121z" />
<glyph unicode="&#xfe;" d="M158 -492v2048h182v-458l-8 -148h8q111 168 322 168q203 0 315 -149q115 -152 115 -418q0 -268 -115 -419.5t-315 -151.5q-207 0 -322 159h-12q12 -129 12 -162v-469h-182zM340 551q0 -229 70 -324q72 -96 221 -96q272 0 272 422q0 414 -274 414q-152 0 -219.5 -88 t-69.5 -287v-41z" />
<glyph unicode="&#xff;" d="M82 1098h188l262 -654q82 -203 89 -290h6q20 106 90 292l239 652h189l-475 -1241q-70 -178 -156 -263q-89 -86 -246 -86q-94 0 -168 17v145q61 -12 136 -12q96 0 149 41t96 141l58 150zM338 1394.5q0 102.5 96 102.5t96 -102.5t-96 -102.5t-96 102.5zM713 1394.5 q0 102.5 96 102.5t96 -102.5t-96 -102.5t-96 102.5z" />
<glyph unicode="&#x100;" d="M33 0l483 1468h195l485 -1468h-192l-144 453h-491l-146 -453h-190zM422 618h385l-133 424q-39 121 -62 226q-20 -88 -47 -183zM326 1579v150h575v-150h-575z" />
<glyph unicode="&#x101;" d="M135 307q0 332 510 348l203 7v69q0 236 -244 236q-150 0 -328 -82l-63 137q199 96 383 96q223 0 328 -88q102 -86 102 -278v-752h-131l-37 152h-8q-74 -94 -158 -133t-209 -39q-164 0 -256 85.5t-92 241.5zM324 305q0 -178 200 -178q150 0 234 82q88 84 88 229v99 l-162 -7q-195 -8 -278 -61q-82 -51 -82 -164zM318 1241v150h575v-150h-575z" />
<glyph unicode="&#x102;" d="M33 0l483 1468h195l485 -1468h-192l-144 453h-491l-146 -453h-190zM422 618h385l-133 424q-39 121 -62 226q-20 -88 -47 -183zM311 1856h109q6 -76 47 -101q39 -25 143 -24q182 0 191 125h112q-10 -127 -90 -201q-82 -76 -215 -76q-279 1 -297 277z" />
<glyph unicode="&#x103;" d="M135 307q0 332 510 348l203 7v69q0 236 -244 236q-150 0 -328 -82l-63 137q199 96 383 96q223 0 328 -88q102 -86 102 -278v-752h-131l-37 152h-8q-74 -94 -158 -133t-209 -39q-164 0 -256 85.5t-92 241.5zM324 305q0 -178 200 -178q150 0 234 82q88 84 88 229v99 l-162 -7q-195 -8 -278 -61q-82 -51 -82 -164zM303 1518h109q6 -76 47 -101q39 -25 143 -24q182 0 191 125h112q-10 -127 -90 -201q-82 -76 -215 -76q-279 1 -297 277z" />
<glyph unicode="&#x104;" d="M33 0l483 1468h195l485 -1468h-192l-144 453h-491l-146 -453h-190zM422 618h385l-133 424q-39 121 -62 226q-20 -88 -47 -183zM813 -252q0 144 190 252h131q-170 -127 -170 -238q0 -96 127 -96q68 0 123 15v-113q-78 -23 -156 -23q-121 0 -182 54q-63 55 -63 149z" />
<glyph unicode="&#x105;" d="M135 307q0 332 510 348l203 7v69q0 236 -244 236q-150 0 -328 -82l-63 137q199 96 383 96q223 0 328 -88q102 -86 102 -278v-752h-131l-37 152h-8q-74 -94 -158 -133t-209 -39q-164 0 -256 85.5t-92 241.5zM324 305q0 -178 200 -178q150 0 234 82q88 84 88 229v99 l-162 -7q-195 -8 -278 -61q-82 -51 -82 -164zM705 -252q0 144 190 252h131q-170 -127 -170 -238q0 -96 127 -96q68 0 123 15v-113q-78 -23 -156 -23q-121 0 -182 54q-63 55 -63 149z" />
<glyph unicode="&#x106;" d="M129 733q0 344 178 547t490 203q219 0 383 -86l-78 -156q-156 78 -305 78q-215 0 -342 -158q-129 -160 -129 -430q0 -287 120 -438q119 -150 351 -150q135 0 327 58v-162q-150 -59 -358 -59q-310 0 -473 196q-164 199 -164 557zM660 1579v27q92 127 174 301h219v-21 q-109 -168 -272 -307h-121z" />
<glyph unicode="&#x107;" d="M172 543q0 279 145 428q145 147 408 147q176 0 336 -59l-62 -158q-147 57 -268 57q-371 0 -371 -413q0 -406 361 -406q160 0 321 62v-160q-135 -61 -329 -61q-258 0 -400 145q-141 145 -141 418zM578 1241v27q92 127 174 301h219v-21q-109 -168 -272 -307h-121z" />
<glyph unicode="&#x108;" d="M129 733q0 344 178 547t490 203q219 0 383 -86l-78 -156q-156 78 -305 78q-215 0 -342 -158q-129 -160 -129 -430q0 -287 120 -438q119 -150 351 -150q135 0 327 58v-162q-150 -59 -358 -59q-310 0 -473 196q-164 199 -164 557zM443 1579v27l59 67q141 156 176 234h193 q35 -78 176 -234l59 -67v-27h-121q-78 49 -211 186q-133 -137 -211 -186h-120z" />
<glyph unicode="&#x109;" d="M172 543q0 279 145 428q145 147 408 147q176 0 336 -59l-62 -158q-147 57 -268 57q-371 0 -371 -413q0 -406 361 -406q160 0 321 62v-160q-135 -61 -329 -61q-258 0 -400 145q-141 145 -141 418zM367 1241v27l59 67q141 156 176 234h193q35 -78 176 -234l59 -67v-27h-121 q-78 49 -211 186q-133 -137 -211 -186h-120z" />
<glyph unicode="&#x10a;" d="M129 733q0 344 178 547t490 203q219 0 383 -86l-78 -156q-156 78 -305 78q-215 0 -342 -158q-129 -160 -129 -430q0 -287 120 -438q119 -150 351 -150q135 0 327 58v-162q-150 -59 -358 -59q-310 0 -473 196q-164 199 -164 557zM672 1732.5q0 114.5 106.5 114.5 t106.5 -114.5t-106.5 -114.5t-106.5 114.5z" />
<glyph unicode="&#x10b;" d="M172 543q0 279 145 428q145 147 408 147q176 0 336 -59l-62 -158q-147 57 -268 57q-371 0 -371 -413q0 -406 361 -406q160 0 321 62v-160q-135 -61 -329 -61q-258 0 -400 145q-141 145 -141 418zM592 1394.5q0 114.5 106.5 114.5t106.5 -114.5t-106.5 -114.5 t-106.5 114.5z" />
<glyph unicode="&#x10c;" d="M129 733q0 344 178 547t490 203q219 0 383 -86l-78 -156q-156 78 -305 78q-215 0 -342 -158q-129 -160 -129 -430q0 -287 120 -438q119 -150 351 -150q135 0 327 58v-162q-150 -59 -358 -59q-310 0 -473 196q-164 199 -164 557zM437 1880v27h120q82 -55 211 -187 q123 129 211 187h121v-27l-59 -67q-143 -160 -176 -234h-193q-33 74 -176 234z" />
<glyph unicode="&#x10d;" d="M172 543q0 279 145 428q145 147 408 147q176 0 336 -59l-62 -158q-147 57 -268 57q-371 0 -371 -413q0 -406 361 -406q160 0 321 62v-160q-135 -61 -329 -61q-258 0 -400 145q-141 145 -141 418zM375 1542v27h120q82 -55 211 -187q123 129 211 187h121v-27l-59 -67 q-143 -160 -176 -234h-193q-33 74 -176 234z" />
<glyph unicode="&#x10e;" d="M135 0v1462h342q319 0 494 -188q176 -193 176 -529q0 -365 -182 -552q-186 -193 -529 -193h-301zM322 160h96q532 0 532 579q0 563 -493 564h-135v-1143zM275 1880v27h120q82 -55 211 -187q123 129 211 187h121v-27l-59 -67q-143 -160 -176 -234h-193q-33 74 -176 234z " />
<glyph unicode="&#x10f;" d="M80 547q0 268 115 419.5t315 151.5q205 0 322 -160h12q-12 129 -12 162v436h182v-1556h-147l-27 147h-8q-115 -168 -322 -167q-203 0 -315 149q-115 152 -115 418zM269 545q0 -414 274 -414q152 0 219 88q66 88 70 287v41q0 229 -70 323q-72 96 -221 97q-272 0 -272 -422 zM1074 1229v26l26 107q27 127 35 194h180v-20q0 -14 -43 -113q-49 -111 -102 -194h-96z" />
<glyph unicode="&#x110;" d="M0 659v162h135v641h342q319 0 494 -188q176 -193 176 -529q0 -365 -182 -552q-186 -193 -529 -193h-301v659h-135zM322 160h96q532 0 532 579q0 563 -493 564h-135v-482h380v-162h-380v-499z" />
<glyph unicode="&#x111;" d="M137 526q0 260 115 405.5t315 145.5q207 0 322 -159h12q-12 127 -12 161v158h-379v137h379v182h182v-182h156v-137h-156v-1237h-147l-27 147h-8q-115 -168 -322 -167q-201 0 -315.5 145t-114.5 401zM326 524q0 -393 274 -393q150 0 217 82q70 84 72 274v39q0 217 -70 308 q-71 92 -221 92q-272 -1 -272 -402z" />
<glyph unicode="&#x112;" d="M217 0v1462h842v-164h-656v-452h617v-162h-617v-520h656v-164h-842zM336 1579v150h575v-150h-575z" />
<glyph unicode="&#x113;" d="M133 541q0 266 135 421.5t363 155.5q212 0 338 -135q127 -137 127 -356v-113h-774q9 -375 344 -375q199 0 370 76v-160q-170 -76 -364 -75q-244 0 -391 149q-148 151 -148 412zM326 662h573q0 305 -272 305q-276 0 -301 -305zM346 1241v150h575v-150h-575z" />
<glyph unicode="&#x114;" d="M217 0v1462h842v-164h-656v-452h617v-162h-617v-520h656v-164h-842zM342 1856h109q6 -76 47 -101q39 -25 143 -24q182 0 191 125h112q-10 -127 -90 -201q-82 -76 -215 -76q-279 1 -297 277z" />
<glyph unicode="&#x115;" d="M133 541q0 266 135 421.5t363 155.5q212 0 338 -135q127 -137 127 -356v-113h-774q9 -375 344 -375q199 0 370 76v-160q-170 -76 -364 -75q-244 0 -391 149q-148 151 -148 412zM326 662h573q0 305 -272 305q-276 0 -301 -305zM329 1518h109q6 -76 47 -101q39 -25 143 -24 q182 0 191 125h112q-10 -127 -90 -201q-82 -76 -215 -76q-279 1 -297 277z" />
<glyph unicode="&#x116;" d="M217 0v1462h842v-164h-656v-452h617v-162h-617v-520h656v-164h-842zM543 1703.5q0 114.5 106.5 114.5t106.5 -114.5t-106.5 -114.5t-106.5 114.5z" />
<glyph unicode="&#x117;" d="M133 541q0 266 135 421.5t363 155.5q212 0 338 -135q127 -137 127 -356v-113h-774q9 -375 344 -375q199 0 370 76v-160q-170 -76 -364 -75q-244 0 -391 149q-148 151 -148 412zM326 662h573q0 305 -272 305q-276 0 -301 -305zM531 1394.5q0 114.5 106.5 114.5 t106.5 -114.5t-106.5 -114.5t-106.5 114.5z" />
<glyph unicode="&#x118;" d="M217 0v1462h842v-164h-656v-452h617v-162h-617v-520h656v-164h-842zM619 -252q0 144 190 252h131q-170 -127 -170 -238q0 -96 127 -96q68 0 123 15v-113q-78 -23 -156 -23q-121 0 -182 54q-63 55 -63 149z" />
<glyph unicode="&#x119;" d="M133 541q0 266 135 421.5t363 155.5q212 0 338 -135q127 -137 127 -356v-113h-774q9 -375 344 -375q199 0 370 76v-160q-170 -76 -364 -75q-244 0 -391 149q-148 151 -148 412zM326 662h573q0 305 -272 305q-276 0 -301 -305zM641 -221q0 144 190 252h131 q-170 -127 -170 -238q0 -96 127 -96q68 0 123 15v-113q-78 -23 -156 -23q-121 0 -182 54q-63 55 -63 149z" />
<glyph unicode="&#x11a;" d="M217 0v1462h842v-164h-656v-452h617v-162h-617v-520h656v-164h-842zM318 1880v27h120q82 -55 211 -187q123 129 211 187h121v-27l-59 -67q-143 -160 -176 -234h-193q-33 74 -176 234z" />
<glyph unicode="&#x11b;" d="M133 541q0 266 135 421.5t363 155.5q212 0 338 -135q127 -137 127 -356v-113h-774q9 -375 344 -375q199 0 370 76v-160q-170 -76 -364 -75q-244 0 -391 149q-148 151 -148 412zM326 662h573q0 305 -272 305q-276 0 -301 -305zM308 1542v27h120q82 -55 211 -187 q123 129 211 187h121v-27l-59 -67q-143 -160 -176 -234h-193q-33 74 -176 234z" />
<glyph unicode="&#x11c;" d="M117 733q0 352 161.5 551t446.5 199q193 0 346 -86l-72 -162q-150 84 -280 84q-193 0 -299.5 -155.5t-106.5 -432.5q0 -588 394 -588q94 0 202 29v436h-237v164h422v-717q-199 -76 -420 -75q-262 0 -410 200q-147 200 -147 553zM363 1579v27l59 67q141 156 176 234h193 q35 -78 176 -234l59 -67v-27h-121q-78 49 -211 186q-133 -137 -211 -186h-120z" />
<glyph unicode="&#x11d;" d="M102 -186q0 212 240 270q-96 47 -96 154q0 113 133 192q-86 35 -139 123q-51 84 -52 186q0 182 106.5 280.5t303.5 98.5q88 0 150 -20h378v-113l-196 -27q66 -88 65 -213q0 -162 -106 -256q-109 -96 -297 -96q-55 0 -86 6q-100 -55 -100 -133q0 -84 161 -84h187 q172 0 266 -78q92 -76 92 -219q0 -377 -565 -377q-218 0 -332 80q-113 81 -113 226zM274 -180q0 -174 271 -174q395 0 395 223q0 88 -49 118.5t-199 30.5h-188q-230 1 -230 -198zM367 745q0 -227 227 -227q223 0 223 230q0 240 -225 239.5t-225 -242.5zM275 1241v27l59 67 q141 156 176 234h193q35 -78 176 -234l59 -67v-27h-121q-78 49 -211 186q-133 -137 -211 -186h-120z" />
<glyph unicode="&#x11e;" d="M117 733q0 352 161.5 551t446.5 199q193 0 346 -86l-72 -162q-150 84 -280 84q-193 0 -299.5 -155.5t-106.5 -432.5q0 -588 394 -588q94 0 202 29v436h-237v164h422v-717q-199 -76 -420 -75q-262 0 -410 200q-147 200 -147 553zM411 1856h109q6 -76 47 -101 q39 -25 143 -24q182 0 191 125h112q-10 -127 -90 -201q-82 -76 -215 -76q-279 1 -297 277z" />
<glyph unicode="&#x11f;" d="M102 -186q0 212 240 270q-96 47 -96 154q0 113 133 192q-86 35 -139 123q-51 84 -52 186q0 182 106.5 280.5t303.5 98.5q88 0 150 -20h378v-113l-196 -27q66 -88 65 -213q0 -162 -106 -256q-109 -96 -297 -96q-55 0 -86 6q-100 -55 -100 -133q0 -84 161 -84h187 q172 0 266 -78q92 -76 92 -219q0 -377 -565 -377q-218 0 -332 80q-113 81 -113 226zM274 -180q0 -174 271 -174q395 0 395 223q0 88 -49 118.5t-199 30.5h-188q-230 1 -230 -198zM367 745q0 -227 227 -227q223 0 223 230q0 240 -225 239.5t-225 -242.5zM301 1518h109 q6 -76 47 -101q39 -25 143 -24q182 0 191 125h112q-10 -127 -90 -201q-82 -76 -215 -76q-279 1 -297 277z" />
<glyph unicode="&#x120;" d="M117 733q0 352 161.5 551t446.5 199q193 0 346 -86l-72 -162q-150 84 -280 84q-193 0 -299.5 -155.5t-106.5 -432.5q0 -588 394 -588q94 0 202 29v436h-237v164h422v-717q-199 -76 -420 -75q-262 0 -410 200q-147 200 -147 553zM617 1732.5q0 114.5 106.5 114.5 t106.5 -114.5t-106.5 -114.5t-106.5 114.5z" />
<glyph unicode="&#x121;" d="M102 -186q0 212 240 270q-96 47 -96 154q0 113 133 192q-86 35 -139 123q-51 84 -52 186q0 182 106.5 280.5t303.5 98.5q88 0 150 -20h378v-113l-196 -27q66 -88 65 -213q0 -162 -106 -256q-109 -96 -297 -96q-55 0 -86 6q-100 -55 -100 -133q0 -84 161 -84h187 q172 0 266 -78q92 -76 92 -219q0 -377 -565 -377q-218 0 -332 80q-113 81 -113 226zM274 -180q0 -174 271 -174q395 0 395 223q0 88 -49 118.5t-199 30.5h-188q-230 1 -230 -198zM367 745q0 -227 227 -227q223 0 223 230q0 240 -225 239.5t-225 -242.5zM508 1394.5 q0 114.5 106.5 114.5t106.5 -114.5t-106.5 -114.5t-106.5 114.5z" />
<glyph unicode="&#x122;" d="M117 733q0 352 161.5 551t446.5 199q193 0 346 -86l-72 -162q-150 84 -280 84q-193 0 -299.5 -155.5t-106.5 -432.5q0 -588 394 -588q94 0 202 29v436h-237v164h422v-717q-199 -76 -420 -75q-262 0 -410 200q-147 200 -147 553zM540 -426q63 145 84 301h178v-20 q0 -22 -49 -123q-51 -109 -114 -185h-99v27z" />
<glyph unicode="&#x123;" d="M102 -186q0 212 240 270q-96 47 -96 154q0 113 133 192q-86 35 -139 123q-51 84 -52 186q0 182 106.5 280.5t303.5 98.5q88 0 150 -20h378v-113l-196 -27q66 -88 65 -213q0 -162 -106 -256q-109 -96 -297 -96q-55 0 -86 6q-100 -55 -100 -133q0 -84 161 -84h187 q172 0 266 -78q92 -76 92 -219q0 -377 -565 -377q-218 0 -332 80q-113 81 -113 226zM274 -180q0 -174 271 -174q395 0 395 223q0 88 -49 118.5t-199 30.5h-188q-230 1 -230 -198zM367 745q0 -227 227 -227q223 0 223 230q0 240 -225 239.5t-225 -242.5zM528 1241v21 q0 20 45 118q45 100 119 189h98v-27q-61 -145 -83 -301h-179z" />
<glyph unicode="&#x124;" d="M135 0v1462h187v-616h585v616h187v-1462h-187v682h-585v-682h-187zM283 1579v27l59 67q141 156 176 234h193q35 -78 176 -234l59 -67v-27h-121q-78 49 -211 186q-133 -137 -211 -186h-120z" />
<glyph unicode="&#x125;" d="M160 0v1556h182v-462l-8 -144h10q104 168 336 168q389 0 389 -401v-717h-182v707q0 260 -238 260q-307 0 -307 -398v-569h-182zM297 1634v27l59 67q141 156 176 234h193q35 -78 176 -234l59 -67v-27h-121q-78 49 -211 186q-133 -137 -211 -186h-120z" />
<glyph unicode="&#x126;" d="M0 1069v150h135v243h187v-243h585v243h187v-243h135v-150h-135v-1069h-187v682h-585v-682h-187v1069h-135zM322 846h585v223h-585v-223z" />
<glyph unicode="&#x127;" d="M4 1237v137h156v182h184v-182h418v-137h-420v-184l-10 -144h10q106 168 346 168q190 0 287 -96q94 -94 94 -305v-676h-182v666q0 260 -236 260q-160 0 -235 -95q-74 -92 -74 -303v-528h-182v1237h-156z" />
<glyph unicode="&#x128;" d="M225 0v123l295 20v1176l-295 20v123h776v-123l-294 -20v-1176l294 -20v-123h-776zM254 1579q25 264 211 264q57 0 162 -55q104 -57 135 -57q82 0 106 114h105q-27 -264 -211 -264q-57 0 -158 57q-100 55 -139 56q-82 0 -107 -115h-104z" />
<glyph unicode="&#x129;" d="M197 0v123l344 20v811l-269 21v123h451v-955l352 -20v-123h-878zM252 1241q25 264 211 264q57 0 162 -55q104 -57 135 -57q82 0 106 114h105q-27 -264 -211 -264q-57 0 -158 57q-100 55 -139 56q-82 0 -107 -115h-104z" />
<glyph unicode="&#x12a;" d="M225 0v123l295 20v1176l-295 20v123h776v-123l-294 -20v-1176l294 -20v-123h-776zM328 1579v150h575v-150h-575z" />
<glyph unicode="&#x12b;" d="M197 0v123l344 20v811l-269 21v123h451v-955l352 -20v-123h-878zM326 1241v150h575v-150h-575z" />
<glyph unicode="&#x12c;" d="M225 0v123l295 20v1176l-295 20v123h776v-123l-294 -20v-1176l294 -20v-123h-776zM313 1856h109q6 -76 47 -101q39 -25 143 -24q182 0 191 125h112q-10 -127 -90 -201q-82 -76 -215 -76q-279 1 -297 277z" />
<glyph unicode="&#x12d;" d="M197 0v123l344 20v811l-269 21v123h451v-955l352 -20v-123h-878zM338 1518h109q6 -76 47 -101q39 -25 143 -24q182 0 191 125h112q-10 -127 -90 -201q-82 -76 -215 -76q-279 1 -297 277z" />
<glyph unicode="&#x12e;" d="M225 0v123l295 20v1176l-295 20v123h776v-123l-294 -20v-1176l294 -20v-123h-776zM422 -252q0 144 190 252h131q-170 -127 -170 -238q0 -96 127 -96q68 0 123 15v-113q-78 -23 -156 -23q-121 0 -182 54q-63 55 -63 149z" />
<glyph unicode="&#x12f;" d="M197 0v123l344 20v811l-269 21v123h451v-955l352 -20v-123h-878zM526 1435.5q0 114.5 106.5 114.5t106.5 -114q0 -57 -32.5 -86t-73.5 -29q-107 0 -107 114.5zM439 -252q0 144 190 252h131q-170 -127 -170 -238q0 -96 127 -96q68 0 123 15v-113q-78 -23 -156 -23 q-121 0 -182 54q-63 55 -63 149z" />
<glyph unicode="&#x130;" d="M225 0v123l295 20v1176l-295 20v123h776v-123l-294 -20v-1176l294 -20v-123h-776zM508 1732.5q0 114.5 106.5 114.5t106.5 -114.5t-106.5 -114.5t-106.5 114.5z" />
<glyph unicode="&#x131;" d="M197 0v123l344 20v811l-269 21v123h451v-955l352 -20v-123h-878z" />
<glyph unicode="&#x132;" d="M156 0v1462h186v-1462h-186zM492 23v163q90 -45 186 -45q195 0 194 283v1038h187v-1026q0 -457 -365 -456q-134 0 -202 43z" />
<glyph unicode="&#x133;" d="M188 1435.5q0 114.5 106.5 114.5t106.5 -114q0 -57 -32.5 -86t-73.5 -29q-107 0 -107 114.5zM203 0v1098h182v-1098h-182zM502 -303q86 -39 190 -39q164 0 164 215v1081l-215 21v123h397v-1215q0 -182 -86 -278.5t-235 -96.5q-121 0 -215 35v154zM821 1435.5 q0 114.5 106.5 114.5t106.5 -114q0 -58 -30 -86q-33 -29 -76 -29q-107 0 -107 114.5z" />
<glyph unicode="&#x134;" d="M137 39v166q162 -61 309 -62q162 0 254.5 80t92.5 226v1013h186v-1011q0 -215 -141 -345q-139 -127 -377 -126q-215 0 -324 59zM551 1579v27l59 67q141 156 176 234h193q35 -78 176 -234l59 -67v-27h-121q-78 49 -211 186q-133 -137 -211 -186h-120z" />
<glyph unicode="&#x135;" d="M303 1241v27l59 67q141 156 176 234h193q35 -78 176 -234l59 -67v-27h-121q-78 49 -211 186q-133 -137 -211 -186h-120zM135 -303q131 -39 289 -39q119 0 182 57q66 59 66 158v1081l-420 21v123h602v-1215q0 -180 -113 -278q-111 -96 -319 -97q-160 0 -287 35v154z" />
<glyph unicode="&#x136;" d="M211 0v1462h186v-731l121 168l453 563h209l-521 -637l539 -825h-211l-450 698l-140 -114v-584h-186zM510 -426q63 145 84 301h178v-20q0 -22 -49 -123q-51 -109 -114 -185h-99v27z" />
<glyph unicode="&#x137;" d="M215 0v1556h180v-714l-16 -289h4l135 152l395 393h222l-494 -475l522 -623h-213l-426 504l-129 -82v-422h-180zM485 -426q63 145 84 301h178v-20q0 -22 -49 -123q-51 -109 -114 -185h-99v27z" />
<glyph unicode="&#x138;" d="M215 0v1098h180v-291l-16 -299h4l137 166l402 424h213l-494 -510l522 -588h-213l-426 469l-129 -82v-387h-180z" />
<glyph unicode="&#x139;" d="M233 0v1462h187v-1296h635v-166h-822zM262 1579v27q92 127 174 301h219v-21q-109 -168 -272 -307h-121z" />
<glyph unicode="&#x13a;" d="M188 0v123l344 20v1270l-268 21v122h451v-1413l352 -20v-123h-879zM496 1636v27q92 127 174 301h219v-21q-109 -168 -272 -307h-121z" />
<glyph unicode="&#x13b;" d="M233 0v1462h187v-1296h635v-166h-822zM491 -426q63 145 84 301h178v-20q0 -22 -49 -123q-51 -109 -114 -185h-99v27z" />
<glyph unicode="&#x13c;" d="M188 0v123l344 20v1270l-268 21v122h451v-1413l352 -20v-123h-879zM460 -426q63 145 84 301h178v-20q0 -22 -49 -123q-51 -109 -114 -185h-99v27z" />
<glyph unicode="&#x13d;" d="M233 0v1462h187v-1296h635v-166h-822zM750 1137v26l26 107q27 127 35 194h180v-20q0 -14 -43 -113q-49 -111 -102 -194h-96z" />
<glyph unicode="&#x13e;" d="M188 0v123l344 20v1270l-268 21v122h451v-1413l352 -20v-123h-879zM865 1229v26l26 107q27 127 35 194h180v-20q0 -14 -43 -113q-49 -111 -102 -194h-96z" />
<glyph unicode="&#x13f;" d="M233 0v1462h187v-1296h635v-166h-822zM750 773.5q0 114.5 106.5 114.5t106.5 -114.5t-106.5 -114.5t-106.5 114.5z" />
<glyph unicode="&#x140;" d="M188 0v123l344 20v1270l-268 21v122h451v-1413l352 -20v-123h-879zM866 681.5q0 114.5 106.5 114.5t106.5 -114.5t-106.5 -114.5t-106.5 114.5z" />
<glyph unicode="&#x141;" d="M72 539l198 125v798h187v-680l299 189l78 -125l-377 -238v-442h635v-166h-822v492l-125 -78z" />
<glyph unicode="&#x142;" d="M188 0v123l344 20v449l-141 -92l-78 121l219 143v649l-268 21v122h451v-673l164 108l77 -121l-241 -159v-568l352 -20v-123h-879z" />
<glyph unicode="&#x143;" d="M135 0v1462h213l578 -1204h6q-14 285 -14 404v800h174v-1462h-215l-580 1210h-8q18 -276 18 -417v-793h-172zM516 1579v27q92 127 174 301h219v-21q-109 -168 -272 -307h-121z" />
<glyph unicode="&#x144;" d="M160 0v1098h147l27 -148h10q104 168 336 168q389 0 389 -401v-717h-182v707q0 260 -238 260q-307 0 -307 -398v-569h-182zM529 1241v27q92 127 174 301h219v-21q-109 -168 -272 -307h-121z" />
<glyph unicode="&#x145;" d="M135 0v1462h213l578 -1204h6q-14 285 -14 404v800h174v-1462h-215l-580 1210h-8q18 -276 18 -417v-793h-172zM434 -426q63 145 84 301h178v-20q0 -22 -49 -123q-51 -109 -114 -185h-99v27z" />
<glyph unicode="&#x146;" d="M160 0v1098h147l27 -148h10q104 168 336 168q389 0 389 -401v-717h-182v707q0 260 -238 260q-307 0 -307 -398v-569h-182zM454 -426q63 145 84 301h178v-20q0 -22 -49 -123q-51 -109 -114 -185h-99v27z" />
<glyph unicode="&#x147;" d="M135 0v1462h213l578 -1204h6q-14 285 -14 404v800h174v-1462h-215l-580 1210h-8q18 -276 18 -417v-793h-172zM281 1880v27h120q82 -55 211 -187q123 129 211 187h121v-27l-59 -67q-143 -160 -176 -234h-193q-33 74 -176 234z" />
<glyph unicode="&#x148;" d="M160 0v1098h147l27 -148h10q104 168 336 168q389 0 389 -401v-717h-182v707q0 260 -238 260q-307 0 -307 -398v-569h-182zM295 1542v27h120q82 -55 211 -187q123 129 211 187h121v-27l-59 -67q-143 -160 -176 -234h-193q-33 74 -176 234z" />
<glyph unicode="&#x149;" d="M-16 961q59 231 100 501h199l14 -22q-47 -190 -176 -479h-137zM262 0v1098h148l26 -148h10q43 77 129 123q84 45 189 45q367 0 366 -401v-717h-182v707q0 260 -219 260q-285 0 -285 -398v-569h-182z" />
<glyph unicode="&#x14a;" d="M135 0v1462h213l578 -1128h10q-18 272 -18 403v725h174v-1442q0 -201 -101 -303q-102 -106 -286 -106q-94 0 -156 24v160q74 -20 158 -20q211 0 211 225l-621 1210h-8q18 -276 18 -417v-793h-172z" />
<glyph unicode="&#x14b;" d="M160 0v1098h147l27 -148h10q104 168 336 168q389 0 389 -401v-875q0 -334 -291 -334q-82 0 -133 25v148q53 -20 115 -21q127 0 127 170v877q0 260 -238 260q-307 0 -307 -398v-569h-182z" />
<glyph unicode="&#x14c;" d="M84 735q0 750 534 750q258 0 392 -195q137 -199 137 -557q0 -362 -137 -557q-138 -197 -394 -196q-532 -1 -532 755zM281 733q0 -590 335 -590q174 0 254 145.5t80 444.5q0 305 -82 445q-84 143 -250 143q-337 0 -337 -588zM330 1579v150h575v-150h-575z" />
<glyph unicode="&#x14d;" d="M115 551q0 264 135 415.5t366 151.5q217 0 356.5 -155.5t139.5 -411.5q0 -266 -137 -418q-139 -154 -365 -153q-219 0 -356 155q-139 158 -139 416zM303 551q0 -420 311 -420q309 0 310 420q0 416 -312 416q-309 0 -309 -416zM326 1241v150h575v-150h-575z" />
<glyph unicode="&#x14e;" d="M84 735q0 750 534 750q258 0 392 -195q137 -199 137 -557q0 -362 -137 -557q-138 -197 -394 -196q-532 -1 -532 755zM281 733q0 -590 335 -590q174 0 254 145.5t80 444.5q0 305 -82 445q-84 143 -250 143q-337 0 -337 -588zM313 1856h109q6 -76 47 -101q39 -25 143 -24 q182 0 191 125h112q-10 -127 -90 -201q-82 -76 -215 -76q-279 1 -297 277z" />
<glyph unicode="&#x14f;" d="M115 551q0 264 135 415.5t366 151.5q217 0 356.5 -155.5t139.5 -411.5q0 -266 -137 -418q-139 -154 -365 -153q-219 0 -356 155q-139 158 -139 416zM303 551q0 -420 311 -420q309 0 310 420q0 416 -312 416q-309 0 -309 -416zM313 1518h109q6 -76 47 -101q39 -25 143 -24 q182 0 191 125h112q-10 -127 -90 -201q-82 -76 -215 -76q-279 1 -297 277z" />
<glyph unicode="&#x150;" d="M84 735q0 750 534 750q258 0 392 -195q137 -199 137 -557q0 -362 -137 -557q-138 -197 -394 -196q-532 -1 -532 755zM281 733q0 -590 335 -590q174 0 254 145.5t80 444.5q0 305 -82 445q-84 143 -250 143q-337 0 -337 -588zM326 1579v27q92 127 174 301h198v-21 q-109 -168 -272 -307h-100zM688 1579v27q92 125 174 301h199v-21q-109 -168 -272 -307h-101z" />
<glyph unicode="&#x151;" d="M115 551q0 264 135 415.5t366 151.5q217 0 356.5 -155.5t139.5 -411.5q0 -266 -137 -418q-139 -154 -365 -153q-219 0 -356 155q-139 158 -139 416zM303 551q0 -420 311 -420q309 0 310 420q0 416 -312 416q-309 0 -309 -416zM328 1241v27q92 127 174 301h198v-21 q-109 -168 -272 -307h-100zM690 1241v27q92 125 174 301h199v-21q-109 -168 -272 -307h-101z" />
<glyph unicode="&#x152;" d="M20 735q0 750 512 750q80 0 154 -23h541v-164h-398v-452h359v-162h-359v-520h398v-164h-574l-49 -10q-57 -10 -96 -10q-488 -1 -488 755zM209 733q0 -590 309 -590q70 0 133 33v1112q-57 33 -131 33q-311 0 -311 -588z" />
<glyph unicode="&#x153;" d="M57 551q0 268 88 417.5t242 149.5q172 0 260 -217q82 217 242 217q131 0 209 -133q76 -131 76 -358v-113h-439q2 -375 189 -375q111 0 204 76v-162q-96 -74 -217 -73q-88 0 -159 59q-70 57 -101 162q-90 -221 -266 -221q-145 0 -238 153q-90 150 -90 418zM227 551 q0 -213 39 -315q41 -104 131 -105q168 0 168 410q0 426 -170 426q-90 0 -129 -102.5t-39 -313.5zM737 662h260q0 305 -123 305q-125 0 -137 -305z" />
<glyph unicode="&#x154;" d="M186 0v1462h357q520 0 520 -415q0 -287 -289 -392l397 -655h-219l-350 604h-229v-604h-187zM373 762h164q170 0 251.5 65.5t81.5 210.5q0 141 -79.5 203t-258.5 62h-159v-541zM447 1579v27q92 127 174 301h219v-21q-109 -168 -272 -307h-121z" />
<glyph unicode="&#x155;" d="M264 0v1098h148l22 -201h8q76 117 162 170q84 51 215 51q119 0 240 -45l-49 -166q-121 45 -224 45q-163 0 -251 -92q-88 -90 -89 -268v-592h-182zM510 1241v27q92 127 174 301h219v-21q-109 -168 -272 -307h-121z" />
<glyph unicode="&#x156;" d="M186 0v1462h357q520 0 520 -415q0 -287 -289 -392l397 -655h-219l-350 604h-229v-604h-187zM373 762h164q170 0 251.5 65.5t81.5 210.5q0 141 -79.5 203t-258.5 62h-159v-541zM481 -426q63 145 84 301h178v-20q0 -22 -49 -123q-51 -109 -114 -185h-99v27z" />
<glyph unicode="&#x157;" d="M264 0v1098h148l22 -201h8q76 117 162 170q84 51 215 51q119 0 240 -45l-49 -166q-121 45 -224 45q-163 0 -251 -92q-88 -90 -89 -268v-592h-182zM186 -426q63 145 84 301h178v-20q0 -22 -49 -123q-51 -109 -114 -185h-99v27z" />
<glyph unicode="&#x158;" d="M186 0v1462h357q520 0 520 -415q0 -287 -289 -392l397 -655h-219l-350 604h-229v-604h-187zM373 762h164q170 0 251.5 65.5t81.5 210.5q0 141 -79.5 203t-258.5 62h-159v-541zM252 1880v27h120q82 -55 211 -187q123 129 211 187h121v-27l-59 -67q-143 -160 -176 -234 h-193q-33 74 -176 234z" />
<glyph unicode="&#x159;" d="M264 0v1098h148l22 -201h8q76 117 162 170q84 51 215 51q119 0 240 -45l-49 -166q-121 45 -224 45q-163 0 -251 -92q-88 -90 -89 -268v-592h-182zM295 1542v27h120q82 -55 211 -187q123 129 211 187h121v-27l-59 -67q-143 -160 -176 -234h-193q-33 74 -176 234z" />
<glyph unicode="&#x15a;" d="M141 49v178q211 -86 414 -86q350 0 350 240q0 104 -71 160q-74 57 -285 133q-211 74 -299 174q-90 102 -90 264q0 174 129 272.5t352 98.5q225 0 416 -78l-64 -164q-197 78 -360 78q-293 0 -293 -209q0 -102 66 -164q66 -63 270 -133q244 -88 327.5 -182t83.5 -240 q0 -190 -139 -301q-138 -111 -393 -110q-258 -1 -414 69zM514 1579v27q92 127 174 301h219v-21q-109 -168 -272 -307h-121z" />
<glyph unicode="&#x15b;" d="M203 49v166q195 -86 370 -86q274 0 275 162q0 55 -49 98t-226 107q-233 86 -294 159q-59 72 -60 172q0 135 111 213q113 78 309.5 78t368.5 -74l-60 -149q-184 72 -319 72q-236 0 -236 -133q0 -57 51.5 -96.5t231.5 -102.5q207 -76 280 -152q70 -72 70 -182 q0 -150 -116.5 -235.5t-331.5 -85.5q-246 -1 -375 69zM512 1241v27q92 127 174 301h219v-21q-109 -168 -272 -307h-121z" />
<glyph unicode="&#x15c;" d="M141 49v178q211 -86 414 -86q350 0 350 240q0 104 -71 160q-74 57 -285 133q-211 74 -299 174q-90 102 -90 264q0 174 129 272.5t352 98.5q225 0 416 -78l-64 -164q-197 78 -360 78q-293 0 -293 -209q0 -102 66 -164q66 -63 270 -133q244 -88 327.5 -182t83.5 -240 q0 -190 -139 -301q-138 -111 -393 -110q-258 -1 -414 69zM303 1579v27l59 67q141 156 176 234h193q35 -78 176 -234l59 -67v-27h-121q-78 49 -211 186q-133 -137 -211 -186h-120z" />
<glyph unicode="&#x15d;" d="M203 49v166q195 -86 370 -86q274 0 275 162q0 55 -49 98t-226 107q-233 86 -294 159q-59 72 -60 172q0 135 111 213q113 78 309.5 78t368.5 -74l-60 -149q-184 72 -319 72q-236 0 -236 -133q0 -57 51.5 -96.5t231.5 -102.5q207 -76 280 -152q70 -72 70 -182 q0 -150 -116.5 -235.5t-331.5 -85.5q-246 -1 -375 69zM306 1241v27l59 67q141 156 176 234h193q35 -78 176 -234l59 -67v-27h-121q-78 49 -211 186q-133 -137 -211 -186h-120z" />
<glyph unicode="&#x15e;" d="M141 49v178q211 -86 414 -86q350 0 350 240q0 104 -71 160q-74 57 -285 133q-211 74 -299 174q-90 102 -90 264q0 174 129 272.5t352 98.5q225 0 416 -78l-64 -164q-197 78 -360 78q-293 0 -293 -209q0 -102 66 -164q66 -63 270 -133q244 -88 327.5 -182t83.5 -240 q0 -190 -139 -301q-138 -111 -393 -110q-258 -1 -414 69zM405 -375q34 -6 80 -6q152 0 151 92q0 72 -172 113l91 176h120l-57 -115q160 -37 160 -172q0 -205 -291 -205q-39 0 -82 9v108z" />
<glyph unicode="&#x15f;" d="M203 49v166q195 -86 370 -86q274 0 275 162q0 55 -49 98t-226 107q-233 86 -294 159q-59 72 -60 172q0 135 111 213q113 78 309.5 78t368.5 -74l-60 -149q-184 72 -319 72q-236 0 -236 -133q0 -57 51.5 -96.5t231.5 -102.5q207 -76 280 -152q70 -72 70 -182 q0 -150 -116.5 -235.5t-331.5 -85.5q-246 -1 -375 69zM420 -375q34 -6 80 -6q152 0 151 92q0 72 -172 113l91 176h120l-57 -115q160 -37 160 -172q0 -205 -291 -205q-39 0 -82 9v108z" />
<glyph unicode="&#x160;" d="M141 49v178q211 -86 414 -86q350 0 350 240q0 104 -71 160q-74 57 -285 133q-211 74 -299 174q-90 102 -90 264q0 174 129 272.5t352 98.5q225 0 416 -78l-64 -164q-197 78 -360 78q-293 0 -293 -209q0 -102 66 -164q66 -63 270 -133q244 -88 327.5 -182t83.5 -240 q0 -190 -139 -301q-138 -111 -393 -110q-258 -1 -414 69zM314 1880v27h120q82 -55 211 -187q123 129 211 187h121v-27l-59 -67q-143 -160 -176 -234h-193q-33 74 -176 234z" />
<glyph unicode="&#x161;" d="M203 49v166q195 -86 370 -86q274 0 275 162q0 55 -49 98t-226 107q-233 86 -294 159q-59 72 -60 172q0 135 111 213q113 78 309.5 78t368.5 -74l-60 -149q-184 72 -319 72q-236 0 -236 -133q0 -57 51.5 -96.5t231.5 -102.5q207 -76 280 -152q70 -72 70 -182 q0 -150 -116.5 -235.5t-331.5 -85.5q-246 -1 -375 69zM293 1542v27h120q82 -55 211 -187q123 129 211 187h121v-27l-59 -67q-143 -160 -176 -234h-193q-33 74 -176 234z" />
<glyph unicode="&#x162;" d="M102 1298v164h1022v-164h-417v-1298h-187v1298h-418zM448 -426q63 145 84 301h178v-20q0 -22 -49 -123q-51 -109 -114 -185h-99v27z" />
<glyph unicode="&#x163;" d="M139 961v94l267 49l77 287h105v-293h438v-137h-438v-637q0 -195 192 -195q98 0 240 21v-138q-137 -33 -252 -32q-362 0 -362 344v637h-267zM489 -426q63 145 84 301h178v-20q0 -22 -49 -123q-51 -109 -114 -185h-99v27z" />
<glyph unicode="&#x164;" d="M102 1298v164h1022v-164h-417v-1298h-187v1298h-418zM283 1880v27h120q82 -55 211 -187q123 129 211 187h121v-27l-59 -67q-143 -160 -176 -234h-193q-33 74 -176 234z" />
<glyph unicode="&#x165;" d="M139 961v94l267 49l77 287h105v-293h438v-137h-438v-637q0 -195 192 -195q98 0 240 21v-138q-137 -33 -252 -32q-362 0 -362 344v637h-267zM799 1229v26l26 107q27 127 35 194h180v-20q0 -14 -43 -113q-49 -111 -102 -194h-96z" />
<glyph unicode="&#x166;" d="M102 1298v164h1022v-164h-417v-479h294v-149h-294v-670h-187v670h-297v149h297v479h-418z" />
<glyph unicode="&#x167;" d="M139 961v94l267 49l77 287h105v-293h438v-137h-438v-248h307v-138h-307v-251q0 -195 192 -195q98 0 240 21v-138q-137 -33 -252 -32q-362 0 -362 344v251h-162v138h162v248h-267z" />
<glyph unicode="&#x168;" d="M125 520v942h186v-932q0 -387 307 -387q293 0 300 389v932h186v-948q0 -260 -125 -397q-127 -139 -371 -139q-483 -1 -483 540zM260 1579q25 264 211 264q57 0 162 -55q104 -57 135 -57q82 0 106 114h105q-27 -264 -211 -264q-57 0 -158 57q-100 55 -139 56 q-82 0 -107 -115h-104z" />
<glyph unicode="&#x169;" d="M160 381v717h182v-707q0 -260 236 -260q162 0 235.5 92t73.5 305v570h182v-1098h-147l-27 147h-10q-106 -168 -334 -167q-391 0 -391 401zM256 1241q25 264 211 264q57 0 162 -55q104 -57 135 -57q82 0 106 114h105q-27 -264 -211 -264q-57 0 -158 57q-100 55 -139 56 q-82 0 -107 -115h-104z" />
<glyph unicode="&#x16a;" d="M125 520v942h186v-932q0 -387 307 -387q293 0 300 389v932h186v-948q0 -260 -125 -397q-127 -139 -371 -139q-483 -1 -483 540zM326 1579v150h575v-150h-575z" />
<glyph unicode="&#x16b;" d="M160 381v717h182v-707q0 -260 236 -260q162 0 235.5 92t73.5 305v570h182v-1098h-147l-27 147h-10q-106 -168 -334 -167q-391 0 -391 401zM328 1241v150h575v-150h-575z" />
<glyph unicode="&#x16c;" d="M125 520v942h186v-932q0 -387 307 -387q293 0 300 389v932h186v-948q0 -260 -125 -397q-127 -139 -371 -139q-483 -1 -483 540zM313 1856h109q6 -76 47 -101q39 -25 143 -24q182 0 191 125h112q-10 -127 -90 -201q-82 -76 -215 -76q-279 1 -297 277z" />
<glyph unicode="&#x16d;" d="M160 381v717h182v-707q0 -260 236 -260q162 0 235.5 92t73.5 305v570h182v-1098h-147l-27 147h-10q-106 -168 -334 -167q-391 0 -391 401zM313 1518h109q6 -76 47 -101q39 -25 143 -24q182 0 191 125h112q-10 -127 -90 -201q-82 -76 -215 -76q-279 1 -297 277z" />
<glyph unicode="&#x16e;" d="M125 520v942h186v-932q0 -387 307 -387q293 0 300 389v932h186v-948q0 -260 -125 -397q-127 -139 -371 -139q-483 -1 -483 540zM389 1794q0 100 62 158q59 57 161 57q100 0 166 -59q63 -57 64 -154q0 -100 -64 -158q-66 -59 -166 -59q-102 0 -161 57q-62 58 -62 158z M500 1794q0 -113 112 -113q53 0 82 29q31 31 31 84q0 51 -30.5 82t-82.5 31q-49 0 -80 -31q-32 -33 -32 -82z" />
<glyph unicode="&#x16f;" d="M160 381v717h182v-707q0 -260 236 -260q162 0 235.5 92t73.5 305v570h182v-1098h-147l-27 147h-10q-106 -168 -334 -167q-391 0 -391 401zM385 1456q0 100 62 158q59 57 161 57q100 0 166 -59q63 -57 64 -154q0 -100 -64 -158q-66 -59 -166 -59q-102 0 -161 57 q-62 58 -62 158zM496 1456q0 -113 112 -113q53 0 82 29q31 31 31 84q0 51 -30.5 82t-82.5 31q-49 0 -80 -31q-32 -33 -32 -82z" />
<glyph unicode="&#x170;" d="M125 520v942h186v-932q0 -387 307 -387q293 0 300 389v932h186v-948q0 -260 -125 -397q-127 -139 -371 -139q-483 -1 -483 540zM322 1579v27q92 127 174 301h198v-21q-109 -168 -272 -307h-100zM684 1579v27q92 125 174 301h199v-21q-109 -168 -272 -307h-101z" />
<glyph unicode="&#x171;" d="M160 381v717h182v-707q0 -260 236 -260q162 0 235.5 92t73.5 305v570h182v-1098h-147l-27 147h-10q-106 -168 -334 -167q-391 0 -391 401zM326 1241v27q92 127 174 301h198v-21q-109 -168 -272 -307h-100zM688 1241v27q92 125 174 301h199v-21q-109 -168 -272 -307h-101z " />
<glyph unicode="&#x172;" d="M125 520v942h186v-932q0 -387 307 -387q293 0 300 389v932h186v-948q0 -260 -125 -397q-127 -139 -371 -139q-483 -1 -483 540zM441 -252q0 144 190 252h131q-170 -127 -170 -238q0 -96 127 -96q68 0 123 15v-113q-78 -23 -156 -23q-121 0 -182 54q-63 55 -63 149z" />
<glyph unicode="&#x173;" d="M160 381v717h182v-707q0 -260 236 -260q162 0 235.5 92t73.5 305v570h182v-1098h-147l-27 147h-10q-106 -168 -334 -167q-391 0 -391 401zM723 -252q0 144 190 252h131q-170 -127 -170 -238q0 -96 127 -96q68 0 123 15v-113q-78 -23 -156 -23q-121 0 -182 54 q-63 55 -63 149z" />
<glyph unicode="&#x174;" d="M2 1462h170l88 -663q18 -145 39 -377q18 -203 18 -242q27 162 70 312l141 516h177l145 -521q57 -205 72 -307q6 92 65 619l70 663h170l-187 -1462h-190l-168 580q-43 147 -66 282q-31 -168 -65 -284l-156 -578h-190zM285 1579v27l59 67q141 156 176 234h193 q35 -78 176 -234l59 -67v-27h-121q-78 49 -211 186q-133 -137 -211 -186h-120z" />
<glyph unicode="&#x175;" d="M-4 1098h162l98 -543q39 -215 57 -393h6q33 195 68 358l133 578h193l127 -578q43 -188 67 -358h6q29 225 60 393l102 543h158l-225 -1098h-195l-131 596l-68 330h-6l-65 -334l-135 -592h-189zM281 1241v27l59 67q141 156 176 234h193q35 -78 176 -234l59 -67v-27h-121 q-78 49 -211 186q-133 -137 -211 -186h-120z" />
<glyph unicode="&#x176;" d="M33 1462h203l376 -739l381 739h201l-487 -893v-569h-187v559zM283 1579v27l59 67q141 156 176 234h193q35 -78 176 -234l59 -67v-27h-121q-78 49 -211 186q-133 -137 -211 -186h-120z" />
<glyph unicode="&#x177;" d="M82 1098h188l262 -654q82 -203 89 -290h6q20 106 90 292l239 652h189l-475 -1241q-70 -178 -156 -263q-89 -86 -246 -86q-94 0 -168 17v145q61 -12 136 -12q96 0 149 41t96 141l58 150zM285 1241v27l59 67q141 156 176 234h193q35 -78 176 -234l59 -67v-27h-121 q-78 49 -211 186q-133 -137 -211 -186h-120z" />
<glyph unicode="&#x178;" d="M33 1462h203l376 -739l381 739h201l-487 -893v-569h-187v559zM332 1732.5q0 102.5 96 102.5t96 -102.5t-96 -102.5t-96 102.5zM707 1732.5q0 102.5 96 102.5t96 -102.5t-96 -102.5t-96 102.5z" />
<glyph unicode="&#x179;" d="M102 0v145l793 1151h-772v166h981v-145l-793 -1151h813v-166h-1022zM475 1579v27q92 127 174 301h219v-21q-109 -168 -272 -307h-121z" />
<glyph unicode="&#x17a;" d="M182 0v125l660 836h-627v137h811v-146l-647 -815h665v-137h-862zM496 1241v27q92 127 174 301h219v-21q-109 -168 -272 -307h-121z" />
<glyph unicode="&#x17b;" d="M102 0v145l793 1151h-772v166h981v-145l-793 -1151h813v-166h-1022zM524 1732.5q0 114.5 106.5 114.5t106.5 -114.5t-106.5 -114.5t-106.5 114.5z" />
<glyph unicode="&#x17c;" d="M182 0v125l660 836h-627v137h811v-146l-647 -815h665v-137h-862zM524 1394.5q0 114.5 106.5 114.5t106.5 -114.5t-106.5 -114.5t-106.5 114.5z" />
<glyph unicode="&#x17d;" d="M102 0v145l793 1151h-772v166h981v-145l-793 -1151h813v-166h-1022zM283 1880v27h120q82 -55 211 -187q123 129 211 187h121v-27l-59 -67q-143 -160 -176 -234h-193q-33 74 -176 234z" />
<glyph unicode="&#x17e;" d="M182 0v125l660 836h-627v137h811v-146l-647 -815h665v-137h-862zM295 1542v27h120q82 -55 211 -187q123 129 211 187h121v-27l-59 -67q-143 -160 -176 -234h-193q-33 74 -176 234z" />
<glyph unicode="&#x17f;" d="M356 0v1200q0 188 90 279q88 88 299 88q121 0 273 -35l-41 -143q-109 29 -227.5 28.5t-163.5 -49.5q-47 -51 -47 -166v-1202h-183z" />
<glyph unicode="&#x192;" d="M215 -324q59 -18 115 -18q92 0 123 51q33 55 32 164v963h-194v75l194 68v137q0 190 76 278.5t256 88.5q96 0 197 -37l-47 -141q-82 29 -144 28q-92 0 -123 -51q-33 -55 -32 -164v-145h245v-137h-245v-961q0 -190 -76 -278.5t-256 -88.5q-55 0 -121 15v153z" />
<glyph unicode="&#x1f0;" d="M135 -303q131 -39 289 -39q119 0 182 57q66 59 66 158v1081l-420 21v123h602v-1215q0 -180 -113 -278q-111 -96 -319 -97q-160 0 -287 35v154zM275 1542v27h120q82 -55 211 -187q123 129 211 187h121v-27l-59 -67q-143 -160 -176 -234h-193q-33 74 -176 234z" />
<glyph unicode="&#x1fa;" d="M33 0l483 1468h195l485 -1468h-192l-144 453h-491l-146 -453h-190zM422 618h385l-133 424q-39 121 -62 226q-20 -88 -47 -183zM389 1581q0 100 62 158q59 57 161 57q100 0 166 -59q63 -57 64 -154q0 -100 -64 -158q-66 -59 -166 -59q-102 0 -161 57q-62 58 -62 158z M500 1581q0 -113 112 -113q53 0 82 29q31 31 31 84q0 51 -30.5 82t-82.5 31q-49 0 -80 -31q-32 -33 -32 -82zM490 1835v27q92 127 174 301h219v-21q-109 -168 -272 -307h-121z" />
<glyph unicode="&#x1fb;" d="M135 307q0 332 510 348l203 7v69q0 236 -244 236q-150 0 -328 -82l-63 137q199 96 383 96q223 0 328 -88q102 -86 102 -278v-752h-131l-37 152h-8q-74 -94 -158 -133t-209 -39q-164 0 -256 85.5t-92 241.5zM324 305q0 -178 200 -178q150 0 234 82q88 84 88 229v99 l-162 -7q-195 -8 -278 -61q-82 -51 -82 -164zM387 1456q0 100 62 158q59 57 161 57q100 0 166 -59q63 -57 64 -154q0 -100 -64 -158q-66 -59 -166 -59q-102 0 -161 57q-62 58 -62 158zM498 1456q0 -113 112 -113q53 0 82 29q31 31 31 84q0 51 -30.5 82t-82.5 31 q-49 0 -80 -31q-32 -33 -32 -82zM512 1720v27q92 127 174 301h219v-21q-109 -168 -272 -307h-121z" />
<glyph unicode="&#x1fc;" d="M0 0l338 1462h872v-164h-477v-452h438v-162h-438v-520h477v-164h-653v453h-289l-96 -453h-172zM305 618h252v680h-106zM631 1579v27q92 127 174 301h219v-21q-109 -168 -272 -307h-121z" />
<glyph unicode="&#x1fd;" d="M45 307q0 334 328 348l149 7v69q0 236 -139 236q-109 0 -211 -82l-57 137q133 96 276 96q187 0 246 -178q77 178 240 178q137 0 223 -135t86 -356v-113h-496q3 -190 68 -283q66 -92 168 -92q113 0 233 76v-162q-106 -74 -241 -73q-221 0 -316 229q-104 -229 -301 -229 q-117 0 -186 86q-70 83 -70 241zM215 305q0 -82 33 -131q31 -47 86 -47q84 0 135 82t51 229v99l-88 -7q-217 -18 -217 -225zM694 662h316q0 137 -41 223q-39 82 -111 82q-66 0 -113 -78q-45 -75 -51 -227zM531 1241v27q92 127 174 301h219v-21q-109 -168 -272 -307h-121z " />
<glyph unicode="&#x1fe;" d="M80 2l121 197q-117 184 -117 536q0 750 534 750q186 0 310 -105l92 152l137 -78l-125 -201q115 -188 115 -520q0 -362 -137 -557q-138 -197 -394 -196q-193 0 -307 94l-92 -150zM281 733q0 -205 38 -342l515 836q-80 94 -216 94q-337 0 -337 -588zM403 229 q80 -86 213 -86q174 0 254 145.5t80 444.5q0 205 -35 328zM475 1579v27q92 127 174 301h219v-21q-109 -168 -272 -307h-121z" />
<glyph unicode="&#x1ff;" d="M115 551q0 264 133 415.5t368 151.5q129 0 236 -57l76 119l131 -84l-84 -131q137 -156 137 -414q0 -272 -135 -421.5t-367 -149.5q-127 0 -233 53l-76 -119l-131 84l84 131q-139 158 -139 422zM303 551q0 -178 53 -275l406 656q-66 35 -156 35q-162 0 -231 -103 q-72 -106 -72 -313zM467 164q59 -33 154 -33q162 0 233 105q70 102 70 315q0 166 -52 266zM498 1241v27q92 127 174 301h219v-21q-109 -168 -272 -307h-121z" />
<glyph unicode="&#x218;" d="M141 49v178q211 -86 414 -86q350 0 350 240q0 104 -71 160q-74 57 -285 133q-211 74 -299 174q-90 102 -90 264q0 174 129 272.5t352 98.5q225 0 416 -78l-64 -164q-197 78 -360 78q-293 0 -293 -209q0 -102 66 -164q66 -63 270 -133q244 -88 327.5 -182t83.5 -240 q0 -190 -139 -301q-138 -111 -393 -110q-258 -1 -414 69zM483 -426q63 145 84 301h178v-20q0 -22 -49 -123q-51 -109 -114 -185h-99v27z" />
<glyph unicode="&#x219;" d="M203 49v166q195 -86 370 -86q274 0 275 162q0 55 -49 98t-226 107q-233 86 -294 159q-59 72 -60 172q0 135 111 213q113 78 309.5 78t368.5 -74l-60 -149q-184 72 -319 72q-236 0 -236 -133q0 -57 51.5 -96.5t231.5 -102.5q207 -76 280 -152q70 -72 70 -182 q0 -150 -116.5 -235.5t-331.5 -85.5q-246 -1 -375 69zM454 -426q63 145 84 301h178v-20q0 -22 -49 -123q-51 -109 -114 -185h-99v27z" />
<glyph unicode="&#x2bc;" d="M446 961q61 254 101 501h219l14 -22q-53 -207 -176 -479h-158z" />
<glyph unicode="&#x2c6;" d="M283 1241v27l59 67q141 156 176 234h193q35 -78 176 -234l59 -67v-27h-121q-78 49 -211 186q-133 -137 -211 -186h-120z" />
<glyph unicode="&#x2c7;" d="M283 1542v27h120q82 -55 211 -187q123 129 211 187h121v-27l-59 -67q-143 -160 -176 -234h-193q-33 74 -176 234z" />
<glyph unicode="&#x2c9;" d="M326 1241v150h575v-150h-575z" />
<glyph unicode="&#x2d8;" d="M313 1518h109q6 -76 47 -101q39 -25 143 -24q182 0 191 125h112q-10 -127 -90 -201q-82 -76 -215 -76q-279 1 -297 277z" />
<glyph unicode="&#x2d9;" d="M508 1394.5q0 114.5 106.5 114.5t106.5 -114.5t-106.5 -114.5t-106.5 114.5z" />
<glyph unicode="&#x2da;" d="M387 1456q0 100 62 158q59 57 161 57q100 0 166 -59q63 -57 64 -154q0 -100 -64 -158q-66 -59 -166 -59q-102 0 -161 57q-62 58 -62 158zM498 1456q0 -113 112 -113q53 0 82 29q31 31 31 84q0 51 -30.5 82t-82.5 31q-49 0 -80 -31q-32 -33 -32 -82z" />
<glyph unicode="&#x2db;" d="M414 -252q0 144 190 252h131q-170 -127 -170 -238q0 -96 127 -96q68 0 123 15v-113q-78 -23 -156 -23q-121 0 -182 54q-63 55 -63 149z" />
<glyph unicode="&#x2dc;" d="M254 1241q25 264 211 264q57 0 162 -55q104 -57 135 -57q82 0 106 114h105q-27 -264 -211 -264q-57 0 -158 57q-100 55 -139 56q-82 0 -107 -115h-104z" />
<glyph unicode="&#x2dd;" d="M246 1241v27q92 127 174 301h198v-21q-109 -168 -272 -307h-100zM608 1241v27q92 125 174 301h199v-21q-109 -168 -272 -307h-101z" />
<glyph unicode="&#x2f3;" d="M387 -340q0 47 16 90q16 41 46 68q31 29 69 43q37 14 92 14q49 0 90 -14q39 -14 72 -43t49 -66q18 -39 19 -90q0 -57 -17 -92q-18 -40 -49 -67.5t-74 -43.5q-41 -14 -90 -14q-55 0 -92 14q-39 14 -69 43q-29 27 -46 68q-16 43 -16 90zM498 -340q0 -51 28 -84 q27 -29 84 -29q53 0 82 29q31 31 31 84t-31 84q-29 29 -82 29q-51 0 -80 -29q-32 -33 -32 -84z" />
<glyph unicode="&#x384;" d="M479 1241v27l31 106q29 106 39 195h199v-21q0 -16 -50 -121q-47 -102 -110 -186h-109z" />
<glyph unicode="&#x385;" d="M299 1394.5q0 102.5 96.5 102.5t96.5 -102q0 -49 -27 -76t-70 -27q-96 0 -96 102.5zM532 1389v26q53 147 91 301h206v-20q-92 -163 -215 -307h-82zM735 1394.5q0 102.5 96.5 102.5t96.5 -102.5t-96.5 -102.5t-96.5 102.5z" />
<glyph unicode="&#x386;" d="M33 0l483 1468h195l485 -1468h-192l-144 453h-491l-146 -453h-190zM422 618h385l-133 424q-39 121 -62 226q-20 -88 -47 -183zM37 1137v27l31 106q29 106 39 195h199v-21q0 -16 -50 -121q-47 -102 -110 -186h-109z" />
<glyph unicode="&#x387;" d="M487 723q0 139 127 139t127 -139t-127 -139t-127 139z" />
<glyph unicode="&#x388;" d="M217 0v1462h842v-164h-656v-452h617v-162h-617v-520h656v-164h-842zM-115 1137v27l31 106q29 106 39 195h199v-21q0 -16 -50 -121q-47 -102 -110 -186h-109z" />
<glyph unicode="&#x389;" d="M135 0v1462h187v-616h585v616h187v-1462h-187v682h-585v-682h-187zM-156 1137v27l31 106q29 106 39 195h199v-21q0 -16 -50 -121q-47 -102 -110 -186h-109z" />
<glyph unicode="&#x38a;" d="M225 0v123l295 20v1176l-295 20v123h776v-123l-294 -20v-1176l294 -20v-123h-776zM-92 1137v27l31 106q29 106 39 195h199v-21q0 -16 -50 -121q-47 -102 -110 -186h-109z" />
<glyph unicode="&#x38c;" d="M84 735q0 750 534 750q258 0 392 -195q137 -199 137 -557q0 -362 -137 -557q-138 -197 -394 -196q-532 -1 -532 755zM281 733q0 -590 335 -590q174 0 254 145.5t80 444.5q0 305 -82 445q-84 143 -250 143q-337 0 -337 -588zM-131 1137v27l31 106q29 106 39 195h199v-21 q0 -16 -50 -121q-47 -102 -110 -186h-109z" />
<glyph unicode="&#x38e;" d="M33 1462h203l376 -739l381 739h201l-487 -893v-569h-187v559zM-238 1137v27l31 106q29 106 39 195h199v-21q0 -16 -50 -121q-47 -102 -110 -186h-109z" />
<glyph unicode="&#x38f;" d="M74 0v164h266q-254 233 -254 661q0 313 139 486q141 174 391 174q248 0 390 -174q141 -176 141 -486q0 -428 -256 -661h268v-164h-469v147q260 229 260 674q0 500 -335.5 500t-335.5 -500q0 -442 262 -674v-147h-467zM-133 1137v27l31 106q29 106 39 195h199v-21 q0 -16 -50 -121q-47 -102 -110 -186h-109z" />
<glyph unicode="&#x390;" d="M428 324v774h182v-774q0 -195 193 -195q117 0 213 21v-138q-98 -33 -225 -32q-363 0 -363 344zM242 1394.5q0 102.5 96.5 102.5t96.5 -102q0 -49 -27 -76t-70 -27q-96 0 -96 102.5zM475 1389v26q53 147 91 301h206v-20q-92 -163 -215 -307h-82zM678 1394.5 q0 102.5 96.5 102.5t96.5 -102.5t-96.5 -102.5t-96.5 102.5z" />
<glyph unicode="&#x391;" d="M33 0l483 1468h195l485 -1468h-192l-144 453h-491l-146 -453h-190zM422 618h385l-133 424q-39 121 -62 226q-20 -88 -47 -183z" />
<glyph unicode="&#x392;" d="M135 0v1462h440q272 0 398 -88q123 -86 123 -282q0 -129 -78 -213t-213 -103v-10q332 -55 332 -342q0 -199 -127 -311.5t-348 -112.5h-527zM322 158h307q311 0 311 274q0 254 -324 254h-294v-528zM322 842h284q157 0 228 55q72 55 71 182q0 121 -75.5 172.5t-243.5 51.5 h-264v-461z" />
<glyph unicode="&#x393;" d="M233 0v1462h826v-166h-639v-1296h-187z" />
<glyph unicode="&#x394;" d="M68 0v133l450 1329h187l454 -1337v-125h-1091zM268 166h686l-252 752q-51 150 -92 339q-53 -231 -88 -333z" />
<glyph unicode="&#x395;" d="M217 0v1462h842v-164h-656v-452h617v-162h-617v-520h656v-164h-842z" />
<glyph unicode="&#x396;" d="M102 0v145l793 1151h-772v166h981v-145l-793 -1151h813v-166h-1022z" />
<glyph unicode="&#x397;" d="M135 0v1462h187v-616h585v616h187v-1462h-187v682h-585v-682h-187z" />
<glyph unicode="&#x398;" d="M84 735q0 750 534 750q258 0 392 -195q137 -199 137 -557q0 -362 -137 -557q-138 -197 -394 -196q-532 -1 -532 755zM281 733q0 -590 335 -590q174 0 254 145.5t80 444.5q0 305 -82 445q-84 143 -250 143q-337 0 -337 -588zM410 664v161h411v-161h-411z" />
<glyph unicode="&#x399;" d="M225 0v123l295 20v1176l-295 20v123h776v-123l-294 -20v-1176l294 -20v-123h-776z" />
<glyph unicode="&#x39a;" d="M211 0v1462h186v-731l121 168l453 563h209l-521 -637l539 -825h-211l-450 698l-140 -114v-584h-186z" />
<glyph unicode="&#x39b;" d="M33 0l487 1462h187l489 -1462h-199l-292 922q-55 172 -93 340q-47 -207 -88 -334l-295 -928h-196z" />
<glyph unicode="&#x39c;" d="M113 0v1462h247l248 -1192h6l250 1192h252v-1462h-153v887q0 121 14 391h-8l-283 -1278h-154l-278 1280h-8q18 -268 18 -406v-874h-151z" />
<glyph unicode="&#x39d;" d="M135 0v1462h213l578 -1204h6q-14 285 -14 404v800h174v-1462h-215l-580 1210h-8q18 -276 18 -417v-793h-172z" />
<glyph unicode="&#x39e;" d="M111 0v164h1005v-164h-1005zM152 1298v164h923v-164h-923zM233 684v162h760v-162h-760z" />
<glyph unicode="&#x39f;" d="M84 735q0 750 534 750q258 0 392 -195q137 -199 137 -557q0 -362 -137 -557q-138 -197 -394 -196q-532 -1 -532 755zM281 733q0 -590 335 -590q174 0 254 145.5t80 444.5q0 305 -82 445q-84 143 -250 143q-337 0 -337 -588z" />
<glyph unicode="&#x3a0;" d="M135 0v1462h959v-1462h-187v1298h-585v-1298h-187z" />
<glyph unicode="&#x3a1;" d="M176 0v1462h404q514 0 514 -428q0 -219 -137.5 -342t-403.5 -123h-191v-569h-186zM362 727h170q195 0 283 72q86 70 86 225q0 279 -338 279h-201v-576z" />
<glyph unicode="&#x3a3;" d="M131 0v152l414 614l-402 549v147h893v-164h-680l389 -530l-409 -604h760v-164h-965z" />
<glyph unicode="&#x3a4;" d="M102 1298v164h1022v-164h-417v-1298h-187v1298h-418z" />
<glyph unicode="&#x3a5;" d="M33 1462h203l376 -739l381 739h201l-487 -893v-569h-187v559z" />
<glyph unicode="&#x3a6;" d="M27 758q0 238 122.5 391.5t335.5 153.5h47v180h166v-180h47q213 0 336 -154t123 -391q0 -233 -127 -396q-125 -158 -354 -157h-25v-225h-166v225h-24q-230 0 -356 160q-125 157 -125 393zM199 762q0 -184 86 -293q86 -106 241 -107h6v781h-32q-141 0 -221 -104.5 t-80 -276.5zM698 362h7q156 0 241 107q86 109 86 293q0 172 -80 276.5t-221 104.5h-33v-781z" />
<glyph unicode="&#x3a7;" d="M53 0l453 764l-422 698h199l331 -559l334 559h191l-422 -692l457 -770h-211l-355 635l-366 -635h-189z" />
<glyph unicode="&#x3a8;" d="M57 979v483h172v-479q0 -229 70 -305q68 -74 217 -74h16v858h166v-858h17q150 0 217 72q70 74 69 303v483h173v-479q0 -289 -115 -412q-117 -125 -344 -125h-17v-446h-166v446h-16q-231 0 -344 125q-115 127 -115 408z" />
<glyph unicode="&#x3a9;" d="M74 0v164h266q-254 233 -254 661q0 313 139 486q141 174 391 174q248 0 390 -174q141 -176 141 -486q0 -428 -256 -661h268v-164h-469v147q260 229 260 674q0 500 -335.5 500t-335.5 -500q0 -442 262 -674v-147h-467z" />
<glyph unicode="&#x3aa;" d="M225 0v123l295 20v1176l-295 20v123h776v-123l-294 -20v-1176l294 -20v-123h-776zM332 1732.5q0 102.5 96 102.5t96 -102.5t-96 -102.5t-96 102.5zM707 1732.5q0 102.5 96 102.5t96 -102.5t-96 -102.5t-96 102.5z" />
<glyph unicode="&#x3ab;" d="M33 1462h203l376 -739l381 739h201l-487 -893v-569h-187v559zM332 1732.5q0 102.5 96 102.5t96 -102.5t-96 -102.5t-96 102.5zM707 1732.5q0 102.5 96 102.5t96 -102.5t-96 -102.5t-96 102.5z" />
<glyph unicode="&#x3ac;" d="M121 547q0 270 115 422q113 150 321 149q211 0 305 -168h12q29 100 68 148h143q-51 -162 -51 -439v-419q0 -111 84 -111q25 0 60 10v-133q-57 -27 -115 -26q-158 0 -199 167h-12q-109 -168 -313 -167q-193 0 -305.5 149.5t-112.5 417.5zM309 545q0 -414 264 -414 q147 0 211 92q66 92 68 309v15q0 227 -67.5 323.5t-213.5 96.5q-262 0 -262 -422zM495 1241v27l31 106q29 106 39 195h199v-21q0 -16 -50 -121q-47 -102 -110 -186h-109z" />
<glyph unicode="&#x3ad;" d="M201 299q0 195 237 268v11q-203 66 -202 249q0 135 112.5 213t300.5 78q219 0 383 -76l-63 -147q-162 72 -316 72q-244 0 -243 -154q0 -166 276 -166h154v-153h-160q-301 0 -301 -185q0 -180 283 -180q199 0 366 86v-160q-139 -76 -377 -75q-211 0 -332 83 q-118 82 -118 236zM575 1241v27l31 106q29 106 39 195h199v-21q0 -16 -50 -121q-47 -102 -110 -186h-109z" />
<glyph unicode="&#x3ae;" d="M160 0v1098h147l27 -148h10q100 168 336 168q389 0 389 -401v-1209h-182v1199q0 260 -238 260q-307 0 -307 -398v-569h-182zM559 1241v27l31 106q29 106 39 195h199v-21q0 -16 -50 -121q-47 -102 -110 -186h-109z" />
<glyph unicode="&#x3af;" d="M428 324v774h182v-774q0 -195 193 -195q117 0 213 21v-138q-98 -33 -225 -32q-363 0 -363 344zM471 1241v27l31 106q29 106 39 195h199v-21q0 -16 -50 -121q-47 -102 -110 -186h-109z" />
<glyph unicode="&#x3b0;" d="M160 498v600h182v-590q0 -379 274 -379q150 0 217.5 116.5t67.5 362.5q0 242 -63 490h182q63 -242 63 -498q0 -317 -114.5 -468.5t-358.5 -151.5q-450 0 -450 518zM297 1394.5q0 102.5 96.5 102.5t96.5 -102q0 -49 -27 -76t-70 -27q-96 0 -96 102.5zM530 1389v26 q53 147 91 301h206v-20q-92 -163 -215 -307h-82zM733 1394.5q0 102.5 96.5 102.5t96.5 -102.5t-96.5 -102.5t-96.5 102.5z" />
<glyph unicode="&#x3b1;" d="M121 547q0 270 115 422q113 150 321 149q211 0 305 -168h12q29 100 68 148h143q-51 -162 -51 -439v-419q0 -111 84 -111q25 0 60 10v-133q-57 -27 -115 -26q-158 0 -199 167h-12q-109 -168 -313 -167q-193 0 -305.5 149.5t-112.5 417.5zM309 545q0 -414 264 -414 q147 0 211 92q66 92 68 309v15q0 227 -67.5 323.5t-213.5 96.5q-262 0 -262 -422z" />
<glyph unicode="&#x3b2;" d="M158 -492v1588q0 227 118 348q121 123 328 123q199 0 316 -105q119 -106 118 -288q0 -135 -80 -228q-76 -88 -235 -117v-6q381 -49 381 -409q0 -206 -123 -320q-125 -115 -338 -114q-188 0 -303 63v-535h-182zM340 209q135 -80 289 -80q293 0 293 299q0 147 -94.5 229 t-254.5 82h-94v152h70q141 0 223 76q80 74 80 200q0 119 -68 185q-70 66 -180 65q-264 0 -264 -330v-878z" />
<glyph unicode="&#x3b3;" d="M82 1098h192l242 -592q70 -174 107 -320h6q18 82 98 295l229 617h189l-406 -1035q-111 -281 -110 -555h-191q0 209 101 504z" />
<glyph unicode="&#x3b4;" d="M135 438q0 371 422 500q-254 143 -254 348q0 135 90 207q92 74 252 74q199 0 393 -109l-73 -145q-168 106 -328 106q-74 0 -117 -36.5t-43 -100.5q0 -66 41 -115q39 -49 215 -151q360 -205 361 -518q0 -246 -129 -381q-131 -137 -355 -137q-209 0 -344 124 q-131 123 -131 334zM328 434q0 -137 75 -219q78 -84 207 -84q295 0 295 350q0 244 -221 373q-356 -101 -356 -420z" />
<glyph unicode="&#x3b5;" d="M201 299q0 195 237 268v11q-203 66 -202 249q0 135 112.5 213t300.5 78q219 0 383 -76l-63 -147q-162 72 -316 72q-244 0 -243 -154q0 -166 276 -166h154v-153h-160q-301 0 -301 -185q0 -180 283 -180q199 0 366 86v-160q-139 -76 -377 -75q-211 0 -332 83 q-118 82 -118 236z" />
<glyph unicode="&#x3b6;" d="M162 469q0 254 162 477q160 223 536 469q-215 -12 -352 -12h-285v153h838v-141q-396 -289 -553 -485q-158 -199 -158 -453q0 -154 82 -217q83 -65 313 -104q168 -31 246 -80q76 -49 76 -162q0 -147 -121 -315h-170q121 164 121 260q0 57 -51 90q-52 34 -246 61 q-227 33 -334 146q-104 110 -104 313z" />
<glyph unicode="&#x3b7;" d="M160 0v1098h147l27 -148h10q100 168 336 168q389 0 389 -401v-1209h-182v1199q0 260 -238 260q-307 0 -307 -398v-569h-182z" />
<glyph unicode="&#x3b8;" d="M147 729q0 381 113 563.5t352 182.5q230 0 351 -191q119 -188 118 -555q0 -750 -469 -749q-229 0 -348 192q-117 190 -117 557zM332 670q6 -276 71.5 -407.5t209 -131.5t208.5 127q68 129 74 412h-563zM332 807h563q-6 258 -73.5 387t-209.5 129q-139 0 -206 -125 q-64 -121 -74 -391z" />
<glyph unicode="&#x3b9;" d="M428 324v774h182v-774q0 -195 193 -195q117 0 213 21v-138q-98 -33 -225 -32q-363 0 -363 344z" />
<glyph unicode="&#x3ba;" d="M215 0v1098h180v-291l-16 -299h4l137 166l402 424h213l-494 -510l522 -588h-213l-426 469l-129 -82v-387h-180z" />
<glyph unicode="&#x3bb;" d="M61 0l504 1083l-53 160q-33 100 -78 139q-43 37 -115 37q-55 0 -104 -12v145q57 16 127 17q141 0 213 -67.5t141 -278.5l326 -983q37 -111 102 -111q25 0 60 10v-133q-53 -27 -115 -26q-80 0 -125 40q-43 41 -72 127l-135 418q-74 238 -94 336h-6q-37 -141 -119 -321 l-268 -580h-189z" />
<glyph unicode="&#x3bc;" d="M160 -492v1590h182v-707q0 -260 238 -260q160 0 233.5 92t73.5 305v570h182v-1098h-147l-27 147h-10q-100 -168 -301 -167q-174 0 -248 88q6 -154 6 -240v-320h-182z" />
<glyph unicode="&#x3bd;" d="M61 1098h189l223 -586q106 -276 121 -358h6q156 162 235.5 368.5t79.5 575.5h183q0 -367 -100.5 -610.5t-325.5 -487.5h-187z" />
<glyph unicode="&#x3be;" d="M172 422q0 137 76 240q78 104 207 147v12q-215 59 -215 279q0 113 75 188q74 74 260 127q-174 -12 -280 -12h-62v153h764v-153h-69q-217 0 -364.5 -80t-147.5 -219q0 -114 92 -166q90 -51 287 -51h190v-137h-201q-209 0 -315 -82q-109 -84 -109 -230q0 -90 37 -143 q39 -55 109 -82q76 -31 248 -59q158 -27 237 -78q76 -49 76 -162q0 -147 -121 -315h-170q121 164 121 262q0 52 -49 86q-49 33 -238 61q-438 68 -438 414z" />
<glyph unicode="&#x3bf;" d="M115 551q0 264 135 415.5t366 151.5q217 0 356.5 -155.5t139.5 -411.5q0 -266 -137 -418q-139 -154 -365 -153q-219 0 -356 155q-139 158 -139 416zM303 551q0 -420 311 -420q309 0 310 420q0 416 -312 416q-309 0 -309 -416z" />
<glyph unicode="&#x3c0;" d="M14 944v74l138 80h1062v-154h-210v-690q0 -125 90 -125q49 0 90 21v-144q-57 -27 -137 -26q-225 0 -226 262v702h-403v-944h-182v944h-222z" />
<glyph unicode="&#x3c1;" d="M158 -492v1043q0 264 127 415.5t344 151.5q207 0 329 -153q125 -156 125 -414q0 -268 -122.5 -419.5t-339.5 -151.5q-166 0 -281 90h-6q6 -176 6 -271v-291h-182zM340 231q109 -100 283 -100q144 0 208 105q63 102 64 315q0 207 -66 313q-63 102 -208 103 q-281 0 -281 -396v-340z" />
<glyph unicode="&#x3c2;" d="M172 516q0 602 567 602q162 0 322 -59l-62 -158q-154 57 -272 57q-367 0 -367 -440q0 -186 78 -254q78 -70 269 -102q358 -63 358 -252q0 -143 -125 -311h-166q121 164 121 262q0 59 -66 90q-59 29 -229 57q-428 72 -428 508z" />
<glyph unicode="&#x3c3;" d="M129 524q0 573 555 574h490v-154h-267q178 -195 178 -440q0 -233 -129 -378.5t-352 -145.5t-348 143q-127 145 -127 401zM317 524q0 -186 76 -288q78 -104 219 -105q137 0 211 96.5t74 268.5q0 270 -154 448h-59q-200 0 -283 -98q-84 -101 -84 -322z" />
<glyph unicode="&#x3c4;" d="M106 944v74l134 80h841v-154h-475v-606q0 -215 209 -215q111 0 191 20v-135q-86 -35 -220 -35q-362 0 -362 344v627h-318z" />
<glyph unicode="&#x3c5;" d="M160 498v600h182v-590q0 -379 274 -379q150 0 217.5 116.5t67.5 362.5q0 242 -63 490h182q63 -242 63 -498q0 -317 -114.5 -468.5t-358.5 -151.5q-450 0 -450 518z" />
<glyph unicode="&#x3c6;" d="M74 547q0 311 207 559l120 -90q-98 -129 -131 -232q-35 -109 -34 -237q0 -383 288 -416v606q0 381 281 381q166 0 258 -147.5t92 -399.5q0 -264 -125 -419.5t-348 -169.5v-474h-158v474q-450 24 -450 565zM682 131q305 29 305 438q0 397 -176 398q-129 0 -129 -228v-608z " />
<glyph unicode="&#x3c7;" d="M43 -492l475 830l-180 446q-68 168 -152 168q-27 0 -63 -10v143q47 16 129 17q80 0 135 -55.5t111 -192.5l139 -348l311 592h178l-417 -776l186 -461q47 -115 86 -158q41 -45 104 -45q47 0 80 8v-139q-63 -18 -118 -19q-104 0 -170 46q-68 47 -138 221l-147 377 l-354 -644h-195z" />
<glyph unicode="&#x3c8;" d="M80 555v543h172v-529q0 -424 272 -438v1423h158v-1421q301 28 301 436q0 254 -63 529h172q63 -272 63 -523q0 -569 -473 -593v-474h-158v474q-233 10 -338 143q-106 137 -106 430z" />
<glyph unicode="&#x3c9;" d="M90 532q0 301 105 566h165q-104 -261 -104 -566q0 -401 139 -401q68 0 105 72q37 71 37 196v306h157v-306q0 -133 39 -198q41 -70 103 -70q139 0 139 401q0 303 -105 566h166q104 -258 105 -566q0 -553 -289 -552q-182 0 -231 178h-11q-49 -178 -231 -178 q-289 -1 -289 552z" />
<glyph unicode="&#x3ca;" d="M428 324v774h182v-774q0 -195 193 -195q117 0 213 21v-138q-98 -33 -225 -32q-363 0 -363 344zM258 1394.5q0 102.5 96 102.5t96 -102.5t-96 -102.5t-96 102.5zM633 1394.5q0 102.5 96 102.5t96 -102.5t-96 -102.5t-96 102.5z" />
<glyph unicode="&#x3cb;" d="M160 498v600h182v-590q0 -379 274 -379q150 0 217.5 116.5t67.5 362.5q0 242 -63 490h182q63 -242 63 -498q0 -317 -114.5 -468.5t-358.5 -151.5q-450 0 -450 518zM330 1394.5q0 102.5 96 102.5t96 -102.5t-96 -102.5t-96 102.5zM705 1394.5q0 102.5 96 102.5t96 -102.5 t-96 -102.5t-96 102.5z" />
<glyph unicode="&#x3cc;" d="M115 551q0 264 135 415.5t366 151.5q217 0 356.5 -155.5t139.5 -411.5q0 -266 -137 -418q-139 -154 -365 -153q-219 0 -356 155q-139 158 -139 416zM303 551q0 -420 311 -420q309 0 310 420q0 416 -312 416q-309 0 -309 -416zM551 1241v27l31 106q29 106 39 195h199v-21 q0 -16 -50 -121q-47 -102 -110 -186h-109z" />
<glyph unicode="&#x3cd;" d="M160 498v600h182v-590q0 -379 274 -379q150 0 217.5 116.5t67.5 362.5q0 242 -63 490h182q63 -242 63 -498q0 -317 -114.5 -468.5t-358.5 -151.5q-450 0 -450 518zM518 1241v27l31 106q29 106 39 195h199v-21q0 -16 -50 -121q-47 -102 -110 -186h-109z" />
<glyph unicode="&#x3ce;" d="M90 532q0 301 105 566h165q-104 -261 -104 -566q0 -401 139 -401q68 0 105 72q37 71 37 196v306h157v-306q0 -133 39 -198q41 -70 103 -70q139 0 139 401q0 303 -105 566h166q104 -258 105 -566q0 -553 -289 -552q-182 0 -231 178h-11q-49 -178 -231 -178 q-289 -1 -289 552zM530 1241v27l31 106q29 106 39 195h199v-21q0 -16 -50 -121q-47 -102 -110 -186h-109z" />
<glyph unicode="&#x3d1;" d="M10 825q29 14 86.5 28.5t104.5 14.5q53 0 84 -14q39 -18 57 -39q20 -25 31 -59q10 -37 10 -74q0 -49 -4 -78q-2 -25 -6 -48.5t-6 -41.5q-2 -16 -5.5 -47t-5.5 -47q-4 -33 -4 -94q0 -37 10 -78q8 -37 35 -66q23 -25 64 -41q43 -16 96 -16q163 0 246 154q82 152 82 456v53 q0 23 -4 52q-178 4 -295 39q-125 39 -197 98q-76 63 -108.5 137t-32.5 158q0 61 20 123q18 59 60 98q43 43 104 63q68 23 152 23q104 0 184 -43q82 -45 139 -119q59 -78 97 -190q37 -111 55 -250h143v-137h-137q2 -14 2 -52q0 -8 1 -28.5t1 -30.5q0 -150 -33 -297 q-29 -133 -96 -237q-63 -98 -162 -158q-96 -57 -229 -57q-109 0 -184 28q-70 27 -115 74q-41 45 -62 111q-16 55 -16 131q0 55 4 86q2 10 4 29.5t4 34.5t4 28l11 82q4 25 4 61q0 47 -15 62q-16 16 -47 16q-14 0 -51 -8q-25 -6 -43 -17zM426 1272q0 -53 23 -109 q23 -53 76 -94t139 -65q94 -27 210 -27q-10 90 -43 192q-29 90 -65 144q-41 59 -84 88q-47 31 -94 31q-76 0 -119 -43t-43 -117z" />
<glyph unicode="&#x3d2;" d="M31 1462h202l379 -731q29 86 62 160q18 41 78 164q39 80 75 147l32.5 63.5t27.5 49.5q16 31 45 71q22 31 49 50q29 20 59 28q35 10 74 11q27 0 55 -5q20 -2 39 -12v-145q-8 2 -28 6q-10 2 -29 2q-31 0 -59 -23q-35 -29 -66 -84q-6 -8 -9 -15t-10.5 -19.5t-15.5 -28.5 l-21.5 -37t-31.5 -59l-61 -119q-39 -72 -66 -133q-41 -90 -59 -135q-35 -82 -47 -127v-541h-187v559z" />
<glyph unicode="&#x3d6;" d="M18 944v74l134 80h1052v-154h-155q12 -33 41 -123q18 -61 30 -112q8 -39 17 -113q4 -39 4 -125q0 -121 -14.5 -205t-51.5 -153q-33 -63 -90 -98t-133 -35q-94 0 -150 43q-57 45 -81 135h-11q-25 -90 -82 -135q-55 -43 -149 -43q-76 0 -133.5 34.5t-89.5 98.5 q-34 65 -50 153q-16 94 -16 205q0 86 4 125q8 74 17 113q16 74 28 112q18 58 43 123h-164zM256 471q0 -98 8 -156q10 -74 25 -104q20 -43 44.5 -61.5t61.5 -18.5t64 21q23 18 43 57q18 35 26 84q8 43 9 106v203h157v-203q0 -133 39 -198q41 -70 103 -70q37 0 61.5 18.5 t44.5 61.5q14 31 25 104q8 57 8 156q0 80 -4 119q-8 74 -17 112q-12 59 -30 115l-41 127h-535q-23 -61 -43 -127q-10 -35 -29 -115q-8 -39 -16 -112q-4 -39 -4 -119z" />
<glyph unicode="&#x401;" d="M217 0v1462h842v-164h-656v-452h617v-162h-617v-520h656v-164h-842zM355 1732.5q0 102.5 96 102.5t96 -102.5t-96 -102.5t-96 102.5zM730 1732.5q0 102.5 96 102.5t96 -102.5t-96 -102.5t-96 102.5z" />
<glyph unicode="&#x402;" d="M23 1298v164h841v-164h-356v-401h264q184 0 291 -96q102 -94 102 -275v-137q0 -197 -94 -303t-266 -106q-89 0 -141 24v160q63 -20 135 -21q180 0 180 226v133q0 231 -227 231h-244v-733h-186v1298h-299z" />
<glyph unicode="&#x403;" d="M233 0v1462h826v-166h-639v-1296h-187zM508 1579v27q92 127 174 301h219v-21q-109 -168 -272 -307h-121z" />
<glyph unicode="&#x404;" d="M129 733q0 344 178 547t490 203q219 0 383 -86l-78 -156q-156 78 -305 78q-188 0 -314 -125q-123 -125 -151 -348h629v-162h-635q23 -541 471 -541q135 0 327 58v-162q-150 -59 -358 -59q-310 0 -473 196q-164 199 -164 557z" />
<glyph unicode="&#x405;" d="M141 49v178q211 -86 414 -86q350 0 350 240q0 104 -71 160q-74 57 -285 133q-211 74 -299 174q-90 102 -90 264q0 174 129 272.5t352 98.5q225 0 416 -78l-64 -164q-197 78 -360 78q-293 0 -293 -209q0 -102 66 -164q66 -63 270 -133q244 -88 327.5 -182t83.5 -240 q0 -190 -139 -301q-138 -111 -393 -110q-258 -1 -414 69z" />
<glyph unicode="&#x406;" d="M225 0v123l295 20v1176l-295 20v123h776v-123l-294 -20v-1176l294 -20v-123h-776z" />
<glyph unicode="&#x407;" d="M225 0v123l295 20v1176l-295 20v123h776v-123l-294 -20v-1176l294 -20v-123h-776zM332 1732.5q0 102.5 96 102.5t96 -102.5t-96 -102.5t-96 102.5zM707 1732.5q0 102.5 96 102.5t96 -102.5t-96 -102.5t-96 102.5z" />
<glyph unicode="&#x408;" d="M137 39v166q162 -61 309 -62q162 0 254.5 80t92.5 226v1013h186v-1011q0 -215 -141 -345q-139 -127 -377 -126q-215 0 -324 59z" />
<glyph unicode="&#x409;" d="M0 -2v145q29 -14 68 -14q33 0 61 35q27 33 39 127q10 80 33 524q23 434 24 647h498v-616h39q446 0 446 -418q0 -207 -114.5 -317.5t-329.5 -110.5h-207v1298h-182l-21 -548q-23 -580 -82 -672q-63 -98 -176 -98q-55 0 -96 18zM723 160h45q268 0 268 268q0 131 -69 195 q-66 59 -224 59h-20v-522z" />
<glyph unicode="&#x40a;" d="M66 0v1462h165v-616h318v616h166v-616h39q221 0 333.5 -106.5t112.5 -311.5q0 -207 -114.5 -317.5t-329.5 -110.5h-207v682h-318v-682h-165zM715 160h45q268 0 268 268q0 131 -70 195q-66 59 -223 59h-20v-522z" />
<glyph unicode="&#x40b;" d="M23 1298v164h841v-164h-356v-401h264q184 0 291 -96q102 -94 102 -275v-526h-186v502q0 231 -227 231h-244v-733h-186v1298h-299z" />
<glyph unicode="&#x40c;" d="M211 0v1462h186v-708l566 708h206l-565 -702l594 -760h-219l-582 741v-741h-186zM574 1579v27q92 127 174 301h219v-21q-109 -168 -272 -307h-121z" />
<glyph unicode="&#x40e;" d="M27 1462h204l383 -809q2 -4 21 -47l7 -21.5t9 -23.5h2l39 109l312 792h196l-428 -1030q-80 -190 -135 -268q-61 -86 -150 -135t-215 -49q-104 0 -178 30v185q84 -45 178 -45q111 0 170 51q59 49 115 174zM237 1897h170q10 -104 50 -144q43 -43 161 -43q193 0 211 187h174 q-20 -317 -389 -318q-195 0 -281 74t-96 244z" />
<glyph unicode="&#x40f;" d="M135 0v1462h187v-1296h585v1296h187v-1462h-394v-385h-176v385h-389z" />
<glyph unicode="&#x410;" d="M33 0l483 1468h195l485 -1468h-192l-144 453h-491l-146 -453h-190zM422 618h385l-133 424q-39 121 -62 226q-20 -88 -47 -183z" />
<glyph unicode="&#x411;" d="M135 0v1462h912v-164h-725v-452h272q541 0 541 -418q0 -207 -131.5 -317.5t-382.5 -110.5h-486zM322 160h282q338 0 338 268q0 131 -86 192.5t-283 61.5h-251v-522z" />
<glyph unicode="&#x412;" d="M135 0v1462h440q272 0 398 -88q123 -86 123 -282q0 -129 -78 -213t-213 -103v-10q332 -55 332 -342q0 -199 -127 -311.5t-348 -112.5h-527zM322 158h307q311 0 311 274q0 254 -324 254h-294v-528zM322 842h284q157 0 228 55q72 55 71 182q0 121 -75.5 172.5t-243.5 51.5 h-264v-461z" />
<glyph unicode="&#x413;" d="M233 0v1462h826v-166h-639v-1296h-187z" />
<glyph unicode="&#x414;" d="M6 166h113q133 246 217 594q86 360 98 702h592v-1296h195v-551h-177v385h-862v-385h-176v551zM311 166h529v1130h-242q-18 -281 -98 -596q-85 -339 -189 -534z" />
<glyph unicode="&#x415;" d="M217 0v1462h842v-164h-656v-452h617v-162h-617v-520h656v-164h-842z" />
<glyph unicode="&#x416;" d="M0 0l373 754l-361 708h178l349 -708v708h155v-708l342 708h178l-356 -708l371 -754h-185l-350 741v-741h-155v741l-357 -741h-182z" />
<glyph unicode="&#x417;" d="M139 59v170q186 -96 383 -96q354 0 355 283q0 264 -394 264h-190v151h176q178 0 281 74q100 74 100 199q0 102 -70 164q-72 61 -188 61q-184 0 -354 -121l-93 125q193 150 455 150q209 0 326 -99q119 -100 118 -264q0 -135 -90 -229t-252 -121v-6q176 -20 273 -115 q96 -92 96 -233q0 -203 -141.5 -319.5t-403.5 -116.5q-243 -1 -387 79z" />
<glyph unicode="&#x418;" d="M137 0v1462h174v-800q0 -106 -8 -254l-6 -150h6l578 1204h213v-1462h-172v793q0 141 18 417h-8l-580 -1210h-215z" />
<glyph unicode="&#x419;" d="M137 0v1462h174v-800q0 -106 -8 -254l-6 -150h6l578 1204h213v-1462h-172v793q0 141 18 417h-8l-580 -1210h-215zM231 1897h170q10 -104 50 -144q43 -43 161 -43q193 0 211 187h174q-20 -317 -389 -318q-195 0 -281 74t-96 244z" />
<glyph unicode="&#x41a;" d="M211 0v1462h186v-708l566 708h206l-565 -702l594 -760h-219l-582 741v-741h-186z" />
<glyph unicode="&#x41b;" d="M4 2v150q57 -25 113 -25q102 0 157 180q53 176 181 1155h639v-1462h-187v1298h-297q-117 -979 -204 -1148q-89 -172 -265 -173q-71 0 -137 25z" />
<glyph unicode="&#x41c;" d="M113 0v1462h247l248 -1192h6l250 1192h252v-1462h-153v887q0 121 14 391h-8l-283 -1278h-154l-278 1280h-8q18 -268 18 -406v-874h-151z" />
<glyph unicode="&#x41d;" d="M135 0v1462h187v-616h585v616h187v-1462h-187v682h-585v-682h-187z" />
<glyph unicode="&#x41e;" d="M84 735q0 750 534 750q258 0 392 -195q137 -199 137 -557q0 -362 -137 -557q-138 -197 -394 -196q-532 -1 -532 755zM281 733q0 -590 335 -590q174 0 254 145.5t80 444.5q0 305 -82 445q-84 143 -250 143q-337 0 -337 -588z" />
<glyph unicode="&#x41f;" d="M135 0v1462h959v-1462h-187v1298h-585v-1298h-187z" />
<glyph unicode="&#x420;" d="M176 0v1462h404q514 0 514 -428q0 -219 -137.5 -342t-403.5 -123h-191v-569h-186zM362 727h170q195 0 283 72q86 70 86 225q0 279 -338 279h-201v-576z" />
<glyph unicode="&#x421;" d="M129 733q0 344 178 547t490 203q219 0 383 -86l-78 -156q-156 78 -305 78q-215 0 -342 -158q-129 -160 -129 -430q0 -287 120 -438q119 -150 351 -150q135 0 327 58v-162q-150 -59 -358 -59q-310 0 -473 196q-164 199 -164 557z" />
<glyph unicode="&#x422;" d="M102 1298v164h1022v-164h-417v-1298h-187v1298h-418z" />
<glyph unicode="&#x423;" d="M27 1462h204l383 -809q2 -4 21 -47l7 -21.5t9 -23.5h2l39 109l312 792h196l-428 -1030q-80 -190 -135 -268q-61 -86 -150 -135t-215 -49q-104 0 -178 30v185q84 -45 178 -45q111 0 170 51q59 49 115 174z" />
<glyph unicode="&#x424;" d="M27 758q0 238 122.5 391.5t335.5 153.5h47v180h166v-180h47q213 0 336 -154t123 -391q0 -233 -127 -396q-125 -158 -354 -157h-25v-225h-166v225h-24q-230 0 -356 160q-125 157 -125 393zM199 762q0 -184 86 -293q86 -106 241 -107h6v781h-32q-141 0 -221 -104.5 t-80 -276.5zM698 362h7q156 0 241 107q86 109 86 293q0 172 -80 276.5t-221 104.5h-33v-781z" />
<glyph unicode="&#x425;" d="M53 0l453 764l-422 698h199l331 -559l334 559h191l-422 -692l457 -770h-211l-355 635l-366 -635h-189z" />
<glyph unicode="&#x426;" d="M135 0v1462h187v-1296h526v1296h186v-1296h176v-551h-176v385h-899z" />
<glyph unicode="&#x427;" d="M135 879v583h187v-559q0 -131 51 -180q55 -51 162 -51q154 0 372 80v710h187v-1462h-187v598q-229 -90 -393 -90q-379 0 -379 371z" />
<glyph unicode="&#x428;" d="M121 0v1462h166v-1296h245v1296h166v-1296h246v1296h166v-1462h-989z" />
<glyph unicode="&#x429;" d="M61 0v1462h166v-1296h246v1296h166v-1296h246v1296h166v-1296h178v-551h-176v385h-992z" />
<glyph unicode="&#x42a;" d="M27 1298v164h485v-616h68q270 0 415.5 -108.5t145.5 -309.5q0 -203 -137.5 -315.5t-397.5 -112.5h-280v1298h-299zM512 160h98q338 0 338 268q0 131 -86 192.5t-282 61.5h-68v-522z" />
<glyph unicode="&#x42b;" d="M96 0v1462h166v-616h47q541 0 541 -418q0 -207 -131 -317q-133 -111 -383 -111h-240zM262 160h78q338 0 338 268q0 131 -86 192.5t-283 61.5h-47v-522zM967 0v1462h166v-1462h-166z" />
<glyph unicode="&#x42c;" d="M176 0v1462h186v-616h191q541 0 541 -418q0 -207 -131.5 -317.5t-382.5 -110.5h-404zM362 160h201q338 0 338 268q0 131 -86 192.5t-283 61.5h-170v-522z" />
<glyph unicode="&#x42d;" d="M68 1397q160 86 383 86q305 0 477 -194.5t172 -530.5q0 -375 -170 -576q-172 -203 -488 -202q-209 0 -358 59v162q193 -57 328 -58q473 0 489 541h-629v162h625q-18 223 -137 348t-309 125q-150 0 -306 -78z" />
<glyph unicode="&#x42e;" d="M98 0v1462h166v-616h144q18 346 106 493q86 145 270 146q190 0 283 -176q92 -174 92 -576q0 -397 -92 -575t-285 -178q-190 0 -280 157q-88 156 -99 545h-139v-682h-166zM580 733q0 -346 47 -469q47 -121 155 -121t154 117q47 119 47 473q0 365 -47 473q-49 115 -154 115 q-111 0 -155 -119q-47 -123 -47 -469z" />
<glyph unicode="&#x42f;" d="M57 0l381 655q-272 98 -272 408q0 399 504 399h372v-1462h-186v604h-246l-334 -604h-219zM358 1047q0 -137 82 -211q84 -74 236 -74h180v541h-188q-310 0 -310 -256z" />
<glyph unicode="&#x430;" d="M135 307q0 332 510 348l203 7v69q0 236 -244 236q-150 0 -328 -82l-63 137q199 96 383 96q223 0 328 -88q102 -86 102 -278v-752h-131l-37 152h-8q-74 -94 -158 -133t-209 -39q-164 0 -256 85.5t-92 241.5zM324 305q0 -178 200 -178q150 0 234 82q88 84 88 229v99 l-162 -7q-195 -8 -278 -61q-82 -51 -82 -164z" />
<glyph unicode="&#x431;" d="M143 659q0 212 31 357q31 143 82 231q49 84 123 142q72 55 170 81q90 25 491 101l33 -160q-408 -70 -500 -100q-102 -35 -165 -140q-61 -104 -72 -319h12q117 170 336 170q186 0 292.5 -131t106.5 -361q0 -262 -125 -405q-127 -145 -346 -145t-344 180t-125 499zM332 655 q0 -524 293 -524q266 0 266 375q0 365 -240 364q-96 0 -184 -63q-90 -66 -135 -152z" />
<glyph unicode="&#x432;" d="M176 0v1098h510q387 0 387 -277q0 -197 -229 -239v-7q264 -34 264 -258q0 -152 -107 -233q-109 -84 -313 -84h-512zM358 150h318q254 0 254 180q0 92 -66 129q-61 35 -192 35h-314v-344zM358 647h293q135 0 191 35q57 37 57 121q0 141 -217 141h-324v-297z" />
<glyph unicode="&#x433;" d="M291 0v1098h747v-154h-565v-944h-182z" />
<glyph unicode="&#x434;" d="M33 154h86q264 393 266 944h592v-944h151v-535h-174v381h-747v-381h-174v535zM311 154h484v804h-250q-37 -481 -234 -804z" />
<glyph unicode="&#x435;" d="M133 541q0 266 135 421.5t363 155.5q212 0 338 -135q127 -137 127 -356v-113h-774q9 -375 344 -375q199 0 370 76v-160q-170 -76 -364 -75q-244 0 -391 149q-148 151 -148 412zM326 662h573q0 305 -272 305q-276 0 -301 -305z" />
<glyph unicode="&#x436;" d="M0 1098h184l351 -533v533h159v-533l350 533h185l-367 -533l365 -565h-195l-338 557v-557h-159v557l-338 -557h-195l367 565z" />
<glyph unicode="&#x437;" d="M201 1042q158 76 370 76q205 0 315.5 -73.5t110.5 -215.5q0 -184 -192 -243v-11q227 -63 227 -272q0 -152 -121 -237q-120 -86 -344 -86q-233 0 -362 69v166q180 -86 366 -86q283 0 283 180q0 184 -311 185h-150v153h113q172 0 244 39q74 39 73 127q0 154 -250 154 q-131 0 -309 -72z" />
<glyph unicode="&#x438;" d="M160 0v1098h172v-668l-13 -252l517 920h233v-1098h-172v647l10 271l-514 -918h-233z" />
<glyph unicode="&#x439;" d="M160 0v1098h172v-668l-13 -252l517 920h233v-1098h-172v647l10 271l-514 -918h-233zM268 1559h170q10 -104 50 -144q43 -43 161 -43q193 0 211 187h174q-20 -317 -389 -318q-195 0 -281 74t-96 244z" />
<glyph unicode="&#x43a;" d="M215 0v1098h180v-533l518 533h222l-527 -527l566 -571h-232l-547 557v-557h-180z" />
<glyph unicode="&#x43b;" d="M31 -2v131q22 -6 49 -6q111 0 178 237q68 237 104 738h678v-1098h-182v944h-340q-37 -487 -127 -725q-88 -233 -268 -233q-61 0 -92 12z" />
<glyph unicode="&#x43c;" d="M115 0v1098h211l215 -656q23 -72 73 -268q2 4 54 191q10 47 20 73l219 660h207v-1098h-151v897q-8 -23 -33 -127q-18 -74 -35 -123l-213 -647h-135l-213 647q-2 6 -10.5 35t-24.5 91.5l-33 123.5v-897h-151z" />
<glyph unicode="&#x43d;" d="M160 0v1098h182v-455h545v455h182v-1098h-182v489h-545v-489h-182z" />
<glyph unicode="&#x43e;" d="M115 551q0 264 135 415.5t366 151.5q217 0 356.5 -155.5t139.5 -411.5q0 -266 -137 -418q-139 -154 -365 -153q-219 0 -356 155q-139 158 -139 416zM303 551q0 -420 311 -420q309 0 310 420q0 416 -312 416q-309 0 -309 -416z" />
<glyph unicode="&#x43f;" d="M160 0v1098h909v-1098h-182v944h-545v-944h-182z" />
<glyph unicode="&#x440;" d="M158 -492v1590h147l27 -148h8q111 168 322 168q203 0 315 -149q115 -152 115 -418q0 -268 -115 -419.5t-315 -151.5q-207 0 -322 159h-12q12 -129 12 -162v-469h-182zM340 551q0 -229 70 -324q72 -96 221 -96q272 0 272 422q0 414 -274 414q-152 0 -219.5 -88t-69.5 -287 v-41z" />
<glyph unicode="&#x441;" d="M172 543q0 279 145 428q145 147 408 147q176 0 336 -59l-62 -158q-147 57 -268 57q-371 0 -371 -413q0 -406 361 -406q160 0 321 62v-160q-135 -61 -329 -61q-258 0 -400 145q-141 145 -141 418z" />
<glyph unicode="&#x442;" d="M121 944v154h985v-154h-401v-944h-183v944h-401z" />
<glyph unicode="&#x443;" d="M82 1098h188l262 -654q82 -203 89 -290h6q20 106 90 292l239 652h189l-475 -1241q-70 -178 -156 -263q-89 -86 -246 -86q-94 0 -168 17v145q61 -12 136 -12q96 0 149 41t96 141l58 150z" />
<glyph unicode="&#x444;" d="M74 551q0 524 463 563v442h157v-442q459 -49 459 -563q0 -524 -459 -567v-476h-157v476q-463 45 -463 567zM242 551q0 -385 295 -416v828q-295 -28 -295 -412zM694 135q291 33 291 416q0 377 -291 410v-826z" />
<glyph unicode="&#x445;" d="M96 0l414 563l-393 535h207l290 -410l291 410h207l-395 -535l413 -563h-206l-310 436l-311 -436h-207z" />
<glyph unicode="&#x446;" d="M152 0v1098h182v-944h504v944h182v-944h160v-535h-183v381h-845z" />
<glyph unicode="&#x447;" d="M152 676v422h182v-410q0 -174 205 -174q170 0 340 115v469h182v-1098h-182v489q-182 -127 -381 -127q-160 0 -252 87q-94 88 -94 227z" />
<glyph unicode="&#x448;" d="M125 0v1098h162v-944h248v944h161v-944h248v944h162v-1098h-981z" />
<glyph unicode="&#x449;" d="M109 0v1098h161v-944h248v944h162v-944h248v944h162v-944h118v-535h-161v381h-938z" />
<glyph unicode="&#x44a;" d="M43 944v154h543v-451h153q416 0 416 -311q0 -336 -420 -336h-332v944h-360zM586 150h137q254 0 254 172q0 90 -59.5 131t-198.5 41h-133v-344z" />
<glyph unicode="&#x44b;" d="M113 0v1098h161v-451h134q416 0 415 -311q0 -336 -420 -336h-290zM274 150h138q254 0 254 172q0 90 -59.5 131t-198.5 41h-134v-344zM952 0v1098h162v-1098h-162z" />
<glyph unicode="&#x44c;" d="M217 0v1098h182v-451h277q416 0 416 -311q0 -336 -420 -336h-455zM399 150h260q254 0 254 172q0 90 -59 131t-199 41h-256v-344z" />
<glyph unicode="&#x44d;" d="M184 1059q156 59 332 59q268 0 406 -145q139 -150 139 -430q0 -270 -143 -416q-143 -147 -408 -147q-187 0 -320 61v160q162 -61 316 -62q350 0 368 348h-538v154h536q-29 317 -364 317q-111 0 -262 -57z" />
<glyph unicode="&#x44e;" d="M123 0v1098h162v-455h151q33 475 367 475q172 0 266 -147q96 -150 96 -420q0 -571 -368 -571q-335 0 -363 509h-149v-489h-162zM602 551q0 -219 47 -319.5t151.5 -100.5t149.5 98q47 100 47 322q0 217 -47 317q-45 98 -151 99q-102 0 -150 -97q-47 -98 -47 -319z" />
<glyph unicode="&#x44f;" d="M115 0l291 461q-233 68 -234 315q0 150 102.5 236t274.5 86h485v-1098h-182v432h-285l-254 -432h-198zM346 772q0 -186 238 -186h268v358h-295q-211 0 -211 -172z" />
<glyph unicode="&#x451;" d="M133 541q0 266 135 421.5t363 155.5q212 0 338 -135q127 -137 127 -356v-113h-774q9 -375 344 -375q199 0 370 76v-160q-170 -76 -364 -75q-244 0 -391 149q-148 151 -148 412zM326 662h573q0 305 -272 305q-276 0 -301 -305zM348 1394.5q0 102.5 96 102.5t96 -102.5 t-96 -102.5t-96 102.5zM723 1394.5q0 102.5 96 102.5t96 -102.5t-96 -102.5t-96 102.5z" />
<glyph unicode="&#x452;" d="M4 1237v137h156v182h182v-182h379v-137h-379v-184l-8 -144h10q106 168 334 168q391 0 391 -401v-834q0 -334 -291 -334q-82 0 -133 25v148q53 -20 115 -21q127 0 127 170v836q0 260 -236 260q-160 0 -235 -95q-74 -92 -74 -303v-528h-182v1237h-156z" />
<glyph unicode="&#x453;" d="M291 0v1098h747v-154h-565v-944h-182zM522 1241v27q92 127 174 301h219v-21q-109 -168 -272 -307h-121z" />
<glyph unicode="&#x454;" d="M172 543q0 281 145 430q143 145 414 145q176 0 330 -59l-62 -158q-147 57 -262 57q-346 0 -377 -317h537v-154h-539q23 -348 369 -348q154 0 315 62v-160q-132 -61 -319 -61q-264 0 -408 147q-143 146 -143 416z" />
<glyph unicode="&#x455;" d="M203 49v166q195 -86 370 -86q274 0 275 162q0 55 -49 98t-226 107q-233 86 -294 159q-59 72 -60 172q0 135 111 213q113 78 309.5 78t368.5 -74l-60 -149q-184 72 -319 72q-236 0 -236 -133q0 -57 51.5 -96.5t231.5 -102.5q207 -76 280 -152q70 -72 70 -182 q0 -150 -116.5 -235.5t-331.5 -85.5q-246 -1 -375 69z" />
<glyph unicode="&#x456;" d="M197 0v123l344 20v811l-269 21v123h451v-955l352 -20v-123h-878zM526 1435.5q0 114.5 106.5 114.5t106.5 -114q0 -57 -32.5 -86t-73.5 -29q-107 0 -107 114.5z" />
<glyph unicode="&#x457;" d="M197 0v123l344 20v811l-269 21v123h451v-955l352 -20v-123h-878zM330 1394.5q0 102.5 96 102.5t96 -102.5t-96 -102.5t-96 102.5zM705 1394.5q0 102.5 96 102.5t96 -102.5t-96 -102.5t-96 102.5z" />
<glyph unicode="&#x458;" d="M135 -303q131 -39 289 -39q119 0 182 57q66 59 66 158v1081l-420 21v123h602v-1215q0 -180 -113 -278q-111 -96 -319 -97q-160 0 -287 35v154zM637 1435.5q0 114.5 106.5 114.5t106.5 -114.5t-106.5 -114.5t-106.5 114.5z" />
<glyph unicode="&#x459;" d="M0 -2v131q22 -6 49 -6q41 0 66 43q27 45 47 231q27 233 57 701h494v-451h51q416 0 416 -311q0 -336 -420 -336h-209v944h-186q-33 -463 -60 -663q-25 -188 -72 -241.5t-141 -53.5q-61 0 -92 12zM713 150h55q254 0 254 172q0 90 -59.5 131t-198.5 41h-51v-344z" />
<glyph unicode="&#x45a;" d="M106 0v1098h162v-455h299v455h162v-451h51q416 0 416 -311q0 -336 -420 -336h-209v489h-299v-489h-162zM729 150h55q254 0 254 172q0 90 -59 131t-199 41h-51v-344z" />
<glyph unicode="&#x45b;" d="M4 1237v137h156v182h184v-182h418v-137h-420v-184l-10 -144h10q106 168 346 168q190 0 287 -96q94 -94 94 -305v-676h-182v666q0 260 -236 260q-160 0 -235 -95q-74 -92 -74 -303v-528h-182v1237h-156z" />
<glyph unicode="&#x45c;" d="M215 0v1098h180v-291l-16 -299h4l137 166l402 424h213l-494 -510l522 -588h-213l-426 469l-129 -82v-387h-180zM508 1241v27q92 127 174 301h219v-21q-109 -168 -272 -307h-121z" />
<glyph unicode="&#x45e;" d="M82 1098h188l262 -654q82 -203 89 -290h6q20 106 90 292l239 652h189l-475 -1241q-70 -178 -156 -263q-89 -86 -246 -86q-94 0 -168 17v145q61 -12 136 -12q96 0 149 41t96 141l58 150zM241 1559h170q10 -104 50 -144q43 -43 161 -43q193 0 211 187h174 q-20 -317 -389 -318q-195 0 -281 74t-96 244z" />
<glyph unicode="&#x45f;" d="M160 0v1098h182v-944h545v944h182v-1098h-354v-381h-183v381h-372z" />
<glyph unicode="&#x490;" d="M233 0v1462h637v301h177v-467h-627v-1296h-187z" />
<glyph unicode="&#x491;" d="M291 0v1098h545v319h182v-456h-545v-961h-182z" />
<glyph unicode="&#x1e00;" d="M33 0l483 1468h195l485 -1468h-192l-144 453h-491l-146 -453h-190zM422 618h385l-133 424q-39 121 -62 226q-20 -88 -47 -183zM389 -340q0 47 16 90q16 41 46 68q31 29 69 43q37 14 92 14q49 0 90 -14q39 -14 72 -43t49 -66q18 -39 19 -90q0 -57 -17 -92 q-18 -40 -49 -67.5t-74 -43.5q-41 -14 -90 -14q-55 0 -92 14q-39 14 -69 43q-29 27 -46 68q-16 43 -16 90zM500 -340q0 -51 28 -84q27 -29 84 -29q53 0 82 29q31 31 31 84t-31 84q-29 29 -82 29q-51 0 -80 -29q-32 -33 -32 -84z" />
<glyph unicode="&#x1e01;" d="M135 307q0 332 510 348l203 7v69q0 236 -244 236q-150 0 -328 -82l-63 137q199 96 383 96q223 0 328 -88q102 -86 102 -278v-752h-131l-37 152h-8q-74 -94 -158 -133t-209 -39q-164 0 -256 85.5t-92 241.5zM324 305q0 -178 200 -178q150 0 234 82q88 84 88 229v99 l-162 -7q-195 -8 -278 -61q-82 -51 -82 -164zM383 -340q0 47 16 90q16 41 46 68q31 29 69 43q37 14 92 14q49 0 90 -14q39 -14 72 -43t49 -66q18 -39 19 -90q0 -57 -17 -92q-18 -40 -49 -67.5t-74 -43.5q-41 -14 -90 -14q-55 0 -92 14q-39 14 -69 43q-29 27 -46 68 q-16 43 -16 90zM494 -340q0 -51 28 -84q27 -29 84 -29q53 0 82 29q31 31 31 84t-31 84q-29 29 -82 29q-51 0 -80 -29q-32 -33 -32 -84z" />
<glyph unicode="&#x1e3e;" d="M113 0v1462h247l248 -1192h6l250 1192h252v-1462h-153v887q0 121 14 391h-8l-283 -1278h-154l-278 1280h-8q18 -268 18 -406v-874h-151zM518 1581v27q92 127 174 301h219v-21q-109 -168 -272 -307h-121z" />
<glyph unicode="&#x1e3f;" d="M92 0v1098h127l27 -148h10q68 168 201 168q164 0 213 -182h6q78 182 219 182q129 0 186 -92q57 -90 58 -309v-717h-162v707q0 147 -27 202q-27 57 -88 58q-88 0 -127 -82q-39 -80 -39 -279v-606h-161v707q0 260 -125 260q-82 0 -119 -80t-37 -318v-569h-162zM545 1241v27 q92 127 174 301h219v-21q-109 -168 -272 -307h-121z" />
<glyph unicode="&#x1e80;" d="M2 1462h170l88 -663q18 -145 39 -377q18 -203 18 -242q27 162 70 312l141 516h177l145 -521q57 -205 72 -307q6 92 65 619l70 663h170l-187 -1462h-190l-168 580q-43 147 -66 282q-31 -168 -65 -284l-156 -578h-190zM336 1886v21h219q88 -182 174 -301v-27h-121 q-163 139 -272 307z" />
<glyph unicode="&#x1e81;" d="M-4 1098h162l98 -543q39 -215 57 -393h6q33 195 68 358l133 578h193l127 -578q43 -188 67 -358h6q29 225 60 393l102 543h158l-225 -1098h-195l-131 596l-68 330h-6l-65 -334l-135 -592h-189zM303 1548v21h219q88 -182 174 -301v-27h-121q-163 139 -272 307z" />
<glyph unicode="&#x1e82;" d="M2 1462h170l88 -663q18 -145 39 -377q18 -203 18 -242q27 162 70 312l141 516h177l145 -521q57 -205 72 -307q6 92 65 619l70 663h170l-187 -1462h-190l-168 580q-43 147 -66 282q-31 -168 -65 -284l-156 -578h-190zM500 1579v27q92 127 174 301h219v-21 q-109 -168 -272 -307h-121z" />
<glyph unicode="&#x1e83;" d="M-4 1098h162l98 -543q39 -215 57 -393h6q33 195 68 358l133 578h193l127 -578q43 -188 67 -358h6q29 225 60 393l102 543h158l-225 -1098h-195l-131 596l-68 330h-6l-65 -334l-135 -592h-189zM522 1241v27q92 127 174 301h219v-21q-109 -168 -272 -307h-121z" />
<glyph unicode="&#x1e84;" d="M2 1462h170l88 -663q18 -145 39 -377q18 -203 18 -242q27 162 70 312l141 516h177l145 -521q57 -205 72 -307q6 92 65 619l70 663h170l-187 -1462h-190l-168 580q-43 147 -66 282q-31 -168 -65 -284l-156 -578h-190zM334 1732.5q0 102.5 96 102.5t96 -102.5t-96 -102.5 t-96 102.5zM709 1732.5q0 102.5 96 102.5t96 -102.5t-96 -102.5t-96 102.5z" />
<glyph unicode="&#x1e85;" d="M-4 1098h162l98 -543q39 -215 57 -393h6q33 195 68 358l133 578h193l127 -578q43 -188 67 -358h6q29 225 60 393l102 543h158l-225 -1098h-195l-131 596l-68 330h-6l-65 -334l-135 -592h-189zM330 1394.5q0 102.5 96 102.5t96 -102.5t-96 -102.5t-96 102.5zM705 1394.5 q0 102.5 96 102.5t96 -102.5t-96 -102.5t-96 102.5z" />
<glyph unicode="&#x1ef2;" d="M33 1462h203l376 -739l381 739h201l-487 -893v-569h-187v559zM303 1886v21h219q88 -182 174 -301v-27h-121q-163 139 -272 307z" />
<glyph unicode="&#x1ef3;" d="M82 1098h188l262 -654q82 -203 89 -290h6q20 106 90 292l239 652h189l-475 -1241q-70 -178 -156 -263q-89 -86 -246 -86q-94 0 -168 17v145q61 -12 136 -12q96 0 149 41t96 141l58 150zM314 1548v21h219q88 -182 174 -301v-27h-121q-163 139 -272 307z" />
<glyph unicode="&#x1f4d;" d="M229 735q0 750 534 750q258 0 392 -195q137 -199 137 -557q0 -362 -137 -557q-138 -197 -394 -196q-532 -1 -532 755zM426 733q0 -590 335 -590q174 0 254 145.5t80 444.5q0 305 -82 445q-84 143 -250 143q-337 0 -337 -588zM-311 1255q0 78 59 136q61 57 183 88v-76 q-55 -18 -88 -45q-29 -23 -29 -47q0 -18 16 -29l33 -16q18 -10 33 -21q16 -12 16 -41q0 -39 -24.5 -57.5t-71.5 -18.5q-57 0 -92 35t-35 92zM-2 1135v26l23 68l24 76l25 81q4 16 10 44t8 32h207v-20l-43 -70l-51 -80q-6 -10 -59 -80q-31 -41 -62 -77h-82z" />
<glyph unicode="&#x2000;" />
<glyph unicode="&#x2001;" />
<glyph unicode="&#x2002;" />
<glyph unicode="&#x2003;" />
<glyph unicode="&#x2004;" />
<glyph unicode="&#x2005;" />
<glyph unicode="&#x2006;" />
<glyph unicode="&#x2007;" />
<glyph unicode="&#x2008;" />
<glyph unicode="&#x2009;" />
<glyph unicode="&#x200a;" />
<glyph unicode="&#x200b;" />
<glyph unicode="&#x2010;" d="M285 465v168h659v-168h-659z" />
<glyph unicode="&#x2011;" d="M285 465v168h659v-168h-659z" />
<glyph unicode="&#x2012;" d="M285 465v168h659v-168h-659z" />
<glyph unicode="&#x2013;" d="M184 465v168h860v-168h-860z" />
<glyph unicode="&#x2014;" d="M-6 465v168h1241v-168h-1241z" />
<glyph unicode="&#x2015;" d="M-6 465v168h1241v-168h-1241z" />
<glyph unicode="&#x2017;" d="M-20 -45h1269v-139h-1269v139zM-20 -324h1269v-139h-1269v139z" />
<glyph unicode="&#x2018;" d="M446 983q57 217 177 479h157q-66 -276 -100 -501h-219z" />
<glyph unicode="&#x2019;" d="M446 961q61 254 101 501h219l14 -22q-53 -207 -176 -479h-158z" />
<glyph unicode="&#x201a;" d="M457 -264q76 309 100 502h199l14 -23q-53 -207 -176 -479h-137z" />
<glyph unicode="&#x201b;" d="M446 1440l15 22h219q41 -270 100 -501h-157q-126 278 -177 479z" />
<glyph unicode="&#x201c;" d="M233 983q57 217 177 479h157q-66 -276 -100 -501h-219zM659 983q57 217 177 479h157q-66 -276 -100 -501h-219z" />
<glyph unicode="&#x201d;" d="M233 961q61 254 101 501h219l14 -22q-53 -207 -176 -479h-158zM659 961q61 254 101 501h219l14 -22q-53 -207 -176 -479h-158z" />
<glyph unicode="&#x201e;" d="M244 -264q76 309 100 502h199l14 -23q-53 -207 -176 -479h-137zM670 -264q76 309 100 502h199l14 -23q-55 -209 -176 -479h-137z" />
<glyph unicode="&#x2020;" d="M240 989v180l311 -30l-55 417h217l-56 -417l332 30v-180l-332 31l56 -1020h-217l55 1020z" />
<glyph unicode="&#x2021;" d="M229 346v180l332 -30l-47 290l47 275l-332 -31v180l332 -30l-55 376h217l-55 -376l331 30v-180l-331 31l47 -275l-47 -290l331 30v-180l-331 31l55 -377h-217l55 377z" />
<glyph unicode="&#x2022;" d="M379 748q0 262 235.5 262t235.5 -262q0 -129 -64 -195q-65 -68 -172 -68q-113 0 -174 68t-61 195z" />
<glyph unicode="&#x2026;" d="M78 110.5q0 139.5 127 139.5t127 -139.5t-127 -139.5t-127 139.5zM487 110.5q0 139.5 127 139.5t127 -139.5t-127 -139.5t-127 139.5zM897 110.5q0 139.5 127 139.5t127 -139.5t-127 -139.5t-127 139.5z" />
<glyph unicode="&#x202f;" horiz-adv-x="430" />
<glyph unicode="&#x2030;" d="M4 655l698 289l41 -100l-698 -287zM20 1171q0 309 244 310q113 0 176 -80q63 -78 64 -230q0 -311 -244 -311q-113 0 -176.5 82t-63.5 229zM156 1171q0 -102 22.5 -153t84 -51t83.5 51q20 47 21 153q0 119 -23 158q-25 43 -82 43q-55 0 -82 -45q-24 -43 -24 -156zM195 311 q0 309 243 310q111 0 176 -80q63 -78 64 -230q0 -311 -244 -311q-115 0 -176 82q-63 86 -63 229zM330 311q0 -104 22 -155q20 -49 84 -49.5t84 49.5q20 47 21 155q0 119 -23 158q-25 43 -82 43q-55 0 -82 -45q-24 -43 -24 -156zM725 311q0 309 244 310q113 0 176 -80 q63 -78 63 -230q0 -311 -243 -311q-115 0 -177 82q-63 86 -63 229zM860 311q0 -104 23 -155q23 -49 84 -49.5t84 49.5q20 47 20 155q0 113 -22 158q-20 43 -82 43q-59 0 -84 -43q-23 -39 -23 -158z" />
<glyph unicode="&#x2032;" d="M496 1462h237l-41 -528h-155z" />
<glyph unicode="&#x2033;" d="M285 1462h237l-41 -528h-155zM707 1462h237l-41 -528h-155z" />
<glyph unicode="&#x2039;" d="M401 526v27l310 414l116 -78l-237 -348l237 -348l-116 -78z" />
<glyph unicode="&#x203a;" d="M401 193l238 348l-238 348l117 78l309 -414v-27l-309 -411z" />
<glyph unicode="&#x203c;" d="M718 110.5q0 139.5 127 139.5t127 -139.5t-127 -139.5t-127 139.5zM735 1462h223l-51 -1048h-121zM256 110.5q0 139.5 127 139.5t127 -139.5t-127 -139.5t-127 139.5zM273 1462h223l-51 -1048h-121z" />
<glyph unicode="&#x2044;" d="M170 0l729 1462h158l-729 -1462h-158z" />
<glyph unicode="&#x205f;" horiz-adv-x="538" />
<glyph unicode="&#x207f;" d="M317 797v665h125l17 -104h8q68 121 207 121q109 0 174 -66q63 -63 63 -184v-432h-147v413q0 150 -127 150q-98 0 -135 -53q-37 -52 -37 -172v-338h-148z" />
<glyph unicode="&#x20a3;" d="M129 262v137h176v1063h752v-164h-574v-516h535v-164h-535v-219h293v-137h-293v-262h-178v262h-176z" />
<glyph unicode="&#x20a4;" d="M119 0v154q201 49 200 284v21h-198v137h198v158h-198v137h198v221q0 166 109 268q106 100 289 101q193 0 346 -80l-66 -144q-143 72 -272 72q-223 0 -223 -246v-192h377v-137h-377v-158h377v-137h-377v-19q0 -199 -140 -274h748v-166h-991z" />
<glyph unicode="&#x20a7;" d="M82 0v1462h205q451 0 450 -428q0 -219 -114 -344q-113 -121 -342 -121h-41v-569h-158zM240 715h41q293 0 292 309q0 291 -268 291h-65v-600zM688 618v70l115 51l65 215h86v-211h209v-125h-209v-348q0 -154 113 -153q63 0 123 20v-125q-70 -33 -166 -32q-221 0 -221 282 v356h-115z" />
<glyph unicode="&#x20ac;" d="M96 502v137h148l-2 39l2 119h-148v137h160q41 262 180 405q141 143 359 144q193 0 335 -92l-79 -146q-123 74 -242 74q-133 0 -234 -100q-96 -96 -133 -285h432v-137h-446q0 -6 -1 -14.5t-1 -14.5v-25v-61q0 -29 2 -43h385v-137h-367q74 -358 369 -359q139 0 268 58v-162 q-125 -59 -282 -59q-444 0 -541 522h-164z" />
<glyph unicode="&#x2105;" d="M8 1126q0 168 90 258q88 88 252 89q100 0 182 -37l-32 -107q-80 33 -150 33q-199 0 -198 -234q0 -229 194 -229q104 0 176 33v-107q-74 -37 -182 -37q-156 0 -244 86t-88 252zM156 0l729 1462h157l-729 -1462h-157zM616 334q0 164 82 252q84 90 224 90q129 0 217 -94 q84 -90 84 -248q0 -160 -82 -250q-84 -92 -223 -92q-131 0 -218 92q-84 90 -84 250zM762 334q0 -233 158 -234q156 0 155 234q0 231 -155 231q-158 0 -158 -231z" />
<glyph unicode="&#x2113;" d="M227 510v121q66 16 193 59v494q0 137 69 219q68 80 201 80q109 0 172.5 -82t63.5 -219q0 -354 -340 -541v-301q0 -221 145 -221q143 0 154 213h114q-18 -352 -286 -352q-138 0 -215 92q-78 94 -78 264v231q-105 -37 -193 -57zM586 770q207 121 207 406q0 188 -103 188 q-53 0 -78 -41q-27 -43 -26 -147v-406z" />
<glyph unicode="&#x2116;" d="M25 0v1462h176l323 -1163h6q-14 285 -14 403v760h133v-1462h-174l-325 1169h-9q18 -252 19 -417v-752h-135zM705 623q0 346 253 346q115 0 182.5 -92.5t67.5 -253.5q0 -168 -65.5 -258.5t-188.5 -90.5q-115 0 -182 92.5t-67 256.5zM745 0v147h414v-147h-414zM844 623 q0 -111 24 -170q25 -57 88 -58q61 0 86 58q25 59 25 170q0 113 -24.5 168t-86.5 55q-63 0 -87.5 -55t-24.5 -168z" />
<glyph unicode="&#x2122;" d="M0 1354v108h481v-108h-178v-613h-127v613h-176zM526 741v721h187l139 -534l149 534h179v-721h-127v342q0 74 10 207h-12l-154 -549h-100l-146 549h-12l10 -180v-369h-123z" />
<glyph unicode="&#x2126;" d="M74 0v164h266q-254 233 -254 661q0 313 139 486q141 174 391 174q248 0 390 -174q141 -176 141 -486q0 -428 -256 -661h268v-164h-469v147q260 229 260 674q0 500 -335.5 500t-335.5 -500q0 -442 262 -674v-147h-467z" />
<glyph unicode="&#x212e;" d="M82 530q0 260 154 414q152 152 376 152q229 0 381 -156q150 -152 150 -405v-5h-828v-356q123 -123 297 -123q254 0 396 234l71 -41q-98 -158 -207 -217q-111 -61 -260 -62q-242 0 -385 162q-145 163 -145 403zM315 616h596v277q-119 119 -301 119q-172 0 -295 -117v-279z " />
<glyph unicode="&#x215b;" d="M19 1309l219 151h135v-788h-146v465q0 84 9 200q-43 -45 -74 -65l-70 -51zM115 0l729 1462h158l-729 -1462h-158zM647 211q0 131 139 204q-115 80 -114 193q0 90 71 145q70 55 184.5 55.5t182.5 -53.5q70 -55 70 -147q0 -117 -140 -184q166 -86 166 -207 q0 -104 -75.5 -166t-200.5 -62q-133 0 -209 60q-74 60 -74 162zM793 211q0 -117 131 -117q135 0 135 117q0 89 -135 147l-13 6q-118 -65 -118 -153zM819 606q0 -80 109 -133q106 49 106 133q0 96 -108 96q-107 0 -107 -96z" />
<glyph unicode="&#x215c;" d="M10 705v124q113 -66 203 -65q150 0 149 137q0 125 -147 125h-72v104h70q123 0 123 127q0 111 -97 111q-74 0 -161 -70l-66 86q111 92 238 93q113 0 174 -54q63 -55 63 -149q0 -139 -149 -189q176 -41 176 -186q0 -117 -74 -180q-72 -63 -215 -64q-132 1 -215 50zM154 0 l729 1462h158l-729 -1462h-158zM667 211q0 131 139 204q-115 80 -114 193q0 90 71 145q70 55 184.5 55.5t182.5 -53.5q70 -55 70 -147q0 -117 -140 -184q166 -86 166 -207q0 -104 -75.5 -166t-200.5 -62q-133 0 -209 60q-74 60 -74 162zM813 211q0 -117 131 -117 q135 0 135 117q0 89 -135 147l-13 6q-118 -65 -118 -153zM839 606q0 -80 109 -133q106 49 106 133q0 96 -108 96q-107 0 -107 -96z" />
<glyph unicode="&#x215d;" d="M25 705v129q102 -68 207 -68q162 0 162 147q0 145 -166 146q-59 0 -125 -17l-62 39l31 381h397v-110h-288l-17 -193q33 6 96 6q115 0 191 -65q74 -63 74 -174q0 -127 -74 -199q-72 -70 -221 -70q-129 1 -205 48zM154 0l729 1462h158l-729 -1462h-158zM667 211 q0 131 139 204q-115 80 -114 193q0 90 71 145q70 55 184.5 55.5t182.5 -53.5q70 -55 70 -147q0 -117 -140 -184q166 -86 166 -207q0 -104 -75.5 -166t-200.5 -62q-133 0 -209 60q-74 60 -74 162zM813 211q0 -117 131 -117q135 0 135 117q0 89 -135 147l-13 6 q-118 -65 -118 -153zM839 606q0 -80 109 -133q106 49 106 133q0 96 -108 96q-107 0 -107 -96z" />
<glyph unicode="&#x215e;" d="M27 1341v121h548v-100l-309 -690h-155l309 669h-393zM88 0l729 1462h158l-729 -1462h-158zM667 211q0 131 139 204q-115 80 -114 193q0 90 71 145q70 55 184.5 55.5t182.5 -53.5q70 -55 70 -147q0 -117 -140 -184q166 -86 166 -207q0 -104 -75.5 -166t-200.5 -62 q-133 0 -209 60q-74 60 -74 162zM813 211q0 -117 131 -117q135 0 135 117q0 89 -135 147l-13 6q-118 -65 -118 -153zM839 606q0 -80 109 -133q106 49 106 133q0 96 -108 96q-107 0 -107 -96z" />
<glyph unicode="&#x2202;" d="M121 375q0 250 137 442.5t383 192.5q184 0 283 -148l2 39q10 184 -58 303q-68 121 -219 121q-131 0 -258 -84v174q135 61 283 62q432 0 432 -543q0 -391 -168 -672q-169 -283 -455 -282q-362 0 -362 395zM309 369q0 -236 187 -236q137 0 247.5 153.5t147.5 393.5 q-20 84 -86 137t-139 53q-160 0 -258.5 -159.5t-98.5 -341.5z" />
<glyph unicode="&#x2206;" d="M74 0v113l446 1349h187l448 -1351v-111h-1081zM274 164h678l-247 758q-57 176 -93 340q-47 -207 -88 -334z" />
<glyph unicode="&#x220f;" d="M156 -492v1954h956v-1954h-186v1788h-584v-1788h-186z" />
<glyph unicode="&#x2211;" d="M74 -377l583 914l-567 811v114h1014v-164h-754l529 -759l-555 -867h845v-164h-1095v115z" />
<glyph unicode="&#x2212;" d="M152 647v150h923v-150h-923z" />
<glyph unicode="&#x221a;" d="M23 764v143h296l230 -663l512 1452h145l-594 -1710h-133l-276 778h-180z" />
<glyph unicode="&#x221e;" d="M70 723q0 133 75 225q74 90 193 90q166 0 274 -219q117 213 281 213q117 0 190.5 -86t73.5 -229q0 -133 -76 -223q-78 -92 -188 -93q-172 0 -283 220q-117 -213 -272 -213q-117 0 -192.5 88t-75.5 227zM205 721q0 -80 41 -131t106 -51q102 0 189 184q-83 184 -191 184 q-63 0 -104 -53t-41 -133zM684 717q86 -184 193 -185q66 0 104 54q41 57 41 133q0 82 -41 131q-43 51 -107 51q-104 0 -190 -184z" />
<glyph unicode="&#x222b;" d="M236 -326q61 -25 116 -24q180 0 180 233v1319q0 354 330 354q88 0 131 -18v-147q-59 27 -114 26q-172 0 -172 -233v-1321q0 -176 -89 -264q-90 -90 -249 -91q-78 0 -133 19v147z" />
<glyph unicode="&#x2248;" d="M152 379v162q98 109 247 108q102 0 248 -63q129 -55 201 -56q106 0 227 121v-162q-98 -109 -248 -108q-102 0 -247 63q-133 55 -201 56q-106 0 -227 -121zM152 788v162q98 109 247 109q100 0 248 -64q127 -55 201 -55q111 0 227 121v-162q-98 -109 -248 -108 q-102 0 -247 63q-129 55 -201 55q-112 0 -227 -121z" />
<glyph unicode="&#x2260;" d="M152 442v150h317l121 260h-438v149h507l134 283l137 -59l-105 -224h250v-149h-319l-123 -260h442v-150h-512l-129 -278l-137 57l102 221h-247z" />
<glyph unicode="&#x2264;" d="M152 0v150h923v-150h-923zM152 672v102l923 451v-160l-715 -342l715 -342v-160z" />
<glyph unicode="&#x2265;" d="M152 0v150h923v-150h-923zM152 221v160l714 342l-714 342v160l923 -451v-102z" />
<glyph unicode="&#x25ca;" d="M125 735l450 740h76l453 -738l-453 -737h-76zM309 737l305 -514l306 514l-306 512z" />
<glyph unicode="&#xe000;" horiz-adv-x="1100" d="M0 1100h1100v-1100h-1100v1100z" />
<glyph unicode="&#xfb01;" d="M49 961v75l195 68v96q0 190 75.5 278.5t255.5 88.5q96 0 197 -37l-47 -141q-82 29 -143 28q-90 0 -123 -51q-33 -53 -33 -164v-104h246v-137h-246v-961h-182v961h-195zM854 1394.5q0 114.5 106.5 114.5t106.5 -114q0 -58 -31 -86q-33 -29 -75 -29q-107 0 -107 114.5z M868 0v1098h183v-1098h-183z" />
<glyph unicode="&#xfb02;" d="M49 961v75l195 68v96q0 190 75.5 278.5t255.5 88.5q96 0 197 -37l-47 -141q-82 29 -143 28q-90 0 -123 -51q-33 -53 -33 -164v-104h246v-137h-246v-961h-182v961h-195zM868 0v1556h183v-1556h-183z" />
<glyph unicode="&#xfb03;" d="M66 971v65l100 62v82q0 109 20 176q23 76 58 112q37 39 96 60q55 18 127 18q57 0 92 -10q47 -14 78 -25q43 33 88 43q53 12 115 13q59 0 98 -11q49 -14 82 -26l-41 -131q-18 8 -64 20q-31 8 -71 8q-37 0 -66 -12q-27 -12 -45 -37q-16 -23 -26 -69q-8 -39 -9 -107v-104 h367v-1098h-164v971h-203v-971h-163v971h-205v-971h-164v971h-100zM330 1098h205v102q0 115 24 193q-29 8 -43 10q-29 4 -45 4q-39 0 -61 -10q-27 -12 -45 -37q-14 -18 -25 -70q-10 -47 -10 -108v-84z" />
<glyph unicode="&#xfb04;" d="M66 971v65l100 62v82q0 109 20 176q23 76 58 112q37 39 96 60q55 18 127 18q57 0 92 -10q47 -14 78 -25q43 33 88 43q53 12 115 13q55 0 94 -11h131v-1556h-164v1421q-20 4 -29 4q-4 0 -14 1t-14 1q-37 0 -66 -12q-27 -12 -45 -37q-16 -23 -26 -69q-8 -39 -9 -107v-104 h142v-127h-142v-971h-163v971h-205v-971h-164v971h-100zM330 1098h205v102q0 115 24 193q-29 8 -43 10q-29 4 -45 4q-39 0 -61 -10q-27 -12 -45 -37q-14 -18 -25 -70q-10 -47 -10 -108v-84z" />
<glyph unicode="&#xfeff;" />
<glyph unicode="&#xfffc;" d="M55 39v270h111v-270h-111zM55 -80h111v-194h192v-109h-303v303zM55 430v272h111v-272h-111zM55 823v271h111v-271h-111zM55 1214v304h303v-111h-192v-193h-111zM254 1083.5q0 55.5 12 98.5q12 45 39 78q23 29 64 47t94 18t92 -18q45 -20 66 -47q27 -33 38 -78 q12 -43 12.5 -98.5t-12 -98.5t-38.5 -76q-25 -31 -66 -49q-39 -18 -92 -18t-94 18q-39 18 -64 49q-27 33 -39 76t-12 98.5zM354 1083.5q0 -75.5 27 -116.5t82 -41q59 0 82 41q27 47 26.5 116.5t-26.5 116.5q-23 41 -82 41q-55 0 -82 -41t-27 -116.5zM479 -274h271v-109h-271 v109zM479 1407v111h271v-111h-271zM535 326v469h137q92 0 133 -27q43 -28 43 -92q0 -40 -19 -68q-18 -27 -53 -33v-4q12 -2 33 -10q10 -4 27 -20q12 -12 18 -31q8 -25 8 -47q0 -63 -43 -100t-119 -37h-165zM633 408h59q37 0 53 18q14 16 15 47q0 27 -15 41q-16 16 -57 16 h-55v-122zM633 610h51q37 0 51.5 12.5t14.5 39t-16.5 39t-53.5 12.5h-47v-103zM709 -111q4 -2 15 -3t17 -1q12 -2 43 -2t47 15q20 16 21 55v244h-94v77h266v-77h-72v-242q0 -80 -45 -119q-43 -37 -112 -37q-37 0 -52 2q-25 4 -34 6v82zM870 -274h195v194h109v-303h-304v109z M870 1407v111h304v-304h-109v193h-195zM1065 39v270h109v-270h-109zM1065 430v272h109v-272h-109zM1065 823v271h109v-271h-109z" />
<glyph unicode="&#xfffd;" d="M4 618l610 938l613 -938l-613 -937zM342 1014l66 -160q51 29 106 51q49 20 96 21q53 0 78 -27t25 -68q0 -25 -6.5 -47t-16.5 -36q-12 -18 -31 -37q-10 -10 -47 -43q-31 -29 -53 -54q-23 -27 -35 -53q-16 -39 -20 -55q-6 -31 -6 -66v-55h170v43q0 16 4 41q2 16 12 33 q6 10 29 33q27 27 45 40l61 62q25 23 45 59q18 29 27 66q8 33 8 82q0 125 -76 192q-78 68 -211 68q-35 0 -71 -6q-29 -4 -72 -21q-12 -4 -66 -28q-28 -12 -61 -35zM477 139.5q0 -67.5 33 -94.5q35 -29 82 -29q18 0 41 7q20 6 37 22q18 18 26 39q8 23 9 55q0 35 -9 58 q-8 20 -26 39q-14 14 -37 20t-41 6q-47 0 -82 -29q-33 -26 -33 -93.5z" />
<glyph d="M231 1559h170q10 -104 50 -144q43 -43 161 -43q193 0 211 187h174q-20 -317 -389 -318q-195 0 -281 74t-96 244z" />
<glyph d="M135 -303q131 -39 289 -39q119 0 182 57q66 59 66 158v1081l-420 21v123h602v-1215q0 -180 -113 -278q-111 -96 -319 -97q-160 0 -287 35v154z" />
<glyph d="M494 1229v26l26 107q27 127 35 194h180v-20q0 -14 -43 -113q-49 -111 -102 -194h-96z" />
<glyph d="M483 -426q63 145 84 301h178v-20q0 -22 -49 -123q-51 -109 -114 -185h-99v27z" />
<glyph d="M483 1241v21q0 20 45 118q45 100 119 189h98v-27q-61 -145 -83 -301h-179z" />
<glyph d="M313 1026q0 453 299 453q150 0 226 -117q78 -119 77 -336q0 -457 -303 -457q-141 0 -221 117q-78 115 -78 340zM461 1026q0 -326 151 -326q156 0 156 326q0 324 -156 324q-151 0 -151 -324z" />
<glyph d="M293 854v98l377 523h141v-508h84v-113h-84v-174h-143v174h-375zM438 967h230v176q0 83 6 172q-37 -70 -80 -131z" />
<glyph d="M336 705v129q102 -68 207 -68q162 0 162 147q0 145 -166 146q-59 0 -125 -17l-62 39l31 381h397v-110h-288l-17 -193q33 6 96 6q115 0 191 -65q74 -63 74 -174q0 -127 -74 -199q-72 -70 -221 -70q-129 1 -205 48z" />
<glyph d="M313 913q0 408 484 580l45 -109q-329 -111 -381 -325h10q61 92 201 92q115 0 178 -76q66 -78 65 -205q0 -133 -83.5 -217t-215.5 -84q-137 0 -219 93q-84 93 -84 251zM455 889q0 -84 47 -141.5t121 -57.5q68 0 110 45q41 43 41 133q0 172 -147 172q-74 0 -123 -42.5 t-49 -108.5z" />
<glyph d="M367 1341v121h548v-100l-309 -690h-155l309 669h-393z" />
<glyph d="M305 877q0 131 139 204q-115 80 -114 193q0 90 71 145q70 55 184.5 55.5t182.5 -53.5q70 -55 70 -147q0 -117 -140 -184q166 -86 166 -207q0 -104 -75.5 -166t-200.5 -62q-133 0 -209 60q-74 60 -74 162zM451 877q0 -117 131 -117q135 0 135 117q0 89 -135 147l-13 6 q-118 -65 -118 -153zM477 1272q0 -80 109 -133q106 49 106 133q0 96 -108 96q-107 0 -107 -96z" />
<glyph d="M313 1178q0 133 80 219q78 84 211 84q141 0 227 -103q84 -98 84 -288q0 -520 -413 -521q-66 0 -111 15v125q41 -23 101 -23q272 0 286 315h-8q-71 -98 -197 -98q-123 0 -190 74q-70 76 -70 201zM453 1180q0 -164 149 -164q72 0 121 43t49 100q0 78 -45 141 q-43 61 -121 62q-68 0 -110 -47q-43 -46 -43 -135z" />
<glyph d="M158 547q0 268 112 422q111 150 305 149q203 0 314 -168h8l27 148h147v-1121q0 -225 -119 -346q-121 -123 -336 -123q-195 0 -352 76v170q186 -96 350 -96q274 0 275 309v10q0 41 12 170h-12q-109 -168 -314 -167q-193 0 -305 149.5t-112 417.5zM346 545q0 -414 264 -414 q147 0 211 88q66 90 68 287v41q0 227 -67.5 323.5t-213.5 96.5q-262 0 -262 -422z" />
<glyph d="M-18 735q0 362 163 557q162 193 473 193q299 0 465 -199q166 -200 166 -553q0 -549 -379 -708l338 -373l-153 -109l-367 441q-41 -4 -72 -4q-309 0 -471 196q-163 199 -163 559zM178 733q0 -590 438 -590q436 0 437 590q0 588 -435 588q-440 0 -440 -588z" />
<glyph d="M348 1163l383 299h150v-1462h-176v913q0 147 8 361q-43 -47 -121 -113l-148 -121z" />
<glyph d="M346 946v193q236 111 369 323h166v-1462h-179v823l5 408q-119 -154 -361 -285z" />
<glyph d="M371 1092v127l301 34l71 209h113v-1462h-176v909q0 111 8 183h-317z" />
<glyph d="M301 1255q0 78 59 136q61 57 183 88v-76q-55 -18 -88 -45q-29 -23 -29 -47q0 -18 16 -29l33 -16q18 -10 33 -21q16 -12 16 -41q0 -39 -24.5 -57.5t-71.5 -18.5q-57 0 -92 35t-35 92zM610 1135v26l23 68l24 76l25 81q4 16 10 44t8 32h207v-20l-43 -70l-51 -80 q-6 -10 -59 -80q-31 -41 -62 -77h-82z" />
</font>
</defs>
</svg>
