<svg viewBox="0 0 16 16" height="16" width="16" xmlns="http://www.w3.org/2000/svg" xml:space="preserve" style="fill-rule:evenodd;clip-rule:evenodd;stroke-linejoin:round;stroke-miterlimit:2"><path d="M17.4 21.6a2.894 2.894 0 0 1-2.125-.875A2.894 2.894 0 0 1 14.4 18.6c0-.133.008-.254.025-.362.017-.109.042-.23.075-.363L8.55 14.25a2.16 2.16 0 0 1-.884.575A3.247 3.247 0 0 1 6.6 15a2.894 2.894 0 0 1-2.125-.875A2.894 2.894 0 0 1 3.6 12c0-.833.292-1.542.875-2.125A2.894 2.894 0 0 1 6.6 9c.367 0 .721.063 1.063.188.341.125.637.312.887.562l5.95-3.625a4.225 4.225 0 0 1-.075-.363A2.347 2.347 0 0 1 14.4 5.4c0-.833.292-1.542.875-2.125A2.894 2.894 0 0 1 17.4 2.4c.833 0 1.542.292 2.125.875S20.4 4.567 20.4 5.4s-.292 1.542-.875 2.125A2.894 2.894 0 0 1 17.4 8.4c-.371 0-.727-.058-1.066-.175a2.16 2.16 0 0 1-.884-.575L9.5 11.275c.033.133.058.254.075.362.017.109.025.23.025.363 0 .133-.008.254-.025.362-.017.109-.042.23-.075.363l5.95 3.625c.25-.283.545-.479.884-.588A3.494 3.494 0 0 1 17.4 15.6c.833 0 1.542.292 2.125.875s.875 1.292.875 2.125-.292 1.542-.875 2.125a2.894 2.894 0 0 1-2.125.875Z" style="fill:#fff;fill-rule:nonzero" transform="matrix(.72917 0 0 .72917 -.775 -.753)"/></svg>