<?xml version="1.0" encoding="UTF-8" standalone="no"?>
<svg
   xmlns:dc="http://purl.org/dc/elements/1.1/"
   xmlns:cc="http://creativecommons.org/ns#"
   xmlns:rdf="http://www.w3.org/1999/02/22-rdf-syntax-ns#"
   xmlns:svg="http://www.w3.org/2000/svg"
   xmlns="http://www.w3.org/2000/svg"
   xmlns:sodipodi="http://sodipodi.sourceforge.net/DTD/sodipodi-0.dtd"
   xmlns:inkscape="http://www.inkscape.org/namespaces/inkscape"
   height="32"
   id="Layer_1"
   version="1.1"
   viewBox="0 0 32 32"
   width="32"
   xml:space="preserve"
   inkscape:version="0.91 r13725"
   sodipodi:docname="social-googleplus.svg"><metadata
     id="metadata4721"><rdf:RDF><cc:Work
         rdf:about=""><dc:format>image/svg+xml</dc:format><dc:type
           rdf:resource="http://purl.org/dc/dcmitype/StillImage" /><dc:title></dc:title></cc:Work></rdf:RDF></metadata><defs
     id="defs4719" /><sodipodi:namedview
     pagecolor="#ffffff"
     bordercolor="#666666"
     borderopacity="1"
     objecttolerance="10"
     gridtolerance="10"
     guidetolerance="10"
     inkscape:pageopacity="0"
     inkscape:pageshadow="2"
     inkscape:window-width="640"
     inkscape:window-height="480"
     id="namedview4717"
     showgrid="false"
     inkscape:zoom="14.120039"
     inkscape:cx="16.803685"
     inkscape:cy="25.296916"
     inkscape:current-layer="Layer_1" /><style
     type="text/css"
     id="style4709"><![CDATA[
	.st0{fill-rule:evenodd;clip-rule:evenodd;}
]]></style><path
     d="m 12.260365,1.00001 c -1.044403,0 -2.164648,0.121381 -3.360551,0.364723 C 7.692812,1.648864 6.529074,2.249513 5.409199,3.171551 3.776833,4.74759 2.962354,6.502187 2.962354,8.437552 c 0,1.600734 0.575619,3.003332 1.728237,4.209224 1.099897,1.293294 2.698442,1.953874 4.796683,1.980234 0.39512,0 0.817861,-0.0267 1.265423,-0.0775 -0.07353,0.20755 -0.154327,0.43048 -0.240621,0.67688 -0.0985,0.23057 -0.147948,0.52213 -0.147948,0.8698 0,0.57798 0.128855,1.07502 0.388569,1.48762 0.221977,0.42453 0.475109,0.82365 0.759795,1.19768 -0.920096,0.0244 -2.074179,0.14101 -3.465144,0.34467 -1.405117,0.24362 -2.74619,0.73028 -4.021172,1.45781 C 2.888819,21.26184 2.103483,22.04929 1.67146,22.94303 1.222511,23.83815 1,24.65257 1,25.38066 1,26.87734 1.688069,28.1616 3.060444,29.23708 4.421998,30.38637 6.482307,30.97531 9.242318,31 c 3.296919,-0.0505 5.820381,-0.83703 7.567065,-2.36284 1.686196,-1.47532 2.530304,-3.16622 2.530304,-5.07578 -0.02608,-1.34436 -0.332749,-2.43326 -0.922377,-3.26734 -0.625976,-0.82049 -1.354352,-1.56623 -2.184547,-2.24687 l -1.336959,-1.0958 c -0.192565,-0.19229 -0.392744,-0.41698 -0.59613,-0.67308 -0.241401,-0.26887 -0.361472,-0.60732 -0.361472,-1.02047 0,-0.42231 0.118073,-0.79294 0.352259,-1.11314 0.199779,-0.30855 0.415557,-0.58393 0.651408,-0.827 0.410103,-0.35849 0.796786,-0.711889 1.160829,-1.056231 0.329081,-0.34684 0.640495,-0.724448 0.932673,-1.134274 0.599894,-0.846566 0.912101,-1.973756 0.934299,-3.383312 0,-0.768597 -0.08672,-1.441865 -0.259587,-2.018173 C 17.498927,5.148549 17.257171,4.650391 16.984971,4.226692 16.700007,3.779685 16.410431,3.400399 16.113536,3.09296 15.80471,2.79773 15.527026,2.574136 15.278412,2.420417 l 2.429503,0 L 20.140669,1 12.260365,1 Z m 12.417942,0.168542 0,4.135521 -4.133895,0 0,2.002999 4.133895,0 0,4.133894 2.00354,0 0,-4.133894 4.133895,0 0,-2.002999 -4.133895,0 0,-4.135521 -2.00354,0 z M 9.822733,2.304994 c 0.806887,0.02581 1.520753,0.264821 2.141734,0.712105 0.608218,0.474477 1.099244,1.092424 1.472443,1.849089 0.794402,1.577704 1.192261,3.145874 1.192261,4.698051 0,0.360713 -0.02983,0.802452 -0.08671,1.329371 -0.0949,0.526364 -0.308925,1.039903 -0.643279,1.540185 -0.690627,0.706445 -1.554617,1.080265 -2.592084,1.118555 -0.821594,0 -1.551253,-0.25054 -2.188883,-0.752206 C 8.478088,12.299585 7.957919,11.690036 7.553643,10.971107 6.719841,9.429474 6.303937,7.947693 6.303937,6.523431 6.277017,5.444621 6.562813,4.468801 7.159655,3.59643 7.86804,2.76124 8.754744,2.330799 9.822733,2.304994 Z m 1.66754,17.540326 c 0.08939,-4e-5 0.159034,0.003 0.209187,0.009 0.337683,0 0.633039,0.0118 0.884983,0.0385 1.468658,1.02609 2.547169,1.89084 3.238073,2.59534 0.650949,0.74279 0.977113,1.61238 0.977113,2.61322 0,1.23142 -0.476766,2.23692 -1.430714,3.01967 -0.977255,0.7944 -2.395196,1.20356 -4.252037,1.2302 C 9.046107,29.32465 7.415497,28.8642 6.222646,27.96768 4.968474,27.07062 4.343209,25.92939 4.343209,24.54481 c 0,-0.70422 0.142508,-1.30655 0.432465,-1.80628 0.249447,-0.47503 0.556709,-0.87233 0.920751,-1.19226 0.377084,-0.30688 0.746941,-0.54508 1.110429,-0.71156 0.364043,-0.15344 0.645616,-0.26945 0.846505,-0.34576 0.853226,-0.25666 1.68826,-0.44222 2.503749,-0.55765 0.620565,-0.0574 1.064984,-0.0861 1.333165,-0.0862 z"
     id="path4713"
     style="opacity:0.5;fill:#000000;fill-opacity:1"
     inkscape:connector-curvature="0" /></svg>