<svg xmlns="http://www.w3.org/2000/svg" width="32" height="32"><path d="M15.957 31c-.897 0-1.345-.448-1.345-1.345L14.715 19l-9.103 5.69c-.69.482-1.276.345-1.76-.414l-.516-.828c-.483-.69-.345-1.276.414-1.758L13.164 16l-9.517-5.69c-.69-.413-.828-1-.414-1.758l.62-1.035c.345-.55.897-.62 1.656-.207L14.714 13l-.103-10.655c0-.897.448-1.345 1.345-1.345h.827c.897 0 1.345.448 1.345 1.345L18.025 13l9.103-5.793c.62-.345 1.206-.207 1.758.414l.517.828c.345.76.207 1.345-.414 1.76L19.475 16l9.62 5.793c.69.414.828.966.414 1.655l-.517.93c-.482.76-1.102.898-1.86.415L18.025 19l.103 10.655c0 .897-.45 1.345-1.346 1.345h-.827" opacity=".5"/></svg>