<svg viewBox="0 0 32 32" height="32" width="32" xmlns="http://www.w3.org/2000/svg" xml:space="preserve" style="fill-rule:evenodd;clip-rule:evenodd;stroke-linejoin:round;stroke-miterlimit:2"><path d="M482.455 806.898a229539.027 229539.027 0 0 1-74.805-104.48c-19.986-27.936-36.246-49.739-37.102-49.75-.879-.012-32.323 42.257-74.377 99.98-40.069 55-73.187 100-73.594 100-1.14 0-144.461-100.95-144.83-102.012-.179-.515 32.221-48.077 72-105.694 39.778-57.617 72.324-105.667 72.324-106.776 0-1.79-12.89-6.315-114-40.024-62.7-20.903-114.614-38.245-115.364-38.538-1.044-.407 4.926-20.38 25.403-84.994 14.722-46.454 27.1-84.841 27.507-85.305.407-.464 54.901 16.974 121.097 38.751 66.197 21.777 120.911 39.594 121.588 39.593.677-.001 1.443-1.014 1.702-2.251.259-1.238.83-57.6 1.269-125.25.439-67.65 1.162-123.563 1.607-124.25.638-.984 19.232-1.247 87.5-1.235 47.68.008 87.188.346 87.795.75.766.51 2.074 37.701 4.264 121.235 3.596 137.162 3.674 139 5.861 139 .848 0 53.311-17.561 116.583-39.024 63.273-21.462 115.35-38.675 115.727-38.25 1.278 1.443 53.175 170.394 52.536 171.033-.349.349-53.156 18.434-117.348 40.188-88.303 29.925-116.789 39.96-117.028 41.227-.177.936 30.19 46.316 68.803 102.82 38.015 55.631 68.979 101.561 68.808 102.068-.391 1.165-142.631 105.938-143.82 105.938-.483 0-18.531-24.638-40.106-54.75Z" style="fill-opacity:.5;fill-rule:nonzero" transform="matrix(.03634 0 0 .03634 2.27 -1.767)"/></svg>