<svg xmlns="http://www.w3.org/2000/svg" height="32" width="32"><path d="M21.612 4.62c.052-.003.106 0 .16 0 1.77 0 3.368.747 4.49 1.943 1.403-.276 2.72-.79 3.91-1.496a6.167 6.167 0 0 1-2.707 3.406A12.244 12.244 0 0 0 31 7.503a12.468 12.468 0 0 1-3.07 3.186c.01.263.017.53.017.797C27.947 19.62 21.757 29 10.434 29 6.958 29 3.724 27.98 1 26.233c.482.058.972.087 1.47.087 2.883 0 5.535-.984 7.64-2.635a6.162 6.162 0 0 1-5.748-4.276 6.107 6.107 0 0 0 2.78-.105 6.157 6.157 0 0 1-4.937-6.034v-.078c.83.46 1.78.738 2.79.77a6.15 6.15 0 0 1-2.74-5.12c0-1.13.304-2.19.834-3.097a17.476 17.476 0 0 0 12.686 6.43A6.155 6.155 0 0 1 21.61 4.62z" opacity=".5"/></svg>