<svg xmlns="http://www.w3.org/2000/svg" width="16" height="16"><path d="M3.084 3A1.847 1.847 0 0 0 1.25 4.834V7h-.236c-1.353-.02-1.353 2.02 0 2h.236v2.166c0 1.003.831 1.834 1.834 1.834h4.332a1.847 1.847 0 0 0 1.834-1.834V9h.81L7.75 6.69v4.476a.318.318 0 0 1-.334.334H3.084a.318.318 0 0 1-.334-.334V4.834c0-.198.136-.334.334-.334h2.477L4.06 3h-.977zm3.098 0L9.25 6.068V4.834A1.847 1.847 0 0 0 7.416 3H6.182zm5.318.5c-.897 0-1.34 1.09-.697 1.717L12.586 7h-2.404l2 2h.404l-.203.203 1.414 1.414 1.91-1.91a1.003 1.003 0 0 0 0-1.414l-3.49-3.49A1 1 0 0 0 11.5 3.5zm-.176 6.762-.521.521c-.982.943.471 2.396 1.414 1.414l.521-.521-1.414-1.414z"/><path d="M0 1.06 1.06 0 16 14.94 14.94 16Z"/></svg>
