<svg xmlns="http://www.w3.org/2000/svg" height="16" viewBox="0 0 16 16" width="16" version="1.1"><path fill="#dc5047" d="m2.5 1c-0.28 0-0.5 0.22-0.5 0.5v13c0 0.28 0.22 0.5 0.5 0.5h11c0.28 0 0.5-0.22 0.5-0.5v-10.5l-3-3zm5.8 3.9s0.07 0.95-0.15 2.3c0.715 2.053 1.5 2.33 1.85 2.5 0.74-0.06 1.565-0.1 2.3 0.3 0.5 0.286 0.894 1.5-0.3 1.5-0.54-0.034-1.537-0.346-2.25-0.7-1.066 0.12-2.39 0.32-3.5 0.8-1.25 2.1-1.81 2.4-2.25 2.4-1.215-0.32-0.56-1.93-0.1-2.2 0.55-0.47 1.195-0.74 1.4-0.8 0.09-0.15 1.384-2.69 1.7-3.75-0.3-1.024-0.37-2.106-0.2-2.75 0.78-1.018 1.5-0.35 1.5 0.4zm-0.7 3.1c-0.27 1.057-1.348 3.084-1.3 3 1.105-0.485 2.1-0.63 3.2-0.8-0.526-0.235-1.146-0.25-1.9-2.2z"/></svg>
