<svg xmlns="http://www.w3.org/2000/svg" height="16" width="16" version="1"><path style="block-progression:tb;text-transform:none;text-indent:0" fill="#dc5047" d="M2.35 1v.002A.45.45 0 0 0 2 1.44V14.56a.45.45 0 0 0 .432.438H13.57a.452.452 0 0 0 .432-.437V4.418a.458.458 0 0 0-.055-.19l-3.312-3.2A.427.427 0 0 0 10.5 1H2.43a.432.432 0 0 0-.08 0zm5.005 2h.194a.69.69 0 0 1 .49.195c.533.533.285 1.83.02 2.903-.018.048-.027.09-.035.113.323.912.783 1.646 1.29 2.065.21.162.444.322.703.467a9.4 9.4 0 0 1 1.04-.057c1 0 1.605.178 1.838.557.08.13.12.282.096.443a.78.78 0 0 1-.224.534c-.138.152-.378.24-.733.24-.613 0-1.615-.187-2.422-.6-1.387.155-2.42.343-3.25.61-.04.015-.088.03-.144.053C5.22 12.233 4.476 13 3.823 13a.72.72 0 0 1-.355-.09l-.388-.248-.025-.04a.73.73 0 0 1-.04-.436c.087-.427.548-1.106 1.516-1.71.153-.114.394-.243.717-.396.242-.42.5-.91.775-1.45.412-.832.668-1.653.87-2.362v-.01c-.3-.976-.475-1.564-.176-2.637.07-.305.337-.62.635-.62zm.122.5c-.017.024-.04.065-.057.098-.137.338-.13.926.057 1.652l.04-.03c.057-.26.08-.486.13-.663l.023-.13c.08-.46.065-.692-.072-.886l-.12-.04zm.066 3.647a11.958 11.958 0 0 1-.816 1.933c-.162.306-.34.596-.405.838l.09-.03a15.23 15.23 0 0 1 2.695-.75c-.12-.082-.235-.17-.332-.26-.484-.41-.9-1.006-1.232-1.732zm3.36 2.216c-.055 0-.112 0-.184.08.587.258 1.16.412 1.53.412a.9.9 0 0 0 .154-.015h.034c.04-.016.064-.027.072-.108-.016-.024-.032-.055-.072-.088-.08-.08-.405-.28-1.534-.28zm-5.862 1.46c-.168.096-.305.185-.386.25-.572.523-.934 1.054-.974 1.36.363-.12.837-.65 1.36-1.61z" color="#000"/></svg>