<?xml version="1.0" encoding="UTF-8" standalone="no"?>
<svg xmlns:rdf="http://www.w3.org/1999/02/22-rdf-syntax-ns#" xmlns="http://www.w3.org/2000/svg" height="16" width="16" version="1.0" xmlns:cc="http://creativecommons.org/ns#" xmlns:dc="http://purl.org/dc/elements/1.1/">
 <path style="color:#000000;block-progression:tb;text-transform:none;text-indent:0" fill="#dc5047" d="m2.3496 1v0.002c-0.1975 0.0382-0.3531 0.2333-0.3496 0.4375v13.122c0 0.228 0.2061 0.436 0.4316 0.436h11.138c0.226 0 0.432-0.208 0.432-0.437v-10.143c-0.004-0.0669-0.023-0.1329-0.055-0.1914l-3.312-3.1993c-0.043-0.0164-0.089-0.0255-0.135-0.0273h-8.0684c-0.0268-0.0026-0.0552-0.0026-0.082 0zm5.0059 2h0.1933c0.1855 0 0.3632 0.0663 0.4922 0.1953 0.5323 0.5322 0.2837 1.8299 0.0176 2.9024-0.0161 0.0483-0.0251 0.0891-0.0332 0.1132 0.3226 0.9112 0.783 1.6452 1.291 2.0645 0.2097 0.1613 0.4431 0.3216 0.7016 0.4668 0.362-0.0403 0.71-0.0567 1.041-0.0567 1 0 1.604 0.1777 1.837 0.5567 0.081 0.129 0.12 0.2821 0.096 0.4433-0.008 0.2016-0.079 0.3885-0.224 0.5335-0.138 0.153-0.378 0.24-0.733 0.24-0.613 0-1.615-0.186-2.4217-0.5977-1.3871 0.1537-2.4194 0.3417-3.25 0.6077-0.0403 0.016-0.0881 0.03-0.1445 0.054-1 1.71-1.7414 2.477-2.3946 2.477-0.1291 0-0.2586-0.033-0.3554-0.09l-0.3868-0.248-0.0254-0.041c-0.0565-0.145-0.0732-0.282-0.041-0.435 0.0887-0.427 0.5498-1.106 1.5176-1.711 0.1532-0.113 0.3942-0.242 0.7168-0.395 0.2419-0.4191 0.5011-0.9109 0.7754-1.4511 0.4113-0.8306 0.6675-1.6517 0.8691-2.3613v-0.0098c-0.2984-0.9757-0.4741-1.5642-0.1757-2.6367 0.0726-0.3064 0.3383-0.6211 0.6367-0.6211zm0.1211 0.5c-0.0162 0.0242-0.0405 0.0654-0.0567 0.0977-0.1371 0.3386-0.1288 0.9266 0.0567 1.6523l0.041-0.0312c0.0564-0.2581 0.0805-0.4848 0.1289-0.6622l0.0234-0.1289c0.0806-0.4596 0.0649-0.6932-0.0722-0.8867l-0.1211-0.041zm0.0664 3.6465c-0.1856 0.5968-0.4535 1.2321-0.8164 1.9336-0.1613 0.3064-0.3398 0.596-0.4043 0.8379l0.0898-0.0313c1.0242-0.3951 1.9937-0.621 2.6953-0.75-0.1209-0.0806-0.2353-0.1691-0.332-0.2578-0.4839-0.4112-0.9017-1.0067-1.2324-1.7324zm3.361 2.2168c-0.056 0-0.113-0.0006-0.185 0.0801 0.588 0.258 1.16 0.4121 1.531 0.4121 0.056 0 0.106-0.0076 0.154-0.0157h0.034c0.04-0.0161 0.064-0.0267 0.072-0.1074-0.016-0.0242-0.032-0.0556-0.072-0.0879-0.081-0.0806-0.405-0.2812-1.534-0.2812zm-5.863 1.4587c-0.1693 0.097-0.3061 0.186-0.3867 0.25-0.5726 0.524-0.9343 1.055-0.9746 1.362 0.3629-0.121 0.8371-0.652 1.3613-1.612z"/>
</svg>
