<?xml version="1.0" encoding="UTF-8" standalone="no"?>
<svg xmlns:rdf="http://www.w3.org/1999/02/22-rdf-syntax-ns#" xmlns="http://www.w3.org/2000/svg" height="32" width="32" version="1.1" xmlns:cc="http://creativecommons.org/ns#" xmlns:xlink="http://www.w3.org/1999/xlink" xmlns:dc="http://purl.org/dc/elements/1.1/">
 <defs>
  <linearGradient id="p" x1="16" xlink:href="#a" gradientUnits="userSpaceOnUse" y1="9" gradientTransform="matrix(1 0 0 -1 0 34.004)" x2="16" y2="25"/>
  <linearGradient id="a">
   <stop offset="0"/>
   <stop stop-opacity="0" offset="1"/>
  </linearGradient>
  <linearGradient id="o" x1="16" xlink:href="#a" gradientUnits="userSpaceOnUse" x2="16" y1="9" y2="25"/>
  <linearGradient id="n" x1="19.927" gradientUnits="userSpaceOnUse" y1="44.949" gradientTransform="matrix(.66667 0 0 .66667 .0000011 .33333)" x2="19.927" y2="4.9969">
   <stop stop-color="#505050" offset="0"/>
   <stop stop-color="#8e8e8e" offset="1"/>
  </linearGradient>
  <linearGradient id="l" x1="24" gradientUnits="userSpaceOnUse" y1="5" gradientTransform="matrix(.62162 0 0 .62162 1.0811 2.0811)" x2="24" y2="43">
   <stop stop-color="#fff" offset="0"/>
   <stop stop-color="#fff" stop-opacity=".23529" offset=".063165"/>
   <stop stop-color="#fff" stop-opacity=".15686" offset=".95056"/>
   <stop stop-color="#fff" stop-opacity=".39216" offset="1"/>
  </linearGradient>
  <radialGradient id="s" gradientUnits="userSpaceOnUse" cy="8.4498" cx="7.4957" gradientTransform="matrix(1.2454e-8 1.4981 -1.5848 -2.76e-8 29.391 -6.3556)" r="20">
   <stop stop-color="#c7c7c7" offset="0"/>
   <stop stop-color="#a6a6a6" offset=".26238"/>
   <stop stop-color="#7b7b7b" offset=".70495"/>
   <stop stop-color="#595959" offset="1"/>
  </radialGradient>
  <linearGradient id="m" x1="24" gradientUnits="userSpaceOnUse" y1="44" gradientTransform="matrix(.64103 0 0 .64103 .61539 1.6154)" x2="24" y2="3.899">
   <stop stop-color="#505050" offset="0"/>
   <stop stop-color="#8e8e8e" offset="1"/>
  </linearGradient>
  <radialGradient id="q" gradientUnits="userSpaceOnUse" cy="43.5" cx="4.993" gradientTransform="matrix(2.0038 0 0 1.4 27.988 -17.4)" r="2.5">
   <stop stop-color="#181818" offset="0"/>
   <stop stop-color="#181818" stop-opacity="0" offset="1"/>
  </radialGradient>
  <radialGradient id="r" gradientUnits="userSpaceOnUse" cy="43.5" cx="4.993" gradientTransform="matrix(2.0038 0 0 1.4 -20.012 -104.4)" r="2.5">
   <stop stop-color="#181818" offset="0"/>
   <stop stop-color="#181818" stop-opacity="0" offset="1"/>
  </radialGradient>
  <linearGradient id="k" y2="39.999" gradientUnits="userSpaceOnUse" y1="47.028" x2="25.058" x1="25.058">
   <stop stop-color="#181818" stop-opacity="0" offset="0"/>
   <stop stop-color="#181818" offset=".5"/>
   <stop stop-color="#181818" stop-opacity="0" offset="1"/>
  </linearGradient>
 </defs>
 <g transform="matrix(.7 0 0 .33333 -.8 15.333)">
  <g opacity=".4" transform="matrix(1.0526 0 0 1.2857 -1.2632 -13.429)">
   <rect y="40" width="5" fill="url(#q)" x="38" height="7"/>
   <rect transform="scale(-1)" height="7" width="5" y="-47" x="-10" fill="url(#r)"/>
   <rect y="40" width="28" fill="url(#k)" x="10" height="7"/>
  </g>
 </g>
 <rect stroke-linejoin="round" style="color:#000000" rx="2" ry="2" height="25" width="25" stroke="url(#m)" stroke-linecap="round" y="4.5" x="3.5" fill="url(#s)"/>
 <rect opacity=".5" stroke-linejoin="round" rx="1" ry="1" height="23" width="23" stroke="url(#l)" stroke-linecap="round" y="5.5" x="4.5" fill="none"/>
 <path opacity=".41" style="color:#000000" d="m15 10c-0.277 0-0.5 0.223-0.5 0.5v1.6875c-0.54864 0.14074-1.055 0.37601-1.5312 0.65625l-1.219-1.219c-0.19587-0.19587-0.49163-0.19587-0.6875 0l-1.437 1.437c-0.19587 0.19587-0.19587 0.49163 0 0.6875l1.2188 1.2188c-0.28 0.476-0.516 0.982-0.656 1.531h-1.688c-0.277 0-0.5 0.223-0.5 0.5v2c0 0.277 0.223 0.5 0.5 0.5h1.6875c0.14074 0.54864 0.37601 1.055 0.65625 1.5312l-1.219 1.219c-0.19587 0.19587-0.19587 0.49163 0 0.6875l1.4375 1.4375c0.19587 0.19587 0.49163 0.19587 0.6875 0l1.2188-1.2188c0.47623 0.28024 0.98261 0.51551 1.5312 0.65625v1.6875c0 0.277 0.223 0.5 0.5 0.5h2c0.277 0 0.5-0.223 0.5-0.5v-1.6875c0.54864-0.14074 1.055-0.37601 1.5312-0.65625l1.219 1.219c0.19587 0.19587 0.49163 0.19587 0.6875 0l1.4375-1.4375c0.19587-0.19587 0.19587-0.49163 0-0.6875l-1.22-1.219c0.28-0.476 0.516-0.982 0.656-1.531h1.6875c0.277 0 0.5-0.223 0.5-0.5v-2c0-0.277-0.223-0.5-0.5-0.5h-1.6875c-0.14-0.549-0.376-1.055-0.656-1.531l1.219-1.219c0.19587-0.19587 0.19587-0.49163 0-0.6875l-1.437-1.437c-0.19587-0.19587-0.49163-0.19587-0.6875 0l-1.2188 1.2188c-0.476-0.28-0.982-0.516-1.531-0.656v-1.688c0-0.277-0.223-0.5-0.5-0.5h-2zm1 5c1.6569 0 3 1.3431 3 3s-1.3431 3-3 3-3-1.3431-3-3 1.3431-3 3-3z" fill="#fff"/>
 <path style="color:#000000" d="m15 9c-0.277 0-0.5 0.223-0.5 0.5v1.6875c-0.54864 0.14074-1.055 0.37601-1.5312 0.65625l-1.219-1.219c-0.19587-0.19587-0.49163-0.19587-0.6875 0l-1.437 1.437c-0.19587 0.19587-0.19587 0.49163 0 0.6875l1.2188 1.2188c-0.28 0.476-0.516 0.982-0.656 1.531h-1.688c-0.277 0-0.5 0.223-0.5 0.5v2c0 0.277 0.223 0.5 0.5 0.5h1.6875c0.14074 0.54864 0.37601 1.055 0.65625 1.5312l-1.219 1.219c-0.19587 0.19587-0.19587 0.49163 0 0.6875l1.4375 1.4375c0.19587 0.19587 0.49163 0.19587 0.6875 0l1.2188-1.2188c0.47623 0.28024 0.98261 0.51551 1.5312 0.65625v1.6875c0 0.277 0.223 0.5 0.5 0.5h2c0.277 0 0.5-0.223 0.5-0.5v-1.6875c0.54864-0.14074 1.055-0.37601 1.5312-0.65625l1.219 1.219c0.19587 0.19587 0.49163 0.19587 0.6875 0l1.4375-1.4375c0.19587-0.19587 0.19587-0.49163 0-0.6875l-1.22-1.219c0.28-0.476 0.516-0.982 0.656-1.531h1.6875c0.277 0 0.5-0.223 0.5-0.5v-2c0-0.277-0.223-0.5-0.5-0.5h-1.6875c-0.14-0.549-0.376-1.055-0.656-1.531l1.219-1.219c0.19587-0.19587 0.19587-0.49163 0-0.6875l-1.437-1.437c-0.19587-0.19587-0.49163-0.19587-0.6875 0l-1.2188 1.2188c-0.476-0.28-0.982-0.516-1.531-0.656v-1.688c0-0.277-0.223-0.5-0.5-0.5h-2zm1 5c1.6569 0 3 1.3431 3 3s-1.3431 3-3 3-3-1.3431-3-3 1.3431-3 3-3z" fill="url(#n)"/>
 <path opacity=".1" stroke-linejoin="round" style="color:#000000" d="m15.062 9.5625c-0.02465 0.61514 0.0508 1.2431-0.0404 1.8499-0.22156 0.48267-0.86813 0.38946-1.2591 0.66131-0.35888 0.1777-0.83286 0.55716-1.2005 0.17633l-1.1562-1.1562-1.3125 1.3125c0.41328 0.43651 0.87815 0.8308 1.2579 1.2948 0.23668 0.48316-0.28717 0.88122-0.39325 1.3266-0.17191 0.37402-0.17866 1.0023-0.7161 1.0335-0.55991 0.0032-1.1199 0.000478-1.6798 0.0014v1.875c0.61514 0.02465 1.2431-0.0508 1.8499 0.0404 0.48267 0.22156 0.38946 0.86813 0.66131 1.2591 0.1777 0.35888 0.55716 0.83286 0.17633 1.2005l-1.1562 1.1562 1.3125 1.3125c0.43651-0.41328 0.8308-0.87815 1.2948-1.2579 0.48316-0.23668 0.88122 0.28717 1.3266 0.39325 0.37402 0.17191 1.0023 0.17866 1.0335 0.7161 0.0032 0.55991 0.000478 1.1199 0.0014 1.6798h1.875c0.02465-0.61514-0.0508-1.2431 0.0404-1.8499 0.22156-0.48267 0.86813-0.38946 1.2591-0.66131 0.35888-0.1777 0.83286-0.55716 1.2005-0.17633l1.1562 1.1562 1.3125-1.3125c-0.41328-0.43651-0.87815-0.8308-1.2579-1.2948-0.23668-0.48316 0.28717-0.88122 0.39325-1.3266 0.17191-0.37402 0.17866-1.0023 0.7161-1.0335 0.55991-0.0032 1.1199-0.000478 1.6798-0.0014v-1.875c-0.61514-0.02465-1.2431 0.0508-1.8499-0.0404-0.482-0.222-0.389-0.869-0.661-1.26-0.177-0.359-0.557-0.833-0.176-1.201l1.1562-1.1562-1.3125-1.3125c-0.43651 0.41328-0.8308 0.87815-1.2948 1.2579-0.48316 0.23668-0.88122-0.28717-1.3266-0.39325-0.37402-0.17191-1.0023-0.17866-1.0335-0.7161-0.0032-0.55991-0.000478-1.1199-0.0014-1.6798h-1.875z" stroke="url(#o)" fill="none"/>
 <path opacity=".1" stroke-linejoin="round" style="color:#000000" d="m16 20.566c1.9374 0.05315 3.6634-1.7201 3.5613-3.6545 0.004-1.9389-1.8147-3.6163-3.7447-3.4659-1.9392 0.04516-3.5671 1.9074-3.3688 3.832 0.10413 1.8114 1.739 3.3229 3.5521 3.2884z" stroke="url(#p)" fill="none"/>
</svg>
