<?xml version="1.0" encoding="UTF-8" standalone="no"?>
<svg xmlns:rdf="http://www.w3.org/1999/02/22-rdf-syntax-ns#" xmlns="http://www.w3.org/2000/svg" height="16" width="16" version="1.0" xmlns:cc="http://creativecommons.org/ns#" xmlns:dc="http://purl.org/dc/elements/1.1/">
 <path style="color:#000000;block-progression:tb;text-transform:none;text-indent:0" d="m2.3496 1.002c-0.1975 0.0382-0.3531 0.2333-0.3496 0.4375v13.122c0.000005 0.22905 0.20608 0.43749 0.43164 0.4375h11.139c0.22556-0.000006 0.43163-0.20845 0.43164-0.4375v-10.143c-0.004-0.06684-0.02269-0.1329-0.05469-0.19141l-3.3125-3.1992c-0.043-0.0164-0.08876-0.025544-0.13477-0.027344h-8.0684c-0.02684-0.0026-0.055191-0.0026-0.082031 0z" fill="#dc5047"/>
 <path style="color:#000000;block-progression:tb;text-transform:none;text-indent:0" d="m7.3561 3h0.19315c0.18549 0 0.36359 0.065879 0.49263 0.1949 0.53227 0.5322 0.28209 1.8297 0.015948 2.9022-0.01613 0.048381-0.023832 0.089205-0.031897 0.11339 0.32259 0.91119 0.78197 1.6448 1.29 2.0641 0.20968 0.16127 0.44366 0.32261 0.70173 0.46775 0.36291-0.040318 0.70953-0.056697 1.0402-0.056697 1 0 1.6055 0.17735 1.8394 0.55634 0.08065 0.12902 0.11988 0.28168 0.09569 0.44295-0.0081 0.20159-0.07989 0.38817-0.22505 0.53331-0.1371 0.15321-0.37878 0.24096-0.73362 0.24096-0.61292 0-1.6141-0.18585-2.4206-0.59709-1.3871 0.15321-2.4193 0.33985-3.2499 0.60595-0.040323 0.01613-0.088854 0.03075-0.14531 0.05493-1 1.71-1.7408 2.477-2.394 2.477-0.1291 0-0.2594-0.032-0.3562-0.089l-0.3863-0.249-0.0248-0.041c-0.0565-0.145-0.073-0.283-0.0408-0.436 0.0887-0.427 0.5491-1.105 1.5169-1.71 0.1532-0.113 0.3951-0.242 0.7177-0.395 0.2419-0.4192 0.5001-0.9108 0.7744-1.451 0.4113-0.8306 0.6684-1.6522 0.87-2.3618v-0.00886c-0.2984-0.9757-0.4756-1.5639-0.1772-2.6364 0.0726-0.3064 0.3396-0.6219 0.638-0.6219zm0.1205 0.49965c-0.01613 0.024192-0.040576 0.065194-0.056705 0.097448-0.1371 0.33867-0.12878 0.92736 0.056705 1.6531l0.040757-0.031892c0.056453-0.25804 0.08097-0.48348 0.12936-0.66088l0.023036-0.12934c0.0806-0.4596 0.0644-0.6941-0.0727-0.8876zm0.065566 3.6463c-0.1856 0.5968-0.4523 1.2334-0.8152 1.9349-0.1613 0.3064-0.3395 0.5961-0.404 0.838l0.088602-0.0319c1.0242-0.3951 1.9936-0.6204 2.6952-0.7494-0.1209-0.0806-0.2346-0.17-0.3313-0.2587-0.4839-0.4112-0.9027-1.0071-1.2334-1.7328zm3.3616 2.2165c-0.05645 0-0.11171 0.0008653-0.18429 0.081503 0.58873 0.25804 1.1601 0.41106 1.531 0.41106 0.05645 0 0.10578-0.0079 0.15417-0.01595h0.0319c0.04032-0.01613 0.06459-0.02568 0.07266-0.10631-0.01614-0.0242-0.03234-0.05633-0.07266-0.08859-0.08065-0.08064-0.40375-0.28172-1.5328-0.28172zm-5.8622 1.4596c-0.16936 0.09677-0.30743 0.18531-0.38808 0.24982-0.5726 0.52414-0.9343 1.0561-0.97462 1.3625 0.36291-0.12095 0.83849-0.65276 1.3627-1.6123z" fill="#fff"/>
</svg>
