<?xml version="1.0" encoding="UTF-8" standalone="no"?>
<svg xmlns:rdf="http://www.w3.org/1999/02/22-rdf-syntax-ns#" xmlns="http://www.w3.org/2000/svg" height="32" width="32" version="1.1" xmlns:cc="http://creativecommons.org/ns#" xmlns:xlink="http://www.w3.org/1999/xlink" xmlns:dc="http://purl.org/dc/elements/1.1/">
 <defs>
  <linearGradient id="h" x1="24" gradientUnits="userSpaceOnUse" y1="5" gradientTransform="matrix(.62162 0 0 .62162 1.0811 2.0811)" x2="24" y2="43">
   <stop stop-color="#fff" offset="0"/>
   <stop stop-color="#fff" stop-opacity=".23529" offset=".063165"/>
   <stop stop-color="#fff" stop-opacity=".15686" offset=".95056"/>
   <stop stop-color="#fff" stop-opacity=".39216" offset="1"/>
  </linearGradient>
  <linearGradient id="i" x1="167.98" gradientUnits="userSpaceOnUse" y1="8.5081" gradientTransform="matrix(.44444 0 0 .44444 -24 2.7778)" x2="167.98" y2="54.78">
   <stop stop-color="#fffdf3" offset="0"/>
   <stop stop-color="#fbebeb" offset="1"/>
  </linearGradient>
  <radialGradient id="l" gradientUnits="userSpaceOnUse" cy="9.9941" cx="8.2761" gradientTransform="matrix(0 4.2742 -5.2474 0 68.489 -37.143)" r="12.672">
   <stop stop-color="#f89b7e" offset="0"/>
   <stop stop-color="#e35d4f" offset=".26238"/>
   <stop stop-color="#c6262e" offset=".66094"/>
   <stop stop-color="#690b2c" offset="1"/>
  </radialGradient>
  <radialGradient id="j" gradientUnits="userSpaceOnUse" cy="43.5" cx="4.993" gradientTransform="matrix(2.0038 0 0 1.4 27.988 -17.4)" r="2.5">
   <stop stop-color="#181818" offset="0"/>
   <stop stop-color="#181818" stop-opacity="0" offset="1"/>
  </radialGradient>
  <radialGradient id="k" gradientUnits="userSpaceOnUse" cy="43.5" cx="4.993" gradientTransform="matrix(2.0038 0 0 1.4 -20.012 -104.4)" r="2.5">
   <stop stop-color="#181818" offset="0"/>
   <stop stop-color="#181818" stop-opacity="0" offset="1"/>
  </radialGradient>
  <linearGradient id="g" y2="39.999" gradientUnits="userSpaceOnUse" y1="47.028" x2="25.058" x1="25.058">
   <stop stop-color="#181818" stop-opacity="0" offset="0"/>
   <stop stop-color="#181818" offset=".5"/>
   <stop stop-color="#181818" stop-opacity="0" offset="1"/>
  </linearGradient>
 </defs>
 <g transform="matrix(.7 0 0 .33333 -.8 15.333)">
  <g opacity=".4" transform="matrix(1.0526 0 0 1.2857 -1.2632 -13.429)">
   <rect y="40" width="5" fill="url(#j)" x="38" height="7"/>
   <rect transform="scale(-1)" height="7" width="5" y="-47" x="-10" fill="url(#k)"/>
   <rect y="40" width="28" fill="url(#g)" x="10" height="7"/>
  </g>
 </g>
 <rect style="color:#000000" rx="2" ry="2" height="25" width="25" y="4.5" x="3.5" fill="url(#l)"/>
 <path opacity=".15" style="color:#000000" fill="#661215" d="m18.188 4.9688a1.0386 1.0386 0 0 0 -0.46875 0.25c-8.0692 6.9232-12.522 7.7862-13.782 7.8752a1.0386 1.0386 0 0 0 -0.4375 0.125v8.7187a1.0386 1.0386 0 0 0 0.5 0.125c1.2408 0 3.1922 0.83225 5.0625 2.2812 1.726 1.337 3.383 3.164 4.594 5.156h12.844c1.108 0 2-0.892 2-2v-0.125c-1.2349-2.981-2.1282-7.0748-2.8125-10.781-0.003-0.023 0.003-0.0395 0-0.0625-0.61012-4.7373 0.28634-8.959 0.625-10.281a1.0386 1.0386 0 0 0 -1 -1.2812h-6.9062a1.0386 1.0386 0 0 0 -0.21875 0zm0 4.875c-0.19809 1.3497-0.34502 2.9178-0.46875 4.7812-0.23961 3.6087-0.31211 8.3302-0.34375 13.438-1.2326-2.3066-3.3956-4.6736-5.8438-6.6875-1.4134-1.1626-2.8465-2.1591-4.125-2.9062-0.81148-0.4742-1.5307-0.8115-2.2188-1.0312 1.5275-0.29509 3.8744-0.90217 6.625-2.625 2.3056-1.4441 4.5975-3.3663 6.375-4.9687z" fill-rule="evenodd"/>
 <path opacity=".3" style="color:#000000" fill="#661215" d="m18.406 6c-8.18 7.019-12.852 8.016-14.406 8.125v2.5312c1.1732-0.164 4.1092-0.751 7.25-2.718 4.027-2.523 8.844-7.313 8.844-7.313-1.302 2.5536-1.684 11.312-1.719 22.875h8.125c0.60271 0 1.1339-0.26843 1.5-0.6875 0.00027-0.0105 0-0.0207 0-0.0312-1.565-3.227-2.576-7.895-3.344-12.062-0.655-4.973 0.298-9.3183 0.656-10.719h-6.9062zm-14.406 12.219v2.8125c3.2857 0 8.2665 3.8155 10.875 8.4688h2.2188c-1.665-4.451-10.589-11.282-13.094-11.282z" fill-rule="evenodd"/>
 <path style="color:#000000" d="m18.408 5c-8.18 7.019-12.854 8.01-14.408 8.119v2.5225c1.1732-0.16382 4.1224-0.73265 7.2632-2.6998 4.0274-2.5225 8.8421-7.3113 8.8421-7.3113-1.32 2.5898-1.705 11.522-1.73 23.333h8.441c0.661 0 1.184-0.523 1.184-1.183-1.565-3.227-2.588-7.893-3.355-12.06-0.656-4.973 0.312-9.3203 0.671-10.721h-6.9079zm-14.408 12.23v2.7938c3.3961 0 8.6171 4.0752 11.143 8.9398h2.1215c-1.187-4.423-10.673-11.734-13.264-11.734z" fill="url(#i)"/>
 <path opacity=".05" d="m25.688 5.0313c-3.216 1.9588-13.74 7.9437-21.688 7.1877v5.4062s17.674 2.6262 24-2.5938v-8.7187c0-0.69873-0.55021-1.2812-1.25-1.2812h-1.0625zm2.312 12.25c-3.181 3.168-6.45 7.386-8.625 11.719h2.5312c1.761-2.975 4.072-6.235 6.094-8.25v-3.4688z" fill-rule="evenodd"/>
 <rect opacity=".5" stroke-linejoin="round" rx="1" ry="1" height="23" width="23" stroke="url(#h)" stroke-linecap="round" y="5.5" x="4.5" fill="none"/>
 <rect opacity=".35" stroke-linejoin="round" style="color:#000000" rx="2" ry="2" height="25" width="25" stroke="#410000" stroke-linecap="round" y="4.5" x="3.5" fill="none"/>
</svg>
