<svg xmlns="http://www.w3.org/2000/svg" width="16" height="16"><path fill="#dc5047" d="M2.5 1c-.28 0-.5.22-.5.5v13c0 .28.22.5.5.5h11c.28 0 .5-.22.5-.5V4l-3-3z"/><g fill="#fff" aria-label="PDF"><path d="M4.91 8.443V9.5H4.29v-3h1.17q.338 0 .594.124.257.123.395.352.139.227.139.517 0 .441-.303.697-.301.253-.835.253zm0-.5h.551q.246 0 .373-.116.13-.115.13-.33 0-.22-.13-.356T5.476 7h-.567zM7.011 9.5v-3h.923q.396 0 .707.18.313.176.488.506.175.328.175.746v.138q0 .418-.173.744-.17.325-.484.505-.313.179-.707.181zM7.629 7v2.003h.299q.363 0 .554-.237t.196-.677v-.16q0-.457-.19-.691Q8.298 7 7.934 7zM11.56 8.274h-1.187V9.5h-.618v-3h1.953V7h-1.335v.775h1.187z"/></g></svg>
