<?xml version="1.0" encoding="UTF-8" standalone="no"?>
<svg xmlns:rdf="http://www.w3.org/1999/02/22-rdf-syntax-ns#" xmlns="http://www.w3.org/2000/svg" height="32px" width="32px" version="1.1" xmlns:cc="http://creativecommons.org/ns#" xmlns:xlink="http://www.w3.org/1999/xlink" xmlns:dc="http://purl.org/dc/elements/1.1/">
 <defs>
  <linearGradient id="h" x1="24" gradientUnits="userSpaceOnUse" y1="5.5641" gradientTransform="matrix(.57063 0 0 .57063 2.3049 3.3049)" x2="24" y2="43">
   <stop stop-color="#fff" offset="0"/>
   <stop stop-color="#fff" stop-opacity=".23529" offset=".036262"/>
   <stop stop-color="#fff" stop-opacity=".15686" offset=".95056"/>
   <stop stop-color="#fff" stop-opacity=".39216" offset="1"/>
  </linearGradient>
  <radialGradient id="m" fx="7.2758" gradientUnits="userSpaceOnUse" cy="9.9571" cx="7.8061" gradientTransform="matrix(-1.0673e-7 3.4663 -5.3421 -1.0405e-7 69.185 -26.355)" r="12.672">
   <stop stop-color="#ffcd7d" offset="0"/>
   <stop stop-color="#fc8f36" offset=".26238"/>
   <stop stop-color="#e23a0e" offset=".70495"/>
   <stop stop-color="#ac441f" offset="1"/>
  </radialGradient>
  <linearGradient id="i" x1="25" gradientUnits="userSpaceOnUse" y1="47.935" gradientTransform="matrix(.66015 0 0 .52505 .15636 5.186)" x2="25" y2=".91791">
   <stop stop-color="#ba3d12" offset="0"/>
   <stop stop-color="#db6737" offset="1"/>
  </linearGradient>
  <radialGradient id="k" xlink:href="#a" gradientUnits="userSpaceOnUse" cy="486.65" cx="605.71" gradientTransform="matrix(.015663 0 0 .0082353 17.61 24.981)" r="117.14"/>
  <linearGradient id="a">
   <stop offset="0"/>
   <stop stop-opacity="0" offset="1"/>
  </linearGradient>
  <radialGradient id="l" xlink:href="#a" gradientUnits="userSpaceOnUse" cy="486.65" cx="605.71" gradientTransform="matrix(-.015663 0 0 .0082353 14.39 24.981)" r="117.14"/>
  <linearGradient id="j" x1="302.86" gradientUnits="userSpaceOnUse" x2="302.86" gradientTransform="matrix(.045769 0 0 .0082353 -.54232 24.981)" y1="366.65" y2="609.51">
   <stop stop-opacity="0" offset="0"/>
   <stop offset=".5"/>
   <stop stop-opacity="0" offset="1"/>
  </linearGradient>
 </defs>
 <rect opacity=".15" height="2" width="22.1" y="28" x="4.95" fill="url(#j)"/>
 <path opacity=".15" d="m4.95 28v1.9999c-0.80662 0.0038-1.95-0.44807-1.95-1.0001 0-0.552 0.90012-0.99982 1.95-0.99982z" fill="url(#l)"/>
 <path opacity=".15" d="m27.05 28v1.9999c0.80661 0.0038 1.95-0.44807 1.95-1.0001 0-0.552-0.90012-0.99982-1.95-0.99982z" fill="url(#k)"/>
 <path stroke-linejoin="round" style="color:#000000" d="m4.4473 5.4473c5.2946 0 23.105 0.00147 23.105 0.00147l0.000029 23.104h-23.105v-23.105z" stroke="url(#i)" stroke-width=".89464" fill="url(#m)"/>
 <path opacity=".5" stroke-linejoin="round" d="m26.557 27.557h-21.113v-21.113h21.113z" stroke="url(#h)" stroke-linecap="round" stroke-width=".88668" fill="none"/>
 <path d="m7.0633 24.902c0-0.30708 0.10601-0.56488 0.31803-0.7734 0.21203-0.2123 0.47138-0.31845 0.77805-0.31846 0.2991 0.000007 0.55277 0.10616 0.76101 0.31846 0.21202 0.20852 0.31803 0.46632 0.31803 0.7734 0 0.29951-0.10601 0.55541-0.31803 0.76771-0.20824 0.20852-0.46191 0.31278-0.76101 0.31277-0.30667 0.000007-0.56603-0.10425-0.77805-0.31277-0.2121-0.209-0.3181-0.465-0.3181-0.768m-0.0633-4.931v1.816c2.3202 0 4.2047 1.8882 4.2047 4.2129h1.8223c0-3.33-2.7035-6.0293-6.027-6.0293zm0.00312-3.9745v2.0078c4.4053 0 7.9822 3.5816 7.9822 7.9928h2.0147c0.000015-5.5219-4.4823-10.001-9.9969-10.001z" fill="#fff"/>
</svg>
