<svg xmlns="http://www.w3.org/2000/svg" height="16" width="16" version="1"><path d="M7.15 2c-.2 0-.35.15-.35.35v1c-.443.114-.84.298-1.225.525L4.85 3.15a.35.35 0 0 0-.5 0l-1.2 1.2a.35.35 0 0 0 0 .5l.725.725c-.228.384-.41.782-.525 1.225h-1c-.2 0-.35.15-.35.35v1.7c0 .2.15.35.35.35h1c.114.443.297.84.525 1.225l-.725.726a.35.35 0 0 0 0 .5l1.2 1.2c.14.14.36.14.5 0l.725-.725c.384.228.782.41 1.225.525v1c0 .2.15.35.35.35h1.7c.198 0 .35-.15.35-.35v-1c.443-.114.84-.298 1.225-.525l.725.725c.14.14.36.14.5 0l1.2-1.2a.35.35 0 0 0 0-.5l-.725-.725c.228-.384.41-.782.525-1.225h1c.2 0 .35-.15.35-.35v-1.7c0-.2-.15-.35-.35-.35h-1a4.633 4.633 0 0 0-.525-1.225l.725-.725a.35.35 0 0 0 0-.5l-1.2-1.2a.35.35 0 0 0-.5 0l-.725.725A4.652 4.652 0 0 0 9.2 3.35v-1c0-.2-.15-.35-.35-.35zM8 5.326a2.675 2.675 0 0 1 0 5.348 2.675 2.675 0 0 1 0-5.348z" display="block" fill="#969696"/></svg>