<?xml version="1.0" encoding="UTF-8" standalone="no"?>
<svg xmlns:rdf="http://www.w3.org/1999/02/22-rdf-syntax-ns#" xmlns="http://www.w3.org/2000/svg" height="16" width="16" version="1.0" xmlns:cc="http://creativecommons.org/ns#" xmlns:dc="http://purl.org/dc/elements/1.1/">
 <path d="m12.805 1.0011c-2.2 0.3545-5.1445 0.7194-7.3383 1.0937-0.581 0.2835-0.4503 1.0133-0.4761 1.5429v7.0895c-1.2243-0.23017-2.7173 0.78142-2.782 2.3831-0.1057 0.99721 0.77859 1.8652 1.7402 1.8885 1.7217 0.04179 2.8992-1.1005 2.9179-2.545-0.01876-2.4261 0.0056-4.8533 0-7.2795 0.26654-0.01974 4.3036-0.79006 4.6667-0.84134v5.452c-1.07-0.2561-2.4374 0.4472-2.7766 1.8832-0.14314 0.80489 0.1274 1.8152 0.94411 2.156 1.5943 0.73261 3.783-0.75137 3.694-2.493-0.02473-3.235 0.02025-6.4717 0-9.707-0.042-0.30422-0.24827-0.64474-0.59033-0.62281z" fill="#969696"/>
</svg>
