<?xml version="1.0" encoding="UTF-8" standalone="no"?>
<svg xmlns:rdf="http://www.w3.org/1999/02/22-rdf-syntax-ns#" xmlns="http://www.w3.org/2000/svg" height="32" width="32" version="1.1" xmlns:cc="http://creativecommons.org/ns#" xmlns:xlink="http://www.w3.org/1999/xlink" xmlns:dc="http://purl.org/dc/elements/1.1/">
 <defs>
  <linearGradient id="k" x1="102.31" spreadMethod="reflect" gradientUnits="userSpaceOnUse" y1="-2.3925" gradientTransform="matrix(.45813 0 0 .43889 -31.62 14.933)" x2="102.31" y2="-24.582">
   <stop stop-color="#a5a6a8" offset="0"/>
   <stop stop-color="#e8e8e8" offset="1"/>
  </linearGradient>
  <linearGradient id="j" x1="109.96" gradientUnits="userSpaceOnUse" y1="-24.911" gradientTransform="matrix(.45813 0 0 .43889 -31.62 14.933)" x2="109.96" y2="-2.3758">
   <stop stop-color="#b3b3b3" offset="0"/>
   <stop stop-color="#dadada" offset="1"/>
  </linearGradient>
  <linearGradient id="i" x1="103.95" xlink:href="#b" spreadMethod="reflect" gradientUnits="userSpaceOnUse" y1="-7.6657" gradientTransform="matrix(.45783 0 0 .43229 -31.592 18.912)" x2="89.424" y2="-7.6657"/>
  <linearGradient id="b">
   <stop stop-color="#868688" offset="0"/>
   <stop stop-color="#d9d9da" offset="1"/>
  </linearGradient>
  <linearGradient id="h" x1="89.018" xlink:href="#a" gradientUnits="userSpaceOnUse" y1="22.537" gradientTransform="translate(-78.157 -9.5461)" x2="89.018" y2="27.546"/>
  <linearGradient id="a">
   <stop stop-color="#a0a0a0" offset="0"/>
   <stop stop-color="#4a4a4a" offset="1"/>
  </linearGradient>
  <linearGradient id="g" x1="103.95" xlink:href="#b" spreadMethod="reflect" gradientUnits="userSpaceOnUse" y1="-7.6657" gradientTransform="matrix(.45783 0 0 .43229 -31.592 24.912)" x2="89.424" y2="-7.6657"/>
  <linearGradient id="f" x1="89.018" xlink:href="#a" gradientUnits="userSpaceOnUse" y1="22.537" gradientTransform="translate(-78.157 -3.5461)" x2="89.018" y2="27.546"/>
  <linearGradient id="e" x1="103.95" xlink:href="#b" spreadMethod="reflect" gradientUnits="userSpaceOnUse" y1="-7.6657" gradientTransform="matrix(.45783 0 0 .43229 -31.592 30.912)" x2="89.424" y2="-7.6657"/>
  <linearGradient id="d" x1="89.018" xlink:href="#a" gradientUnits="userSpaceOnUse" y1="22.537" gradientTransform="translate(-78.157 2.4539)" x2="89.018" y2="27.546"/>
  <linearGradient id="l" x1="21.381" gradientUnits="userSpaceOnUse" y1="5.0525" gradientTransform="matrix(0.6 0 0 .60526 1.6 2.1711)" x2="21.381" y2="44.137">
   <stop stop-color="#FFF" offset="0"/>
   <stop stop-color="#FFF" stop-opacity=".23529" offset=".081258"/>
   <stop stop-color="#FFF" stop-opacity=".15686" offset=".92328"/>
   <stop stop-color="#FFF" stop-opacity=".39216" offset="1"/>
  </linearGradient>
  <radialGradient id="c" gradientUnits="userSpaceOnUse" cy="41.636" cx="23.335" gradientTransform="matrix(.57452 0 0 .22094 2.5938 17.801)" r="22.627">
   <stop offset="0"/>
   <stop stop-opacity="0" offset="1"/>
  </radialGradient>
 </defs>
 <path opacity=".3" fill="url(#c)" d="m29 27c0.0011 2.7613-5.8195 5-13 5s-13.001-2.239-13-5c-0.0011-2.761 5.8195-5 13-5s13.001 2.2387 13 5z" fill-rule="evenodd"/>
 <g>
  <path d="m27.49 25.068c0 2.4466-5.1487 4.4322-11.493 4.4322-6.344 0-11.493-1.9856-11.493-4.4322 0.11446-5.4694-1.4047-4.34 11.493-4.4322 13.193-0.0952 11.331-1.1267 11.493 4.4322z" stroke="url(#d)" fill="url(#e)"/>
  <path d="m27.5 21c0 2.4853-5.1487 4.5-11.5 4.5s-11.5-2.0147-11.5-4.5 5.1487-4.5 11.5-4.5 11.5 2.0147 11.5 4.5z" stroke="#d8d8d8" fill="#868688"/>
  <path d="m27.49 19.068c0 2.4466-5.1487 4.4322-11.493 4.4322-6.344 0-11.493-1.9856-11.493-4.4322 0.11446-5.4694-1.4047-4.34 11.493-4.4322 13.193-0.0952 11.331-1.1267 11.493 4.4322z" stroke="url(#f)" fill="url(#g)"/>
  <path d="m27.5 15c0 2.4853-5.1487 4.5-11.5 4.5s-11.5-2.0147-11.5-4.5 5.1487-4.5 11.5-4.5 11.5 2.0147 11.5 4.5z" stroke="#d8d8d8" fill="#868688"/>
  <path d="m27.49 13.068c0 2.446-5.149 4.432-11.493 4.432-6.3435 0-11.492-1.986-11.492-4.432 0.1144-5.4697-1.4047-4.3402 11.492-4.4325 13.193-0.0952 11.331-1.1267 11.493 4.4325z" stroke="url(#h)" fill="url(#i)"/>
  <path d="m27.5 9c0 2.4853-5.1487 4.5-11.5 4.5s-11.5-2.015-11.5-4.5c0-2.4853 5.1487-4.5 11.5-4.5 6.351 0 11.5 2.0147 11.5 4.5z" stroke="url(#j)" fill="url(#k)"/>
 </g>
 <rect opacity=".5" style="color:#000000" rx="17.5" ry="4" height="23" width="21" stroke="url(#l)" y="5.5" x="5.5" fill="none"/>
</svg>
