<svg xmlns:rdf="http://www.w3.org/1999/02/22-rdf-syntax-ns#" xmlns="http://www.w3.org/2000/svg" height="32px" width="32px" version="1.1" xmlns:cc="http://creativecommons.org/ns#" xmlns:dc="http://purl.org/dc/elements/1.1/">
 <metadata>
  <rdf:RDF>
   <cc:Work rdf:about="">
    <dc:format>image/svg+xml</dc:format>
    <dc:type rdf:resource="http://purl.org/dc/dcmitype/StillImage"/>
    <dc:title/>
   </cc:Work>
  </rdf:RDF>
 </metadata>
 <defs>
  <linearGradient id="c" y2="21.387" gradientUnits="userSpaceOnUse" x2="27.557" gradientTransform="matrix(.89186 0 0 1.0539 3.1208 5.4125)" y1="7.1627" x1="27.557">
   <stop stop-color="#fff" offset="0"/>
   <stop stop-color="#fff" stop-opacity=".23529" offset="0.0097359"/>
   <stop stop-color="#fff" stop-opacity=".15686" offset="0.99001"/>
   <stop stop-color="#fff" stop-opacity=".39216" offset="1"/>
  </linearGradient>
  <linearGradient id="d" y2="36.658" gradientUnits="userSpaceOnUse" x2="22.809" gradientTransform="matrix(.74675 0 0 .65549 -1.9219 1.1676)" y1="49.629" x1="22.935">
   <stop stop-color="#0a0a0a" stop-opacity=".498" offset="0"/>
   <stop stop-color="#0a0a0a" stop-opacity="0" offset="1"/>
  </linearGradient>
  <linearGradient id="e" y2="43.761" gradientUnits="userSpaceOnUse" x2="35.793" gradientTransform="matrix(.64444 0 0 .64286 .53352 .89286)" y1="17.118" x1="35.793">
   <stop stop-color="#b4cee1" offset="0"/>
   <stop stop-color="#5d9fcd" offset="1"/>
  </linearGradient>
  <linearGradient id="f" y2="609.51" gradientUnits="userSpaceOnUse" x2="302.86" gradientTransform="matrix(.051143 0 0 .015916 -2.49 22.299)" y1="366.65" x1="302.86">
   <stop stop-opacity="0" offset="0"/>
   <stop offset="0.5"/>
   <stop stop-opacity="0" offset="1"/>
  </linearGradient>
  <radialGradient id="b" gradientUnits="userSpaceOnUse" cy="486.65" cx="605.71" gradientTransform="matrix(.019836 0 0 .015916 16.388 22.299)" r="117.14">
   <stop offset="0"/>
   <stop stop-opacity="0" offset="1"/>
  </radialGradient>
  <radialGradient id="a" gradientUnits="userSpaceOnUse" cy="486.65" cx="605.71" gradientTransform="matrix(-.019836 0 0 .015916 15.601 22.299)" r="117.14">
   <stop offset="0"/>
   <stop stop-opacity="0" offset="1"/>
  </radialGradient>
  <linearGradient id="g" y2="34.143" gradientUnits="userSpaceOnUse" x2="21.37" gradientTransform="matrix(.54384 0 0 .61466 3.2689 5.0911)" y1="4.7324" x1="21.37">
   <stop stop-color="#fff" offset="0"/>
   <stop stop-color="#fff" stop-opacity=".23529" offset="0.11063"/>
   <stop stop-color="#fff" stop-opacity=".15686" offset="0.99001"/>
   <stop stop-color="#fff" stop-opacity=".39216" offset="1"/>
  </linearGradient>
  <linearGradient id="h" y2="16" gradientUnits="userSpaceOnUse" x2="62.989" gradientTransform="matrix(.61905 0 0 .61905 -30.392 1.4286)" y1="13" x1="62.989">
   <stop stop-color="#f9f9f9" offset="0"/>
   <stop stop-color="#d8d8d8" offset="1"/>
  </linearGradient>
  <linearGradient id="i" y2="3.6337" gradientUnits="userSpaceOnUse" y1="53.514" gradientTransform="matrix(.50703 0 0 0.503 68.029 1.3298)" x2="-51.786" x1="-51.786">
   <stop stop-opacity=".32174" offset="0"/>
   <stop stop-opacity=".27826" offset="1"/>
  </linearGradient>
 </defs>
 <path opacity=".8" style="color:#000000;" d="m4.0002,6.5001c-0.43342,0.005-0.5,0.21723-0.5,0.6349v1.365c-1.2457,0-1-0.002-1,0.54389,0.0216,6.5331,0,6.9014,0,7.4561,0.90135,0,27-2.349,27-3.36v-4.0961c0-0.41767-0.34799-0.54876-0.78141-0.54389h-14.219v-1.365c0-0.41767-0.26424-0.63977-0.69767-0.6349h-9.8023z" stroke="url(#i)" fill="none"/>
 <path style="color:#000000;" d="m4.0002,7v2h-1v4h26v-4h-15v-2h-10z" fill="url(#h)"/>
 <path style="color:#000000;" d="m4.5002,7.5v2h-1v4h25v-4h-15v-2h-9z" stroke="url(#g)" stroke-linecap="round" fill="none"/>
 <g transform="translate(.00017936 -1)">
  <rect opacity="0.3" height="3.8653" width="24.695" y="28.135" x="3.6472" fill="url(#f)"/>
  <path opacity=".3" d="m28.342,28.135v3.865c1.0215,0.0073,2.4695-0.86596,2.4695-1.9328s-1.1399-1.9323-2.4695-1.9323z" fill="url(#b)"/>
  <path opacity=".3" d="m3.6472,28.135v3.865c-1.0215,0.0073-2.4695-0.86596-2.4695-1.9328s1.1399-1.9323,2.4695-1.9323z" fill="url(#a)"/>
 </g>
 <path style="color:#000000;" d="m1.927,11.5c-0.69105,0.0796-0.32196,0.90258-0.37705,1.3654,0.0802,0.29906,0.59771,15.718,0.59771,16.247,0,0.46018,0.22667,0.38222,0.80101,0.38222h26.397c0.61872,0.0143,0.48796,0.007,0.48796-0.38947,0.0452-0.20269,0.63993-16.978,0.66282-17.243,0-0.279,0.0581-0.3621-0.30493-0.3621h-28.265z" fill="url(#e)"/>
 <path opacity=".4" d="m1.682,11,28.636,0.00027c0.4137,0,0.68181,0.29209,0.68181,0.65523l-0.6735,17.712c0.01,0.45948-0.1364,0.64166-0.61707,0.63203l-27.256-0.0115c-0.4137,0-0.83086-0.27118-0.83086-0.63432l-0.62244-17.698c0-0.36314,0.26812-0.65549,0.68182-0.65549z" fill="url(#d)"/>
 <path opacity=".5" style="color:#000000;" d="m2.5002,12.5,0.62498,16h25.749l0.62498-16z" stroke="url(#c)" stroke-linecap="round" fill="none"/>
 <path opacity=".3" stroke-linejoin="round" style="color:#000000;" d="m1.927,11.5c-0.69105,0.0796-0.32196,0.90258-0.37705,1.3654,0.0802,0.29906,0.59771,15.718,0.59771,16.247,0,0.46018,0.22667,0.38222,0.80101,0.38222h26.397c0.61872,0.0143,0.48796,0.007,0.48796-0.38947,0.0452-0.20269,0.63993-16.978,0.66282-17.243,0-0.279,0.0581-0.3621-0.30493-0.3621h-28.265z" stroke="#000" stroke-linecap="round" fill="none"/>
 <path opacity="0.3" style="block-progression:tb;text-indent:0;color:#000000;text-transform:none;" fill="#FFF" d="m12.388,16.483c-0.96482,0-1.7833,0.70559-1.7833,1.6162,0.0069,0.28781,0.03259,0.64272,0.20434,1.3933v0.01858l0.01857,0.01857c0.05513,0.15793,0.13537,0.24827,0.24149,0.37154,0.10612,0.12326,0.23263,0.26834,0.35294,0.39011,0.01415,0.01433,0.02323,0.0232,0.03715,0.03716,0.02386,0.10383,0.05276,0.21557,0.0743,0.3158,0.05732,0.26668,0.05144,0.45553,0.03716,0.52015-0.4146,0.1454-0.9304,0.3187-1.3932,0.5199-0.2598,0.113-0.4949,0.2139-0.6873,0.3344-0.1923,0.1206-0.3836,0.2116-0.4458,0.483-0.000797,0.01237-0.000797,0.02479,0,0.03716-0.06076,0.55788-0.15266,1.3783-0.22291,1.932-0.015166,0.11656,0.046264,0.23943,0.14861,0.29723,0.84033,0.45393,2.1312,0.63663,3.418,0.63161,1.2868-0.005,2.5674-0.19845,3.3808-0.63161,0.10234-0.0578,0.16378-0.18067,0.14861-0.29723-0.0224-0.173-0.05-0.5633-0.0743-0.9474-0.0243-0.384-0.0454-0.7617-0.0743-0.9845-0.0101-0.0552-0.0362-0.1074-0.0743-0.1486-0.2584-0.3086-0.6445-0.4973-1.096-0.6874-0.4122-0.1735-0.8954-0.3538-1.3746-0.5573-0.02682-0.05975-0.05346-0.23358,0-0.50157,0.01436-0.07196,0.03684-0.14903,0.05573-0.22292,0.04503-0.05044,0.08013-0.09166,0.13003-0.14861,0.1064-0.1215,0.2207-0.2489,0.3157-0.3715,0.0951-0.1226,0.1728-0.2279,0.223-0.3715l0.01857-0.01858c0.1941-0.7837,0.1942-1.1107,0.2043-1.3933v-0.01857c0-0.91058-0.81848-1.6162-1.7833-1.6162zm5.101-1.4831c-1.4067,0-2.6,1.0287-2.6,2.3562,0.01,0.4196,0.04751,0.93701,0.29791,2.0312v0.02708l0.02708,0.02708c0.08038,0.23025,0.19736,0.36196,0.35208,0.54166s0.33917,0.39121,0.51458,0.56874c0.02064,0.02089,0.03386,0.03383,0.05416,0.05418,0.03479,0.15137,0.07693,0.31428,0.10833,0.46041,0.08357,0.38879,0.07499,0.66411,0.05417,0.75832-0.6045,0.2122-1.3565,0.465-2.0312,0.7583-0.3789,0.1647-0.7217,0.3118-1.0021,0.4875-0.28044,0.17574-0.55934,0.30851-0.64999,0.70416-0.0012,0.01804-0.0012,0.03613,0,0.05418-0.08858,0.81334-0.22257,2.0094-0.325,2.8166-0.02211,0.16993,0.06745,0.34906,0.21666,0.43333,1.2252,0.66179,3.1072,0.92814,4.9833,0.92082,1.8761-0.0073,3.7431-0.28932,4.9291-0.92082,0.14921-0.08427,0.23878-0.2634,0.21666-0.43333-0.0327-0.25234-0.07287-0.82136-0.10833-1.3812-0.03546-0.55988-0.06625-1.1106-0.10833-1.4354-0.01468-0.0805-0.05274-0.15661-0.10833-0.21666-0.377-0.4498-0.94-0.7248-1.598-1.002-0.601-0.253-1.306-0.5158-2.004-0.8125-0.0391-0.08711-0.07795-0.34054,0-0.73124,0.02093-0.10491,0.05371-0.21727,0.08125-0.325,0.06566-0.07354,0.11683-0.13363,0.18958-0.21666,0.15516-0.17709,0.32189-0.36287,0.46041-0.54166s0.25186-0.33217,0.325-0.54166l0.02708-0.02708c0.28309-1.1425,0.28324-1.6193,0.29792-2.0312v-0.02708c0-1.3275-1.1933-2.3562-2.6-2.3562z"/>
 <path opacity="0.7" style="block-progression:tb;color:#000000;text-transform:none;text-indent:0;" d="m12.388,15.483c-0.96482,0-1.7833,0.70559-1.7833,1.6162,0.0069,0.28781,0.03259,0.64272,0.20434,1.3933v0.01858l0.01857,0.01857c0.05513,0.15793,0.13537,0.24827,0.24149,0.37154,0.10612,0.12326,0.23263,0.26834,0.35294,0.39011,0.01415,0.01433,0.02323,0.0232,0.03715,0.03716,0.02386,0.10383,0.05276,0.21557,0.0743,0.3158,0.05732,0.26668,0.05144,0.45553,0.03716,0.52015-0.4146,0.1454-0.9304,0.3187-1.3932,0.5199-0.2598,0.113-0.4949,0.2139-0.6873,0.3344-0.1923,0.1206-0.3836,0.2116-0.4458,0.483-0.000797,0.01237-0.000797,0.02479,0,0.03716-0.06076,0.55788-0.15266,1.3783-0.22291,1.932-0.015166,0.11656,0.046264,0.23943,0.14861,0.29723,0.84033,0.45393,2.1312,0.63663,3.418,0.63161,1.2868-0.005,2.5674-0.19845,3.3808-0.63161,0.10234-0.0578,0.16378-0.18067,0.14861-0.29723-0.0224-0.173-0.05-0.5633-0.0743-0.9474-0.0243-0.384-0.0454-0.7617-0.0743-0.9845-0.0101-0.0552-0.0362-0.1074-0.0743-0.1486-0.2584-0.3086-0.6445-0.4973-1.096-0.6874-0.4122-0.1735-0.8954-0.3538-1.3746-0.5573-0.02682-0.05975-0.05346-0.23358,0-0.50157,0.01436-0.07196,0.03684-0.14903,0.05573-0.22292,0.04503-0.05044,0.08013-0.09166,0.13003-0.14861,0.1064-0.1215,0.2207-0.2489,0.3157-0.3715,0.0951-0.1226,0.1728-0.2279,0.223-0.3715l0.01857-0.01858c0.1941-0.7837,0.1942-1.1107,0.2043-1.3933v-0.01857c0-0.91058-0.81848-1.6162-1.7833-1.6162zm5.101-1.4831c-1.4067,0-2.6,1.0287-2.6,2.3562,0.01,0.4196,0.04751,0.93701,0.29791,2.0312v0.02708l0.02708,0.02708c0.08038,0.23025,0.19736,0.36196,0.35208,0.54166s0.33917,0.39121,0.51458,0.56874c0.02064,0.02089,0.03386,0.03383,0.05416,0.05418,0.03479,0.15137,0.07693,0.31428,0.10833,0.46041,0.08357,0.38879,0.07499,0.66411,0.05417,0.75832-0.6045,0.2122-1.3565,0.465-2.0312,0.7583-0.3789,0.1647-0.7217,0.3118-1.0021,0.4875-0.28044,0.17574-0.55934,0.30851-0.64999,0.70416-0.0012,0.01804-0.0012,0.03613,0,0.05418-0.08858,0.81334-0.22257,2.0094-0.325,2.8166-0.02211,0.16993,0.06745,0.34906,0.21666,0.43333,1.2252,0.66179,3.1072,0.92814,4.9833,0.92082,1.8761-0.0073,3.7431-0.28932,4.9291-0.92082,0.14921-0.08427,0.23878-0.2634,0.21666-0.43333-0.0327-0.25234-0.07287-0.82136-0.10833-1.3812-0.03546-0.55988-0.06625-1.1106-0.10833-1.4354-0.01468-0.0805-0.05274-0.15661-0.10833-0.21666-0.377-0.4498-0.94-0.7248-1.598-1.002-0.601-0.253-1.306-0.5158-2.004-0.8125-0.0391-0.08711-0.07795-0.34054,0-0.73124,0.02093-0.10491,0.05371-0.21727,0.08125-0.325,0.06566-0.07354,0.11683-0.13363,0.18958-0.21666,0.15516-0.17709,0.32189-0.36287,0.46041-0.54166s0.25186-0.33217,0.325-0.54166l0.02708-0.02708c0.28309-1.1425,0.28324-1.6193,0.29792-2.0312v-0.02708c0-1.3275-1.1933-2.3562-2.6-2.3562z"/>
</svg>
