<svg viewBox="0 0 16 16" height="16" width="16" xmlns="http://www.w3.org/2000/svg" xml:space="preserve" style="fill-rule:evenodd;clip-rule:evenodd;stroke-linejoin:round;stroke-miterlimit:2"><path d="M4 20c-.55 0-1.021-.196-1.412-.587A1.927 1.927 0 0 1 2 18V6c0-.55.196-1.021.588-1.413A1.926 1.926 0 0 1 4 4h6l2 2h8c.55 0 1.021.196 1.413.587.391.392.587.863.587 1.413v10a1.93 1.93 0 0 1-.587 1.413A1.93 1.93 0 0 1 20 20H4Zm5.978-3.694h4.063a.655.655 0 0 0 .478-.199.652.652 0 0 0 .199-.479v-3.385a.65.65 0 0 0-.199-.478.651.651 0 0 0-.478-.199h-.339v-.677c0-.468-.165-.868-.495-1.198a1.63 1.63 0 0 0-1.197-.495c-.469 0-.868.165-1.198.495-.33.33-.495.73-.495 1.198v.677h-.339a.651.651 0 0 0-.478.199.653.653 0 0 0-.199.478v3.385c0 .187.067.346.199.479a.655.655 0 0 0 .478.199Zm1.016-4.74v-.677a.98.98 0 0 1 .296-.719.979.979 0 0 1 .72-.297c.282 0 .522.099.719.297a.98.98 0 0 1 .296.719v.677h-2.031Zm1.016 3.047a.652.652 0 0 1-.479-.199.654.654 0 0 1-.198-.478c0-.186.066-.346.198-.478a.652.652 0 0 1 .479-.199c.186 0 .345.066.478.199a.653.653 0 0 1 .199.478.655.655 0 0 1-.199.478.651.651 0 0 1-.478.199Z" style="fill:#0082c9" transform="matrix(.7 0 0 .7 -.4 -.4)"/></svg>