<svg width="16" height="16" version="1.1" viewBox="0 0 16 16" xmlns="http://www.w3.org/2000/svg"><path d="M1.46 2c-.25 0-.46.21-.46.46v11.08c0 .258.202.46.46.46h13.08c.258 0 .46-.202.46-.46V4.462c0-.25-.21-.463-.46-.463H8L6 2H1.46zm6.517 3.793h3.57v3.385L10.355 8.05 8.57 9.743l-1.19-1.13 1.786-1.69-1.19-1.13zm-2.38.564H7.38l.597.565h-2.38v4.514h4.758V9.178l.596.564v1.694c0 .312-.265.564-.595.564h-4.76c-.33 0-.595-.252-.595-.564V6.922c0-.313.266-.565.596-.565z" fill="#0082c9" fill-rule="evenodd"/></svg>
