<?xml version="1.0" encoding="UTF-8" standalone="no"?>
<svg xmlns:rdf="http://www.w3.org/1999/02/22-rdf-syntax-ns#" xmlns="http://www.w3.org/2000/svg" height="32px" width="32px" version="1.1" xmlns:cc="http://creativecommons.org/ns#" xmlns:dc="http://purl.org/dc/elements/1.1/">
 <defs>
  <linearGradient id="c" x1="27.557" gradientUnits="userSpaceOnUse" y1="7.1627" gradientTransform="matrix(.89186 0 0 1.0539 3.1208 3.4122)" x2="27.557" y2="21.387">
   <stop stop-color="#fff" offset="0"/>
   <stop stop-color="#fff" stop-opacity=".23529" offset=".0097359"/>
   <stop stop-color="#fff" stop-opacity=".15686" offset=".99001"/>
   <stop stop-color="#fff" stop-opacity=".39216" offset="1"/>
  </linearGradient>
  <linearGradient id="d" x1="35.793" gradientUnits="userSpaceOnUse" y1="17.118" gradientTransform="matrix(.64444 0 0 .64286 .53352 -1.1074)" x2="35.793" y2="43.761">
   <stop stop-color="#b4cee1" offset="0"/>
   <stop stop-color="#5d9fcd" offset="1"/>
  </linearGradient>
  <linearGradient id="e" x1="302.86" gradientUnits="userSpaceOnUse" y1="366.65" gradientTransform="matrix(.051143 0 0 .015916 -2.49 22.299)" x2="302.86" y2="609.51">
   <stop stop-opacity="0" offset="0"/>
   <stop offset=".5"/>
   <stop stop-opacity="0" offset="1"/>
  </linearGradient>
  <radialGradient id="b" gradientUnits="userSpaceOnUse" cy="486.65" cx="605.71" gradientTransform="matrix(.019836 0 0 .015916 16.388 22.299)" r="117.14">
   <stop offset="0"/>
   <stop stop-opacity="0" offset="1"/>
  </radialGradient>
  <radialGradient id="a" gradientUnits="userSpaceOnUse" cy="486.65" cx="605.71" gradientTransform="matrix(-.019836 0 0 .015916 15.601 22.299)" r="117.14">
   <stop offset="0"/>
   <stop stop-opacity="0" offset="1"/>
  </radialGradient>
  <linearGradient id="f" x1="21.37" gradientUnits="userSpaceOnUse" y1="4.7324" gradientTransform="matrix(.54384 0 0 .61466 3.2689 3.0908)" x2="21.37" y2="34.143">
   <stop stop-color="#fff" offset="0"/>
   <stop stop-color="#fff" stop-opacity=".23529" offset=".11063"/>
   <stop stop-color="#fff" stop-opacity=".15686" offset=".99001"/>
   <stop stop-color="#fff" stop-opacity=".39216" offset="1"/>
  </linearGradient>
  <linearGradient id="g" x1="62.989" gradientUnits="userSpaceOnUse" y1="13" gradientTransform="matrix(.61905 0 0 .61905 -30.392 -.57170)" x2="62.989" y2="16">
   <stop stop-color="#f9f9f9" offset="0"/>
   <stop stop-color="#d8d8d8" offset="1"/>
  </linearGradient>
  <linearGradient id="h" x1="-51.786" gradientUnits="userSpaceOnUse" x2="-51.786" gradientTransform="matrix(.50703 0 0 .503 68.029 -.67050)" y1="53.514" y2="3.6337">
   <stop stop-opacity=".32174" offset="0"/>
   <stop stop-opacity=".27826" offset="1"/>
  </linearGradient>
 </defs>
 <path opacity=".8" style="color:#000000" d="m4.0002 4.4998c-0.43342 0.005-0.5 0.21723-0.5 0.6349v1.365c-1.2457 0-1-0.002-1 0.54389 0.0216 6.5331 0 6.9014 0 7.4561 0.90135 0 27-2.349 27-3.36v-4.0964c0-0.41767-0.34799-0.54876-0.78141-0.54389h-14.219v-1.365c0-0.41767-0.26424-0.63977-0.69767-0.6349h-9.8023z" stroke="url(#h)" fill="none"/>
 <path style="color:#000000" d="m4.0002 4.9997v2h-1v4.0003h26v-4.0003h-15v-2h-10z" fill="url(#g)"/>
 <path style="color:#000000" stroke-linecap="round" d="m4.5002 5.4997v2h-1v4.0003h25v-4.0003h-15v-2h-9z" stroke="url(#f)" fill="none"/>
 <g transform="translate(.00017936 -3.0003)">
  <rect opacity=".3" height="3.8653" width="24.695" y="28.135" x="3.6472" fill="url(#e)"/>
  <path opacity=".3" d="m28.342 28.135v3.865c1.0215 0.0073 2.4695-0.86596 2.4695-1.9328s-1.1399-1.9323-2.4695-1.9323z" fill="url(#b)"/>
  <path opacity=".3" d="m3.6472 28.135v3.865c-1.0215 0.0073-2.4695-0.86596-2.4695-1.9328s1.1399-1.9323 2.4695-1.9323z" fill="url(#a)"/>
 </g>
 <path style="color:#000000" d="m1.927 9.4997c-0.691 0.0796-0.322 0.9023-0.377 1.3653 0.0802 0.29906 0.59771 15.718 0.59771 16.247 0 0.46018 0.22667 0.38222 0.80101 0.38222h26.397c0.61872 0.0143 0.48796 0.007 0.48796-0.38947 0.0452-0.20269 0.63993-16.978 0.66282-17.243 0-0.279 0.0581-0.3621-0.30493-0.3621h-28.265z" fill="url(#d)"/>
 <path opacity=".5" style="color:#000000" d="m2.5002 10.5 0.62498 16h25.749l0.62498-16z" stroke="url(#c)" stroke-linecap="round" fill="none"/>
 <path opacity=".3" stroke-linejoin="round" style="color:#000000" d="m1.927 9.4997c-0.691 0.0796-0.322 0.9023-0.377 1.3653 0.0802 0.29906 0.59771 15.718 0.59771 16.247 0 0.46018 0.22667 0.38222 0.80101 0.38222h26.397c0.61872 0.0143 0.48796 0.007 0.48796-0.38947 0.0452-0.20269 0.63993-16.978 0.66282-17.243 0-0.279 0.0581-0.3621-0.30493-0.3621h-28.265z" stroke="#000" stroke-linecap="round" fill="none"/>
 <g opacity=".7" transform="matrix(.67042 -.67042 .67042 .67042 8.6253 104.14)">
  <path style="block-progression:tb;color:#000000;text-transform:none;text-indent:0" d="m69.5-61.5c-1.9217 0-3.5 1.5783-3.5 3.5 0 0.17425 0.0062 0.33232 0.03125 0.5h2.0625c-0.053-0.156-0.094-0.323-0.094-0.5 0-0.8483 0.6517-1.5 1.5-1.5h5c0.8483 0 1.5 0.6517 1.5 1.5s-0.6517 1.5-1.5 1.5h-1.6875c-0.28733 0.79501-0.78612 1.4793-1.4375 2h3.125c1.9217 0 3.5-1.5783 3.5-3.5s-1.5783-3.5-3.5-3.5h-5z"/>
  <path style="block-progression:tb;color:#000000;text-transform:none;text-indent:0" d="m68.5-54.5c1.9217 0 3.5-1.5783 3.5-3.5 0-0.17425-0.0062-0.33232-0.03125-0.5h-2.0625c0.053 0.156 0.094 0.323 0.094 0.5 0 0.8483-0.6517 1.5-1.5 1.5h-5c-0.8483 0-1.5-0.6517-1.5-1.5s0.6517-1.5 1.5-1.5h1.6875c0.28733-0.79501 0.78612-1.4793 1.4375-2h-3.125c-1.9217 0-3.5 1.5783-3.5 3.5s1.5783 3.5 3.5 3.5h5z"/>
 </g>
</svg>
