<svg viewBox="0 0 16 16" height="16" width="16" xmlns="http://www.w3.org/2000/svg" xml:space="preserve" style="fill-rule:evenodd;clip-rule:evenodd;stroke-linejoin:round;stroke-miterlimit:2"><path d="M4 20c-.55 0-1.021-.196-1.412-.587A1.927 1.927 0 0 1 2 18V6c0-.55.196-1.021.588-1.413A1.926 1.926 0 0 1 4 4h6l2 2h8c.55 0 1.021.196 1.413.587.391.392.587.863.587 1.413v10a1.93 1.93 0 0 1-.587 1.413A1.93 1.93 0 0 1 20 20H4Zm7.079-5.841 3.69-3.691v1.429h.794V9.119h-2.778v.794h1.429l-3.691 3.69.556.556Zm-1.865 2.103h5.555a.768.768 0 0 0 .561-.233.768.768 0 0 0 .233-.561V12.69h-.794v2.778H9.214V9.913h2.777v-.794H9.214a.767.767 0 0 0-.561.233.765.765 0 0 0-.233.561v5.555c0 .218.078.405.233.561a.767.767 0 0 0 .561.233Z" style="fill:#0082c9" transform="matrix(.7 0 0 .7 -.4 -.4)"/></svg>