<svg xmlns="http://www.w3.org/2000/svg" width="16" height="16"><path fill="#0082c9" d="M1.5 2c-.25 0-.5.25-.5.5v11c0 .26.24.5.5.5h13c.26 0 .5-.241.5-.5v-9c0-.25-.25-.5-.5-.5H8L6 2H1.5zm8.75 3.5a1.25 1.25 0 0 1 1.25 1.25A1.25 1.25 0 0 1 10.25 8a1.25 1.25 0 0 1-.8-.291L6.997 8.935A1.25 1.25 0 0 1 7 9a1.25 1.25 0 0 1-.004.065L9.45 10.29A1.25 1.25 0 0 1 10.25 10a1.25 1.25 0 0 1 1.25 1.25 1.25 1.25 0 0 1-1.25 1.25A1.25 1.25 0 0 1 9 11.25a1.25 1.25 0 0 1 .004-.064L6.55 9.959a1.25 1.25 0 0 1-.801.291A1.25 1.25 0 0 1 4.5 9a1.25 1.25 0 0 1 1.25-1.25 1.25 1.25 0 0 1 .8.291l2.452-1.226A1.25 1.25 0 0 1 9 6.75a1.25 1.25 0 0 1 1.25-1.25z"/></svg>
