<svg viewBox="0 0 16 16" height="16" width="16" xmlns="http://www.w3.org/2000/svg" xml:space="preserve" style="fill-rule:evenodd;clip-rule:evenodd;stroke-linejoin:round;stroke-miterlimit:2"><path d="M4 20c-.55 0-1.021-.196-1.412-.587A1.927 1.927 0 0 1 2 18V6c0-.55.196-1.021.588-1.413A1.926 1.926 0 0 1 4 4h6l2 2h8c.55 0 1.021.196 1.413.587.391.392.587.863.587 1.413v10a1.93 1.93 0 0 1-.587 1.413A1.93 1.93 0 0 1 20 20H4Zm10.549-2.89c.368 0 .681-.129.939-.387a1.28 1.28 0 0 0 .387-.94 1.28 1.28 0 0 0-.387-.94 1.279 1.279 0 0 0-.939-.387c-.17 0-.332.031-.487.094a1.448 1.448 0 0 0-.42.26l-3.119-1.814a.82.82 0 0 0 .034-.149 1.279 1.279 0 0 0 0-.32.832.832 0 0 0-.034-.15l3.119-1.813c.125.11.265.197.42.26.155.062.317.094.487.094.368 0 .681-.129.939-.387a1.28 1.28 0 0 0 .387-.94 1.28 1.28 0 0 0-.387-.94 1.279 1.279 0 0 0-.939-.387 1.28 1.28 0 0 0-.94.387 1.28 1.28 0 0 0-.343 1.249l-3.118 1.814a1.466 1.466 0 0 0-.421-.26 1.278 1.278 0 0 0-.486-.094 1.28 1.28 0 0 0-.94.387 1.28 1.28 0 0 0-.387.94c0 .368.129.682.387.94.258.258.571.387.94.387.169 0 .331-.032.486-.094.155-.063.295-.149.421-.26l3.118 1.813a1.104 1.104 0 0 0-.044.31c0 .369.129.682.387.94.258.258.571.387.94.387Z" style="fill:#0082c9" transform="matrix(.7 0 0 .7 -.4 -.4)"/></svg>