<svg xmlns="http://www.w3.org/2000/svg" height="16" viewBox="0 0 16 16" width="16" version="1.1"><path fill="#0082c9" d="m1.5 2c-0.25 0-0.5 0.25-0.5 0.5v11c0 0.26 0.24 0.5 0.5 0.5h13c0.26 0 0.5-0.241 0.5-0.5v-9c0-0.25-0.25-0.5-0.5-0.5h-6.5l-2-2h-4.5zm8.334 3.5c0.434-0.0019 0.866 0.1545 1.186 0.4746 0.64 0.6407 0.64 1.742 0 2.3828l-0.85 0.8496c0.027-0.4496-0.019-0.7497-0.3067-1.1562l0.4237-0.4258c0.275-0.2752 0.252-0.6283 0.002-0.916-0.27-0.2699-0.644-0.2702-0.916 0.0019l-1.6464 1.6465c-0.2829 0.283-0.2956 0.6223-0.002 0.916l-0.7305 0.7326c-0.2872-0.2874-0.4858-0.6731-0.5117-1.1076-0.0256-0.4344 0.1457-0.9071 0.5117-1.2734l1.6465-1.6484c0.3245-0.3147 0.7598-0.4747 1.1934-0.4766zm-0.8262 2.4902c0.2882 0.2871 0.4869 0.6743 0.5117 1.1094 0.0254 0.4352-0.1449 0.9064-0.5117 1.2734l-1.6484 1.647c-0.6396 0.639-1.7395 0.639-2.3789 0-0.6396-0.64-0.6415-1.738 0-2.3794l0.8613-0.8633c-0.0263 0.4493 0.0227 0.7505 0.3105 1.1563l-0.4394 0.4394c-0.2588 0.259-0.3242 0.59 0 0.914 0.2438 0.244 0.5557 0.307 0.916 0l1.6465-1.6464c0.2647-0.2648 0.2866-0.6331 0.0019-0.9179l0.7305-0.7325z"/></svg>
