<svg width="16" height="16" viewbox="0 0 16 16" xmlns="http://www.w3.org/2000/svg"><path d="m1.4609 2c-0.25 0-0.4609 0.2109-0.4609 0.4609v11.078c0 0.258 0.2029 0.461 0.4609 0.461h13.078c0.258 0 0.461-0.203 0.461-0.461v-9.0761c0-0.25-0.211-0.4649-0.461-0.4649h-6.539l-2-1.998h-4.5391zm6.5391 3.8008c0.8836 0 1.5996 0.7159 1.5996 1.5996v0.7988h0.4004v2.8008h-4v-2.8008h0.4004v-0.7988c0-0.8837 0.716-1.5996 1.5996-1.5996zm0 0.7988c-0.4419 0-0.8008 0.3589-0.8008 0.8008v0.7988h1.6016v-0.7988c0-0.4419-0.3589-0.8008-0.8008-0.8008z" fill="#0082c9" fill-rule="evenodd"/></svg>
