<svg xmlns="http://www.w3.org/2000/svg" height="16" width="16" version="1"><path d="M1.46 2c-.25 0-.46.21-.46.46v11.08c0 .258.202.46.46.46h13.08c.258 0 .46-.202.46-.46V4.462c0-.25-.21-.463-.46-.463H8L6 2H1.46zm8.384 3.5c.425 0 .85.16 1.174.482a1.668 1.668 0 0 1 0 2.348l-1.05 1.047a2.14 2.14 0 0 0-.187-1.152l.566-.565a.7.7 0 0 0 0-1.006.7.7 0 0 0-1.006 0L7.664 8.33a.7.7 0 0 0 .2 1.14l-.692.692a1.665 1.665 0 0 1-.178-2.502L8.67 5.982A1.655 1.655 0 0 1 9.844 5.5zM8.828 7.838a1.667 1.667 0 0 1 .178 2.502v.002L7.33 12.018a1.668 1.668 0 0 1-2.348 0 1.668 1.668 0 0 1 0-2.348l1.05-1.047c-.045.393.017.79.187 1.152l-.566.565a.7.7 0 0 0 0 1.006.7.7 0 0 0 1.006 0L8.336 9.67a.7.7 0 0 0-.2-1.14l.692-.692z" fill-rule="evenodd" fill="#0082c9"/></svg>