<?xml version="1.0" encoding="UTF-8" standalone="no"?>
<svg xmlns:rdf="http://www.w3.org/1999/02/22-rdf-syntax-ns#" xmlns="http://www.w3.org/2000/svg" height="32px" width="32px" version="1.1" xmlns:cc="http://creativecommons.org/ns#" xmlns:dc="http://purl.org/dc/elements/1.1/">
 <defs>
  <linearGradient id="c" y2="21.387" gradientUnits="userSpaceOnUse" x2="27.557" gradientTransform="matrix(.89186 0 0 1.0539 3.1208 3.4122)" y1="7.1627" x1="27.557">
   <stop stop-color="#fff" offset="0"/>
   <stop stop-color="#fff" stop-opacity=".23529" offset=".0097359"/>
   <stop stop-color="#fff" stop-opacity=".15686" offset=".99001"/>
   <stop stop-color="#fff" stop-opacity=".39216" offset="1"/>
  </linearGradient>
  <linearGradient id="d" y2="36.658" gradientUnits="userSpaceOnUse" x2="22.809" gradientTransform="matrix(.74675 0 0 .65549 -1.9219 -.83270)" y1="49.629" x1="22.935">
   <stop stop-color="#0a0a0a" stop-opacity=".498" offset="0"/>
   <stop stop-color="#0a0a0a" stop-opacity="0" offset="1"/>
  </linearGradient>
  <linearGradient id="e" y2="43.761" gradientUnits="userSpaceOnUse" x2="35.793" gradientTransform="matrix(.64444 0 0 .64286 .53352 -1.1074)" y1="17.118" x1="35.793">
   <stop stop-color="#b4cee1" offset="0"/>
   <stop stop-color="#5d9fcd" offset="1"/>
  </linearGradient>
  <linearGradient id="f" y2="609.51" gradientUnits="userSpaceOnUse" x2="302.86" gradientTransform="matrix(.051143 0 0 .015916 -2.49 22.299)" y1="366.65" x1="302.86">
   <stop stop-opacity="0" offset="0"/>
   <stop offset=".5"/>
   <stop stop-opacity="0" offset="1"/>
  </linearGradient>
  <radialGradient id="b" gradientUnits="userSpaceOnUse" cy="486.65" cx="605.71" gradientTransform="matrix(.019836 0 0 .015916 16.388 22.299)" r="117.14">
   <stop offset="0"/>
   <stop stop-opacity="0" offset="1"/>
  </radialGradient>
  <radialGradient id="a" gradientUnits="userSpaceOnUse" cy="486.65" cx="605.71" gradientTransform="matrix(-.019836 0 0 .015916 15.601 22.299)" r="117.14">
   <stop offset="0"/>
   <stop stop-opacity="0" offset="1"/>
  </radialGradient>
  <linearGradient id="g" y2="34.143" gradientUnits="userSpaceOnUse" x2="21.37" gradientTransform="matrix(.54384 0 0 .61466 3.2689 3.0908)" y1="4.7324" x1="21.37">
   <stop stop-color="#fff" offset="0"/>
   <stop stop-color="#fff" stop-opacity=".23529" offset=".11063"/>
   <stop stop-color="#fff" stop-opacity=".15686" offset=".99001"/>
   <stop stop-color="#fff" stop-opacity=".39216" offset="1"/>
  </linearGradient>
  <linearGradient id="h" y2="16" gradientUnits="userSpaceOnUse" x2="62.989" gradientTransform="matrix(.61905 0 0 .61905 -30.392 -.57170)" y1="13" x1="62.989">
   <stop stop-color="#f9f9f9" offset="0"/>
   <stop stop-color="#d8d8d8" offset="1"/>
  </linearGradient>
  <linearGradient id="i" y2="3.6337" gradientUnits="userSpaceOnUse" y1="53.514" gradientTransform="matrix(.50703 0 0 .503 68.029 -.67050)" x2="-51.786" x1="-51.786">
   <stop stop-opacity=".32174" offset="0"/>
   <stop stop-opacity=".27826" offset="1"/>
  </linearGradient>
 </defs>
 <path opacity=".8" style="color:#000000" d="m4.0002 4.4998c-0.43342 0.005-0.5 0.21723-0.5 0.6349v1.365c-1.2457 0-1-0.002-1 0.54389 0.0216 6.5331 0 6.9014 0 7.4561 0.90135 0 27-2.349 27-3.36v-4.0964c0-0.41767-0.34799-0.54876-0.78141-0.54389h-14.219v-1.365c0-0.41767-0.26424-0.63977-0.69767-0.6349h-9.8022z" stroke="url(#i)" fill="none"/>
 <path style="color:#000000" d="m4.0002 4.9997v2h-1v4.0003h26v-4.0003h-15v-2h-9.9998z" fill="url(#h)"/>
 <path style="color:#000000" stroke-linecap="round" d="m4.5002 5.4997v2h-1v4.0003h25v-4.0003h-15v-2h-8.9998z" stroke="url(#g)" fill="none"/>
 <g transform="translate(.00017553 -3.0003)">
  <rect opacity=".3" height="3.8653" width="24.695" y="28.135" x="3.6472" fill="url(#f)"/>
  <path opacity=".3" d="m28.342 28.135v3.865c1.0215 0.0073 2.4695-0.86596 2.4695-1.9328s-1.1399-1.9323-2.4695-1.9323z" fill="url(#b)"/>
  <path opacity=".3" d="m3.6472 28.135v3.865c-1.0215 0.0073-2.4695-0.86596-2.4695-1.9328s1.1399-1.9323 2.4695-1.9323z" fill="url(#a)"/>
 </g>
 <path style="color:#000000" d="m1.927 9.4997c-0.69105 0.0796-0.32196 0.90258-0.37705 1.3654 0.0802 0.29906 0.59771 15.718 0.59771 16.247 0 0.46018 0.22667 0.38222 0.80101 0.38222h26.397c0.61872 0.0143 0.48796 0.007 0.48796-0.38947 0.0452-0.20269 0.63993-16.978 0.66282-17.243 0-0.279 0.0581-0.3621-0.30493-0.3621h-28.266z" fill="url(#e)"/>
 <path opacity=".4" d="m1.682 8.9997 28.636 0.00027c0.4137 0 0.68181 0.29209 0.68181 0.65523l-0.6735 17.712c0.01 0.45948-0.1364 0.64166-0.61707 0.63203l-27.256-0.011c-0.4137 0-0.83086-0.27118-0.83086-0.63432l-0.62216-17.699c0-0.36314 0.26812-0.65549 0.68182-0.65549z" fill="url(#d)"/>
 <path opacity=".5" style="color:#000000" d="m2.5002 10.5 0.62498 16h25.749l0.62498-16z" stroke="url(#c)" stroke-linecap="round" fill="none"/>
 <path opacity=".3" stroke-linejoin="round" style="color:#000000" d="m1.927 9.4997c-0.69105 0.0796-0.32196 0.90258-0.37705 1.3654 0.0802 0.29906 0.59771 15.718 0.59771 16.247 0 0.46018 0.22667 0.38222 0.80101 0.38222h26.397c0.61872 0.0143 0.48796 0.007 0.48796-0.38947 0.0452-0.20269 0.63993-16.978 0.66282-17.243 0-0.279 0.0581-0.3621-0.30493-0.3621h-28.266z" stroke="#000" stroke-linecap="round" fill="none"/>
</svg>
