<svg xmlns="http://www.w3.org/2000/svg" height="16" width="16" version="1"><path d="M1.46 2c-.25 0-.46.21-.46.46v11.08c0 .258.202.46.46.46h13.08c.258 0 .46-.202.46-.46V4.462c0-.25-.21-.463-.46-.463H8L6 2H1.46zm8.653 3.494c.68 0 1.227.55 1.227 1.23a1.227 1.227 0 0 1-2.022.936l-2.37 1.207c.004.035.01.072.01.108 0 .064-.01.128-.02.19l2.35 1.198c.217-.198.507-.32.825-.32.68 0 1.23.552 1.23 1.23 0 .68-.55 1.227-1.23 1.227a1.227 1.227 0 0 1-1.228-1.227c0-.022.003-.046.004-.068L6.456 9.97c-.204.15-.457.237-.73.237a1.225 1.225 0 0 1 0-2.453c.304 0 .584.11.798.293L8.893 6.84c-.004-.037-.008-.076-.008-.113 0-.68.55-1.227 1.228-1.227v-.006z" fill-rule="evenodd" fill="#0082c9"/></svg>