<svg xmlns="http://www.w3.org/2000/svg" width="16" height="16"><path fill="#0082c9" d="M1.5 2c-.25 0-.5.25-.5.5v11c0 .26.24.5.5.5h13c.26 0 .5-.241.5-.5v-9c0-.25-.25-.5-.5-.5H8L6 2H1.5zm8.334 3.5c.434-.002.866.154 1.186.475.64.64.64 1.742 0 2.382l-.85.85c.027-.45-.019-.75-.307-1.156l.424-.426c.275-.275.252-.628.002-.916-.27-.27-.644-.27-.916.002L7.727 8.357c-.283.283-.296.623-.002.916l-.73.733a1.716 1.716 0 0 1-.513-1.108c-.025-.434.146-.907.512-1.273l1.647-1.648c.324-.315.76-.475 1.193-.477zm-.826 2.49c.288.287.487.674.512 1.11.025.435-.145.906-.512 1.273L7.359 12.02c-.64.639-1.74.639-2.379 0-.64-.64-.641-1.738 0-2.38l.862-.863c-.027.45.022.75.31 1.157l-.44.439c-.258.259-.323.59 0 .914.245.244.557.307.917 0l1.646-1.646c.265-.265.287-.634.002-.918l.73-.733z"/></svg>
