<?xml version="1.0" encoding="UTF-8" standalone="no"?>
<svg xmlns="http://www.w3.org/2000/svg" height="16" width="16" version="1.0">
 <path d="m1.4609 2c-0.2505 0-0.4609 0.2104-0.4609 0.4609v11.078c0 0.259 0.2021 0.461 0.4609 0.461h13.078c0.259 0 0.461-0.202 0.461-0.461v-9.0761c0-0.2504-0.21-0.4629-0.461-0.4629h-6.539l-2-2h-4.5391zm8.6521 3.4941c0.679 0 1.227 0.5503 1.227 1.2286 0 0.6782-0.548 1.2285-1.227 1.2285-0.3022 0-0.5806-0.1097-0.7946-0.291l-2.3692 1.207c0.003 0.035 0.0078 0.0714 0.0078 0.1074 0 0.0641-0.0081 0.1281-0.0175 0.1895l2.3476 1.1989c0.2182-0.198 0.5079-0.32 0.8259-0.32 0.679 0 1.229 0.552 1.229 1.23 0 0.679-0.55 1.227-1.229 1.227-0.678 0-1.2282-0.548-1.2282-1.227 0-0.022 0.0027-0.046 0.0039-0.068l-2.4317-1.2362c-0.2039 0.1512-0.4574 0.2382-0.7304 0.2382-0.6783 0-1.2266-0.5483-1.2266-1.2265 0-0.6783 0.5483-1.2266 1.2266-1.2266 0.3043 0 0.5842 0.1096 0.7988 0.293l2.3672-1.2071c-0.0033-0.0366-0.0078-0.0757-0.0078-0.1132 0-0.6783 0.5502-1.2266 1.2282-1.2266v-0.0059z" fill-rule="evenodd" fill="#0082c9"/>
</svg>
