<?xml version="1.0" encoding="UTF-8" standalone="no"?>
<svg xmlns:rdf="http://www.w3.org/1999/02/22-rdf-syntax-ns#" xmlns="http://www.w3.org/2000/svg" height="32px" width="32px" version="1.1" xmlns:cc="http://creativecommons.org/ns#" xmlns:dc="http://purl.org/dc/elements/1.1/">
 <defs>
  <linearGradient id="p" y2="21.387" gradientUnits="userSpaceOnUse" x2="27.557" gradientTransform="matrix(.89186 0 0 1.0539 3.1208 5.4125)" y1="7.1627" x1="27.557">
   <stop stop-color="#fff" offset="0"/>
   <stop stop-color="#fff" stop-opacity=".23529" offset=".0097359"/>
   <stop stop-color="#fff" stop-opacity=".15686" offset=".99001"/>
   <stop stop-color="#fff" stop-opacity=".39216" offset="1"/>
  </linearGradient>
  <linearGradient id="o" y2="36.658" gradientUnits="userSpaceOnUse" x2="22.809" gradientTransform="matrix(.74675 0 0 .65549 -1.9219 1.1676)" y1="49.629" x1="22.935">
   <stop stop-color="#0a0a0a" stop-opacity=".498" offset="0"/>
   <stop stop-color="#0a0a0a" stop-opacity="0" offset="1"/>
  </linearGradient>
  <linearGradient id="n" y2="43.761" gradientUnits="userSpaceOnUse" x2="35.793" gradientTransform="matrix(.64444 0 0 .64286 .53352 .89286)" y1="17.118" x1="35.793">
   <stop stop-color="#b4cee1" offset="0"/>
   <stop stop-color="#5d9fcd" offset="1"/>
  </linearGradient>
  <linearGradient id="m" y2="609.51" gradientUnits="userSpaceOnUse" x2="302.86" gradientTransform="matrix(.051143 0 0 .015916 -2.49 22.299)" y1="366.65" x1="302.86">
   <stop stop-opacity="0" offset="0"/>
   <stop offset=".5"/>
   <stop stop-opacity="0" offset="1"/>
  </linearGradient>
  <radialGradient id="q" gradientUnits="userSpaceOnUse" cy="486.65" cx="605.71" gradientTransform="matrix(.019836 0 0 .015916 16.388 22.299)" r="117.14">
   <stop offset="0"/>
   <stop stop-opacity="0" offset="1"/>
  </radialGradient>
  <radialGradient id="r" gradientUnits="userSpaceOnUse" cy="486.65" cx="605.71" gradientTransform="matrix(-.019836 0 0 .015916 15.601 22.299)" r="117.14">
   <stop offset="0"/>
   <stop stop-opacity="0" offset="1"/>
  </radialGradient>
  <linearGradient id="l" y2="34.143" gradientUnits="userSpaceOnUse" x2="21.37" gradientTransform="matrix(.54384 0 0 .61466 3.2689 5.0911)" y1="4.7324" x1="21.37">
   <stop stop-color="#fff" offset="0"/>
   <stop stop-color="#fff" stop-opacity=".23529" offset=".11063"/>
   <stop stop-color="#fff" stop-opacity=".15686" offset=".99001"/>
   <stop stop-color="#fff" stop-opacity=".39216" offset="1"/>
  </linearGradient>
  <linearGradient id="k" y2="16" gradientUnits="userSpaceOnUse" x2="62.989" gradientTransform="matrix(.61905 0 0 .61905 -30.392 1.4286)" y1="13" x1="62.989">
   <stop stop-color="#f9f9f9" offset="0"/>
   <stop stop-color="#d8d8d8" offset="1"/>
  </linearGradient>
  <linearGradient id="j" y2="3.6337" gradientUnits="userSpaceOnUse" y1="53.514" gradientTransform="matrix(.50703 0 0 .503 68.029 1.3298)" x2="-51.786" x1="-51.786">
   <stop stop-opacity=".32174" offset="0"/>
   <stop stop-opacity=".27826" offset="1"/>
  </linearGradient>
 </defs>
 <path opacity=".8" style="color:#000000" d="m4.0002 6.5001c-0.43342 0.005-0.5 0.21723-0.5 0.6349v1.365c-1.2457 0-1-0.002-1 0.54389 0.0216 6.5331 0 6.9014 0 7.4561 0.90135 0 27-2.349 27-3.36v-4.0961c0-0.41767-0.34799-0.54876-0.78141-0.54389h-14.219v-1.365c0-0.41767-0.26424-0.63977-0.69767-0.6349h-9.8023z" stroke="url(#j)" fill="none"/>
 <path style="color:#000000" d="m4.0002 7v2h-1v4h26v-4h-15v-2h-10z" fill="url(#k)"/>
 <path style="color:#000000" stroke-linecap="round" d="m4.5002 7.5v2h-1v4h25v-4h-15v-2h-9z" stroke="url(#l)" fill="none"/>
 <g transform="translate(.00017936 -1)">
  <rect opacity=".3" height="3.8653" width="24.695" y="28.135" x="3.6472" fill="url(#m)"/>
  <path opacity=".3" d="m28.342 28.135v3.865c1.0215 0.0073 2.4695-0.86596 2.4695-1.9328s-1.1399-1.9323-2.4695-1.9323z" fill="url(#q)"/>
  <path opacity=".3" d="m3.6472 28.135v3.865c-1.0215 0.0073-2.4695-0.86596-2.4695-1.9328s1.1399-1.9323 2.4695-1.9323z" fill="url(#r)"/>
 </g>
 <path style="color:#000000" d="m1.927 11.5c-0.69105 0.0796-0.32196 0.90258-0.37705 1.3654 0.0802 0.29906 0.59771 15.718 0.59771 16.247 0 0.46018 0.22667 0.38222 0.80101 0.38222h26.397c0.61872 0.0143 0.48796 0.007 0.48796-0.38947 0.0452-0.20269 0.63993-16.978 0.66282-17.243 0-0.279 0.0581-0.3621-0.30493-0.3621h-28.265z" fill="url(#n)"/>
 <path opacity=".4" d="m1.682 11 28.636 0.00027c0.4137 0 0.68181 0.29209 0.68181 0.65523l-0.6735 17.712c0.01 0.45948-0.1364 0.64166-0.61707 0.63203l-27.256-0.0115c-0.4137 0-0.83086-0.27118-0.83086-0.63432l-0.62244-17.698c0-0.36314 0.26812-0.65549 0.68182-0.65549z" fill="url(#o)"/>
 <path opacity=".5" style="color:#000000" d="m2.5002 12.5 0.62498 16h25.749l0.62498-16z" stroke="url(#p)" stroke-linecap="round" fill="none"/>
 <path opacity=".3" stroke-linejoin="round" style="color:#000000" d="m1.927 11.5c-0.69105 0.0796-0.32196 0.90258-0.37705 1.3654 0.0802 0.29906 0.59771 15.718 0.59771 16.247 0 0.46018 0.22667 0.38222 0.80101 0.38222h26.397c0.61872 0.0143 0.48796 0.007 0.48796-0.38947 0.0452-0.20269 0.63993-16.978 0.66282-17.243 0-0.279 0.0581-0.3621-0.30493-0.3621h-28.265z" stroke="#000" stroke-linecap="round" fill="none"/>
 <g opacity=".7" transform="translate(6.9998,-1024.4)">
  <path d="m12.228 1037.4c-1.3565 0-2.4592 1.0977-2.4592 2.4542 0 0.075 0.0084 0.1504 0.0149 0.2236l-4.7346 2.4145c-0.4291-0.3667-0.98611-0.5863-1.5947-0.5863-1.3565 0-2.4542 1.0977-2.4542 2.4543 0 1.3565 1.0977 2.4542 2.4542 2.4542 0.54607 0 1.0528-0.1755 1.4606-0.477l4.8637 2.4741c-0.0024 0.044-0.0099 0.089-0.0099 0.1342 0 1.3565 1.1027 2.4542 2.4592 2.4542s2.4542-1.0977 2.4542-2.4542-1.0977-2.4592-2.4542-2.4592c-0.63653 0-1.218 0.2437-1.6544 0.6409l-4.6953-2.4c0.01892-0.1228 0.03478-0.2494 0.03478-0.3775 0-0.072-0.0089-0.1437-0.0149-0.2137l4.7395-2.4145c0.42802 0.3627 0.98488 0.5813 1.5898 0.5813 1.3565 0 2.4542-1.1027 2.4542-2.4592s-1.0977-2.4542-2.4542-2.4542z"/>
 </g>
</svg>
