<?xml version="1.0" encoding="UTF-8" standalone="no"?>
<svg xmlns:rdf="http://www.w3.org/1999/02/22-rdf-syntax-ns#" xmlns="http://www.w3.org/2000/svg" height="32" width="32" version="1.0" xmlns:cc="http://creativecommons.org/ns#" xmlns:xlink="http://www.w3.org/1999/xlink" xmlns:dc="http://purl.org/dc/elements/1.1/">
 <defs>
  <linearGradient id="a">
   <stop offset="0"/>
   <stop stop-opacity="0" offset="1"/>
  </linearGradient>
  <linearGradient id="i" x1="22.056" gradientUnits="userSpaceOnUse" y1="15.834" gradientTransform="matrix(.85825 0 0 .86435 .35576 -11.07)" x2="22.056" y2="45.497">
   <stop stop-color="#575757" offset="0"/>
   <stop stop-color="#333" offset="1"/>
  </linearGradient>
  <radialGradient id="l" xlink:href="#a" gradientUnits="userSpaceOnUse" cy="36.686" cx="-6.1603" gradientTransform="matrix(.25444 0 0 .18504 6.1544 20.059)" r="14.098"/>
  <radialGradient id="m" xlink:href="#a" gradientUnits="userSpaceOnUse" cy="36.686" cx="-6.1603" gradientTransform="matrix(.83270 0 0 .18284 17.869 20.171)" r="14.098"/>
  <radialGradient id="n" xlink:href="#a" gradientUnits="userSpaceOnUse" cy="36.686" cx="-6.1603" gradientTransform="matrix(.69391 0 0 .18504 25.492 20.059)" r="14.098"/>
  <linearGradient id="j" x1="143.92" gradientUnits="userSpaceOnUse" y1="75.221" gradientTransform="matrix(.97891 0 0 .95244 -119.66 -63.433)" x2="143.92" y2="103.13">
   <stop stop-color="#f8b17e" offset="0"/>
   <stop stop-color="#e35d4f" offset=".3121"/>
   <stop stop-color="#c6262e" offset=".57054"/>
   <stop stop-color="#690b54" offset="1"/>
  </linearGradient>
  <linearGradient id="k" x1="153.41" gradientUnits="userSpaceOnUse" y1="98.785" gradientTransform="matrix(.97891 0 0 .95244 -119.66 -63.433)" x2="153.41" y2="75.221">
   <stop stop-color="#791235" offset="0"/>
   <stop stop-color="#dd3b27" offset="1"/>
  </linearGradient>
  <radialGradient id="o" xlink:href="#a" gradientUnits="userSpaceOnUse" cy="36.686" cx="-6.1603" gradientTransform="matrix(.25444 0 0 .18504 22.459 20.059)" r="14.098"/>
 </defs>
 <g fill-rule="evenodd">
  <path opacity=".2" d="m24.478 26.848a3.587 2.6087 0 1 1 -7.1739 0 3.587 2.6087 0 1 1 7.1739 0z" fill="url(#o)"/>
  <path stroke="url(#k)" d="m29.106 9.9132c-0.478-1.0813-1.642-0.968-2.441-1.1397-2.646-0.3044-5.287 0.181-7.504 1.6705-2.1399 1.4497-4.0763 3.4112-5.4365 5.9425-1.1823 2.2548-1.7132 5.267-0.96727 8.1364 0.58709 1.9316 2.3544 3.1247 3.845 2.803 2.2818-0.38055 3.9079-2.4984 5.2493-4.5646 0.60658-0.85208 0.97918-1.9805 1.6952-2.6966-0.1019 1.8363-0.14753 3.7435 0.26981 5.6082 0.2372 1.0995 1.1049 1.9662 1.9843 1.9261 0.89467-0.10266 1.5757-0.87918 2.3174-1.386 0.66706-0.59088 1.4312-1.0989 1.9035-1.9532-0.08137-1.4151-1.3465-0.52654-1.7881-0.04084-0.61732 0.97151-1.8927 0.19955-1.6199-1.1225 0.14283-3.0198 0.84698-5.8557 1.4425-8.7028 0.3348-1.5009 0.68722-2.9931 1.0492-4.4802h-0.000001zm-3.696 1.8848c-1.1333 3.5797-2.3575 7.223-4.4519 9.9984-0.98815 1.2662-2.437 2.4144-4.0344 1.8053-1.1039-0.48951-1.3597-2.0989-1.3836-3.3097-0.14247-3.5752 1.5838-6.5362 3.7419-8.3224 1.5043-1.1975 3.4487-1.7396 5.3479-1.1547 0.35854 0.1335 0.74746 0.47906 0.78012 0.983v-0.000001z" fill="url(#j)"/>
  <path opacity=".2" d="m31 26.848a9.7826 2.6087 0 1 1 -19.565 0 9.7826 2.6087 0 1 1 19.565 0z" fill="url(#n)"/>
  <path opacity=".05" d="m24.478 26.879a11.739 2.5777 0 1 1 -23.478 0 11.739 2.5777 0 1 1 23.478 0z" fill="url(#m)"/>
  <path opacity=".2" d="m8.1739 26.848a3.587 2.6087 0 1 1 -7.1739 0 3.587 2.6087 0 1 1 7.1739 0z" fill="url(#l)"/>
 </g>
 <path stroke="#333" stroke-width="1px" d="m19.663 27.5c-0.79147-2.2568-1.583-4.5913-2.3744-6.8481h-9.7253c-0.8117 2.284-1.6229 4.564-2.4341 6.848h-3.1514c3.0005-8.2609 6.001-15.739 9.0016-24h2.8497c3.0061 8.2609 6.0122 15.739 9.0183 24h-3.1849zm-3.337-10.109-3.913-10.391-3.913 10.391z" fill="url(#i)"/>
</svg>
