<svg viewBox="0 0 24 24" height="24" width="24" xmlns="http://www.w3.org/2000/svg" xml:space="preserve" style="fill-rule:evenodd;clip-rule:evenodd;stroke-linejoin:round;stroke-miterlimit:2"><path d="M5 21c-.55 0-1.021-.196-1.412-.587A1.927 1.927 0 0 1 3 19V5c0-.55.196-1.021.588-1.413A1.926 1.926 0 0 1 5 3h14c.55 0 1.021.196 1.413.587.391.392.587.863.587 1.413v14a1.93 1.93 0 0 1-.587 1.413A1.93 1.93 0 0 1 19 21H5Zm1-4h12l-3.75-5-3 4L9 13l-3 4Zm2.5-7a1.45 1.45 0 0 0 1.063-.437A1.45 1.45 0 0 0 10 8.5c0-.417-.146-.771-.437-1.062A1.447 1.447 0 0 0 8.5 7c-.417 0-.771.146-1.062.438A1.443 1.443 0 0 0 7 8.5c0 .417.146.771.438 1.063.291.291.645.437 1.062.437Z" style="fill:#969696;fill-rule:nonzero"/></svg>