<?xml version="1.0" encoding="UTF-8" standalone="no"?>
<svg
   xmlns:dc="http://purl.org/dc/elements/1.1/"
   xmlns:cc="http://creativecommons.org/ns#"
   xmlns:rdf="http://www.w3.org/1999/02/22-rdf-syntax-ns#"
   xmlns:svg="http://www.w3.org/2000/svg"
   xmlns="http://www.w3.org/2000/svg"
   xmlns:xlink="http://www.w3.org/1999/xlink"
   id="svg2"
   version="1.1"
   width="32"
   height="32">
  <metadata
     id="metadata48">
    <rdf:RDF>
      <cc:Work
         rdf:about="">
        <dc:format>image/svg+xml</dc:format>
        <dc:type
           rdf:resource="http://purl.org/dc/dcmitype/StillImage" />
        <dc:title></dc:title>
      </cc:Work>
    </rdf:RDF>
  </metadata>
  <defs
     id="defs4">
    <linearGradient
       id="a">
      <stop
         id="stop7"
         offset="0" />
      <stop
         id="stop9"
         offset="1"
         stop-opacity="0" />
    </linearGradient>
    <linearGradient
       y2="43"
       x2="24"
       gradientTransform="matrix(0.56757,0,0,0.72973,2.3784,-2.5135)"
       y1="5.5641"
       gradientUnits="userSpaceOnUse"
       x1="24"
       id="g">
      <stop
         id="stop12"
         offset="0"
         stop-color="#fff" />
      <stop
         id="stop14"
         offset=".036262"
         stop-opacity=".23529"
         stop-color="#fff" />
      <stop
         id="stop16"
         offset=".95056"
         stop-opacity=".15686"
         stop-color="#fff" />
      <stop
         id="stop18"
         offset="1"
         stop-opacity=".39216"
         stop-color="#fff" />
    </linearGradient>
    <linearGradient
       y2="47.013"
       x2="25.132"
       gradientTransform="matrix(0.65714,0,0,0.63012,0.22856,-1.0896)"
       y1=".98521"
       gradientUnits="userSpaceOnUse"
       x1="25.132"
       id="h">
      <stop
         id="stop21"
         offset="0"
         stop-color="#f4f4f4" />
      <stop
         id="stop23"
         offset="1"
         stop-color="#dbdbdb" />
    </linearGradient>
    <radialGradient
       r="117.14"
       gradientTransform="matrix(0.015663,0,0,0.0082353,17.61,25.981)"
       cx="605.71"
       cy="486.65"
       gradientUnits="userSpaceOnUse"
       xlink:href="#a"
       id="j" />
    <radialGradient
       r="117.14"
       gradientTransform="matrix(-0.015663,0,0,0.0082353,14.39,25.981)"
       cx="605.71"
       cy="486.65"
       gradientUnits="userSpaceOnUse"
       xlink:href="#a"
       id="k" />
    <linearGradient
       y2="609.51"
       x2="302.86"
       gradientTransform="matrix(0.045769,0,0,0.0082353,-0.54232,25.981)"
       y1="366.65"
       gradientUnits="userSpaceOnUse"
       x1="302.86"
       id="i">
      <stop
         id="stop28"
         offset="0"
         stop-opacity="0" />
      <stop
         id="stop30"
         offset=".5" />
      <stop
         id="stop32"
         offset="1"
         stop-opacity="0" />
    </linearGradient>
  </defs>
  <g
     style="display:inline"
     id="layer2">
    <g
       id="g8645">
      <rect
         style="opacity:0.15;fill:url(#i)"
         height="2"
         width="22.1"
         y="29"
         x="4.9499998"
         id="rect34" />
      <path
         style="opacity:0.15;fill:url(#k)"
         d="m 4.95,29 0,1.9999 C 4.14338,31.0037 3,30.55183 3,29.9998 3,29.4478 3.90012,28.99998 4.95,28.99998 Z"
         id="path36" />
      <path
         style="opacity:0.15;fill:url(#j)"
         d="m 27.05,29 0,1.9999 c 0.80661,0.0038 1.95,-0.44807 1.95,-1.0001 0,-0.552 -0.90012,-0.99982 -1.95,-0.99982 z"
         id="path38" />
      <path
         style="fill:url(#h)"
         d="m 4.5,0.49996 c 5.2705,0 23,0.00185 23,0.00185 l 2.8e-5,28.998 -23,0 0,-29 z"
         id="path40" />
      <path
         style="fill:none;stroke:url(#g);stroke-linecap:round;stroke-linejoin:round"
         d="m 26.5,28.5 -21,0 0,-27 21,0 z"
         id="path42" />
      <path
         style="opacity:0.3;fill:none;stroke:#000000;stroke-width:0.99992001;stroke-linejoin:round"
         d="m 4.5,0.49996 c 5.2705,0 23,0.00185 23,0.00185 l 2.8e-5,28.998 -23,0 0,-29 z"
         id="path44" />
    </g>
  </g>
  <g
     style="display:inline"
     id="layer1">
    <path
       style="clip-rule:evenodd;display:inline;opacity:0.89800002;fill:#5b2d8d;fill-rule:evenodd"
       d="m 7.788591,21.255219 16.422818,0 0,-15.5104382 -16.4228181,0 M 11.417045,8.618467 c 1.094446,0 1.981011,0.826101 1.981011,1.84514 0,1.019037 -0.886565,1.845817 -1.981011,1.845817 -1.093768,0 -1.97965,-0.8261 -1.97965,-1.845817 0,-1.019039 0.885882,-1.84514 1.97965,-1.84514 z m -2.610776,9.453279 2.93483,-2.201124 1.49391,1.090372 5.920613,-4.381864 2.20112,1.635895 1.493231,-1.08969 0,4.946411 z"
       id="path8625" />
    <path
       id="path8614"
       d="m 10.657628,12.066218 c -1.8593391,-0.82639 -1.2884191,-3.3318443 0.759609,-3.3335077 1.929708,-0.00157 2.62053,2.3939927 0.937913,3.2523997 -0.615125,0.313814 -1.119701,0.337922 -1.697522,0.08111 z"
       style="fill:#ffffff;fill-opacity:1" />
    <path
       id="path8616"
       d="m 10.391751,16.948557 1.339876,-1.003985 0.735084,0.526382 c 0.404296,0.28951 0.803324,0.486606 0.886729,0.437992 0.0834,-0.04861 1.420293,-1.028823 2.970862,-2.178242 l 2.819218,-2.089853 0.43502,0.322947 c 0.239261,0.177621 0.742396,0.544704 1.118079,0.815741 l 0.683058,0.492793 0.706772,-0.538949 0.706772,-0.538948 0,2.379054 0,2.379053 -6.870673,0 -6.8706736,0 1.3398766,-1.003985 z"
       style="fill:#ffffff;fill-opacity:1" />
  </g>
</svg>
