<?xml version="1.0" encoding="UTF-8" standalone="no"?>
<svg xmlns:rdf="http://www.w3.org/1999/02/22-rdf-syntax-ns#" xmlns="http://www.w3.org/2000/svg" height="32" width="32" version="1.0" xmlns:cc="http://creativecommons.org/ns#" xmlns:xlink="http://www.w3.org/1999/xlink" xmlns:dc="http://purl.org/dc/elements/1.1/">
 <defs>
  <radialGradient id="c" xlink:href="#a" gradientUnits="userSpaceOnUse" cy="486.65" cx="605.71" gradientTransform="matrix(.028917 0 0 .012353 26.973 38.471)" r="117.14"/>
  <linearGradient id="a">
   <stop offset="0"/>
   <stop stop-opacity="0" offset="1"/>
  </linearGradient>
  <radialGradient id="b" xlink:href="#a" gradientUnits="userSpaceOnUse" cy="486.65" cx="605.71" gradientTransform="matrix(-.028917 0 0 .012353 21.027 38.471)" r="117.14"/>
  <linearGradient id="k" y2="609.51" gradientUnits="userSpaceOnUse" x2="302.86" gradientTransform="matrix(.084497 0 0 .012353 -6.5396 38.471)" y1="366.65" x1="302.86">
   <stop stop-opacity="0" offset="0"/>
   <stop offset=".5"/>
   <stop stop-opacity="0" offset="1"/>
  </linearGradient>
  <linearGradient id="e" y2="24.628" gradientUnits="userSpaceOnUse" x2="20.055" gradientTransform="matrix(.57894 0 0 .65062 2.0784 1.9502)" y1="15.298" x1="16.626">
   <stop stop-color="#fff" offset="0"/>
   <stop stop-color="#fff" stop-opacity="0" offset="1"/>
  </linearGradient>
  <linearGradient id="h" y2="43" gradientUnits="userSpaceOnUse" x2="24" gradientTransform="matrix(.77477 0 0 .61261 -2.5946 1.2973)" y1="5.5641" x1="24">
   <stop stop-color="#fff" offset="0"/>
   <stop stop-color="#fff" stop-opacity=".23529" offset=".036262"/>
   <stop stop-color="#fff" stop-opacity=".15686" offset=".95056"/>
   <stop stop-color="#fff" stop-opacity=".39216" offset="1"/>
  </linearGradient>
  <linearGradient id="g" y2="47.013" gradientUnits="userSpaceOnUse" x2="25.132" gradientTransform="matrix(.85714 0 0 .52148 -4.5714 2.6844)" y1=".98521" x1="25.132">
   <stop stop-color="#f4f4f4" offset="0"/>
   <stop stop-color="#dbdbdb" offset="1"/>
  </linearGradient>
  <linearGradient id="f" y2="2.9062" gradientUnits="userSpaceOnUse" x2="-51.786" gradientTransform="matrix(.69214 0 0 .48803 46.352 2.1033)" y1="50.786" x1="-51.786">
   <stop stop-color="#a0a0a0" offset="0"/>
   <stop stop-color="#bebebe" offset="1"/>
  </linearGradient>
  <linearGradient id="j" y2="96.253" gradientUnits="userSpaceOnUse" x2="45.567" gradientTransform="matrix(.32723 0 0 .25356 -38.234 -30.559)" y1="15.27" x1="45.414">
   <stop stop-color="#262626" offset="0"/>
   <stop stop-color="#4d4d4d" offset="1"/>
  </linearGradient>
  <linearGradient id="i" y2="-40.164" gradientUnits="userSpaceOnUse" x2="-24.098" gradientTransform="matrix(.74286 0 0 .74074 1.8384 4.0069)" y1="-13.091" x1="-24.032">
   <stop stop-color="#1d1d1d" offset="0"/>
   <stop offset="1"/>
  </linearGradient>
  <linearGradient id="d" y2="-174.97" gradientUnits="userSpaceOnUse" x2="149.98" gradientTransform="matrix(.28088 0 0 .28276 -22.128 49.806)" y1="-104.24" x1="149.98">
   <stop stop-color="#272727" offset="0"/>
   <stop stop-color="#454545" offset="1"/>
  </linearGradient>
 </defs>
 <g>
  <g opacity=".4" transform="matrix(.66667 0 0 .66667 0 -1.6667)" stroke-width=".0225">
   <rect height="3" width="40.8" y="43" x="3.6" fill="url(#k)"/>
   <path d="m3.6 43v2.9998c-1.4891 0.006-3.6-0.672-3.6-1.5s1.6618-1.5 3.6-1.5z" fill="url(#b)"/>
   <path d="m44.4 43v2.9998c1.4891 0.0056 3.6-0.67211 3.6-1.5001 0-0.828-1.6618-1.4997-3.6-1.4997z" fill="url(#c)"/>
  </g>
  <path stroke-linejoin="round" d="m0.99997 4c6.8745 0 30 0.0015 30 0.0015l0.000036 23.999h-30v-24z" stroke="url(#f)" stroke-width=".0066667" fill="url(#g)"/>
  <path stroke-linejoin="round" d="m30.333 27.333h-28.667v-22.667h28.667z" stroke="url(#h)" stroke-linecap="round" stroke-width=".0066667" fill="none"/>
 </g>
 <g>
  <rect transform="matrix(-.99999 .0037552 .0024409 -1 0 0)" rx="0" ry="0" height="19.903" width="25.952" stroke="url(#i)" stroke-linecap="round" y="-26.012" x="-29.015" stroke-width=".0066668" fill="url(#j)"/>
  <path style="color:#000000" d="m14.458 9.5417c-0.73638 0-1.3333 1.1939-1.3333 2.6667 0 0.24505 0.01072 0.48294 0.04167 0.70833-0.15826-0.15989-0.30816-0.33156-0.5-0.47917-1.1673-0.89808-2.4885-1.1461-2.9375-0.5625-0.44904 0.58363 0.14525 1.7894 1.3125 2.6875 0.22148 0.1704 0.44175 0.29391 0.66667 0.41667-0.25479 0.03257-0.52266 0.08822-0.79167 0.16667-1.4139 0.41232-2.3937 1.3347-2.1875 2.0417 0.20616 0.70693 1.5236 0.93315 2.9375 0.52083 0.2651-0.07731 0.52042-0.1633 0.75-0.27083-0.05604 0.10202-0.11595 0.20204-0.16667 0.3125-2.7782 2.4796-5.0625 7.2292-5.0625 7.2292l0.95833 0.02083c0.5207-1.25 1.8077-3.994 3.7925-6.293-0.28085 1.1684-0.0992 2.2006 0.5 2.4167 0.69271 0.24982 1.667-0.67708 2.1667-2.0625 0.04494-0.12462 0.06976-0.25209 0.10417-0.375 0.05396 0.11891 0.10152 0.23517 0.16667 0.35417 0.70727 1.2918 1.8124 2.062 2.4583 1.7083 0.64591-0.35364 0.58227-1.6874-0.125-2.9792-0.04035-0.07369-0.08227-0.13821-0.125-0.20833 0.07835 0.02437 0.14794 0.04131 0.22917 0.0625 1.4251 0.37181 2.7308 0.10836 2.9167-0.60417 0.18591-0.71253-0.82495-1.5865-2.25-1.9583-0.02183-0.0057-0.04073-0.01544-0.0625-0.02083 0.01921-0.01078 0.04331-0.0098 0.0625-0.02083 1.2754-0.73638 2.014-1.8623 1.6458-2.5-0.36819-0.63772-1.7037-0.54888-2.9792 0.1875-0.40854 0.23587-0.74162 0.50638-1.0208 0.79167 0.10589-0.38234 0.16667-0.82364 0.16667-1.2917 0-1.4728-0.59695-2.6667-1.3333-2.6667zm0.042 4.4583c0.92048 0 1.6667 0.74619 1.6667 1.6667 0 0.92047-0.74619 1.6667-1.6667 1.6667-0.92048 0-1.6667-0.74619-1.6667-1.6667 0-0.921 0.747-1.667 1.667-1.667z" fill="url(#d)"/>
  <path fill="#d2d2d2" d="m14.458 10.188c-0.73638 0-1.3333 1.1939-1.3333 2.6667 0 0.24504 0.01072 0.48294 0.04167 0.70833-0.15826-0.15989-0.30816-0.33156-0.5-0.47917-1.1673-0.89808-2.4885-1.1461-2.9375-0.5625-0.44904 0.58363 0.14525 1.7894 1.3125 2.6875 0.22148 0.1704 0.44175 0.29391 0.66667 0.41667-0.25479 0.03257-0.52266 0.08822-0.79167 0.16667-1.4139 0.41232-2.3937 1.3347-2.1875 2.0417 0.20616 0.70693 1.5236 0.93315 2.9375 0.52083 0.2651-0.07731 0.52042-0.1633 0.75-0.27083-0.05604 0.10202-0.11595 0.20204-0.16667 0.3125-2.7782 2.479-5.0625 7.229-5.0625 7.229l0.95833 0.02083c0.52039-1.2493 1.8073-3.9927 3.7917-6.2917-0.28085 1.1684-0.0992 2.2006 0.5 2.4167 0.69271 0.24982 1.667-0.67708 2.1667-2.0625 0.04494-0.12462 0.06976-0.25209 0.10417-0.375 0.05396 0.11891 0.10152 0.23517 0.16667 0.35417 0.70727 1.2918 1.8124 2.062 2.4583 1.7083 0.64591-0.35364 0.58227-1.6874-0.125-2.9792-0.04035-0.07369-0.08227-0.13821-0.125-0.20833 0.07835 0.02437 0.14794 0.04131 0.22917 0.0625 1.4251 0.37181 2.7308 0.10836 2.9167-0.60417 0.18591-0.71253-0.82495-1.5865-2.25-1.9583-0.02183-0.0057-0.04073-0.01544-0.0625-0.02083 0.01921-0.01078 0.04331-0.0098 0.0625-0.02083 1.2754-0.73638 2.014-1.8623 1.6458-2.5-0.36819-0.63772-1.7037-0.54888-2.9792 0.1875-0.40854 0.23587-0.74162 0.50638-1.0208 0.79167 0.10589-0.38234 0.16667-0.82364 0.16667-1.2917 0-1.4728-0.59695-2.6667-1.3333-2.6667zm0.042 4.458c0.92048 0 1.6667 0.74619 1.6667 1.6667 0 0.92048-0.74619 1.6667-1.6667 1.6667-0.92048 0-1.6667-0.74619-1.6667-1.6667 0-0.92048 0.74619-1.6667 1.6667-1.6667z"/>
  <path opacity=".15" d="m2.6667 5.6667 0.0087 12c0.7672-0.012 26.076-4.424 26.658-4.636l-0.000092-7.3644z" fill-rule="evenodd" fill="url(#e)"/>
 </g>
</svg>
