<?xml version="1.0" encoding="UTF-8" standalone="no"?>
<svg xmlns:rdf="http://www.w3.org/1999/02/22-rdf-syntax-ns#" xmlns="http://www.w3.org/2000/svg" height="32" width="32" version="1.1" xmlns:cc="http://creativecommons.org/ns#" xmlns:xlink="http://www.w3.org/1999/xlink" xmlns:dc="http://purl.org/dc/elements/1.1/">
 <defs>
  <linearGradient id="a">
   <stop offset="0"/>
   <stop stop-opacity="0" offset="1"/>
  </linearGradient>
  <linearGradient id="f" y2="43" gradientUnits="userSpaceOnUse" y1="5.5641" gradientTransform="matrix(.56757 0 0 .72973 2.3784 -2.5135)" x2="24" x1="24">
   <stop stop-color="#fff" offset="0"/>
   <stop stop-opacity=".23529" stop-color="#fff" offset=".036262"/>
   <stop stop-opacity=".15686" stop-color="#fff" offset=".95056"/>
   <stop stop-opacity=".39216" stop-color="#fff" offset="1"/>
  </linearGradient>
  <linearGradient id="e" y2="47.013" gradientUnits="userSpaceOnUse" y1=".98521" gradientTransform="matrix(.65714 0 0 .63012 .22856 -1.0896)" x2="25.132" x1="25.132">
   <stop stop-color="#f4f4f4" offset="0"/>
   <stop stop-color="#dbdbdb" offset="1"/>
  </linearGradient>
  <radialGradient id="c" xlink:href="#a" gradientUnits="userSpaceOnUse" cy="486.65" cx="605.71" gradientTransform="matrix(.015663 0 0 .0082353 17.61 25.981)" r="117.14"/>
  <radialGradient id="b" xlink:href="#a" gradientUnits="userSpaceOnUse" cy="486.65" cx="605.71" gradientTransform="matrix(-.015663 0 0 .0082353 14.39 25.981)" r="117.14"/>
  <linearGradient id="d" y2="609.51" gradientUnits="userSpaceOnUse" y1="366.65" gradientTransform="matrix(.045769 0 0 .0082353 -.54232 25.981)" x2="302.86" x1="302.86">
   <stop stop-opacity="0" offset="0"/>
   <stop offset=".5"/>
   <stop stop-opacity="0" offset="1"/>
  </linearGradient>
 </defs>
 <g>
  <rect opacity=".15" height="2" width="22.1" y="29" x="4.95" fill="url(#d)"/>
  <path opacity=".15" fill="url(#b)" d="m4.95 29v1.9999c-0.8066 0.004-1.95-0.448-1.95-1s0.9001-1 1.95-1z"/>
  <path opacity=".15" fill="url(#c)" d="m27.05 29v1.9999c0.80661 0.0038 1.95-0.44807 1.95-1.0001 0-0.552-0.90012-0.99982-1.95-0.99982z"/>
  <path fill="url(#e)" d="m4.5 0.49996c5.2705 0 23 0.00185 23 0.00185l0.000028 28.998h-23v-29z"/>
  <path stroke-linejoin="round" d="m26.5 28.5h-21v-27h21z" stroke="url(#f)" stroke-linecap="round" fill="none"/>
  <path opacity=".3" stroke-linejoin="round" d="m4.5 0.49996c5.2705 0 23 0.00185 23 0.00185l0.000028 28.998h-23v-29z" stroke="#000" stroke-width=".99992" fill="none"/>
 </g>
 <g>
  <path opacity="0.898" d="m7.7886 21.255h16.423v-15.51h-16.423m3.628 2.8735c1.0944 0 1.981 0.8261 1.981 1.8451s-0.88656 1.8458-1.981 1.8458c-1.0938 0-1.9796-0.8261-1.9796-1.8458 0-1.019 0.88588-1.8451 1.9796-1.8451zm-2.6108 9.4533 2.9348-2.2011 1.4939 1.0904 5.9206-4.3819 2.2011 1.6359 1.4932-1.0897v4.9464z" fill-rule="evenodd" clip-rule="evenodd" fill="#5b2d8d"/>
  <path fill="#fff" d="m10.658 12.066c-1.8593-0.82639-1.2884-3.3318 0.75961-3.3335 1.9297-0.00157 2.6205 2.394 0.93791 3.2524-0.61512 0.31381-1.1197 0.33792-1.6975 0.08111z"/>
  <path fill="#fff" d="m10.392 16.949 1.3399-1.004 0.73508 0.52638c0.4043 0.28951 0.80332 0.48661 0.88673 0.43799 0.0834-0.04861 1.4203-1.0288 2.9709-2.1782l2.8192-2.0899 0.43502 0.32295c0.23926 0.17762 0.7424 0.5447 1.1181 0.81574l0.68306 0.49279 0.70677-0.53895 0.70677-0.53895v2.3791 2.3791h-6.8707-6.8707l1.3399-1.004z"/>
 </g>
</svg>
