<?xml version="1.0" encoding="UTF-8" standalone="no"?>
<svg xmlns:rdf="http://www.w3.org/1999/02/22-rdf-syntax-ns#" xmlns="http://www.w3.org/2000/svg" height="32px" width="32px" version="1.1" xmlns:cc="http://creativecommons.org/ns#" xmlns:xlink="http://www.w3.org/1999/xlink" xmlns:dc="http://purl.org/dc/elements/1.1/">
 <defs>
  <linearGradient id="h" y2="43" gradientUnits="userSpaceOnUse" x2="24" gradientTransform="matrix(.56757 0 0 .72973 2.3784 -2.5135)" y1="5.5641" x1="24">
   <stop stop-color="#fff" offset="0"/>
   <stop stop-color="#fff" stop-opacity=".23529" offset=".036262"/>
   <stop stop-color="#fff" stop-opacity=".15686" offset=".95056"/>
   <stop stop-color="#fff" stop-opacity=".39216" offset="1"/>
  </linearGradient>
  <linearGradient id="g" y2="47.013" gradientUnits="userSpaceOnUse" x2="25.132" gradientTransform="matrix(.65714 0 0 .63012 .22856 -1.0896)" y1=".98521" x1="25.132">
   <stop stop-color="#f4f4f4" offset="0"/>
   <stop stop-color="#dbdbdb" offset="1"/>
  </linearGradient>
  <linearGradient id="f" y2="2.9062" gradientUnits="userSpaceOnUse" x2="-51.786" gradientTransform="matrix(.53064 0 0 .58970 39.27 -1.7919)" y1="50.786" x1="-51.786">
   <stop stop-color="#a0a0a0" offset="0"/>
   <stop stop-color="#bebebe" offset="1"/>
  </linearGradient>
  <radialGradient id="c" xlink:href="#a" gradientUnits="userSpaceOnUse" cy="486.65" cx="605.71" gradientTransform="matrix(.015663 0 0 .0082353 17.61 25.981)" r="117.14"/>
  <linearGradient id="a">
   <stop offset="0"/>
   <stop stop-opacity="0" offset="1"/>
  </linearGradient>
  <radialGradient id="b" xlink:href="#a" gradientUnits="userSpaceOnUse" cy="486.65" cx="605.71" gradientTransform="matrix(-.015663 0 0 .0082353 14.39 25.981)" r="117.14"/>
  <linearGradient id="e" y2="609.51" gradientUnits="userSpaceOnUse" y1="366.65" gradientTransform="matrix(.045769 0 0 .0082353 -.54232 25.981)" x2="302.86" x1="302.86">
   <stop stop-opacity="0" offset="0"/>
   <stop offset=".5"/>
   <stop stop-opacity="0" offset="1"/>
  </linearGradient>
  <linearGradient id="d" y2="13.664" gradientUnits="userSpaceOnUse" x2="16.887" gradientTransform="matrix(.65943 0 0 .64652 -27.821 1.2237)" y1="24.24" x1="28.534">
   <stop stop-color="#fda852" offset="0"/>
   <stop stop-color="#fff" stop-opacity="0" offset="1"/>
  </linearGradient>
 </defs>
 <g>
  <g>
   <rect opacity=".15" height="2" width="22.1" y="29" x="4.95" fill="url(#e)"/>
   <path opacity=".15" d="m4.95 29v1.9999c-0.80662 0.0038-1.95-0.44807-1.95-1.0001 0-0.552 0.90012-0.99982 1.95-0.99982z" fill="url(#b)"/>
   <path opacity=".15" d="m27.05 29v1.9999c0.80661 0.0038 1.95-0.44807 1.95-1.0001 0-0.552-0.90012-0.99982-1.95-0.99982z" fill="url(#c)"/>
  </g>
  <path stroke-linejoin="round" d="m4.5 0.49996c5.2705 0 23 0.00185 23 0.00185l0.000028 28.998h-23v-29z" stroke="url(#f)" stroke-width=".99992" fill="url(#g)"/>
 </g>
 <path stroke-linejoin="round" d="m26.5 28.5h-21v-27h21z" stroke="url(#h)" stroke-linecap="round" fill="none"/>
 <g transform="translate(27.788 -2.3184)">
  <g>
   <path d="m-17.037 24.229c2.7541 1.8316 8.7672-0.61882 3.7681-7.1764-4.9538-6.4982 4.9219-10.76 7.8525-3.2453" fill-rule="evenodd" stroke="#ea541a" stroke-width="1px" fill="url(#d)"/>
   <rect height="2" width="2" y="22.818" x="-18.788" fill="#ea541a"/>
   <rect height="2" width="2" y="12.818" x="-6.788" fill="#ea541a"/>
  </g>
  <path d="m-17.699 11.147 9.5001 12.316" stroke="#ea541a" stroke-width="1px" fill="none"/>
  <g>
   <path d="m-16.288 11.318c0.000372 0.55218-0.44745 1-1 1s-1.0004-0.44782-1-1c-0.000372-0.55218 0.44745-1 1-1s1.0004 0.44782 1 1z" stroke="#ea541a" fill="#e6e6e6"/>
   <path d="m-7.288 23.318c0.000373 0.55218-0.44745 1-1 1s-1.0004-0.44782-1-1c-0.000372-0.55218 0.44745-1 1-1s1.0004 0.44782 1 1z" stroke="#ea541a" fill="#e6e6e6"/>
   <rect height="2" width="2" y="15.818" x="-14.788" fill="#ea541a"/>
  </g>
 </g>
</svg>
