<svg xmlns="http://www.w3.org/2000/svg" width="16" height="16" viewBox="0 0 12.3 14.3"><defs><style>.a{stroke:#ff3f8c;stroke-miterlimit:10;stroke-width:0.3px;}.b{fill:#ff3f8c;}</style></defs><path class="a" d="M.65.15a.5.5,0,0,0-.5.5v13a.5.5,0,0,0,.5.5h11a.5.5,0,0,0,.5-.5V3.15l-3-3Z"/><rect class="b" x="3.25" y="4.58" width="0.82" height="5"/><path class="b" d="M6.92,4.58H5.38v5H6.77c1.74,0,2.65-.82,2.67-2.55A2.24,2.24,0,0,0,6.92,4.58ZM6.78,8.89H6.2V5.26h.7c1.14,0,1.68.62,1.68,1.8A1.61,1.61,0,0,1,6.78,8.89Z"/></svg>