<svg xmlns="http://www.w3.org/2000/svg" viewbox="0 0 16 16" width="16" version="1.1" height="16"><path fill="#969696" d="m7.95 0.65c-4.1 0-7.4 3.3-7.4 7.4s3.3 7.4 7.4 7.4 7.4-3.3 7.4-7.4-3.3-7.4-7.4-7.4zm0.8 0.9c1.3 0 2.4 0.8 3.5 1.3l1.8 2.5-0.3 1.1 0.6 0.3v2.4c-0.2 0.7-0.6 1.3-0.9 2-0.2 0.1 0-0.8-0.1-1 0-0.6-0.5-0.6-0.9-0.2-0.4 0.3-1.4 0.3-1.5-0.4-0.3-0.8 0-1.7 0.3-2.5l-0.6-0.7 0.2-1.8-0.8-0.9 0.2-1-1-0.6c-0.2-0.2-0.6-0.2-0.7-0.4 0.1 0 0.2-0.1 0.2-0.1zm-2.6 0.1s0.1 0 0.1 0.1c0.4 0.2-0.1 0.4-0.2 0.6-0.5 0.3 0.3 0.7 0.5 1 0.4-0.1 0.8-0.7 1.4-0.5 0.7-0.2 0.6 0.6 1.1 1 0.1 0.2 0.9 0.8 0.4 0.6-0.5-0.4-1-0.4-1.3 0.1-0.8 0.5-0.3-0.9-0.7-1.2-0.6-0.7-0.4 0.5-0.4 0.9-0.4 0-1.1-0.3-1.5 0.2l0.4 0.6 0.5-0.7c0-0.3 0.1 0.2 0.3 0.3 0.1 0.2 0.8 0.7 0.3 0.9-0.8 0.4-1.4 1.1-2.1 1.7-0.2 0.5-0.7 0.4-1 0-0.7-0.4-0.7 0.7-0.6 1.1l0.6-0.4v1.1c-0.4 0.4-0.9-0.7-1.3-0.9v-1.6c0-0.4-0.1-0.9 0-1.3 0.8-0.9 1.7-1.9 2.2-3h0.8c0.6 0.2 0.3-0.7 0.5-0.6zm-1.2 8.2c0.1 0 0.2 0 0.3 0.1 0.8 0.1 1.4 0.7 2 1.1 0.5 0.5 1.6 0.3 1.7 1.2-0.2 0.9-1.1 1.4-1.8 1.7-0.2 0.1-0.4 0.2-0.6 0.2-0.7 0.2-1-0.6-1.2-1.1-0.3-0.7-1.1-1.2-1-2.1 0-0.4 0.2-1 0.6-1.1z"/></svg>
