<svg xmlns:rdf="http://www.w3.org/1999/02/22-rdf-syntax-ns#" xmlns="http://www.w3.org/2000/svg" height="32" width="32" version="1.0" xmlns:cc="http://creativecommons.org/ns#" xmlns:dc="http://purl.org/dc/elements/1.1/">
 <metadata>
  <rdf:RDF>
   <cc:Work rdf:about="">
    <dc:format>image/svg+xml</dc:format>
    <dc:type rdf:resource="http://purl.org/dc/dcmitype/StillImage"/>
    <dc:title/>
   </cc:Work>
  </rdf:RDF>
 </metadata>
 <path d="M16,2c-7.732,0-14,6.268-14,14s6.268,14,14,14,14-6.268,14-14-6.268-14-14-14zm1.6042,1.7865c2.4022,0.05342,4.525,1.4964,6.6718,2.4428l3.464,4.7942-0.548,2.06,1.058,0.6562-0.018,2.4426c-0.0242,0.69874,0.01,1.3984-0.0182,2.0964-0.3327,1.3247-1.1013,2.5332-1.75,3.737-0.43978,0.21682,0.0401-1.437-0.23698-1.9505,0.064-1.1868-0.942-1.132-1.622-0.4728-0.842,0.4908-2.692,0.6388-2.752-0.6928-0.478-1.6002-0.07-3.3052,0.582-4.7942l-1.074-1.3126,0.382-3.3724-1.714-1.7316,0.402-1.896-2.0056-1.1302c-0.3954-0.3104-1.1476-0.4332-1.3126-0.8568,0.1628-0.0092,0.332-0.0218,0.4922-0.0182zm-4.9218,0.01824c0.06288,0.0092,0.13998,0.05286,0.2552,0.14583,0.676,0.3714-0.165,0.7928-0.3646,1.185-1.0796,0.7302,0.332,1.3282,0.802,1.914,0.7534-0.2164,1.507-1.2934,2.6068-0.966,1.4068-0.439,1.1826,1.1782,1.987,1.8958,0.1044,0.3378,1.76,1.437,0.7656,1.0754-0.819-0.6348-1.7298-0.587-2.3152,0.3282-1.5818,0.8572-0.6456-1.6504-1.4036-2.2604-1.1458-1.2784-0.6656,0.955-0.802,1.6224-0.745-0.0162-2.1362-0.5732-2.8984,0.3282l0.7472,1.2212,0.8934-1.3672c0.217-0.4948,0.4894,0.3846,0.729,0.547,0.2862,0.5518,1.646,1.4868,0.6198,1.75-1.5212,0.8438-2.7178,2.1236-4.0104,3.263-0.436,0.92-1.326,0.8148-1.8776,0.0546-1.3344-0.821-1.2354,1.3132-1.1666,2.1146l1.1667-0.72916v1.2031c-0.033,0.2276-0.0048,0.4644-0.0182,0.6928-0.8174,0.854-1.6414-1.199-2.3516-1.659l-0.0546-3.0078c0.0258-0.845-0.1526-1.7102,0.0182-2.5338,1.6076-1.725,3.2404-3.5122,4.1928-5.7058h1.5677c1.0956,0.5308,0.4714-1.1762,0.9114-1.112zm-2.3152,15.641c0.1902-0.02029,0.40656,0.02315,0.63802,0.14584,1.4759,0.21124,2.5794,1.2818,3.7552,2.0964,0.93744,0.92904,2.9656,0.63156,3.1902,2.2058-0.34122,1.7075-2.021,2.6244-3.5,3.2266-0.3692,0.206-0.766,0.37-1.185,0.438-1.3712,0.342-1.964-1.064-2.2422-2.116-0.6208-1.3-2.1724-2.284-1.9504-3.882,0.0364-0.794,0.47-2.0268,1.2942-2.1146z"/>
</svg>
