<svg width="16" height="16" viewbox="0 0 16 16" xmlns="http://www.w3.org/2000/svg"><path d="M2.5 1c-.28 0-.5.22-.5.5v13c0 .28.22.5.5.5h11c.28 0 .5-.22.5-.5V4l-3-3H2.5zm4.527 2.121A1.032 1.018 0 018.06 4.14a1.032 1.018 0 01-.561.906l.367 1.902a1.436 1.436 73.095 01.174-.011 1.436 1.436 73.095 011.217.671l1.6-1.05a.78.78 57.865 01-.08-.342.78.78 57.865 01.78-.78.78.78 57.865 01.78.78.78.78 57.865 01-.78.781.78.78 57.865 01-.482-.168l-1.67 1.096a1.436 1.436 73.095 01.073.447 1.436 1.436 73.095 01-.207.74l1.503 1.711a.913.913 61.954 01.51-.158.913.913 61.954 01.914.914.913.913 61.954 01-.914.914.913.913 61.954 01-.914-.914.913.913 61.954 01.131-.47L9.02 9.421a1.436 1.436 73.095 01-.98.387 1.436 1.436 73.095 01-.352-.045l-.965 1.912a.88.88 69.57 01.334.69.88.88 69.57 01-.881.88.88.88 69.57 01-.881-.88.88.88 69.57 01.88-.882.88.88 69.57 01.214.028l.95-1.887a1.436 1.436 73.095 01-.693-.906l-2.097.054a.97.97 72.338 01-.951.788.97.97 72.338 01-.971-.97.97.97 72.338 01.97-.97.97.97 72.338 01.954.805l2.053-.055a1.436 1.436 73.095 01.925-1.34l-.365-1.883a1.032 1.018 0 01-.137.008 1.032 1.018 0 01-1.03-1.017 1.032 1.018 0 011.03-1.018z" fill="#f41d5c"/></svg>
