<svg viewBox="0 0 16 16" height="16" width="16" xmlns="http://www.w3.org/2000/svg" xml:space="preserve" style="fill-rule:evenodd;clip-rule:evenodd;stroke-linejoin:round;stroke-miterlimit:2"><path d="M6 22c-.55 0-1.021-.196-1.412-.587A1.927 1.927 0 0 1 4 20V4c0-.55.196-1.021.588-1.413A1.926 1.926 0 0 1 6 2h8l6 6v12a1.93 1.93 0 0 1-.587 1.413A1.93 1.93 0 0 1 18 22H6Zm3.254-2.121c.396 0 .734-.139 1.011-.417.278-.278.417-.615.417-1.012a1.38 1.38 0 0 0-.077-.458 1.515 1.515 0 0 0-.209-.399l.667-.845c.325.182.673.273 1.042.273s.716-.091 1.041-.273l.679.845a1.512 1.512 0 0 0-.208.399 1.356 1.356 0 0 0-.078.458c0 .397.139.734.417 1.012.278.278.615.417 1.012.417s.734-.139 1.012-.417a1.38 1.38 0 0 0 .416-1.012 1.38 1.38 0 0 0-.416-1.012 1.377 1.377 0 0 0-1.012-.417 1.371 1.371 0 0 0-.584.119l-.678-.833a2.154 2.154 0 0 0 .524-1.762l.964-.321a1.427 1.427 0 0 0 1.202.655c.397 0 .734-.139 1.012-.417.278-.278.417-.615.417-1.012s-.139-.734-.417-1.012a1.377 1.377 0 0 0-1.012-.417c-.396 0-.734.139-1.012.417a1.38 1.38 0 0 0-.416 1.012v.095l-.964.334a2.298 2.298 0 0 0-.637-.727 2.055 2.055 0 0 0-.899-.381v-1.035c.301-.088.555-.256.762-.506.206-.25.309-.542.309-.875a1.38 1.38 0 0 0-.416-1.012 1.379 1.379 0 0 0-1.012-.417c-.397 0-.734.139-1.012.417a1.377 1.377 0 0 0-.417 1.012c0 .333.101.625.304.875.202.25.458.418.768.506v1.035a2.05 2.05 0 0 0-.899.381 2.286 2.286 0 0 0-.637.727l-.964-.334v-.095c0-.397-.139-.734-.417-1.012a1.377 1.377 0 0 0-1.012-.417c-.397 0-.734.139-1.012.417a1.377 1.377 0 0 0-.417 1.012c0 .397.139.734.417 1.012.278.278.615.417 1.012.417.254 0 .484-.06.69-.179.207-.119.377-.278.512-.476l.965.321c-.048.31-.028.619.059.929.087.309.242.587.464.833l-.678.845a1.672 1.672 0 0 0-.274-.095 1.26 1.26 0 0 0-.309-.036c-.397 0-.735.139-1.012.417a1.377 1.377 0 0 0-.417 1.012c0 .397.139.734.417 1.012.277.278.615.417 1.012.417Z" style="fill:#f41d5c" transform="matrix(.7 0 0 .7 -.43 -.388)"/></svg>