<?xml version="1.0" encoding="UTF-8" standalone="no"?>
<svg xmlns:rdf="http://www.w3.org/1999/02/22-rdf-syntax-ns#" xmlns="http://www.w3.org/2000/svg" height="32px" width="32px" version="1.1" xmlns:cc="http://creativecommons.org/ns#" xmlns:xlink="http://www.w3.org/1999/xlink" xmlns:dc="http://purl.org/dc/elements/1.1/">
 <defs>
  <linearGradient id="h" x1="24" gradientUnits="userSpaceOnUse" y1="5.5641" gradientTransform="matrix(.56757 0 0 .72973 2.3784 -2.5135)" x2="24" y2="43">
   <stop stop-color="#fff" offset="0"/>
   <stop stop-color="#fff" stop-opacity=".23529" offset=".036262"/>
   <stop stop-color="#fff" stop-opacity=".15686" offset=".95056"/>
   <stop stop-color="#fff" stop-opacity=".39216" offset="1"/>
  </linearGradient>
  <linearGradient id="i" x1="25.132" gradientUnits="userSpaceOnUse" y1=".98521" gradientTransform="matrix(.65714 0 0 .63012 .22856 -1.0896)" x2="25.132" y2="47.013">
   <stop stop-color="#f4f4f4" offset="0"/>
   <stop stop-color="#dbdbdb" offset="1"/>
  </linearGradient>
  <linearGradient id="j" x1="-51.786" gradientUnits="userSpaceOnUse" y1="50.786" gradientTransform="matrix(.53064 0 0 .58970 39.27 -1.7919)" x2="-51.786" y2="2.9062">
   <stop stop-color="#a0a0a0" offset="0"/>
   <stop stop-color="#bebebe" offset="1"/>
  </linearGradient>
  <radialGradient id="l" xlink:href="#a" gradientUnits="userSpaceOnUse" cy="486.65" cx="605.71" gradientTransform="matrix(.015663 0 0 .0082353 17.61 25.981)" r="117.14"/>
  <linearGradient id="a">
   <stop offset="0"/>
   <stop stop-opacity="0" offset="1"/>
  </linearGradient>
  <radialGradient id="m" xlink:href="#a" gradientUnits="userSpaceOnUse" cy="486.65" cx="605.71" gradientTransform="matrix(-.015663 0 0 .0082353 14.39 25.981)" r="117.14"/>
  <linearGradient id="k" x1="302.86" gradientUnits="userSpaceOnUse" x2="302.86" gradientTransform="matrix(.045769 0 0 .0082353 -.54232 25.981)" y1="366.65" y2="609.51">
   <stop stop-opacity="0" offset="0"/>
   <stop offset=".5"/>
   <stop stop-opacity="0" offset="1"/>
  </linearGradient>
 </defs>
 <rect opacity=".15" height="2" width="22.1" y="29" x="4.95" fill="url(#k)"/>
 <path opacity=".15" d="m4.95 29v1.9999c-0.80662 0.0038-1.95-0.44807-1.95-1.0001 0-0.552 0.90012-0.99982 1.95-0.99982z" fill="url(#m)"/>
 <path opacity=".15" d="m27.05 29v1.9999c0.80661 0.0038 1.95-0.44807 1.95-1.0001 0-0.552-0.90012-0.99982-1.95-0.99982z" fill="url(#l)"/>
 <path stroke-linejoin="round" stroke="url(#j)" stroke-width=".99992" d="m4.5 0.49996c5.2705 0 23 0.00185 23 0.00185l0.000028 28.998h-23v-29z" fill="url(#i)"/>
 <path stroke-linejoin="round" stroke="url(#h)" stroke-linecap="round" d="m26.5 28.5h-21v-27h21z" fill="none"/>
 <path stroke="#89adc2" stroke-width="1px" d="m8 5.505h2.3438zm2.6875 0h2.1875zm2.5312 0h1.9375zm2.25 0h0.84375zm-7.4688 2h3.6562zm4.0625 0h1.75zm2.0625 0h0.875zm1.2188 0h1.5938zm1.9375 0h1.625zm-9.282 1.995h4.2812zm4.625 0h4.625zm1.703 8h0.84375zm1.1875 0h1.875zm2.25 0h4.9062zm-2.6875 2.075h1.8438zm-1.028 5.925h2.9688zm3.8562 0h1.1875z" fill="none"/>
 <g transform="translate(27.06 6.7752)">
  <path d="m-15.57 10.277h0.93368v1h-0.93368z" fill="#d48eb3"/>
  <path d="m-14.483 10.277h0.41011v1h-0.41011z" fill="#d48eb3"/>
  <path opacity=".7" d="m-19.06 16.277h1.9967v1h-1.9967v-1z" fill="#666"/>
  <path opacity=".7" d="m-16.907 16.277h2.1395v1h-2.1395v-1z" fill="#666"/>
  <g fill="#d48eb3">
   <path d="m-14.611 16.277h0.85436v1h-0.85436v-1z"/>
   <path d="m-13.6 16.277h2.0125v1h-2.0125v-1z"/>
   <path d="m-9.8967 16.277h0.53704v1h-0.53704v-1z"/>
   <path d="m-11.431 16.277h1.3779v1h-1.3779v-1z"/>
   <path d="m-9.2031 16.277h0.31492v1h-0.31492v-1z"/>
   <path d="m-8.7317 16.277h0.85436v1h-0.85436v-1z"/>
   <path d="m-16.466 12.277h2.3933v1h-2.3933z"/>
  </g>
  <path d="m-19.06 14.277h1.8063v1h-1.8063v-1z" fill="#94d48e"/>
  <path d="m-17.105 14.277h0.56877v1h-0.56877v-1z" fill="#94d48e"/>
  <path opacity=".7" d="m-16.387 14.277h1.2986v1h-1.2986v-1z" fill="#666"/>
  <path opacity=".7" d="m-14.939 14.277h0.88609v1h-0.88609v-1z" fill="#666"/>
  <path d="m-19.06 18.277h1.4875v1h-1.4875v-1z" fill="#de6161"/>
  <path opacity=".7" d="m-17.334 18.277h2.6472v1h-2.6472v-1z" fill="#666"/>
 </g>
 <path d="m8 12v1h3.0625v-1h-3.062zm0 2v1h3.0938v-1h-3.094z" fill="#b78ed4"/>
 <path d="m12.406 12v1h5.594v-1zm0.03125 2v1h5.0938v-1z" fill="#d48eb3"/>
 <path d="m8 17v1h2.5312v-1zm0 2.031v0.969h2.2188v-0.96875z" fill="#94d48e"/>
</svg>
