<?xml version="1.0" standalone="no"?>
<!DOCTYPE svg PUBLIC "-//W3C//DTD SVG 20010904//EN" "http://www.w3.org/TR/2001/REC-SVG-20010904/DTD/svg10.dtd">
<!-- Created using Karbon, part of Calligra: http://www.calligra.org/karbon -->
<svg xmlns="http://www.w3.org/2000/svg" xmlns:xlink="http://www.w3.org/1999/xlink" width="12.8pt" height="12.8pt">
<defs/>
<g id="layer0">
  <path id="shape0" transform="translate(2, 1)" fill="#ffffff" d="M0.5 0C0.22 0 0 0.22 0 0.5L0 13.5C0 13.78 0.22 14 0.5 14L11.5 14C11.78 14 12 13.78 12 13.5L12 3L9 0ZM2 2L8 2L8 3L2 3ZM2 5L7 5L7 6L2 6ZM2 8L10 8L10 9L2 9ZM2 11L6 11L6 12L2 12Z"/>
 </g>
</svg>
