<!-- Created with Inkscape (http://www.inkscape.org/) -->
<svg xmlns:rdf="http://www.w3.org/1999/02/22-rdf-syntax-ns#" xmlns="http://www.w3.org/2000/svg" height="32.002" width="32" version="1.1" xmlns:cc="http://creativecommons.org/ns#" xmlns:xlink="http://www.w3.org/1999/xlink" xmlns:dc="http://purl.org/dc/elements/1.1/">
 <defs>
  <linearGradient id="linearGradient4326" y2="41.607" gradientUnits="userSpaceOnUse" x2="49.884" gradientTransform="translate(-15.883902,-1.6069009)" y1="20.607" x1="49.884">
   <stop stop-color="#FFF" offset="0"/>
   <stop stop-color="#FFF" stop-opacity="0.23529412" offset="0.036262"/>
   <stop stop-color="#FFF" stop-opacity="0.15686275" offset="0.66667"/>
   <stop stop-color="#FFF" stop-opacity="0.39215687" offset="1"/>
  </linearGradient>
  <linearGradient id="linearGradient4352" y2="14.148" gradientUnits="userSpaceOnUse" x2="33.715" gradientTransform="translate(-15.883902,-1.6069009)" y1="26.955" x1="33.715">
   <stop stop-color="#FFF" offset="0"/>
   <stop stop-color="#FFF" stop-opacity="0.23529412" offset="0.38322"/>
   <stop stop-color="#FFF" stop-opacity="0.15686275" offset="0.95056"/>
   <stop stop-color="#FFF" stop-opacity="0.39215687" offset="1"/>
  </linearGradient>
  <linearGradient id="linearGradient4338" y2="35.642" gradientUnits="userSpaceOnUse" x2="29.465" gradientTransform="translate(-15.883902,-1.6069009)" y1="13.12" x1="29.465">
   <stop stop-color="#FFF" offset="0"/>
   <stop stop-color="#FFF" stop-opacity="0.23529412" offset="0.2789"/>
   <stop stop-color="#FFF" stop-opacity="0.15686275" offset="0.95056"/>
   <stop stop-color="#FFF" stop-opacity="0.39215687" offset="1"/>
  </linearGradient>
  <radialGradient id="radialGradient3352" xlink:href="#linearGradient3846-5" gradientUnits="userSpaceOnUse" cy="23.403" cx="9.966" gradientTransform="matrix(0,3.4561718,-4.1186673,0,121.20805,-33.840698)" r="13.931"/>
  <linearGradient id="linearGradient3846-5">
   <stop stop-color="#fff3cb" offset="0"/>
   <stop stop-color="#fdde76" offset="0.26238"/>
   <stop stop-color="#f9c440" offset="0.66094"/>
   <stop stop-color="#e48b20" offset="1"/>
  </linearGradient>
  <linearGradient id="linearGradient3354" y2="8.4049" xlink:href="#linearGradient3856-6" gradientUnits="userSpaceOnUse" x2="21.483" gradientTransform="matrix(1.6508808,0,0,1.6568311,-9.7968269,-13.801098)" y1="35.376" x1="21.483"/>
  <linearGradient id="linearGradient3856-6">
   <stop stop-color="#b67926" offset="0"/>
   <stop stop-color="#eab41a" offset="1"/>
  </linearGradient>
  <linearGradient id="linearGradient3797" y2="0.4976" gradientUnits="userSpaceOnUse" x2="23.749" y1="44.759" x1="23.749">
   <stop stop-color="#a3a3a3" offset="0"/>
   <stop stop-color="#bababa" offset="1"/>
  </linearGradient>
  <linearGradient id="linearGradient3988" y2="43" gradientUnits="userSpaceOnUse" x2="24" gradientTransform="matrix(0.89189189,0,0,1.1351351,2.5945999,-4.7432314)" y1="5.5641" x1="24">
   <stop stop-color="#FFF" offset="0"/>
   <stop stop-color="#FFF" stop-opacity="0.23529412" offset="0.036262"/>
   <stop stop-color="#FFF" stop-opacity="0.15686275" offset="0.95056"/>
   <stop stop-color="#FFF" stop-opacity="0.39215687" offset="1"/>
  </linearGradient>
  <linearGradient id="linearGradient3322" y2="47.013" gradientUnits="userSpaceOnUse" x2="25.132" gradientTransform="matrix(1,0,0,0.9561695,-9.9999999e-8,-1.9149218)" y1="0.98521" x1="25.132">
   <stop stop-color="#f4f4f4" offset="0"/>
   <stop stop-color="#dbdbdb" offset="1"/>
  </linearGradient>
  <linearGradient id="linearGradient3324" y2="2.9062" gradientUnits="userSpaceOnUse" x2="-51.786" gradientTransform="matrix(0.8074968,0,0,0.8948322,59.410232,-2.9805531)" y1="50.786" x1="-51.786">
   <stop stop-color="#a0a0a0" offset="0"/>
   <stop stop-color="#bebebe" offset="1"/>
  </linearGradient>
  <radialGradient id="radialGradient3327" xlink:href="#linearGradient5060" gradientUnits="userSpaceOnUse" cy="486.65" cx="605.71" gradientTransform="matrix(0.02303995,0,0,0.01470022,26.360882,37.040176)" r="117.14"/>
  <linearGradient id="linearGradient5060">
   <stop stop-color="#000" offset="0"/>
   <stop stop-color="#000" stop-opacity="0" offset="1"/>
  </linearGradient>
  <radialGradient id="radialGradient3330" xlink:href="#linearGradient5060" gradientUnits="userSpaceOnUse" cy="486.65" cx="605.71" gradientTransform="matrix(-0.02303994,0,0,0.01470022,21.62311,37.040176)" r="117.14"/>
  <linearGradient id="linearGradient4474" y2="609.51" gradientUnits="userSpaceOnUse" x2="302.86" gradientTransform="matrix(0.06732488,0,0,0.01470022,-0.3411391,37.040146)" y1="366.65" x1="302.86">
   <stop stop-color="#000" stop-opacity="0" offset="0"/>
   <stop stop-color="#000" offset="0.5"/>
   <stop stop-color="#000" stop-opacity="0" offset="1"/>
  </linearGradient>
 </defs>
 <metadata>
  <rdf:RDF>
   <cc:Work rdf:about="">
    <dc:format>image/svg+xml</dc:format>
    <dc:type rdf:resource="http://purl.org/dc/dcmitype/StillImage"/>
    <dc:title/>
   </cc:Work>
  </rdf:RDF>
 </metadata>
 <g transform="matrix(0.66666667,0,0,0.66666667,0,0.00184133)">
  <rect opacity="0.3" fill-rule="nonzero" height="3.5701" width="32.508" y="42.43" x="7.7378" fill="url(#linearGradient4474)"/>
  <path opacity="0.3" d="m7.7378,42.43v3.5699c-1.1865,0.0067-2.8684-0.79982-2.8684-1.7852,0-0.98533,1.324-1.7847,2.8684-1.7847z" fill-rule="nonzero" fill="url(#radialGradient3330)"/>
  <path opacity="0.3" d="m40.246,42.43v3.5699c1.1865,0.0067,2.8684-0.79982,2.8684-1.7852,0-0.98533-1.324-1.7847-2.8684-1.7847z" fill-rule="nonzero" fill="url(#radialGradient3327)"/>
  <path stroke-linejoin="round" d="M6.5,0.4972c8.02,0,35,0.0028,35,0.0028l0.000042,44.003h-35v-44.006z" stroke-dashoffset="0" stroke="url(#linearGradient3324)" stroke-linecap="butt" stroke-miterlimit="4" stroke-dasharray="none" stroke-width="0.99992186" fill="url(#linearGradient3322)"/>
  <path stroke-linejoin="round" d="m40.5,43.5-33,0,0-42,33,0z" stroke-dashoffset="0" stroke="url(#linearGradient3988)" stroke-linecap="round" stroke-miterlimit="4" stroke-dasharray="none" stroke-width="1" fill="none"/>
  <path d="m11,21,0,1,2.3438,0,0-1h-2.344zm0,4,0,1,2.75,0,0-1-2.75,0zm0,2,0,1,2.9375,0,0-1h-5.282zm0,2,0,1,2.5312,0,0-1h-4.875zm0,2.1562,0,0.96875,2.2188,0,0-0.96875-2.2188,0zm0.406-10.156v1h2.25v-1h-2.25zm-2.75,2,0,1,1,0,0-1-1,0zm3.1562,2,0,1,1.8438,0,0-1-1.8438,0zm0.125,2,0,1,2.7188,0,0-1-2.7188,0zm-0.34375,2,0,1,2.0625,0,0-1-2.0625,0zm-0.375,2.1562,0,0.96875,2.125,0,0-0.96875-2.125,0zm-2.562,2.844v1h4.2812v-1h-4.281zm0,2,0,1,3.6875,0,0-1h-3.688zm3.9688,0,0,1,1.7812,0,0-1-1.7812,0zm-0.625,2,0,1,3.3438,0,0-1-3.3438,0zm-3.344,0h3.0367v1h-3.037v-1zm3.4062-22,0,1,5.5938,0,0-1-5.5938,0zm0.03125,2,0,1,5.0938,0,0-1-5.0938,0zm1.1875,16,0,1,4.5938,0,0-1-4.5938,0zm4.9375,0,0,1,1.8125,0,0-1-1.8125,0zm2.1562,0,0,1,4.3125,0,0-1-4.3125,0zm4.6562,0,0,1,2.9688,0,0-1-2.9688,0zm3.2812,0,0,1,1.1562,0,0-1-1.1562,0zm1.5,0,0,1,0.6875,0,0-1-0.6875,0zm1,0,0,1,1.8438,0,0-1-1.8438,0zm-16.031,2,0,1,0.8125,0,0-1-0.8125,0zm1.0312,0,0,1,1.625,0,0-1-1.625,0zm1.875,0,0,1,1.625,0,0-1-1.625,0zm2.125,0,0,1,2.5938,0,0-1-2.5938,0zm2.9062,0,0,1,3.375,0,0-1-3.375,0zm3.8438,0,0,1,2.2812,0,0-1-2.2812,0zm2.5625,0,0,1h0.532v-1h-0.531zm-20.468-20v1h3.0625v-1h-3.062zm0,2,0,1,3.0938,0,0-1h-3.094zm0-11,0,1,2.375,0,0-1-2.375,0zm2.6875,0,0,1,2.25,0,0-1-2.25,0zm2.5625,0,0,1,1.9688,0,0-1-1.9688,0zm2.2812,0,0,1,0.875,0,0-1-0.875,0zm1.1875,0,0,1,1.9375,0,0-1-1.9375,0zm2.2812,0,0,1,5,0,0-1-5,0zm-11,2l0.001,1h3.7812v-1h-3.7812zm4.1562,0,0,1,1.8125,0,0-1-1.8125,0zm2.1562,0,0,1,0.84375,0,0-1-0.84375,0zm1.2188,0,0,1,1.625,0,0-1-1.625,0zm2,0,0,1,1.625,0,0-1-1.625,0zm1.9688,0,0,1,2.6562,0,0-1-2.6562,0zm3.0312,0,0,1,3.4688,0,0-1-3.4688,0zm-14.53,2v1h4.1875v-1h-4.188zm4.5,0,0,1,4.5,0,0-1-4.5,0zm-4.5,2,0,1,2.3125,0,0-1h-2.312zm2.625,0,0,1,2.1562,0,0-1-2.1562,0zm2.4688,0,0,1,1.9062,0,0-1-1.9062,0zm3.8125,5,0,1,1.9062,0,0-1-1.9062,0zm2.2188,0,0,1,1.9062,0,0-1-1.9062,0zm2.2188,0,0,1,2.75,0,0-1-2.75,0zm3.0938,0,0,1,0.5625,0,0-1-0.5625,0zm-7.438,7v1h2.3438v-1h-2.344zm2.6562,0,0,1,2.1875,0,0-1-2.1875,0zm2.5,0,0,1h1.844v-1h-1.844zm-5.156,2v1h1.875v-1h-1.875zm2.1875,0,0,1,4.8125,0,0-1-4.8125,0zm5.125,0,0,1,3.6875,0,0-1-3.6875,0zm-7.313,2v1h2.4375v-1h-2.438zm2.7812,0,0,1,4.2812,0,0-1-4.2812,0zm4.5938,0,0,1,2.9375,0,0-1-2.9375,0zm-7.375,2.125v0.96875h1.875v-0.96875h-1.875zm2.1875,0,0,0.96875,1.9062,0,0-0.96875-1.9062,0zm2.2188,0,0,0.96875,2.7188,0,0-0.96875-2.7188,0zm3.0312,0,0,0.96875,0.5625,0,0-0.96875-0.5625,0zm0.875,0,0,0.96875,3.5312,0,0-0.96875-3.5312,0zm-8.375,6.875,0,1,2.4375,0,0-1-2.4375,0zm2.75,0,0,1,2.25,0,0-1-2.25,0zm2.5938,0,0,1,1.9375,0,0-1-1.9375,0zm2.25,0,0,1,3.0938,0,0-1-3.0938,0zm3.4375,0,0,1,5.0312,0,0-1-5.0312,0z" fill="url(#linearGradient3797)"/>
  <g stroke-linejoin="round" style="color:#000000;letter-spacing:0px;word-spacing:0px;enable-background:accumulate;" font-weight="bold" font-family="Droid Sans" fill-rule="nonzero" line-height="125%" stroke-dashoffset="0" font-size="32px" font-style="normal" stroke="url(#linearGradient3354)" stroke-linecap="butt" stroke-miterlimit="4" font-stretch="normal" font-variant="normal" stroke-width="0.9922713" fill="url(#radialGradient3352)">
   <path d="m25.746,18.293,4.5664,0,2.4609,8.5996,0.60156,2.2695c0.03645-0.2552,0.07747-0.51497,0.12305-0.7793,0.04556-0.26432,0.09569-0.52408,0.15039-0.7793,0.06379-0.26432,0.1276-0.5013,0.19141-0.71094l2.4062-8.5996h4.5938l-6.043,17.24c-0.56511,1.6133-1.3353,2.8118-2.3105,3.5957-0.97527,0.78385-2.1966,1.1758-3.6641,1.1758-0.47396-0.000006-0.88412-0.02735-1.2305-0.08203-0.34636-0.04558-0.64258-0.09571-0.88867-0.15039v-3.3086c0.1914,0.04557,0.43294,0.08658,0.72461,0.12305,0.29166,0.03646,0.597,0.05468,0.91602,0.05469,0.4375-0.000003,0.81119-0.05925,1.1211-0.17773,0.30989-0.11849,0.57421-0.28711,0.79297-0.50586,0.22786-0.20964,0.41927-0.46484,0.57422-0.76562,0.16406-0.30078,0.30533-0.63802,0.42383-1.0117l0.25977-0.76562-5.7695-15.422m-11.406,3.1914,0.95312,0c1.3646,0.000012,2.3906-0.27082,3.0781-0.8125,0.6979-0.54165,1.0469-1.4219,1.0469-2.6406-0.000013-1.1354-0.31251-1.9739-0.9375-2.5156-0.6146-0.54165-1.5833-0.81248-2.9062-0.8125h-1.2344v6.7812m9.9844-3.625c-0.000018,1-0.15106,1.9583-0.45312,2.875-0.3021,0.91668-0.8021,1.724-1.5,2.4219-0.68752,0.69793-1.599,1.2552-2.7344,1.6719-1.125,0.41668-2.5208,0.62501-4.1875,0.625h-1.1094v8.125h-4.8438v-22.844h6.3438c1.4687,0.000023,2.7344,0.16669,3.7969,0.5,1.0729,0.32294,1.9531,0.79169,2.6406,1.4062,0.6979,0.60419,1.2135,1.349,1.5469,2.2344,0.33332,0.87502,0.49998,1.8698,0.5,2.9844" stroke="url(#linearGradient3354)" fill="url(#radialGradient3352)"/>
  </g>
  <path stroke-linejoin="round" opacity="0.8" style="color:#000000;enable-background:accumulate;" d="m10.469,11.719,0,20.875,2.9062,0,0-7.1562a0.97158,0.97158,0,0,1,0.96875,-0.96875h1.0938c1.5857,0.000008,2.8653-0.20009,3.8438-0.5625,1.0403-0.38177,1.8488-0.8716,2.4062-1.4375,0.60221-0.60221,0.9956-1.2593,1.25-2.0312,0.26608-0.80746,0.40623-1.6502,0.40625-2.5625-0.000016-1.0177-0.1544-1.913-0.4375-2.6562-0.28511-0.75726-0.68346-1.3533-1.25-1.8438a0.97158,0.97158,0,0,1,-0.031,-0.03c-0.5457-0.48779-1.2973-0.86009-2.2812-1.1562-0.94313-0.29586-2.1047-0.46873-3.5-0.46875h-5.375z" stroke-dashoffset="0" stroke="url(#linearGradient4338)" stroke-linecap="butt" stroke-miterlimit="4" stroke-width="1" fill="none"/>
  <path stroke-linejoin="round" opacity="0.8" style="color:#000000;enable-background:accumulate;" d="m14.188,13.719a0.97158,0.97158,0,0,1,0.15625,0h1.2188c1.444,0.000021,2.6588,0.30588,3.5312,1.0625,0.0069,0.006,0.02437-0.0061,0.03125,0l-0.03125,0.03125c0.8717,0.76818,1.2812,1.915,1.2812,3.2188-0.000015,1.3862-0.43158,2.6369-1.4062,3.4062h-0.03125c-0.93629,0.7268-2.1746,1.0313-3.6562,1.0312h-0.9375a0.97158,0.97158,0,0,1,-0.969,-0.969v-6.8125a0.97158,0.97158,0,0,1,0.8125,-0.96875z" stroke-dashoffset="0" stroke="url(#linearGradient4352)" stroke-linecap="butt" stroke-miterlimit="4" stroke-width="1" fill="none"/>
  <path stroke-linejoin="round" opacity="0.8" style="color:#000000;enable-background:accumulate;" d="m27.156,19.25,5.2812,14.125c0.08288,0.21909,0.08288,0.46841,0,0.6875l-0.25,0.6875-0.03125,0.0625c-0.11452,0.35874-0.24034,0.75454-0.4375,1.125-0.0067,0.01252-0.02443,0.01874-0.03125,0.03125-0.21274,0.39778-0.48826,0.72429-0.75,0.96875-0.01011,0.01011-0.02099,0.02128-0.03125,0.03125-0.30722,0.29848-0.68482,0.53114-1.0938,0.6875-0.43825,0.16756-0.9291,0.25-1.4688,0.25-0.23646-0.000002-0.44385-0.01211-0.65625-0.03125v1.375c0.01198,0.0016,0.01908-0.0016,0.03125,0,0.01042-0.000168,0.02083-0.000168,0.03125,0,0.30338,0.0479,0.64191,0.09374,1.0625,0.09375,1.2893-0.000006,2.3062-0.33575,3.0938-0.96875,0.79412-0.63827,1.4766-1.6621,2-3.1562l5.594-15.969h-2.5l-2.2188,7.9062c0.000168,0.01042,0.000168,0.02083,0,0.03125-0.05961,0.19584-0.12825,0.37949-0.1875,0.625-0.05465,0.25498-0.08383,0.47993-0.125,0.71875-0.04289,0.24875-0.09138,0.48621-0.125,0.71875-0.0011,0.0099,0.001,0.02129,0,0.03125l-1.0312,1.5625c-0.488-0.552-0.84-1.577-1.188-2.313-0.058-0.485-0.153-0.926-0.281-1.343l-2.282-7.938z" stroke-dashoffset="0" stroke="url(#linearGradient4326)" stroke-linecap="butt" stroke-miterlimit="4" stroke-width="1" fill="none"/>
 </g>
</svg>
