<?xml version="1.0" encoding="UTF-8" standalone="no"?>
<svg xmlns:rdf="http://www.w3.org/1999/02/22-rdf-syntax-ns#" xmlns="http://www.w3.org/2000/svg" height="32.002" width="32" version="1.1" xmlns:cc="http://creativecommons.org/ns#" xmlns:xlink="http://www.w3.org/1999/xlink" xmlns:dc="http://purl.org/dc/elements/1.1/">
 <defs>
  <linearGradient id="n" x1="25" xlink:href="#b" gradientUnits="userSpaceOnUse" y1="43" gradientTransform="translate(0 -.00046093)" x2="25" y2="14"/>
  <linearGradient id="b">
   <stop stop-color="#FFF" offset="0"/>
   <stop stop-color="#FFF" stop-opacity="0" offset="1"/>
  </linearGradient>
  <linearGradient id="m" x1="30" xlink:href="#b" gradientUnits="userSpaceOnUse" y1="9.9828" gradientTransform="translate(0 -.00046093)" x2="30" y2="28.585"/>
  <radialGradient id="f" fx="7.2758" gradientUnits="userSpaceOnUse" cy="9.9571" cx="7.8061" gradientTransform="matrix(-1.6167e-7 6.6019 -8.0922 -1.9817e-7 104.56 -60.073)" r="12.672">
   <stop stop-color="#90dbec" offset="0"/>
   <stop stop-color="#55c1ec" offset=".26238"/>
   <stop stop-color="#3689e6" offset=".70495"/>
   <stop stop-color="#2b63a0" offset="1"/>
  </radialGradient>
  <linearGradient id="l" x1="25" gradientUnits="userSpaceOnUse" y1="47.935" gradientTransform="translate(0 -.00046093)" x2="25" y2=".91791">
   <stop stop-color="#185f9a" offset="0"/>
   <stop stop-color="#599ec9" offset="1"/>
  </linearGradient>
  <radialGradient id="e" gradientUnits="userSpaceOnUse" cy="63.965" cx="15.116" gradientTransform="matrix(1.1392 0 0 .40687 6.78 7.7466)" r="12.289">
   <stop offset="0"/>
   <stop stop-opacity="0" offset="1"/>
  </radialGradient>
  <linearGradient id="k" x1="21.253" gradientUnits="userSpaceOnUse" y1="44.301" gradientTransform="translate(0 .99954)" x2="21.253" y2=".50543">
   <stop stop-color="#AAA" offset="0"/>
   <stop stop-color="#c8c8c8" offset="1"/>
  </linearGradient>
  <linearGradient id="h" x1="24" gradientUnits="userSpaceOnUse" y1="5.5641" gradientTransform="matrix(.89189 0 0 1.1351 2.5946 -4.7432)" x2="24" y2="43">
   <stop stop-color="#FFF" offset="0"/>
   <stop stop-color="#FFF" stop-opacity=".23529" offset=".036262"/>
   <stop stop-color="#FFF" stop-opacity=".15686" offset=".95056"/>
   <stop stop-color="#FFF" stop-opacity=".39216" offset="1"/>
  </linearGradient>
  <linearGradient id="j" x1="25.132" gradientUnits="userSpaceOnUse" y1=".98521" gradientTransform="matrix(1 0 0 .95617 -1e-7 -1.9149)" x2="25.132" y2="47.013">
   <stop stop-color="#f4f4f4" offset="0"/>
   <stop stop-color="#dbdbdb" offset="1"/>
  </linearGradient>
  <linearGradient id="i" x1="-51.786" gradientUnits="userSpaceOnUse" y1="50.786" gradientTransform="matrix(.80750 0 0 .89483 59.41 -2.9806)" x2="-51.786" y2="2.9062">
   <stop stop-color="#a0a0a0" offset="0"/>
   <stop stop-color="#bebebe" offset="1"/>
  </linearGradient>
  <radialGradient id="d" xlink:href="#a" gradientUnits="userSpaceOnUse" cy="486.65" cx="605.71" gradientTransform="matrix(.023040 0 0 0.0147 26.361 37.04)" r="117.14"/>
  <linearGradient id="a">
   <stop offset="0"/>
   <stop stop-opacity="0" offset="1"/>
  </linearGradient>
  <radialGradient id="c" xlink:href="#a" gradientUnits="userSpaceOnUse" cy="486.65" cx="605.71" gradientTransform="matrix(-.023040 0 0 0.0147 21.623 37.04)" r="117.14"/>
  <linearGradient id="g" x1="302.86" gradientUnits="userSpaceOnUse" y1="366.65" gradientTransform="matrix(.067325 0 0 0.0147 -.34114 37.04)" x2="302.86" y2="609.51">
   <stop stop-opacity="0" offset="0"/>
   <stop offset=".5"/>
   <stop stop-opacity="0" offset="1"/>
  </linearGradient>
 </defs>
 <g transform="matrix(.66667 0 0 .66667 0 .0018413)">
  <g>
   <rect opacity=".3" height="3.5701" width="32.508" y="42.43" x="7.7378" fill="url(#g)"/>
   <path opacity=".3" fill="url(#c)" d="m7.7378 42.43v3.5699c-1.1865 0.0067-2.8684-0.79982-2.8684-1.7852 0-0.98533 1.324-1.7847 2.8684-1.7847z"/>
   <path opacity=".3" fill="url(#d)" d="m40.246 42.43v3.5699c1.1865 0.0067 2.8684-0.79982 2.8684-1.7852 0-0.98533-1.324-1.7847-2.8684-1.7847z"/>
  </g>
  <path stroke-linejoin="round" d="m6.5 0.4972c8.02 0 35 0.0028 35 0.0028l0.000042 44.003h-35v-44.006z" stroke="url(#i)" stroke-width=".99992" fill="url(#j)"/>
  <path stroke-linejoin="round" d="m40.5 43.5h-33v-42h33z" stroke="url(#h)" stroke-linecap="round" fill="none"/>
  <path d="m11 6.9995v1h2.375v-1zm2.6875 0v1h2.25v-1zm2.5625 0v1h1.9688v-1zm2.2812 0v1h0.875v-1zm1.1875 0v1h1.9375v-1zm2.2812 0v1h5v-1zm-11 2v1h3.7812v-1zm4.1562 0v1h1.8125v-1zm2.1562 0v1h0.84375v-1zm1.2188 0v1h1.625v-1zm2 0v1h1.625v-1zm1.9688 0v1h2.6562v-1zm3.0312 0v1h3.4688v-1zm-16.904 2.0005v1h4.1875v-1zm4.5 0v1h4.5v-1zm-4.5 2v1h2.3125v-1zm2.625 0v1h2.1562v-1zm2.4688 0v1h1.9062v-1zm-5.0938 3v1h3.0625v-1zm3.4062 0v1h5.5938v-1zm-3.4062 2v1h3.0938v-1zm3.4375 0v1h5.0938v-1c-2.793 2.816-6.7194 8.5464-5.0938 0zm5.4688 0v1h1.9062v-1zm2.2188 0v1h1.9062v-1zm2.2188 0v1h2.75v-1zm3.0938 0v1h0.5625v-1zm-16.438 3v1h2.3438v-1zm0 2v1h1v-1zm0 2v1h2.75v-1zm9 0v1h2.3438v-1zm2.6562 0v1h2.1875v-1zm2.5 0v1h1.8438v-1zm-14.156 2v1h2.9375v-1zm9 0v1h1.875v-1zm2.1875 0v1h4.8125v-1zm5.125 0v1h3.6875v-1zm-16.312 2v1h2.5312v-1zm9 0v1h2.4375v-1zm2.7812 0v1h4.2812v-1zm4.5938 0v1h2.9375v-1zm-16.376 2.156v0.96875h2.2188v-0.96875zm2.5625 0v0.96875h2.125v-0.96875zm-2.562 2.844v1h4.2812v-1zm4.625 0v1h4.5938v-1zm11.75 0v1h2.9688v-1zm3.2812 0v1h1.1562v-1zm1.5 0v1h0.6875v-1zm1 0v1h1.8438v-1zm-22.156 2v1h3.6875v-1zm3.9688 0v1h1.7812v-1zm2.1562 0v1h0.8125v-1zm1.0312 0v1h1.625v-1zm1.875 0v1h1.625v-1zm2.125 0v1h2.5938v-1zm2.9062 0v1h3.375v-1zm3.8438 0v1h2.2812v-1zm2.5625 0v1h0.53125v-1zm-20.469 2v1h3.0312v-1zm3.3438 0v1h3.3438v-1zm5.5938 0v1h2.4375v-1zm2.75 0v1h2.25v-1zm2.5938 0v1h1.9375v-1zm2.25 0v1h3.0938v-1zm3.4375 0v1h5.0312v-1z" fill="url(#k)"/>
  <path opacity=".3" d="m38 33.772c0.002 2.762-6.267 5.001-14 5.001s-14.002-2.239-14-5.001c-0.0015-2.762 6.267-5.001 14-5.001 7.7331 0 14.002 2.2392 14 5.001z" fill="url(#e)"/>
  <g stroke-linecap="square">
   <path stroke-linejoin="round" d="m24 10.5c-6.9 0-12.5 5.6-12.5 12.5s5.6 12.5 12.5 12.5c5.1254 0 10-3.5 11.553-8h-5.536c-1.3314 1.7506-3.794 3-6.0175 3-4.14 0-7.5-3.36-7.5-7.5-0.000002-4.14 3.36-7.5 7.5-7.5 2.6674 0 5.1835 1.9004 6.5132 4h4.9491c-0.46238-4.5-5.9604-9-11.462-9z" stroke="url(#l)" fill="url(#f)"/>
   <path opacity=".5" d="m34.125 17.937c-1.85-3.7875-5.876-6.4337-10.125-6.375-4.4493-0.06217-8.7511 2.7592-10.485 6.8537-1.8453 4.1071-0.95053 9.2567 2.2024 12.479 2.1403 2.3057 5.2836 3.5679 8.4064 3.5424" stroke="url(#m)" fill="none"/>
   <path opacity=".5" d="m23.561 14.448c-4.0197 0.13299-7.6119 3.4686-8.0541 7.4638-0.56609 3.8529 1.8882 7.8464 5.5554 9.1288 3.0106 1.1697 7.3287 0.17216 9.3618-2.5497h4.5763" stroke="url(#n)" fill="none"/>
  </g>
 </g>
</svg>
