<?xml version="1.0" encoding="UTF-8" standalone="no"?>
<svg xmlns:rdf="http://www.w3.org/1999/02/22-rdf-syntax-ns#" xmlns="http://www.w3.org/2000/svg" height="32px" width="32px" version="1.1" xmlns:cc="http://creativecommons.org/ns#" xmlns:xlink="http://www.w3.org/1999/xlink" xmlns:dc="http://purl.org/dc/elements/1.1/">
 <defs>
  <linearGradient id="h" x1="24" gradientUnits="userSpaceOnUse" y1="5.5641" gradientTransform="matrix(.56757 0 0 .72973 2.3784 -2.5135)" x2="24" y2="43">
   <stop stop-color="#fff" offset="0"/>
   <stop stop-color="#fff" stop-opacity=".23529" offset=".036262"/>
   <stop stop-color="#fff" stop-opacity=".15686" offset=".95056"/>
   <stop stop-color="#fff" stop-opacity=".39216" offset="1"/>
  </linearGradient>
  <linearGradient id="i" x1="25.132" gradientUnits="userSpaceOnUse" y1=".98521" gradientTransform="matrix(.65714 0 0 .63012 .22856 -1.0896)" x2="25.132" y2="47.013">
   <stop stop-color="#f4f4f4" offset="0"/>
   <stop stop-color="#dbdbdb" offset="1"/>
  </linearGradient>
  <linearGradient id="j" x1="-51.786" gradientUnits="userSpaceOnUse" y1="50.786" gradientTransform="matrix(.53064 0 0 .58970 39.27 -1.7919)" x2="-51.786" y2="2.9062">
   <stop stop-color="#a0a0a0" offset="0"/>
   <stop stop-color="#bebebe" offset="1"/>
  </linearGradient>
  <radialGradient id="l" xlink:href="#a" gradientUnits="userSpaceOnUse" cy="486.65" cx="605.71" gradientTransform="matrix(.015663 0 0 .0082353 17.61 25.981)" r="117.14"/>
  <linearGradient id="a">
   <stop offset="0"/>
   <stop stop-opacity="0" offset="1"/>
  </linearGradient>
  <radialGradient id="m" xlink:href="#a" gradientUnits="userSpaceOnUse" cy="486.65" cx="605.71" gradientTransform="matrix(-.015663 0 0 .0082353 14.39 25.981)" r="117.14"/>
  <linearGradient id="k" x1="302.86" gradientUnits="userSpaceOnUse" x2="302.86" gradientTransform="matrix(.045769 0 0 .0082353 -.54232 25.981)" y1="366.65" y2="609.51">
   <stop stop-opacity="0" offset="0"/>
   <stop offset=".5"/>
   <stop stop-opacity="0" offset="1"/>
  </linearGradient>
 </defs>
 <rect opacity=".15" height="2" width="22.1" y="29" x="4.95" fill="url(#k)"/>
 <path opacity=".15" d="m4.95 29v1.9999c-0.80662 0.0038-1.95-0.44807-1.95-1.0001 0-0.552 0.90012-0.99982 1.95-0.99982z" fill="url(#m)"/>
 <path opacity=".15" d="m27.05 29v1.9999c0.80661 0.0038 1.95-0.44807 1.95-1.0001 0-0.552-0.90012-0.99982-1.95-0.99982z" fill="url(#l)"/>
 <path stroke-linejoin="round" stroke="url(#j)" stroke-width=".99992" d="m4.5 0.49996c5.2705 0 23 0.00185 23 0.00185l0.000028 28.998h-23v-29z" fill="url(#i)"/>
 <path stroke-linejoin="round" stroke="url(#h)" stroke-linecap="round" d="m26.5 28.5h-21v-27h21z" fill="none"/>
 <g fill="#fff">
  <rect opacity=".6" style="color:#000000" fill-rule="evenodd" transform="matrix(1 0 -.42525 .90508 0 0)" height="8.839" width="1.2412" y="14.363" x="23.867"/>
  <path opacity=".6" d="m23.142 16.907-2.939-3.68 0.979-1.227 3.818 4.907-3.919 5.093-1.081-1.12 3.142-3.973z"/>
  <path opacity=".6" d="m8.8581 16.907 2.9389-3.68-0.979-1.227-3.818 4.907 3.919 5.093 1.081-1.12-3.1419-3.973z"/>
 </g>
 <path opacity=".4" d="m8.8581 15.907 2.9389-3.68-0.979-1.227-3.818 4.907 3.919 5.093 1.081-1.12-3.1419-3.973z" fill="#666"/>
 <rect opacity=".4" style="color:#000000" fill-rule="evenodd" transform="matrix(1 0 -.42525 .90508 0 0)" height="8.839" width="1.2412" y="13.259" x="23.397"/>
 <path opacity=".4" d="m23.142 15.907-2.939-3.68 0.979-1.227 3.818 4.907-3.919 5.093-1.081-1.12 3.142-3.973z" fill="#666"/>
</svg>
