<svg xmlns="http://www.w3.org/2000/svg" height="16" width="16" version="1"><path d="M4.005 1c-.554 0-1 .446-1 1v2c0 .554.446 1 1 1s1-.446 1-1V2c0-.554-.446-1-1-1zm8 0c-.554 0-1 .446-1 1v2c0 .554.446 1 1 1s1-.446 1-1V2c0-.554-.446-1-1-1zm-6.5 2v1c0 .83-.67 1.5-1.5 1.5s-1.5-.67-1.5-1.5v-.938A1.997 1.997 0 0 0 1.005 5v8c0 1.108.892 2 2 2h10c1.108 0 2-.892 2-2V5c0-.935-.636-1.716-1.5-1.938V4c0 .83-.67 1.5-1.5 1.5s-1.5-.67-1.5-1.5V3h-5zM2.552 7.5h10.906c.028 0 .047.02.047.047v5.906c0 .028-.02.047-.047.047H2.552a.045.045 0 0 1-.047-.047V7.547c0-.028.02-.047.047-.047z" fill="#969696"/></svg>