<?xml version="1.0" encoding="UTF-8" standalone="no"?>
<svg xmlns:rdf="http://www.w3.org/1999/02/22-rdf-syntax-ns#" xmlns="http://www.w3.org/2000/svg" height="32.002" width="32" version="1.1" xmlns:cc="http://creativecommons.org/ns#" xmlns:xlink="http://www.w3.org/1999/xlink" xmlns:dc="http://purl.org/dc/elements/1.1/">
 <defs>
  <linearGradient id="l" x1="21.038" gradientUnits="userSpaceOnUse" y1="29.845" gradientTransform="matrix(.58514 0 0 .60235 3.8714 10.911)" x2="21.038" y2="36.456">
   <stop stop-color="#FFF" offset="0"/>
   <stop stop-color="#FFF" stop-opacity="0" offset="1"/>
  </linearGradient>
  <linearGradient id="h" x1="26.884" gradientUnits="userSpaceOnUse" y1="12.607" gradientTransform="translate(4.1161 -1.6069)" x2="26.884" y2="34.607">
   <stop stop-color="#FFF" offset="0"/>
   <stop stop-color="#FFF" stop-opacity=".23529" offset=".090909"/>
   <stop stop-color="#FFF" stop-opacity=".15686" offset=".95455"/>
   <stop stop-color="#FFF" stop-opacity=".39216" offset="1"/>
  </linearGradient>
  <radialGradient id="e" fx="9.3065" xlink:href="#b" gradientUnits="userSpaceOnUse" cy="10.244" cx="9.8368" gradientTransform="matrix(0 7.1404 -7.3431 0 93.723 -67.567)" r="12.672"/>
  <linearGradient id="b">
   <stop stop-color="#f8b17e" offset="0"/>
   <stop stop-color="#e35d4f" offset=".26238"/>
   <stop stop-color="#c6262e" offset=".66094"/>
   <stop stop-color="#690b54" offset="1"/>
  </linearGradient>
  <linearGradient id="n" x1="25" xlink:href="#c" gradientUnits="userSpaceOnUse" y1="49.945" gradientTransform="matrix(.98529 0 0 1.0091 -3.0293 -2.6662)" x2="25" y2="4.9451"/>
  <linearGradient id="c">
   <stop stop-color="#791235" offset="0"/>
   <stop stop-color="#dd3b27" offset="1"/>
  </linearGradient>
  <radialGradient id="d" fx="9.3065" xlink:href="#b" gradientUnits="userSpaceOnUse" cy="10.244" cx="9.8368" gradientTransform="matrix(0 7.1404 -7.3431 0 93.723 -67.168)" r="12.672"/>
  <linearGradient id="m" x1="25" xlink:href="#c" gradientUnits="userSpaceOnUse" y1="49.945" gradientTransform="matrix(.98529 0 0 1.0091 -3.0293 -2.2671)" x2="25" y2="4.9451"/>
  <linearGradient id="k" y2=".4976" gradientUnits="userSpaceOnUse" y1="44.759" x2="23.749" x1="23.749">
   <stop stop-color="#a3a3a3" offset="0"/>
   <stop stop-color="#bababa" offset="1"/>
  </linearGradient>
  <linearGradient id="j" x1="24" gradientUnits="userSpaceOnUse" y1="5.5641" gradientTransform="matrix(.89189 0 0 1.1351 2.5946 -4.7432)" x2="24" y2="43">
   <stop stop-color="#FFF" offset="0"/>
   <stop stop-color="#FFF" stop-opacity=".23529" offset=".036262"/>
   <stop stop-color="#FFF" stop-opacity=".15686" offset=".95056"/>
   <stop stop-color="#FFF" stop-opacity=".39216" offset="1"/>
  </linearGradient>
  <linearGradient id="p" x1="25.132" gradientUnits="userSpaceOnUse" y1=".98521" gradientTransform="matrix(1 0 0 .95617 -1e-7 -1.9149)" x2="25.132" y2="47.013">
   <stop stop-color="#f4f4f4" offset="0"/>
   <stop stop-color="#dbdbdb" offset="1"/>
  </linearGradient>
  <linearGradient id="o" x1="-51.786" gradientUnits="userSpaceOnUse" y1="50.786" gradientTransform="matrix(.80750 0 0 .89483 59.41 -2.9806)" x2="-51.786" y2="2.9062">
   <stop stop-color="#a0a0a0" offset="0"/>
   <stop stop-color="#bebebe" offset="1"/>
  </linearGradient>
  <radialGradient id="g" xlink:href="#a" gradientUnits="userSpaceOnUse" cy="486.65" cx="605.71" gradientTransform="matrix(.023040 0 0 0.0147 26.361 37.04)" r="117.14"/>
  <linearGradient id="a">
   <stop offset="0"/>
   <stop stop-opacity="0" offset="1"/>
  </linearGradient>
  <radialGradient id="f" xlink:href="#a" gradientUnits="userSpaceOnUse" cy="486.65" cx="605.71" gradientTransform="matrix(-.023040 0 0 0.0147 21.623 37.04)" r="117.14"/>
  <linearGradient id="i" x1="302.86" gradientUnits="userSpaceOnUse" y1="366.65" gradientTransform="matrix(.067325 0 0 0.0147 -.34114 37.04)" x2="302.86" y2="609.51">
   <stop stop-opacity="0" offset="0"/>
   <stop offset=".5"/>
   <stop stop-opacity="0" offset="1"/>
  </linearGradient>
 </defs>
 <g transform="matrix(.66667 0 0 .66667 0 .0018413)">
  <g>
   <rect opacity=".3" height="3.5701" width="32.508" y="42.43" x="7.7378" fill="url(#i)"/>
   <path opacity=".3" fill="url(#f)" d="m7.7378 42.43v3.5699c-1.1865 0.0067-2.8684-0.79982-2.8684-1.7852 0-0.98533 1.324-1.7847 2.8684-1.7847z"/>
   <path opacity=".3" fill="url(#g)" d="m40.246 42.43v3.5699c1.1865 0.0067 2.8684-0.79982 2.8684-1.7852 0-0.98533-1.324-1.7847-2.8684-1.7847z"/>
  </g>
  <path stroke-linejoin="round" d="m6.5 0.4972c8.02 0 35 0.0028 35 0.0028l0.000042 44.003h-35v-44.006z" stroke="url(#o)" stroke-width=".99992" fill="url(#p)"/>
  <path stroke-linejoin="round" d="m40.5 43.5h-33v-42h33z" stroke="url(#j)" stroke-linecap="round" fill="none"/>
  <path d="m11 21v1h2.3438v-1h-2.344zm0 4v1h2.75v-1h-2.75zm0 2v1h2.9375v-1h-5.282zm0 2v1h2.5312v-1h-4.875zm0 2.1562v0.96875h2.2188v-0.96875h-2.2188zm0.406-10.156v1h2.25v-1h-2.25zm-2.75 2v1h1v-1h-1zm3.1562 2v1h1.8438v-1h-1.8438zm0.125 2v1h2.7188v-1h-2.7188zm-0.34375 2v1h2.0625v-1h-2.0625zm-0.375 2.1562v0.96875h2.125v-0.96875h-2.125zm-2.562 2.844v1h4.2812v-1h-4.281zm0 2v1h3.6875v-1h-3.688zm3.9688 0v1h1.7812v-1h-1.7812zm-0.625 2v1h3.3438v-1h-3.3438zm-3.344 0h3.0367v1h-3.037v-1zm3.4062-22v1h5.5938v-1h-5.5938zm0.03125 2v1h5.0938v-1h-5.0938zm1.1875 16v1h4.5938v-1h-4.5938zm4.9375 0v1h1.8125v-1h-1.8125zm2.1562 0v1h4.3125v-1h-4.3125zm4.6562 0v1h2.9688v-1h-2.9688zm3.2812 0v1h1.1562v-1h-1.1562zm1.5 0v1h0.6875v-1h-0.6875zm1 0v1h1.8438v-1h-1.8438zm-16.031 2v1h0.8125v-1h-0.8125zm1.0312 0v1h1.625v-1h-1.625zm1.875 0v1h1.625v-1h-1.625zm2.125 0v1h2.5938v-1h-2.5938zm2.9062 0v1h3.375v-1h-3.375zm3.8438 0v1h2.2812v-1h-2.2812zm2.5625 0v1h0.532v-1h-0.531zm-20.468-20v1h3.0625v-1h-3.062zm0 2v1h3.0938v-1h-3.094zm0-11v1h2.375v-1h-2.375zm2.6875 0v1h2.25v-1h-2.25zm2.5625 0v1h1.9688v-1h-1.9688zm2.2812 0v1h0.875v-1h-0.875zm1.1875 0v1h1.9375v-1h-1.9375zm2.2812 0v1h5v-1h-5zm-11 2l0.001 1h3.7812v-1h-3.7812zm4.1562 0v1h1.8125v-1h-1.8125zm2.1562 0v1h0.84375v-1h-0.84375zm1.2188 0v1h1.625v-1h-1.625zm2 0v1h1.625v-1h-1.625zm1.9688 0v1h2.6562v-1h-2.6562zm3.0312 0v1h3.4688v-1h-3.4688zm-14.53 2v1h4.1875v-1h-4.188zm4.5 0v1h4.5v-1h-4.5zm-4.5 2v1h2.3125v-1h-2.312zm2.625 0v1h2.1562v-1h-2.1562zm2.4688 0v1h1.9062v-1h-1.9062zm3.8125 5v1h1.9062v-1h-1.9062zm2.2188 0v1h1.9062v-1h-1.9062zm2.2188 0v1h2.75v-1h-2.75zm3.0938 0v1h0.5625v-1h-0.5625zm-7.438 7v1h2.3438v-1h-2.344zm2.6562 0v1h2.1875v-1h-2.1875zm2.5 0v1h1.844v-1h-1.844zm-5.156 2v1h1.875v-1h-1.875zm2.1875 0v1h4.8125v-1h-4.8125zm5.125 0v1h3.6875v-1h-3.6875zm-7.313 2v1h2.4375v-1h-2.438zm2.7812 0v1h4.2812v-1h-4.2812zm4.5938 0v1h2.9375v-1h-2.9375zm-7.375 2.125v0.96875h1.875v-0.96875h-1.875zm2.1875 0v0.96875h1.9062v-0.96875h-1.9062zm2.2188 0v0.96875h2.7188v-0.96875h-2.7188zm3.0312 0v0.96875h0.5625v-0.96875h-0.5625zm0.875 0v0.96875h3.5312v-0.96875h-3.5312zm-8.375 6.875v1h2.4375v-1h-2.4375zm2.75 0v1h2.25v-1h-2.25zm2.5938 0v1h1.9375v-1h-1.9375zm2.25 0v1h3.0938v-1h-3.0938zm3.4375 0v1h5.0312v-1h-5.0312z" fill="url(#k)"/>
  <g stroke-linejoin="round">
   <path style="color:#000000" d="m34.549 33.5h-4.4021v-9.6523c-0.000012-1.1924-0.18283-2.0842-0.54845-2.6754-0.35602-0.6011-0.90929-0.90166-1.6598-0.90167-0.56771 0.000013-1.044 0.11826-1.4289 0.35476-0.38489 0.23652-0.69279 0.58634-0.92371 1.0495-0.23094 0.46316-0.39451 1.0347-0.49072 1.7147-0.09623 0.67996-0.14434 1.4584-0.14433 2.3355v7.7751h-4.4021v-23h4.4021l0.02888 8.588c0.47147-0.85731 1.0728-1.4732 1.8041-1.8477 0.73126-0.3843 1.5588-0.57646 2.4825-0.57648 0.79861 0.000017 1.5203 0.11827 2.1649 0.35476 0.65428 0.22666 1.2124 0.58635 1.6742 1.079 0.46184 0.49273 0.81785 1.1234 1.068 1.892 0.25016 0.7588 0.37524 1.6703 0.37526 2.7346v10.776z" stroke="url(#m)" fill="url(#d)"/>
   <path style="color:#000000" d="m11.5 30.987c-0.000001-0.46315 0.06254-0.8524 0.18763-1.1677 0.1347-0.32519 0.31752-0.58633 0.54845-0.78342 0.23092-0.19708 0.50034-0.33997 0.80825-0.42866 0.3079-0.08868 0.63986-0.13303 0.99588-0.13303 0.33676 0.000004 0.65429 0.04435 0.95258 0.13303 0.3079 0.08869 0.57731 0.23158 0.80825 0.42866 0.23092 0.19709 0.41374 0.45823 0.54845 0.78342 0.1347 0.31534 0.20206 0.70459 0.20206 1.1677-0.000007 0.44345-0.06736 0.82284-0.20206 1.1382-0.13471 0.31534-0.31753 0.57648-0.54845 0.78342-0.23093 0.20694-0.50035 0.35476-0.80825 0.44344-0.299 0.1-0.616 0.149-0.953 0.149-0.35602 0-0.68798-0.04927-0.99588-0.14782-0.30791-0.08869-0.57732-0.2365-0.80825-0.44344s-0.41375-0.46808-0.54845-0.78342c-0.12509-0.31534-0.18763-0.69473-0.18763-1.1382" stroke="url(#n)" fill="url(#e)"/>
   <path opacity=".5" style="color:#000000" d="m18.531 11.75v20.719h2.4062v-6.6875c-0.000007-0.91545 0.051-1.7426 0.15625-2.4688 0.11019-0.76037 0.32838-1.4191 0.625-2 0.30993-0.60695 0.75513-1.1031 1.3125-1.4375 0.54784-0.32869 1.2249-0.53123 1.9688-0.53125 1.0265 0.000018 1.9995 0.53062 2.5312 1.375h0.03125c0.0051 0.008-0.005 0.02321 0 0.03125 0.52572 0.84456 0.71874 1.9068 0.71875 3.1875v8.5312h2.4062v-9.6562c-0.000015-0.95546-0.12792-1.7045-0.34375-2.3438a1.0305 1.0305 0 0 1 0 -0.03125c-0.218-0.661-0.505-1.118-0.842-1.469-0.357-0.372-0.809-0.674-1.312-0.844-0.52338-0.18746-1.1259-0.28124-1.8438-0.28125-0.80443 0.000015-1.4868 0.14206-2.0625 0.4375-0.52554 0.26278-0.96905 0.71674-1.375 1.4375a1.0305 1.0305 0 0 1 -0.907 0.53h-0.25a1.0305 1.0305 0 0 1 -1.0312 -1.0938c0.03222-0.47267 0.08842-0.92314 0.125-1.3438 0.02673-0.34755 0.04266-0.73126 0.0625-1.1875 0.01907-0.44831 0.03124-0.89069 0.03125-1.2812v-3.5938h-2.4062z" transform="matrix(1 0 0 1.0136 2.9688 -.44075)" stroke="url(#h)" stroke-width=".99328" fill="none"/>
   <path opacity=".5" style="color:#000000" d="m12.5 31c-0.000001-0.27647 0.03714-0.50882 0.11143-0.69706 0.08-0.19412 0.18857-0.35 0.32571-0.46765 0.13714-0.11764 0.29714-0.20294 0.48-0.25588 0.18286-0.05293 0.38-0.07941 0.59143-0.07941 0.2 0.000003 0.38857 0.02647 0.56571 0.07941 0.18285 0.05294 0.34285 0.13824 0.48 0.25588 0.13714 0.11765 0.24571 0.27353 0.32571 0.46765 0.08 0.18824 0.12 0.42059 0.12 0.69706-0.000004 0.26471-0.04001 0.49118-0.12 0.67941-0.08 0.18824-0.18858 0.34412-0.32571 0.46765-0.13715 0.12353-0.29715 0.21176-0.48 0.26471-0.17715 0.05882-0.36572 0.08823-0.56571 0.08823-0.21143 0-0.40857-0.02941-0.59143-0.08823-0.18286-0.05294-0.34286-0.14118-0.48-0.26471-0.137-0.123-0.246-0.279-0.326-0.468-0.074-0.188-0.111-0.414-0.111-0.679" stroke="url(#l)" fill="none"/>
  </g>
 </g>
</svg>
