<?xml version="1.0" encoding="UTF-8" standalone="no"?>
<svg xmlns:rdf="http://www.w3.org/1999/02/22-rdf-syntax-ns#" xmlns="http://www.w3.org/2000/svg" height="32.002" width="32" version="1.1" xmlns:cc="http://creativecommons.org/ns#" xmlns:xlink="http://www.w3.org/1999/xlink" xmlns:dc="http://purl.org/dc/elements/1.1/">
 <defs>
  <linearGradient id="i" x1="49.884" gradientUnits="userSpaceOnUse" y1="20.607" gradientTransform="translate(-15.884 -1.6069)" x2="49.884" y2="41.607">
   <stop stop-color="#FFF" offset="0"/>
   <stop stop-color="#FFF" stop-opacity=".23529" offset=".036262"/>
   <stop stop-color="#FFF" stop-opacity=".15686" offset=".66667"/>
   <stop stop-color="#FFF" stop-opacity=".39216" offset="1"/>
  </linearGradient>
  <linearGradient id="g" x1="33.715" gradientUnits="userSpaceOnUse" y1="26.955" gradientTransform="translate(-15.884 -1.6069)" x2="33.715" y2="14.148">
   <stop stop-color="#FFF" offset="0"/>
   <stop stop-color="#FFF" stop-opacity=".23529" offset=".38322"/>
   <stop stop-color="#FFF" stop-opacity=".15686" offset=".95056"/>
   <stop stop-color="#FFF" stop-opacity=".39216" offset="1"/>
  </linearGradient>
  <linearGradient id="h" x1="29.465" gradientUnits="userSpaceOnUse" y1="13.12" gradientTransform="translate(-15.884 -1.6069)" x2="29.465" y2="35.642">
   <stop stop-color="#FFF" offset="0"/>
   <stop stop-color="#FFF" stop-opacity=".23529" offset=".2789"/>
   <stop stop-color="#FFF" stop-opacity=".15686" offset=".95056"/>
   <stop stop-color="#FFF" stop-opacity=".39216" offset="1"/>
  </linearGradient>
  <radialGradient id="a" gradientUnits="userSpaceOnUse" cy="23.403" cx="9.966" gradientTransform="matrix(0 3.4562 -4.1187 0 121.21 -33.841)" r="13.931">
   <stop stop-color="#fff3cb" offset="0"/>
   <stop stop-color="#fdde76" offset=".26238"/>
   <stop stop-color="#f9c440" offset=".66094"/>
   <stop stop-color="#e48b20" offset="1"/>
  </radialGradient>
  <linearGradient id="c" x1="21.483" gradientUnits="userSpaceOnUse" y1="35.376" gradientTransform="matrix(1.6509 0 0 1.6568 -9.7968 -13.801)" x2="21.483" y2="8.4049">
   <stop stop-color="#b67926" offset="0"/>
   <stop stop-color="#eab41a" offset="1"/>
  </linearGradient>
  <linearGradient id="k" y2=".4976" gradientUnits="userSpaceOnUse" y1="44.759" x2="23.749" x1="23.749">
   <stop stop-color="#a3a3a3" offset="0"/>
   <stop stop-color="#bababa" offset="1"/>
  </linearGradient>
  <linearGradient id="j" x1="24" gradientUnits="userSpaceOnUse" y1="5.5641" gradientTransform="matrix(.89189 0 0 1.1351 2.5946 -4.7432)" x2="24" y2="43">
   <stop stop-color="#FFF" offset="0"/>
   <stop stop-color="#FFF" stop-opacity=".23529" offset=".036262"/>
   <stop stop-color="#FFF" stop-opacity=".15686" offset=".95056"/>
   <stop stop-color="#FFF" stop-opacity=".39216" offset="1"/>
  </linearGradient>
  <linearGradient id="m" x1="25.132" gradientUnits="userSpaceOnUse" y1=".98521" gradientTransform="matrix(1 0 0 .95617 -1e-7 -1.9149)" x2="25.132" y2="47.013">
   <stop stop-color="#f4f4f4" offset="0"/>
   <stop stop-color="#dbdbdb" offset="1"/>
  </linearGradient>
  <linearGradient id="l" x1="-51.786" gradientUnits="userSpaceOnUse" y1="50.786" gradientTransform="matrix(.80750 0 0 .89483 59.41 -2.9806)" x2="-51.786" y2="2.9062">
   <stop stop-color="#a0a0a0" offset="0"/>
   <stop stop-color="#bebebe" offset="1"/>
  </linearGradient>
  <radialGradient id="e" xlink:href="#b" gradientUnits="userSpaceOnUse" cy="486.65" cx="605.71" gradientTransform="matrix(.023040 0 0 0.0147 26.361 37.04)" r="117.14"/>
  <linearGradient id="b">
   <stop offset="0"/>
   <stop stop-opacity="0" offset="1"/>
  </linearGradient>
  <radialGradient id="d" xlink:href="#b" gradientUnits="userSpaceOnUse" cy="486.65" cx="605.71" gradientTransform="matrix(-.023040 0 0 0.0147 21.623 37.04)" r="117.14"/>
  <linearGradient id="f" x1="302.86" gradientUnits="userSpaceOnUse" y1="366.65" gradientTransform="matrix(.067325 0 0 0.0147 -.34114 37.04)" x2="302.86" y2="609.51">
   <stop stop-opacity="0" offset="0"/>
   <stop offset=".5"/>
   <stop stop-opacity="0" offset="1"/>
  </linearGradient>
 </defs>
 <g transform="matrix(.66667 0 0 .66667 0 .0018413)">
  <g>
   <rect opacity=".3" height="3.5701" width="32.508" y="42.43" x="7.7378" fill="url(#f)"/>
   <path opacity=".3" fill="url(#d)" d="m7.7378 42.43v3.5699c-1.1865 0.0067-2.8684-0.79982-2.8684-1.7852 0-0.98533 1.324-1.7847 2.8684-1.7847z"/>
   <path opacity=".3" fill="url(#e)" d="m40.246 42.43v3.5699c1.1865 0.0067 2.8684-0.79982 2.8684-1.7852 0-0.98533-1.324-1.7847-2.8684-1.7847z"/>
  </g>
  <path stroke-linejoin="round" d="m6.5 0.4972c8.02 0 35 0.0028 35 0.0028l0.000042 44.003h-35v-44.006z" stroke="url(#l)" stroke-width=".99992" fill="url(#m)"/>
  <path stroke-linejoin="round" d="m40.5 43.5h-33v-42h33z" stroke="url(#j)" stroke-linecap="round" fill="none"/>
  <path d="m11 21v1h2.3438v-1h-2.344zm0 4v1h2.75v-1h-2.75zm0 2v1h2.9375v-1h-5.282zm0 2v1h2.5312v-1h-4.875zm0 2.1562v0.96875h2.2188v-0.96875h-2.2188zm0.406-10.156v1h2.25v-1h-2.25zm-2.75 2v1h1v-1h-1zm3.1562 2v1h1.8438v-1h-1.8438zm0.125 2v1h2.7188v-1h-2.7188zm-0.34375 2v1h2.0625v-1h-2.0625zm-0.375 2.1562v0.96875h2.125v-0.96875h-2.125zm-2.562 2.844v1h4.2812v-1h-4.281zm0 2v1h3.6875v-1h-3.688zm3.9688 0v1h1.7812v-1h-1.7812zm-0.625 2v1h3.3438v-1h-3.3438zm-3.344 0h3.0367v1h-3.037v-1zm3.4062-22v1h5.5938v-1h-5.5938zm0.03125 2v1h5.0938v-1h-5.0938zm1.1875 16v1h4.5938v-1h-4.5938zm4.9375 0v1h1.8125v-1h-1.8125zm2.1562 0v1h4.3125v-1h-4.3125zm4.6562 0v1h2.9688v-1h-2.9688zm3.2812 0v1h1.1562v-1h-1.1562zm1.5 0v1h0.6875v-1h-0.6875zm1 0v1h1.8438v-1h-1.8438zm-16.031 2v1h0.8125v-1h-0.8125zm1.0312 0v1h1.625v-1h-1.625zm1.875 0v1h1.625v-1h-1.625zm2.125 0v1h2.5938v-1h-2.5938zm2.9062 0v1h3.375v-1h-3.375zm3.8438 0v1h2.2812v-1h-2.2812zm2.5625 0v1h0.532v-1h-0.531zm-20.468-20v1h3.0625v-1h-3.062zm0 2v1h3.0938v-1h-3.094zm0-11v1h2.375v-1h-2.375zm2.6875 0v1h2.25v-1h-2.25zm2.5625 0v1h1.9688v-1h-1.9688zm2.2812 0v1h0.875v-1h-0.875zm1.1875 0v1h1.9375v-1h-1.9375zm2.2812 0v1h5v-1h-5zm-11 2l0.001 1h3.7812v-1h-3.7812zm4.1562 0v1h1.8125v-1h-1.8125zm2.1562 0v1h0.84375v-1h-0.84375zm1.2188 0v1h1.625v-1h-1.625zm2 0v1h1.625v-1h-1.625zm1.9688 0v1h2.6562v-1h-2.6562zm3.0312 0v1h3.4688v-1h-3.4688zm-14.53 2v1h4.1875v-1h-4.188zm4.5 0v1h4.5v-1h-4.5zm-4.5 2v1h2.3125v-1h-2.312zm2.625 0v1h2.1562v-1h-2.1562zm2.4688 0v1h1.9062v-1h-1.9062zm3.8125 5v1h1.9062v-1h-1.9062zm2.2188 0v1h1.9062v-1h-1.9062zm2.2188 0v1h2.75v-1h-2.75zm3.0938 0v1h0.5625v-1h-0.5625zm-7.438 7v1h2.3438v-1h-2.344zm2.6562 0v1h2.1875v-1h-2.1875zm2.5 0v1h1.844v-1h-1.844zm-5.156 2v1h1.875v-1h-1.875zm2.1875 0v1h4.8125v-1h-4.8125zm5.125 0v1h3.6875v-1h-3.6875zm-7.313 2v1h2.4375v-1h-2.438zm2.7812 0v1h4.2812v-1h-4.2812zm4.5938 0v1h2.9375v-1h-2.9375zm-7.375 2.125v0.96875h1.875v-0.96875h-1.875zm2.1875 0v0.96875h1.9062v-0.96875h-1.9062zm2.2188 0v0.96875h2.7188v-0.96875h-2.7188zm3.0312 0v0.96875h0.5625v-0.96875h-0.5625zm0.875 0v0.96875h3.5312v-0.96875h-3.5312zm-8.375 6.875v1h2.4375v-1h-2.4375zm2.75 0v1h2.25v-1h-2.25zm2.5938 0v1h1.9375v-1h-1.9375zm2.25 0v1h3.0938v-1h-3.0938zm3.4375 0v1h5.0312v-1h-5.0312z" fill="url(#k)"/>
  <g stroke-linejoin="round" style="color:#000000" font-family="Droid Sans" fill="url(#a)" stroke="url(#c)" font-size="32px" font-weight="bold" line-height="125%" stroke-width=".99227">
   <path stroke="url(#c)" d="m25.746 18.293h4.5664l2.4609 8.5996 0.60156 2.2695c0.03645-0.2552 0.07747-0.51497 0.12305-0.7793 0.04556-0.26432 0.09569-0.52408 0.15039-0.7793 0.06379-0.26432 0.1276-0.5013 0.19141-0.71094l2.4062-8.5996h4.5938l-6.043 17.24c-0.56511 1.6133-1.3353 2.8118-2.3105 3.5957-0.97527 0.78385-2.1966 1.1758-3.6641 1.1758-0.47396-0.000006-0.88412-0.02735-1.2305-0.08203-0.34636-0.04558-0.64258-0.09571-0.88867-0.15039v-3.3086c0.1914 0.04557 0.43294 0.08658 0.72461 0.12305 0.29166 0.03646 0.597 0.05468 0.91602 0.05469 0.4375-0.000003 0.81119-0.05925 1.1211-0.17773 0.30989-0.11849 0.57421-0.28711 0.79297-0.50586 0.22786-0.20964 0.41927-0.46484 0.57422-0.76562 0.16406-0.30078 0.30533-0.63802 0.42383-1.0117l0.25977-0.76562-5.7695-15.422m-11.406 3.1914h0.95312c1.3646 0.000012 2.3906-0.27082 3.0781-0.8125 0.6979-0.54165 1.0469-1.4219 1.0469-2.6406-0.000013-1.1354-0.31251-1.9739-0.9375-2.5156-0.6146-0.54165-1.5833-0.81248-2.9062-0.8125h-1.2344v6.7812m9.9844-3.625c-0.000018 1-0.15106 1.9583-0.45312 2.875-0.3021 0.91668-0.8021 1.724-1.5 2.4219-0.68752 0.69793-1.599 1.2552-2.7344 1.6719-1.125 0.41668-2.5208 0.62501-4.1875 0.625h-1.1094v8.125h-4.8438v-22.844h6.3438c1.4687 0.000023 2.7344 0.16669 3.7969 0.5 1.0729 0.32294 1.9531 0.79169 2.6406 1.4062 0.6979 0.60419 1.2135 1.349 1.5469 2.2344 0.33332 0.87502 0.49998 1.8698 0.5 2.9844" fill="url(#a)"/>
  </g>
  <g stroke-linejoin="round" fill="none">
   <path opacity=".8" style="color:#000000" d="m10.469 11.719v20.875h2.9062v-7.1562a0.97158 0.97158 0 0 1 0.96875 -0.96875h1.0938c1.5857 0.000008 2.8653-0.20009 3.8438-0.5625 1.0403-0.38177 1.8488-0.8716 2.4062-1.4375 0.60221-0.60221 0.9956-1.2593 1.25-2.0312 0.26608-0.80746 0.40623-1.6502 0.40625-2.5625-0.000016-1.0177-0.1544-1.913-0.4375-2.6562-0.28511-0.75726-0.68346-1.3533-1.25-1.8438a0.97158 0.97158 0 0 1 -0.031 -0.03c-0.5457-0.48779-1.2973-0.86009-2.2812-1.1562-0.94313-0.29586-2.1047-0.46873-3.5-0.46875h-5.375z" stroke="url(#h)"/>
   <path opacity=".8" style="color:#000000" d="m14.188 13.719a0.97158 0.97158 0 0 1 0.15625 0h1.2188c1.444 0.000021 2.6588 0.30588 3.5312 1.0625 0.0069 0.006 0.02437-0.0061 0.03125 0l-0.03125 0.03125c0.8717 0.76818 1.2812 1.915 1.2812 3.2188-0.000015 1.3862-0.43158 2.6369-1.4062 3.4062h-0.03125c-0.93629 0.7268-2.1746 1.0313-3.6562 1.0312h-0.9375a0.97158 0.97158 0 0 1 -0.969 -0.969v-6.8125a0.97158 0.97158 0 0 1 0.8125 -0.96875z" stroke="url(#g)"/>
   <path opacity=".8" style="color:#000000" d="m27.156 19.25 5.2812 14.125c0.08288 0.21909 0.08288 0.46841 0 0.6875l-0.25 0.6875-0.03125 0.0625c-0.11452 0.35874-0.24034 0.75454-0.4375 1.125-0.0067 0.01252-0.02443 0.01874-0.03125 0.03125-0.21274 0.39778-0.48826 0.72429-0.75 0.96875-0.01011 0.01011-0.02099 0.02128-0.03125 0.03125-0.30722 0.29848-0.68482 0.53114-1.0938 0.6875-0.43825 0.16756-0.9291 0.25-1.4688 0.25-0.23646-0.000002-0.44385-0.01211-0.65625-0.03125v1.375c0.01198 0.0016 0.01908-0.0016 0.03125 0 0.01042-0.000168 0.02083-0.000168 0.03125 0 0.30338 0.0479 0.64191 0.09374 1.0625 0.09375 1.2893-0.000006 2.3062-0.33575 3.0938-0.96875 0.79412-0.63827 1.4766-1.6621 2-3.1562l5.594-15.969h-2.5l-2.2188 7.9062c0.000168 0.01042 0.000168 0.02083 0 0.03125-0.05961 0.19584-0.12825 0.37949-0.1875 0.625-0.05465 0.25498-0.08383 0.47993-0.125 0.71875-0.04289 0.24875-0.09138 0.48621-0.125 0.71875-0.0011 0.0099 0.001 0.02129 0 0.03125l-1.0312 1.5625c-0.488-0.552-0.84-1.577-1.188-2.313-0.058-0.485-0.153-0.926-0.281-1.343l-2.282-7.938z" stroke="url(#i)"/>
  </g>
 </g>
</svg>
