<!-- Created with Inkscape (http://www.inkscape.org/) -->
<svg xmlns:rdf="http://www.w3.org/1999/02/22-rdf-syntax-ns#" xmlns="http://www.w3.org/2000/svg" height="32" width="32" version="1.1" xmlns:cc="http://creativecommons.org/ns#" xmlns:xlink="http://www.w3.org/1999/xlink" xmlns:dc="http://purl.org/dc/elements/1.1/">
 <defs>
  <linearGradient id="linearGradient4596" y2="34.607" gradientUnits="userSpaceOnUse" x2="29.465" gradientTransform="translate(4.1160985,-1.6069009)" y1="17.607" x1="29.465">
   <stop stop-color="#FFF" offset="0"/>
   <stop stop-color="#FFF" stop-opacity="0.23529412" offset="0.17647"/>
   <stop stop-color="#FFF" stop-opacity="0.15686275" offset="0.82353"/>
   <stop stop-color="#FFF" stop-opacity="0.39215687" offset="1"/>
  </linearGradient>
  <linearGradient id="linearGradient4467-5" y2="41.607" gradientUnits="userSpaceOnUse" x2="13.884" gradientTransform="translate(4.1160985,-1.6069009)" y1="12.607" x1="13.884">
   <stop stop-color="#FFF" offset="0"/>
   <stop stop-color="#FFF" stop-opacity="0.23529412" offset="0.036262"/>
   <stop stop-color="#FFF" stop-opacity="0.15686275" offset="0.82759"/>
   <stop stop-color="#FFF" stop-opacity="0.39215687" offset="1"/>
  </linearGradient>
  <linearGradient id="linearGradient3797" y2="0.4976" gradientUnits="userSpaceOnUse" x2="23.749" y1="44.759" x1="23.749">
   <stop stop-color="#a3a3a3" offset="0"/>
   <stop stop-color="#bababa" offset="1"/>
  </linearGradient>
  <linearGradient id="linearGradient3988" y2="43" gradientUnits="userSpaceOnUse" x2="24" gradientTransform="matrix(0.89189189,0,0,1.1351351,2.5945999,-4.7432314)" y1="5.5641" x1="24">
   <stop stop-color="#FFF" offset="0"/>
   <stop stop-color="#FFF" stop-opacity="0.23529412" offset="0.036262"/>
   <stop stop-color="#FFF" stop-opacity="0.15686275" offset="0.95056"/>
   <stop stop-color="#FFF" stop-opacity="0.39215687" offset="1"/>
  </linearGradient>
  <linearGradient id="linearGradient3322" y2="47.013" gradientUnits="userSpaceOnUse" x2="25.132" gradientTransform="matrix(1,0,0,0.9561695,-9.9999999e-8,-1.9149218)" y1="0.98521" x1="25.132">
   <stop stop-color="#f4f4f4" offset="0"/>
   <stop stop-color="#dbdbdb" offset="1"/>
  </linearGradient>
  <linearGradient id="linearGradient3324" y2="2.9062" gradientUnits="userSpaceOnUse" x2="-51.786" gradientTransform="matrix(0.8074968,0,0,0.8948322,59.410232,-2.9805531)" y1="50.786" x1="-51.786">
   <stop stop-color="#a0a0a0" offset="0"/>
   <stop stop-color="#bebebe" offset="1"/>
  </linearGradient>
  <radialGradient id="radialGradient3327" xlink:href="#linearGradient5060" gradientUnits="userSpaceOnUse" cy="486.65" cx="605.71" gradientTransform="matrix(0.02303995,0,0,0.01470022,26.360882,37.040176)" r="117.14"/>
  <linearGradient id="linearGradient5060">
   <stop stop-color="#000" offset="0"/>
   <stop stop-color="#000" stop-opacity="0" offset="1"/>
  </linearGradient>
  <radialGradient id="radialGradient3330" xlink:href="#linearGradient5060" gradientUnits="userSpaceOnUse" cy="486.65" cx="605.71" gradientTransform="matrix(-0.02303994,0,0,0.01470022,21.62311,37.040176)" r="117.14"/>
  <linearGradient id="linearGradient4704" y2="609.51" gradientUnits="userSpaceOnUse" x2="302.86" gradientTransform="matrix(0.06732488,0,0,0.01470022,-0.3411391,37.040146)" y1="366.65" x1="302.86">
   <stop stop-color="#000" stop-opacity="0" offset="0"/>
   <stop stop-color="#000" offset="0.5"/>
   <stop stop-color="#000" stop-opacity="0" offset="1"/>
  </linearGradient>
  <radialGradient id="radialGradient3815" fx="8.5513" gradientUnits="userSpaceOnUse" cy="10.244" cx="9.0816" gradientTransform="matrix(0,7.0760926,-7.4527115,0,100.32061,-66.261922)" r="12.672">
   <stop stop-color="#ffcd7d" offset="0"/>
   <stop stop-color="#fc8f36" offset="0.26238"/>
   <stop stop-color="#e23a0e" offset="0.70495"/>
   <stop stop-color="#ac441f" offset="1"/>
  </radialGradient>
  <linearGradient id="linearGradient3817" y2="4.9451" gradientUnits="userSpaceOnUse" x2="25" gradientTransform="translate(2.123909,-1.9451008)" y1="49.945" x1="25">
   <stop stop-color="#ba3d12" offset="0"/>
   <stop stop-color="#db6737" offset="1"/>
  </linearGradient>
 </defs>
 <metadata>
  <rdf:RDF>
   <cc:Work rdf:about="">
    <dc:format>image/svg+xml</dc:format>
    <dc:type rdf:resource="http://purl.org/dc/dcmitype/StillImage"/>
    <dc:title/>
   </cc:Work>
  </rdf:RDF>
 </metadata>
 <g transform="scale(0.66666667,0.66666667)">
  <rect opacity="0.3" fill-rule="nonzero" height="3.5701" width="32.508" y="42.43" x="7.7378" fill="url(#linearGradient4704)"/>
  <path opacity="0.3" d="m7.7378,42.43v3.5699c-1.1865,0.0067-2.8684-0.79982-2.8684-1.7852,0-0.98533,1.324-1.7847,2.8684-1.7847z" fill-rule="nonzero" fill="url(#radialGradient3330)"/>
  <path opacity="0.3" d="m40.246,42.43v3.5699c1.1865,0.0067,2.8684-0.79982,2.8684-1.7852,0-0.98533-1.324-1.7847-2.8684-1.7847z" fill-rule="nonzero" fill="url(#radialGradient3327)"/>
  <path stroke-linejoin="round" d="M6.5,0.4972c8.02,0,35,0.0028,35,0.0028l0.000042,44.003h-35v-44.006z" stroke-dashoffset="0" stroke="url(#linearGradient3324)" stroke-linecap="butt" stroke-miterlimit="4" stroke-dasharray="none" stroke-width="0.99992186" fill="url(#linearGradient3322)"/>
  <path stroke-linejoin="round" d="m40.5,43.5-33,0,0-42,33,0z" stroke-dashoffset="0" stroke="url(#linearGradient3988)" stroke-linecap="round" stroke-miterlimit="4" stroke-dasharray="none" stroke-width="1" fill="none"/>
  <path d="m11,21,0,1,2.3438,0,0-1h-2.344zm0,4,0,1,2.75,0,0-1-2.75,0zm0,2,0,1,2.9375,0,0-1h-5.282zm0,2,0,1,2.5312,0,0-1h-4.875zm0,2.1562,0,0.96875,2.2188,0,0-0.96875-2.2188,0zm0.406-10.156v1h2.25v-1h-2.25zm-2.75,2,0,1,1,0,0-1-1,0zm3.1562,2,0,1,1.8438,0,0-1-1.8438,0zm0.125,2,0,1,2.7188,0,0-1-2.7188,0zm-0.34375,2,0,1,2.0625,0,0-1-2.0625,0zm-0.375,2.1562,0,0.96875,2.125,0,0-0.96875-2.125,0zm-2.562,2.844v1h4.2812v-1h-4.281zm0,2,0,1,3.6875,0,0-1h-3.688zm3.9688,0,0,1,1.7812,0,0-1-1.7812,0zm-0.625,2,0,1,3.3438,0,0-1-3.3438,0zm-3.344,0h3.0367v1h-3.037v-1zm3.4062-22,0,1,5.5938,0,0-1-5.5938,0zm0.03125,2,0,1,5.0938,0,0-1-5.0938,0zm1.1875,16,0,1,4.5938,0,0-1-4.5938,0zm4.9375,0,0,1,1.8125,0,0-1-1.8125,0zm2.1562,0,0,1,4.3125,0,0-1-4.3125,0zm4.6562,0,0,1,2.9688,0,0-1-2.9688,0zm3.2812,0,0,1,1.1562,0,0-1-1.1562,0zm1.5,0,0,1,0.6875,0,0-1-0.6875,0zm1,0,0,1,1.8438,0,0-1-1.8438,0zm-16.031,2,0,1,0.8125,0,0-1-0.8125,0zm1.0312,0,0,1,1.625,0,0-1-1.625,0zm1.875,0,0,1,1.625,0,0-1-1.625,0zm2.125,0,0,1,2.5938,0,0-1-2.5938,0zm2.9062,0,0,1,3.375,0,0-1-3.375,0zm3.8438,0,0,1,2.2812,0,0-1-2.2812,0zm2.5625,0,0,1h0.532v-1h-0.531zm-20.468-20v1h3.0625v-1h-3.062zm0,2,0,1,3.0938,0,0-1h-3.094zm0-11,0,1,2.375,0,0-1-2.375,0zm2.6875,0,0,1,2.25,0,0-1-2.25,0zm2.5625,0,0,1,1.9688,0,0-1-1.9688,0zm2.2812,0,0,1,0.875,0,0-1-0.875,0zm1.1875,0,0,1,1.9375,0,0-1-1.9375,0zm2.2812,0,0,1,5,0,0-1-5,0zm-11,2l0.001,1h3.7812v-1h-3.7812zm4.1562,0,0,1,1.8125,0,0-1-1.8125,0zm2.1562,0,0,1,0.84375,0,0-1-0.84375,0zm1.2188,0,0,1,1.625,0,0-1-1.625,0zm2,0,0,1,1.625,0,0-1-1.625,0zm1.9688,0,0,1,2.6562,0,0-1-2.6562,0zm3.0312,0,0,1,3.4688,0,0-1-3.4688,0zm-14.53,2v1h4.1875v-1h-4.188zm4.5,0,0,1,4.5,0,0-1-4.5,0zm-4.5,2,0,1,2.3125,0,0-1h-2.312zm2.625,0,0,1,2.1562,0,0-1-2.1562,0zm2.4688,0,0,1,1.9062,0,0-1-1.9062,0zm3.8125,5,0,1,1.9062,0,0-1-1.9062,0zm2.2188,0,0,1,1.9062,0,0-1-1.9062,0zm2.2188,0,0,1,2.75,0,0-1-2.75,0zm3.0938,0,0,1,0.5625,0,0-1-0.5625,0zm-7.438,7v1h2.3438v-1h-2.344zm2.6562,0,0,1,2.1875,0,0-1-2.1875,0zm2.5,0,0,1h1.844v-1h-1.844zm-5.156,2v1h1.875v-1h-1.875zm2.1875,0,0,1,4.8125,0,0-1-4.8125,0zm5.125,0,0,1,3.6875,0,0-1-3.6875,0zm-7.313,2v1h2.4375v-1h-2.438zm2.7812,0,0,1,4.2812,0,0-1-4.2812,0zm4.5938,0,0,1,2.9375,0,0-1-2.9375,0zm-7.375,2.125v0.96875h1.875v-0.96875h-1.875zm2.1875,0,0,0.96875,1.9062,0,0-0.96875-1.9062,0zm2.2188,0,0,0.96875,2.7188,0,0-0.96875-2.7188,0zm3.0312,0,0,0.96875,0.5625,0,0-0.96875-0.5625,0zm0.875,0,0,0.96875,3.5312,0,0-0.96875-3.5312,0zm-8.375,6.875,0,1,2.4375,0,0-1-2.4375,0zm2.75,0,0,1,2.25,0,0-1-2.25,0zm2.5938,0,0,1,1.9375,0,0-1-1.9375,0zm2.25,0,0,1,3.0938,0,0-1-3.0938,0zm3.4375,0,0,1,5.0312,0,0-1-5.0312,0z" fill="url(#linearGradient3797)"/>
  <path stroke-linejoin="round" style="color:#000000;" d="m37.105,28.194c-0.000013,0.91667-0.16668,1.7188-0.5,2.4062-0.33335,0.6875-0.8073,1.2604-1.4219,1.7188-0.61459,0.45833-1.3594,0.80208-2.2344,1.0312-0.87501,0.22917-1.8542,0.34375-2.9375,0.34375-0.57292,0-1.1042-0.02083-1.5938-0.0625-0.48959-0.03125-0.95313-0.08854-1.3906-0.17188-0.4375-0.08333-0.85938-0.1875-1.2656-0.3125-0.40625-0.125-0.81771-0.28125-1.2344-0.46875v-3.9375c0.4375,0.21876,0.89583,0.41667,1.375,0.59375,0.48958,0.17709,0.97395,0.33334,1.4531,0.46875,0.47916,0.125,0.9427,0.22396,1.3906,0.29688,0.45833,0.07292,0.8802,0.10938,1.2656,0.10938,0.42708,0.000004,0.79166-0.03646,1.0938-0.10938,0.30208-0.08333,0.54687-0.1927,0.73438-0.32812,0.19791-0.14583,0.33853-0.3125,0.42188-0.5,0.09374-0.19791,0.14062-0.40624,0.14062-0.625-0.000008-0.21874-0.03647-0.41145-0.10938-0.57812-0.06251-0.17708-0.21355-0.35937-0.45312-0.54688-0.23959-0.19791-0.59376-0.41666-1.0625-0.65625-0.45834-0.24999-1.0781-0.55208-1.8594-0.90625-0.76042-0.34374-1.4219-0.68228-1.9844-1.0156-0.55209-0.34374-1.0104-0.72395-1.375-1.1406-0.35417-0.41666-0.61979-0.89061-0.79688-1.4219-0.17708-0.54166-0.26563-1.1823-0.26562-1.9219-0.000001-0.81249,0.15625-1.5208,0.46875-2.125,0.3125-0.61457,0.75521-1.125,1.3281-1.5312,0.57291-0.40623,1.2604-0.70832,2.0625-0.90625,0.8125-0.20832,1.7135-0.31248,2.7031-0.3125,1.0417,0.000018,2.0312,0.11981,2.9688,0.35938,0.93749,0.2396,1.901,0.59898,2.8906,1.0781l-1.4375,3.375c-0.794-0.376-1.549-0.683-2.268-0.923-0.71876-0.23957-1.4375-0.35936-2.1562-0.35938-0.64584,0.000015-1.1146,0.1146-1.4062,0.34375-0.28126,0.22918-0.42188,0.54168-0.42188,0.9375-0.000005,0.20835,0.03645,0.39585,0.10938,0.5625,0.07291,0.15626,0.21874,0.32293,0.4375,0.5,0.21874,0.16668,0.52603,0.35418,0.92188,0.5625,0.39582,0.19793,0.91145,0.44272,1.5469,0.73438,0.73957,0.32293,1.4062,0.64584,2,0.96875,0.59374,0.31251,1.1042,0.67188,1.5312,1.0781,0.42707,0.40626,0.7552,0.88022,0.98438,1.4219,0.22915,0.54167,0.34374,1.1979,0.34375,1.9688m-24.526,11.906c-0.67708-0.000006-1.2708-0.03646-1.7812-0.10938-0.511-0.063-0.9428-0.141-1.297-0.235v-4.0312c0.38542,0.08333,0.79167,0.15625,1.2188,0.21875,0.41667,0.0625,0.875,0.09375,1.375,0.09375,0.47917-0.000002,0.92188-0.05209,1.3281-0.15625,0.41666-0.10417,0.77604-0.28646,1.0781-0.54688,0.3125-0.25,0.55208-0.58854,0.71875-1.0156,0.17708-0.42708,0.26562-0.96354,0.26562-1.6094v-22.172h5.0906v22.016c0,1.3125-0.19272,2.4427-0.57812,3.3906-0.37501,0.94791-0.90626,1.7292-1.5938,2.3438-0.67709,0.625-1.4896,1.0833-2.4375,1.375-0.948,0.29-1.995,0.436-3.141,0.436z" fill-rule="nonzero" stroke-dashoffset="0" stroke="url(#linearGradient3817)" stroke-linecap="butt" stroke-miterlimit="4" stroke-width="1" fill="url(#radialGradient3815)"/>
  <path opacity="0.5" stroke-linejoin="round" style="enable-background:accumulate;color:#000000;" d="m16.531,11.562,0,21.156c-0.000003,0.74521-0.14604,1.4057-0.375,1.9688h0.03125c-0.0053,0.01356-0.02582,0.01774-0.03125,0.03125-0.21291,0.52977-0.51641,1.033-0.96875,1.4062-0.01075,0.0093-0.02039,0.02213-0.03125,0.03125-0.42364,0.35547-0.94402,0.58756-1.4688,0.71875-0.5068,0.12994-1.0399,0.1875-1.5938,0.1875-0.54293,0-1.0548-0.02228-1.5312-0.09375-0.01053-0.0015-0.02074,0.0016-0.03125,0v1.9375c0.14199,0.02453,0.25,0.04337,0.40625,0.0625a1.0305,1.0305,0,0,1,0.03125,0c0.4327,0.06181,0.93779,0.09374,1.5938,0.09375h0.25c1.0584-0.000006,2.0104-0.14984,2.8438-0.40625,0.8161-0.25111,1.5028-0.60837,2.0625-1.125a1.0305,1.0305,0,0,1,0,-0.03125c0.56066-0.5012,0.98871-1.119,1.3125-1.9375,0.32074-0.78887,0.5-1.7802,0.5-3v-21h-3z" stroke-dashoffset="0" stroke="url(#linearGradient4467-5)" stroke-linecap="butt" stroke-miterlimit="4" stroke-width="1" fill="none"/>
  <path opacity="0.5" stroke-linejoin="round" style="enable-background:accumulate;color:#000000;" d="m31.062,16.625c-0.91729,0.000017-1.7568,0.09872-2.4688,0.28125-0.6983,0.17232-1.2665,0.42933-1.7188,0.75-0.43783,0.31048-0.75495,0.67432-1,1.1562-0.22591,0.43677-0.34375,0.97587-0.34375,1.6562-0.000001,0.67187,0.0572,1.1952,0.1875,1.5938,0.13076,0.39228,0.3626,0.74863,0.625,1.0625,0.27891,0.31876,0.63321,0.6313,1.125,0.9375,0.54028,0.32018,1.1571,0.64423,1.875,0.96875,0.78022,0.35371,1.4056,0.66564,1.9062,0.9375,0.0091,0.0047,0.02219-0.0047,0.03125,0,0.48031,0.2467,0.86296,0.48708,1.1875,0.75,0.01,0.0081,0.02142,0.02313,0.03125,0.03125,0.29407,0.23569,0.56733,0.5282,0.71875,0.90625,0.0064,0.0161-0.006,0.04609,0,0.0625,0.0023,0.0064,0.02897-0.0065,0.03125,0,0.11318,0.2766,0.18749,0.5805,0.1875,0.9375-0.000015,0.40344-0.11735,0.74498-0.25,1.0312-0.0031,0.0069,0.0032,0.02432,0,0.03125h-0.03125c-0.14902,0.31791-0.36691,0.67002-0.6875,0.90625a1.0305,1.0305,0,0,1,-0.03125,0c-0.37162,0.26839-0.71579,0.37311-1.0625,0.46875a1.0305,1.0305,0,0,1,-0.03125,0c-0.376,0.092-0.832,0.157-1.343,0.157-0.47826,0.000005-0.9298-0.0492-1.4062-0.125-0.45579-0.07419-0.96671-0.17338-1.5-0.3125a1.0305,1.0305,0,0,1,-0.03125,0c-0.50955-0.144-0.9949-0.3173-1.5-0.5v1.6562c0.16564,0.0631,0.33735,0.13746,0.5,0.1875,0.3613,0.11117,0.74977,0.23508,1.1562,0.3125,0.37252,0.07096,0.77865,0.09491,1.25,0.125a1.0305,1.0305,0,0,1,0.03125,0c0.45573,0.03879,0.95205,0.0625,1.5,0.0625,1.0107,0,1.9133-0.10974,2.6875-0.3125,0.77223-0.20225,1.389-0.48131,1.875-0.84375,0.4815-0.35909,0.82413-0.78767,1.0938-1.3438,0.25489-0.52574,0.40624-1.177,0.40625-1.9688-0.000011-0.66872-0.08918-1.1823-0.25-1.5625-0.17948-0.42419-0.42147-0.74998-0.75-1.0625-0.35949-0.34194-0.77277-0.66986-1.2812-0.9375a1.0305,1.0305,0,0,1,-0.03125,0c-0.56267-0.306-1.1894-0.62451-1.9062-0.9375a1.0305,1.0305,0,0,1,-0.03125,0c-0.62352-0.28619-1.1526-0.52942-1.5938-0.75-0.43674-0.22984-0.78885-0.44773-1.0625-0.65625a1.0305,1.0305,0,0,1,-0.03125,0c-0.29046-0.23511-0.54194-0.49605-0.71875-0.875a1.0305,1.0305,0,0,1,0,-0.03125c-0.11448-0.26163-0.21876-0.58868-0.21875-0.96875-0.000008-0.667,0.32053-1.3491,0.8125-1.75a1.0305,1.0305,0,0,1,0.03125,0c0.58219-0.45741,1.2635-0.56248,2.0312-0.5625,0.81828,0.000017,1.6395,0.12985,2.4688,0.40625,0.46119,0.15374,0.94101,0.36068,1.4062,0.5625l0.625-1.4375c-0.604-0.25-1.22-0.541-1.783-0.684-0.838-0.215-1.746-0.313-2.719-0.313z" stroke-dashoffset="0" stroke="url(#linearGradient4596)" stroke-linecap="butt" stroke-miterlimit="4" stroke-width="1" fill="none"/>
 </g>
</svg>
