<svg xmlns="http://www.w3.org/2000/svg" height="16" width="16" version="1"><path style="block-progression:tb;text-transform:none;text-indent:0" d="M4.616 3.333c-.978 0-1.807.714-1.807 1.637.006.29.032.65.206 1.41v.02l.02.02c.055.16.136.25.244.375s.235.272.357.396l.038.038c.024.105.053.22.075.32.058.27.052.462.038.527-.42.148-.943.323-1.412.527-.263.114-.5.217-.696.34-.195.12-.39.213-.452.488v.038c-.06.565-.155 1.396-.226 1.957a.31.31 0 0 0 .15.3c.852.46 2.16.646 3.464.64 1.303-.004 2.6-.2 3.425-.64a.31.31 0 0 0 .15-.3c-.02-.176-.05-.57-.074-.96-.025-.39-.046-.772-.075-.997a.304.304 0 0 0-.075-.15c-.26-.313-.652-.505-1.11-.697-.417-.175-.907-.358-1.392-.564-.028-.06-.055-.236 0-.508.014-.073.037-.15.056-.226.045-.05.08-.093.13-.15.11-.123.224-.252.32-.377.097-.124.176-.23.227-.376l.018-.02c.197-.794.197-1.125.207-1.41v-.02c0-.923-.83-1.638-1.806-1.638zM9.784 1.83c-1.426 0-2.635 1.042-2.635 2.387.01.425.048.95.3 2.058v.027l.03.028c.08.233.2.366.355.548.157.182.344.397.522.577l.055.055c.035.153.078.318.11.466.084.394.075.673.054.768-.612.215-1.374.47-2.058.768-.383.167-.73.316-1.015.494-.284.178-.566.313-.658.714a.335.335 0 0 0 0 .055c-.09.824-.226 2.035-.33 2.853a.45.45 0 0 0 .22.44c1.24.67 3.148.94 5.048.932s3.792-.293 4.994-.933a.45.45 0 0 0 .22-.44 29.58 29.58 0 0 1-.11-1.398c-.036-.57-.067-1.127-.11-1.456a.442.442 0 0 0-.11-.22c-.38-.455-.952-.733-1.62-1.014-.607-.257-1.32-.523-2.03-.823-.04-.09-.078-.345 0-.74.022-.107.055-.22.083-.33.067-.075.12-.136.192-.22.158-.18.327-.367.467-.55.14-.18.254-.335.328-.547l.028-.028c.286-1.157.286-1.64.3-2.058v-.027c0-1.345-1.208-2.387-2.633-2.387z" fill="#969696" color="#000"/></svg>