<?xml version="1.0" encoding="UTF-8" standalone="no"?>
<svg xmlns:rdf="http://www.w3.org/1999/02/22-rdf-syntax-ns#" xmlns="http://www.w3.org/2000/svg" height="32" width="32" version="1.1" xmlns:cc="http://creativecommons.org/ns#" xmlns:xlink="http://www.w3.org/1999/xlink" xmlns:dc="http://purl.org/dc/elements/1.1/">
 <defs>
  <linearGradient id="f" x1="29.465" gradientUnits="userSpaceOnUse" y1="17.607" gradientTransform="translate(4.1161 -1.6069)" x2="29.465" y2="34.607">
   <stop stop-color="#FFF" offset="0"/>
   <stop stop-color="#FFF" stop-opacity=".23529" offset=".17647"/>
   <stop stop-color="#FFF" stop-opacity=".15686" offset=".82353"/>
   <stop stop-color="#FFF" stop-opacity=".39216" offset="1"/>
  </linearGradient>
  <linearGradient id="g" x1="13.884" gradientUnits="userSpaceOnUse" y1="12.607" gradientTransform="translate(4.1161 -1.6069)" x2="13.884" y2="41.607">
   <stop stop-color="#FFF" offset="0"/>
   <stop stop-color="#FFF" stop-opacity=".23529" offset=".036262"/>
   <stop stop-color="#FFF" stop-opacity=".15686" offset=".82759"/>
   <stop stop-color="#FFF" stop-opacity=".39216" offset="1"/>
  </linearGradient>
  <linearGradient id="j" y2=".4976" gradientUnits="userSpaceOnUse" y1="44.759" x2="23.749" x1="23.749">
   <stop stop-color="#a3a3a3" offset="0"/>
   <stop stop-color="#bababa" offset="1"/>
  </linearGradient>
  <linearGradient id="h" x1="24" gradientUnits="userSpaceOnUse" y1="5.5641" gradientTransform="matrix(.89189 0 0 1.1351 2.5946 -4.7432)" x2="24" y2="43">
   <stop stop-color="#FFF" offset="0"/>
   <stop stop-color="#FFF" stop-opacity=".23529" offset=".036262"/>
   <stop stop-color="#FFF" stop-opacity=".15686" offset=".95056"/>
   <stop stop-color="#FFF" stop-opacity=".39216" offset="1"/>
  </linearGradient>
  <linearGradient id="l" x1="25.132" gradientUnits="userSpaceOnUse" y1=".98521" gradientTransform="matrix(1 0 0 .95617 -1e-7 -1.9149)" x2="25.132" y2="47.013">
   <stop stop-color="#f4f4f4" offset="0"/>
   <stop stop-color="#dbdbdb" offset="1"/>
  </linearGradient>
  <linearGradient id="k" x1="-51.786" gradientUnits="userSpaceOnUse" y1="50.786" gradientTransform="matrix(.80750 0 0 .89483 59.41 -2.9806)" x2="-51.786" y2="2.9062">
   <stop stop-color="#a0a0a0" offset="0"/>
   <stop stop-color="#bebebe" offset="1"/>
  </linearGradient>
  <radialGradient id="d" xlink:href="#a" gradientUnits="userSpaceOnUse" cy="486.65" cx="605.71" gradientTransform="matrix(.023040 0 0 0.0147 26.361 37.04)" r="117.14"/>
  <linearGradient id="a">
   <stop offset="0"/>
   <stop stop-opacity="0" offset="1"/>
  </linearGradient>
  <radialGradient id="c" xlink:href="#a" gradientUnits="userSpaceOnUse" cy="486.65" cx="605.71" gradientTransform="matrix(-.023040 0 0 0.0147 21.623 37.04)" r="117.14"/>
  <linearGradient id="e" x1="302.86" gradientUnits="userSpaceOnUse" y1="366.65" gradientTransform="matrix(.067325 0 0 0.0147 -.34114 37.04)" x2="302.86" y2="609.51">
   <stop stop-opacity="0" offset="0"/>
   <stop offset=".5"/>
   <stop stop-opacity="0" offset="1"/>
  </linearGradient>
  <radialGradient id="b" fx="8.5513" gradientUnits="userSpaceOnUse" cy="10.244" cx="9.0816" gradientTransform="matrix(0 7.0761 -7.4527 0 100.32 -66.262)" r="12.672">
   <stop stop-color="#ffcd7d" offset="0"/>
   <stop stop-color="#fc8f36" offset=".26238"/>
   <stop stop-color="#e23a0e" offset=".70495"/>
   <stop stop-color="#ac441f" offset="1"/>
  </radialGradient>
  <linearGradient id="i" x1="25" gradientUnits="userSpaceOnUse" y1="49.945" gradientTransform="translate(2.1239 -1.9451)" x2="25" y2="4.9451">
   <stop stop-color="#ba3d12" offset="0"/>
   <stop stop-color="#db6737" offset="1"/>
  </linearGradient>
 </defs>
 <g transform="scale(.66667)">
  <g>
   <rect opacity=".3" height="3.5701" width="32.508" y="42.43" x="7.7378" fill="url(#e)"/>
   <path opacity=".3" fill="url(#c)" d="m7.7378 42.43v3.5699c-1.1865 0.0067-2.8684-0.79982-2.8684-1.7852 0-0.98533 1.324-1.7847 2.8684-1.7847z"/>
   <path opacity=".3" fill="url(#d)" d="m40.246 42.43v3.5699c1.1865 0.0067 2.8684-0.79982 2.8684-1.7852 0-0.98533-1.324-1.7847-2.8684-1.7847z"/>
  </g>
  <path stroke-linejoin="round" d="m6.5 0.4972c8.02 0 35 0.0028 35 0.0028l0.000042 44.003h-35v-44.006z" stroke="url(#k)" stroke-width=".99992" fill="url(#l)"/>
  <path stroke-linejoin="round" d="m40.5 43.5h-33v-42h33z" stroke="url(#h)" stroke-linecap="round" fill="none"/>
  <path d="m11 21v1h2.3438v-1h-2.344zm0 4v1h2.75v-1h-2.75zm0 2v1h2.9375v-1h-5.282zm0 2v1h2.5312v-1h-4.875zm0 2.1562v0.96875h2.2188v-0.96875h-2.2188zm0.406-10.156v1h2.25v-1h-2.25zm-2.75 2v1h1v-1h-1zm3.1562 2v1h1.8438v-1h-1.8438zm0.125 2v1h2.7188v-1h-2.7188zm-0.34375 2v1h2.0625v-1h-2.0625zm-0.375 2.1562v0.96875h2.125v-0.96875h-2.125zm-2.562 2.844v1h4.2812v-1h-4.281zm0 2v1h3.6875v-1h-3.688zm3.9688 0v1h1.7812v-1h-1.7812zm-0.625 2v1h3.3438v-1h-3.3438zm-3.344 0h3.0367v1h-3.037v-1zm3.4062-22v1h5.5938v-1h-5.5938zm0.03125 2v1h5.0938v-1h-5.0938zm1.1875 16v1h4.5938v-1h-4.5938zm4.9375 0v1h1.8125v-1h-1.8125zm2.1562 0v1h4.3125v-1h-4.3125zm4.6562 0v1h2.9688v-1h-2.9688zm3.2812 0v1h1.1562v-1h-1.1562zm1.5 0v1h0.6875v-1h-0.6875zm1 0v1h1.8438v-1h-1.8438zm-16.031 2v1h0.8125v-1h-0.8125zm1.0312 0v1h1.625v-1h-1.625zm1.875 0v1h1.625v-1h-1.625zm2.125 0v1h2.5938v-1h-2.5938zm2.9062 0v1h3.375v-1h-3.375zm3.8438 0v1h2.2812v-1h-2.2812zm2.5625 0v1h0.532v-1h-0.531zm-20.468-20v1h3.0625v-1h-3.062zm0 2v1h3.0938v-1h-3.094zm0-11v1h2.375v-1h-2.375zm2.6875 0v1h2.25v-1h-2.25zm2.5625 0v1h1.9688v-1h-1.9688zm2.2812 0v1h0.875v-1h-0.875zm1.1875 0v1h1.9375v-1h-1.9375zm2.2812 0v1h5v-1h-5zm-11 2l0.001 1h3.7812v-1h-3.7812zm4.1562 0v1h1.8125v-1h-1.8125zm2.1562 0v1h0.84375v-1h-0.84375zm1.2188 0v1h1.625v-1h-1.625zm2 0v1h1.625v-1h-1.625zm1.9688 0v1h2.6562v-1h-2.6562zm3.0312 0v1h3.4688v-1h-3.4688zm-14.53 2v1h4.1875v-1h-4.188zm4.5 0v1h4.5v-1h-4.5zm-4.5 2v1h2.3125v-1h-2.312zm2.625 0v1h2.1562v-1h-2.1562zm2.4688 0v1h1.9062v-1h-1.9062zm3.8125 5v1h1.9062v-1h-1.9062zm2.2188 0v1h1.9062v-1h-1.9062zm2.2188 0v1h2.75v-1h-2.75zm3.0938 0v1h0.5625v-1h-0.5625zm-7.438 7v1h2.3438v-1h-2.344zm2.6562 0v1h2.1875v-1h-2.1875zm2.5 0v1h1.844v-1h-1.844zm-5.156 2v1h1.875v-1h-1.875zm2.1875 0v1h4.8125v-1h-4.8125zm5.125 0v1h3.6875v-1h-3.6875zm-7.313 2v1h2.4375v-1h-2.438zm2.7812 0v1h4.2812v-1h-4.2812zm4.5938 0v1h2.9375v-1h-2.9375zm-7.375 2.125v0.96875h1.875v-0.96875h-1.875zm2.1875 0v0.96875h1.9062v-0.96875h-1.9062zm2.2188 0v0.96875h2.7188v-0.96875h-2.7188zm3.0312 0v0.96875h0.5625v-0.96875h-0.5625zm0.875 0v0.96875h3.5312v-0.96875h-3.5312zm-8.375 6.875v1h2.4375v-1h-2.4375zm2.75 0v1h2.25v-1h-2.25zm2.5938 0v1h1.9375v-1h-1.9375zm2.25 0v1h3.0938v-1h-3.0938zm3.4375 0v1h5.0312v-1h-5.0312z" fill="url(#j)"/>
  <g stroke-linejoin="round">
   <path style="color:#000000" d="m37.105 28.194c-0.000013 0.91667-0.16668 1.7188-0.5 2.4062-0.33335 0.6875-0.8073 1.2604-1.4219 1.7188-0.61459 0.45833-1.3594 0.80208-2.2344 1.0312-0.87501 0.22917-1.8542 0.34375-2.9375 0.34375-0.57292 0-1.1042-0.02083-1.5938-0.0625-0.48959-0.03125-0.95313-0.08854-1.3906-0.17188-0.4375-0.08333-0.85938-0.1875-1.2656-0.3125-0.40625-0.125-0.81771-0.28125-1.2344-0.46875v-3.9375c0.4375 0.21876 0.89583 0.41667 1.375 0.59375 0.48958 0.17709 0.97395 0.33334 1.4531 0.46875 0.47916 0.125 0.9427 0.22396 1.3906 0.29688 0.45833 0.07292 0.8802 0.10938 1.2656 0.10938 0.42708 0.000004 0.79166-0.03646 1.0938-0.10938 0.30208-0.08333 0.54687-0.1927 0.73438-0.32812 0.19791-0.14583 0.33853-0.3125 0.42188-0.5 0.09374-0.19791 0.14062-0.40624 0.14062-0.625-0.000008-0.21874-0.03647-0.41145-0.10938-0.57812-0.06251-0.17708-0.21355-0.35937-0.45312-0.54688-0.23959-0.19791-0.59376-0.41666-1.0625-0.65625-0.45834-0.24999-1.0781-0.55208-1.8594-0.90625-0.76042-0.34374-1.4219-0.68228-1.9844-1.0156-0.55209-0.34374-1.0104-0.72395-1.375-1.1406-0.35417-0.41666-0.61979-0.89061-0.79688-1.4219-0.17708-0.54166-0.26563-1.1823-0.26562-1.9219-0.000001-0.81249 0.15625-1.5208 0.46875-2.125 0.3125-0.61457 0.75521-1.125 1.3281-1.5312 0.57291-0.40623 1.2604-0.70832 2.0625-0.90625 0.8125-0.20832 1.7135-0.31248 2.7031-0.3125 1.0417 0.000018 2.0312 0.11981 2.9688 0.35938 0.93749 0.2396 1.901 0.59898 2.8906 1.0781l-1.4375 3.375c-0.794-0.376-1.549-0.683-2.268-0.923-0.71876-0.23957-1.4375-0.35936-2.1562-0.35938-0.64584 0.000015-1.1146 0.1146-1.4062 0.34375-0.28126 0.22918-0.42188 0.54168-0.42188 0.9375-0.000005 0.20835 0.03645 0.39585 0.10938 0.5625 0.07291 0.15626 0.21874 0.32293 0.4375 0.5 0.21874 0.16668 0.52603 0.35418 0.92188 0.5625 0.39582 0.19793 0.91145 0.44272 1.5469 0.73438 0.73957 0.32293 1.4062 0.64584 2 0.96875 0.59374 0.31251 1.1042 0.67188 1.5312 1.0781 0.42707 0.40626 0.7552 0.88022 0.98438 1.4219 0.22915 0.54167 0.34374 1.1979 0.34375 1.9688m-24.526 11.906c-0.67708-0.000006-1.2708-0.03646-1.7812-0.10938-0.511-0.063-0.9428-0.141-1.297-0.235v-4.0312c0.38542 0.08333 0.79167 0.15625 1.2188 0.21875 0.41667 0.0625 0.875 0.09375 1.375 0.09375 0.47917-0.000002 0.92188-0.05209 1.3281-0.15625 0.41666-0.10417 0.77604-0.28646 1.0781-0.54688 0.3125-0.25 0.55208-0.58854 0.71875-1.0156 0.17708-0.42708 0.26562-0.96354 0.26562-1.6094v-22.172h5.0906v22.016c0 1.3125-0.19272 2.4427-0.57812 3.3906-0.37501 0.94791-0.90626 1.7292-1.5938 2.3438-0.67709 0.625-1.4896 1.0833-2.4375 1.375-0.948 0.29-1.995 0.436-3.141 0.436z" stroke="url(#i)" fill="url(#b)"/>
   <path opacity=".5" style="color:#000000" d="m16.531 11.562v21.156c-0.000003 0.74521-0.14604 1.4057-0.375 1.9688h0.03125c-0.0053 0.01356-0.02582 0.01774-0.03125 0.03125-0.21291 0.52977-0.51641 1.033-0.96875 1.4062-0.01075 0.0093-0.02039 0.02213-0.03125 0.03125-0.42364 0.35547-0.94402 0.58756-1.4688 0.71875-0.5068 0.12994-1.0399 0.1875-1.5938 0.1875-0.54293 0-1.0548-0.02228-1.5312-0.09375-0.01053-0.0015-0.02074 0.0016-0.03125 0v1.9375c0.14199 0.02453 0.25 0.04337 0.40625 0.0625a1.0305 1.0305 0 0 1 0.03125 0c0.4327 0.06181 0.93779 0.09374 1.5938 0.09375h0.25c1.0584-0.000006 2.0104-0.14984 2.8438-0.40625 0.8161-0.25111 1.5028-0.60837 2.0625-1.125a1.0305 1.0305 0 0 1 0 -0.03125c0.56066-0.5012 0.98871-1.119 1.3125-1.9375 0.32074-0.78887 0.5-1.7802 0.5-3v-21h-3z" stroke="url(#g)" fill="none"/>
   <path opacity=".5" style="color:#000000" d="m31.062 16.625c-0.91729 0.000017-1.7568 0.09872-2.4688 0.28125-0.6983 0.17232-1.2665 0.42933-1.7188 0.75-0.43783 0.31048-0.75495 0.67432-1 1.1562-0.22591 0.43677-0.34375 0.97587-0.34375 1.6562-0.000001 0.67187 0.0572 1.1952 0.1875 1.5938 0.13076 0.39228 0.3626 0.74863 0.625 1.0625 0.27891 0.31876 0.63321 0.6313 1.125 0.9375 0.54028 0.32018 1.1571 0.64423 1.875 0.96875 0.78022 0.35371 1.4056 0.66564 1.9062 0.9375 0.0091 0.0047 0.02219-0.0047 0.03125 0 0.48031 0.2467 0.86296 0.48708 1.1875 0.75 0.01 0.0081 0.02142 0.02313 0.03125 0.03125 0.29407 0.23569 0.56733 0.5282 0.71875 0.90625 0.0064 0.0161-0.006 0.04609 0 0.0625 0.0023 0.0064 0.02897-0.0065 0.03125 0 0.11318 0.2766 0.18749 0.5805 0.1875 0.9375-0.000015 0.40344-0.11735 0.74498-0.25 1.0312-0.0031 0.0069 0.0032 0.02432 0 0.03125h-0.03125c-0.14902 0.31791-0.36691 0.67002-0.6875 0.90625a1.0305 1.0305 0 0 1 -0.03125 0c-0.37162 0.26839-0.71579 0.37311-1.0625 0.46875a1.0305 1.0305 0 0 1 -0.03125 0c-0.376 0.092-0.832 0.157-1.343 0.157-0.47826 0.000005-0.9298-0.0492-1.4062-0.125-0.45579-0.07419-0.96671-0.17338-1.5-0.3125a1.0305 1.0305 0 0 1 -0.03125 0c-0.50955-0.144-0.9949-0.3173-1.5-0.5v1.6562c0.16564 0.0631 0.33735 0.13746 0.5 0.1875 0.3613 0.11117 0.74977 0.23508 1.1562 0.3125 0.37252 0.07096 0.77865 0.09491 1.25 0.125a1.0305 1.0305 0 0 1 0.03125 0c0.45573 0.03879 0.95205 0.0625 1.5 0.0625 1.0107 0 1.9133-0.10974 2.6875-0.3125 0.77223-0.20225 1.389-0.48131 1.875-0.84375 0.4815-0.35909 0.82413-0.78767 1.0938-1.3438 0.25489-0.52574 0.40624-1.177 0.40625-1.9688-0.000011-0.66872-0.08918-1.1823-0.25-1.5625-0.17948-0.42419-0.42147-0.74998-0.75-1.0625-0.35949-0.34194-0.77277-0.66986-1.2812-0.9375a1.0305 1.0305 0 0 1 -0.03125 0c-0.56267-0.306-1.1894-0.62451-1.9062-0.9375a1.0305 1.0305 0 0 1 -0.03125 0c-0.62352-0.28619-1.1526-0.52942-1.5938-0.75-0.43674-0.22984-0.78885-0.44773-1.0625-0.65625a1.0305 1.0305 0 0 1 -0.03125 0c-0.29046-0.23511-0.54194-0.49605-0.71875-0.875a1.0305 1.0305 0 0 1 0 -0.03125c-0.11448-0.26163-0.21876-0.58868-0.21875-0.96875-0.000008-0.667 0.32053-1.3491 0.8125-1.75a1.0305 1.0305 0 0 1 0.03125 0c0.58219-0.45741 1.2635-0.56248 2.0312-0.5625 0.81828 0.000017 1.6395 0.12985 2.4688 0.40625 0.46119 0.15374 0.94101 0.36068 1.4062 0.5625l0.625-1.4375c-0.604-0.25-1.22-0.541-1.783-0.684-0.838-0.215-1.746-0.313-2.719-0.313z" stroke="url(#f)" fill="none"/>
  </g>
 </g>
</svg>
