<?xml version="1.0" encoding="UTF-8" standalone="no"?>
<svg xmlns:rdf="http://www.w3.org/1999/02/22-rdf-syntax-ns#" xmlns="http://www.w3.org/2000/svg" height="16" width="16" version="1.0" xmlns:cc="http://creativecommons.org/ns#" xmlns:dc="http://purl.org/dc/elements/1.1/">
 <path style="color:#000000;block-progression:tb;text-transform:none;text-indent:0" d="m4.6156 3.3325c-0.97744 0-1.8066 0.71483-1.8066 1.6373 0.0069 0.29157 0.033 0.65113 0.20701 1.4115v0.0188l0.01885 0.01885c0.05585 0.16 0.13714 0.25152 0.24465 0.37639s0.23568 0.27185 0.35756 0.39521c0.0144 0.0145 0.0235 0.02345 0.0376 0.037649 0.02415 0.10519 0.05345 0.21839 0.07527 0.31993 0.05807 0.27016 0.05211 0.46148 0.0376 0.52694-0.42001 0.14747-0.94254 0.32311-1.4114 0.52693-0.2632 0.1144-0.5015 0.2166-0.6963 0.3387-0.1949 0.1221-0.3887 0.2144-0.4517 0.4893-0.001 0.0125-0.001 0.0251 0 0.037648-0.06155 0.56519-0.15466 1.3963-0.22583 1.9572-0.01535 0.11808 0.04685 0.24255 0.15055 0.30111 0.85134 0.45986 2.1591 0.64493 3.4627 0.63988 1.3036-0.0051 2.601-0.20105 3.4251-0.63988 0.10368-0.05855 0.16592-0.18303 0.15055-0.30111-0.0227-0.17536-0.05063-0.57074-0.07527-0.95982-0.02465-0.38905-0.046-0.77173-0.07527-0.99742-0.0102-0.055948-0.0367-0.10883-0.07528-0.15056-0.2616-0.3125-0.6527-0.5037-1.1102-0.6963-0.4176-0.1758-0.9071-0.3584-1.3926-0.5645-0.02715-0.060528-0.05416-0.23663 0-0.50814 0.0145-0.072898 0.03735-0.15098 0.05646-0.22583 0.04565-0.051098 0.08118-0.092853 0.13173-0.15056 0.10782-0.12307 0.22367-0.25215 0.31993-0.37639 0.09625-0.12424 0.175-0.23082 0.22583-0.37639l0.01885-0.0188c0.1967-0.79393 0.19681-1.1252 0.20701-1.4115v-0.01885c0-0.92247-0.82919-1.6373-1.8066-1.6373zm5.1679-1.5025c-1.4251 0-2.634 1.0421-2.634 2.387 0.0101 0.42508 0.04815 0.94927 0.3018 2.0578v0.02745l0.02745 0.02745c0.08143 0.23325 0.19994 0.36668 0.35668 0.54874 0.15674 0.18205 0.3436 0.39632 0.52129 0.57618 0.0209 0.02115 0.0343 0.034299 0.05487 0.054883 0.03525 0.15335 0.07793 0.31839 0.10975 0.46643 0.08465 0.39387 0.07597 0.67278 0.05488 0.76823-0.61234 0.21501-1.3742 0.47106-2.0578 0.76823-0.38378 0.16685-0.73109 0.31583-1.0152 0.49388-0.28411 0.17804-0.56664 0.31254-0.65849 0.71338-0.0015 0.01825-0.0015 0.03665 0 0.05489-0.08974 0.82398-0.22549 2.0356-0.32925 2.8534-0.0224 0.17215 0.06833 0.35362 0.2195 0.43899 1.2412 0.67043 3.1478 0.94028 5.0484 0.93288s3.792-0.2931 4.9936-0.93288c0.15116-0.08537 0.2419-0.26684 0.2195-0.43899-0.03315-0.25564-0.07382-0.83208-0.10975-1.3993-0.03595-0.56718-0.06711-1.1252-0.10974-1.4542-0.0149-0.08155-0.05344-0.15866-0.10975-0.21949-0.38168-0.45576-0.95194-0.73438-1.6188-1.0152-0.60884-0.25635-1.3226-0.52259-2.0304-0.82308-0.03955-0.088248-0.07897-0.345 0-0.74078 0.0212-0.10628 0.05441-0.22011 0.08231-0.32924 0.06652-0.074503 0.11836-0.13538 0.19206-0.2195 0.1572-0.17941 0.3261-0.36762 0.46643-0.54874 0.14033-0.18113 0.25515-0.33651 0.32924-0.54874l0.02745-0.02745c0.28679-1.1574 0.28694-1.6404 0.30182-2.0578v-0.02745c0-1.3449-1.2089-2.387-2.634-2.387z" fill="#969696"/>
</svg>
