<svg viewBox="0 0 16 16" height="16" width="16" xmlns="http://www.w3.org/2000/svg" xml:space="preserve" style="fill-rule:evenodd;clip-rule:evenodd;stroke-linejoin:round;stroke-miterlimit:2"><path d="M12 16c-1.15 0-2.225.175-3.225.525-1 .35-1.925.842-2.775 1.475v2h12v-2a10.338 10.338 0 0 0-2.775-1.475c-1-.35-2.075-.525-3.225-.525Zm-6 6c-.55 0-1.021-.196-1.412-.587A1.927 1.927 0 0 1 4 20V4c0-.55.196-1.021.588-1.413A1.926 1.926 0 0 1 6 2h12c.55 0 1.021.196 1.413.587.391.392.587.863.587 1.413v16a1.93 1.93 0 0 1-.587 1.413A1.93 1.93 0 0 1 18 22H6Zm6-8c.967 0 1.792-.342 2.475-1.025A3.373 3.373 0 0 0 15.5 10.5c0-.967-.342-1.792-1.025-2.475A3.373 3.373 0 0 0 12 7c-.967 0-1.792.342-2.475 1.025A3.373 3.373 0 0 0 8.5 10.5c0 .967.342 1.792 1.025 2.475A3.373 3.373 0 0 0 12 14Z" style="fill:#969696;fill-rule:nonzero" transform="matrix(.7 0 0 .7 -.4 -.4)"/></svg>