<!-- Created with Inkscape (http://www.inkscape.org/) -->
<svg xmlns:rdf="http://www.w3.org/1999/02/22-rdf-syntax-ns#" xmlns="http://www.w3.org/2000/svg" height="32.002" width="32" version="1.1" xmlns:cc="http://creativecommons.org/ns#" xmlns:xlink="http://www.w3.org/1999/xlink" xmlns:dc="http://purl.org/dc/elements/1.1/">
 <defs>
  <linearGradient id="linearGradient3161" y2="14" xlink:href="#linearGradient3830" gradientUnits="userSpaceOnUse" x2="25" gradientTransform="translate(0,-4.6093084e-4)" y1="43" x1="25"/>
  <linearGradient id="linearGradient3830">
   <stop stop-color="#FFF" offset="0"/>
   <stop stop-color="#FFF" stop-opacity="0" offset="1"/>
  </linearGradient>
  <linearGradient id="linearGradient3164" y2="28.585" xlink:href="#linearGradient3830" gradientUnits="userSpaceOnUse" x2="30" gradientTransform="translate(0,-4.6093084e-4)" y1="9.9828" x1="30"/>
  <radialGradient id="radialGradient3167" fx="7.2758" gradientUnits="userSpaceOnUse" cy="9.9571" cx="7.8061" gradientTransform="matrix(-1.6167311e-7,6.6018651,-8.0922115,-1.9817022e-7,104.56429,-60.072946)" r="12.672">
   <stop stop-color="#90dbec" offset="0"/>
   <stop stop-color="#55c1ec" offset="0.26238"/>
   <stop stop-color="#3689e6" offset="0.70495"/>
   <stop stop-color="#2b63a0" offset="1"/>
  </radialGradient>
  <linearGradient id="linearGradient3169" y2="0.91791" gradientUnits="userSpaceOnUse" x2="25" gradientTransform="translate(0,-4.6093084e-4)" y1="47.935" x1="25">
   <stop stop-color="#185f9a" offset="0"/>
   <stop stop-color="#599ec9" offset="1"/>
  </linearGradient>
  <radialGradient id="radialGradient3172" gradientUnits="userSpaceOnUse" cy="63.965" cx="15.116" gradientTransform="matrix(1.139227,0,0,0.4068666,6.7799989,7.7466159)" r="12.289">
   <stop stop-color="#000" offset="0"/>
   <stop stop-color="#000" stop-opacity="0" offset="1"/>
  </radialGradient>
  <linearGradient id="linearGradient3243" y2="0.50543" gradientUnits="userSpaceOnUse" x2="21.253" gradientTransform="translate(0,0.99953907)" y1="44.301" x1="21.253">
   <stop stop-color="#AAA" offset="0"/>
   <stop stop-color="#c8c8c8" offset="1"/>
  </linearGradient>
  <linearGradient id="linearGradient3988" y2="43" gradientUnits="userSpaceOnUse" x2="24" gradientTransform="matrix(0.89189189,0,0,1.1351351,2.5945999,-4.7432314)" y1="5.5641" x1="24">
   <stop stop-color="#FFF" offset="0"/>
   <stop stop-color="#FFF" stop-opacity="0.23529412" offset="0.036262"/>
   <stop stop-color="#FFF" stop-opacity="0.15686275" offset="0.95056"/>
   <stop stop-color="#FFF" stop-opacity="0.39215687" offset="1"/>
  </linearGradient>
  <linearGradient id="linearGradient3322" y2="47.013" gradientUnits="userSpaceOnUse" x2="25.132" gradientTransform="matrix(1,0,0,0.9561695,-9.9999999e-8,-1.9149218)" y1="0.98521" x1="25.132">
   <stop stop-color="#f4f4f4" offset="0"/>
   <stop stop-color="#dbdbdb" offset="1"/>
  </linearGradient>
  <linearGradient id="linearGradient3324" y2="2.9062" gradientUnits="userSpaceOnUse" x2="-51.786" gradientTransform="matrix(0.8074968,0,0,0.8948322,59.410232,-2.9805531)" y1="50.786" x1="-51.786">
   <stop stop-color="#a0a0a0" offset="0"/>
   <stop stop-color="#bebebe" offset="1"/>
  </linearGradient>
  <radialGradient id="radialGradient3327" xlink:href="#linearGradient5060" gradientUnits="userSpaceOnUse" cy="486.65" cx="605.71" gradientTransform="matrix(0.02303995,0,0,0.01470022,26.360882,37.040176)" r="117.14"/>
  <linearGradient id="linearGradient5060">
   <stop stop-color="#000" offset="0"/>
   <stop stop-color="#000" stop-opacity="0" offset="1"/>
  </linearGradient>
  <radialGradient id="radialGradient3330" xlink:href="#linearGradient5060" gradientUnits="userSpaceOnUse" cy="486.65" cx="605.71" gradientTransform="matrix(-0.02303994,0,0,0.01470022,21.62311,37.040176)" r="117.14"/>
  <linearGradient id="linearGradient4091" y2="609.51" gradientUnits="userSpaceOnUse" x2="302.86" gradientTransform="matrix(0.06732488,0,0,0.01470022,-0.3411391,37.040146)" y1="366.65" x1="302.86">
   <stop stop-color="#000" stop-opacity="0" offset="0"/>
   <stop stop-color="#000" offset="0.5"/>
   <stop stop-color="#000" stop-opacity="0" offset="1"/>
  </linearGradient>
 </defs>
 <metadata>
  <rdf:RDF>
   <cc:Work rdf:about="">
    <dc:format>image/svg+xml</dc:format>
    <dc:type rdf:resource="http://purl.org/dc/dcmitype/StillImage"/>
    <dc:title/>
   </cc:Work>
  </rdf:RDF>
 </metadata>
 <g transform="matrix(0.66666667,0,0,0.66666667,0,0.00184133)">
  <rect opacity="0.3" fill-rule="nonzero" height="3.5701" width="32.508" y="42.43" x="7.7378" fill="url(#linearGradient4091)"/>
  <path opacity="0.3" d="m7.7378,42.43v3.5699c-1.1865,0.0067-2.8684-0.79982-2.8684-1.7852,0-0.98533,1.324-1.7847,2.8684-1.7847z" fill-rule="nonzero" fill="url(#radialGradient3330)"/>
  <path opacity="0.3" d="m40.246,42.43v3.5699c1.1865,0.0067,2.8684-0.79982,2.8684-1.7852,0-0.98533-1.324-1.7847-2.8684-1.7847z" fill-rule="nonzero" fill="url(#radialGradient3327)"/>
  <path stroke-linejoin="round" d="M6.5,0.4972c8.02,0,35,0.0028,35,0.0028l0.000042,44.003h-35v-44.006z" stroke-dashoffset="0" stroke="url(#linearGradient3324)" stroke-linecap="butt" stroke-miterlimit="4" stroke-dasharray="none" stroke-width="0.99992186" fill="url(#linearGradient3322)"/>
  <path stroke-linejoin="round" d="m40.5,43.5-33,0,0-42,33,0z" stroke-dashoffset="0" stroke="url(#linearGradient3988)" stroke-linecap="round" stroke-miterlimit="4" stroke-dasharray="none" stroke-width="1" fill="none"/>
  <path d="m11,6.9995,0,1,2.375,0,0-1zm2.6875,0,0,1,2.25,0,0-1zm2.5625,0,0,1,1.9688,0,0-1zm2.2812,0,0,1,0.875,0,0-1zm1.1875,0,0,1,1.9375,0,0-1zm2.2812,0,0,1,5,0,0-1zm-11,2,0,1,3.7812,0,0-1zm4.1562,0,0,1,1.8125,0,0-1zm2.1562,0,0,1,0.84375,0,0-1zm1.2188,0,0,1,1.625,0,0-1zm2,0,0,1,1.625,0,0-1zm1.9688,0,0,1,2.6562,0,0-1zm3.0312,0,0,1,3.4688,0,0-1zm-16.904,2.0005v1h4.1875v-1zm4.5,0,0,1,4.5,0,0-1zm-4.5,2,0,1,2.3125,0,0-1zm2.625,0,0,1,2.1562,0,0-1zm2.4688,0,0,1,1.9062,0,0-1zm-5.0938,3,0,1,3.0625,0,0-1zm3.4062,0,0,1,5.5938,0,0-1zm-3.4062,2,0,1,3.0938,0,0-1zm3.4375,0,0,1,5.0938,0,0-1c-2.793,2.816-6.7194,8.5464-5.0938,0zm5.4688,0,0,1,1.9062,0,0-1zm2.2188,0,0,1,1.9062,0,0-1zm2.2188,0,0,1,2.75,0,0-1zm3.0938,0,0,1,0.5625,0,0-1zm-16.438,3,0,1,2.3438,0,0-1zm0,2,0,1,1,0,0-1zm0,2,0,1,2.75,0,0-1zm9,0,0,1,2.3438,0,0-1zm2.6562,0,0,1,2.1875,0,0-1zm2.5,0,0,1,1.8438,0,0-1zm-14.156,2,0,1,2.9375,0,0-1zm9,0,0,1,1.875,0,0-1zm2.1875,0,0,1,4.8125,0,0-1zm5.125,0,0,1,3.6875,0,0-1zm-16.312,2,0,1,2.5312,0,0-1zm9,0,0,1,2.4375,0,0-1zm2.7812,0,0,1,4.2812,0,0-1zm4.5938,0,0,1,2.9375,0,0-1zm-16.376,2.156v0.96875h2.2188v-0.96875zm2.5625,0,0,0.96875,2.125,0,0-0.96875zm-2.562,2.844v1h4.2812v-1zm4.625,0,0,1,4.5938,0,0-1zm11.75,0,0,1,2.9688,0,0-1zm3.2812,0,0,1,1.1562,0,0-1zm1.5,0,0,1,0.6875,0,0-1zm1,0,0,1,1.8438,0,0-1zm-22.156,2,0,1,3.6875,0,0-1zm3.9688,0,0,1,1.7812,0,0-1zm2.1562,0,0,1,0.8125,0,0-1zm1.0312,0,0,1,1.625,0,0-1zm1.875,0,0,1,1.625,0,0-1zm2.125,0,0,1,2.5938,0,0-1zm2.9062,0,0,1,3.375,0,0-1zm3.8438,0,0,1,2.2812,0,0-1zm2.5625,0,0,1,0.53125,0,0-1zm-20.469,2,0,1,3.0312,0,0-1zm3.3438,0,0,1,3.3438,0,0-1zm5.5938,0,0,1,2.4375,0,0-1zm2.75,0,0,1,2.25,0,0-1zm2.5938,0,0,1,1.9375,0,0-1zm2.25,0,0,1,3.0938,0,0-1zm3.4375,0,0,1,5.0312,0,0-1z" fill="url(#linearGradient3243)"/>
  <path opacity="0.3" d="M38,33.772c0.002,2.762-6.267,5.001-14,5.001s-14.002-2.239-14-5.001c-0.0015-2.762,6.267-5.001,14-5.001,7.7331,0,14.002,2.2392,14,5.001z" fill="url(#radialGradient3172)"/>
  <path stroke-linejoin="round" style="enable-background:accumulate;" d="m24,10.5c-6.9,0-12.5,5.6-12.5,12.5s5.6,12.5,12.5,12.5c5.1254,0,10-3.5,11.553-8h-5.536c-1.3314,1.7506-3.794,3-6.0175,3-4.14,0-7.5-3.36-7.5-7.5-0.000002-4.14,3.36-7.5,7.5-7.5,2.6674,0,5.1835,1.9004,6.5132,4h4.9491c-0.46238-4.5-5.9604-9-11.462-9z" fill-rule="nonzero" stroke-dashoffset="0" stroke="url(#linearGradient3169)" stroke-linecap="square" stroke-miterlimit="4" stroke-dasharray="none" stroke-width="1" fill="url(#radialGradient3167)"/>
  <path opacity="0.5" stroke-linejoin="miter" style="enable-background:accumulate;" d="m34.125,17.937c-1.85-3.7875-5.876-6.4337-10.125-6.375-4.4493-0.06217-8.7511,2.7592-10.485,6.8537-1.8453,4.1071-0.95053,9.2567,2.2024,12.479,2.1403,2.3057,5.2836,3.5679,8.4064,3.5424" stroke-dashoffset="0" stroke="url(#linearGradient3164)" stroke-linecap="square" stroke-miterlimit="4" stroke-dasharray="none" stroke-width="1" fill="none"/>
  <path opacity="0.5" stroke-linejoin="miter" style="enable-background:accumulate;" d="m23.561,14.448c-4.0197,0.13299-7.6119,3.4686-8.0541,7.4638-0.56609,3.8529,1.8882,7.8464,5.5554,9.1288,3.0106,1.1697,7.3287,0.17216,9.3618-2.5497h4.5763" stroke-dashoffset="0" stroke="url(#linearGradient3161)" stroke-linecap="square" stroke-miterlimit="4" stroke-dasharray="none" stroke-width="1" fill="none"/>
 </g>
</svg>
