<?xml version="1.0" encoding="UTF-8" standalone="no"?>
<svg xmlns:rdf="http://www.w3.org/1999/02/22-rdf-syntax-ns#" xmlns="http://www.w3.org/2000/svg" height="32" width="32" version="1.1" xmlns:cc="http://creativecommons.org/ns#" xmlns:xlink="http://www.w3.org/1999/xlink" xmlns:dc="http://purl.org/dc/elements/1.1/">
 <defs>
  <radialGradient id="h" xlink:href="#b" gradientUnits="userSpaceOnUse" cy="43.5" cx="4.993" gradientTransform="matrix(1.603 0 0 0.6 541.99 860.76)" r="2.5"/>
  <linearGradient id="b">
   <stop offset="0"/>
   <stop stop-opacity="0" offset="1"/>
  </linearGradient>
  <radialGradient id="g" xlink:href="#b" gradientUnits="userSpaceOnUse" cy="43.5" cx="4.993" gradientTransform="matrix(1.603 0 0 0.6 -535.01 -912.96)" r="2.5"/>
  <linearGradient id="u" x1="25.058" xlink:href="#b" spreadMethod="reflect" gradientUnits="userSpaceOnUse" y1="43.544" gradientTransform="matrix(.82143 0 0 .42857 518.79 868.22)" x2="25.058" y2="39.999"/>
  <radialGradient id="f" gradientUnits="userSpaceOnUse" cy="8.4498" cx="7.4957" gradientTransform="matrix(-.0095987 1.5579 -1.4869 -.024192 551.14 849.78)" r="20">
   <stop stop-color="#f8b17e" offset="0"/>
   <stop stop-color="#e35d4f" offset=".26238"/>
   <stop stop-color="#c6262e" offset=".66094"/>
   <stop stop-color="#690b54" offset="1"/>
  </radialGradient>
  <linearGradient id="t" x1="547" xlink:href="#e" gradientUnits="userSpaceOnUse" x2="547" y1="887.36" y2="860.36"/>
  <linearGradient id="e" x1="24" gradientUnits="userSpaceOnUse" y1="44" gradientTransform="matrix(2.641 0 0 2.641 .61539 -60.385)" x2="24" y2="3.899">
   <stop stop-color="#791235" offset="0"/>
   <stop stop-color="#bf1d09" offset="1"/>
  </linearGradient>
  <linearGradient id="s" x1="24" xlink:href="#c" gradientUnits="userSpaceOnUse" y1="5" gradientTransform="matrix(.37838 0 0 .64865 529.42 858.29)" x2="24" y2="43"/>
  <linearGradient id="c" x1="24" gradientUnits="userSpaceOnUse" y1="5.3301" gradientTransform="matrix(2.7297 0 0 2.7297 -1.5135 -62.513)" x2="24" y2="43">
   <stop stop-color="#FFF" offset="0"/>
   <stop stop-color="#FFF" stop-opacity=".23529" offset=".029825"/>
   <stop stop-color="#FFF" stop-opacity=".15686" offset=".96141"/>
   <stop stop-color="#FFF" stop-opacity=".39216" offset="1"/>
  </linearGradient>
  <linearGradient id="r" x1="24" xlink:href="#c" gradientUnits="userSpaceOnUse" y1="5" gradientTransform="matrix(.10811 0 0 .64865 524.91 858.29)" x2="24" y2="43"/>
  <linearGradient id="q" x1="526" xlink:href="#a" gradientUnits="userSpaceOnUse" y1="812.36" gradientTransform="matrix(0.8 0 0 0.8 -1306.1 -122.39)" x2="532" y2="812.36"/>
  <linearGradient id="a">
   <stop stop-color="#FFF" offset="0"/>
   <stop stop-color="#FFF" stop-opacity="0" offset="1"/>
  </linearGradient>
  <linearGradient id="p" x1="526" xlink:href="#a" gradientUnits="userSpaceOnUse" y1="812.36" gradientTransform="matrix(0.8 0 0 0.8 -1300.1 -122.39)" x2="532" y2="812.36"/>
  <linearGradient id="o" x1="526" xlink:href="#a" gradientUnits="userSpaceOnUse" y1="812.36" gradientTransform="matrix(0.8 0 0 0.8 -1294.1 -122.39)" x2="532" y2="812.36"/>
  <linearGradient id="n" x1="526" xlink:href="#a" gradientUnits="userSpaceOnUse" y1="812.36" gradientTransform="matrix(0.8 0 0 0.8 -1288.1 -122.39)" x2="532" y2="812.36"/>
  <linearGradient id="m" x1="24" xlink:href="#c" gradientUnits="userSpaceOnUse" y1="5" gradientTransform="matrix(-.10811 0 0 .64865 552.09 858.29)" x2="24" y2="43"/>
  <linearGradient id="l" x1="526" xlink:href="#a" gradientUnits="userSpaceOnUse" y1="812.36" gradientTransform="matrix(0.8 0 0 0.8 -1306.1 -1199.4)" x2="532" y2="812.36"/>
  <linearGradient id="k" x1="526" xlink:href="#a" gradientUnits="userSpaceOnUse" y1="812.36" gradientTransform="matrix(0.8 0 0 0.8 -1300.1 -1199.4)" x2="532" y2="812.36"/>
  <linearGradient id="j" x1="526" xlink:href="#a" gradientUnits="userSpaceOnUse" y1="812.36" gradientTransform="matrix(0.8 0 0 0.8 -1294.1 -1199.4)" x2="532" y2="812.36"/>
  <linearGradient id="i" x1="526" xlink:href="#a" gradientUnits="userSpaceOnUse" y1="812.36" gradientTransform="matrix(0.8 0 0 0.8 -1288.1 -1199.4)" x2="532" y2="812.36"/>
  <linearGradient id="d" x1="598.77" xlink:href="#e" gradientUnits="userSpaceOnUse" x2="598.77" y1="475.7" y2="448.3"/>
 </defs>
 <g transform="translate(0 -1020.4)">
  <g transform="translate(-523 163)">
   <rect opacity=".4" height="3" width="4" y="885.36" x="550" fill="url(#h)"/>
   <rect opacity=".4" transform="scale(-1)" height="3" width="4" y="-888.36" x="-527" fill="url(#g)"/>
   <rect opacity=".4" height="3" width="23" y="885.36" x="527" fill="url(#u)"/>
   <g stroke-linecap="round">
    <rect stroke-linejoin="round" style="color:#000000" height="26" width="16" stroke="url(#t)" x="530.5" y="860.86" fill="url(#f)"/>
    <rect opacity=".5" stroke-linejoin="round" height="24" width="14" stroke="url(#s)" x="531.5" y="861.86" fill="none"/>
    <path style="color:#000000" d="m525.5 860.86c-0.554 0-1 0.446-1 1v24c0 0.554 0.446 1 1 1h5v-26h-5zm1 3h1 1v2h-2v-2zm0 6h2v2h-2v-2zm0 6h2v2h-2v-2zm0 6h2v2h-1-1v-2z" fill-opacity=".78431" stroke="#000"/>
   </g>
   <g fill="none">
    <path opacity=".3" d="m525.5 861.86v24h1 3v-3-18-3h-3-1z" stroke="url(#r)" stroke-linecap="round"/>
    <g stroke-linejoin="round">
     <rect opacity=".12" ry="1" rx="1" transform="rotate(-90)" width="4" stroke="url(#q)" x="-884.86" y="525.5" height="4"/>
     <rect opacity=".12" ry="1" rx="1" transform="rotate(-90)" width="4" stroke="url(#p)" x="-878.86" y="525.5" height="4"/>
     <rect opacity=".12" ry="1" rx="1" transform="rotate(-90)" width="4" stroke="url(#o)" x="-872.86" y="525.5" height="4"/>
     <rect opacity=".12" ry="1" rx="1" transform="rotate(-90)" width="4" stroke="url(#n)" x="-866.86" y="525.5" height="4"/>
    </g>
   </g>
   <g>
    <g fill-rule="evenodd">
     <rect opacity=".4" rx="1" ry="1" height="3" width="3" y="863.36" x="526"/>
     <rect opacity=".4" rx="1" ry="1" height="3" width="3" y="869.36" x="526"/>
     <rect opacity=".4" rx="1" ry="1" height="3" width="3" y="875.36" x="526"/>
     <rect opacity=".4" rx="1" ry="1" height="3" width="3" y="881.36" x="526"/>
    </g>
    <path style="color:#000000" d="m551.5 860.86c0.554 0 1 0.446 1 1v24c0 0.554-0.446 1-1 1h-5v-26h5zm-1 3h-1-1v2h2v-2zm0 6h-2v2h2v-2zm0 6h-2v2h2v-2zm0 6h-2v2h1 1v-2z" fill-opacity=".78431" stroke="#000" stroke-linecap="round"/>
   </g>
   <g fill="none">
    <path opacity=".3" d="m551.5 861.86v24h-1-3v-3-18-3h3 1z" stroke="url(#m)" stroke-linecap="round"/>
    <g stroke-linejoin="round">
     <rect opacity=".12" ry="1" rx="1" transform="matrix(0,-1,-1,0,0,0)" width="4" stroke="url(#l)" x="-884.86" y="-551.5" height="4"/>
     <rect opacity=".12" ry="1" rx="1" transform="matrix(0,-1,-1,0,0,0)" width="4" stroke="url(#k)" x="-878.86" y="-551.5" height="4"/>
     <rect opacity=".12" ry="1" rx="1" transform="matrix(0,-1,-1,0,0,0)" width="4" stroke="url(#j)" x="-872.86" y="-551.5" height="4"/>
     <rect opacity=".12" ry="1" rx="1" transform="matrix(0,-1,-1,0,0,0)" width="4" stroke="url(#i)" x="-866.86" y="-551.5" height="4"/>
    </g>
   </g>
   <g fill-rule="evenodd">
    <rect opacity=".4" transform="scale(-1,1)" rx="1" ry="1" height="3" width="3" y="863.36" x="-551"/>
    <rect opacity=".4" transform="scale(-1,1)" rx="1" ry="1" height="3" width="3" y="869.36" x="-551"/>
    <rect opacity=".4" transform="scale(-1,1)" rx="1" ry="1" height="3" width="3" y="875.36" x="-551"/>
    <rect opacity=".4" transform="scale(-1,1)" rx="1" ry="1" height="3" width="3" y="881.36" x="-551"/>
   </g>
   <path opacity="0.32" stroke-linejoin="round" d="m599.62 474.79v-25.573l22.14 12.78z" fill-rule="evenodd" transform="matrix(.45152 0 0 .43013 262.76 675.64)" stroke="url(#d)" stroke-width="2.2691" fill="url(#d)"/>
   <path stroke-linejoin="round" d="m599.62 474.79v-25.573l22.14 12.78z" fill-rule="evenodd" transform="matrix(.36122 0 0 .35193 317.91 710.77)" stroke="#FFF" stroke-width="2.8047" fill="#fafafa"/>
  </g>
 </g>
</svg>
