<!-- Created with Inkscape (http://www.inkscape.org/) -->
<svg xmlns:rdf="http://www.w3.org/1999/02/22-rdf-syntax-ns#" xmlns="http://www.w3.org/2000/svg" height="32" width="32" version="1.1" xmlns:cc="http://creativecommons.org/ns#" xmlns:xlink="http://www.w3.org/1999/xlink" xmlns:dc="http://purl.org/dc/elements/1.1/">
 <metadata>
  <rdf:RDF>
   <cc:Work rdf:about="">
    <dc:format>image/svg+xml</dc:format>
    <dc:type rdf:resource="http://purl.org/dc/dcmitype/StillImage"/>
    <dc:title/>
   </cc:Work>
  </rdf:RDF>
 </metadata>
 <defs>
  <radialGradient id="radialGradient2418" gradientUnits="userSpaceOnUse" cy="24.149" cx="17.814" gradientTransform="matrix(-2.643979,0,2.93653e-8,2.534421,78.72514,-37.986139)" r="9.125">
   <stop stop-color="#FFF" offset="0"/>
   <stop stop-color="#b6b6b6" offset="1"/>
  </radialGradient>
  <linearGradient id="linearGradient3697" y2="-1.4615" gradientUnits="userSpaceOnUse" x2="62.2" gradientTransform="matrix(2.1153734,0,0,2.1153252,-107.57708,31.426557)" y1="-12.489" x1="62.2">
   <stop stop-color="#FFF" offset="0"/>
   <stop stop-color="#FFF" stop-opacity="0" offset="1"/>
  </linearGradient>
  <radialGradient id="radialGradient3705" gradientUnits="userSpaceOnUse" cy="-8.7256" cx="61.24" gradientTransform="matrix(0,3.5234091,-3.5234073,0,-6.7439676,-205.79862)" r="9.7553">
   <stop stop-color="#51cfee" offset="0"/>
   <stop stop-color="#49a3d2" offset="0.26238"/>
   <stop stop-color="#3470b4" offset="0.70495"/>
   <stop stop-color="#273567" offset="1"/>
  </radialGradient>
  <linearGradient id="linearGradient3713" y2="2.6887" gradientUnits="userSpaceOnUse" x2="20" gradientTransform="matrix(0.98001402,0,0,0.97999168,0.08994011,0.8703621)" y1="43" x1="20">
   <stop stop-color="#254b6d" offset="0"/>
   <stop stop-color="#415b73" offset="0.5"/>
   <stop stop-color="#6195b5" offset="1"/>
  </linearGradient>
  <radialGradient id="radialGradient3757" gradientUnits="userSpaceOnUse" cy="4.625" cx="62.625" gradientTransform="matrix(1,0,0,0.341176,0,3.047059)" r="10.625">
   <stop stop-color="#000" offset="0"/>
   <stop stop-color="#000" stop-opacity="0" offset="1"/>
  </radialGradient>
 </defs>
 <g transform="scale(0.66666666,0.66666666)">
  <path opacity="0.4" d="m73.25,4.625a10.625,3.625,0,1,1,-21.25,0,10.625,3.625,0,1,1,21.25,0z" fill-rule="evenodd" transform="matrix(2.1647059,0,0,2.5636643,-111.56471,26.849769)" fill="url(#radialGradient3757)"/>
  <path d="M43.5,23.999c0,10.77-8.731,19.501-19.5,19.501s-19.5-8.731-19.5-19.501c0-10.769,8.731-19.499,19.5-19.499s19.5,8.7299,19.5,19.499z" fill-rule="nonzero" stroke="url(#linearGradient3713)" stroke-miterlimit="4" stroke-dasharray="none" stroke-width="1" fill="url(#radialGradient3705)"/>
  <path opacity="0.4" d="m24.33,5.2182-2.3623,0.27046-2.5986,0.70995c0.22135-0.077615,0.4456-0.16234,0.67496-0.23665l-0.304-0.541-1.012,0.1691-0.507,0.4733-0.776,0.1014-0.709,0.3381-0.337,0.169-0.101,0.1352-0.507,0.1014-0.303,0.6424-0.405-0.8114-0.13499,0.33807,0.0675,0.91279-0.64121,0.54091-0.37122,0.98041h0.7762l0.30373-0.64234,0.10124-0.23665c0.34129-0.24178,0.66483-0.51103,1.0124-0.74376l0.80995,0.27046c0.52734,0.3589,1.0584,0.72347,1.5861,1.0818l0.776-0.71-0.878-0.3719-0.405-0.8114-1.485-0.169-0.033-0.169,0.641,0.1352,0.371-0.3719,0.81-0.169c0.192-0.0934,0.38-0.1607,0.574-0.2367l-0.50622,0.4733,1.8224,1.2509v0.74376l-0.7087,0.70995,0.94494,1.8932,0.64121-0.37188,0.80995-1.2509c1.1387-0.35268,2.165-0.76307,3.2398-1.2509l-0.0675,0.4733,0.53996,0.37188,0.94494-0.64233-0.47247-0.54091-0.64121,0.37188-0.20249-0.067613c0.04651-0.02129,0.08828-0.045973,0.13499-0.067613l0.943-2.4343-2.058-0.8114zm-9.2469,3.6512,0.7762,0.54091,0.64121,0,0-0.64233l4.185-1.3188-0.641,0.4394zm22.881-1.4199-1.384,0.338-0.877,0.5747v0.50711l-1.3837,0.87898,0.26998,1.3185,0.80995-0.57472,0.50622,0.57472,0.57371,0.33807,0.37122-0.98041-0.20249-0.57472,0.20249-0.40569,0.80995-0.74375h0.37122l-0.37122,0.81137v0.74375c0.33384-0.09103,0.6708-0.12648,1.0124-0.16904l-0.94494,0.67614-0.0675,0.40568-1.0799,0.91279-1.1137-0.27046v-0.64234l-0.50622,0.33807,0.23624,0.57472h-0.80995l-0.43872,0.74376-0.53996,0.60853-0.97868,0.20284,0.57371,0.57472,0.13499,0.57472h-0.7087l-0.94494,0.50711v1.4875h0.43872l0.40497,0.43949,0.91119-0.43949,0.33748-0.91279,0.67496-0.40568,0.13499-0.33807,1.0799-0.27046,0.60746,0.67614,0.64121,0.33807-0.37123,0.74376,0.57372-0.16904,0.30373-0.74376-0.74245-0.84518h0.30373l0.74245,0.60853,0.13499,0.81137,0.64121,0.74376,0.16874-1.0818,0.33748-0.16904c0.35922,0.37357,0.64238,0.83043,0.94494,1.2509l1.1137,0.06762,0.64121,0.40569-0.30373,0.43949-0.64121,0.57472h-0.94494l-1.2487-0.40568-0.64121,0.06762-0.47247,0.54092-1.3499-1.3523-0.94494-0.27046-1.3837,0.16904-1.2149,0.33807c-0.69306,0.7871-1.4026,1.5829-2.0586,2.4003l-0.7762,1.8932,0.37123,0.40569-0.67496,0.98041,0.74245,1.7242c0.6178,0.70009,1.2392,1.3955,1.8561,2.096l0.91119-0.77756,0.37123,0.4733,0.97869-0.64234,0.33748,0.37188h0.97868l0.57371,0.64234-0.33748,1.1494,0.67496,0.77756-0.03375,1.3523,0.50622,0.98041-0.37122,0.84518c-0.03619,0.60617-0.0675,1.1855-0.0675,1.7918,0.29776,0.82134,0.59628,1.6407,0.87744,2.4679l0.20249,1.3185v0.67614h0.53996l0.7762-0.50711h0.94494l1.4174-1.5889-0.16874-0.54092,0.94494-0.84518-0.7087-0.77756,0.84369-0.67614,0.80995-0.50711,0.37122-0.40568-0.23623-0.91279c0-0.76848,0.000002-1.5303,0-2.2989l0.64121-1.4199,0.80994-0.87898,0.87744-2.1637v-0.57472c-0.43664,0.0551-0.85517,0.10478-1.2824,0.13523l0.87744-0.87899,1.2149-0.81137,0.64121-0.74376v-0.81137c-0.14-0.277-0.287-0.573-0.433-0.847l-0.57371,0.67614-0.43872-0.5071-0.64121-0.50711v-1.048l0.74245,0.84518,0.8437-0.10142c0.38062,0.34614,0.74609,0.65392,1.0799,1.048l0.53998-0.60854c0-0.65513-0.73657-3.8893-2.3286-6.6262-1.592-2.736-4.3872-5.2401-4.3872-5.2401l-0.20249,0.37188-0.74245,0.81137-0.94494-0.98041h0.94494l0.438-0.4736-1.755-0.3381-0.911-0.338zm-20.283,0.4394-0.337,0.879s-0.59084,0.097717-0.74245,0.13523c-1.9362,1.7873-5.8407,5.6642-6.7496,12.948,0.035987,0.16888,0.64121,1.1494,0.64121,1.1494l1.4849,0.87899,1.4849,0.40568,0.64121,0.77756,0.97869,0.74376,0.57371-0.10142,0.40497,0.20284v0.13523l-0.53996,1.5213-0.43872,0.64234,0.13499,0.30426-0.33748,1.2171,1.2487,2.2989,1.2824,1.1156,0.57371,0.81137-0.0675,1.6904,0.40497,0.9466-0.40497,1.8256s-0.05404-0.01501,0,0.16904c0.05452,0.18413,2.2559,1.4228,2.3961,1.3185,0.13968-0.1063,0.26998-0.20284,0.26998-0.20284l-0.13499-0.40568,0.57371-0.54091,0.20249-0.57472,0.91119-0.30426,0.7087-1.758-0.20249-0.4733,0.47247-0.74376,1.0799-0.23665,0.53996-1.2847-0.13499-1.5889,0.8437-1.1832,0.13499-1.2171c-1.1576-0.57505-2.2933-1.1659-3.4423-1.758l-0.57371-1.1156-1.0462-0.23665-0.57371-1.5213-1.3837,0.16904-1.2149-0.87898-1.2824,1.1156v0.16904c-0.384-0.111-0.839-0.128-1.1807-0.338l-0.26998-0.81137v-0.87898l-0.87744,0.10142c0.070612-0.55989,0.16513-1.1306,0.23623-1.6904h-0.50622l-0.50622,0.64234-0.47247,0.23665-0.7087-0.40568-0.067496-0.87898,0.13499-0.9466,1.0462-0.81137h0.84369l0.16874-0.4733,1.0462,0.23665,0.7762,0.98041,0.13499-1.6227,1.3499-1.1156,0.47247-1.1832,1.0124-0.40568,0.53996-0.81137,1.2824-0.23665,0.64121-0.9466h-1.9236l1.2149-0.57472h0.84369l1.0799-0.37188,0.20249,1.048,0.47247-0.74376-0.53997-0.37188,0.13499-0.43949-0.43872-0.40569-0.47247-0.13523,0.13499-0.50711-0.37123-0.70995-0.8437,0.33807,0.13499-0.64233-0.97869-0.57472-0.7762,1.3523,0.0675,0.4733-0.7762,0.33807-0.47247,1.048-0.23623-0.98041-1.3162-0.54091-0.23623-0.74376,1.7886-1.0142,0.7762-0.74376,0.0675-0.87898-0.43872-0.23665-0.57371-0.067613zm14.478,1.6227,0,0.54091,0.30373,0.33807,0,0.81137-0.16874,1.0818,0.87744-0.16904,0.64121-0.64233-0.57371-0.54092c-0.18605-0.49631-0.3746-0.94387-0.60746-1.4199h-0.47247zm-0.74245,1.0818-0.53996,0.16904,0.13499,0.9804,0.7087-0.37188-0.30373-0.77756zm9.8881,8.8913,0.80995,0.9466,0.97869,2.096,0.60746,0.67614-0.30373,0.70995,0.53996,0.64234c-0.24779,0.01643-0.48776,0.03381-0.74245,0.03381-0.46267-0.97394-0.82884-1.9561-1.1812-2.975l-0.60746-0.67614-0.33748-1.2171,0.23624-0.23665z" fill-rule="nonzero" fill="#000"/>
  <path opacity="0.4" d="m42.5,23.999c0,10.218-8.2833,18.501-18.5,18.501s-18.5-8.2832-18.5-18.501c0-10.217,8.2829-18.499,18.5-18.499,10.216,0,18.5,8.2822,18.5,18.499z" stroke="url(#linearGradient3697)" stroke-miterlimit="4" stroke-dasharray="none" stroke-width="1.0000006" fill="none"/>
  <g transform="matrix(0.9999061,-0.01370139,0.01370139,0.9999061,-0.2886966,0.5358538)" stroke-dashoffset="0" stroke-linecap="butt" stroke-dasharray="none" stroke-miterlimit="4" stroke-width="1">
   <path stroke-linejoin="round" d="m30.5,20.937,17,16.5-7.75,0.25s3.25,6.75,3.25,6.75c1,3-3.5,4.125-4.25,1.875,0,0-3-6.75-3-6.75l-5.5,5.875,0.25-24.5z" fill-rule="evenodd" stroke="#666" fill="url(#radialGradient2418)"/>
   <path opacity="0.4" stroke-linejoin="miter" d="m31.657,23.379,13.476,13.186-6.9219,0.27746s3.8721,7.7566,3.8721,7.7566c0.40273,1.6501-2.0283,2.4126-2.5071,1.1529,0,0-3.6831-7.845-3.6831-7.845l-4.4247,4.7083,0.18907-19.236z" stroke="#FFF" fill="none"/>
  </g>
 </g>
</svg>
