<?xml version="1.0" encoding="UTF-8" standalone="no"?>
<svg xmlns:rdf="http://www.w3.org/1999/02/22-rdf-syntax-ns#" xmlns="http://www.w3.org/2000/svg" height="32" width="32" version="1.1" xmlns:cc="http://creativecommons.org/ns#" xmlns:xlink="http://www.w3.org/1999/xlink" xmlns:dc="http://purl.org/dc/elements/1.1/">
 <defs>
  <radialGradient id="c" gradientUnits="userSpaceOnUse" cy="24.149" cx="17.814" gradientTransform="matrix(-2.644 0 2.9365e-8 2.5344 78.725 -37.986)" r="9.125">
   <stop stop-color="#FFF" offset="0"/>
   <stop stop-color="#b6b6b6" offset="1"/>
  </radialGradient>
  <linearGradient id="e" x1="62.2" gradientUnits="userSpaceOnUse" y1="-12.489" gradientTransform="matrix(1.4102 0 0 1.4102 -71.718 20.951)" x2="62.2" y2="-1.4615">
   <stop stop-color="#FFF" offset="0"/>
   <stop stop-color="#FFF" stop-opacity="0" offset="1"/>
  </linearGradient>
  <radialGradient id="b" gradientUnits="userSpaceOnUse" cy="-8.7256" cx="61.24" gradientTransform="matrix(0 2.3489 -2.3489 0 -4.496 -137.2)" r="9.7553">
   <stop stop-color="#51cfee" offset="0"/>
   <stop stop-color="#49a3d2" offset=".26238"/>
   <stop stop-color="#3470b4" offset=".70495"/>
   <stop stop-color="#273567" offset="1"/>
  </radialGradient>
  <linearGradient id="d" x1="20" gradientUnits="userSpaceOnUse" y1="43" gradientTransform="matrix(.65334 0 0 .65333 .059960 .58024)" x2="20" y2="2.6887">
   <stop stop-color="#254b6d" offset="0"/>
   <stop stop-color="#415b73" offset=".5"/>
   <stop stop-color="#6195b5" offset="1"/>
  </linearGradient>
  <radialGradient id="a" gradientUnits="userSpaceOnUse" cy="4.625" cx="62.625" gradientTransform="matrix(1.4431 0 0 .58311 -74.376 23.108)" r="10.625">
   <stop offset="0"/>
   <stop stop-opacity="0" offset="1"/>
  </radialGradient>
 </defs>
 <path opacity=".4" fill="url(#a)" d="m31.333 25.804a15.333 6.1955 0 0 1 -30.667 0 15.333 6.1955 0 1 1 30.667 0z" fill-rule="evenodd"/>
 <path d="m29 15.999c0 7.18-5.821 13.001-13 13.001-7.1793 0-13-5.821-13-13.001 0-7.179 5.8207-12.999 13-12.999 7.179 0 13 5.8199 13 12.999z" stroke="url(#d)" stroke-width=".66667" fill="url(#b)"/>
 <path opacity=".4" d="m16.219 3.4688l-1.563 0.1874-1.75 0.4688c0.148-0.0517 0.316-0.1067 0.469-0.1562l-0.219-0.3438-0.656 0.0938-0.344 0.3124-0.531 0.0938-0.469 0.2188-0.218 0.0937-0.063 0.0937-0.344 0.0626-0.219 0.4374-0.25-0.5312-0.0932 0.2188 0.0312 0.5937-0.4062 0.375-0.25 0.6563h0.5l0.2182-0.4376 0.063-0.1562c0.228-0.1612 0.456-0.3448 0.687-0.5l0.532 0.1875c0.08 0.055 0.169 0.101 0.25 0.1563l-1.532 0.3124 0.5 0.375h0.126c-1.3646 1.3155-3.5724 3.8488-4.1255 8.2808 0.024 0.113 0.4375 0.782 0.4375 0.782l1 0.562 0.9688 0.282 0.4374 0.531 0.6558 0.5 0.376-0.094 0.281 0.156v0.094l-0.375 1-0.282 0.437 0.094 0.188-0.2498 0.812 0.8438 1.532 0.844 0.75 0.406 0.531-0.062 1.125 0.281 0.656-0.281 1.219c-0.005 0.013-0.019 0.032 0 0.094 0.036 0.123 1.5 0.944 1.593 0.875 0.093-0.071 0.188-0.125 0.188-0.125l-0.094-0.281 0.375-0.344 0.156-0.375 0.594-0.219 0.469-1.156-0.125-0.344 0.312-0.469 0.719-0.187 0.375-0.844-0.094-1.062 0.563-0.782 0.093-0.812c-0.771-0.384-1.546-0.793-2.312-1.188l-0.375-0.718-0.687-0.157-0.407-1.031-0.906 0.125-0.813-0.594-0.843 0.75v0.094c-0.256-0.074-0.585-0.079-0.8128-0.219l-0.1562-0.531v-0.594l-0.5938 0.063c0.0471-0.374 0.1089-0.752 0.1563-1.125h-0.3437l-0.3438 0.437-0.3125 0.156-0.4687-0.281-0.0313-0.562 0.0937-0.657 0.6876-0.531h0.5624l0.125-0.312 0.6876 0.156 0.5002 0.656 0.093-1.093 0.907-0.719 0.312-0.813 0.688-0.25 0.343-0.562 0.876-0.1565 0.406-0.625h-1.282l0.813-0.375h0.563l0.718-0.25 0.156 0.6875 0.313-0.5-0.375-0.25 0.094-0.2812-0.282-0.2813-0.312-0.0625 0.062-0.3438-0.218-0.4687-0.156 0.0625 0.468-0.7188c0.759-0.2351 1.44-0.4872 2.156-0.8124l-0.062 0.3124 0.375 0.25 0.625-0.4374-0.312-0.3438-0.438 0.2188-0.125-0.0313c0.031-0.0142 0.063-0.0168 0.094-0.0313l0.625-1.625-1.375-0.5624zm-3.563 0.7812l-0.344 0.3125 0.876 0.5937 0.593-0.1874-0.406 0.2812h-0.063l0.219 0.1562v0.4688l-0.469 0.5 0.126 0.25-0.5 0.875 0.031 0.3125-0.5 0.2187-0.313 0.6876-0.156-0.6563-0.875-0.3437-0.156-0.5 1.187-0.6876 0.438-0.4062c0.019 0.0129 0.043 0.0183 0.062 0.0312l0.5-0.4687-0.437-0.1875v-0.0312l-0.063-0.0313-0.062 0.0313-0.032-0.0313 0.063-0.0313-0.094-0.0312-0.219-0.4688-1-0.125-0.031-0.0937 0.438 0.0625 0.25-0.25 0.531-0.0938c0.128-0.0622 0.277-0.1055 0.406-0.1562zm-0.281 1.1562l0.031 0.0313 0.906-0.1875-0.124-0.0938-0.813 0.25zm11.687 0l-0.25 0.1563v0.3437l-0.937 0.5938 0.187 0.875 0.532-0.375 0.344 0.375 0.374 0.2188 0.25-0.6563-0.124-0.375 0.124-0.2813 0.282-0.25c-0.251-0.2223-0.515-0.4216-0.782-0.625zm-12.437 0.25l-0.063 0.1876s-0.398 0.0687-0.5 0.0937c-0.019 0.018-0.042 0.0438-0.062 0.0625v-0.1562l0.625-0.1876zm13.5 0.625l-0.031 0.0626v0.5c0.162-0.0442 0.335-0.0728 0.5-0.0938-0.154-0.159-0.308-0.3175-0.469-0.4688zm-3.687 0.0626v0.3437l0.218 0.25v0.5313l-0.125 0.7187 0.594-0.125 0.406-0.4063-0.375-0.375c-0.124-0.3308-0.251-0.6201-0.406-0.9374h-0.312zm4.218 0.4687l-0.5 0.375-0.062 0.25-0.719 0.625-0.719-0.1875v-0.4375l-0.344 0.2187 0.157 0.4063h-0.531l-0.313 0.5-0.344 0.4063-0.656 0.125 0.375 0.375 0.094 0.375h-0.469l-0.625 0.3442v1h0.281l0.281 0.281 0.594-0.281 0.219-0.594 0.469-0.282 0.094-0.218 0.718-0.1878 0.406 0.4378 0.407 0.25-0.25 0.468 0.406-0.093 0.187-0.5-0.5-0.5628h0.219l0.5 0.4058 0.063 0.532 0.437 0.5 0.125-0.719 0.219-0.125c0.239 0.249 0.423 0.563 0.625 0.844l0.75 0.031 0.406 0.281-0.187 0.282-0.438 0.406h-0.625l-0.812-0.282-0.438 0.063-0.312 0.344-0.906-0.907-0.626-0.187-0.937 0.125-0.813 0.219c-0.462 0.524-0.937 1.049-1.374 1.593l-0.5 1.282 0.25 0.281-0.469 0.625 0.5 1.156c0.412 0.467 0.838 0.94 1.25 1.406l0.593-0.531 0.25 0.313 0.657-0.406 0.219 0.25h0.656l0.375 0.406-0.219 0.781 0.469 0.531-0.031 0.875 0.343 0.657-0.25 0.562c-0.024 0.404-0.062 0.815-0.062 1.219 0.198 0.547 0.406 1.073 0.593 1.625l0.126 0.875v0.469h0.218c0.885-0.838 1.651-1.794 2.282-2.844 0.482-0.804 0.881-1.661 1.187-2.563v-0.656l0.437-0.937c0.179-0.869 0.282-1.768 0.282-2.688 0-3.561-1.408-6.7926-3.688-9.1875zm-4.718 0.25l-0.344 0.125 0.094 0.6563 0.468-0.25-0.218-0.5313zm6.593 5.9375l0.531 0.625 0.657 1.406 0.406 0.438-0.187 0.469 0.343 0.437c-0.165 0.011-0.33 0.031-0.5 0.031-0.308-0.649-0.546-1.32-0.781-2l-0.406-0.437-0.219-0.813 0.156-0.156z"/>
 <path opacity=".4" d="m28.333 15.999c0 6.812-5.5222 12.334-12.333 12.334-6.8111 0-12.333-5.5221-12.333-12.334-0.0003-6.811 5.5216-12.332 12.333-12.332 6.8107 0 12.333 5.5215 12.333 12.333z" stroke="url(#e)" stroke-width=".66667" fill="none"/>
 <g transform="matrix(.66660 -.0091343 .0091343 .66660 -.19246 .35724)">
  <path stroke-linejoin="round" stroke="#666" fill="url(#c)" d="m30.5 20.937 17 16.5-7.75 0.25s3.25 6.75 3.25 6.75c1 3-3.5 4.125-4.25 1.875l-3-6.75-5.5 5.875 0.25-24.5z" fill-rule="evenodd"/>
  <path opacity=".4" stroke="#FFF" d="m31.657 23.379 13.476 13.186-6.9219 0.27746s3.8721 7.7566 3.8721 7.7566c0.40273 1.6501-2.0283 2.4126-2.5071 1.1529l-3.6831-7.845-4.4247 4.7083 0.18907-19.236z" fill="none"/>
 </g>
</svg>
