<?xml version="1.0" encoding="UTF-8" standalone="no"?>
<svg xmlns:rdf="http://www.w3.org/1999/02/22-rdf-syntax-ns#" xmlns="http://www.w3.org/2000/svg" height="32" width="32" version="1.1" xmlns:cc="http://creativecommons.org/ns#" xmlns:xlink="http://www.w3.org/1999/xlink" xmlns:dc="http://purl.org/dc/elements/1.1/">
 <defs>
  <linearGradient id="a">
   <stop offset="0"/>
   <stop stop-opacity="0" offset="1"/>
  </linearGradient>
  <linearGradient id="q" x1="24" gradientUnits="userSpaceOnUse" y1="3.5542" gradientTransform="matrix(.72973 0 0 .56757 -1.5146 3.3784)" x2="24" y2="43">
   <stop stop-color="#FFF" offset="0"/>
   <stop stop-color="#FFF" stop-opacity=".23529" offset=".11257"/>
   <stop stop-color="#FFF" stop-opacity=".15686" offset=".95056"/>
   <stop stop-color="#FFF" stop-opacity=".39216" offset="1"/>
  </linearGradient>
  <linearGradient id="p" x1="25.132" gradientUnits="userSpaceOnUse" y1=".98521" gradientTransform="matrix(.82857 0 0 .49975 -3.8857 4.2392)" x2="25.132" y2="47.013">
   <stop stop-color="#f4f4f4" offset="0"/>
   <stop stop-color="#dbdbdb" offset="1"/>
  </linearGradient>
  <linearGradient id="o" x1="-51.786" gradientUnits="userSpaceOnUse" y1="50.786" gradientTransform="matrix(.66907 0 0 .46769 45.34 3.6823)" x2="-51.786" y2="2.9062">
   <stop stop-color="#a0a0a0" offset="0"/>
   <stop stop-color="#bebebe" offset="1"/>
  </linearGradient>
  <radialGradient id="d" xlink:href="#a" gradientUnits="userSpaceOnUse" cy="486.65" cx="605.71" gradientTransform="matrix(.019278 0 0 .0082353 17.982 24.981)" r="117.14"/>
  <radialGradient id="c" xlink:href="#a" gradientUnits="userSpaceOnUse" cy="486.65" cx="605.71" gradientTransform="matrix(-.019278 0 0 .0082353 14.018 24.981)" r="117.14"/>
  <linearGradient id="n" x1="302.86" gradientUnits="userSpaceOnUse" y1="366.65" gradientTransform="matrix(.056331 0 0 .0082353 -4.3598 24.981)" x2="302.86" y2="609.51">
   <stop stop-opacity="0" offset="0"/>
   <stop offset=".5"/>
   <stop stop-opacity="0" offset="1"/>
  </linearGradient>
  <linearGradient id="m" x1="24" gradientUnits="userSpaceOnUse" x2="24" gradientTransform="matrix(.66892 0 0 .56757 -1.179 3.3784)" y1="5.5641" y2="43">
   <stop stop-color="#FFF" offset="0"/>
   <stop stop-color="#FFF" stop-opacity=".23529" offset=".036262"/>
   <stop stop-color="#FFF" stop-opacity=".15686" offset=".95056"/>
   <stop stop-color="#FFF" stop-opacity=".39216" offset="1"/>
  </linearGradient>
  <radialGradient id="b" fx="7.2758" gradientUnits="userSpaceOnUse" cy="9.9571" cx="7.8061" gradientTransform="matrix(-1.3251e-7 3.4517 -6.6326 -1.0361e-7 81.872 -26.173)" r="12.672">
   <stop stop-color="#f9c590" offset="0"/>
   <stop stop-color="#f19860" offset=".39698"/>
   <stop stop-color="#ce5d36" offset="1"/>
  </radialGradient>
  <linearGradient id="l" x1="25" gradientUnits="userSpaceOnUse" x2="25" gradientTransform="matrix(.81963 0 0 .52284 -3.8316 5.2358)" y1="47.935" y2=".91791">
   <stop stop-color="#71171c" offset="0"/>
   <stop stop-color="#ed8137" offset="1"/>
  </linearGradient>
  <clipPath id="r">
   <path style="color:#000000" fill="#FFF" d="m10.751-0.72642 19.105 0.025195v10.481l-19.105-0.025202z"/>
  </clipPath>
  <linearGradient id="k" x1="22.004" gradientUnits="userSpaceOnUse" y1="63.218" gradientTransform="matrix(1.3394 0 0 -1.9826 -11.198 94.863)" x2="22.004" y2="25.647">
   <stop stop-color="#AAA" offset="0"/>
   <stop stop-color="#c8c8c8" offset="1"/>
  </linearGradient>
  <linearGradient id="j" x1="25.132" gradientUnits="userSpaceOnUse" y1="15.285" gradientTransform="matrix(1.0813 0 0 .62485 -6.1735 -3.6471)" x2="25.132" y2="37.546">
   <stop stop-color="#f4f4f4" offset="0"/>
   <stop stop-color="#dbdbdb" offset="1"/>
  </linearGradient>
  <linearGradient id="i" x1="-51.786" gradientUnits="userSpaceOnUse" y1="41.798" gradientTransform="matrix(.87314 0 0 .58477 58.066 -4.3435)" x2="-51.786" y2="17.555">
   <stop stop-color="#AAA" offset="0"/>
   <stop stop-color="#c8c8c8" offset="1"/>
  </linearGradient>
  <linearGradient id="h" x1="24" gradientUnits="userSpaceOnUse" y1="14.203" gradientTransform="matrix(1.0821 0 0 .61449 -5.648 -2.5358)" x2="24" y2="35.721">
   <stop stop-color="#FFF" offset="0"/>
   <stop stop-color="#FFF" stop-opacity="0" offset="1"/>
  </linearGradient>
  <linearGradient id="g" x1="25.132" gradientUnits="userSpaceOnUse" y1="15.285" gradientTransform="matrix(1 0 0 .95617 -.49906 -2.93)" x2="25.132" y2="37.546">
   <stop stop-color="#f4f4f4" offset="0"/>
   <stop stop-color="#dbdbdb" offset="1"/>
  </linearGradient>
  <linearGradient id="f" x1="-51.786" gradientUnits="userSpaceOnUse" y1="41.798" gradientTransform="matrix(.80750 0 0 .89483 58.911 -3.9957)" x2="-51.786" y2="17.555">
   <stop stop-color="#AAA" offset="0"/>
   <stop stop-color="#c8c8c8" offset="1"/>
  </linearGradient>
  <linearGradient id="e" x1="24" gradientUnits="userSpaceOnUse" y1="14.203" gradientTransform="matrix(1.0351 0 0 .98662 -.70292 -2.17)" x2="24" y2="35.721">
   <stop stop-color="#FFF" offset="0"/>
   <stop stop-color="#FFF" stop-opacity="0" offset="1"/>
  </linearGradient>
 </defs>
 <g>
  <rect opacity=".15" height="2" width="27.2" y="28" x="2.4" fill="url(#n)"/>
  <path opacity=".15" fill="url(#c)" d="m2.4 28v1.9999c-0.9928 0.004-2.4-0.448-2.4-1s1.1078-1 2.4-1z"/>
  <path opacity=".15" fill="url(#d)" d="m29.6 28v1.9999c0.99276 0.0038 2.4-0.44808 2.4-1.0001 0-0.552-1.1078-0.99982-2.4-0.99982z"/>
 </g>
 <g stroke-linejoin="round" opacity=".5" clip-path="url(#r)" transform="matrix(1.6122 0 0 1.1261 -16.324 -7.0129)">
  <path style="color:#000000" d="m13.531 7.5891h13.037v24.901h-13.037z" stroke="url(#f)" stroke-width=".74211" fill="url(#g)"/>
  <path opacity=".6" style="color:#000000" d="m14.31 9.4115h11.413v22.194h-11.413z" stroke="url(#e)" stroke-width=".74211" fill="none"/>
 </g>
 <g stroke-linejoin="round" transform="translate(0,1)" stroke-width=".99992">
  <path opacity=".75" style="color:#000000" d="m3.5 2.5 25 0.037621v16.962h-24.859z" stroke="url(#i)" fill="url(#j)"/>
  <path opacity=".45" style="color:#000000" d="m4.5 3.5 23 0.016517-0.11298 14.984h-22.701z" stroke="url(#h)" fill="none"/>
 </g>
 <g>
  <path stroke-linejoin="round" d="m1.5 5.5c6.6454 0 29 0.00149 29 0.00149l0.000036 22.999h-29v-23z" stroke="url(#o)" stroke-width=".99992" fill="url(#p)"/>
  <path d="m29.5 27.5h-27v-21h27z" stroke="url(#q)" stroke-linecap="round" fill="none"/>
  <path stroke-linejoin="round" style="color:#000000" d="m6 28.5h-4.3138c-0.3495-0.27233-0.083736-0.81302-0.16678-1.1986v-21.669l0.048743-0.093529 0.11803-0.038626h4.2551" stroke="url(#l)" fill="url(#b)"/>
 </g>
 <g fill="none">
  <path opacity=".5" stroke-linejoin="round" d="m5.5 27.5h-3v-21h3" stroke="url(#m)" stroke-linecap="round"/>
  <g stroke="#AAA" stroke-width="1px">
   <path d="m11 8.5h4"/>
   <path d="m16 8.5h2"/>
   <path d="m19 8.5h1"/>
   <path d="m21 8.5h2"/>
  </g>
 </g>
 <g transform="matrix(1.1415 0 0 1.1415 -13.519 -19.587)">
  <path opacity=".4" style="color:#000000" fill="#FFF" d="m34.75 25.813a3.8795 3.8795 0 1 1 -2.0522 -3.4222l-1.8273 3.4222z" transform="matrix(1.5701 0 0 1.5701 -16.478 -6.8527)"/>
  <path opacity=".15" style="color:#000000" d="m34.75 25.813a3.8795 3.8795 0 1 1 -2.0522 -3.4222l-1.8273 3.4222z" transform="matrix(1.5701 0 0 1.5701 -16.478 -7.6015)"/>
 </g>
 <path style="block-progression:tb;text-indent:0;color:#000000;text-transform:none" d="m7.1562 25v-1h2.2188v1zm2.6562 0v-1h6.3438v1zm-2.6562-4v-1h2.9688v1zm3.7188 0v-1h2.3438v1zm2.9375 0v-1h1.1875v1zm-6.6562-4v-1h3.2812v1zm3.875 0v-1h1.6562v1zm2.2188 0v-1h1.75v1zm-6.0938-4v-1h3.2812v1zm3.9062 0v-1h2.3438v1z" fill="url(#k)"/>
</svg>
