<?xml version="1.0" encoding="UTF-8" standalone="no"?>
<svg xmlns:rdf="http://www.w3.org/1999/02/22-rdf-syntax-ns#" xmlns="http://www.w3.org/2000/svg" height="32px" width="32px" version="1.1" xmlns:cc="http://creativecommons.org/ns#" xmlns:xlink="http://www.w3.org/1999/xlink" xmlns:dc="http://purl.org/dc/elements/1.1/">
 <defs>
  <linearGradient id="j" x1="24" gradientUnits="userSpaceOnUse" y1="5.5641" gradientTransform="matrix(.56757 0 0 .72973 2.3784 -2.5135)" x2="24" y2="43">
   <stop stop-color="#FFF" offset="0"/>
   <stop stop-color="#FFF" stop-opacity=".23529" offset=".036262"/>
   <stop stop-color="#FFF" stop-opacity=".15686" offset=".95056"/>
   <stop stop-color="#FFF" stop-opacity=".39216" offset="1"/>
  </linearGradient>
  <linearGradient id="i" x1="25.132" gradientUnits="userSpaceOnUse" y1=".98521" gradientTransform="matrix(.65714 0 0 .63012 .22856 -1.0896)" x2="25.132" y2="47.013">
   <stop stop-color="#f4f4f4" offset="0"/>
   <stop stop-color="#dbdbdb" offset="1"/>
  </linearGradient>
  <linearGradient id="h" x1="-51.786" gradientUnits="userSpaceOnUse" y1="50.786" gradientTransform="matrix(.53064 0 0 .58970 39.27 -1.7919)" x2="-51.786" y2="2.9062">
   <stop stop-color="#a0a0a0" offset="0"/>
   <stop stop-color="#bebebe" offset="1"/>
  </linearGradient>
  <radialGradient id="d" xlink:href="#a" gradientUnits="userSpaceOnUse" cy="486.65" cx="605.71" gradientTransform="matrix(.015663 0 0 .0082353 17.61 25.981)" r="117.14"/>
  <linearGradient id="a">
   <stop offset="0"/>
   <stop stop-opacity="0" offset="1"/>
  </linearGradient>
  <radialGradient id="c" xlink:href="#a" gradientUnits="userSpaceOnUse" cy="486.65" cx="605.71" gradientTransform="matrix(-.015663 0 0 .0082353 14.39 25.981)" r="117.14"/>
  <linearGradient id="e" x1="302.86" gradientUnits="userSpaceOnUse" x2="302.86" gradientTransform="matrix(.045769 0 0 .0082353 -.54232 25.981)" y1="366.65" y2="609.51">
   <stop stop-opacity="0" offset="0"/>
   <stop offset=".5"/>
   <stop stop-opacity="0" offset="1"/>
  </linearGradient>
  <linearGradient id="b">
   <stop stop-color="#a3c0d0" offset="0"/>
   <stop stop-color="#5a8caa" offset="1"/>
  </linearGradient>
  <linearGradient id="g" x1="19.515" xlink:href="#b" gradientUnits="userSpaceOnUse" y1="12.443" gradientTransform="matrix(.66298 0 0 .53532 -.83153 1.3896)" x2="19.515" y2="46.562"/>
  <linearGradient id="f" x1="19.515" xlink:href="#b" gradientUnits="userSpaceOnUse" y1="12.443" gradientTransform="matrix(.53480 0 0 .65680 2.2155 -.57398)" x2="19.515" y2="46.562"/>
 </defs>
 <g>
  <rect opacity=".15" height="2" width="22.1" y="29" x="4.95" fill="url(#e)"/>
  <path opacity=".15" fill="url(#c)" d="m4.95 29v1.9999c-0.80662 0.0038-1.95-0.44807-1.95-1.0001 0-0.552 0.90012-0.99982 1.95-0.99982z"/>
  <path opacity=".15" fill="url(#d)" d="m27.05 29v1.9999c0.80661 0.0038 1.95-0.44807 1.95-1.0001 0-0.552-0.90012-0.99982-1.95-0.99982z"/>
 </g>
 <path stroke-linejoin="round" d="m4.5 0.49996c5.2705 0 23 0.00185 23 0.00185l0.000028 28.998h-23v-29z" stroke="url(#h)" stroke-width=".99992" fill="url(#i)"/>
 <path stroke-linejoin="round" d="m26.5 28.5h-21v-27h21z" stroke="url(#j)" stroke-linecap="round" fill="none"/>
 <path d="m8.5605 7.7356h3.0828v17.645h-3.0828v-17.645z" fill="url(#f)"/>
 <path d="m11 6h12.036v2h-12.036v-2z" fill="url(#g)"/>
 <rect y="5.9254" width="3.0786" fill="#c0d4df" x="8.0005" height="2.0746"/>
 <g fill="none">
  <path d="m15.5 5.5v20" stroke-opacity=".32418" stroke="#2c465d"/>
  <path d="m23.333 8.5h-14.667" stroke="#6c6c6c"/>
  <g stroke-opacity=".32418" stroke="#2c465d">
   <path d="m23.334 10.5h-14.667"/>
   <path d="m23.5 13.5h-15"/>
   <path d="m23.5 16.5h-15"/>
   <path d="m23.5 19.5h-15"/>
  </g>
 </g>
 <path opacity=".2" stroke-linejoin="round" d="m8.5005 6.5093 13.946-0.0186" fill-rule="evenodd" stroke="#FFF" stroke-linecap="square" fill="#FFF"/>
 <g fill="none">
  <path d="m11.5 5.5v20" stroke="#6c6c6c"/>
  <rect height="19.998" width="14.998" stroke="#6c6c6c" stroke-linecap="square" x="8.5011" y="5.5011" stroke-width="1.0022"/>
  <path d="m23.5 22.5h-15" stroke-opacity=".32418" stroke="#2c465d"/>
  <path d="m19.5 5.5v20" stroke-opacity=".32418" stroke="#2c465d"/>
 </g>
</svg>
