<!-- Created with Inkscape (http://www.inkscape.org/) -->
<svg xmlns:rdf="http://www.w3.org/1999/02/22-rdf-syntax-ns#" xmlns="http://www.w3.org/2000/svg" height="32" width="32" version="1.1" xmlns:cc="http://creativecommons.org/ns#" xmlns:xlink="http://www.w3.org/1999/xlink" xmlns:dc="http://purl.org/dc/elements/1.1/">
 <defs>
  <linearGradient id="linearGradient5060">
   <stop stop-color="#000" offset="0"/>
   <stop stop-color="#000" stop-opacity="0" offset="1"/>
  </linearGradient>
  <linearGradient id="linearGradient3012" y2="43" gradientUnits="userSpaceOnUse" x2="24" gradientTransform="matrix(0.72972916,0,0,0.56756756,-1.5145621,3.3783836)" y1="3.5542" x1="24">
   <stop stop-color="#FFF" offset="0"/>
   <stop stop-color="#FFF" stop-opacity="0.23529412" offset="0.11257"/>
   <stop stop-color="#FFF" stop-opacity="0.15686275" offset="0.95056"/>
   <stop stop-color="#FFF" stop-opacity="0.39215687" offset="1"/>
  </linearGradient>
  <linearGradient id="linearGradient3015" y2="47.013" gradientUnits="userSpaceOnUse" x2="25.132" gradientTransform="matrix(0.82857173,0,0,0.49975339,-3.8857226,4.2392369)" y1="0.98521" x1="25.132">
   <stop stop-color="#f4f4f4" offset="0"/>
   <stop stop-color="#dbdbdb" offset="1"/>
  </linearGradient>
  <linearGradient id="linearGradient3017" y2="2.9062" gradientUnits="userSpaceOnUse" x2="-51.786" gradientTransform="matrix(0.66906899,0,0,0.46769474,45.339917,3.6822722)" y1="50.786" x1="-51.786">
   <stop stop-color="#a0a0a0" offset="0"/>
   <stop stop-color="#bebebe" offset="1"/>
  </linearGradient>
  <radialGradient id="radialGradient3020" xlink:href="#linearGradient5060" gradientUnits="userSpaceOnUse" cy="486.65" cx="605.71" gradientTransform="matrix(0.01927775,0,0,0.0082353,17.982069,24.980564)" r="117.14"/>
  <radialGradient id="radialGradient3023" xlink:href="#linearGradient5060" gradientUnits="userSpaceOnUse" cy="486.65" cx="605.71" gradientTransform="matrix(-0.01927775,0,0,0.0082353,14.01793,24.980564)" r="117.14"/>
  <linearGradient id="linearGradient3026" y2="609.51" gradientUnits="userSpaceOnUse" x2="302.86" gradientTransform="matrix(0.05633135,0,0,0.0082353,-4.3597632,24.980547)" y1="366.65" x1="302.86">
   <stop stop-color="#000" stop-opacity="0" offset="0"/>
   <stop stop-color="#000" offset="0.5"/>
   <stop stop-color="#000" stop-opacity="0" offset="1"/>
  </linearGradient>
  <linearGradient id="linearGradient3076" y2="43" gradientUnits="userSpaceOnUse" y1="5.5641" gradientTransform="matrix(0.66891892,0,0,0.56756756,-1.17905,3.378385)" x2="24" x1="24">
   <stop stop-color="#FFF" offset="0"/>
   <stop stop-color="#FFF" stop-opacity="0.23529412" offset="0.036262"/>
   <stop stop-color="#FFF" stop-opacity="0.15686275" offset="0.95056"/>
   <stop stop-color="#FFF" stop-opacity="0.39215687" offset="1"/>
  </linearGradient>
  <radialGradient id="radialGradient3192" gradientUnits="userSpaceOnUse" fx="7.2758" cx="7.8061" cy="9.9571" r="12.672" gradientTransform="matrix(-1.3251168e-7,3.451736,-6.6325968,-1.0361182e-7,81.872186,-26.172651)">
   <stop stop-color="#f9c590" offset="0"/>
   <stop stop-color="#f19860" offset="0.39698"/>
   <stop stop-color="#ce5d36" offset="1"/>
  </radialGradient>
  <linearGradient id="linearGradient3194" y2="0.91791" gradientUnits="userSpaceOnUse" y1="47.935" gradientTransform="matrix(0.81962722,0,0,0.52284254,-3.8315518,5.2357996)" x2="25" x1="25">
   <stop stop-color="#71171c" offset="0"/>
   <stop stop-color="#ed8137" offset="1"/>
  </linearGradient>
  <clipPath id="clipPath3877">
   <path style="enable-background:accumulate;color:#000000;" fill-rule="nonzero" fill="#FFF" d="m10.751-0.72642,19.105,0.025195,0,10.481-19.105-0.025202z"/>
  </clipPath>
  <linearGradient id="linearGradient3514" y2="25.647" gradientUnits="userSpaceOnUse" x2="22.004" gradientTransform="matrix(1.3394176,0,0,-1.9826305,-11.198083,94.86293)" y1="63.218" x1="22.004">
   <stop stop-color="#AAA" offset="0"/>
   <stop stop-color="#c8c8c8" offset="1"/>
  </linearGradient>
  <linearGradient id="linearGradient3550" y2="37.546" gradientUnits="userSpaceOnUse" x2="25.132" gradientTransform="matrix(1.081295,0,0,0.62485417,-6.1734925,-3.6471464)" y1="15.285" x1="25.132">
   <stop stop-color="#f4f4f4" offset="0"/>
   <stop stop-color="#dbdbdb" offset="1"/>
  </linearGradient>
  <linearGradient id="linearGradient3552" y2="17.555" gradientUnits="userSpaceOnUse" x2="-51.786" gradientTransform="matrix(0.87314224,0,0,0.58477041,58.066492,-4.3435334)" y1="41.798" x1="-51.786">
   <stop stop-color="#AAA" offset="0"/>
   <stop stop-color="#c8c8c8" offset="1"/>
  </linearGradient>
  <linearGradient id="linearGradient3554" y2="35.721" gradientUnits="userSpaceOnUse" x2="24" gradientTransform="matrix(1.0820661,0,0,0.61449222,-5.6480107,-2.535845)" y1="14.203" x1="24">
   <stop stop-color="#FFF" offset="0"/>
   <stop stop-color="#FFF" stop-opacity="0" offset="1"/>
  </linearGradient>
  <linearGradient id="linearGradient3556" y2="37.546" gradientUnits="userSpaceOnUse" x2="25.132" gradientTransform="matrix(1,0,0,0.9561695,-0.49905668,-2.9300489)" y1="15.285" x1="25.132">
   <stop stop-color="#f4f4f4" offset="0"/>
   <stop stop-color="#dbdbdb" offset="1"/>
  </linearGradient>
  <linearGradient id="linearGradient3558" y2="17.555" gradientUnits="userSpaceOnUse" x2="-51.786" gradientTransform="matrix(0.8074968,0,0,0.8948322,58.911175,-3.9956799)" y1="41.798" x1="-51.786">
   <stop stop-color="#AAA" offset="0"/>
   <stop stop-color="#c8c8c8" offset="1"/>
  </linearGradient>
  <linearGradient id="linearGradient3560" y2="35.721" gradientUnits="userSpaceOnUse" x2="24" gradientTransform="matrix(1.0351164,0,0,0.9866216,-0.70291674,-2.1699512)" y1="14.203" x1="24">
   <stop stop-color="#FFF" offset="0"/>
   <stop stop-color="#FFF" stop-opacity="0" offset="1"/>
  </linearGradient>
 </defs>
 <metadata>
  <rdf:RDF>
   <cc:Work rdf:about="">
    <dc:format>image/svg+xml</dc:format>
    <dc:type rdf:resource="http://purl.org/dc/dcmitype/StillImage"/>
    <dc:title/>
   </cc:Work>
  </rdf:RDF>
 </metadata>
 <rect opacity="0.15" fill-rule="nonzero" height="2" width="27.2" y="28" x="2.4" fill="url(#linearGradient3026)"/>
 <path opacity="0.15" d="m2.4,28v1.9999c-0.9928,0.004-2.4-0.448-2.4-1s1.1078-1,2.4-1z" fill-rule="nonzero" fill="url(#radialGradient3023)"/>
 <path opacity="0.15" d="m29.6,28v1.9999c0.99276,0.0038,2.4-0.44808,2.4-1.0001,0-0.552-1.1078-0.99982-2.4-0.99982z" fill-rule="nonzero" fill="url(#radialGradient3020)"/>
 <g stroke-linejoin="round" opacity="0.5" clip-path="url(#clipPath3877)" stroke-dashoffset="0" transform="matrix(1.6122259,0,0,1.1260917,-16.324081,-7.0128768)" stroke-linecap="butt" stroke-miterlimit="4">
  <path style="enable-background:accumulate;color:#000000;" d="m13.531,7.5891,13.037,0,0,24.901-13.037,0z" fill-rule="nonzero" stroke="url(#linearGradient3558)" stroke-width="0.74210644" fill="url(#linearGradient3556)"/>
  <path opacity="0.6" style="enable-background:accumulate;color:#000000;" d="m14.31,9.4115,11.413,0,0,22.194-11.413,0z" stroke="url(#linearGradient3560)" stroke-width="0.74210638" fill="none"/>
 </g>
 <g stroke-linejoin="round" stroke-dashoffset="0" transform="translate(0,1)" stroke-linecap="butt" stroke-miterlimit="4" stroke-width="0.9999218">
  <path opacity="0.75" style="enable-background:accumulate;color:#000000;" d="m3.5,2.5,25,0.037621,0,16.962-24.859,0z" fill-rule="nonzero" stroke="url(#linearGradient3552)" fill="url(#linearGradient3550)"/>
  <path opacity="0.45" style="enable-background:accumulate;color:#000000;" d="m4.5,3.5,23,0.016517-0.11298,14.984-22.701,0z" stroke="url(#linearGradient3554)" fill="none"/>
 </g>
 <path stroke-linejoin="round" d="m1.5,5.5c6.6454,0,29,0.00149,29,0.00149l0.000036,22.999h-29v-23z" stroke-dashoffset="0" stroke="url(#linearGradient3017)" stroke-linecap="butt" stroke-miterlimit="4" stroke-dasharray="none" stroke-width="0.9999218" fill="url(#linearGradient3015)"/>
 <path stroke-linejoin="miter" d="m29.5,27.5-27,0,0-21h27z" stroke-dashoffset="0" stroke="url(#linearGradient3012)" stroke-linecap="round" stroke-miterlimit="4" stroke-dasharray="none" stroke-width="0.99999994" fill="none"/>
 <path stroke-linejoin="round" style="enable-background:accumulate;color:#000000;" d="m6,28.5h-4.3138c-0.3495-0.27233-0.083736-0.81302-0.16678-1.1986v-21.669l0.048743-0.093529,0.11803-0.038626h4.2551" fill-rule="nonzero" stroke-dashoffset="0" stroke="url(#linearGradient3194)" stroke-linecap="butt" stroke-miterlimit="4" stroke-dasharray="none" stroke-width="1" fill="url(#radialGradient3192)"/>
 <path opacity="0.5" stroke-linejoin="round" d="m5.5,27.5-3,0,0-21,3,0" stroke-dashoffset="0" stroke="url(#linearGradient3076)" stroke-linecap="round" stroke-miterlimit="4" stroke-dasharray="none" stroke-width="0.99999994" fill="none"/>
 <path stroke-linejoin="miter" d="m11,8.5,4,0" stroke="#AAA" stroke-linecap="butt" stroke-width="1px" fill="none"/>
 <path stroke-linejoin="miter" d="m16,8.5,2,0" stroke="#AAA" stroke-linecap="butt" stroke-width="1px" fill="none"/>
 <path stroke-linejoin="miter" d="m19,8.5,1,0" stroke="#AAA" stroke-linecap="butt" stroke-width="1px" fill="none"/>
 <path stroke-linejoin="miter" d="m21,8.5,2,0" stroke="#AAA" stroke-linecap="butt" stroke-width="1px" fill="none"/>
 <g transform="matrix(1.1415362,0,0,1.1415362,-13.519352,-19.587007)" fill-rule="nonzero">
  <path opacity="0.4" style="enable-background:accumulate;color:#000000;" d="m34.75,25.813a3.8795,3.8795,0,1,1,-2.0522,-3.4222l-1.8273,3.4222z" transform="matrix(1.57008,0,0,1.57008,-16.477866,-6.8527053)" fill="#FFF"/>
  <path opacity="0.15" style="enable-background:accumulate;color:#000000;" d="m34.75,25.813a3.8795,3.8795,0,1,1,-2.0522,-3.4222l-1.8273,3.4222z" transform="matrix(1.57008,0,0,1.57008,-16.477866,-7.6014805)" fill="#000"/>
 </g>
 <path style="baseline-shift:baseline;block-progression:tb;color:#000000;direction:ltr;text-indent:0;text-align:start;enable-background:accumulate;text-transform:none;" fill="url(#linearGradient3514)" d="m7.1562,25,0-1,2.2188,0,0,1zm2.6562,0,0-1,6.3438,0,0,1zm-2.6562-4,0-1,2.9688,0,0,1zm3.7188,0,0-1,2.3438,0,0,1zm2.9375,0,0-1,1.1875,0,0,1zm-6.6562-4,0-1,3.2812,0,0,1zm3.875,0,0-1,1.6562,0,0,1zm2.2188,0,0-1,1.75,0,0,1zm-6.0938-4,0-1,3.2812,0,0,1zm3.9062,0,0-1,2.3438,0,0,1z"/>
</svg>
