<!-- Created with Inkscape (http://www.inkscape.org/) -->
<svg xmlns:rdf="http://www.w3.org/1999/02/22-rdf-syntax-ns#" xmlns="http://www.w3.org/2000/svg" height="32" width="32" version="1.0" xmlns:cc="http://creativecommons.org/ns#" xmlns:xlink="http://www.w3.org/1999/xlink" xmlns:dc="http://purl.org/dc/elements/1.1/">
 <metadata>
  <rdf:RDF>
   <cc:Work rdf:about="">
    <dc:format>image/svg+xml</dc:format>
    <dc:type rdf:resource="http://purl.org/dc/dcmitype/StillImage"/>
    <dc:title/>
   </cc:Work>
  </rdf:RDF>
 </metadata>
 <defs></defs>
 <path fill="#000" d="m14,5,0,8-8,0,0,4,8,0,0,8,4,0,0-8,8,0,0-4-8,0,0-8-4,0z"/>
 <path fill="#FFF" d="M14,6v8h-8v4h8v8h4v-8h8v-4h-8v-8h-4z"/>
 <path opacity="0.1" d="m14,7,0,8-8,0,0,4,8,0,0,8,4,0,0-8,8,0,0-4-8,0,0-8-4,0z" fill="#FFF"/>
</svg>
