<?xml version="1.0" encoding="UTF-8" standalone="no"?>
<svg xmlns:rdf="http://www.w3.org/1999/02/22-rdf-syntax-ns#" xmlns="http://www.w3.org/2000/svg" height="16" width="16" version="1.0" xmlns:cc="http://creativecommons.org/ns#" xmlns:xlink="http://www.w3.org/1999/xlink" xmlns:dc="http://purl.org/dc/elements/1.1/">
 <rect style="color:#000000" fill-opacity="0" height="97.986" width="163.31" y="-32.993" x="-62.897"/>
 <g>
  <path style="block-progression:tb;text-indent:0;color:#000000;text-transform:none" d="m2 2v0.5 3 0.5h0.5 3 0.5v-0.5-3-0.5h-0.5-3-0.5zm8 0v0.5 3 0.5h0.5 3 0.5v-0.5-3-0.5h-0.5-3-0.5zm-8 7v0.5 3 0.5h0.5 3 0.5v-0.5-3-0.5h-0.5-3-0.5zm8 0v0.5 3 0.5h0.5 3 0.5v-0.5-3-0.5h-0.5-3-0.5zm1 1h2v2h-2v-2z"/>
  <path style="block-progression:tb;text-indent:0;color:#000000;text-transform:none" d="m2 3v0.5 3 0.5h0.5 3 0.5v-0.5-3-0.5h-0.5-3-0.5zm8 0v0.5 3 0.5h0.5 3 0.5v-0.5-3-0.5h-0.5-3-0.5zm-8 7v0.5 3 0.5h0.5 3 0.5v-0.5-3-0.5h-0.5-3-0.5zm8 0v0.5 3 0.5h0.5 3 0.5v-0.5-3-0.5h-0.5-3-0.5zm1 1h2v2h-2v-2z" fill="#fff"/>
 </g>
</svg>
