<?xml version="1.0" encoding="UTF-8" standalone="no"?>
<svg xmlns="http://www.w3.org/2000/svg" height="16" width="16" version="1.1">
 <path d="m7.9375 0c-3.1175 0.023214-6.0756 1.876-7.3438 4.9375l2.7812 1.1563c1.0568-2.5513 3.98-3.7756 6.5312-2.7188 0.8628 0.3573 1.5738 0.9274 2.0938 1.625l-2 2h6v-6l-1.875 1.875c-0.802-0.9616-1.825-1.7688-3.063-2.2812-1.02-0.4227-2.0853-0.60149-3.1245-0.59375z"/>
 <path d="m0 9.5v6l2.0938-2.094c0.7676 0.843 1.7205 1.535 2.8437 2 4.082 1.691 8.7775-0.262 10.468-4.344l-2.781-1.1558c-1.057 2.5508-3.98 3.7758-6.5312 2.7188-0.7435-0.308-1.3509-0.805-1.8438-1.375l1.75-1.75h-6z"/>
</svg>
