<svg xmlns="http://www.w3.org/2000/svg" version="1.1" viewbox="0 0 16 16" width="16" height="16"><path d="M5 7.474c.155.382.325.69.644.246.407-.268 1.76-1.427 1.662-.342-.368 2.017-.834 4.017-1.17 6.04-.393 1.114.634 2.067 1.637 1.31 1.078-.502 1.99-1.287 2.927-2.01-.144-.323-.25-.79-.596-.347-.468.24-1.47 1.318-1.696.472.315-2.18.975-4.295 1.365-6.462.397-1.005-.364-2.223-1.4-1.363C7.117 5.634 6.083 6.6 5 7.474zM9.46.005C8.15-.017 7.553 2.147 8.815 2.68c1.023.378 2.077-.714 1.79-1.75-.098-.542-.598-.97-1.147-.93z"/></svg>
