<svg xmlns="http://www.w3.org/2000/svg" height="16" width="16" version="1"><path color="#000" fill="none" d="M-62.897-32.993h163.31v97.986h-163.31z"/><path d="M5 7.474c.155.382.325.69.644.246.407-.268 1.76-1.427 1.662-.342-.368 2.017-.834 4.017-1.17 6.04-.393 1.114.634 2.067 1.637 1.31 1.078-.502 1.992-1.287 2.928-2.01-.143-.323-.25-.79-.596-.347-.468.24-1.47 1.318-1.696.472.315-2.18.975-4.295 1.365-6.462.398-1.005-.364-2.223-1.4-1.363C7.118 5.634 6.084 6.6 5 7.474zM9.46.005C8.15-.017 7.553 2.147 8.816 2.68c1.022.378 2.076-.714 1.79-1.75-.1-.542-.598-.97-1.148-.93z"/></svg>