<?xml version="1.0" encoding="UTF-8" standalone="no"?>
<svg xmlns="http://www.w3.org/2000/svg" height="16" width="16" version="1.0">
 <rect style="color:#000000" fill-opacity="0" height="97.986" width="163.31" y="-32.993" x="-62.897"/>
 <path d="m5 7.4745c0.1554 0.3811 0.3254 0.6881 0.6445 0.2459 0.4066-0.2685 1.7588-1.4279 1.6617-0.3421-0.3682 2.0169-0.8342 4.0167-1.1712 6.0387-0.3916 1.115 0.635 2.068 1.638 1.312 1.0779-0.503 1.9915-1.288 2.928-2.012-0.144-0.322-0.25-0.789-0.597-0.346-0.4681 0.239-1.469 1.317-1.6962 0.471 0.3154-2.181 0.9756-4.2953 1.3655-6.4616 0.3977-1.0049-0.3645-2.2233-1.3998-1.3634-1.2565 0.6173-2.2896 1.5844-3.3735 2.4575zm4.4594-7.4718c-1.3075-0.017336-1.9056 2.1455-0.6427 2.6795 1.0225 0.378 2.0763-0.7138 1.7893-1.7504-0.098-0.54186-0.597-0.96979-1.1466-0.92912h-0.000001z"/>
</svg>
