<?xml version="1.0" encoding="UTF-8" standalone="no"?>
<svg xmlns="http://www.w3.org/2000/svg" height="16" width="16" version="1.0">
 <rect style="color:#000000" fill-opacity="0" height="97.986" width="163.31" y="-32.993" x="-62.897"/>
 <path style="block-progression:tb;color:#000000;text-transform:none;text-indent:0" d="m8.0038-0.000016024c-1.6231 0-3 1.1869-3 2.7187 0.011519 0.48415 0.054822 1.0812 0.34375 2.3437v0.03125l0.031247 0.03125c0.092751 0.26567 0.22772 0.41764 0.40624 0.62499s0.39135 0.4514 0.59374 0.65624c0.023812 0.0241 0.039074 0.03903 0.062494 0.06251 0.040137 0.17466 0.088761 0.36263 0.125 0.53124 0.096423 0.4486 0.086533 0.76628 0.062505 0.87499-0.6975 0.245-1.5651 0.5366-2.3437 0.8751-0.4371 0.19-0.8327 0.3597-1.1563 0.5625-0.3235 0.2028-0.6454 0.356-0.75 0.8126-0.00134 0.02081-0.00134 0.04169 0 0.06251-0.10221 0.93847-0.25682 2.3185-0.375 3.25-0.025513 0.19607 0.077829 0.40276 0.25 0.49999 1.4137 0.7636 3.5852 1.0709 5.7499 1.0625s4.319-0.33383 5.6874-1.0625c0.17217-0.09723 0.27551-0.30392 0.25-0.49999-0.03773-0.29116-0.08408-0.94772-0.125-1.5937-0.04092-0.64601-0.07644-1.2815-0.12499-1.6562-0.01694-0.09289-0.06086-0.18071-0.125-0.25-0.43471-0.51909-1.0842-0.83642-1.8437-1.1562-0.69342-0.29198-1.5063-0.59518-2.3125-0.93749-0.045118-0.10051-0.089936-0.39293 0-0.84374 0.0246-0.1213 0.0624-0.251 0.0942-0.3753 0.0757-0.0848 0.1348-0.1542 0.2187-0.25 0.179-0.2043 0.3715-0.4187 0.5315-0.625s0.29-0.3832 0.375-0.625l0.031-0.0312c0.32664-1.3183 0.32681-1.8684 0.34375-2.3437v-0.03125c0-1.5319-1.3772-2.7188-3.0002-2.7188z"/>
</svg>
