<svg xmlns="http://www.w3.org/2000/svg" height="16" width="16" version="1"><path color="#000" fill="none" d="M-62.897-32.993h163.31v97.986h-163.31z"/><path style="block-progression:tb;text-transform:none;text-indent:0" d="M8.004 0c-1.623 0-3 1.187-3 2.72.01.483.055 1.08.344 2.342v.032l.03.03c.094.267.23.42.407.626s.39.45.594.656l.06.063c.04.173.09.36.126.53.097.448.087.766.063.875-.7.245-1.566.536-2.345.875-.437.19-.833.36-1.156.562-.325.203-.647.356-.75.813-.003.02-.003.042 0 .063-.103.938-.258 2.318-.376 3.25a.513.513 0 0 0 .25.5c1.413.763 3.585 1.07 5.75 1.062s4.32-.334 5.687-1.062a.513.513 0 0 0 .25-.5c-.037-.292-.083-.948-.124-1.594-.04-.646-.076-1.282-.125-1.656a.503.503 0 0 0-.124-.25c-.435-.52-1.084-.837-1.844-1.157-.693-.29-1.506-.594-2.312-.936-.045-.1-.09-.393 0-.844.024-.12.062-.25.094-.375l.22-.25c.178-.204.37-.42.53-.625s.29-.383.375-.625l.03-.03c.327-1.32.327-1.87.344-2.345v-.03c0-1.533-1.377-2.72-3-2.72z" color="#000"/></svg>