<svg xmlns="http://www.w3.org/2000/svg" height="16" width="16" version="1"><path color="#000" fill="none" d="M-62.897-32.993h163.31v97.986h-163.31z"/><path style="block-progression:tb;text-transform:none;text-indent:0" d="M4.118 1.71c-1.113 0-2.058.815-2.058 1.866.008.332.038.742.236 1.608v.02l.022.022c.063.183.156.287.278.43.123.14.27.31.407.45l.043.042c.028.12.06.25.086.365.066.307.06.525.043.6-.478.168-1.074.368-1.608.6-.3.13-.57.247-.793.386-.222.138-.442.243-.514.556V8.7c-.07.643-.176 1.59-.257 2.228a.352.352 0 0 0 .17.343c.97.525 2.46.736 3.945.73 1.485-.006 2.962-.23 3.9-.73a.352.352 0 0 0 .172-.342c-.025-.2-.057-.65-.085-1.093-.028-.443-.053-.88-.086-1.136a.346.346 0 0 0-.087-.172c-.298-.356-.743-.574-1.264-.793-.477-.2-1.035-.41-1.587-.644-.03-.067-.062-.268 0-.577.016-.083.042-.172.064-.257l.15-.172c.123-.14.255-.287.364-.43.11-.14.2-.262.258-.427l.022-.022c.224-.904.224-1.28.236-1.607v-.022c0-1.05-.945-1.865-2.058-1.865zM10.004 0c-1.623 0-3 1.187-3 2.72.01.483.055 1.08.344 2.342v.032l.03.03c.094.267.23.42.407.626s.39.45.594.656l.06.063c.04.173.09.36.126.53.097.448.087.766.063.875-.7.245-1.566.536-2.345.875-.437.19-.833.36-1.156.562-.325.203-.647.356-.75.813-.003.02-.003.042 0 .063-.103.938-.258 2.318-.376 3.25a.513.513 0 0 0 .25.5c1.413.763 3.585 1.07 5.75 1.062s4.32-.334 5.687-1.062a.513.513 0 0 0 .25-.5c-.037-.292-.083-.948-.124-1.594-.04-.646-.076-1.282-.125-1.656a.503.503 0 0 0-.124-.25c-.435-.52-1.084-.837-1.844-1.157-.693-.29-1.506-.594-2.312-.936-.045-.1-.09-.393 0-.844.024-.12.062-.25.094-.375l.218-.25c.18-.204.372-.418.532-.625.16-.206.29-.383.375-.625l.03-.03c.327-1.32.327-1.87.344-2.345v-.03c0-1.533-1.377-2.72-3-2.72z" color="#000"/></svg>