<?xml version="1.0" encoding="UTF-8" standalone="no"?>
<svg xmlns="http://www.w3.org/2000/svg" height="16" width="16" version="1.0">
 <rect style="color:#000000" fill-opacity="0" height="97.986" width="163.31" y="-32.993" x="-62.897"/>
 <path style="block-progression:tb;color:#000000;text-transform:none;text-indent:0" d="m4.1179 1.7112c-1.1132 0-2.0576 0.81415-2.0576 1.8648 0.0079 0.33209 0.037602 0.7416 0.23577 1.6076v0.02144l0.021432 0.02143c0.063617 0.18223 0.15619 0.28647 0.27864 0.4287 0.12245 0.14222 0.26842 0.30962 0.40724 0.45013 0.016332 0.01653 0.0268 0.02677 0.042864 0.04288 0.02753 0.1198 0.060881 0.24874 0.085735 0.36439 0.066135 0.3077 0.059353 0.52561 0.042871 0.60017-0.4783 0.1679-1.0735 0.368-1.6075 0.6001-0.2998 0.1304-0.5711 0.2468-0.79304 0.3859-0.22195 0.139-0.44267 0.2441-0.51441 0.5573-0.0009199 0.01427-0.0009199 0.0286 0 0.04288-0.070103 0.64371-0.17615 1.5903-0.25721 2.2292-0.017499 0.13449 0.053382 0.27626 0.17147 0.34296 0.96962 0.52377 2.4591 0.73457 3.9438 0.72878 1.4848-0.0058 2.9623-0.22898 3.901-0.72878 0.11809-0.06669 0.18897-0.20847 0.17147-0.34296-0.0259-0.2-0.0577-0.65-0.0858-1.093-0.028-0.4431-0.0524-0.879-0.0857-1.1361-0.0116-0.0637-0.0418-0.1239-0.0857-0.1714-0.2982-0.3561-0.7437-0.5738-1.2646-0.7931-0.4756-0.2003-1.0332-0.4083-1.5861-0.6431-0.031-0.0689-0.0617-0.2695 0-0.5787 0.0165-0.083 0.0425-0.172 0.0643-0.2572 0.0519-0.0582 0.0924-0.1058 0.15-0.1715 0.1228-0.1402 0.2547-0.2872 0.3644-0.4287 0.1096-0.1415 0.1993-0.2629 0.2572-0.4287l0.021432-0.02144c0.224-0.9043 0.2242-1.2816 0.2358-1.6076v-0.02143c0-1.0507-0.9444-1.8648-2.0576-1.8648zm5.8861-1.7112c-1.6233 0-3.0002 1.1869-3.0002 2.7187 0.011519 0.48415 0.054822 1.0812 0.34375 2.3437v0.03125l0.031247 0.03125c0.092751 0.26567 0.22772 0.41764 0.40624 0.62499s0.39135 0.4514 0.59374 0.65624c0.023812 0.0241 0.039074 0.03903 0.062494 0.06251 0.040137 0.17466 0.088761 0.36263 0.125 0.53124 0.096423 0.4486 0.086533 0.76628 0.062505 0.87499-0.6975 0.245-1.5651 0.5366-2.3437 0.8751-0.4371 0.19-0.8327 0.3597-1.1563 0.5625-0.3235 0.2028-0.6454 0.356-0.75 0.8126-0.00134 0.02081-0.00134 0.04169 0 0.06251-0.10221 0.93847-0.25682 2.3185-0.375 3.25-0.025513 0.19607 0.077829 0.40276 0.25 0.49999 1.4137 0.7636 3.5852 1.0709 5.7499 1.0625s4.319-0.33383 5.6874-1.0625c0.17217-0.09723 0.27551-0.30392 0.25-0.49999-0.03773-0.29116-0.08408-0.94772-0.125-1.5937-0.04092-0.64601-0.07644-1.2815-0.12499-1.6562-0.01694-0.09289-0.06086-0.18071-0.125-0.25-0.43471-0.51909-1.0842-0.83642-1.8437-1.1562-0.69342-0.29198-1.5063-0.59518-2.3125-0.93749-0.04512-0.10051-0.08994-0.39293 0-0.84374 0.02415-0.12105 0.06197-0.2507 0.09375-0.375 0.07576-0.08485 0.1348-0.15419 0.21875-0.25 0.17904-0.20434 0.37141-0.4187 0.53124-0.62499 0.15984-0.2063 0.2906-0.38327 0.375-0.62499l0.032-0.0315c0.32664-1.3183 0.32681-1.8684 0.34375-2.3437v-0.03125c0-1.5319-1.377-2.7188-3-2.7188z"/>
</svg>
