<svg viewBox="0 0 32 32" width="32" height="32" xmlns="http://www.w3.org/2000/svg" xml:space="preserve" style="fill-rule:evenodd;clip-rule:evenodd;stroke-linejoin:round;stroke-miterlimit:2"><path d="M2 22V4c0-.55.196-1.021.588-1.413A1.926 1.926 0 0 1 4 2h16c.55 0 1.021.196 1.413.587.391.392.587.863.587 1.413v12a1.93 1.93 0 0 1-.587 1.413A1.93 1.93 0 0 1 20 18H6l-4 4Zm6-11a.969.969 0 0 0 .713-.288A.968.968 0 0 0 9 10a.968.968 0 0 0-.287-.712A.969.969 0 0 0 8 9a.965.965 0 0 0-.712.288A.965.965 0 0 0 7 10c0 .283.096.521.288.712A.965.965 0 0 0 8 11Zm4 0a.969.969 0 0 0 .713-.288A.968.968 0 0 0 13 10a.968.968 0 0 0-.287-.712A.969.969 0 0 0 12 9a.965.965 0 0 0-.712.288A.965.965 0 0 0 11 10c0 .283.096.521.288.712A.965.965 0 0 0 12 11Zm4 0a.969.969 0 0 0 .713-.288A.968.968 0 0 0 17 10a.968.968 0 0 0-.287-.712A.969.969 0 0 0 16 9a.965.965 0 0 0-.712.288A.965.965 0 0 0 15 10c0 .283.096.521.288.712A.965.965 0 0 0 16 11Z" style="fill:#fff;fill-rule:nonzero" transform="matrix(-1.4 0 0 1.4 32.8 -.8)"/></svg>