<svg viewBox="0 0 32 32" height="32" width="32" xmlns="http://www.w3.org/2000/svg" xml:space="preserve" style="fill-rule:evenodd;clip-rule:evenodd;stroke-linejoin:round;stroke-miterlimit:2"><path d="M2 22V4c0-.55.196-1.021.588-1.413A1.925 1.925 0 0 1 4 2h16c.55 0 1.021.196 1.413.587.391.392.587.863.587 1.413v12a1.931 1.931 0 0 1-.587 1.413c-.37.382-.881.594-1.413.587H6l-4 4Zm4-8h8v-2H6v2Zm0-3h12V9H6v2Zm0-3h12V6H6v2Z" style="fill:#fff;fill-rule:nonzero" transform="translate(-.8 -.8) scale(1.39999)"/></svg>