<?xml version="1.0" encoding="UTF-8" standalone="no"?>
<!-- Created with Inkscape (http://www.inkscape.org/) -->

<svg
   xmlns:svg="http://www.w3.org/2000/svg"
   xmlns="http://www.w3.org/2000/svg"
   xmlns:xlink="http://www.w3.org/1999/xlink"
   version="1.0"
   width="22"
   height="22"
   id="svg2">
  <defs
     id="defs4">
    <linearGradient
       id="linearGradient2804">
      <stop
         id="stop2806"
         style="stop-color:#000000;stop-opacity:0"
         offset="0" />
      <stop
         id="stop2812"
         style="stop-color:#000000;stop-opacity:1"
         offset="0.5" />
      <stop
         id="stop2808"
         style="stop-color:#000000;stop-opacity:0"
         offset="1" />
    </linearGradient>
    <linearGradient
       x1="21.875"
       y1="48.000977"
       x2="21.875"
       y2="40"
       id="linearGradient7875"
       xlink:href="#linearGradient2804"
       gradientUnits="userSpaceOnUse" />
    <radialGradient
       cx="1"
       cy="44"
       r="5"
       fx="1"
       fy="44"
       id="radialGradient7873"
       xlink:href="#linearGradient2781"
       gradientUnits="userSpaceOnUse"
       gradientTransform="matrix(2,0,0,0.8,36,8.8)" />
    <linearGradient
       id="linearGradient2781">
      <stop
         id="stop2783"
         style="stop-color:#000000;stop-opacity:1"
         offset="0" />
      <stop
         id="stop2785"
         style="stop-color:#000000;stop-opacity:0"
         offset="1" />
    </linearGradient>
    <radialGradient
       cx="1"
       cy="44"
       r="5"
       fx="1"
       fy="44"
       id="radialGradient7871"
       xlink:href="#linearGradient2781"
       gradientUnits="userSpaceOnUse"
       gradientTransform="matrix(2,0,0,0.8,-13,-79.2)" />
    <linearGradient
       x1="9.117774"
       y1="18.345161"
       x2="8.4885712"
       y2="34.608616"
       id="linearGradient7883"
       xlink:href="#linearGradient4585"
       gradientUnits="userSpaceOnUse" />
    <linearGradient
       x1="11.511479"
       y1="0.75951481"
       x2="31.5"
       y2="36.625"
       id="linearGradient7881"
       xlink:href="#linearGradient6732"
       gradientUnits="userSpaceOnUse"
       gradientTransform="matrix(0.858045,0,0,0.8,-0.932219,9.3)" />
    <linearGradient
       id="linearGradient6732">
      <stop
         id="stop6734"
         style="stop-color:#ffffff;stop-opacity:1"
         offset="0" />
      <stop
         id="stop6736"
         style="stop-color:#dddddd;stop-opacity:1"
         offset="1" />
    </linearGradient>
    <linearGradient
       id="linearGradient4585">
      <stop
         id="stop4587"
         style="stop-color:#9e9e9e;stop-opacity:1"
         offset="0" />
      <stop
         id="stop4589"
         style="stop-color:#dddddd;stop-opacity:0"
         offset="1" />
    </linearGradient>
    <linearGradient
       id="linearGradient4222">
      <stop
         id="stop4224"
         style="stop-color:#ffffff;stop-opacity:1"
         offset="0" />
      <stop
         id="stop4226"
         style="stop-color:#ffffff;stop-opacity:0"
         offset="1" />
    </linearGradient>
    <linearGradient
       x1="24.138529"
       y1="7.0774679"
       x2="24.138529"
       y2="47.272728"
       id="linearGradient7449"
       xlink:href="#linearGradient4222"
       gradientUnits="userSpaceOnUse"
       gradientTransform="matrix(0.2817955,0,0,0.2800956,8.7966501,33.376211)" />
    <linearGradient
       id="linearGradient2264">
      <stop
         id="stop2266"
         style="stop-color:#d7e866;stop-opacity:1"
         offset="0" />
      <stop
         id="stop2268"
         style="stop-color:#8cab2a;stop-opacity:1"
         offset="1" />
    </linearGradient>
    <linearGradient
       x1="24.103895"
       y1="15.168831"
       x2="24.103895"
       y2="32.485161"
       id="linearGradient7447"
       xlink:href="#linearGradient2264"
       gradientUnits="userSpaceOnUse"
       gradientTransform="matrix(0.4691323,0,0,0.4663025,4.3005671,29.169788)" />
    <linearGradient
       x1="9.117774"
       y1="18.345161"
       x2="8.4885712"
       y2="34.608616"
       id="linearGradient2905"
       xlink:href="#linearGradient4585"
       gradientUnits="userSpaceOnUse"
       gradientTransform="matrix(0.6013587,0,0,0.5980624,-1.0380127,-5.8062214)" />
    <linearGradient
       x1="11.511479"
       y1="0.75951481"
       x2="31.5"
       y2="36.625"
       id="linearGradient2918"
       xlink:href="#linearGradient6732"
       gradientUnits="userSpaceOnUse"
       gradientTransform="matrix(0.4797481,0,0,0.4329733,-1.4240221,0.5982379)" />
  </defs>
  <g
     transform="matrix(0.5106383,0,0,0.625,-2.5106384,-10)"
     id="g2822"
     style="opacity:0.2;display:inline">
    <rect
       width="10"
       height="8"
       x="-11"
       y="-48"
       transform="scale(-1,-1)"
       id="rect1892"
       style="fill:url(#radialGradient7871);fill-opacity:1;fill-rule:nonzero;stroke:none;stroke-width:1;marker:none;visibility:visible;display:inline;overflow:visible" />
    <rect
       width="10"
       height="8"
       x="38"
       y="40"
       id="rect2789"
       style="fill:url(#radialGradient7873);fill-opacity:1;fill-rule:nonzero;stroke:none;stroke-width:1;marker:none;visibility:visible;display:inline;overflow:visible" />
    <rect
       width="27"
       height="8"
       x="11"
       y="40"
       id="rect2793"
       style="fill:url(#linearGradient7875);fill-opacity:1;fill-rule:nonzero;stroke:none;stroke-width:1;marker:none;visibility:visible;display:inline;overflow:visible" />
  </g>
  <g
     transform="matrix(0.514569,0,0,0.5204006,-0.3058992,-3.571213)"
     id="g1962"
     style="stroke-width:1.91310632;stroke-miterlimit:4;stroke-dasharray:none;display:inline">
    <rect
       width="34.000015"
       height="24"
       rx="2.7500012"
       ry="2.7499983"
       x="2.5000017"
       y="16.499996"
       id="rect5857"
       style="fill:url(#linearGradient7881);fill-opacity:1;fill-rule:evenodd;stroke:#939393;stroke-width:1.91310632;stroke-linecap:butt;stroke-linejoin:miter;stroke-miterlimit:4;stroke-opacity:1;stroke-dasharray:none;stroke-dashoffset:0;marker:none;visibility:visible;display:inline;overflow:visible" />
    <path
       d="m 18.395099,22.588796 c 0,0.294138 -0.06929,0.519713 -0.207851,0.676725 -0.138572,0.155966 -0.327526,0.233949 -0.566874,0.233949 -0.09763,0 -0.191057,-0.01832 -0.280291,-0.05495 l 0,-0.417654 c 0.07874,0.05967 0.165868,0.0895 0.261393,0.0895 0.117576,0 0.205753,-0.04344 0.264545,-0.130321 0.05983,-0.08793 0.08975,-0.219293 0.08975,-0.394102 l 0,-1.392703 0.439328,0 0,1.389563 m 1.226649,-0.803906 c 0.24564,2e-6 0.441423,0.07537 0.587344,0.226098 0.145913,0.150734 0.218869,0.353281 0.218869,0.60764 0,0.276344 -0.07821,0.491974 -0.234622,0.646893 -0.156414,0.153873 -0.366362,0.230809 -0.629851,0.230809 -0.242502,0 -0.439851,-0.07589 -0.592071,-0.227669 -0.151163,-0.151778 -0.226749,-0.350661 -0.226749,-0.596648 0,-0.276342 0.07926,-0.49302 0.237775,-0.650033 0.158512,-0.158058 0.371613,-0.237088 0.639305,-0.23709 m -0.03622,1.373863 c 0.128071,0 0.231992,-0.04553 0.31178,-0.136602 0.08083,-0.09211 0.121247,-0.2172 0.121247,-0.37526 0,-0.160152 -0.03989,-0.286286 -0.119674,-0.378401 -0.07979,-0.09316 -0.182137,-0.139741 -0.307054,-0.139742 -0.123876,10e-7 -0.228854,0.04867 -0.314933,0.146022 -0.08608,0.0963 -0.12912,0.223483 -0.12912,0.381541 0,0.155967 0.04199,0.278961 0.125974,0.36898 0.08503,0.08898 0.188952,0.133462 0.31178,0.133462 m 2.675322,0.292043 -0.422011,0 0,-0.880842 c 0,-0.147591 -0.02257,-0.254359 -0.06771,-0.320306 -0.04515,-0.06699 -0.122304,-0.100487 -0.231476,-0.100488 -0.09553,1e-6 -0.174788,0.03611 -0.237767,0.108339 -0.06299,0.07223 -0.09448,0.164341 -0.09448,0.276342 l 0,0.916955 -0.426728,0 0,-2.380314 0.426728,0 0,0.997031 c 0.05774,-0.09421 0.129643,-0.164862 0.215731,-0.211967 0.08713,-0.0471 0.188428,-0.07065 0.3039,-0.07066 0.177409,2e-6 0.310731,0.05496 0.399964,0.164864 0.08923,0.10991 0.133838,0.274774 0.133848,0.49459 l 0,1.006452 m 1.93366,0 -0.42201,0 0,-0.880842 c 0,-0.147591 -0.02257,-0.254359 -0.06771,-0.320306 -0.04514,-0.06699 -0.12229,-0.100487 -0.23147,-0.100488 -0.09553,10e-7 -0.17478,0.03611 -0.23777,0.108339 -0.06299,0.07223 -0.09448,0.164341 -0.09448,0.276342 l 0,0.916955 -0.42673,0 0,-1.607811 0.42673,0 0,0.224528 c 0.05774,-0.09421 0.12965,-0.164862 0.21573,-0.211967 0.08712,-0.0471 0.18842,-0.07065 0.3039,-0.07066 0.17741,2e-6 0.31073,0.05496 0.39996,0.164864 0.08923,0.10991 0.13385,0.274774 0.13385,0.49459 l 0,1.006452 m 1.38096,-2.251563 0.79047,0 c 0.38211,2e-6 0.6687,0.09159 0.85976,0.274772 0.1921,0.183183 0.28815,0.457432 0.28815,0.822747 0,0.352756 -0.10812,0.633285 -0.32437,0.841589 -0.21521,0.208303 -0.50704,0.312455 -0.87551,0.312455 l -0.7385,0 0,-2.251563 m 0.43932,1.904565 0.28974,0 c 0.23724,0 0.42358,-0.07066 0.559,-0.211967 0.13647,-0.141311 0.20469,-0.334437 0.2047,-0.579378 -10e-6,-0.237611 -0.06614,-0.422362 -0.1984,-0.554255 -0.13228,-0.131889 -0.31651,-0.197835 -0.5527,-0.197836 l -0.30234,0 0,1.543436 m 2.62651,-1.318908 c 0.24564,2e-6 0.44142,0.07537 0.58734,0.226098 0.14591,0.150734 0.21888,0.353281 0.21888,0.60764 0,0.276344 -0.07821,0.491974 -0.23462,0.646893 -0.15642,0.153873 -0.36637,0.230809 -0.62986,0.230809 -0.2425,0 -0.43985,-0.07589 -0.59207,-0.227669 -0.15117,-0.151778 -0.22675,-0.350661 -0.22675,-0.596648 0,-0.276342 0.07926,-0.49302 0.23777,-0.650033 0.15851,-0.158058 0.37162,-0.237088 0.63931,-0.23709 m -0.03622,1.373863 c 0.12807,0 0.232,-0.04553 0.31178,-0.136602 0.08083,-0.09211 0.12125,-0.2172 0.12125,-0.37526 0,-0.160152 -0.0399,-0.286286 -0.11968,-0.378401 -0.07978,-0.09316 -0.18213,-0.139741 -0.30705,-0.139742 -0.12388,1e-6 -0.22885,0.04867 -0.31493,0.146022 -0.08608,0.0963 -0.12912,0.223483 -0.12912,0.381541 0,0.155967 0.04199,0.278961 0.12597,0.36898 0.08503,0.08898 0.18896,0.133462 0.31178,0.133462 m 2.58242,-0.419225 -1.07391,0 c 0,0.131892 0.04041,0.234473 0.12125,0.307745 0.08188,0.07223 0.19525,0.10834 0.34012,0.108339 0.15956,1e-6 0.31336,-0.04763 0.46137,-0.142882 l 0,0.348569 c -0.16586,0.08583 -0.35167,0.128751 -0.55742,0.128751 -0.2488,0 -0.44352,-0.07275 -0.58419,-0.218249 -0.13962,-0.145498 -0.20944,-0.34438 -0.20944,-0.596648 0,-0.272155 0.07454,-0.488832 0.22361,-0.650034 0.15011,-0.162244 0.34747,-0.243367 0.59206,-0.243369 0.2152,2e-6 0.38316,0.06699 0.50389,0.200976 0.12177,0.132939 0.18266,0.318737 0.18266,0.557396 l 0,0.199406 m -0.39367,-0.282623 c 0,-0.112002 -0.02834,-0.199405 -0.08503,-0.262211 -0.05563,-0.0628 -0.13489,-0.09421 -0.23777,-0.09421 -0.09342,2e-6 -0.17426,0.03245 -0.24249,0.09735 -0.06824,0.06385 -0.10655,0.15021 -0.11495,0.259071 l 0.68024,0"
       id="text6970"
       style="font-size:4.12102222px;font-style:normal;font-variant:normal;font-weight:bold;font-stretch:normal;text-align:start;line-height:120.00000477%;writing-mode:lr-tb;text-anchor:start;fill:#000000;fill-opacity:1;stroke:none;font-family:Segoe" />
    <rect
       width="15"
       height="2"
       rx="1"
       ry="1"
       x="17"
       y="25"
       id="rect6978"
       style="opacity:0.3976608;fill:#8d8d8d;fill-opacity:1;fill-rule:evenodd;stroke:none;stroke-width:1.91310632;marker:none;visibility:visible;display:inline;overflow:visible" />
    <rect
       width="10.955575"
       height="2"
       rx="1"
       ry="1"
       x="17.089211"
       y="28"
       id="rect6980"
       style="opacity:0.3976608;fill:#8d8d8d;fill-opacity:1;fill-rule:evenodd;stroke:none;stroke-width:1.91310632;marker:none;visibility:visible;display:inline;overflow:visible" />
    <g
       transform="matrix(0.782541,0,0,0.650248,0.39068,14.55146)"
       id="g7033"
       style="opacity:0.48538011;stroke-width:2.68192148;stroke-miterlimit:4;stroke-dasharray:none">
      <rect
         width="1"
         height="6"
         rx="0"
         ry="0"
         x="6"
         y="30"
         id="rect7003"
         style="fill:#000000;fill-opacity:1;fill-rule:evenodd;stroke:none;stroke-width:2.68192148;marker:none;visibility:visible;display:inline;overflow:visible" />
      <rect
         width="1.9375"
         height="2.9851687"
         rx="0"
         ry="0"
         x="8.0846453"
         y="30"
         id="rect7005"
         style="fill:#000000;fill-opacity:1;fill-rule:evenodd;stroke:none;stroke-width:2.68192148;marker:none;visibility:visible;display:inline;overflow:visible" />
      <rect
         width="1"
         height="2.9851687"
         x="11"
         y="30"
         id="rect7007"
         style="fill:#000000;fill-opacity:1;fill-rule:evenodd;stroke:none;stroke-width:2.68192148;marker:none;visibility:visible;display:inline;overflow:visible" />
      <rect
         width="2"
         height="2.9851687"
         x="13"
         y="30"
         id="rect7009"
         style="fill:#000000;fill-opacity:1;fill-rule:evenodd;stroke:none;stroke-width:2.68192148;marker:none;visibility:visible;display:inline;overflow:visible" />
      <rect
         width="1"
         height="2.9851687"
         x="16"
         y="30"
         id="rect7011"
         style="fill:#000000;fill-opacity:1;fill-rule:evenodd;stroke:none;stroke-width:2.68192148;marker:none;visibility:visible;display:inline;overflow:visible" />
      <rect
         width="1"
         height="2.9851687"
         x="18"
         y="30"
         id="rect7013"
         style="fill:#000000;fill-opacity:1;fill-rule:evenodd;stroke:none;stroke-width:2.68192148;marker:none;visibility:visible;display:inline;overflow:visible" />
      <rect
         width="1"
         height="2.9851687"
         x="21"
         y="30"
         id="rect7015"
         style="fill:#000000;fill-opacity:1;fill-rule:evenodd;stroke:none;stroke-width:2.68192148;marker:none;visibility:visible;display:inline;overflow:visible" />
      <rect
         width="2"
         height="2.9851687"
         x="23"
         y="30"
         id="rect7017"
         style="fill:#000000;fill-opacity:1;fill-rule:evenodd;stroke:none;stroke-width:2.68192148;marker:none;visibility:visible;display:inline;overflow:visible" />
      <rect
         width="2"
         height="2.9851687"
         x="26"
         y="30"
         id="rect7019"
         style="fill:#000000;fill-opacity:1;fill-rule:evenodd;stroke:none;stroke-width:2.68192148;marker:none;visibility:visible;display:inline;overflow:visible" />
      <rect
         width="1"
         height="2.9851687"
         x="29"
         y="30"
         id="rect7021"
         style="fill:#000000;fill-opacity:1;fill-rule:evenodd;stroke:none;stroke-width:2.68192148;marker:none;visibility:visible;display:inline;overflow:visible" />
      <rect
         width="1"
         height="2.9851687"
         x="31"
         y="30"
         id="rect7023"
         style="fill:#000000;fill-opacity:1;fill-rule:evenodd;stroke:none;stroke-width:2.68192148;marker:none;visibility:visible;display:inline;overflow:visible" />
      <rect
         width="1"
         height="2.9851687"
         x="33"
         y="30"
         id="rect7025"
         style="fill:#000000;fill-opacity:1;fill-rule:evenodd;stroke:none;stroke-width:2.68192148;marker:none;visibility:visible;display:inline;overflow:visible" />
      <rect
         width="2"
         height="2.9851687"
         x="35"
         y="30"
         id="rect7027"
         style="fill:#000000;fill-opacity:1;fill-rule:evenodd;stroke:none;stroke-width:2.68192148;marker:none;visibility:visible;display:inline;overflow:visible" />
      <rect
         width="2"
         height="2.9851687"
         x="39"
         y="30"
         id="rect7029"
         style="fill:#000000;fill-opacity:1;fill-rule:evenodd;stroke:none;stroke-width:2.68192148;marker:none;visibility:visible;display:inline;overflow:visible" />
      <rect
         width="1"
         height="6"
         x="42"
         y="30"
         id="rect7031"
         style="fill:#000000;fill-opacity:1;fill-rule:evenodd;stroke:none;stroke-width:2.68192148;marker:none;visibility:visible;display:inline;overflow:visible" />
    </g>
    <path
       d="m 7.4730264,37.137227 c 0.058659,0.01251 0.104375,0.03852 0.13714,0.07805 0.033172,0.03953 0.049762,0.08834 0.049762,0.14643 0,0.08915 -0.030746,0.158128 -0.092238,0.206938 -0.061492,0.04881 -0.148871,0.07322 -0.262144,0.07322 -0.038031,0 -0.077276,-0.0038 -0.117725,-0.0115 -0.040051,-0.0073 -0.081517,-0.01835 -0.124401,-0.03328 l 0,-0.117991 c 0.033986,0.01977 0.071204,0.03469 0.111653,0.04478 0.040458,0.01009 0.082731,0.01513 0.126827,0.01513 0.076869,0 0.135325,-0.01513 0.175375,-0.04538 0.04045,-0.03025 0.060678,-0.07422 0.060678,-0.131908 0,-0.05325 -0.018812,-0.0948 -0.056429,-0.124647 -0.037225,-0.03025 -0.089209,-0.04538 -0.155952,-0.04538 l -0.105589,0 0,-0.100444 0.11044,0 c 0.06028,10e-7 0.106395,-0.0119 0.138354,-0.0357 0.031959,-0.0242 0.047938,-0.05889 0.047938,-0.104074 0,-0.04639 -0.016582,-0.08189 -0.049754,-0.106494 -0.032773,-0.02501 -0.079905,-0.03752 -0.141389,-0.03752 -0.033579,0 -0.069584,0.0036 -0.108015,0.01089 -0.038438,0.0073 -0.080711,0.01856 -0.126826,0.03388 l 0,-0.108914 c 0.046522,-0.01291 0.090008,-0.02259 0.130465,-0.02904 0.040857,-0.0065 0.079287,-0.0097 0.115292,-0.0097 0.093052,2e-6 0.166674,0.02118 0.220888,0.06353 0.054207,0.04195 0.081314,0.09883 0.081314,0.170633 0,0.05002 -0.014368,0.09238 -0.043087,0.127066 -0.028719,0.03429 -0.069583,0.05809 -0.122577,0.0714 m 0.525507,0.384227 0.427808,0 0,0.102863 -0.57527,0 0,-0.102863 c 0.04653,-0.048 0.109838,-0.112343 0.189939,-0.193021 0.080508,-0.08108 0.131075,-0.13332 0.151703,-0.156716 0.039245,-0.04397 0.066548,-0.08108 0.081924,-0.111335 0.015776,-0.03066 0.023665,-0.06071 0.023665,-0.09016 0,-0.048 -0.016989,-0.08713 -0.050975,-0.117386 -0.033579,-0.03025 -0.077472,-0.04538 -0.131678,-0.04538 -0.038431,0 -0.079092,0.0067 -0.121967,0.01997 -0.042484,0.01331 -0.087989,0.03348 -0.136538,0.06051 l 0,-0.123437 c 0.049355,-0.01976 0.09547,-0.03469 0.138353,-0.04478 0.042883,-0.01008 0.082128,-0.01513 0.117726,-0.01513 0.09385,2e-6 0.168692,0.0234 0.224526,0.07019 0.055827,0.04679 0.08374,0.109319 0.08374,0.187575 0,0.03711 -0.00708,0.07241 -0.021238,0.10589 -0.013757,0.03308 -0.039041,0.07221 -0.075852,0.117385 -0.010118,0.0117 -0.04228,0.04558 -0.096487,0.101654 -0.054207,0.05567 -0.130669,0.133723 -0.229379,0.234167 m 1.022492,-0.694029 -0.309479,0.48225 0.309479,0 0,-0.48225 m -0.032162,-0.106494 0.154137,0 0,0.588744 0.129252,0 0,0.101654 -0.129252,0 0,0.212988 -0.121975,0 0,-0.212988 -0.408995,0 0,-0.117991 0.376833,-0.572407 m 0.487891,0 0.4812083,0 0,0.102864 -0.3689533,0 0,0.22146 c 0.017803,-0.0061 0.035606,-0.01049 0.053401,-0.01331 0.017803,-0.0032 0.035605,-0.0048 0.0534,-0.0048 0.101136,10e-7 0.181237,0.02763 0.2403033,0.0829 0.059066,0.05527 0.088599,0.130093 0.088599,0.224486 0,0.09722 -0.030347,0.172851 -0.091025,0.226905 -0.060686,0.05365 -0.1462413,0.08048 -0.2566893,0.08048 -0.038024,0 -0.076861,-0.0032 -0.116505,-0.0097 -0.039244,-0.0065 -0.079897,-0.01614 -0.121974,-0.02905 l 0,-0.122831 c 0.036411,0.01977 0.074036,0.03449 0.112873,0.04417 0.03883,0.0097 0.079898,0.01452 0.12318,0.01452 0.069991,0 0.12541,-0.01835 0.166274,-0.05506 0.040857,-0.03671 0.061289,-0.08653 0.061289,-0.149455 0,-0.06293 -0.020432,-0.112747 -0.061289,-0.149455 -0.040864,-0.03671 -0.096283,-0.05506 -0.166274,-0.05506 -0.032765,0 -0.065538,0.0036 -0.098303,0.01089 -0.032366,0.0073 -0.065537,0.01856 -0.099515,0.03388 l 0,-0.453811 m 1.4478736,0.08047 c -0.06311,10e-7 -0.110644,0.03106 -0.142603,0.09318 -0.03156,0.06172 -0.04734,0.154699 -0.04734,0.278942 0,0.12384 0.01578,0.216821 0.04734,0.278942 0.03196,0.06172 0.07949,0.09258 0.142603,0.09258 0.06351,0 0.11105,-0.03086 0.142602,-0.09258 0.03196,-0.06212 0.04794,-0.155102 0.04794,-0.278942 0,-0.124243 -0.01598,-0.217224 -0.04794,-0.278942 -0.03155,-0.06212 -0.07909,-0.09318 -0.142602,-0.09318 m 0,-0.09681 c 0.101542,2e-6 0.179014,0.04014 0.232414,0.120412 0.0538,0.07987 0.0807,0.196047 0.0807,0.348527 0,0.152077 -0.0269,0.268253 -0.0807,0.348527 -0.0534,0.07987 -0.130872,0.119806 -0.232414,0.119806 -0.101543,0 -0.179218,-0.03993 -0.233017,-0.119806 -0.0534,-0.08027 -0.0801,-0.19645 -0.0801,-0.348527 0,-0.15248 0.0267,-0.268656 0.0801,-0.348527 0.0538,-0.08027 0.131474,-0.12041 0.233017,-0.120412 m 0.530359,0.01634 0.481208,0 0,0.102864 -0.368945,0 0,0.22146 c 0.0178,-0.0061 0.0356,-0.01049 0.0534,-0.01331 0.0178,-0.0032 0.0356,-0.0048 0.0534,-0.0048 0.101135,1e-6 0.181236,0.02763 0.240302,0.0829 0.05906,0.05527 0.08859,0.130093 0.08859,0.224486 0,0.09722 -0.03034,0.172851 -0.09102,0.226905 -0.06069,0.05365 -0.14625,0.08048 -0.25669,0.08048 -0.03802,0 -0.07686,-0.0032 -0.116512,-0.0097 -0.03924,-0.0065 -0.0799,-0.01614 -0.121967,-0.02905 l 0,-0.122831 c 0.03641,0.01977 0.07403,0.03449 0.112866,0.04417 0.03884,0.0097 0.0799,0.01452 0.123188,0.01452 0.06998,0 0.12541,-0.01835 0.166266,-0.05506 0.04086,-0.03671 0.06129,-0.08653 0.06129,-0.149455 0,-0.06293 -0.02043,-0.112747 -0.06129,-0.149455 -0.04086,-0.03671 -0.09628,-0.05506 -0.166266,-0.05506 -0.03277,0 -0.06554,0.0036 -0.0983,0.01089 -0.03237,0.0073 -0.06554,0.01856 -0.09952,0.03388 l 0,-0.453811 m 0.791298,0 0.481208,0 0,0.102864 -0.368945,0 0,0.22146 c 0.01779,-0.0061 0.0356,-0.01049 0.0534,-0.01331 0.01779,-0.0032 0.0356,-0.0048 0.0534,-0.0048 0.101136,1e-6 0.181237,0.02763 0.240295,0.0829 0.05907,0.05527 0.0886,0.130093 0.0886,0.224486 0,0.09722 -0.03034,0.172851 -0.09103,0.226905 -0.06068,0.05365 -0.146241,0.08048 -0.256681,0.08048 -0.03803,0 -0.07687,-0.0032 -0.116512,-0.0097 -0.03924,-0.0065 -0.0799,-0.01614 -0.121967,-0.02905 l 0,-0.122831 c 0.0364,0.01977 0.07403,0.03449 0.112866,0.04417 0.03884,0.0097 0.0799,0.01452 0.123187,0.01452 0.06998,0 0.125402,-0.01835 0.166267,-0.05506 0.04086,-0.03671 0.06129,-0.08653 0.06129,-0.149455 0,-0.06293 -0.02043,-0.112747 -0.06129,-0.149455 -0.04087,-0.03671 -0.09628,-0.05506 -0.166267,-0.05506 -0.03277,0 -0.06554,0.0036 -0.09831,0.01089 -0.03237,0.0073 -0.06554,0.01856 -0.09952,0.03388 l 0,-0.453811 m 0.759135,0 0.582547,0 0,0.05204 -0.328902,0.851349 -0.128039,0 0.309479,-0.800522 -0.435085,0 0,-0.102864 m 1.219105,0 0.481208,0 0,0.102864 -0.368952,0 0,0.22146 c 0.0178,-0.0061 0.03561,-0.01049 0.0534,-0.01331 0.0178,-0.0032 0.03561,-0.0048 0.0534,-0.0048 0.101136,10e-7 0.181236,0.02763 0.240303,0.0829 0.05907,0.05527 0.0886,0.130093 0.0886,0.224486 0,0.09722 -0.03035,0.172851 -0.09103,0.226905 -0.06069,0.05365 -0.146249,0.08048 -0.256689,0.08048 -0.03802,0 -0.07686,-0.0032 -0.116505,-0.0097 -0.03924,-0.0065 -0.0799,-0.01614 -0.121975,-0.02905 l 0,-0.122831 c 0.03641,0.01977 0.07404,0.03449 0.112874,0.04417 0.03883,0.0097 0.0799,0.01452 0.12318,0.01452 0.06999,0 0.12541,-0.01835 0.166266,-0.05506 0.04087,-0.03671 0.06129,-0.08653 0.0613,-0.149455 -8e-6,-0.06293 -0.02043,-0.112747 -0.0613,-0.149455 -0.04086,-0.03671 -0.09628,-0.05506 -0.166266,-0.05506 -0.03277,0 -0.06554,0.0036 -0.0983,0.01089 -0.03237,0.0073 -0.06554,0.01856 -0.09952,0.03388 l 0,-0.453811 m 0.811315,0.800523 0.200253,0 0,-0.689188 -0.217852,0.04357 0,-0.111335 0.216639,-0.04357 0.122577,0 0,0.800523 0.200252,0 0,0.102863 -0.521869,0 0,-0.102863 m 1.032203,-0.720048 c -0.06311,1e-6 -0.110643,0.03106 -0.142602,0.09318 -0.03155,0.06172 -0.04733,0.154699 -0.04733,0.278942 0,0.12384 0.01578,0.216821 0.04733,0.278942 0.03196,0.06172 0.07949,0.09258 0.142602,0.09258 0.06351,0 0.111051,-0.03086 0.142603,-0.09258 0.03196,-0.06212 0.04794,-0.155102 0.04794,-0.278942 0,-0.124243 -0.01598,-0.217224 -0.04794,-0.278942 -0.03155,-0.06212 -0.07909,-0.09318 -0.142603,-0.09318 m 0,-0.09681 c 0.101543,2e-6 0.179014,0.04014 0.232415,0.120412 0.0538,0.07987 0.0807,0.196047 0.0807,0.348527 0,0.152077 -0.0269,0.268253 -0.0807,0.348527 -0.0534,0.07987 -0.130872,0.119806 -0.232415,0.119806 -0.101542,0 -0.179209,-0.03993 -0.233017,-0.119806 -0.0534,-0.08027 -0.0801,-0.19645 -0.0801,-0.348527 0,-0.15248 0.0267,-0.268656 0.0801,-0.348527 0.05381,-0.08027 0.131475,-0.12041 0.233017,-0.120412 m 0.806464,0.419322 c -0.05501,10e-7 -0.09871,0.01876 -0.131068,0.05627 -0.03196,0.03751 -0.04794,0.08895 -0.04794,0.154296 0,0.06494 0.01598,0.116377 0.04794,0.154295 0.03236,0.03751 0.07606,0.05627 0.131068,0.05627 0.05502,0 0.09851,-0.01876 0.130473,-0.05627 0.03236,-0.03792 0.04854,-0.08935 0.04854,-0.154295 0,-0.06535 -0.01618,-0.116781 -0.04854,-0.154296 -0.03196,-0.03751 -0.07545,-0.05627 -0.130473,-0.05627 m 0.243339,-0.383017 0,0.111335 c -0.03075,-0.01452 -0.0619,-0.02561 -0.09345,-0.03328 -0.03115,-0.0077 -0.06209,-0.0115 -0.09284,-0.0115 -0.08091,0 -0.142806,0.02723 -0.185689,0.08169 -0.04248,0.05446 -0.06675,0.136749 -0.07282,0.246873 0.02387,-0.03509 0.0538,-0.06192 0.08981,-0.08048 0.036,-0.01896 0.07565,-0.02844 0.118938,-0.02844 0.09102,1e-6 0.162831,0.02763 0.215418,0.0829 0.053,0.05486 0.0795,0.12969 0.0795,0.224486 0,0.09278 -0.02751,0.167204 -0.08253,0.223275 -0.05502,0.05607 -0.128243,0.08411 -0.219675,0.08411 -0.104775,0 -0.184876,-0.03993 -0.240295,-0.119806 -0.05543,-0.08027 -0.08314,-0.19645 -0.08314,-0.348527 0,-0.142799 0.03398,-0.256554 0.101949,-0.341266 0.06796,-0.08511 0.159185,-0.127671 0.27367,-0.127673 0.03075,2e-6 0.0617,0.003 0.09285,0.0091 0.03155,0.0061 0.06432,0.01513 0.0983,0.02723 m 0.667499,-0.01997 0.481214,0 0,0.102864 -0.368953,0 0,0.22146 c 0.0178,-0.0061 0.03561,-0.01049 0.0534,-0.01331 0.0178,-0.0032 0.03561,-0.0048 0.0534,-0.0048 0.101135,1e-6 0.181236,0.02763 0.240302,0.0829 0.05907,0.05527 0.0886,0.130093 0.0886,0.224486 0,0.09722 -0.03035,0.172851 -0.09103,0.226905 -0.06069,0.05365 -0.146249,0.08048 -0.256689,0.08048 -0.03802,0 -0.07686,-0.0032 -0.116504,-0.0097 -0.03925,-0.0065 -0.0799,-0.01614 -0.121973,-0.02905 l 0,-0.122831 c 0.03641,0.01977 0.07403,0.03449 0.112872,0.04417 0.03883,0.0097 0.0799,0.01452 0.123179,0.01452 0.06999,0 0.12541,-0.01835 0.166267,-0.05506 0.04086,-0.03671 0.06129,-0.08653 0.0613,-0.149455 -7e-6,-0.06293 -0.02043,-0.112747 -0.0613,-0.149455 -0.04086,-0.03671 -0.09628,-0.05506 -0.166267,-0.05506 -0.03277,0 -0.06554,0.0036 -0.0983,0.01089 -0.03237,0.0073 -0.06554,0.01856 -0.09952,0.03388 l 0,-0.453811 m 1.126873,0.106494 -0.309479,0.48225 0.309479,0 0,-0.48225 m -0.03216,-0.106494 0.15413,0 0,0.588744 0.129252,0 0,0.101654 -0.129252,0 0,0.212988 -0.121967,0 0,-0.212988 -0.409003,0 0,-0.117991 0.37684,-0.572407 m 0.748814,0.08047 c -0.06311,1e-6 -0.110643,0.03106 -0.142602,0.09318 -0.03155,0.06172 -0.04733,0.154699 -0.04733,0.278942 0,0.12384 0.01578,0.216821 0.04733,0.278942 0.03196,0.06172 0.07949,0.09258 0.142602,0.09258 0.06351,0 0.11105,-0.03086 0.142602,-0.09258 0.03196,-0.06212 0.04794,-0.155102 0.04794,-0.278942 0,-0.124243 -0.01598,-0.217224 -0.04794,-0.278942 -0.03155,-0.06212 -0.07909,-0.09318 -0.142602,-0.09318 m 0,-0.09681 c 0.101543,2e-6 0.179014,0.04014 0.232415,0.120412 0.0538,0.07987 0.0807,0.196047 0.0807,0.348527 0,0.152077 -0.0269,0.268253 -0.0807,0.348527 -0.0534,0.07987 -0.130872,0.119806 -0.232415,0.119806 -0.101543,0 -0.179218,-0.03993 -0.233017,-0.119806 -0.0534,-0.08027 -0.0801,-0.19645 -0.0801,-0.348527 0,-0.15248 0.0267,-0.268656 0.0801,-0.348527 0.0538,-0.08027 0.131474,-0.12041 0.233017,-0.120412 m 0.806463,0.419322 c -0.05501,10e-7 -0.09871,0.01876 -0.131067,0.05627 -0.03196,0.03751 -0.04794,0.08895 -0.04794,0.154296 0,0.06494 0.01598,0.116377 0.04794,0.154295 0.03236,0.03751 0.07606,0.05627 0.131067,0.05627 0.05502,0 0.09851,-0.01876 0.130466,-0.05627 0.03237,-0.03792 0.04855,-0.08935 0.04855,-0.154295 0,-0.06535 -0.01618,-0.116781 -0.04855,-0.154296 -0.03196,-0.03751 -0.07545,-0.05627 -0.130466,-0.05627 m 0.243339,-0.383017 0,0.111335 c -0.03075,-0.01452 -0.0619,-0.02561 -0.09345,-0.03328 -0.03115,-0.0077 -0.0621,-0.0115 -0.09284,-0.0115 -0.08092,0 -0.142806,0.02723 -0.18569,0.08169 -0.04248,0.05446 -0.06675,0.136749 -0.07282,0.246873 0.02387,-0.03509 0.05381,-0.06192 0.08981,-0.08048 0.03601,-0.01896 0.07565,-0.02844 0.118939,-0.02844 0.09103,1e-6 0.162831,0.02763 0.215418,0.0829 0.053,0.05486 0.0795,0.12969 0.0795,0.224486 0,0.09278 -0.02751,0.167204 -0.08253,0.223275 -0.05502,0.05607 -0.128243,0.08411 -0.219675,0.08411 -0.104774,0 -0.184875,-0.03993 -0.240295,-0.119806 -0.05543,-0.08027 -0.08314,-0.19645 -0.08314,-0.348527 0,-0.142799 0.03398,-0.256554 0.101942,-0.341266 0.06796,-0.08511 0.159192,-0.127671 0.273678,-0.127673 0.03075,2e-6 0.0617,0.003 0.09285,0.0091 0.03155,0.0061 0.06432,0.01513 0.0983,0.02723 m 0.6675,-0.01997 0.481216,0 0,0.102864 -0.368953,0 0,0.22146 c 0.0178,-0.0061 0.03561,-0.01049 0.0534,-0.01331 0.0178,-0.0032 0.0356,-0.0048 0.0534,-0.0048 0.101135,1e-6 0.181236,0.02763 0.240302,0.0829 0.05907,0.05527 0.08859,0.130093 0.0886,0.224486 -8e-6,0.09722 -0.03035,0.172851 -0.09103,0.226905 -0.06069,0.05365 -0.146249,0.08048 -0.256689,0.08048 -0.03802,0 -0.07686,-0.0032 -0.116504,-0.0097 -0.03925,-0.0065 -0.0799,-0.01614 -0.121975,-0.02905 l 0,-0.122831 c 0.03641,0.01977 0.07404,0.03449 0.112866,0.04417 0.03884,0.0097 0.07991,0.01452 0.123187,0.01452 0.06999,0 0.12541,-0.01835 0.166267,-0.05506 0.04086,-0.03671 0.06129,-0.08653 0.06129,-0.149455 0,-0.06293 -0.02042,-0.112747 -0.06129,-0.149455 -0.04086,-0.03671 -0.09628,-0.05506 -0.166267,-0.05506 -0.03277,0 -0.06554,0.0036 -0.0983,0.01089 -0.03237,0.0073 -0.06554,0.01856 -0.09952,0.03388 l 0,-0.453811 m 1.126867,0.106494 -0.30947,0.48225 0.30947,0 0,-0.48225 m -0.03215,-0.106494 0.15412,0 0,0.588744 0.12926,0 0,0.101654 -0.12926,0 0,0.212988 -0.12197,0 0,-0.212988 -0.409,0 0,-0.117991 0.37685,-0.572407 m 0.76398,0.402984 c -0.05502,10e-7 -0.09871,0.01876 -0.13107,0.05627 -0.03196,0.03751 -0.04794,0.08895 -0.04794,0.154296 0,0.06494 0.01598,0.116377 0.04794,0.154295 0.03236,0.03751 0.07605,0.05627 0.13107,0.05627 0.05502,0 0.09851,-0.01876 0.13047,-0.05627 0.03236,-0.03792 0.04854,-0.08935 0.04855,-0.154295 -10e-6,-0.06535 -0.01619,-0.116781 -0.04855,-0.154296 -0.03196,-0.03751 -0.07545,-0.05627 -0.13047,-0.05627 m 0.24333,-0.383017 0,0.111335 c -0.03074,-0.01452 -0.06189,-0.02561 -0.09345,-0.03328 -0.03114,-0.0077 -0.06209,-0.0115 -0.09284,-0.0115 -0.08091,0 -0.1428,0.02723 -0.18569,0.08169 -0.04247,0.05446 -0.06675,0.136749 -0.07281,0.246873 0.02386,-0.03509 0.0538,-0.06192 0.0898,-0.08048 0.03601,-0.01896 0.07566,-0.02844 0.11894,-0.02844 0.09103,1e-6 0.16283,0.02763 0.21543,0.0829 0.05299,0.05486 0.07949,0.12969 0.07949,0.224486 0,0.09278 -0.02751,0.167204 -0.08253,0.223275 -0.05502,0.05607 -0.12824,0.08411 -0.21967,0.08411 -0.10478,0 -0.18488,-0.03993 -0.2403,-0.119806 -0.05543,-0.08027 -0.08314,-0.19645 -0.08314,-0.348527 0,-0.142799 0.03399,-0.256554 0.10195,-0.341266 0.06797,-0.08511 0.15919,-0.127671 0.27368,-0.127673 0.03074,2e-6 0.06169,0.003 0.09284,0.0091 0.03155,0.0061 0.06433,0.01513 0.0983,0.02723 m 0.27186,-0.01997 0.48121,0 0,0.102864 -0.36895,0 0,0.22146 c 0.0178,-0.0061 0.03561,-0.01049 0.0534,-0.01331 0.01781,-0.0032 0.0356,-0.0048 0.0534,-0.0048 0.10114,10e-7 0.18124,0.02763 0.24031,0.0829 0.05906,0.05527 0.08859,0.130093 0.08859,0.224486 0,0.09722 -0.03034,0.172851 -0.09102,0.226905 -0.06069,0.05365 -0.14625,0.08048 -0.25669,0.08048 -0.03802,0 -0.07686,-0.0032 -0.1165,-0.0097 -0.03925,-0.0065 -0.0799,-0.01614 -0.12198,-0.02905 l 0,-0.122831 c 0.03641,0.01977 0.07404,0.03449 0.11287,0.04417 0.03883,0.0097 0.0799,0.01452 0.12318,0.01452 0.07,0 0.12541,-0.01835 0.16627,-0.05506 0.04087,-0.03671 0.06129,-0.08653 0.06129,-0.149455 0,-0.06293 -0.02042,-0.112747 -0.06129,-0.149455 -0.04086,-0.03671 -0.09627,-0.05506 -0.16627,-0.05506 -0.03276,0 -0.06553,0.0036 -0.0983,0.01089 -0.03236,0.0073 -0.06554,0.01856 -0.09952,0.03388 l 0,-0.453811 m 1.15478,0 0.58255,0 0,0.05204 -0.3289,0.851349 -0.12804,0 0.30948,-0.800522 -0.43509,0 0,-0.102864 m 1.0844,0.08047 c -0.06311,1e-6 -0.11065,0.03106 -0.14261,0.09318 -0.03156,0.06172 -0.04733,0.154699 -0.04733,0.278942 0,0.12384 0.01577,0.216821 0.04733,0.278942 0.03196,0.06172 0.0795,0.09258 0.14261,0.09258 0.06351,0 0.11104,-0.03086 0.1426,-0.09258 0.03196,-0.06212 0.04794,-0.155102 0.04794,-0.278942 0,-0.124243 -0.01598,-0.217224 -0.04794,-0.278942 -0.03156,-0.06212 -0.07909,-0.09318 -0.1426,-0.09318 m 0,-0.09681 c 0.10153,2e-6 0.179,0.04014 0.2324,0.120412 0.05381,0.07987 0.08072,0.196047 0.08072,0.348527 0,0.152077 -0.02691,0.268253 -0.08072,0.348527 -0.0534,0.07987 -0.13087,0.119806 -0.2324,0.119806 -0.10155,0 -0.17922,-0.03993 -0.23303,-0.119806 -0.0534,-0.08027 -0.0801,-0.19645 -0.0801,-0.348527 0,-0.15248 0.0267,-0.268656 0.0801,-0.348527 0.05381,-0.08027 0.13148,-0.12041 0.23303,-0.120412 m 0.80646,0.419322 c -0.05502,10e-7 -0.09871,0.01876 -0.13108,0.05627 -0.03195,0.03751 -0.04793,0.08895 -0.04793,0.154296 0,0.06494 0.01598,0.116377 0.04793,0.154295 0.03237,0.03751 0.07606,0.05627 0.13108,0.05627 0.05501,0 0.09851,-0.01876 0.13047,-0.05627 0.03235,-0.03792 0.04854,-0.08935 0.04854,-0.154295 0,-0.06535 -0.01619,-0.116781 -0.04854,-0.154296 -0.03196,-0.03751 -0.07546,-0.05627 -0.13047,-0.05627 m 0.24333,-0.383017 0,0.111335 c -0.03074,-0.01452 -0.0619,-0.02561 -0.09345,-0.03328 -0.03114,-0.0077 -0.06209,-0.0115 -0.09284,-0.0115 -0.08091,0 -0.14281,0.02723 -0.18569,0.08169 -0.04248,0.05446 -0.06675,0.136749 -0.07281,0.246873 0.02386,-0.03509 0.05379,-0.06192 0.0898,-0.08048 0.036,-0.01896 0.07566,-0.02844 0.11894,-0.02844 0.09102,1e-6 0.16283,0.02763 0.21542,0.0829 0.053,0.05486 0.07949,0.12969 0.07949,0.224486 0,0.09278 -0.0275,0.167204 -0.08252,0.223275 -0.05502,0.05607 -0.12825,0.08411 -0.21967,0.08411 -0.10478,0 -0.18488,-0.03993 -0.2403,-0.119806 -0.05543,-0.08027 -0.08314,-0.19645 -0.08314,-0.348527 0,-0.142799 0.03399,-0.256554 0.10195,-0.341266 0.06796,-0.08511 0.15918,-0.127671 0.27367,-0.127673 0.03075,2e-6 0.0617,0.003 0.09285,0.0091 0.03155,0.0061 0.06432,0.01513 0.0983,0.02723 m 0.27186,-0.01997 0.48121,0 0,0.102864 -0.36895,0 0,0.22146 c 0.0178,-0.0061 0.03561,-0.01049 0.0534,-0.01331 0.0178,-0.0032 0.03561,-0.0048 0.0534,-0.0048 0.10114,1e-6 0.18124,0.02763 0.2403,0.0829 0.05907,0.05527 0.0886,0.130093 0.0886,0.224486 0,0.09722 -0.03034,0.172851 -0.09102,0.226905 -0.06069,0.05365 -0.14625,0.08048 -0.25669,0.08048 -0.03803,0 -0.07686,-0.0032 -0.11651,-0.0097 -0.03924,-0.0065 -0.07989,-0.01614 -0.12197,-0.02905 l 0,-0.122831 c 0.03641,0.01977 0.07404,0.03449 0.11287,0.04417 0.03883,0.0097 0.0799,0.01452 0.12318,0.01452 0.06999,0 0.12541,-0.01835 0.16627,-0.05506 0.04086,-0.03671 0.06129,-0.08653 0.0613,-0.149455 -10e-6,-0.06293 -0.02044,-0.112747 -0.0613,-0.149455 -0.04086,-0.03671 -0.09628,-0.05506 -0.16627,-0.05506 -0.03276,0 -0.06554,0.0036 -0.0983,0.01089 -0.03237,0.0073 -0.06554,0.01856 -0.09952,0.03388 l 0,-0.453811 m 1.15478,0 0.58255,0 0,0.05204 -0.3289,0.851349 -0.12804,0 0.30948,-0.800522 -0.43509,0 0,-0.102864 m 1.09956,0.402984 c -0.05502,1e-6 -0.09871,0.01876 -0.13107,0.05627 -0.03196,0.03751 -0.04794,0.08895 -0.04794,0.154296 0,0.06494 0.01598,0.116377 0.04794,0.154295 0.03236,0.03751 0.07605,0.05627 0.13107,0.05627 0.05502,0 0.09851,-0.01876 0.13047,-0.05627 0.03236,-0.03792 0.04854,-0.08935 0.04854,-0.154295 0,-0.06535 -0.01618,-0.116781 -0.04854,-0.154296 -0.03196,-0.03751 -0.07545,-0.05627 -0.13047,-0.05627 m 0.24334,-0.383017 0,0.111335 c -0.03075,-0.01452 -0.0619,-0.02561 -0.09345,-0.03328 -0.03115,-0.0077 -0.0621,-0.0115 -0.09285,-0.0115 -0.08091,0 -0.14281,0.02723 -0.18569,0.08169 -0.04248,0.05446 -0.06675,0.136749 -0.07281,0.246873 0.02386,-0.03509 0.0538,-0.06192 0.08981,-0.08048 0.036,-0.01896 0.07565,-0.02844 0.11894,-0.02844 0.09101,10e-7 0.16282,0.02763 0.21541,0.0829 0.053,0.05486 0.07949,0.12969 0.07949,0.224486 0,0.09278 -0.0275,0.167204 -0.08252,0.223275 -0.05502,0.05607 -0.12824,0.08411 -0.21967,0.08411 -0.10477,0 -0.18487,-0.03993 -0.2403,-0.119806 -0.05542,-0.08027 -0.08313,-0.19645 -0.08313,-0.348527 0,-0.142799 0.03398,-0.256554 0.10194,-0.341266 0.06796,-0.08511 0.15919,-0.127671 0.27368,-0.127673 0.03074,2e-6 0.06169,0.003 0.09284,0.0091 0.03156,0.0061 0.06432,0.01513 0.09831,0.02723 m 0.23969,-0.01997 0.58255,0 0,0.05204 -0.3289,0.851349 -0.12803,0 0.30947,-0.800522 -0.43509,0 0,-0.102864 m 0.82589,0.884629 0,-0.111335 c 0.03074,0.01452 0.06189,0.02562 0.09344,0.03328 0.03156,0.0077 0.06251,0.0115 0.09285,0.0115 0.08091,0 0.1426,-0.02703 0.18508,-0.08108 0.04288,-0.05446 0.06735,-0.13695 0.07342,-0.247479 -0.02346,0.03469 -0.05319,0.06132 -0.0892,0.07987 -0.036,0.01856 -0.07585,0.02783 -0.11954,0.02783 -0.09062,0 -0.16243,-0.02723 -0.21542,-0.08169 -0.0526,-0.05486 -0.07889,-0.129688 -0.07889,-0.224485 0,-0.09278 0.02751,-0.167204 0.08252,-0.223275 0.05503,-0.05607 0.12825,-0.08411 0.21968,-0.08411 0.10477,2e-6 0.18467,0.04014 0.23969,0.120412 0.05542,0.07987 0.08313,0.196047 0.08314,0.348527 -10e-6,0.142396 -0.03399,0.256151 -0.10195,0.341266 -0.06756,0.08471 -0.15858,0.127067 -0.27307,0.127067 -0.03074,0 -0.0619,-0.003 -0.09345,-0.0091 -0.03156,-0.0061 -0.06432,-0.01513 -0.0983,-0.02723 m 0.24394,-0.383016 c 0.05501,0 0.09851,-0.01876 0.13046,-0.05627 0.03236,-0.03751 0.04855,-0.08895 0.04855,-0.154296 0,-0.06495 -0.01619,-0.116174 -0.04855,-0.15369 -0.03195,-0.03792 -0.07545,-0.05688 -0.13046,-0.05688 -0.05502,10e-7 -0.09871,0.01896 -0.13108,0.05688 -0.03195,0.03752 -0.04793,0.08874 -0.04793,0.15369 0,0.06535 0.01598,0.116781 0.04793,0.154296 0.03237,0.03751 0.07606,0.05627 0.13108,0.05627 m 0.54735,0.383016 0,-0.111335 c 0.03074,0.01452 0.0619,0.02562 0.09345,0.03328 0.03155,0.0077 0.0625,0.0115 0.09285,0.0115 0.0809,0 0.1426,-0.02703 0.18508,-0.08108 0.04288,-0.05446 0.06735,-0.13695 0.07342,-0.247479 -0.02347,0.03469 -0.0532,0.06132 -0.0892,0.07987 -0.036,0.01856 -0.07586,0.02783 -0.11955,0.02783 -0.09062,0 -0.16242,-0.02723 -0.21542,-0.08169 -0.05259,-0.05486 -0.07888,-0.129688 -0.07888,-0.224485 0,-0.09278 0.0275,-0.167204 0.08252,-0.223275 0.05502,-0.05607 0.12825,-0.08411 0.21967,-0.08411 0.10478,2e-6 0.18468,0.04014 0.2397,0.120412 0.05542,0.07987 0.08313,0.196047 0.08313,0.348527 0,0.142396 -0.03398,0.256151 -0.10194,0.341266 -0.06757,0.08471 -0.15858,0.127067 -0.27308,0.127067 -0.03074,0 -0.06189,-0.003 -0.09345,-0.0091 -0.03155,-0.0061 -0.06432,-0.01513 -0.0983,-0.02723 m 0.24394,-0.383016 c 0.05502,0 0.09851,-0.01876 0.13046,-0.05627 0.03237,-0.03751 0.04855,-0.08895 0.04855,-0.154296 0,-0.06495 -0.01618,-0.116174 -0.04855,-0.15369 -0.03195,-0.03792 -0.07544,-0.05688 -0.13046,-0.05688 -0.05501,10e-7 -0.09871,0.01896 -0.13107,0.05688 -0.03196,0.03752 -0.04794,0.08874 -0.04794,0.15369 0,0.06535 0.01598,0.116781 0.04794,0.154296 0.03236,0.03751 0.07606,0.05627 0.13107,0.05627"
       id="text7050"
       style="font-size:1.58812129px;font-style:normal;font-variant:normal;font-weight:normal;font-stretch:normal;line-height:120.00000477%;writing-mode:lr-tb;text-anchor:start;fill:#000000;fill-opacity:1;stroke:none;font-family:Bitstream Vera Sans" />
    <rect
       width="9.9773989"
       height="11.70446"
       rx="0.31249964"
       ry="0.31249976"
       x="5.0519104"
       y="19.740776"
       id="rect6553"
       style="fill:url(#linearGradient7883);fill-opacity:1;fill-rule:evenodd;stroke:none;stroke-width:1.91310632;marker:none;visibility:visible;display:inline;overflow:visible" />
    <g
       transform="matrix(0.300427,0,0,0.299566,-1.239336,19.26775)"
       id="g6935"
       style="fill:#939393;fill-opacity:1;stroke:none">
      <path
         d="m 50.301157,40.747425 c 1.035639,-2.982476 0.176777,-8.892289 -6.540737,-13.488483 l -12.551146,0 c -6.717514,4.24264 -7.556991,10.044831 -6.010407,13.435028 0,0 25.10229,0.05345 25.10229,0.05345 z"
         id="path2329"
         style="fill:#939393;fill-opacity:1;fill-rule:evenodd;stroke:none;stroke-width:6.3771019;marker:none;visibility:visible;display:inline;overflow:visible" />
      <path
         d="m 39.774755,19.008621 a 8.6620579,8.6620579 0 1 1 -17.324115,0 8.6620579,8.6620579 0 1 1 17.324115,0 z"
         transform="translate(6.407083,1.742408)"
         id="path2327"
         style="fill:#939393;fill-opacity:1;fill-rule:evenodd;stroke:none;stroke-width:6.3771019;marker:none;visibility:visible;display:inline;overflow:visible" />
    </g>
    <rect
       width="32.000011"
       height="22.000008"
       rx="1.7777265"
       ry="1.7777265"
       x="3.500001"
       y="17.499992"
       id="rect6555"
       style="fill:none;stroke:#ffffff;stroke-width:1.91310632;stroke-linecap:butt;stroke-linejoin:miter;stroke-miterlimit:4;stroke-opacity:1;stroke-dasharray:none;stroke-dashoffset:0;marker:none;visibility:visible;display:inline;overflow:visible" />
  </g>
  <rect
     width="19.010012"
     height="12.989197"
     rx="0.9554745"
     ry="0.9554745"
     x="0.49499393"
     y="4.4949956"
     id="rect2373"
     style="fill:url(#linearGradient2918);fill-opacity:1;fill-rule:evenodd;stroke:#939393;stroke-width:0.98998767;stroke-linecap:butt;stroke-linejoin:miter;stroke-miterlimit:4;stroke-opacity:1;stroke-dasharray:none;stroke-dashoffset:0;marker:none;visibility:visible;display:inline;overflow:visible" />
  <path
     d="M 9.573176,7.5087174 C 9.590116,7.7680994 9.459654,8.110498 9.152277,8.098906 8.958476,8.135 9.00126,7.9554092 8.999999,7.8327116 c 0.01424,-0.046426 0.295053,0.099821 0.30707,-0.1145656 0.05248,-0.2799917 0.01703,-0.5689122 0.02743,-0.8530236 0.01861,-0.077288 -0.03848,-0.2302757 0.03074,-0.2569546 0.07626,0.018668 0.244681,-0.054816 0.207937,0.076861 0,0.274563 0,0.549126 0,0.823689 z m 0.666423,-0.520996 c 0.327668,-0.014597 0.482629,0.3578734 0.433525,0.636919 0.0068,0.3228281 -0.345852,0.5791316 -0.644403,0.4353456 C 9.704875,7.8929322 9.691675,7.4076643 9.892273,7.1413744 9.975553,7.0377977 10.108341,6.9850262 10.239599,6.9877214 z m -0.01968,0.890375 c 0.304692,-0.030483 0.316983,-0.5638347 0.05202,-0.661867 -0.36198,-0.062264 -0.396644,0.6507089 -0.05203,0.661867 z M 11.67338,8.067362 c -0.07409,-0.02283 -0.249813,0.05597 -0.229273,-0.06149 -0.0078,-0.2265064 0.01884,-0.4563068 -0.02069,-0.6799369 -0.133462,-0.2597947 -0.394183,0.039327 -0.322354,0.2393985 0,0.1673424 0,0.3346849 0,0.5020274 -0.06841,-0.02424 -0.238002,0.0527 -0.231836,-0.04612 0,-0.4988398 0,-0.9976796 0,-1.4965193 0.06841,0.024237 0.238002,-0.052701 0.231836,0.046116 0,0.2000137 0,0.4000275 0,0.6000412 0.09467,-0.2631603 0.52995,-0.2338573 0.554136,0.057239 0.03479,0.2770226 0.01132,0.5601297 0.01819,0.8392391 z m 1.050542,0 c -0.07409,-0.02283 -0.249812,0.05597 -0.229272,-0.06149 -0.0078,-0.2265063 0.01885,-0.4563082 -0.02069,-0.6799369 -0.133464,-0.2597948 -0.394189,0.039325 -0.322359,0.2393985 0,0.1673424 0,0.3346849 0,0.5020274 -0.06841,-0.02424 -0.238002,0.0527 -0.231836,-0.04612 0,-0.3319583 0,-0.6639165 0,-0.9958747 0.06841,0.024238 0.238002,-0.052701 0.231836,0.046116 -0.03571,0.2312441 0.209359,-0.2396496 0.380638,-0.06874 0.240483,0.1084785 0.183823,0.4097303 0.191684,0.6275647 0,0.1456834 0,0.2913669 0,0.43705 z m 0.750256,-1.4591942 c 0.287395,0.017381 0.614129,-0.064527 0.855192,0.136339 0.241518,0.2432184 0.239005,0.6444255 0.129069,0.9487409 -0.101991,0.2707825 -0.399103,0.4051683 -0.675276,0.3741143 -0.102995,0 -0.20599,0 -0.308985,0 0,-0.4863978 0,-0.972796 0,-1.4591942 z m 0.238677,1.2343116 c 0.191729,0.012265 0.423493,-0.0084 0.509764,-0.2123525 0.125197,-0.2621459 0.08546,-0.7123857 -0.25456,-0.7799037 -0.08731,0.013084 -0.301155,-0.074906 -0.255204,0.084219 0,0.3026791 0,0.6053583 0,0.9080374 z m 1.42695,-0.854758 c 0.327666,-0.014597 0.482632,0.3578735 0.433529,0.636919 0.0068,0.3228301 -0.345854,0.5791316 -0.644405,0.4353456 -0.323851,-0.1670528 -0.337044,-0.6523186 -0.136452,-0.9186116 0.08327,-0.1035815 0.216071,-0.1563463 0.347328,-0.153653 z m -0.01968,0.890375 c 0.304693,-0.030481 0.316984,-0.5638342 0.05202,-0.661867 -0.361983,-0.062264 -0.396638,0.6507079 -0.05202,0.661867 z m 1.402995,-0.271693 c -0.194481,0 -0.388962,0 -0.583443,0 -0.0552,0.3638961 0.428733,0.2312211 0.50132,0.2231744 0.0509,0.1786152 -0.08967,0.2676342 -0.26143,0.2619212 -0.326493,0.04945 -0.51851,-0.3067037 -0.470681,-0.5912713 -0.01895,-0.3067557 0.287558,-0.6268862 0.59737,-0.4819783 0.217779,0.1086926 0.22174,0.3767488 0.216872,0.588154 z m -0.213867,-0.183162 c 0.06051,-0.3207056 -0.437363,-0.2580341 -0.354198,0 0.118065,0 0.236131,0 0.354196,0 z"
     id="path2375"
     style="font-size:4.12102222px;font-style:normal;font-variant:normal;font-weight:bold;font-stretch:normal;text-align:start;line-height:120.00000477%;writing-mode:lr-tb;text-anchor:start;fill:#000000;fill-opacity:1;stroke:none;display:inline;font-family:Segoe" />
  <rect
     width="7.499999"
     height="1.0494535"
     rx="0.49999997"
     ry="0.52472675"
     x="8.999999"
     y="9.148365"
     id="rect2377"
     style="opacity:0.3976608;fill:#8d8d8d;fill-opacity:1;fill-rule:evenodd;stroke:none;stroke-width:1;marker:none;visibility:visible;display:inline;overflow:visible" />
  <rect
     width="5.9999995"
     height="1.0494535"
     rx="0.49999997"
     ry="0.52472675"
     x="8.999999"
     y="10.722544"
     id="rect2379"
     style="opacity:0.3976608;fill:#8d8d8d;fill-opacity:1;fill-rule:evenodd;stroke:none;stroke-width:1;marker:none;visibility:visible;display:inline;overflow:visible" />
  <path
     d="M 2,13.875 2,16 l 0.5,0 0,-2.125 -0.5,0 z m 1,0 0,1.03125 1,0 0,-1.03125 -1,0 z m 1.5,0 0,1.03125 0.5,0 0,-1.03125 -0.5,0 z m 1,0 0,1.03125 1,0 0,-1.03125 -1,0 z m 2,0 0,1.03125 0.5,0 0,-1.03125 -0.5,0 z m 1,0 0,1.03125 1,0 0,-1.03125 -1,0 z m 1.5,0 0,1.03125 1,0 0,-1.03125 -1,0 z"
     id="rect2383"
     style="opacity:0.48538011;fill:#000000;fill-opacity:1;fill-rule:evenodd;stroke:none;stroke-width:1;marker:none;visibility:visible;display:inline;overflow:visible" />
  <rect
     width="6"
     height="7"
     rx="0.1879245"
     ry="0.18689443"
     x="2"
     y="6.0000019"
     id="rect2415"
     style="fill:url(#linearGradient2905);fill-opacity:1;fill-rule:evenodd;stroke:none;stroke-width:1;marker:none;visibility:visible;display:inline;overflow:visible" />
  <path
     d="M 4.875,7.78125 C 3.8870611,7.793019 3.080052,8.859894 3.4154196,9.806677 c 0.017081,0.268718 0.4174298,0.608587 0.4479609,0.724573 -0.1722069,0.02911 -0.306249,0.185322 -0.4511408,0.280441 -0.5465131,0.430888 -0.9751065,1.121725 -0.8550737,1.839996 0.037643,0.13003 0.038179,0.371169 0.2276924,0.317063 1.5300472,0 3.0600944,0 4.5901416,0 C 7.5889424,12.308501 7.2812244,11.590921 6.8329971,11.102488 6.6295102,10.884377 6.3989205,10.677674 6.1419602,10.53125 5.8980366,10.567057 6.224519,10.402258 6.2603926,10.309569 6.971785,9.545478 6.5651174,8.193913 5.5882976,7.8835708 5.3616343,7.798463 5.1163878,7.7635579 4.875,7.78125 z"
     id="path2419"
     style="fill:#939393;fill-opacity:1;fill-rule:evenodd;stroke:none;stroke-width:5.84023809;marker:none;visibility:visible;display:inline;overflow:visible" />
  <rect
     width="17.001713"
     height="10.948627"
     rx="0.14346921"
     ry="0.14346921"
     x="1.4788659"
     y="5.5054727"
     id="rect2423"
     style="fill:none;stroke:#ffffff;stroke-width:0.98998767;stroke-linecap:butt;stroke-linejoin:miter;stroke-miterlimit:4;stroke-opacity:1;stroke-dasharray:none;stroke-dashoffset:0;marker:none;visibility:visible;display:inline;overflow:visible" />
  <g
     transform="translate(1.389377,-23.361317)"
     id="g7443"
     style="display:inline">
    <path
       d="m 13.100088,37.861326 0,-3 4,0 0,3 3,0 0,4 -3,0 0,2.999991 -4,0 0,-2.999991 -2.989465,0 0,-4 2.989465,0 z"
       id="path5596"
       style="fill:url(#linearGradient7447);fill-opacity:1;fill-rule:evenodd;stroke:#699536;stroke-width:1;stroke-linecap:butt;stroke-linejoin:round;stroke-miterlimit:4;stroke-opacity:1;stroke-dasharray:none;display:inline" />
    <path
       d="m 14.100088,38.861326 0,-3 2,0 0,3 3,0 0,2 -3,0 0,3 -2,0 0,-3 -3,0 0,-2 3,0 z"
       id="path5598"
       style="opacity:0.4;fill:none;stroke:url(#linearGradient7449);stroke-width:1;stroke-linecap:butt;stroke-linejoin:miter;stroke-miterlimit:4;stroke-opacity:1;stroke-dasharray:none;display:inline" />
  </g>
</svg>
