<?xml version="1.0" encoding="UTF-8" standalone="no"?>
<!-- Created with Inkscape (http://www.inkscape.org/) -->
<svg
   xmlns:svg="http://www.w3.org/2000/svg"
   xmlns="http://www.w3.org/2000/svg"
   xmlns:xlink="http://www.w3.org/1999/xlink"
   version="1.0"
   width="16"
   height="16"
   id="svg2485">
  <defs
     id="defs2487">
    <linearGradient
       id="linearGradient3707-319-631">
      <stop
         id="stop4637"
         style="stop-color:#254b6d;stop-opacity:1"
         offset="0" />
      <stop
         id="stop4639"
         style="stop-color:#415b73;stop-opacity:1"
         offset="0.5" />
      <stop
         id="stop4641"
         style="stop-color:#6195b5;stop-opacity:1"
         offset="1" />
    </linearGradient>
    <linearGradient
       x1="20"
       y1="43"
       x2="20"
       y2="2.6887112"
       id="linearGradient2483"
       xlink:href="#linearGradient3707-319-631"
       gradientUnits="userSpaceOnUse"
       gradientTransform="matrix(0.3769285,0,0,0.3769199,-1.196178,-0.8960149)" />
    <linearGradient
       id="linearGradient2867-449-88-871-390-598-476-591-434-148">
      <stop
         id="stop4627"
         style="stop-color:#51cfee;stop-opacity:1"
         offset="0" />
      <stop
         id="stop4629"
         style="stop-color:#49a3d2;stop-opacity:1"
         offset="0.26238" />
      <stop
         id="stop4631"
         style="stop-color:#3470b4;stop-opacity:1"
         offset="0.704952" />
      <stop
         id="stop4633"
         style="stop-color:#273567;stop-opacity:1"
         offset="1" />
    </linearGradient>
    <radialGradient
       cx="61.240059"
       cy="-8.7256308"
       r="9.7552834"
       fx="61.240059"
       fy="-8.7256308"
       id="radialGradient2481"
       xlink:href="#linearGradient2867-449-88-871-390-598-476-591-434-148"
       gradientUnits="userSpaceOnUse"
       gradientTransform="matrix(0,1.3551574,-1.3551567,0,-3.824604,-80.384092)" />
    <linearGradient
       id="linearGradient4873">
      <stop
         id="stop4875"
         style="stop-color:#ffffff;stop-opacity:1"
         offset="0" />
      <stop
         id="stop4877"
         style="stop-color:#ffffff;stop-opacity:0"
         offset="1" />
    </linearGradient>
    <linearGradient
       x1="63.397362"
       y1="-12.489107"
       x2="63.397362"
       y2="5.4675598"
       id="linearGradient2464"
       xlink:href="#linearGradient4873"
       gradientUnits="userSpaceOnUse"
       gradientTransform="matrix(0.7432394,0,0,0.7432224,-38.229789,10.609333)" />
  </defs>
  <g
     id="layer1">
    <path
       d="M 15.5,7.999735 C 15.5,12.142003 12.141888,15.5 8.000094,15.5 C 3.857922,15.5 0.5,12.141965 0.5,7.999735 C 0.5,3.8576552 3.857922,0.4999997 8.000094,0.4999997 C 12.141888,0.4999997 15.5,3.8576552 15.5,7.999735 L 15.5,7.999735 z"
       id="path6495"
       style="fill:url(#radialGradient2481);fill-opacity:1;fill-rule:nonzero;stroke:url(#linearGradient2483);stroke-width:0.99999994;stroke-miterlimit:4;stroke-dasharray:none" />
    <path
       d="M 8.1022062,0.95621712 L 7.236144,1.0568701 L 6.2834735,1.3210847 C 6.3646244,1.2921995 6.446834,1.2606694 6.5309208,1.2330132 L 6.4195696,1.0317069 L 6.048401,1.0946151 L 5.8628152,1.2707582 L 5.5782512,1.3085031 L 5.318433,1.4343196 L 5.1947098,1.4972277 L 5.157592,1.5475543 L 4.9720082,1.5852992 L 4.8606579,1.8243504 L 4.712189,1.522391 L 4.6626994,1.6482076 L 4.6874462,1.9879118 L 4.4523728,2.1892181 L 4.3162766,2.5540857 L 4.6008407,2.5540857 L 4.712191,2.3150345 L 4.7493088,2.2269631 C 4.8744282,2.136984 4.9930427,2.0367771 5.1204782,1.9501669 L 5.4174142,2.05082 C 5.6107409,2.1843878 5.8054259,2.3200676 5.9989133,2.4534326 L 6.2834735,2.1892181 L 5.9617936,2.05082 L 5.8133266,1.7488605 L 5.2689442,1.6859524 L 5.2565714,1.6230443 L 5.4916438,1.6733709 L 5.6277409,1.5349726 L 5.9246759,1.4720643 C 5.9949454,1.4373108 6.06407,1.4122795 6.1350055,1.3839929 L 5.9494207,1.560136 L 6.6175262,2.0256568 L 6.6175262,2.302453 L 6.357707,2.5666673 L 6.7041325,3.2712399 L 6.9392071,3.1328408 L 7.2361431,2.6673207 C 7.6536127,2.5360677 8.0298636,2.383337 8.423888,2.2017997 L 8.3991411,2.3779426 L 8.5970969,2.5163408 L 8.9435226,2.2772895 L 8.7703107,2.0759833 L 8.5352353,2.2143814 L 8.4610018,2.1892185 C 8.4780536,2.1812953 8.4933662,2.1721092 8.5104914,2.1640557 L 8.8569181,1.2581766 L 8.1022062,0.95621712 z M 4.712189,2.3150345 L 4.9967521,2.5163408 L 5.2318265,2.5163408 L 5.2318265,2.2772895 L 4.9472634,2.1514733 L 4.712189,2.3150345 L 4.712189,2.3150345 z M 11.281895,2.1514733 L 10.774628,2.2772895 L 10.452951,2.4911776 L 10.452951,2.6799019 L 9.9456829,3.0070243 L 10.044661,3.4977095 L 10.341597,3.2838208 L 10.527183,3.4977095 L 10.737514,3.6235259 L 10.873608,3.2586575 L 10.799375,3.0447699 L 10.873608,2.8937896 L 11.170544,2.6169941 L 11.30664,2.6169941 L 11.170544,2.9189543 L 11.170544,3.1957496 C 11.292932,3.1618717 11.416467,3.1486778 11.541713,3.1328408 L 11.195288,3.3844746 L 11.170543,3.5354537 L 10.774628,3.8751588 L 10.366341,3.7745049 L 10.366341,3.5354537 L 10.180756,3.6612703 L 10.267364,3.8751588 L 9.9704267,3.8751588 L 9.8095868,4.1519548 L 9.61163,4.3784244 L 9.2528324,4.4539139 L 9.463162,4.6678019 L 9.5126507,4.88169 L 9.2528324,4.88169 L 8.9064068,5.0704143 L 8.9064068,5.6240059 L 9.0672458,5.6240059 L 9.2157146,5.7875676 L 9.5497684,5.6240059 L 9.6734907,5.2843013 L 9.920937,5.1333218 L 9.9704267,5.0075057 L 10.366341,4.9068526 L 10.589042,5.1584854 L 10.824117,5.2843013 L 10.688021,5.5610979 L 10.898351,5.49819 L 11.009701,5.2213934 L 10.737512,4.9068526 L 10.848862,4.9068526 L 11.121054,5.1333218 L 11.170543,5.4352821 L 11.405615,5.7120781 L 11.467479,5.3094657 L 11.591202,5.2465566 C 11.722897,5.3855865 11.826706,5.5556097 11.937626,5.7120781 L 12.345913,5.7372433 L 12.580987,5.8882234 L 12.469637,6.0517841 L 12.234564,6.2656727 L 11.888135,6.2656727 L 11.430361,6.1146942 L 11.195287,6.1398593 L 11.022074,6.3411657 L 10.527181,5.8378996 L 10.180756,5.7372462 L 9.6734907,5.8001547 L 9.2280866,5.9259711 C 8.974001,6.2188978 8.7138634,6.5150518 8.4733747,6.8192683 L 8.1888107,7.5238405 L 8.3249076,7.6748196 L 8.0774604,8.0396877 L 8.3496515,8.6813514 C 8.5761437,8.9418962 8.8039678,9.2006825 9.030129,9.461412 L 9.3641827,9.1720348 L 9.5002778,9.3481795 L 9.8590764,9.1091277 L 9.9827973,9.2475248 L 10.341595,9.2475248 L 10.551927,9.4865757 L 10.428203,9.914352 L 10.675649,10.203731 L 10.663275,10.706995 L 10.848861,11.071864 L 10.712766,11.386405 C 10.699498,11.611997 10.68802,11.827605 10.68802,12.053231 C 10.79718,12.358902 10.906621,12.663823 11.0097,12.971693 L 11.083934,13.462375 L 11.083934,13.714009 L 11.281891,13.714009 L 11.566453,13.525283 L 11.91288,13.525283 L 12.432517,12.933947 L 12.370656,12.732639 L 12.717083,12.418101 L 12.457262,12.128722 L 12.76657,11.877089 L 13.063506,11.688364 L 13.199602,11.537384 L 13.112995,11.19768 C 13.112995,10.911684 13.112996,10.628161 13.112995,10.342127 L 13.348069,9.8136993 L 13.645006,9.4865757 L 13.966685,8.6813514 L 13.966685,8.467463 C 13.806607,8.4879689 13.653171,8.506459 13.496537,8.5177905 L 13.818218,8.1906678 L 14.263621,7.8887078 L 14.498696,7.6119125 L 14.498696,7.3099534 C 14.445379,7.2077028 14.391536,7.0976601 14.337854,6.9954116 L 14.127525,7.2470431 L 13.966685,7.0583197 L 13.731609,6.8695964 L 13.731609,6.4795648 L 14.003802,6.7941047 L 14.313111,6.75636 C 14.452648,6.8851798 14.586636,6.9997236 14.709024,7.1463926 L 14.906986,6.9199159 C 14.906986,6.6761022 14.63695,5.4724677 14.053296,4.4539139 C 13.46964,3.4356954 12.444894,2.5037591 12.444895,2.5037591 L 12.370661,2.6421572 L 12.098469,2.9441167 L 11.752043,2.579249 L 12.098469,2.579249 L 12.259308,2.4031061 L 11.615949,2.2772895 L 11.281895,2.1514733 z M 3.8461259,2.3150345 L 3.7224027,2.6421572 C 3.7224027,2.6421572 3.5057941,2.6785236 3.4502116,2.6924839 C 2.7403769,3.3576613 1.3089548,4.8004591 0.97574709,7.5112538 C 0.98894063,7.5741032 1.2108206,7.9390292 1.2108206,7.9390292 L 1.7552039,8.2661509 L 2.2995852,8.417131 L 2.5346596,8.7065091 L 2.8934573,8.9833054 L 3.1037868,8.9455608 L 3.2522558,9.0210508 L 3.2522558,9.0713763 L 3.0542972,9.6375498 L 2.8934573,9.8766016 L 2.942946,9.9898366 L 2.8192238,10.442776 L 3.2769996,11.298327 L 3.7471476,11.713522 L 3.957476,12.015482 L 3.9327303,12.644563 L 4.0811982,12.99685 L 3.9327303,13.67626 C 3.9327303,13.67626 3.9129189,13.670673 3.9327303,13.739167 C 3.9527179,13.807695 4.759781,14.268689 4.8111654,14.22985 C 4.8623746,14.190288 4.9101447,14.154361 4.9101447,14.154361 L 4.860656,14.00338 L 5.0709847,13.802075 L 5.1452191,13.588188 L 5.4792709,13.474953 L 5.7390901,12.820706 L 5.6648567,12.644563 L 5.8380694,12.367767 L 6.2339838,12.279695 L 6.4319415,11.801593 L 6.3824509,11.210255 L 6.6917597,10.769898 L 6.7412484,10.316959 C 6.3168632,10.102948 5.9004921,9.8830534 5.4792709,9.6627135 L 5.2689423,9.2475198 L 4.8853999,9.1594491 L 4.6750703,8.5932746 L 4.1678047,8.6561827 L 3.7224017,8.32906 L 3.2522529,8.7442535 L 3.2522529,8.8071626 C 3.1114329,8.7658292 2.9446126,8.7597462 2.8192238,8.6813464 L 2.7202454,8.3793874 L 2.7202454,8.0522637 L 2.3985655,8.0900083 C 2.4244522,7.8816386 2.4591052,7.6692598 2.485171,7.4609265 L 2.2995852,7.4609265 L 2.1140005,7.6999783 L 1.9407887,7.7880501 L 1.6809694,7.6370692 L 1.6562245,7.3099456 L 1.7057143,6.9576606 L 2.0892557,6.6557005 L 2.3985645,6.6557005 L 2.4604271,6.4795582 L 2.8439686,6.5676288 L 3.1285316,6.932497 L 3.1780203,6.3285781 L 3.672914,5.9133853 L 3.8461259,5.4730269 L 4.2172963,5.3220476 L 4.415253,5.0200879 L 4.8854018,4.9320161 L 5.1204763,4.57973 C 4.8878,4.57973 4.6479303,4.57973 4.415253,4.57973 L 4.8606579,4.3658421 L 5.1699649,4.3658421 L 5.5658793,4.2274443 L 5.6401139,4.6174752 L 5.8133266,4.3406788 L 5.615369,4.2022808 L 5.6648596,4.0387201 L 5.5040187,3.8877395 L 5.3308048,3.8374132 L 5.3802955,3.6486888 L 5.2441994,3.3844746 L 4.9348905,3.5102908 L 4.9843801,3.2712399 L 4.6255827,3.0573516 L 4.3410204,3.5606172 L 4.3657663,3.7367603 L 4.0812032,3.8625768 L 3.9079904,4.2526078 L 3.821384,3.8877395 L 3.3388631,3.6864335 L 3.2522568,3.4096375 L 3.9079904,3.0321885 L 4.1925535,2.755392 L 4.2173002,2.4282694 L 4.0564593,2.3401977 L 3.8461298,2.315035 L 3.8461259,2.3150345 z M 9.1538541,2.9189543 L 9.1538541,3.1202592 L 9.2652062,3.246076 L 9.2652062,3.5480356 L 9.2033438,3.9506479 L 9.5250246,3.8877395 L 9.760098,3.6486888 L 9.5497694,3.4473819 C 9.4815603,3.2626763 9.4124355,3.0961113 9.3270669,2.9189543 L 9.1538541,2.9189543 z M 8.881662,3.3215656 L 8.6837063,3.3844746 L 8.7331959,3.7493421 L 8.9930152,3.6109428 L 8.881662,3.3215656 L 8.881662,3.3215656 z M 12.506754,6.6305386 L 12.803691,6.9828228 L 13.162489,7.7628866 L 13.385189,8.0145183 L 13.273839,8.2787347 L 13.471797,8.5177846 C 13.380952,8.5238987 13.292977,8.5303684 13.199605,8.5303684 C 13.029984,8.1679096 12.895741,7.802374 12.766575,7.4231829 L 12.543871,7.1715503 L 12.420149,6.7186111 L 12.506754,6.6305399 L 12.506754,6.6305386 z"
       id="path6534"
       style="opacity:0.4;fill:#000000;fill-opacity:1;fill-rule:nonzero;stroke:none" />
    <path
       d="M 14.500001,7.9997709 C 14.500001,11.589737 11.589636,14.5 8.0000818,14.5 C 4.4101984,14.5 1.5000001,11.589705 1.5000001,7.9997709 C 1.5000001,4.4099703 4.4101984,1.5000014 8.0000818,1.5000014 C 11.589636,1.5000014 14.500001,4.4099703 14.500001,7.9997709 L 14.500001,7.9997709 z"
       id="path2451"
       style="opacity:0.4;fill:none;fill-opacity:1;fill-rule:nonzero;stroke:url(#linearGradient2464);stroke-width:1;stroke-miterlimit:4;stroke-dasharray:none;stroke-opacity:1" />
  </g>
</svg>
