<svg xmlns="http://www.w3.org/2000/svg" height="40" viewBox="0 0 135 40" width="135"><path d="M130.2 40H4.73A4.74 4.74 0 0 1 0 35.267V4.727A4.733 4.733 0 0 1 4.73 0H130.2c2.6 0 4.8 2.12 4.8 4.726v30.54c0 2.606-2.2 4.734-4.8 4.734z"/><path fill="#fff" d="M28.234 6.217c-1.265.056-2.846.874-3.757 1.943-.806.942-1.526 2.488-1.34 3.94 1.42.106 2.88-.717 3.79-1.793.875-1.093 1.473-2.58 1.307-4.09zm41.807.34v6.877h1.048V6.557H70.04zm17.16 0v2.705h-.02c-.252-.427-.695-.64-1.328-.64-.576 0-1.06.22-1.456.66-.408.47-.61 1.09-.61 1.853 0 .71.187 1.29.562 1.736s.848.67 1.416.67c.71 0 1.216-.288 1.513-.864h.03l.048.758h.93a19.923 19.923 0 0 1-.037-1.272V6.557h-1.05zm24.19 0v6.875h1.05v-2.834c0-.148.02-.274.05-.377.18-.49.51-.736 1-.736.63 0 .95.425.95 1.27v2.68h1.04V10.63c0-.697-.17-1.226-.53-1.58-.28-.286-.64-.43-1.08-.43-.61 0-1.08.26-1.41.777h-.02v-2.84h-1.05zm-65.91.29c-.648 0-1.247.045-1.804.135v6.43c.427.052.937.078 1.533.078 1.2 0 2.13-.273 2.782-.822.705-.595 1.06-1.48 1.06-2.658 0-1.048-.33-1.853-.982-2.416-.582-.498-1.445-.748-2.59-.748zm63.3.698l-1.03.31v.864h-.69v.784h.69v2.377c0 .596.12 1.02.35 1.272.24.252.56.377.97.377.34 0 .61-.04.82-.118l-.03-.795c-.12.033-.28.05-.47.05-.4 0-.61-.29-.61-.872v-2.29h1.16v-.786h-1.16V7.544zm-63.212.127c.777 0 1.368.202 1.772.61.404.407.605.992.605 1.755 0 .854-.22 1.505-.656 1.95s-1.056.67-1.858.67a5.63 5.63 0 0 1-.707-.028V7.737c.233-.046.513-.066.843-.066zm73.682.94c-.7 0-1.25.253-1.65.757-.39.47-.58 1.064-.58 1.775 0 .724.2 1.302.62 1.732s.99.644 1.72.644c.61 0 1.14-.096 1.58-.29l-.16-.728c-.38.15-.81.223-1.27.223-.42 0-.76-.11-1.03-.33-.29-.246-.44-.6-.45-1.067h3.14c.02-.13.04-.286.04-.474 0-.588-.14-1.085-.42-1.485-.35-.505-.87-.757-1.54-.757zm-52.69.007c-.35 0-.67.09-.953.265-.24.15-.42.34-.543.568h-.03l-.048-.736h-.92c.025.486.038.935.038 1.35v3.365h1.048v-2.795c0-.31.098-.58.29-.81a.944.944 0 0 1 .757-.343c.633 0 .95.416.95 1.248v2.702h1.047V10.61c0-.693-.18-1.214-.543-1.563-.29-.285-.655-.428-1.095-.428zm34.68 0c-.34 0-.66.09-.95.265-.24.15-.417.34-.54.568h-.03l-.048-.736h-.92c.025.486.037.935.037 1.35v3.365h1.048v-2.795c0-.31.097-.58.292-.81.19-.228.44-.343.75-.343.64 0 .96.416.96 1.248v2.702h1.04V10.61c0-.693-.18-1.214-.54-1.563-.29-.285-.66-.428-1.1-.428zm-48.6.003c-.72 0-1.288.232-1.712.697s-.635 1.065-.635 1.795c0 .698.203 1.278.613 1.737.41.46.963.687 1.655.687.72 0 1.293-.24 1.727-.718.414-.466.62-1.06.62-1.785 0-.704-.198-1.28-.598-1.726-.422-.458-.98-.687-1.67-.687zm22.346 0c-.717 0-1.287.232-1.71.697s-.635 1.065-.635 1.795c0 .698.206 1.278.616 1.737.41.46.96.687 1.654.687.717 0 1.293-.24 1.727-.718.414-.466.62-1.06.62-1.785 0-.704-.2-1.28-.6-1.726-.423-.458-.978-.687-1.67-.687zm5.426 0c-.638 0-1.18.135-1.617.406l.213.69a2.19 2.19 0 0 1 1.228-.35c.653 0 .98.31.98.93v.09c-.872-.008-1.55.14-2.032.444-.483.304-.723.742-.723 1.318 0 .38.122.703.368.96.27.285.63.427 1.076.427.596 0 1.055-.216 1.377-.65h.03l.08.544h.94a7.377 7.377 0 0 1-.068-1.125V10.57c0-1.3-.618-1.95-1.85-1.95zm14.567 0c-.72 0-1.29.232-1.714.697s-.635 1.065-.635 1.795c0 .698.206 1.278.616 1.737.412.46.963.687 1.654.687.72 0 1.293-.24 1.727-.718.414-.466.62-1.06.62-1.785 0-.704-.2-1.28-.6-1.726-.42-.458-.977-.687-1.668-.687zm-39.044.096l1.386 4.714h.97l.65-2.047a11.17 11.17 0 0 0 .378-1.524h.02c.098.504.224 1.013.38 1.524l.61 2.047h.96l1.476-4.713h-1.03l-.572 2.202c-.142.55-.25 1.068-.32 1.553h-.03a18.41 18.41 0 0 0-.376-1.553l-.64-2.2h-.857l-.667 2.25c-.182.606-.31 1.107-.388 1.5h-.02a24.65 24.65 0 0 0-.32-1.51l-.533-2.243h-1.076zm63.234.62c.37 0 .65.146.83.437.15.226.22.494.21.805h-2.18a1.5 1.5 0 0 1 .31-.814.987.987 0 0 1 .83-.428zm-66.568.05c.407 0 .72.185.94.56.186.312.28.685.28 1.12s-.097.812-.29 1.13c-.227.382-.54.573-.94.573-.408 0-.724-.188-.95-.564-.188-.312-.283-.685-.283-1.12 0-.448.093-.828.28-1.14.22-.375.54-.56.962-.56zm22.347 0c.405 0 .72.185.94.56.186.312.28.685.28 1.12s-.096.812-.29 1.13c-.227.382-.54.573-.94.573-.41 0-.725-.188-.952-.564-.187-.312-.28-.685-.28-1.12 0-.448.092-.828.28-1.14.22-.375.54-.56.96-.56zm19.99 0c.407 0 .72.185.94.56.188.312.282.685.282 1.12s-.098.812-.29 1.13c-.227.382-.542.573-.942.573-.408 0-.724-.188-.95-.564-.188-.312-.283-.685-.283-1.12 0-.448.094-.828.282-1.14.22-.375.54-.56.96-.56zm-8.85.048c.27 0 .506.084.7.255a1.192 1.192 0 0 1 .41.965v.787c0 .336-.1.625-.302.864-.21.258-.484.385-.828.385a1.08 1.08 0 0 1-.916-.465c-.215-.29-.322-.668-.322-1.134 0-.485.113-.883.336-1.194.225-.31.53-.464.922-.464zm-4.848 1.648v.726a.896.896 0 0 1-.38.743c-.197.145-.41.218-.64.218-.206 0-.378-.06-.513-.183s-.202-.31-.202-.555c0-.653.578-.97 1.734-.95zM27.48 12.383c-1.696.126-3.267 1.185-4.144 1.185-1.022 0-2.566-1.157-4.23-1.123-2.14.033-4.14 1.274-5.24 3.198-2.265 3.923-.574 9.688 1.597 12.86 1.086 1.552 2.355 3.285 4.016 3.224 1.624-.067 2.23-1.036 4.192-1.036 1.943 0 2.513 1.036 4.207.998 1.743-.028 2.842-1.56 3.89-3.127 1.255-1.78 1.76-3.532 1.78-3.622-.042-.014-3.388-1.292-3.42-5.155-.03-3.223 2.637-4.79 2.76-4.863-1.512-2.203-3.854-2.503-4.677-2.527a4.083 4.083 0 0 0-.733-.01zm57.026 5.62c-1.358 0-2.444.347-3.258 1.046-.817.697-1.225 1.594-1.225 2.688 0 1.674 1.165 2.948 3.495 3.817.856.317 1.47.658 1.836 1.027.37.37.552.825.552 1.365 0 .606-.223 1.09-.67 1.453-.45.362-1.074.545-1.877.545a5.843 5.843 0 0 1-3.083-.85l-.494 1.776c.87.554 2.017.83 3.45.83 1.55 0 2.757-.388 3.624-1.165.79-.71 1.182-1.632 1.182-2.764 0-.92-.27-1.69-.81-2.305-.54-.618-1.382-1.156-2.527-1.617-.936-.37-1.58-.712-1.935-1.028a1.626 1.626 0 0 1-.612-1.302c0-.475.178-.876.533-1.206.42-.368 1.005-.552 1.755-.552.95 0 1.797.203 2.547.61l.533-1.737c-.803-.42-1.808-.63-3.02-.63zm-37.813.192l-4.283 13.31h2.21l1.187-3.91h4.324l1.243 3.91h2.272l-4.305-13.31h-2.647zm46.045 1.323l-2.093.63v1.758h-1.4v1.6h1.4v4.838c0 1.21.237 2.072.71 2.586.475.513 1.133.77 1.975.77.685 0 1.238-.078 1.658-.235l-.058-1.62a3.81 3.81 0 0 1-.948.098c-.83 0-1.244-.59-1.244-1.775v-4.66h2.35v-1.602h-2.35v-2.388zm-44.818.455h.04c.328 1.316.552 2.152.67 2.507l1.126 3.475h-3.574l1.105-3.475c.29-1.105.502-1.94.633-2.507zm70.25 1.72c-1.41 0-2.53.513-3.36 1.54-.79.96-1.18 2.166-1.18 3.613 0 1.474.42 2.648 1.27 3.523s2.02 1.312 3.51 1.312c1.23 0 2.31-.196 3.21-.592l-.33-1.48c-.78.302-1.64.452-2.59.452-.85 0-1.55-.222-2.09-.67-.59-.5-.9-1.225-.93-2.173h6.4c.05-.264.08-.586.08-.968 0-1.197-.29-2.205-.85-3.02-.71-1.026-1.76-1.54-3.14-1.54zm-57.477.018c-1.448 0-2.527.574-3.238 1.72h-.04l-.118-1.522h-1.875a65.67 65.67 0 0 1 .078 3.158v10.348h2.133V30.36h.04c.552.907 1.46 1.36 2.723 1.36 1.17 0 2.154-.42 2.944-1.263.882-.947 1.322-2.237 1.322-3.87 0-1.46-.38-2.638-1.137-3.534-.756-.895-1.7-1.342-2.832-1.342zm11.037 0c-1.45 0-2.528.574-3.238 1.72h-.04l-.118-1.522H66.46a65.67 65.67 0 0 1 .077 3.158v10.348h2.133V30.36h.04c.553.907 1.46 1.36 2.724 1.36 1.17 0 2.152-.42 2.94-1.263.884-.947 1.325-2.237 1.325-3.87 0-1.46-.38-2.638-1.136-3.534-.758-.895-1.703-1.342-2.834-1.342zm40.36 0c-.56 0-1.07.172-1.54.515-.49.38-.84.888-1.07 1.52h-.06l-.08-1.837h-1.85c.05.908.08 1.916.08 3.022l-.02 6.574h2.13V26.47c0-.764.18-1.396.53-1.896.41-.567.99-.85 1.74-.85.24 0 .46.02.67.06V21.75a3.47 3.47 0 0 0-.53-.04zm-11.02.003c-1.463 0-2.623.474-3.484 1.422-.863.947-1.293 2.163-1.293 3.65 0 1.42.418 2.6 1.254 3.535s1.955 1.4 3.363 1.4c1.46 0 2.63-.485 3.52-1.46.84-.947 1.26-2.158 1.26-3.633 0-1.435-.41-2.607-1.23-3.514-.85-.935-1.98-1.4-3.39-1.4zm16.94 1.46c.76 0 1.33.295 1.7.888.29.46.43 1.006.41 1.637h-4.44c.07-.644.28-1.197.63-1.658.44-.58 1-.868 1.7-.868zm-17.02.098c.83 0 1.47.384 1.92 1.15.38.633.57 1.39.57 2.275 0 .884-.2 1.652-.59 2.297-.46.778-1.1 1.168-1.92 1.168-.83 0-1.472-.382-1.933-1.148-.383-.632-.57-1.39-.57-2.276 0-.912.187-1.682.57-2.316.447-.765 1.103-1.15 1.953-1.15zm-40.988.138c.776 0 1.394.315 1.855.947.422.606.633 1.377.633 2.31 0 1.015-.224 1.83-.672 2.45-.447.618-1.072.928-1.875.928-.684 0-1.24-.24-1.668-.72s-.642-1.07-.642-1.768v-1.602c0-.17.033-.384.1-.648.13-.566.41-1.023.837-1.373a2.22 2.22 0 0 1 1.432-.524zm11.037 0c.776 0 1.394.315 1.855.947.422.606.632 1.377.632 2.31 0 1.015-.224 1.83-.672 2.45-.447.618-1.072.928-1.875.928-.686 0-1.24-.24-1.67-.72-.425-.482-.64-1.07-.64-1.768v-1.602c0-.17.035-.384.1-.648.13-.566.41-1.023.837-1.373a2.22 2.22 0 0 1 1.432-.524z"/></svg>