<?xml version="1.0" encoding="UTF-8" standalone="no"?>
<svg xmlns:rdf="http://www.w3.org/1999/02/22-rdf-syntax-ns#" xmlns="http://www.w3.org/2000/svg" enable-background="new 0 0 135 40" xml:space="preserve" height="40px" viewBox="0 0 135 40" width="135px" version="1.1" y="0px" x="0px" xmlns:cc="http://creativecommons.org/ns#" xmlns:dc="http://purl.org/dc/elements/1.1/"><path d="m130.2 40h-125.47c-2.608 0-4.73-2.128-4.73-4.733v-30.541c0-2.606 2.122-4.726 4.729-4.726h125.47c2.6 0 4.8 2.12 4.8 4.726v30.541c0 2.605-2.2 4.733-4.8 4.733z"/><path fill="#fff" d="m28.234 6.2168c-1.265 0.056-2.846 0.8744-3.757 1.9434-0.806 0.942-1.526 2.4878-1.34 3.9398 1.421 0.106 2.879-0.717 3.791-1.793 0.874-1.0934 1.472-2.5812 1.306-4.0902zm41.807 0.3398v6.8774h1.047v-6.8774h-1.047zm17.158 0v2.7051h-0.019c-0.252-0.427-0.695-0.6406-1.328-0.6406-0.576 0-1.061 0.2201-1.456 0.6601-0.408 0.472-0.611 1.0908-0.611 1.8538 0 0.711 0.188 1.29 0.563 1.736s0.848 0.668 1.416 0.668c0.711 0 1.216-0.287 1.513-0.863h0.03l0.048 0.758h0.93c-0.025-0.388-0.037-0.813-0.037-1.272v-5.6054h-1.049zm24.191 0v6.8754h1.05v-2.834c0-0.148 0.02-0.274 0.05-0.377 0.18-0.4903 0.51-0.7366 1-0.7366 0.63 0 0.95 0.4245 0.95 1.2696v2.68h1.04v-2.803c0-0.6981-0.17-1.2272-0.53-1.5822-0.28-0.285-0.64-0.4277-1.08-0.4277-0.61 0-1.08 0.2584-1.41 0.7754h-0.02v-2.8399h-1.05zm-65.91 0.2891c-0.648 0-1.247 0.0467-1.804 0.1367v6.4296c0.427 0.052 0.937 0.078 1.533 0.078 1.202 0 2.13-0.273 2.783-0.822 0.705-0.595 1.059-1.481 1.059-2.658 0-1.0482-0.329-1.8532-0.981-2.4162-0.582-0.498-1.445-0.7481-2.59-0.7481zm63.3 0.6992l-1.03 0.3106v0.8633h-0.69v0.7851h0.69v2.3771c0 0.595 0.12 1.019 0.35 1.271 0.24 0.252 0.56 0.377 0.97 0.377 0.34 0 0.61-0.039 0.82-0.117l-0.03-0.795c-0.12 0.033-0.28 0.051-0.47 0.051-0.4 0-0.61-0.291-0.61-0.873v-2.2911h1.16v-0.7851h-1.16v-1.1739zm-63.212 0.127c0.777 0 1.368 0.2023 1.772 0.6093 0.404 0.408 0.605 0.9929 0.605 1.7558 0 0.854-0.22 1.505-0.656 1.951s-1.055 0.668-1.857 0.668c-0.343 0-0.578-0.007-0.707-0.027v-4.8907c0.233-0.046 0.513-0.0664 0.843-0.0664zm73.682 0.9414c-0.7 0-1.25 0.2518-1.65 0.7558-0.39 0.472-0.58 1.0649-0.58 1.7759 0 0.724 0.2 1.302 0.62 1.732s0.99 0.644 1.72 0.644c0.61 0 1.14-0.097 1.58-0.291l-0.16-0.728c-0.38 0.149-0.81 0.223-1.27 0.223-0.42 0-0.76-0.11-1.03-0.33-0.29-0.246-0.44-0.601-0.45-1.067h3.14c0.02-0.129 0.04-0.286 0.04-0.474 0-0.588-0.14-1.0849-0.42-1.4849-0.35-0.504-0.87-0.7558-1.54-0.7558zm-52.691 0.0058c-0.348 0-0.668 0.0897-0.952 0.2657-0.239 0.151-0.421 0.3393-0.543 0.5683h-0.029l-0.049-0.7363h-0.92c0.025 0.486 0.038 0.9356 0.038 1.3492v3.366h1.048v-2.795c0-0.309 0.098-0.58 0.291-0.8089 0.195-0.229 0.445-0.3437 0.756-0.3437 0.634 0 0.951 0.416 0.951 1.2476v2.702h1.047v-2.825c0-0.6916-0.181-1.2131-0.543-1.5621-0.291-0.285-0.655-0.4278-1.095-0.4278zm34.681 0c-0.34 0-0.66 0.0897-0.95 0.2657-0.24 0.151-0.417 0.3393-0.54 0.5683h-0.029l-0.049-0.7363h-0.92c0.025 0.486 0.037 0.9356 0.037 1.3492v3.366h1.049v-2.795c0-0.309 0.097-0.58 0.292-0.8089 0.19-0.229 0.44-0.3437 0.75-0.3437 0.64 0 0.96 0.416 0.96 1.2476v2.702h1.04v-2.825c0-0.6916-0.18-1.2131-0.54-1.5621-0.29-0.285-0.66-0.4278-1.1-0.4278zm-48.601 0.0039c-0.718 0-1.287 0.2323-1.711 0.6973s-0.635 1.0647-0.635 1.7947c0 0.698 0.203 1.278 0.613 1.737 0.411 0.46 0.963 0.687 1.655 0.687 0.718 0 1.292-0.238 1.726-0.717 0.414-0.466 0.621-1.06 0.621-1.785 0-0.704-0.199-1.2805-0.599-1.7265-0.421-0.459-0.978-0.6875-1.67-0.6875zm22.347 0c-0.717 0-1.287 0.2323-1.711 0.6973s-0.634 1.0647-0.634 1.7947c0 0.698 0.205 1.278 0.615 1.737 0.41 0.46 0.961 0.687 1.654 0.687 0.717 0 1.293-0.238 1.727-0.717 0.414-0.466 0.621-1.06 0.621-1.785 0-0.704-0.202-1.2805-0.602-1.7265-0.422-0.459-0.977-0.6875-1.67-0.6875zm5.426 0c-0.638 0-1.179 0.1353-1.617 0.4063l0.213 0.6895c0.354-0.232 0.763-0.3497 1.228-0.3497 0.653 0 0.981 0.3107 0.981 0.9319v0.088c-0.873-0.007-1.551 0.141-2.033 0.445-0.483 0.304-0.723 0.742-0.723 1.318 0 0.381 0.121 0.703 0.367 0.961 0.271 0.284 0.631 0.426 1.076 0.426 0.596 0 1.055-0.215 1.377-0.648h0.03l0.078 0.543h0.941c-0.045-0.278-0.068-0.654-0.068-1.125v-1.737c0-1.2997-0.618-1.949-1.85-1.949zm14.567 0c-0.719 0-1.289 0.2323-1.713 0.6973s-0.635 1.0647-0.635 1.7947c0 0.698 0.205 1.278 0.615 1.737 0.412 0.46 0.963 0.687 1.654 0.687 0.719 0 1.293-0.238 1.727-0.717 0.414-0.466 0.621-1.06 0.621-1.785 0-0.704-0.202-1.2805-0.602-1.7265-0.42-0.459-0.976-0.6875-1.667-0.6875zm-39.043 0.0958l1.386 4.7152h0.971l0.648-2.047c0.162-0.498 0.288-1.006 0.379-1.5237h0.02c0.098 0.5037 0.224 1.0127 0.379 1.5237l0.611 2.047h0.959l1.477-4.7133h-1.03l-0.572 2.2013c-0.142 0.55-0.249 1.068-0.32 1.553h-0.03c-0.097-0.498-0.222-1.016-0.376-1.553l-0.641-2.2013h-0.856l-0.668 2.2503c-0.182 0.607-0.31 1.108-0.388 1.502h-0.02c-0.085-0.478-0.191-0.982-0.32-1.512l-0.533-2.2422h-1.076zm63.234 0.621c0.37 0 0.65 0.1465 0.83 0.4375 0.15 0.2257 0.22 0.4937 0.21 0.8047h-2.18c0.03-0.317 0.13-0.5874 0.31-0.8144 0.21-0.285 0.49-0.4278 0.83-0.4278zm-66.568 0.0489c0.407 0 0.719 0.1865 0.939 0.5625 0.187 0.3108 0.281 0.6838 0.281 1.1188s-0.097 0.812-0.291 1.129c-0.226 0.383-0.539 0.574-0.939 0.574-0.408 0-0.724-0.188-0.951-0.564-0.187-0.311-0.282-0.684-0.282-1.119 0-0.448 0.094-0.828 0.282-1.1388 0.22-0.376 0.54-0.5625 0.961-0.5625zm22.347 0c0.406 0 0.721 0.1865 0.94 0.5625 0.187 0.3108 0.281 0.6838 0.281 1.1188s-0.096 0.812-0.291 1.129c-0.226 0.383-0.54 0.574-0.94 0.574-0.408 0-0.724-0.188-0.951-0.564-0.187-0.311-0.281-0.684-0.281-1.119 0-0.448 0.093-0.828 0.281-1.1388 0.219-0.376 0.539-0.5625 0.961-0.5625zm19.99 0c0.408 0 0.721 0.1865 0.942 0.5625 0.187 0.3108 0.281 0.6838 0.281 1.1188s-0.098 0.812-0.291 1.129c-0.226 0.383-0.541 0.574-0.941 0.574-0.408 0-0.724-0.188-0.951-0.564-0.187-0.311-0.282-0.684-0.282-1.119 0-0.448 0.094-0.828 0.282-1.1388 0.221-0.376 0.54-0.5625 0.96-0.5625zm-8.849 0.0488c0.271 0 0.506 0.0849 0.701 0.2559 0.193 0.171 0.32 0.3826 0.379 0.6346 0.019 0.084 0.029 0.194 0.029 0.33v0.787c0 0.336-0.099 0.625-0.301 0.864-0.209 0.259-0.484 0.386-0.828 0.386-0.383 0-0.689-0.155-0.916-0.465-0.215-0.291-0.322-0.668-0.322-1.134 0-0.485 0.113-0.883 0.336-1.1937 0.225-0.311 0.531-0.4648 0.922-0.4648zm-4.848 1.6485v0.726c0 0.072-0.006 0.133-0.017 0.184-0.045 0.227-0.167 0.413-0.364 0.559-0.196 0.145-0.41 0.218-0.64 0.218-0.205 0-0.377-0.06-0.512-0.183s-0.201-0.309-0.201-0.555c0-0.653 0.578-0.969 1.734-0.949zm-53.762 1.297c-1.696 0.126-3.267 1.185-4.144 1.185-1.022 0-2.566-1.157-4.229-1.123-2.14 0.033-4.142 1.274-5.24 3.198-2.266 3.923-0.575 9.688 1.596 12.859 1.086 1.553 2.355 3.286 4.016 3.225 1.625-0.067 2.232-1.036 4.193-1.036 1.943 0 2.513 1.035 4.207 0.997 1.744-0.028 2.843-1.56 3.891-3.127 1.255-1.78 1.759-3.533 1.779-3.623-0.041-0.014-3.387-1.292-3.42-5.155-0.029-3.223 2.638-4.79 2.76-4.863-1.511-2.203-3.853-2.503-4.676-2.527-0.246-0.026-0.49-0.028-0.733-0.01zm57.026 5.619c-1.358 0-2.444 0.348-3.258 1.047-0.817 0.698-1.225 1.595-1.225 2.689 0 1.674 1.165 2.948 3.495 3.817 0.856 0.317 1.469 0.658 1.836 1.027 0.369 0.369 0.552 0.825 0.552 1.365 0 0.606-0.223 1.091-0.67 1.453-0.449 0.362-1.074 0.545-1.877 0.545-1.119 0-2.146-0.283-3.082-0.849l-0.494 1.775c0.869 0.553 2.017 0.83 3.449 0.83 1.551 0 2.758-0.389 3.625-1.166 0.789-0.711 1.182-1.632 1.182-2.764 0-0.92-0.27-1.69-0.809-2.306-0.541-0.618-1.382-1.156-2.527-1.617-0.936-0.369-1.58-0.712-1.935-1.028-0.408-0.342-0.612-0.776-0.612-1.302 0-0.475 0.178-0.876 0.533-1.206 0.42-0.368 1.006-0.552 1.756-0.552 0.949 0 1.797 0.203 2.547 0.611l0.533-1.738c-0.803-0.421-1.808-0.631-3.019-0.631zm-37.813 0.193l-4.283 13.309h2.211l1.186-3.908h4.324l1.242 3.908h2.272l-4.305-13.309h-2.647zm46.045 1.323l-2.093 0.63v1.758h-1.401v1.6h1.401v4.838c0 1.211 0.237 2.072 0.71 2.586 0.475 0.513 1.133 0.769 1.975 0.769 0.685 0 1.238-0.077 1.658-0.234l-0.058-1.619c-0.25 0.066-0.567 0.097-0.948 0.097-0.83 0-1.244-0.59-1.244-1.775v-4.66h2.35v-1.602h-2.35v-2.388zm-44.818 0.455h0.039c0.329 1.316 0.553 2.152 0.672 2.507l1.125 3.475h-3.574l1.105-3.475c0.29-1.105 0.502-1.941 0.633-2.507zm70.25 1.72c-1.41 0-2.53 0.513-3.36 1.539-0.79 0.961-1.18 2.167-1.18 3.614 0 1.474 0.42 2.648 1.27 3.523s2.02 1.313 3.51 1.313c1.23 0 2.31-0.196 3.21-0.592l-0.33-1.481c-0.78 0.303-1.64 0.453-2.59 0.453-0.85 0-1.55-0.222-2.09-0.669-0.59-0.5-0.9-1.226-0.93-2.174h6.4c0.05-0.263 0.08-0.585 0.08-0.967 0-1.197-0.29-2.205-0.85-3.02-0.71-1.026-1.76-1.539-3.14-1.539zm-57.477 0.018c-1.448 0-2.527 0.573-3.238 1.719h-0.041l-0.117-1.522h-1.875c0.052 1.08 0.078 2.132 0.078 3.158v10.348h2.133v-5.055h0.039c0.553 0.908 1.46 1.362 2.724 1.362 1.171 0 2.154-0.421 2.944-1.264 0.882-0.947 1.322-2.237 1.322-3.869 0-1.461-0.379-2.639-1.137-3.535-0.756-0.895-1.7-1.342-2.832-1.342zm11.037 0c-1.449 0-2.528 0.573-3.238 1.719h-0.039l-0.119-1.522h-1.875c0.052 1.08 0.078 2.132 0.078 3.158v10.348h2.133v-5.055h0.041c0.552 0.908 1.459 1.362 2.723 1.362 1.171 0 2.152-0.421 2.941-1.264 0.883-0.947 1.324-2.237 1.324-3.869 0-1.461-0.38-2.639-1.135-3.535-0.758-0.895-1.703-1.342-2.834-1.342zm40.36 0c-0.56 0-1.07 0.171-1.54 0.514-0.49 0.381-0.84 0.888-1.07 1.519h-0.06l-0.08-1.836h-1.85c0.05 0.908 0.08 1.916 0.08 3.022l-0.02 6.574h2.13v-5.035c0-0.763 0.18-1.395 0.53-1.895 0.41-0.567 0.99-0.849 1.74-0.849 0.24 0 0.46 0.019 0.67 0.058v-2.033c-0.16-0.025-0.34-0.039-0.53-0.039zm-11.02 0.002c-1.463 0-2.623 0.474-3.484 1.422-0.863 0.947-1.293 2.163-1.293 3.65 0 1.421 0.418 2.601 1.254 3.535s1.955 1.401 3.363 1.401c1.46 0 2.63-0.486 3.52-1.461 0.84-0.947 1.26-2.158 1.26-3.633 0-1.435-0.41-2.607-1.23-3.514-0.85-0.935-1.98-1.4-3.39-1.4zm16.94 1.459c0.76 0 1.33 0.296 1.7 0.889 0.29 0.46 0.43 1.005 0.41 1.636h-4.44c0.07-0.644 0.28-1.197 0.63-1.658 0.44-0.58 1-0.867 1.7-0.867zm-17.02 0.099c0.83 0 1.47 0.383 1.92 1.149 0.38 0.633 0.57 1.39 0.57 2.275 0 0.884-0.2 1.652-0.59 2.297-0.46 0.778-1.1 1.168-1.92 1.168-0.83 0-1.472-0.382-1.933-1.148-0.383-0.632-0.57-1.391-0.57-2.276 0-0.912 0.187-1.682 0.57-2.316 0.447-0.765 1.103-1.149 1.953-1.149zm-40.988 0.137c0.776 0 1.394 0.315 1.855 0.947 0.422 0.606 0.633 1.377 0.633 2.311 0 1.014-0.224 1.83-0.672 2.449-0.447 0.618-1.072 0.928-1.875 0.928-0.684 0-1.24-0.24-1.668-0.721s-0.642-1.069-0.642-1.767v-1.602c0-0.17 0.033-0.384 0.099-0.648 0.131-0.566 0.41-1.023 0.838-1.373 0.427-0.347 0.906-0.524 1.432-0.524zm11.037 0c0.777 0 1.395 0.315 1.856 0.947 0.422 0.606 0.632 1.377 0.632 2.311 0 1.014-0.224 1.83-0.672 2.449-0.447 0.618-1.072 0.928-1.875 0.928-0.686 0-1.241-0.241-1.669-0.721-0.426-0.481-0.641-1.069-0.641-1.767v-1.602c0-0.17 0.035-0.384 0.1-0.648 0.131-0.566 0.409-1.023 0.837-1.373 0.428-0.347 0.905-0.524 1.432-0.524z"/></svg>
