<svg width="640" height="1040" version="1.1" viewBox="0 0 169.33 275.17" xmlns="http://www.w3.org/2000/svg"><g fill="#0082c9"><g stroke-width=".26458"><path d="m45.391 89.957c-0.52118 0-0.94075 0.41989-0.94075 0.94107v8.7027c0 0.52123 0.41957 0.9398 0.94075 0.9398h15.052c0.52123 0 0.94086-0.41857 0.94086-0.9398v-8.7027c0-0.52118-0.41963-0.94107-0.94086-0.94107zm0.79375 1.0881 6.4384 6.4384h0.55859l6.4675-6.4384 0.64675 0.64675-3.8512 3.91 2.9104 2.9692-0.64675 0.64675-2.9692-2.9692-2.1461 2.1755h-1.3523l-2.1458-2.1749-2.9694 2.9982-0.6468-0.67627 2.9398-2.9692-3.8805-3.9098z" opacity=".15"/><path d="m68.103 87.847c-0.20903 0.0404-0.3737 0.24692-0.37 0.46302v13.887c0 0.24342 0.21812 0.46354 0.45678 0.46354h11.788c0.23918 0 0.4572-0.22012 0.4572-0.46354v-10.734c-4e-3 -0.0708-0.0243-0.1408-0.0582-0.20268l-3.5052-3.3858c-0.0455-0.018-0.0942-0.027-0.14288-0.0288h-8.5392c-0.0282-2e-3 -0.0582-2e-3 -0.0866 0zm1.7467 2.1146h6.35v1.0583h-6.35zm0 3.175h5.2917v1.0583h-5.2917zm0 3.175h8.4667v1.0583h-8.4667zm0 3.175h4.2333v1.0583h-4.2333z" color="#000000" opacity=".15" style="text-indent:0;text-transform:none"/><path d="m6.4768 89.127c-1.1782 0-2.1777 0.86165-2.1777 1.9736 8e-3 0.35146 0.0398 0.78486 0.24953 1.7014v0.0227l0.0227 0.0227c0.0673 0.19286 0.1653 0.30318 0.29489 0.4537 0.12958 0.15052 0.28409 0.32768 0.431 0.47638 0.0174 0.0176 0.0284 0.0283 0.0454 0.0454 0.0292 0.1268 0.0644 0.26325 0.0907 0.38565 0.07 0.32565 0.0628 0.55626 0.0454 0.63516-0.50628 0.17776-1.1361 0.38947-1.7013 0.63515-0.3173 0.13794-0.60442 0.26114-0.83932 0.40834-0.23488 0.1472-0.46849 0.25841-0.5444 0.58981-1e-3 0.015-1e-3 0.0303 0 0.0454-0.0742 0.68124-0.18642 1.6831-0.27221 2.3592-0.0186 0.14234 0.0565 0.29238 0.18148 0.36296 1.0262 0.55431 2.6025 0.7774 4.1738 0.77132 1.5714-6e-3 3.1352-0.24235 4.1285-0.77132 0.12498-0.0706 0.2-0.22062 0.18148-0.36296-0.0274-0.21136-0.061-0.68797-0.0907-1.1569-0.0297-0.46897-0.0555-0.93028-0.0907-1.2023-0.0122-0.0674-0.0442-0.13118-0.0907-0.18148-0.31556-0.37683-0.78703-0.60717-1.3384-0.83937-0.50335-0.21195-1.0935-0.43206-1.6786-0.68056-0.0328-0.073-0.0653-0.28524 0-0.61251 0.0176-0.0879 0.045-0.18198 0.0681-0.27222 0.055-0.0616 0.0979-0.11192 0.15878-0.18148 0.12996-0.14834 0.2696-0.30394 0.38563-0.4537 0.11602-0.14976 0.21095-0.27823 0.27221-0.4537l0.0227-0.0227c0.2371-0.95699 0.23723-1.3563 0.24953-1.7014v-0.0227c0-1.1119-0.99949-1.9736-2.1777-1.9736zm6.2293-1.811c-1.7177 0-3.1749 1.2562-3.1749 2.8773 0.0122 0.51239 0.058 1.1443 0.3638 2.4804v0.0331l0.0331 0.0331c0.0982 0.28116 0.24101 0.442 0.42994 0.66145 0.18894 0.21945 0.41418 0.47773 0.62839 0.69453 0.0252 0.0255 0.0413 0.0413 0.0661 0.0662 0.0425 0.18484 0.0939 0.38379 0.1323 0.56224 0.10204 0.47477 0.0916 0.811 0.0662 0.92604-0.73814 0.25917-1.6564 0.5678-2.4804 0.92605-0.46261 0.20111-0.88122 0.38069-1.2237 0.59531-0.34246 0.2146-0.68304 0.37674-0.79375 0.85989-2e-3 0.022-2e-3 0.0441 0 0.0662-0.10818 0.9932-0.27179 2.4538-0.39686 3.4395-0.027 0.20751 0.0824 0.42625 0.26457 0.52916 1.4961 0.80814 3.7943 1.1334 6.0854 1.1245 2.291-9e-3 4.5709-0.3533 6.0193-1.1245 0.1822-0.1029 0.29158-0.32165 0.26458-0.52916-0.04-0.30817-0.089-1.003-0.1323-1.6867-0.0433-0.68369-0.0809-1.3563-0.13228-1.7529-0.018-0.0983-0.0644-0.19124-0.1323-0.26458-0.46007-0.54938-1.1474-0.88519-1.9513-1.2237-0.73385-0.30901-1.5942-0.62992-2.4474-0.99219-0.0477-0.10638-0.0952-0.41585 0-0.89297 0.0256-0.12812 0.0656-0.26533 0.0992-0.39687 0.0802-0.0898 0.14266-0.16318 0.23151-0.26458 0.18948-0.21626 0.39307-0.44312 0.56224-0.66146 0.16916-0.21833 0.30756-0.40563 0.39687-0.66146l0.0331-0.0331c0.3457-1.3952 0.34588-1.9773 0.36381-2.4804v-0.0331c0-1.6211-1.4572-2.8773-3.175-2.8773z" color="#000000" opacity=".15" style="text-indent:0;text-transform:none"/></g><path d="m27.519 87.84c-0.58632 0-1.0583 0.47202-1.0583 1.0583v2.1167c0 0.58632 0.47202 1.0583 1.0583 1.0583 0.58632 0 1.0583-0.47202 1.0583-1.0583v-2.1167c0-0.58632-0.47202-1.0583-1.0583-1.0583zm8.4667 0c-0.58632 0-1.0583 0.47202-1.0583 1.0583v2.1167c0 0.58632 0.47202 1.0583 1.0583 1.0583 0.58632 0 1.0583-0.47202 1.0583-1.0583v-2.1167c0-0.58632-0.47202-1.0583-1.0583-1.0583zm-6.8792 2.1167v1.0583c0 0.87948-0.70803 1.5875-1.5875 1.5875-0.87948 0-1.5875-0.70803-1.5875-1.5875v-0.99219c-0.9144 0.23418-1.5875 1.0611-1.5875 2.0505v8.4667c0 1.1726 0.94404 2.1167 2.1167 2.1167h10.583c1.1726 0 2.1167-0.94404 2.1167-2.1167v-8.4667c0-0.98944-0.6731-1.8164-1.5875-2.0505v0.99219c0 0.87948-0.70803 1.5875-1.5875 1.5875-0.87948 0-1.5875-0.70803-1.5875-1.5875v-1.0583zm-3.1254 4.7625h11.542c0.02932 0 0.04958 0.02029 0.04958 0.04961v6.2506c0 0.0293-0.02032 0.0496-0.04958 0.0496h-11.542c-0.02932 0-0.04958-0.0203-0.04958-0.0496v-6.2506c0-0.02932 0.02032-0.04961 0.04958-0.04961z" opacity=".15" stroke-width=".26458"/><path d="m158.75 87.837a7.4076 7.4077 0 0 0-7.4075 7.4079 7.4076 7.4077 0 0 0 7.4075 7.4077 7.4076 7.4077 0 0 0 3.8426-1.0837c0.91042 0.36176 2.9497 1.4351 3.435 0.97148 0.50718-0.48434-0.59542-2.7639-0.85976-3.611a7.4076 7.4077 0 0 0 0.98954-3.6845 7.4076 7.4077 0 0 0-7.4074-7.4076zm8.4e-4 2.8163a4.5932 4.5933 0 0 1 4.5932 4.5933 4.5932 4.5933 0 0 1-4.5932 4.593 4.5932 4.5933 0 0 1-4.5932-4.593 4.5932 4.5933 0 0 1 4.5932-4.5933z" opacity=".15" stroke-width=".037042"/><g stroke-width=".26458"><path d="m109.37 88.897c-0.20902 0.0404-0.36756 0.24702-0.3638 0.46303v11.774c0 0.24342 0.22437 0.46356 0.46302 0.46356h13.891c0.2387-2e-5 0.46301-0.22062 0.46302-0.46302v-11.592c-5.3e-4 -0.35619-0.27993-0.64713-0.54557-0.64505zm0.69448 1.0583h12.7v5.2917l-1.0583-1.0583-3.175 4.2333-3.175-3.175-4.2333 4.2333h-1.0583zm2.6459 1.0583c-0.87678 0-1.5875 0.71072-1.5875 1.5875s0.71072 1.5875 1.5875 1.5875 1.5875-0.71072 1.5875-1.5875-0.71072-1.5875-1.5875-1.5875z" color="#000000" opacity=".15" style="text-indent:0;text-transform:none"/><path d="m88.371 88.897c-0.26458 0-0.52917 0.26458-0.52917 0.52917v11.642c0 0.27516 0.254 0.52916 0.52917 0.52916h13.758c0.27517 0 0.52917-0.25506 0.52917-0.52916v-9.525c0-0.26458-0.26459-0.52918-0.52917-0.52918h-6.8792l-2.1167-2.1167z" opacity=".15"/><path d="m137.58 87.317-5.2917 9.525h5.8208l-0.52916 6.35 5.2917-9.525h-5.8208z" opacity=".15"/><path d="m4.6031 109.01c-0.20903 0.0404-0.3737 0.24692-0.37 0.46302v13.887c0 0.24342 0.21812 0.46354 0.45678 0.46354h11.788c0.23918 0 0.4572-0.22012 0.4572-0.46354v-10.734c-4e-3 -0.0708-0.0243-0.1408-0.0582-0.20268l-3.5052-3.3858c-0.0455-0.018-0.0942-0.027-0.14288-0.0288h-8.5392c-0.0282-2e-3 -0.0582-2e-3 -0.0866 0zm1.7467 2.1146h6.35v1.0583h-6.35zm0 3.175h5.2917v1.0583h-5.2917zm0 3.175h8.4667v1.0583h-8.4667zm0 3.175h4.2333v1.0583h-4.2333z" color="#000000" opacity=".15" style="text-indent:0;text-transform:none"/><path d="m151.22 111.13c-0.52118 0-0.94075 0.41989-0.94075 0.94107v8.7027c0 0.52123 0.41957 0.9398 0.94075 0.9398h15.052c0.52123 0 0.94086-0.41857 0.94086-0.9398v-8.7027c0-0.52118-0.41963-0.94107-0.94086-0.94107zm0.79375 1.0881 6.4384 6.4384h0.55859l6.4675-6.4384 0.64675 0.64675-3.8512 3.91 2.9104 2.9692-0.64675 0.64675-2.9692-2.9692-2.1461 2.1755h-1.3523l-2.1458-2.1749-2.9694 2.9982-0.6468-0.67627 2.9398-2.9692-3.8805-3.9098z" opacity=".15"/></g><path d="m95.249 109.01a7.4076 7.4077 0 0 0-7.4075 7.4079 7.4076 7.4077 0 0 0 7.4075 7.4077 7.4076 7.4077 0 0 0 3.8426-1.0837c0.91042 0.36176 2.9497 1.4351 3.435 0.97148 0.50718-0.48434-0.59542-2.7639-0.85976-3.611a7.4076 7.4077 0 0 0 0.98954-3.6845 7.4076 7.4077 0 0 0-7.4074-7.4076zm8.4e-4 2.8163a4.5932 4.5933 0 0 1 4.5932 4.5933 4.5932 4.5933 0 0 1-4.5932 4.593 4.5932 4.5933 0 0 1-4.5932-4.593 4.5932 4.5933 0 0 1 4.5932-4.5933z" opacity=".15" stroke-width=".037042"/><g stroke-width=".26458"><path d="m45.872 110.07c-0.20902 0.0404-0.36756 0.24702-0.3638 0.46302v11.774c0 0.24342 0.22437 0.46356 0.46302 0.46356h13.891c0.2387-2e-5 0.46301-0.22062 0.46302-0.46302v-11.592c-5.3e-4 -0.35618-0.27993-0.64712-0.54557-0.64504zm0.69448 1.0583h12.7v5.2917l-1.0583-1.0583-3.175 4.2333-3.175-3.175-4.2333 4.2333h-1.0583zm2.6459 1.0583c-0.87678 0-1.5875 0.71072-1.5875 1.5875s0.71072 1.5875 1.5875 1.5875 1.5875-0.71072 1.5875-1.5875-0.71072-1.5875-1.5875-1.5875z" color="#000000" opacity=".15" style="text-indent:0;text-transform:none"/><path d="m24.871 110.07c-0.26458 0-0.52917 0.26458-0.52917 0.52916v11.642c0 0.27516 0.254 0.52916 0.52917 0.52916h13.758c0.27517 0 0.52917-0.25506 0.52917-0.52916v-9.525c0-0.26458-0.26459-0.52918-0.52917-0.52918h-6.8792l-2.1167-2.1167z" opacity=".15"/><path d="m112.31 110.29c-1.1782 0-2.1777 0.86164-2.1777 1.9736 8e-3 0.35146 0.0398 0.78486 0.24953 1.7014v0.0227l0.0227 0.0227c0.0673 0.19286 0.1653 0.30318 0.29489 0.4537 0.12958 0.15052 0.28409 0.32768 0.431 0.47638 0.0174 0.0176 0.0284 0.0283 0.0454 0.0454 0.0292 0.1268 0.0644 0.26325 0.0907 0.38565 0.07 0.32565 0.0628 0.55626 0.0454 0.63516-0.50628 0.17776-1.1361 0.38947-1.7013 0.63515-0.3173 0.13794-0.60442 0.26114-0.83932 0.40834-0.23488 0.1472-0.46849 0.25841-0.5444 0.58981-1e-3 0.015-1e-3 0.0303 0 0.0454-0.0742 0.68124-0.18642 1.6831-0.27221 2.3592-0.0186 0.14234 0.0565 0.29238 0.18148 0.36296 1.0262 0.55431 2.6025 0.7774 4.1738 0.77132 1.5714-6e-3 3.1352-0.24235 4.1285-0.77132 0.12498-0.0706 0.2-0.22062 0.18148-0.36296-0.0274-0.21136-0.061-0.68797-0.0907-1.1569-0.0297-0.46897-0.0555-0.93028-0.0907-1.2023-0.0122-0.0674-0.0442-0.13118-0.0907-0.18148-0.31556-0.37683-0.78703-0.60717-1.3384-0.83937-0.50335-0.21195-1.0935-0.43206-1.6786-0.68056-0.0328-0.073-0.0653-0.28524 0-0.61251 0.0176-0.0879 0.045-0.18198 0.0681-0.27222 0.055-0.0616 0.0979-0.11192 0.15878-0.18148 0.12996-0.14834 0.2696-0.30394 0.38563-0.4537 0.11602-0.14976 0.21095-0.27823 0.27221-0.4537l0.0227-0.0227c0.2371-0.95699 0.23723-1.3563 0.24953-1.7014v-0.0227c0-1.1119-0.99949-1.9736-2.1777-1.9736zm6.2294-1.811c-1.7177 0-3.175 1.2562-3.175 2.8773 0.0122 0.51239 0.058 1.1443 0.3638 2.4804v0.0331l0.0331 0.0331c0.0982 0.28116 0.24101 0.442 0.42994 0.66145 0.18894 0.21945 0.41418 0.47773 0.62839 0.69453 0.0252 0.0255 0.0413 0.0413 0.0661 0.0662 0.0425 0.18484 0.0939 0.38379 0.1323 0.56224 0.10204 0.47477 0.0916 0.811 0.0662 0.92604-0.73814 0.25917-1.6564 0.5678-2.4804 0.92605-0.46261 0.20111-0.88122 0.38069-1.2237 0.59531-0.34246 0.2146-0.68304 0.37674-0.79375 0.85989-2e-3 0.022-2e-3 0.0441 0 0.0662-0.10818 0.9932-0.27179 2.4538-0.39686 3.4395-0.027 0.20751 0.0824 0.42625 0.26457 0.52916 1.4961 0.80814 3.7943 1.1334 6.0854 1.1245 2.291-9e-3 4.5709-0.3533 6.0193-1.1245 0.1822-0.1029 0.29158-0.32165 0.26458-0.52916-0.04-0.30817-0.089-1.003-0.1323-1.6867-0.0433-0.68369-0.0809-1.3563-0.13228-1.7529-0.018-0.0983-0.0644-0.19124-0.1323-0.26458-0.46007-0.54938-1.1474-0.88519-1.9513-1.2237-0.73385-0.30901-1.5942-0.62992-2.4474-0.99219-0.0477-0.10638-0.0952-0.41585 0-0.89297 0.0256-0.12812 0.0656-0.26533 0.0992-0.39687 0.0802-0.0898 0.14266-0.16318 0.23151-0.26458 0.18948-0.21626 0.39307-0.44312 0.56224-0.66146 0.16916-0.21833 0.30756-0.40563 0.39687-0.66146l0.0331-0.0331c0.3457-1.3952 0.34588-1.9773 0.36381-2.4804v-0.0331c0-1.6211-1.4572-2.8773-3.175-2.8773z" color="#000000" opacity=".15" style="text-indent:0;text-transform:none"/></g><path d="m133.35 109.01c-0.58632 0-1.0583 0.47202-1.0583 1.0583v2.1167c0 0.58632 0.47202 1.0583 1.0583 1.0583s1.0583-0.47202 1.0583-1.0583v-2.1167c0-0.58632-0.47202-1.0583-1.0583-1.0583zm8.4667 0c-0.58632 0-1.0583 0.47202-1.0583 1.0583v2.1167c0 0.58632 0.47202 1.0583 1.0583 1.0583s1.0583-0.47202 1.0583-1.0583v-2.1167c0-0.58632-0.47202-1.0583-1.0583-1.0583zm-6.8792 2.1167v1.0583c0 0.87948-0.70803 1.5875-1.5875 1.5875s-1.5875-0.70803-1.5875-1.5875v-0.9922c-0.91441 0.23418-1.5875 1.0611-1.5875 2.0505v8.4667c0 1.1726 0.94404 2.1167 2.1167 2.1167h10.583c1.1726 0 2.1167-0.94404 2.1167-2.1167v-8.4667c0-0.98945-0.6731-1.8164-1.5875-2.0505v0.9922c0 0.87948-0.70803 1.5875-1.5875 1.5875s-1.5875-0.70803-1.5875-1.5875v-1.0583zm-3.1254 4.7625h11.542c0.0293 0 0.0496 0.0203 0.0496 0.0496v6.2506c0 0.0293-0.0203 0.0496-0.0496 0.0496h-11.542c-0.0293 0-0.0496-0.0203-0.0496-0.0496v-6.2506c0-0.0293 0.0203-0.0496 0.0496-0.0496z" opacity=".15" stroke-width=".26458"/><path d="m74.083 108.48-5.2917 9.525h5.8208l-0.52916 6.35 5.2917-9.525h-5.8208z" opacity=".15" stroke-width=".26458"/><path d="m108.89 132.29c-0.52118 0-0.94075 0.41989-0.94075 0.94107v8.7027c0 0.52123 0.41957 0.9398 0.94075 0.9398h15.052c0.52123 0 0.94086-0.41857 0.94086-0.9398v-8.7027c0-0.52118-0.41963-0.94107-0.94086-0.94107zm0.79375 1.0881 6.4384 6.4384h0.55859l6.4675-6.4384 0.64675 0.64675-3.8512 3.91 2.9104 2.9692-0.64675 0.64675-2.9692-2.9692-2.1461 2.1755h-1.3523l-2.1458-2.1749-2.9694 2.9982-0.6468-0.67627 2.9398-2.9692-3.8805-3.9098z" opacity=".15" stroke-width=".26458"/><path d="m52.916 130.18a7.4076 7.4077 0 0 0-7.4075 7.4079 7.4076 7.4077 0 0 0 7.4075 7.4077 7.4076 7.4077 0 0 0 3.8426-1.0837c0.91042 0.36176 2.9497 1.4351 3.435 0.97148 0.50718-0.48434-0.59542-2.7639-0.85976-3.611a7.4076 7.4077 0 0 0 0.98954-3.6845 7.4076 7.4077 0 0 0-7.4074-7.4076zm8.4e-4 2.8163a4.5932 4.5933 0 0 1 4.5932 4.5933 4.5932 4.5933 0 0 1-4.5932 4.593 4.5932 4.5933 0 0 1-4.5932-4.593 4.5932 4.5933 0 0 1 4.5932-4.5933z" opacity=".15" stroke-width=".037042"/><g stroke-width=".26458"><path d="m3.5386 131.24c-0.20902 0.0404-0.36756 0.24702-0.3638 0.46302v11.774c0 0.24342 0.22437 0.46356 0.46302 0.46356h13.891c0.2387-2e-5 0.46301-0.22062 0.46302-0.46302v-11.592c-5.3e-4 -0.35618-0.27993-0.64712-0.54557-0.64504zm0.69448 1.0583h12.7v5.2917l-1.0583-1.0583-3.175 4.2333-3.175-3.175-4.2333 4.2333h-1.0583zm2.6459 1.0583c-0.87678 0-1.5875 0.71072-1.5875 1.5875s0.71072 1.5875 1.5875 1.5875 1.5875-0.71072 1.5875-1.5875-0.71072-1.5875-1.5875-1.5875z" color="#000000" opacity=".15" style="text-indent:0;text-transform:none"/><path d="m131.6 130.18c-0.20903 0.0404-0.3737 0.24692-0.37 0.46302v13.887c0 0.24342 0.21812 0.46354 0.45678 0.46354h11.788c0.23918 0 0.4572-0.22012 0.4572-0.46354v-10.734c-4e-3 -0.0708-0.0243-0.1408-0.0582-0.20268l-3.5052-3.3858c-0.0455-0.018-0.0942-0.027-0.14288-0.0288h-8.5392c-0.0282-2e-3 -0.0582-2e-3 -0.0866 0zm1.7467 2.1146h6.35v1.0583h-6.35zm0 3.175h5.2917v1.0583h-5.2917zm0 3.175h8.4667v1.0583h-8.4667zm0 3.175h4.2333v1.0583h-4.2333z" color="#000000" opacity=".15" style="text-indent:0;text-transform:none"/><path d="m69.977 131.46c-1.1782 0-2.1777 0.86164-2.1777 1.9736 8e-3 0.35146 0.0398 0.78486 0.24953 1.7014v0.0227l0.0227 0.0227c0.0673 0.19286 0.1653 0.30318 0.29489 0.4537 0.12958 0.15052 0.28409 0.32768 0.431 0.47638 0.0174 0.0176 0.0284 0.0283 0.0454 0.0454 0.0292 0.1268 0.0644 0.26325 0.0907 0.38565 0.07 0.32565 0.0628 0.55626 0.0454 0.63516-0.50628 0.17776-1.1361 0.38947-1.7013 0.63515-0.3173 0.13794-0.60442 0.26114-0.83932 0.40834-0.23488 0.1472-0.46849 0.25841-0.5444 0.58981-1e-3 0.015-1e-3 0.0303 0 0.0454-0.0742 0.68124-0.18642 1.6831-0.27221 2.3592-0.0186 0.14234 0.0565 0.29238 0.18148 0.36296 1.0262 0.55431 2.6025 0.7774 4.1738 0.77132 1.5714-6e-3 3.1352-0.24235 4.1285-0.77132 0.12498-0.0706 0.2-0.22062 0.18148-0.36296-0.0274-0.21136-0.061-0.68797-0.0907-1.1569-0.0297-0.46897-0.0555-0.93028-0.0907-1.2023-0.0122-0.0674-0.0442-0.13118-0.0907-0.18148-0.31556-0.37683-0.78703-0.60717-1.3384-0.83937-0.50335-0.21195-1.0935-0.43206-1.6786-0.68056-0.0328-0.073-0.0653-0.28524 0-0.61251 0.0176-0.0879 0.045-0.18198 0.0681-0.27222 0.055-0.0616 0.0979-0.11192 0.15878-0.18148 0.12996-0.14834 0.2696-0.30394 0.38563-0.4537 0.11602-0.14976 0.21095-0.27823 0.27221-0.4537l0.0227-0.0227c0.2371-0.95699 0.23723-1.3563 0.24953-1.7014v-0.0227c0-1.1119-0.99949-1.9736-2.1777-1.9736zm6.2294-1.811c-1.7177 0-3.175 1.2562-3.175 2.8773 0.0122 0.51239 0.058 1.1443 0.3638 2.4804v0.0331l0.0331 0.0331c0.0982 0.28116 0.24101 0.442 0.42994 0.66145 0.18894 0.21945 0.41418 0.47773 0.62839 0.69453 0.0252 0.0255 0.0413 0.0413 0.0661 0.0662 0.0425 0.18484 0.0939 0.38379 0.1323 0.56224 0.10204 0.47477 0.0916 0.811 0.0662 0.92604-0.73814 0.25917-1.6564 0.5678-2.4804 0.92605-0.46261 0.20111-0.88122 0.38069-1.2237 0.59531-0.34246 0.2146-0.68304 0.37674-0.79375 0.85989-2e-3 0.022-2e-3 0.0441 0 0.0662-0.10818 0.9932-0.27179 2.4538-0.39686 3.4395-0.027 0.20751 0.0824 0.42625 0.26457 0.52916 1.4961 0.80814 3.7943 1.1334 6.0854 1.1245 2.291-9e-3 4.5709-0.3533 6.0193-1.1245 0.1822-0.1029 0.29158-0.32165 0.26458-0.52916-0.04-0.30817-0.089-1.003-0.1323-1.6867-0.0433-0.68369-0.0809-1.3563-0.13228-1.7529-0.018-0.0983-0.0644-0.19124-0.1323-0.26458-0.46007-0.54938-1.1474-0.88519-1.9513-1.2237-0.73385-0.30901-1.5942-0.62992-2.4474-0.99219-0.0477-0.10638-0.0952-0.41585 0-0.89297 0.0256-0.12812 0.0656-0.26533 0.0992-0.39687 0.0802-0.0898 0.14266-0.16318 0.23151-0.26458 0.18948-0.21626 0.39307-0.44312 0.56224-0.66146 0.16916-0.21833 0.30756-0.40563 0.39687-0.66146l0.0331-0.0331c0.3457-1.3952 0.34588-1.9773 0.36381-2.4804v-0.0331c0-1.6211-1.4572-2.8773-3.175-2.8773z" color="#000000" opacity=".15" style="text-indent:0;text-transform:none"/></g><path d="m91.019 130.18c-0.58632 0-1.0583 0.47202-1.0583 1.0583v2.1167c0 0.58632 0.47202 1.0583 1.0583 1.0583 0.58632 0 1.0583-0.47202 1.0583-1.0583v-2.1167c0-0.58632-0.47202-1.0583-1.0583-1.0583zm8.4667 0c-0.58632 0-1.0583 0.47202-1.0583 1.0583v2.1167c0 0.58632 0.47202 1.0583 1.0583 1.0583 0.58632 0 1.0583-0.47202 1.0583-1.0583v-2.1167c0-0.58632-0.47202-1.0583-1.0583-1.0583zm-6.8792 2.1167v1.0583c0 0.87948-0.70803 1.5875-1.5875 1.5875-0.87948 0-1.5875-0.70803-1.5875-1.5875v-0.9922c-0.9144 0.23418-1.5875 1.0611-1.5875 2.0505v8.4667c0 1.1726 0.94404 2.1167 2.1167 2.1167h10.583c1.1726 0 2.1167-0.94404 2.1167-2.1167v-8.4667c0-0.98945-0.6731-1.8164-1.5875-2.0505v0.9922c0 0.87948-0.70803 1.5875-1.5875 1.5875-0.87948 0-1.5875-0.70803-1.5875-1.5875v-1.0583zm-3.1254 4.7625h11.542c0.0293 0 0.0496 0.0203 0.0496 0.0496v6.2506c0 0.0293-0.0203 0.0496-0.0496 0.0496h-11.542c-0.02932 0-0.04958-0.0203-0.04958-0.0496v-6.2506c0-0.0293 0.02032-0.0496 0.04958-0.0496z" opacity=".15" stroke-width=".26458"/><g stroke-width=".26458"><path d="m31.75 129.65-5.2917 9.525h5.8208l-0.52916 6.35 5.2917-9.525h-5.8208z" opacity=".15"/><path d="m151.87 131.24c-0.26458 0-0.52917 0.26458-0.52917 0.52916v11.642c0 0.27516 0.254 0.52916 0.52917 0.52916h13.758c0.27517 0 0.52917-0.25506 0.52917-0.52916v-9.525c0-0.26458-0.26459-0.52918-0.52917-0.52918h-6.8792l-2.1167-2.1167z" opacity=".15"/><path d="m45.391 153.46c-0.52118 0-0.94075 0.41989-0.94075 0.94107v8.7027c0 0.52123 0.41957 0.9398 0.94075 0.9398h15.052c0.52123 0 0.94086-0.41857 0.94086-0.9398v-8.7027c0-0.52118-0.41963-0.94107-0.94086-0.94107zm0.79375 1.0881 6.4384 6.4384h0.55859l6.4675-6.4384 0.64675 0.64675-3.8512 3.91 2.9104 2.9692-0.64675 0.64675-2.9692-2.9692-2.1461 2.1755h-1.3523l-2.1458-2.1749-2.9694 2.9982-0.6468-0.67627 2.9398-2.9692-3.8805-3.9098z" opacity=".15"/><path d="m68.103 151.35c-0.20903 0.0404-0.3737 0.24692-0.37 0.46302v13.887c0 0.24342 0.21812 0.46354 0.45678 0.46354h11.788c0.23918 0 0.4572-0.22012 0.4572-0.46354v-10.734c-4e-3 -0.0708-0.0243-0.1408-0.0582-0.20268l-3.5052-3.3858c-0.0455-0.018-0.0942-0.027-0.14288-0.0288h-8.5392c-0.0282-2e-3 -0.0582-2e-3 -0.0866 0zm1.7467 2.1146h6.35v1.0583h-6.35zm0 3.175h5.2917v1.0583h-5.2917zm0 3.175h8.4667v1.0583h-8.4667zm0 3.175h4.2333v1.0583h-4.2333z" color="#000000" opacity=".15" style="text-indent:0;text-transform:none"/><path d="m6.4768 152.63c-1.1782 0-2.1777 0.86164-2.1777 1.9736 8e-3 0.35146 0.0398 0.78486 0.24953 1.7014v0.0227l0.0227 0.0227c0.0673 0.19286 0.1653 0.30318 0.29489 0.4537 0.12958 0.15052 0.28409 0.32768 0.431 0.47638 0.0174 0.0176 0.0284 0.0283 0.0454 0.0454 0.0292 0.1268 0.0644 0.26325 0.0907 0.38565 0.07 0.32565 0.0628 0.55626 0.0454 0.63516-0.50628 0.17776-1.1361 0.38947-1.7013 0.63515-0.3173 0.13794-0.60442 0.26114-0.83932 0.40834-0.23488 0.1472-0.46849 0.25841-0.5444 0.58981-1e-3 0.015-1e-3 0.0303 0 0.0454-0.0742 0.68124-0.18642 1.6831-0.27221 2.3592-0.0186 0.14234 0.0565 0.29238 0.18148 0.36296 1.0262 0.55431 2.6025 0.7774 4.1738 0.77132 1.5714-6e-3 3.1352-0.24235 4.1285-0.77132 0.12498-0.0706 0.2-0.22062 0.18148-0.36296-0.0274-0.21136-0.061-0.68797-0.0907-1.1569-0.0297-0.46897-0.0555-0.93028-0.0907-1.2023-0.0122-0.0674-0.0442-0.13118-0.0907-0.18148-0.31556-0.37683-0.78703-0.60717-1.3384-0.83937-0.50335-0.21195-1.0935-0.43206-1.6786-0.68056-0.0328-0.073-0.0653-0.28524 0-0.61251 0.0176-0.0879 0.045-0.18198 0.0681-0.27222 0.055-0.0616 0.0979-0.11192 0.15878-0.18148 0.12996-0.14834 0.2696-0.30394 0.38563-0.4537 0.11602-0.14976 0.21095-0.27823 0.27221-0.4537l0.0227-0.0227c0.2371-0.95699 0.23723-1.3563 0.24953-1.7014v-0.0227c0-1.1119-0.99949-1.9736-2.1777-1.9736zm6.2293-1.811c-1.7177 0-3.1749 1.2562-3.1749 2.8773 0.0122 0.51239 0.058 1.1443 0.3638 2.4804v0.0331l0.0331 0.0331c0.0982 0.28116 0.24101 0.442 0.42994 0.66145 0.18894 0.21945 0.41418 0.47773 0.62839 0.69453 0.0252 0.0255 0.0413 0.0413 0.0661 0.0662 0.0425 0.18484 0.0939 0.38379 0.1323 0.56224 0.10204 0.47477 0.0916 0.811 0.0662 0.92604-0.73814 0.25917-1.6564 0.5678-2.4804 0.92605-0.46261 0.20111-0.88122 0.38069-1.2237 0.59531-0.34246 0.2146-0.68304 0.37674-0.79375 0.85989-2e-3 0.022-2e-3 0.0441 0 0.0662-0.10818 0.9932-0.27179 2.4538-0.39686 3.4395-0.027 0.20751 0.0824 0.42625 0.26457 0.52916 1.4961 0.80814 3.7943 1.1334 6.0854 1.1245 2.291-9e-3 4.5709-0.3533 6.0193-1.1245 0.1822-0.1029 0.29158-0.32165 0.26458-0.52916-0.04-0.30817-0.089-1.003-0.1323-1.6867-0.0433-0.68369-0.0809-1.3563-0.13228-1.7529-0.018-0.0983-0.0644-0.19124-0.1323-0.26458-0.46007-0.54938-1.1474-0.88519-1.9513-1.2237-0.73385-0.30901-1.5942-0.62992-2.4474-0.99219-0.0477-0.10638-0.0952-0.41585 0-0.89297 0.0256-0.12812 0.0656-0.26533 0.0992-0.39687 0.0802-0.0898 0.14266-0.16318 0.23151-0.26458 0.18948-0.21626 0.39307-0.44312 0.56224-0.66146 0.16916-0.21833 0.30756-0.40563 0.39687-0.66146l0.0331-0.0331c0.3457-1.3952 0.34588-1.9773 0.36381-2.4804v-0.0331c0-1.6211-1.4572-2.8773-3.175-2.8773z" color="#000000" opacity=".15" style="text-indent:0;text-transform:none"/></g><path d="m27.519 151.34c-0.58632 0-1.0583 0.47202-1.0583 1.0583v2.1167c0 0.58632 0.47202 1.0583 1.0583 1.0583 0.58632 0 1.0583-0.47202 1.0583-1.0583v-2.1167c0-0.58632-0.47202-1.0583-1.0583-1.0583zm8.4667 0c-0.58632 0-1.0583 0.47202-1.0583 1.0583v2.1167c0 0.58632 0.47202 1.0583 1.0583 1.0583 0.58632 0 1.0583-0.47202 1.0583-1.0583v-2.1167c0-0.58632-0.47202-1.0583-1.0583-1.0583zm-6.8792 2.1167v1.0583c0 0.87948-0.70803 1.5875-1.5875 1.5875-0.87948 0-1.5875-0.70803-1.5875-1.5875v-0.9922c-0.9144 0.23418-1.5875 1.0611-1.5875 2.0505v8.4667c0 1.1726 0.94404 2.1167 2.1167 2.1167h10.583c1.1726 0 2.1167-0.94404 2.1167-2.1167v-8.4667c0-0.98945-0.6731-1.8164-1.5875-2.0505v0.9922c0 0.87948-0.70803 1.5875-1.5875 1.5875-0.87948 0-1.5875-0.70803-1.5875-1.5875v-1.0583zm-3.1254 4.7625h11.542c0.02932 0 0.04958 0.0203 0.04958 0.0496v6.2506c0 0.0293-0.02032 0.0496-0.04958 0.0496h-11.542c-0.02932 0-0.04958-0.0203-0.04958-0.0496v-6.2506c0-0.0293 0.02032-0.0496 0.04958-0.0496z" opacity=".15" stroke-width=".26458"/><path d="m158.75 151.34a7.4076 7.4077 0 0 0-7.4075 7.4079 7.4076 7.4077 0 0 0 7.4075 7.4077 7.4076 7.4077 0 0 0 3.8426-1.0837c0.91042 0.36176 2.9497 1.4351 3.435 0.97148 0.50718-0.48434-0.59542-2.7639-0.85976-3.611a7.4076 7.4077 0 0 0 0.98954-3.6845 7.4076 7.4077 0 0 0-7.4074-7.4076zm8.4e-4 2.8163a4.5932 4.5933 0 0 1 4.5932 4.5933 4.5932 4.5933 0 0 1-4.5932 4.593 4.5932 4.5933 0 0 1-4.5932-4.593 4.5932 4.5933 0 0 1 4.5932-4.5933z" opacity=".15" stroke-width=".037042"/><g stroke-width=".26458"><path d="m109.37 152.4c-0.20902 0.0404-0.36756 0.24702-0.3638 0.46302v11.774c0 0.24342 0.22437 0.46356 0.46302 0.46356h13.891c0.2387-2e-5 0.46301-0.22062 0.46302-0.46302v-11.592c-5.3e-4 -0.35618-0.27993-0.64712-0.54557-0.64504zm0.69448 1.0583h12.7v5.2917l-1.0583-1.0583-3.175 4.2333-3.175-3.175-4.2333 4.2333h-1.0583zm2.6459 1.0583c-0.87678 0-1.5875 0.71072-1.5875 1.5875s0.71072 1.5875 1.5875 1.5875 1.5875-0.71072 1.5875-1.5875-0.71072-1.5875-1.5875-1.5875z" color="#000000" opacity=".15" style="text-indent:0;text-transform:none"/><path d="m88.371 152.4c-0.26458 0-0.52917 0.26458-0.52917 0.52916v11.642c0 0.27516 0.254 0.52916 0.52917 0.52916h13.758c0.27517 0 0.52917-0.25506 0.52917-0.52916v-9.525c0-0.26458-0.26459-0.52918-0.52917-0.52918h-6.8792l-2.1167-2.1167z" opacity=".15"/><path d="m137.58 150.82-5.2917 9.525h5.8208l-0.52916 6.35 5.2917-9.525h-5.8208z" opacity=".15"/><path d="m3.0572 174.63c-0.52118 0-0.94075 0.41989-0.94075 0.94107v8.7027c0 0.52123 0.41957 0.9398 0.94075 0.9398h15.052c0.52123 0 0.94086-0.41857 0.94086-0.9398v-8.7027c0-0.52118-0.41963-0.94107-0.94086-0.94107zm0.79375 1.0881 6.4384 6.4384h0.55859l6.4675-6.4384 0.64675 0.64675-3.8512 3.91 2.9104 2.9692-0.64675 0.64675-2.9692-2.9692-2.1461 2.1755h-1.3523l-2.1458-2.1749-2.9694 2.9982-0.6468-0.67627 2.9398-2.9692-3.8805-3.9098z" opacity=".15"/><path d="m25.77 172.51c-0.20903 0.0404-0.3737 0.24692-0.37 0.46302v13.887c0 0.24342 0.21812 0.46354 0.45678 0.46354h11.788c0.23918 0 0.4572-0.22012 0.4572-0.46354v-10.734c-4e-3 -0.0708-0.0243-0.1408-0.0582-0.20268l-3.5052-3.3858c-0.0455-0.018-0.0942-0.027-0.14288-0.0288h-8.5392c-0.0282-2e-3 -0.0582-2e-3 -0.0866 0zm1.7467 2.1146h6.35v1.0583h-6.35zm0 3.175h5.2917v1.0583h-5.2917zm0 3.175h8.4667v1.0583h-8.4667zm0 3.175h4.2333v1.0583h-4.2333z" color="#000000" opacity=".15" style="text-indent:0;text-transform:none"/></g><path d="m116.42 172.51a7.4076 7.4077 0 0 0-7.4075 7.4079 7.4076 7.4077 0 0 0 7.4075 7.4077 7.4076 7.4077 0 0 0 3.8426-1.0837c0.91042 0.36176 2.9497 1.4351 3.435 0.97148 0.50718-0.48434-0.59542-2.7639-0.85976-3.611a7.4076 7.4077 0 0 0 0.98954-3.6845 7.4076 7.4077 0 0 0-7.4074-7.4076zm8.4e-4 2.8163a4.5932 4.5933 0 0 1 4.5932 4.5933 4.5932 4.5933 0 0 1-4.5932 4.593 4.5932 4.5933 0 0 1-4.5932-4.593 4.5932 4.5933 0 0 1 4.5932-4.5933z" opacity=".15" stroke-width=".037042"/><g stroke-width=".26458"><path d="m67.039 173.57c-0.20902 0.0404-0.36756 0.24702-0.3638 0.46302v11.774c0 0.24342 0.22437 0.46356 0.46302 0.46356h13.891c0.2387-2e-5 0.46301-0.22062 0.46302-0.46302v-11.592c-5.3e-4 -0.35618-0.27993-0.64712-0.54557-0.64504zm0.69448 1.0583h12.7v5.2917l-1.0583-1.0583-3.175 4.2333-3.175-3.175-4.2333 4.2333h-1.0583zm2.6459 1.0583c-0.87678 0-1.5875 0.71072-1.5875 1.5875s0.71072 1.5875 1.5875 1.5875 1.5875-0.71072 1.5875-1.5875-0.71072-1.5875-1.5875-1.5875z" color="#000000" opacity=".15" style="text-indent:0;text-transform:none"/><path d="m46.037 173.57c-0.26458 0-0.52917 0.26458-0.52917 0.52916v11.642c0 0.27516 0.254 0.52916 0.52917 0.52916h13.758c0.27517 0 0.52917-0.25506 0.52917-0.52916v-9.525c0-0.26458-0.26459-0.52918-0.52917-0.52918h-6.8792l-2.1167-2.1167z" opacity=".15"/><path d="m133.48 173.79c-1.1782 0-2.1777 0.86164-2.1777 1.9736 8e-3 0.35146 0.0398 0.78486 0.24953 1.7014v0.0227l0.0227 0.0227c0.0673 0.19286 0.1653 0.30318 0.29489 0.4537 0.12958 0.15052 0.28409 0.32768 0.431 0.47638 0.0174 0.0176 0.0284 0.0283 0.0454 0.0454 0.0292 0.1268 0.0644 0.26325 0.0907 0.38565 0.07 0.32565 0.0628 0.55626 0.0454 0.63516-0.50628 0.17776-1.1361 0.38947-1.7013 0.63515-0.3173 0.13794-0.60442 0.26114-0.83932 0.40834-0.23488 0.1472-0.46849 0.25841-0.5444 0.58981-1e-3 0.015-1e-3 0.0303 0 0.0454-0.0742 0.68124-0.18642 1.6831-0.27221 2.3592-0.0186 0.14234 0.0565 0.29238 0.18148 0.36296 1.0262 0.55431 2.6025 0.7774 4.1738 0.77132 1.5714-6e-3 3.1352-0.24235 4.1285-0.77132 0.12498-0.0706 0.2-0.22062 0.18148-0.36296-0.0274-0.21136-0.061-0.68797-0.0907-1.1569-0.0297-0.46897-0.0555-0.93028-0.0907-1.2023-0.0122-0.0674-0.0442-0.13118-0.0907-0.18148-0.31556-0.37683-0.78703-0.60717-1.3384-0.83937-0.50335-0.21195-1.0935-0.43206-1.6786-0.68056-0.0328-0.073-0.0653-0.28524 0-0.61251 0.0176-0.0879 0.045-0.18198 0.0681-0.27222 0.055-0.0616 0.0979-0.11192 0.15878-0.18148 0.12996-0.14834 0.2696-0.30394 0.38563-0.4537 0.11602-0.14976 0.21095-0.27823 0.27221-0.4537l0.0227-0.0227c0.2371-0.95699 0.23723-1.3563 0.24953-1.7014v-0.0227c0-1.1119-0.99949-1.9736-2.1777-1.9736zm6.2294-1.811c-1.7177 0-3.175 1.2562-3.175 2.8773 0.0122 0.51239 0.058 1.1443 0.3638 2.4804v0.0331l0.0331 0.0331c0.0982 0.28116 0.24101 0.442 0.42994 0.66145 0.18894 0.21945 0.41418 0.47773 0.62839 0.69453 0.0252 0.0255 0.0413 0.0413 0.0661 0.0662 0.0425 0.18484 0.0939 0.38379 0.1323 0.56224 0.10204 0.47477 0.0916 0.811 0.0662 0.92604-0.73814 0.25917-1.6564 0.5678-2.4804 0.92605-0.46261 0.20111-0.88122 0.38069-1.2237 0.59531-0.34246 0.2146-0.68304 0.37674-0.79375 0.85989-2e-3 0.022-2e-3 0.0441 0 0.0662-0.10818 0.9932-0.27179 2.4538-0.39686 3.4395-0.027 0.20751 0.0824 0.42625 0.26457 0.52916 1.4961 0.80814 3.7943 1.1334 6.0854 1.1245 2.291-9e-3 4.5709-0.3533 6.0193-1.1245 0.1822-0.1029 0.29158-0.32165 0.26458-0.52916-0.04-0.30817-0.089-1.003-0.1323-1.6867-0.0433-0.68369-0.0809-1.3563-0.13228-1.7529-0.018-0.0983-0.0644-0.19124-0.1323-0.26458-0.46007-0.54938-1.1474-0.88519-1.9513-1.2237-0.73385-0.30901-1.5942-0.62992-2.4474-0.99219-0.0477-0.10638-0.0952-0.41585 0-0.89297 0.0256-0.12812 0.0656-0.26533 0.0992-0.39687 0.0802-0.0898 0.14266-0.16318 0.23151-0.26458 0.18948-0.21626 0.39307-0.44312 0.56224-0.66146 0.16916-0.21833 0.30756-0.40563 0.39687-0.66146l0.0331-0.0331c0.3457-1.3952 0.34588-1.9773 0.36381-2.4804v-0.0331c0-1.6211-1.4572-2.8773-3.175-2.8773z" color="#000000" opacity=".15" style="text-indent:0;text-transform:none"/></g><path d="m154.52 172.51c-0.58632 0-1.0583 0.47202-1.0583 1.0583v2.1167c0 0.58632 0.47202 1.0583 1.0583 1.0583s1.0583-0.47202 1.0583-1.0583v-2.1167c0-0.58632-0.47202-1.0583-1.0583-1.0583zm8.4667 0c-0.58632 0-1.0583 0.47202-1.0583 1.0583v2.1167c0 0.58632 0.47202 1.0583 1.0583 1.0583s1.0583-0.47202 1.0583-1.0583v-2.1167c0-0.58632-0.47202-1.0583-1.0583-1.0583zm-6.8792 2.1167v1.0583c0 0.87948-0.70803 1.5875-1.5875 1.5875s-1.5875-0.70803-1.5875-1.5875v-0.9922c-0.91441 0.23418-1.5875 1.0611-1.5875 2.0505v8.4667c0 1.1726 0.94404 2.1167 2.1167 2.1167h10.583c1.1726 0 2.1167-0.94404 2.1167-2.1167v-8.4667c0-0.98945-0.6731-1.8164-1.5875-2.0505v0.9922c0 0.87948-0.70803 1.5875-1.5875 1.5875s-1.5875-0.70803-1.5875-1.5875v-1.0583zm-3.1254 4.7625h11.542c0.0293 0 0.0496 0.0203 0.0496 0.0496v6.2506c0 0.0293-0.0203 0.0496-0.0496 0.0496h-11.542c-0.0293 0-0.0496-0.0203-0.0496-0.0496v-6.2506c0-0.0293 0.0203-0.0496 0.0496-0.0496z" opacity=".15" stroke-width=".26458"/><path d="m95.25 171.98-5.2917 9.525h5.8208l-0.52916 6.35 5.2917-9.525h-5.8208z" opacity=".15" stroke-width=".26458"/><path d="m130.06 195.79c-0.52118 0-0.94075 0.41989-0.94075 0.94107v8.7027c0 0.52123 0.41957 0.9398 0.94075 0.9398h15.052c0.52123 0 0.94086-0.41857 0.94086-0.9398v-8.7027c0-0.52118-0.41963-0.94107-0.94086-0.94107zm0.79375 1.0881 6.4384 6.4384h0.55859l6.4675-6.4384 0.64675 0.64675-3.8512 3.91 2.9104 2.9692-0.64675 0.64675-2.9692-2.9692-2.1461 2.1755h-1.3523l-2.1458-2.1749-2.9694 2.9982-0.6468-0.67627 2.9398-2.9692-3.8805-3.9098z" opacity=".15" stroke-width=".26458"/><path d="m74.082 193.68a7.4076 7.4077 0 0 0-7.4075 7.4079 7.4076 7.4077 0 0 0 7.4075 7.4077 7.4076 7.4077 0 0 0 3.8426-1.0837c0.91042 0.36176 2.9497 1.4351 3.435 0.97148 0.50718-0.48434-0.59542-2.7639-0.85976-3.611a7.4076 7.4077 0 0 0 0.98954-3.6845 7.4076 7.4077 0 0 0-7.4074-7.4076zm8.4e-4 2.8163a4.5932 4.5933 0 0 1 4.5932 4.5933 4.5932 4.5933 0 0 1-4.5932 4.593 4.5932 4.5933 0 0 1-4.5932-4.593 4.5932 4.5933 0 0 1 4.5932-4.5933z" opacity=".15" stroke-width=".037042"/><g stroke-width=".26458"><path d="m24.705 194.74c-0.20902 0.0404-0.36756 0.24702-0.3638 0.46302v11.774c0 0.24342 0.22437 0.46356 0.46302 0.46356h13.891c0.2387-2e-5 0.46301-0.22062 0.46302-0.46302v-11.592c-5.3e-4 -0.35618-0.27993-0.64712-0.54557-0.64504zm0.69448 1.0583h12.7v5.2917l-1.0583-1.0583-3.175 4.2333-3.175-3.175-4.2333 4.2333h-1.0583zm2.6459 1.0583c-0.87678 0-1.5875 0.71072-1.5875 1.5875s0.71072 1.5875 1.5875 1.5875 1.5875-0.71072 1.5875-1.5875-0.71072-1.5875-1.5875-1.5875z" color="#000000" opacity=".15" style="text-indent:0;text-transform:none"/><path d="m152.77 193.68c-0.20903 0.0404-0.3737 0.24692-0.37 0.46302v13.887c0 0.24342 0.21812 0.46354 0.45678 0.46354h11.788c0.23918 0 0.4572-0.22012 0.4572-0.46354v-10.734c-4e-3 -0.0708-0.0243-0.1408-0.0582-0.20268l-3.5052-3.3858c-0.0455-0.018-0.0942-0.027-0.14288-0.0288h-8.5392c-0.0282-2e-3 -0.0582-2e-3 -0.0866 0zm1.7467 2.1146h6.35v1.0583h-6.35zm0 3.175h5.2917v1.0583h-5.2917zm0 3.175h8.4667v1.0583h-8.4667zm0 3.175h4.2333v1.0583h-4.2333z" color="#000000" opacity=".15" style="text-indent:0;text-transform:none"/><path d="m3.7039 194.74c-0.26458 0-0.52917 0.26458-0.52917 0.52916v11.642c0 0.27516 0.254 0.52916 0.52917 0.52916h13.758c0.27517 0 0.52917-0.25506 0.52917-0.52916v-9.525c0-0.26458-0.26459-0.52918-0.52917-0.52918h-6.8792l-2.1167-2.1167z" opacity=".15"/><path d="m91.143 194.96c-1.1782 0-2.1777 0.86164-2.1777 1.9736 8e-3 0.35146 0.0398 0.78486 0.24953 1.7014v0.0227l0.0227 0.0227c0.0673 0.19286 0.1653 0.30318 0.29489 0.4537 0.12958 0.15052 0.28409 0.32768 0.431 0.47638 0.0174 0.0176 0.0284 0.0283 0.0454 0.0454 0.0292 0.1268 0.0644 0.26325 0.0907 0.38565 0.07 0.32565 0.0628 0.55626 0.0454 0.63516-0.50628 0.17776-1.1361 0.38947-1.7013 0.63515-0.3173 0.13794-0.60442 0.26114-0.83932 0.40834-0.23488 0.1472-0.46849 0.25841-0.5444 0.58981-1e-3 0.015-1e-3 0.0303 0 0.0454-0.0742 0.68124-0.18642 1.6831-0.27221 2.3592-0.0186 0.14234 0.0565 0.29238 0.18148 0.36296 1.0262 0.55431 2.6025 0.7774 4.1738 0.77132 1.5714-6e-3 3.1352-0.24235 4.1285-0.77132 0.12498-0.0706 0.2-0.22062 0.18148-0.36296-0.0274-0.21136-0.061-0.68797-0.0907-1.1569-0.0297-0.46897-0.0555-0.93028-0.0907-1.2023-0.0122-0.0674-0.0442-0.13118-0.0907-0.18148-0.31556-0.37683-0.78703-0.60717-1.3384-0.83937-0.50335-0.21195-1.0935-0.43206-1.6786-0.68056-0.0328-0.073-0.0653-0.28524 0-0.61251 0.0176-0.0879 0.045-0.18198 0.0681-0.27222 0.055-0.0616 0.0979-0.11192 0.15878-0.18148 0.12996-0.14834 0.2696-0.30394 0.38563-0.4537 0.11602-0.14976 0.21095-0.27823 0.27221-0.4537l0.0227-0.0227c0.2371-0.95699 0.23723-1.3563 0.24953-1.7014v-0.0227c0-1.1119-0.99949-1.9736-2.1777-1.9736zm6.2294-1.811c-1.7177 0-3.175 1.2562-3.175 2.8773 0.0122 0.51239 0.058 1.1443 0.3638 2.4804v0.0331l0.0331 0.0331c0.0982 0.28116 0.24101 0.442 0.42994 0.66145 0.18894 0.21945 0.41418 0.47773 0.62839 0.69453 0.0252 0.0255 0.0413 0.0413 0.0661 0.0662 0.0425 0.18484 0.0939 0.38379 0.1323 0.56224 0.10204 0.47477 0.0916 0.811 0.0662 0.92604-0.73814 0.25917-1.6564 0.5678-2.4804 0.92605-0.46261 0.20111-0.88122 0.38069-1.2237 0.59531-0.34246 0.2146-0.68304 0.37674-0.79375 0.85989-2e-3 0.022-2e-3 0.0441 0 0.0662-0.10818 0.9932-0.27179 2.4538-0.39686 3.4395-0.027 0.20751 0.0824 0.42625 0.26457 0.52916 1.4961 0.80814 3.7943 1.1334 6.0854 1.1245 2.291-9e-3 4.5709-0.3533 6.0193-1.1245 0.1822-0.1029 0.29158-0.32165 0.26458-0.52916-0.04-0.30817-0.089-1.003-0.1323-1.6867-0.0433-0.68369-0.0809-1.3563-0.13228-1.7529-0.018-0.0983-0.0644-0.19124-0.1323-0.26458-0.46007-0.54938-1.1474-0.88519-1.9513-1.2237-0.73385-0.30901-1.5942-0.62992-2.4473-0.99219-0.0477-0.10638-0.0952-0.41585 0-0.89297 0.0256-0.12812 0.0656-0.26533 0.0992-0.39687 0.0802-0.0898 0.14266-0.16318 0.23151-0.26458 0.18948-0.21626 0.39307-0.44312 0.56224-0.66146 0.16916-0.21833 0.30756-0.40563 0.39687-0.66146l0.0331-0.0331c0.3457-1.3952 0.34588-1.9773 0.36381-2.4804v-0.0331c0-1.6211-1.4572-2.8773-3.1749-2.8773z" color="#000000" opacity=".15" style="text-indent:0;text-transform:none"/><path d="m112.18 193.68c-0.58632 0-1.0583 0.47202-1.0583 1.0583v2.1167c0 0.58632 0.47201 1.0583 1.0583 1.0583s1.0583-0.47202 1.0583-1.0583v-2.1167c0-0.58632-0.47201-1.0583-1.0583-1.0583zm8.4667 0c-0.58632 0-1.0583 0.47202-1.0583 1.0583v2.1167c0 0.58632 0.47202 1.0583 1.0583 1.0583 0.58631 0 1.0583-0.47202 1.0583-1.0583v-2.1167c0-0.58632-0.47202-1.0583-1.0583-1.0583zm-6.8792 2.1167v1.0583c0 0.87948-0.70802 1.5875-1.5875 1.5875-0.87947 0-1.5875-0.70802-1.5875-1.5875v-0.99218c-0.9144 0.23417-1.5875 1.0611-1.5875 2.0505v8.4667c0 1.1726 0.94403 2.1167 2.1167 2.1167h10.583c1.1726 0 2.1167-0.94403 2.1167-2.1167v-8.4667c0-0.98944-0.6731-1.8164-1.5875-2.0505v0.99218c0 0.87948-0.70803 1.5875-1.5875 1.5875-0.87948 0-1.5875-0.70802-1.5875-1.5875v-1.0583zm-3.1254 4.7625h11.542c0.0293 0 0.0496 0.0203 0.0496 0.0496v6.2505c0 0.0293-0.0203 0.0496-0.0496 0.0496h-11.542c-0.0293 0-0.0496-0.0203-0.0496-0.0496v-6.2505c0-0.0293 0.0203-0.0496 0.0496-0.0496z" opacity=".15"/><path d="m52.916 193.15-5.2917 9.525h5.8208l-0.52916 6.35 5.2917-9.525h-5.8208z" opacity=".15"/><path d="m87.724 216.96c-0.52118 0-0.94075 0.41989-0.94075 0.94107v8.7027c0 0.52123 0.41957 0.9398 0.94075 0.9398h15.052c0.52123 0 0.94086-0.41857 0.94086-0.9398v-8.7027c0-0.52118-0.41963-0.94107-0.94086-0.94107zm0.79375 1.0881 6.4384 6.4384h0.55859l6.4675-6.4384 0.64675 0.64675-3.8512 3.91 2.9104 2.9692-0.64675 0.64675-2.9692-2.9692-2.1461 2.1755h-1.3523l-2.1458-2.1749-2.9694 2.9982-0.6468-0.67627 2.9398-2.9692-3.8805-3.9098z" opacity=".15"/></g><path d="m31.749 214.84a7.4076 7.4077 0 0 0-7.4075 7.4079 7.4076 7.4077 0 0 0 7.4075 7.4077 7.4076 7.4077 0 0 0 3.8426-1.0837c0.91042 0.36176 2.9497 1.4351 3.435 0.97148 0.50718-0.48434-0.59542-2.7639-0.85976-3.611a7.4076 7.4077 0 0 0 0.98954-3.6845 7.4076 7.4077 0 0 0-7.4074-7.4076zm8.4e-4 2.8163a4.5932 4.5933 0 0 1 4.5932 4.5933 4.5932 4.5933 0 0 1-4.5932 4.593 4.5932 4.5933 0 0 1-4.5932-4.593 4.5932 4.5933 0 0 1 4.5932-4.5933z" opacity=".15" stroke-width=".037042"/><path d="m110.44 214.85c-0.20903 0.0404-0.3737 0.24692-0.37 0.46302v13.887c0 0.24342 0.21812 0.46354 0.45678 0.46354h11.788c0.23918 0 0.4572-0.22012 0.4572-0.46354v-10.734c-4e-3 -0.0708-0.0243-0.1408-0.0582-0.20268l-3.5052-3.3858c-0.0455-0.018-0.0942-0.027-0.14288-0.0288h-8.5392c-0.0282-2e-3 -0.0582-2e-3 -0.0866 0zm1.7467 2.1146h6.35v1.0583h-6.35zm0 3.175h5.2917v1.0583h-5.2917zm0 3.175h8.4667v1.0583h-8.4667zm0 3.175h4.2333v1.0583h-4.2333z" color="#000000" opacity=".15" stroke-width=".26458" style="text-indent:0;text-transform:none"/><path d="m48.81 216.13c-1.1782 0-2.1777 0.86164-2.1777 1.9736 8e-3 0.35146 0.0398 0.78486 0.24953 1.7014v0.0227l0.0227 0.0227c0.0673 0.19286 0.1653 0.30318 0.29489 0.4537 0.12958 0.15052 0.28409 0.32768 0.431 0.47638 0.0174 0.0176 0.0284 0.0283 0.0454 0.0454 0.0292 0.1268 0.0644 0.26325 0.0907 0.38565 0.07 0.32565 0.0628 0.55626 0.0454 0.63516-0.50628 0.17776-1.1361 0.38947-1.7013 0.63515-0.3173 0.13794-0.60442 0.26114-0.83932 0.40834-0.23488 0.1472-0.46849 0.25841-0.5444 0.58981-1e-3 0.015-1e-3 0.0303 0 0.0454-0.0742 0.68124-0.18642 1.6831-0.27221 2.3592-0.0186 0.14234 0.0565 0.29238 0.18148 0.36296 1.0262 0.55431 2.6025 0.7774 4.1738 0.77132 1.5714-6e-3 3.1352-0.24235 4.1285-0.77132 0.12498-0.0706 0.2-0.22062 0.18148-0.36296-0.0274-0.21136-0.061-0.68797-0.0907-1.1569-0.0297-0.46897-0.0555-0.93028-0.0907-1.2023-0.0122-0.0674-0.0442-0.13118-0.0907-0.18148-0.31556-0.37683-0.78703-0.60717-1.3384-0.83937-0.50335-0.21195-1.0935-0.43206-1.6786-0.68056-0.0328-0.073-0.0653-0.28524 0-0.61251 0.0176-0.0879 0.045-0.18198 0.0681-0.27222 0.055-0.0616 0.0979-0.11192 0.15878-0.18148 0.12996-0.14834 0.2696-0.30394 0.38563-0.4537 0.11602-0.14976 0.21095-0.27823 0.27221-0.4537l0.0227-0.0227c0.2371-0.95699 0.23723-1.3563 0.24953-1.7014v-0.0227c0-1.1119-0.99949-1.9736-2.1777-1.9736zm6.2294-1.811c-1.7177 0-3.175 1.2562-3.175 2.8773 0.0122 0.51239 0.058 1.1443 0.3638 2.4804v0.0331l0.0331 0.0331c0.0982 0.28116 0.24101 0.442 0.42994 0.66145 0.18894 0.21945 0.41418 0.47773 0.62839 0.69453 0.0252 0.0255 0.0413 0.0413 0.0661 0.0662 0.0425 0.18484 0.0939 0.38379 0.1323 0.56224 0.10204 0.47477 0.0916 0.811 0.0662 0.92604-0.73814 0.25917-1.6564 0.5678-2.4804 0.92605-0.46261 0.20111-0.88122 0.38069-1.2237 0.59531-0.34246 0.2146-0.68304 0.37674-0.79375 0.85989-2e-3 0.022-2e-3 0.0441 0 0.0662-0.10818 0.9932-0.27179 2.4538-0.39686 3.4395-0.027 0.20751 0.0824 0.42625 0.26457 0.52916 1.4961 0.80814 3.7943 1.1334 6.0854 1.1245 2.291-9e-3 4.5709-0.3533 6.0193-1.1245 0.1822-0.1029 0.29158-0.32165 0.26458-0.52916-0.04-0.30817-0.089-1.003-0.1323-1.6867-0.0433-0.68369-0.0809-1.3563-0.13228-1.7529-0.018-0.0983-0.0644-0.19124-0.1323-0.26458-0.46007-0.54938-1.1474-0.88519-1.9513-1.2237-0.73385-0.30901-1.5942-0.62992-2.4474-0.99219-0.0477-0.10638-0.0952-0.41585 0-0.89297 0.0256-0.12812 0.0656-0.26533 0.0992-0.39687 0.0802-0.0898 0.14266-0.16318 0.23151-0.26458 0.18948-0.21626 0.39307-0.44312 0.56224-0.66146 0.16916-0.21833 0.30756-0.40563 0.39687-0.66146l0.0331-0.0331c0.3457-1.3952 0.34588-1.9773 0.36381-2.4804v-0.0331c0-1.6211-1.4572-2.8773-3.175-2.8773z" color="#000000" opacity=".15" stroke-width=".26458" style="text-indent:0;text-transform:none"/><path d="m69.849 214.84c-0.58632 0-1.0583 0.47202-1.0583 1.0583v2.1167c0 0.58632 0.47202 1.0583 1.0583 1.0583 0.58632 0 1.0583-0.47202 1.0583-1.0583v-2.1167c0-0.58632-0.47202-1.0583-1.0583-1.0583zm8.4667 0c-0.58632 0-1.0583 0.47202-1.0583 1.0583v2.1167c0 0.58632 0.47202 1.0583 1.0583 1.0583 0.58632 0 1.0583-0.47202 1.0583-1.0583v-2.1167c0-0.58632-0.47202-1.0583-1.0583-1.0583zm-6.8792 2.1167v1.0583c0 0.87948-0.70803 1.5875-1.5875 1.5875-0.87948 0-1.5875-0.70803-1.5875-1.5875v-0.9922c-0.9144 0.23418-1.5875 1.0611-1.5875 2.0505v8.4667c0 1.1726 0.94404 2.1167 2.1167 2.1167h10.583c1.1726 0 2.1167-0.94404 2.1167-2.1167v-8.4667c0-0.98945-0.6731-1.8164-1.5875-2.0505v0.9922c0 0.87948-0.70803 1.5875-1.5875 1.5875-0.87948 0-1.5875-0.70803-1.5875-1.5875v-1.0583zm-3.1254 4.7625h11.542c0.02932 0 0.04958 0.0203 0.04958 0.0496v6.2506c0 0.0293-0.02032 0.0496-0.04958 0.0496h-11.542c-0.02932 0-0.04958-0.0203-0.04958-0.0496v-6.2506c0-0.0293 0.02032-0.0496 0.04958-0.0496z" opacity=".15" stroke-width=".26458"/><g stroke-width=".26458"><path d="m10.583 214.32-5.2917 9.525h5.8208l-0.52916 6.35 5.2917-9.525h-5.8208z" opacity=".15"/><path d="m151.71 215.9c-0.20902 0.0404-0.36756 0.24702-0.3638 0.46302v11.774c0 0.24342 0.22437 0.46356 0.46302 0.46356h13.891c0.2387-2e-5 0.46301-0.22062 0.46302-0.46302v-11.592c-5.3e-4 -0.35618-0.27993-0.64712-0.54557-0.64504zm0.69448 1.0583h12.7v5.2917l-1.0583-1.0583-3.175 4.2333-3.175-3.175-4.2333 4.2333h-1.0583zm2.6459 1.0583c-0.87678 0-1.5875 0.71072-1.5875 1.5875s0.71072 1.5875 1.5875 1.5875 1.5875-0.71072 1.5875-1.5875-0.71072-1.5875-1.5875-1.5875z" color="#000000" opacity=".15" style="text-indent:0;text-transform:none"/><path d="m130.7 215.9c-0.26458 0-0.52917 0.26458-0.52917 0.52916v11.642c0 0.27516 0.254 0.52916 0.52917 0.52916h13.758c0.27517 0 0.52917-0.25506 0.52917-0.52916v-9.525c0-0.26458-0.26459-0.52918-0.52917-0.52918h-6.8792l-2.1167-2.1167z" opacity=".15"/><path d="m24.224 238.13c-0.52118 0-0.94075 0.4199-0.94075 0.94107v8.7027c0 0.52123 0.41957 0.93979 0.94075 0.93979h15.052c0.52123 0 0.94086-0.41856 0.94086-0.93979v-8.7027c0-0.52117-0.41963-0.94107-0.94086-0.94107zm0.79375 1.0881 6.4384 6.4384h0.55859l6.4675-6.4384 0.64675 0.64675-3.8512 3.91 2.9104 2.9692-0.64675 0.64675-2.9692-2.9692-2.1461 2.1755h-1.3523l-2.1458-2.1749-2.9694 2.9982-0.6468-0.67627 2.9398-2.9692-3.8805-3.9098z" opacity=".15"/><path d="m46.936 236.01c-0.20903 0.0404-0.3737 0.24692-0.37 0.46302v13.887c0 0.24342 0.21812 0.46354 0.45678 0.46354h11.788c0.23918 0 0.4572-0.22012 0.4572-0.46354v-10.734c-4e-3 -0.0708-0.0243-0.1408-0.0582-0.20267l-3.5052-3.3858c-0.0455-0.018-0.0942-0.027-0.14288-0.0288h-8.5392c-0.0282-2e-3 -0.0582-2e-3 -0.0866 0zm1.7467 2.1146h6.35v1.0583h-6.35zm0 3.175h5.2917v1.0583h-5.2917zm0 3.175h8.4667v1.0583h-8.4667zm0 3.175h4.2333v1.0583h-4.2333z" color="#000000" opacity=".15" style="text-indent:0;text-transform:none"/></g><path d="m6.349 236.01c-0.58632 0-1.0583 0.47202-1.0583 1.0583v2.1167c0 0.58632 0.47202 1.0583 1.0583 1.0583s1.0583-0.47202 1.0583-1.0583v-2.1167c0-0.58632-0.47202-1.0583-1.0583-1.0583zm8.4667 0c-0.58632 0-1.0583 0.47202-1.0583 1.0583v2.1167c0 0.58632 0.47202 1.0583 1.0583 1.0583 0.58632 0 1.0583-0.47202 1.0583-1.0583v-2.1167c0-0.58632-0.47202-1.0583-1.0583-1.0583zm-6.8792 2.1167v1.0583c0 0.87948-0.70803 1.5875-1.5875 1.5875s-1.5875-0.70803-1.5875-1.5875v-0.9922c-0.91441 0.23418-1.5875 1.0611-1.5875 2.0505v8.4667c0 1.1726 0.94404 2.1167 2.1167 2.1167h10.583c1.1726 0 2.1167-0.94404 2.1167-2.1167v-8.4667c0-0.98945-0.6731-1.8164-1.5875-2.0505v0.9922c0 0.87948-0.70803 1.5875-1.5875 1.5875-0.87948 0-1.5875-0.70803-1.5875-1.5875v-1.0583zm-3.1254 4.7625h11.542c0.02932 0 0.04958 0.0203 0.04958 0.0496v6.2506c0 0.0293-0.02032 0.0496-0.04958 0.0496h-11.542c-0.029316 0-0.049583-0.0203-0.049583-0.0496v-6.2506c0-0.0293 0.02032-0.0496 0.049583-0.0496z" opacity=".15" stroke-width=".26458"/><path d="m137.58 236.01a7.4076 7.4077 0 0 0-7.4075 7.4079 7.4076 7.4077 0 0 0 7.4075 7.4077 7.4076 7.4077 0 0 0 3.8426-1.0837c0.91042 0.36176 2.9497 1.4351 3.435 0.97148 0.50718-0.48434-0.59542-2.7639-0.85976-3.611a7.4076 7.4077 0 0 0 0.98954-3.6845 7.4076 7.4077 0 0 0-7.4074-7.4076zm8.4e-4 2.8163a4.5932 4.5933 0 0 1 4.5932 4.5933 4.5932 4.5933 0 0 1-4.5932 4.593 4.5932 4.5933 0 0 1-4.5932-4.593 4.5932 4.5933 0 0 1 4.5932-4.5933z" opacity=".15" stroke-width=".037042"/><g stroke-width=".26458"><path d="m88.205 237.07c-0.20902 0.0404-0.36756 0.24702-0.3638 0.46302v11.774c0 0.24342 0.22437 0.46356 0.46302 0.46356h13.891c0.2387-2e-5 0.46301-0.22062 0.46302-0.46302v-11.592c-5.3e-4 -0.35618-0.27993-0.64712-0.54557-0.64504zm0.69448 1.0583h12.7v5.2917l-1.0583-1.0583-3.175 4.2333-3.175-3.175-4.2333 4.2333h-1.0583zm2.6459 1.0583c-0.87678 0-1.5875 0.71072-1.5875 1.5875s0.71072 1.5875 1.5875 1.5875 1.5875-0.71072 1.5875-1.5875-0.71072-1.5875-1.5875-1.5875z" color="#000000" opacity=".15" style="text-indent:0;text-transform:none"/><path d="m67.204 237.07c-0.26458 0-0.52917 0.26458-0.52917 0.52916v11.642c0 0.27516 0.254 0.52916 0.52917 0.52916h13.758c0.27517 0 0.52917-0.25506 0.52917-0.52916v-9.525c0-0.26458-0.26459-0.52918-0.52917-0.52918h-6.8792l-2.1167-2.1167z" opacity=".15"/><path d="m154.64 237.29c-1.1782 0-2.1777 0.86164-2.1777 1.9736 8e-3 0.35146 0.0398 0.78486 0.24953 1.7014v0.0227l0.0227 0.0227c0.0673 0.19286 0.1653 0.30318 0.29489 0.4537 0.12958 0.15052 0.28409 0.32768 0.431 0.47638 0.0174 0.0176 0.0284 0.0283 0.0454 0.0454 0.0292 0.1268 0.0644 0.26325 0.0907 0.38565 0.07 0.32565 0.0628 0.55626 0.0454 0.63516-0.50628 0.17776-1.1361 0.38947-1.7013 0.63515-0.3173 0.13794-0.60442 0.26114-0.83932 0.40834-0.23488 0.1472-0.46849 0.25841-0.5444 0.58981-1e-3 0.015-1e-3 0.0303 0 0.0454-0.0742 0.68124-0.18642 1.6831-0.27221 2.3592-0.0186 0.14234 0.0565 0.29238 0.18148 0.36296 1.0262 0.55431 2.6025 0.7774 4.1738 0.77132 1.5714-6e-3 3.1352-0.24235 4.1285-0.77132 0.12498-0.0706 0.2-0.22062 0.18148-0.36296-0.0274-0.21136-0.061-0.68797-0.0907-1.1569-0.0297-0.46897-0.0555-0.93028-0.0907-1.2023-0.0122-0.0674-0.0442-0.13118-0.0907-0.18148-0.31556-0.37683-0.78703-0.60717-1.3384-0.83937-0.50335-0.21195-1.0935-0.43206-1.6786-0.68056-0.0328-0.073-0.0653-0.28524 0-0.61251 0.0176-0.0879 0.045-0.18198 0.0681-0.27222 0.055-0.0616 0.0979-0.11192 0.15878-0.18148 0.12996-0.14833 0.2696-0.30394 0.38563-0.4537 0.11602-0.14975 0.21095-0.27823 0.27221-0.4537l0.0227-0.0227c0.2371-0.95699 0.23723-1.3563 0.24953-1.7014v-0.0227c0-1.1119-0.99949-1.9736-2.1777-1.9736zm6.2294-1.811c-1.7177 0-3.175 1.2562-3.175 2.8773 0.0122 0.51239 0.058 1.1443 0.3638 2.4804v0.0331l0.0331 0.0331c0.0982 0.28116 0.24101 0.442 0.42994 0.66145 0.18894 0.21945 0.41418 0.47773 0.62839 0.69453 0.0252 0.0255 0.0413 0.0413 0.0661 0.0662 0.0425 0.18484 0.0939 0.38379 0.1323 0.56224 0.10204 0.47477 0.0916 0.811 0.0662 0.92604-0.73814 0.25917-1.6564 0.5678-2.4804 0.92605-0.46261 0.20111-0.88122 0.38069-1.2237 0.59531-0.34246 0.2146-0.68304 0.37674-0.79375 0.85989-2e-3 0.022-2e-3 0.0441 0 0.0662-0.10818 0.9932-0.27179 2.4538-0.39686 3.4395-0.027 0.20751 0.0824 0.42625 0.26457 0.52916 1.4961 0.80814 3.7943 1.1334 6.0854 1.1245 2.291-9e-3 4.5709-0.3533 6.0193-1.1245 0.1822-0.1029 0.29158-0.32165 0.26458-0.52916-0.04-0.30817-0.089-1.003-0.1323-1.6867-0.0433-0.68369-0.0809-1.3563-0.13228-1.7529-0.018-0.0983-0.0644-0.19124-0.1323-0.26458-0.46007-0.54938-1.1474-0.88519-1.9513-1.2237-0.73385-0.30901-1.5942-0.62992-2.4474-0.99219-0.0477-0.10638-0.0952-0.41585 0-0.89297 0.0256-0.12811 0.0656-0.26533 0.0992-0.39687 0.0802-0.0898 0.14266-0.16318 0.23151-0.26458 0.18948-0.21626 0.39307-0.44311 0.56224-0.66146 0.16916-0.21833 0.30756-0.40563 0.39687-0.66146l0.0331-0.0331c0.3457-1.3952 0.34588-1.9773 0.36381-2.4804v-0.0331c0-1.6211-1.4572-2.8773-3.175-2.8773z" color="#000000" opacity=".15" style="text-indent:0;text-transform:none"/><path d="m116.42 235.48-5.2917 9.525h5.8208l-0.52916 6.35 5.2917-9.525h-5.8208z" opacity=".15"/><path d="m108.89 259.29c-0.52118 0-0.94075 0.41989-0.94075 0.94107v8.7027c0 0.52123 0.41957 0.9398 0.94075 0.9398h15.052c0.52123 0 0.94086-0.41857 0.94086-0.9398v-8.7027c0-0.52118-0.41963-0.94107-0.94086-0.94107zm0.79375 1.0881 6.4384 6.4384h0.55859l6.4675-6.4384 0.64675 0.64675-3.8512 3.91 2.9104 2.9692-0.64675 0.64675-2.9692-2.9692-2.1461 2.1755h-1.3523l-2.1458-2.1749-2.9694 2.9982-0.6468-0.67627 2.9398-2.9692-3.8805-3.9098z" opacity=".15"/></g><path d="m52.916 257.18a7.4076 7.4077 0 0 0-7.4075 7.4079 7.4076 7.4077 0 0 0 7.4075 7.4077 7.4076 7.4077 0 0 0 3.8426-1.0837c0.91042 0.36176 2.9497 1.4351 3.435 0.97148 0.50718-0.48434-0.59542-2.7639-0.85976-3.611a7.4076 7.4077 0 0 0 0.98954-3.6845 7.4076 7.4077 0 0 0-7.4074-7.4076zm8.4e-4 2.8163a4.5932 4.5933 0 0 1 4.5932 4.5933 4.5932 4.5933 0 0 1-4.5932 4.593 4.5932 4.5933 0 0 1-4.5932-4.593 4.5932 4.5933 0 0 1 4.5932-4.5933z" opacity=".15" stroke-width=".037042"/><g stroke-width=".26458"><path d="m3.5386 258.24c-0.20902 0.0404-0.36756 0.24702-0.3638 0.46302v11.774c0 0.24342 0.22437 0.46356 0.46302 0.46356h13.891c0.2387-2e-5 0.46301-0.22062 0.46302-0.46302v-11.592c-5.3e-4 -0.35618-0.27993-0.64712-0.54557-0.64504zm0.69448 1.0583h12.7v5.2917l-1.0583-1.0583-3.175 4.2333-3.175-3.175-4.2333 4.2333h-1.0583zm2.6459 1.0583c-0.87678 0-1.5875 0.71072-1.5875 1.5875s0.71072 1.5875 1.5875 1.5875 1.5875-0.71072 1.5875-1.5875-0.71072-1.5875-1.5875-1.5875z" color="#000000" opacity=".15" style="text-indent:0;text-transform:none"/><path d="m131.6 257.18c-0.20903 0.0404-0.3737 0.24692-0.37 0.46302v13.887c0 0.24342 0.21812 0.46354 0.45678 0.46354h11.788c0.23918 0 0.4572-0.22012 0.4572-0.46354v-10.734c-4e-3 -0.0708-0.0243-0.1408-0.0582-0.20268l-3.5052-3.3858c-0.0455-0.018-0.0942-0.027-0.14288-0.0288h-8.5392c-0.0282-2e-3 -0.0582-2e-3 -0.0866 0zm1.7467 2.1146h6.35v1.0583h-6.35zm0 3.175h5.2917v1.0583h-5.2917zm0 3.175h8.4667v1.0583h-8.4667zm0 3.175h4.2333v1.0583h-4.2333z" color="#000000" opacity=".15" style="text-indent:0;text-transform:none"/><path d="m69.977 258.46c-1.1782 0-2.1777 0.86164-2.1777 1.9736 8e-3 0.35146 0.0398 0.78486 0.24953 1.7014v0.0227l0.0227 0.0227c0.0673 0.19286 0.1653 0.30318 0.29489 0.4537 0.12958 0.15052 0.28409 0.32768 0.431 0.47638 0.0174 0.0176 0.0284 0.0283 0.0454 0.0454 0.0292 0.1268 0.0644 0.26325 0.0907 0.38565 0.07 0.32565 0.0628 0.55626 0.0454 0.63516-0.50628 0.17776-1.1361 0.38947-1.7013 0.63515-0.3173 0.13794-0.60442 0.26114-0.83932 0.40834-0.23488 0.1472-0.46849 0.25841-0.5444 0.58981-1e-3 0.015-1e-3 0.0303 0 0.0454-0.0742 0.68124-0.18642 1.6831-0.27221 2.3592-0.0186 0.14234 0.0565 0.29238 0.18148 0.36296 1.0262 0.55431 2.6025 0.7774 4.1738 0.77132 1.5714-6e-3 3.1352-0.24235 4.1285-0.77132 0.12498-0.0706 0.2-0.22062 0.18148-0.36296-0.0274-0.21136-0.061-0.68797-0.0907-1.1569-0.0297-0.46897-0.0555-0.93028-0.0907-1.2023-0.0122-0.0674-0.0442-0.13118-0.0907-0.18148-0.31556-0.37683-0.78703-0.60717-1.3384-0.83937-0.50335-0.21195-1.0935-0.43206-1.6786-0.68056-0.0328-0.073-0.0653-0.28524 0-0.61251 0.0176-0.0879 0.045-0.18198 0.0681-0.27222 0.055-0.0616 0.0979-0.11192 0.15878-0.18148 0.12996-0.14834 0.2696-0.30394 0.38563-0.4537 0.11602-0.14976 0.21095-0.27823 0.27221-0.4537l0.0227-0.0227c0.2371-0.95699 0.23723-1.3563 0.24953-1.7014v-0.0227c0-1.1119-0.99949-1.9736-2.1777-1.9736zm6.2294-1.811c-1.7177 0-3.175 1.2562-3.175 2.8773 0.0122 0.51239 0.058 1.1443 0.3638 2.4804v0.0331l0.0331 0.0331c0.0982 0.28116 0.24101 0.442 0.42994 0.66145 0.18894 0.21945 0.41418 0.47773 0.62839 0.69453 0.0252 0.0255 0.0413 0.0413 0.0661 0.0662 0.0425 0.18484 0.0939 0.38379 0.1323 0.56224 0.10204 0.47477 0.0916 0.811 0.0662 0.92604-0.73814 0.25917-1.6564 0.5678-2.4804 0.92605-0.46261 0.20111-0.88122 0.38069-1.2237 0.59531-0.34246 0.2146-0.68304 0.37674-0.79375 0.85989-2e-3 0.022-2e-3 0.0441 0 0.0662-0.10818 0.9932-0.27179 2.4538-0.39686 3.4395-0.027 0.20751 0.0824 0.42625 0.26457 0.52916 1.4961 0.80814 3.7943 1.1334 6.0854 1.1245 2.291-9e-3 4.5709-0.3533 6.0193-1.1245 0.1822-0.1029 0.29158-0.32165 0.26458-0.52916-0.04-0.30817-0.089-1.003-0.1323-1.6867-0.0433-0.68369-0.0809-1.3563-0.13228-1.7529-0.018-0.0983-0.0644-0.19124-0.1323-0.26458-0.46007-0.54938-1.1474-0.88519-1.9513-1.2237-0.73385-0.30901-1.5942-0.62992-2.4474-0.99219-0.0477-0.10638-0.0952-0.41585 0-0.89297 0.0256-0.12812 0.0656-0.26533 0.0992-0.39687 0.0802-0.0898 0.14266-0.16318 0.23151-0.26458 0.18948-0.21626 0.39307-0.44312 0.56224-0.66146 0.16916-0.21833 0.30756-0.40563 0.39687-0.66146l0.0331-0.0331c0.3457-1.3952 0.34588-1.9773 0.36381-2.4804v-0.0331c0-1.6211-1.4572-2.8773-3.175-2.8773z" color="#000000" opacity=".15" style="text-indent:0;text-transform:none"/></g><path d="m91.019 257.18c-0.58632 0-1.0583 0.47202-1.0583 1.0583v2.1167c0 0.58632 0.47202 1.0583 1.0583 1.0583 0.58632 0 1.0583-0.47202 1.0583-1.0583v-2.1167c0-0.58632-0.47202-1.0583-1.0583-1.0583zm8.4667 0c-0.58632 0-1.0583 0.47202-1.0583 1.0583v2.1167c0 0.58632 0.47202 1.0583 1.0583 1.0583 0.58632 0 1.0583-0.47202 1.0583-1.0583v-2.1167c0-0.58632-0.47202-1.0583-1.0583-1.0583zm-6.8792 2.1167v1.0583c0 0.87948-0.70803 1.5875-1.5875 1.5875-0.87948 0-1.5875-0.70803-1.5875-1.5875v-0.9922c-0.9144 0.23418-1.5875 1.0611-1.5875 2.0505v8.4667c0 1.1726 0.94404 2.1167 2.1167 2.1167h10.583c1.1726 0 2.1167-0.94404 2.1167-2.1167v-8.4667c0-0.98945-0.6731-1.8164-1.5875-2.0505v0.9922c0 0.87948-0.70803 1.5875-1.5875 1.5875-0.87948 0-1.5875-0.70803-1.5875-1.5875v-1.0583zm-3.1254 4.7625h11.542c0.0293 0 0.0496 0.0203 0.0496 0.0496v6.2506c0 0.0293-0.0203 0.0496-0.0496 0.0496h-11.542c-0.02932 0-0.04958-0.0203-0.04958-0.0496v-6.2506c0-0.0293 0.02032-0.0496 0.04958-0.0496z" opacity=".15" stroke-width=".26458"/><g stroke-width=".26458"><path d="m31.75 256.65-5.2917 9.525h5.8208l-0.52916 6.35 5.2917-9.525h-5.8208z" opacity=".15"/><path d="m151.87 258.24c-0.26458 0-0.52917 0.26458-0.52917 0.52916v11.642c0 0.27516 0.254 0.52916 0.52917 0.52916h13.758c0.27517 0 0.52917-0.25506 0.52917-0.52916v-9.525c0-0.26458-0.26459-0.52918-0.52917-0.52918h-6.8792l-2.1167-2.1167z" opacity=".15"/><path d="m24.224 26.459c-0.52118 0-0.94075 0.41989-0.94075 0.94107v8.7027c0 0.52123 0.41957 0.9398 0.94075 0.9398h15.052c0.52123 0 0.94086-0.41857 0.94086-0.9398v-8.7027c0-0.52118-0.41963-0.94107-0.94086-0.94107zm0.79375 1.0881 6.4384 6.4384h0.55859l6.4675-6.4384 0.64675 0.64675-3.8512 3.91 2.9104 2.9692-0.64675 0.64675-2.9692-2.9692-2.1461 2.1755h-1.3523l-2.1458-2.1749-2.9694 2.9982-0.6468-0.67627 2.9398-2.9692-3.8805-3.9098z" opacity=".15"/><path d="m46.936 24.344c-0.20903 0.0404-0.3737 0.24692-0.37 0.46302v13.887c0 0.24342 0.21812 0.46354 0.45678 0.46354h11.788c0.23918 0 0.4572-0.22012 0.4572-0.46354v-10.734c-4e-3 -0.0708-0.0243-0.1408-0.0582-0.20268l-3.5052-3.3858c-0.0455-0.018-0.0942-0.027-0.14288-0.0288h-8.5392c-0.0282-2e-3 -0.0582-2e-3 -0.0866 0zm1.7467 2.1146h6.35v1.0583h-6.35zm0 3.175h5.2917v1.0583h-5.2917zm0 3.175h8.4667v1.0583h-8.4667zm0 3.175h4.2333v1.0583h-4.2333z" color="#000000" opacity=".15" style="text-indent:0;text-transform:none"/></g><path d="m6.349 24.342c-0.58632 0-1.0583 0.47202-1.0583 1.0583v2.1167c0 0.58632 0.47202 1.0583 1.0583 1.0583s1.0583-0.47202 1.0583-1.0583v-2.1167c0-0.58632-0.47202-1.0583-1.0583-1.0583zm8.4667 0c-0.58632 0-1.0583 0.47202-1.0583 1.0583v2.1167c0 0.58632 0.47202 1.0583 1.0583 1.0583 0.58632 0 1.0583-0.47202 1.0583-1.0583v-2.1167c0-0.58632-0.47202-1.0583-1.0583-1.0583zm-6.8792 2.1167v1.0583c0 0.87948-0.70803 1.5875-1.5875 1.5875s-1.5875-0.70803-1.5875-1.5875v-0.99219c-0.91441 0.23418-1.5875 1.0611-1.5875 2.0505v8.4667c0 1.1726 0.94404 2.1167 2.1167 2.1167h10.583c1.1726 0 2.1167-0.94404 2.1167-2.1167v-8.4667c0-0.98944-0.6731-1.8164-1.5875-2.0505v0.99219c0 0.87948-0.70803 1.5875-1.5875 1.5875-0.87948 0-1.5875-0.70803-1.5875-1.5875v-1.0583zm-3.1254 4.7625h11.542c0.02932 0 0.04958 0.02029 0.04958 0.04961v6.2506c0 0.02932-0.02032 0.04961-0.04958 0.04961h-11.542c-0.029316 0-0.049583-0.02029-0.049583-0.04961v-6.2506c0-0.02932 0.02032-0.04961 0.049583-0.04961z" opacity=".15" stroke-width=".26458"/><path d="m137.58 24.341a7.4076 7.4077 0 0 0-7.4075 7.4079 7.4076 7.4077 0 0 0 7.4075 7.4077 7.4076 7.4077 0 0 0 3.8426-1.0837c0.91042 0.36176 2.9497 1.4351 3.435 0.97148 0.50718-0.48434-0.59542-2.7639-0.85976-3.611a7.4076 7.4077 0 0 0 0.98954-3.6845 7.4076 7.4077 0 0 0-7.4074-7.4076zm8.4e-4 2.8163a4.5932 4.5933 0 0 1 4.5932 4.5933 4.5932 4.5933 0 0 1-4.5932 4.593 4.5932 4.5933 0 0 1-4.5932-4.593 4.5932 4.5933 0 0 1 4.5932-4.5933z" opacity=".15" stroke-width=".037042"/><g stroke-width=".26458"><path d="m88.205 25.4c-0.20902 0.0404-0.36756 0.24702-0.3638 0.46302v11.774c0 0.24342 0.22437 0.46356 0.46302 0.46356h13.891c0.2387-2e-5 0.46301-0.22062 0.46302-0.46302v-11.592c-5.3e-4 -0.35618-0.27993-0.64712-0.54557-0.64504zm0.69448 1.0583h12.7v5.2917l-1.0583-1.0583-3.175 4.2333-3.175-3.175-4.2333 4.2333h-1.0583zm2.6459 1.0583c-0.87678 0-1.5875 0.71072-1.5875 1.5875s0.71072 1.5875 1.5875 1.5875 1.5875-0.71072 1.5875-1.5875-0.71072-1.5875-1.5875-1.5875z" color="#000000" opacity=".15" style="text-indent:0;text-transform:none"/><path d="m67.204 25.4c-0.26458 0-0.52917 0.26458-0.52917 0.52916v11.642c0 0.27516 0.254 0.52916 0.52917 0.52916h13.758c0.27517 0 0.52917-0.25506 0.52917-0.52916v-9.525c0-0.26458-0.26459-0.52918-0.52917-0.52918h-6.8792l-2.1167-2.1167z" opacity=".15"/><path d="m154.64 25.623c-1.1782 0-2.1777 0.86164-2.1777 1.9736 8e-3 0.35146 0.0398 0.78486 0.24953 1.7014v0.0227l0.0227 0.0227c0.0673 0.19286 0.1653 0.30318 0.29489 0.4537 0.12958 0.15052 0.28409 0.32768 0.431 0.47638 0.0174 0.0176 0.0284 0.0283 0.0454 0.0454 0.0292 0.1268 0.0644 0.26325 0.0907 0.38565 0.07 0.32565 0.0628 0.55626 0.0454 0.63516-0.50628 0.17776-1.1361 0.38947-1.7013 0.63515-0.3173 0.13794-0.60442 0.26114-0.83932 0.40834-0.23488 0.1472-0.46849 0.25841-0.5444 0.58981-1e-3 0.015-1e-3 0.0303 0 0.0454-0.0742 0.68124-0.18642 1.6831-0.27221 2.3592-0.0186 0.14234 0.0565 0.29238 0.18148 0.36296 1.0262 0.55431 2.6025 0.7774 4.1738 0.77132 1.5714-6e-3 3.1352-0.24235 4.1285-0.77132 0.12498-0.0706 0.2-0.22062 0.18148-0.36296-0.0274-0.21136-0.061-0.68797-0.0907-1.1569-0.0297-0.46897-0.0555-0.93028-0.0907-1.2023-0.0122-0.0674-0.0442-0.13118-0.0907-0.18148-0.31556-0.37683-0.78703-0.60717-1.3384-0.83937-0.50335-0.21195-1.0935-0.43206-1.6786-0.68056-0.0328-0.073-0.0653-0.28524 0-0.61251 0.0176-0.0879 0.045-0.18198 0.0681-0.27222 0.055-0.0616 0.0979-0.11192 0.15878-0.18148 0.12996-0.14834 0.2696-0.30394 0.38563-0.4537 0.11602-0.14976 0.21095-0.27823 0.27221-0.4537l0.0227-0.0227c0.2371-0.95699 0.23723-1.3563 0.24953-1.7014v-0.0227c0-1.1119-0.99949-1.9736-2.1777-1.9736zm6.2294-1.811c-1.7177 0-3.175 1.2562-3.175 2.8773 0.0122 0.51239 0.058 1.1443 0.3638 2.4804v0.0331l0.0331 0.0331c0.0982 0.28116 0.24101 0.442 0.42994 0.66145 0.18894 0.21945 0.41418 0.47773 0.62839 0.69453 0.0252 0.0255 0.0413 0.0413 0.0661 0.0662 0.0425 0.18484 0.0939 0.38379 0.1323 0.56224 0.10204 0.47477 0.0916 0.811 0.0662 0.92604-0.73814 0.25917-1.6564 0.5678-2.4804 0.92605-0.46261 0.20111-0.88122 0.38069-1.2237 0.59531-0.34246 0.2146-0.68304 0.37674-0.79375 0.85989-2e-3 0.022-2e-3 0.0441 0 0.0662-0.10818 0.9932-0.27179 2.4538-0.39686 3.4395-0.027 0.20751 0.0824 0.42625 0.26457 0.52916 1.4961 0.80814 3.7943 1.1334 6.0854 1.1245 2.291-9e-3 4.5709-0.3533 6.0193-1.1245 0.1822-0.1029 0.29158-0.32165 0.26458-0.52916-0.04-0.30817-0.089-1.003-0.1323-1.6867-0.0433-0.68369-0.0809-1.3563-0.13228-1.7529-0.018-0.0983-0.0644-0.19124-0.1323-0.26458-0.46007-0.54938-1.1474-0.88519-1.9513-1.2237-0.73385-0.30901-1.5942-0.62992-2.4474-0.99219-0.0477-0.10638-0.0952-0.41585 0-0.89297 0.0256-0.12812 0.0656-0.26533 0.0992-0.39687 0.0802-0.0898 0.14266-0.16318 0.23151-0.26458 0.18948-0.21626 0.39307-0.44312 0.56224-0.66146 0.16916-0.21833 0.30756-0.40563 0.39687-0.66146l0.0331-0.0331c0.3457-1.3952 0.34588-1.9773 0.36381-2.4804v-0.0331c0-1.6211-1.4572-2.8773-3.175-2.8773z" color="#000000" opacity=".15" style="text-indent:0;text-transform:none"/><path d="m116.42 23.813-5.2917 9.525h5.8208l-0.52916 6.35 5.2917-9.525h-5.8208z" opacity=".15"/><path d="m87.724 47.625c-0.52118 0-0.94075 0.41989-0.94075 0.94107v8.7027c0 0.52123 0.41957 0.9398 0.94075 0.9398h15.052c0.52123 0 0.94086-0.41857 0.94086-0.9398v-8.7027c0-0.52118-0.41963-0.94107-0.94086-0.94107zm0.79375 1.0881 6.4384 6.4384h0.55859l6.4675-6.4384 0.64675 0.64675-3.8512 3.91 2.9104 2.9692-0.64675 0.64675-2.9692-2.9692-2.1461 2.1755h-1.3523l-2.1458-2.1749-2.9694 2.9982-0.6468-0.67627 2.9398-2.9692-3.8805-3.9098z" opacity=".15"/></g><path d="m31.749 45.508a7.4076 7.4077 0 0 0-7.4075 7.4079 7.4076 7.4077 0 0 0 7.4075 7.4077 7.4076 7.4077 0 0 0 3.8426-1.0837c0.91042 0.36176 2.9497 1.4351 3.435 0.97148 0.50718-0.48434-0.59542-2.7639-0.85976-3.611a7.4076 7.4077 0 0 0 0.98954-3.6845 7.4076 7.4077 0 0 0-7.4074-7.4076zm8.4e-4 2.8163a4.5932 4.5933 0 0 1 4.5932 4.5933 4.5932 4.5933 0 0 1-4.5932 4.593 4.5932 4.5933 0 0 1-4.5932-4.593 4.5932 4.5933 0 0 1 4.5932-4.5933z" opacity=".15" stroke-width=".037042"/><path d="m110.44 45.511c-0.20903 0.0404-0.3737 0.24692-0.37 0.46302v13.887c0 0.24342 0.21812 0.46354 0.45678 0.46354h11.788c0.23918 0 0.4572-0.22012 0.4572-0.46354v-10.734c-4e-3 -0.0708-0.0243-0.1408-0.0582-0.20268l-3.5052-3.3858c-0.0455-0.018-0.0942-0.027-0.14288-0.0288h-8.5392c-0.0282-2e-3 -0.0582-2e-3 -0.0866 0zm1.7467 2.1146h6.35v1.0583h-6.35zm0 3.175h5.2917v1.0583h-5.2917zm0 3.175h8.4667v1.0583h-8.4667zm0 3.175h4.2333v1.0583h-4.2333z" color="#000000" opacity=".15" stroke-width=".26458" style="text-indent:0;text-transform:none"/><path d="m48.81 46.789c-1.1782 0-2.1777 0.86164-2.1777 1.9736 8e-3 0.35146 0.0398 0.78486 0.24953 1.7014v0.0227l0.0227 0.0227c0.0673 0.19286 0.1653 0.30318 0.29489 0.4537 0.12958 0.15052 0.28409 0.32768 0.431 0.47638 0.0174 0.0176 0.0284 0.0283 0.0454 0.0454 0.0292 0.1268 0.0644 0.26325 0.0907 0.38565 0.07 0.32565 0.0628 0.55626 0.0454 0.63516-0.50628 0.17776-1.1361 0.38947-1.7013 0.63515-0.3173 0.13794-0.60442 0.26114-0.83932 0.40834-0.23488 0.1472-0.46849 0.25841-0.5444 0.58981-1e-3 0.015-1e-3 0.0303 0 0.0454-0.0742 0.68124-0.18642 1.6831-0.27221 2.3592-0.0186 0.14234 0.0565 0.29238 0.18148 0.36296 1.0262 0.55431 2.6025 0.7774 4.1738 0.77132 1.5714-6e-3 3.1352-0.24235 4.1285-0.77132 0.12498-0.0706 0.2-0.22062 0.18148-0.36296-0.0274-0.21136-0.061-0.68797-0.0907-1.1569-0.0297-0.46897-0.0555-0.93028-0.0907-1.2023-0.0122-0.0674-0.0442-0.13118-0.0907-0.18148-0.31556-0.37683-0.78703-0.60717-1.3384-0.83937-0.50335-0.21195-1.0935-0.43206-1.6786-0.68056-0.0328-0.073-0.0653-0.28524 0-0.61251 0.0176-0.0879 0.045-0.18198 0.0681-0.27222 0.055-0.0616 0.0979-0.11192 0.15878-0.18148 0.12996-0.14834 0.2696-0.30394 0.38563-0.4537 0.11602-0.14976 0.21095-0.27823 0.27221-0.4537l0.0227-0.0227c0.2371-0.95699 0.23723-1.3563 0.24953-1.7014v-0.0227c0-1.1119-0.99949-1.9736-2.1777-1.9736zm6.2294-1.811c-1.7177 0-3.175 1.2562-3.175 2.8773 0.0122 0.51239 0.058 1.1443 0.3638 2.4804v0.0331l0.0331 0.0331c0.0982 0.28116 0.24101 0.442 0.42994 0.66145 0.18894 0.21945 0.41418 0.47773 0.62839 0.69453 0.0252 0.0255 0.0413 0.0413 0.0661 0.0662 0.0425 0.18484 0.0939 0.38379 0.1323 0.56224 0.10204 0.47477 0.0916 0.811 0.0662 0.92604-0.73814 0.25917-1.6564 0.5678-2.4804 0.92605-0.46261 0.20111-0.88122 0.38069-1.2237 0.59531-0.34246 0.2146-0.68304 0.37674-0.79375 0.85989-2e-3 0.022-2e-3 0.0441 0 0.0662-0.10818 0.9932-0.27179 2.4538-0.39686 3.4395-0.027 0.20751 0.0824 0.42625 0.26457 0.52916 1.4961 0.80814 3.7943 1.1334 6.0854 1.1245 2.291-9e-3 4.5709-0.3533 6.0193-1.1245 0.1822-0.1029 0.29158-0.32165 0.26458-0.52916-0.04-0.30817-0.089-1.003-0.1323-1.6867-0.0433-0.68369-0.0809-1.3563-0.13228-1.7529-0.018-0.0983-0.0644-0.19124-0.1323-0.26458-0.46007-0.54938-1.1474-0.88519-1.9513-1.2237-0.73385-0.30901-1.5942-0.62992-2.4474-0.99219-0.0477-0.10638-0.0952-0.41585 0-0.89297 0.0256-0.12812 0.0656-0.26533 0.0992-0.39687 0.0802-0.0898 0.14266-0.16318 0.23151-0.26458 0.18948-0.21626 0.39307-0.44312 0.56224-0.66146 0.16916-0.21833 0.30756-0.40563 0.39687-0.66146l0.0331-0.0331c0.3457-1.3952 0.34588-1.9773 0.36381-2.4804v-0.0331c0-1.6211-1.4572-2.8773-3.175-2.8773z" color="#000000" opacity=".15" stroke-width=".26458" style="text-indent:0;text-transform:none"/><path d="m69.849 45.509c-0.58632 0-1.0583 0.47202-1.0583 1.0583v2.1167c0 0.58632 0.47202 1.0583 1.0583 1.0583 0.58632 0 1.0583-0.47202 1.0583-1.0583v-2.1167c0-0.58632-0.47202-1.0583-1.0583-1.0583zm8.4667 0c-0.58632 0-1.0583 0.47202-1.0583 1.0583v2.1167c0 0.58632 0.47202 1.0583 1.0583 1.0583 0.58632 0 1.0583-0.47202 1.0583-1.0583v-2.1167c0-0.58632-0.47202-1.0583-1.0583-1.0583zm-6.8792 2.1167v1.0583c0 0.87948-0.70803 1.5875-1.5875 1.5875-0.87948 0-1.5875-0.70803-1.5875-1.5875v-0.99219c-0.9144 0.23418-1.5875 1.0611-1.5875 2.0505v8.4667c0 1.1726 0.94404 2.1167 2.1167 2.1167h10.583c1.1726 0 2.1167-0.94404 2.1167-2.1167v-8.4667c0-0.98944-0.6731-1.8164-1.5875-2.0505v0.99219c0 0.87948-0.70803 1.5875-1.5875 1.5875-0.87948 0-1.5875-0.70803-1.5875-1.5875v-1.0583zm-3.1254 4.7625h11.542c0.02932 0 0.04958 0.02029 0.04958 0.04961v6.2506c0 0.02932-0.02032 0.04961-0.04958 0.04961h-11.542c-0.02932 0-0.04958-0.02029-0.04958-0.04961v-6.2506c0-0.02932 0.02032-0.04961 0.04958-0.04961z" opacity=".15" stroke-width=".26458"/><g stroke-width=".26458"><path d="m10.583 44.979-5.2917 9.525h5.8208l-0.52916 6.35 5.2917-9.525h-5.8208z" opacity=".15"/><path d="m151.71 46.567c-0.20902 0.0404-0.36756 0.24702-0.3638 0.46302v11.774c0 0.24342 0.22437 0.46356 0.46302 0.46356h13.891c0.2387-2e-5 0.46301-0.22062 0.46302-0.46302v-11.592c-5.3e-4 -0.35618-0.27993-0.64712-0.54557-0.64504zm0.69448 1.0583h12.7v5.2917l-1.0583-1.0583-3.175 4.2333-3.175-3.175-4.2333 4.2333h-1.0583zm2.6459 1.0583c-0.87678 0-1.5875 0.71072-1.5875 1.5875s0.71072 1.5875 1.5875 1.5875 1.5875-0.71072 1.5875-1.5875-0.71072-1.5875-1.5875-1.5875z" color="#000000" opacity=".15" style="text-indent:0;text-transform:none"/><path d="m130.7 46.567c-0.26458 0-0.52917 0.26458-0.52917 0.52916v11.642c0 0.27516 0.254 0.52916 0.52917 0.52916h13.758c0.27517 0 0.52917-0.25506 0.52917-0.52916v-9.525c0-0.26458-0.26459-0.52918-0.52917-0.52918h-6.8792l-2.1167-2.1167z" opacity=".15"/><path d="m3.0572 68.792c-0.52118 0-0.94075 0.41989-0.94075 0.94107v8.7027c0 0.52123 0.41957 0.9398 0.94075 0.9398h15.052c0.52123 0 0.94086-0.41857 0.94086-0.9398v-8.7027c0-0.52118-0.41963-0.94107-0.94086-0.94107zm0.79375 1.0881 6.4384 6.4384h0.55859l6.4675-6.4384 0.64675 0.64675-3.8512 3.91 2.9104 2.9692-0.64675 0.64675-2.9692-2.9692-2.1461 2.1755h-1.3523l-2.1458-2.1749-2.9694 2.9982-0.6468-0.67627 2.9398-2.9692-3.8805-3.9098z" opacity=".15"/><path d="m25.77 66.678c-0.20903 0.0404-0.3737 0.24692-0.37 0.46302v13.887c0 0.24342 0.21812 0.46354 0.45678 0.46354h11.788c0.23918 0 0.4572-0.22012 0.4572-0.46354v-10.734c-4e-3 -0.0708-0.0243-0.1408-0.0582-0.20268l-3.5052-3.3858c-0.0455-0.018-0.0942-0.027-0.14288-0.0288h-8.5392c-0.0282-2e-3 -0.0582-2e-3 -0.0866 0zm1.7467 2.1146h6.35v1.0583h-6.35zm0 3.175h5.2917v1.0583h-5.2917zm0 3.175h8.4667v1.0583h-8.4667zm0 3.175h4.2333v1.0583h-4.2333z" color="#000000" opacity=".15" style="text-indent:0;text-transform:none"/></g><path d="m116.42 66.674a7.4076 7.4077 0 0 0-7.4075 7.4079 7.4076 7.4077 0 0 0 7.4075 7.4077 7.4076 7.4077 0 0 0 3.8426-1.0837c0.91042 0.36176 2.9497 1.4351 3.435 0.97148 0.50718-0.48434-0.59542-2.7639-0.85976-3.611a7.4076 7.4077 0 0 0 0.98954-3.6845 7.4076 7.4077 0 0 0-7.4074-7.4076zm8.4e-4 2.8163a4.5932 4.5933 0 0 1 4.5932 4.5933 4.5932 4.5933 0 0 1-4.5932 4.593 4.5932 4.5933 0 0 1-4.5932-4.593 4.5932 4.5933 0 0 1 4.5932-4.5933z" opacity=".15" stroke-width=".037042"/><g stroke-width=".26458"><path d="m67.039 67.734c-0.20902 0.0404-0.36756 0.24702-0.3638 0.46302v11.774c0 0.24342 0.22437 0.46356 0.46302 0.46356h13.891c0.2387-2e-5 0.46301-0.22062 0.46302-0.46302v-11.592c-5.3e-4 -0.35618-0.27993-0.64712-0.54557-0.64504zm0.69448 1.0583h12.7v5.2917l-1.0583-1.0583-3.175 4.2333-3.175-3.175-4.2333 4.2333h-1.0583zm2.6459 1.0583c-0.87678 0-1.5875 0.71072-1.5875 1.5875s0.71072 1.5875 1.5875 1.5875 1.5875-0.71072 1.5875-1.5875-0.71072-1.5875-1.5875-1.5875z" color="#000000" opacity=".15" style="text-indent:0;text-transform:none"/><path d="m46.037 67.734c-0.26458 0-0.52917 0.26458-0.52917 0.52916v11.642c0 0.27516 0.254 0.52916 0.52917 0.52916h13.758c0.27517 0 0.52917-0.25506 0.52917-0.52916v-9.525c0-0.26458-0.26459-0.52918-0.52917-0.52918h-6.8792l-2.1167-2.1167z" opacity=".15"/><path d="m133.48 67.956c-1.1782 0-2.1777 0.86164-2.1777 1.9736 8e-3 0.35146 0.0398 0.78486 0.24953 1.7014v0.0227l0.0227 0.0227c0.0673 0.19286 0.1653 0.30318 0.29489 0.4537 0.12958 0.15052 0.28409 0.32768 0.431 0.47638 0.0174 0.0176 0.0284 0.0283 0.0454 0.0454 0.0292 0.1268 0.0644 0.26325 0.0907 0.38565 0.07 0.32565 0.0628 0.55626 0.0454 0.63516-0.50628 0.17776-1.1361 0.38947-1.7013 0.63515-0.3173 0.13794-0.60442 0.26114-0.83932 0.40834-0.23488 0.1472-0.46849 0.25841-0.5444 0.58981-1e-3 0.015-1e-3 0.0303 0 0.0454-0.0742 0.68124-0.18642 1.6831-0.27221 2.3592-0.0186 0.14234 0.0565 0.29238 0.18148 0.36296 1.0262 0.55431 2.6025 0.7774 4.1738 0.77132 1.5714-6e-3 3.1352-0.24235 4.1285-0.77132 0.12498-0.0706 0.2-0.22062 0.18148-0.36296-0.0274-0.21136-0.061-0.68797-0.0907-1.1569-0.0297-0.46897-0.0555-0.93028-0.0907-1.2023-0.0122-0.0674-0.0442-0.13118-0.0907-0.18148-0.31556-0.37683-0.78703-0.60717-1.3384-0.83937-0.50335-0.21195-1.0935-0.43206-1.6786-0.68056-0.0328-0.073-0.0653-0.28524 0-0.61251 0.0176-0.0879 0.045-0.18198 0.0681-0.27222 0.055-0.0616 0.0979-0.11192 0.15878-0.18148 0.12996-0.14834 0.2696-0.30394 0.38563-0.4537 0.11602-0.14976 0.21095-0.27823 0.27221-0.4537l0.0227-0.0227c0.2371-0.95699 0.23723-1.3563 0.24953-1.7014v-0.0227c0-1.1119-0.99949-1.9736-2.1777-1.9736zm6.2294-1.811c-1.7177 0-3.175 1.2562-3.175 2.8773 0.0122 0.51239 0.058 1.1443 0.3638 2.4804v0.0331l0.0331 0.0331c0.0982 0.28116 0.24101 0.442 0.42994 0.66145 0.18894 0.21945 0.41418 0.47773 0.62839 0.69453 0.0252 0.0255 0.0413 0.0413 0.0661 0.0662 0.0425 0.18484 0.0939 0.38379 0.1323 0.56224 0.10204 0.47477 0.0916 0.811 0.0662 0.92604-0.73814 0.25917-1.6564 0.5678-2.4804 0.92605-0.46261 0.20111-0.88122 0.38069-1.2237 0.59531-0.34246 0.2146-0.68304 0.37674-0.79375 0.85989-2e-3 0.022-2e-3 0.0441 0 0.0662-0.10818 0.9932-0.27179 2.4537-0.39686 3.4395-0.027 0.20751 0.0824 0.42625 0.26457 0.52916 1.4961 0.80814 3.7943 1.1334 6.0854 1.1245 2.291-9e-3 4.5709-0.3533 6.0193-1.1245 0.1822-0.1029 0.29158-0.32165 0.26458-0.52916-0.04-0.30817-0.089-1.003-0.1323-1.6867-0.0433-0.68369-0.0809-1.3563-0.13228-1.7529-0.018-0.0983-0.0644-0.19124-0.1323-0.26458-0.46007-0.54938-1.1474-0.88519-1.9513-1.2237-0.73385-0.30901-1.5942-0.62992-2.4474-0.99219-0.0477-0.10638-0.0952-0.41585 0-0.89297 0.0256-0.12812 0.0656-0.26533 0.0992-0.39687 0.0802-0.0898 0.14266-0.16318 0.23151-0.26458 0.18948-0.21626 0.39307-0.44312 0.56224-0.66146 0.16916-0.21833 0.30756-0.40563 0.39687-0.66146l0.0331-0.0331c0.3457-1.3952 0.34588-1.9773 0.36381-2.4804v-0.0331c0-1.6211-1.4572-2.8773-3.175-2.8773z" color="#000000" opacity=".15" style="text-indent:0;text-transform:none"/></g><path d="m154.52 66.676c-0.58632 0-1.0583 0.47202-1.0583 1.0583v2.1167c0 0.58632 0.47202 1.0583 1.0583 1.0583s1.0583-0.47202 1.0583-1.0583v-2.1167c0-0.58632-0.47202-1.0583-1.0583-1.0583zm8.4667 0c-0.58632 0-1.0583 0.47202-1.0583 1.0583v2.1167c0 0.58632 0.47202 1.0583 1.0583 1.0583s1.0583-0.47202 1.0583-1.0583v-2.1167c0-0.58632-0.47202-1.0583-1.0583-1.0583zm-6.8792 2.1167v1.0583c0 0.87948-0.70803 1.5875-1.5875 1.5875s-1.5875-0.70803-1.5875-1.5875v-0.99219c-0.91441 0.23418-1.5875 1.0611-1.5875 2.0505v8.4667c0 1.1726 0.94404 2.1167 2.1167 2.1167h10.583c1.1726 0 2.1167-0.94404 2.1167-2.1167v-8.4667c0-0.98944-0.6731-1.8164-1.5875-2.0505v0.99219c0 0.87948-0.70803 1.5875-1.5875 1.5875s-1.5875-0.70803-1.5875-1.5875v-1.0583zm-3.1254 4.7625h11.542c0.0293 0 0.0496 0.02029 0.0496 0.04961v6.2506c0 0.02932-0.0203 0.04961-0.0496 0.04961h-11.542c-0.0293 0-0.0496-0.02029-0.0496-0.04961v-6.2506c0-0.02932 0.0203-0.04961 0.0496-0.04961z" opacity=".15" stroke-width=".26458"/><path d="m95.25 66.146-5.2917 9.525h5.8208l-0.52916 6.35 5.2917-9.525h-5.8208z" opacity=".15" stroke-width=".26458"/><path d="m66.557 5.292c-0.52118 0-0.94075 0.41989-0.94075 0.94107v8.7027c0 0.52123 0.41957 0.9398 0.94075 0.9398h15.052c0.52123 0 0.94086-0.41857 0.94086-0.9398v-8.7027c0-0.52118-0.41963-0.94107-0.94086-0.94107zm0.79375 1.0881 6.4384 6.4384h0.55859l6.4675-6.4384 0.64675 0.64675-3.8512 3.91 2.9104 2.9692-0.64675 0.64675-2.9692-2.9692-2.1461 2.1755h-1.3523l-2.1458-2.1749-2.9694 2.9982-0.6468-0.67627 2.9398-2.9692-3.8805-3.9098z" opacity=".15" stroke-width=".26458"/><path d="m10.582 3.174a7.4076 7.4077 0 0 0-7.4075 7.4079 7.4076 7.4077 0 0 0 7.4075 7.4077 7.4076 7.4077 0 0 0 3.8426-1.0837c0.91042 0.36176 2.9497 1.4351 3.435 0.97148 0.50718-0.48434-0.59542-2.7639-0.85976-3.611a7.4076 7.4077 0 0 0 0.98954-3.6845 7.4076 7.4077 0 0 0-7.4074-7.4076zm8.4e-4 2.8163a4.5932 4.5933 0 0 1 4.5932 4.5933 4.5932 4.5933 0 0 1-4.5932 4.593 4.5932 4.5933 0 0 1-4.5932-4.593 4.5932 4.5933 0 0 1 4.5932-4.5933z" opacity=".15" stroke-width=".037042"/><path d="m89.27 3.178c-0.20903 0.0404-0.3737 0.24692-0.37 0.46302v13.887c0 0.24342 0.21812 0.46354 0.45678 0.46354h11.788c0.23918 0 0.4572-0.22012 0.4572-0.46354v-10.734c-4e-3 -0.0708-0.0243-0.1408-0.0582-0.20268l-3.5052-3.3858c-0.0455-0.018-0.0942-0.027-0.14288-0.0288h-8.5392c-0.0282-2e-3 -0.0582-2e-3 -0.0866 0zm1.7467 2.1146h6.35v1.0583h-6.35zm0 3.175h5.2917v1.0583h-5.2917zm0 3.175h8.4667v1.0583h-8.4667zm0 3.175h4.2333v1.0583h-4.2333z" color="#000000" opacity=".15" stroke-width=".26458" style="text-indent:0;text-transform:none"/><path d="m27.643 4.456c-1.1782 0-2.1777 0.86164-2.1777 1.9736 8e-3 0.35146 0.0398 0.78486 0.24953 1.7014v0.0227l0.0227 0.0227c0.0673 0.19286 0.1653 0.30318 0.29489 0.4537 0.12958 0.15052 0.28409 0.32768 0.431 0.47638 0.0174 0.0176 0.0284 0.0283 0.0454 0.0454 0.0292 0.1268 0.0644 0.26325 0.0907 0.38565 0.07 0.32565 0.0628 0.55626 0.0454 0.63516-0.50628 0.17776-1.1361 0.38947-1.7013 0.63515-0.3173 0.13794-0.60442 0.26114-0.83932 0.40834-0.23488 0.1472-0.46849 0.25841-0.5444 0.58981-1e-3 0.015-1e-3 0.0303 0 0.0454-0.0742 0.68124-0.18642 1.6831-0.27221 2.3592-0.0186 0.14234 0.0565 0.29238 0.18148 0.36296 1.0262 0.55431 2.6025 0.7774 4.1738 0.77132 1.5714-6e-3 3.1352-0.24235 4.1285-0.77132 0.12498-0.0706 0.2-0.22062 0.18148-0.36296-0.0274-0.21136-0.061-0.68797-0.0907-1.1569-0.0297-0.46897-0.0555-0.93028-0.0907-1.2023-0.0122-0.0674-0.0442-0.13118-0.0907-0.18148-0.31556-0.37683-0.78703-0.60717-1.3384-0.83937-0.50335-0.21195-1.0935-0.43206-1.6786-0.68056-0.0328-0.073-0.0653-0.28524 0-0.61251 0.0176-0.0879 0.045-0.18198 0.0681-0.27222 0.055-0.0616 0.0979-0.11192 0.15878-0.18148 0.12996-0.14834 0.2696-0.30394 0.38563-0.4537 0.11602-0.14976 0.21095-0.27823 0.27221-0.4537l0.0227-0.0227c0.2371-0.95699 0.23723-1.3563 0.24953-1.7014v-0.0227c0-1.1119-0.99949-1.9736-2.1777-1.9736zm6.2294-1.811c-1.7177 0-3.175 1.2562-3.175 2.8773 0.0122 0.51239 0.058 1.1443 0.3638 2.4804v0.0331l0.0331 0.0331c0.0982 0.28116 0.24101 0.442 0.42994 0.66145 0.18894 0.21945 0.41418 0.47773 0.62839 0.69453 0.0252 0.0255 0.0413 0.0413 0.0661 0.0662 0.0425 0.18484 0.0939 0.38379 0.1323 0.56224 0.10204 0.47477 0.0916 0.811 0.0662 0.92604-0.73814 0.25917-1.6564 0.5678-2.4804 0.92605-0.46261 0.20111-0.88122 0.38069-1.2237 0.59531-0.34246 0.2146-0.68304 0.37674-0.79375 0.85989-2e-3 0.022-2e-3 0.0441 0 0.0662-0.10818 0.9932-0.27179 2.4538-0.39686 3.4395-0.027 0.20751 0.0824 0.42625 0.26457 0.52916 1.4961 0.80814 3.7943 1.1334 6.0854 1.1245 2.291-9e-3 4.5709-0.3533 6.0193-1.1245 0.1822-0.1029 0.29158-0.32165 0.26458-0.52916-0.04-0.30817-0.089-1.003-0.1323-1.6867-0.0433-0.68369-0.0809-1.3563-0.13228-1.7529-0.018-0.0983-0.0644-0.19124-0.1323-0.26458-0.46007-0.54938-1.1474-0.88519-1.9513-1.2237-0.73385-0.30901-1.5942-0.62992-2.4474-0.99219-0.0477-0.10638-0.0952-0.41585 0-0.89297 0.0256-0.12812 0.0656-0.26533 0.0992-0.39687 0.0802-0.0898 0.14266-0.16318 0.23151-0.26458 0.18948-0.21626 0.39307-0.44312 0.56224-0.66146 0.16916-0.21833 0.30756-0.40563 0.39687-0.66146l0.0331-0.0331c0.3457-1.3952 0.34588-1.9773 0.36381-2.4804v-0.0331c0-1.6211-1.4572-2.8773-3.175-2.8773z" color="#000000" opacity=".15" stroke-width=".26458" style="text-indent:0;text-transform:none"/><path d="m48.679 3.1756c-0.58632 0-1.0583 0.47202-1.0583 1.0583v2.1167c0 0.58632 0.47202 1.0583 1.0583 1.0583 0.58632 0 1.0583-0.47202 1.0583-1.0583v-2.1167c0-0.58632-0.47202-1.0583-1.0583-1.0583zm8.4667 0c-0.58632 0-1.0583 0.47202-1.0583 1.0583v2.1167c0 0.58632 0.47202 1.0583 1.0583 1.0583 0.58632 0 1.0583-0.47202 1.0583-1.0583v-2.1167c0-0.58632-0.47202-1.0583-1.0583-1.0583zm-6.8792 2.1167v1.0583c0 0.87948-0.70803 1.5875-1.5875 1.5875-0.87948 0-1.5875-0.70803-1.5875-1.5875v-0.99219c-0.9144 0.23418-1.5875 1.0611-1.5875 2.0505v8.4667c0 1.1726 0.94404 2.1167 2.1167 2.1167h10.583c1.1726 0 2.1167-0.94404 2.1167-2.1167v-8.4667c0-0.98944-0.6731-1.8164-1.5875-2.0505v0.99219c0 0.87948-0.70803 1.5875-1.5875 1.5875-0.87948 0-1.5875-0.70803-1.5875-1.5875v-1.0583zm-3.1254 4.7625h11.542c0.02932 0 0.04958 0.02029 0.04958 0.04961v6.2506c0 0.02932-0.02032 0.04961-0.04958 0.04961h-11.542c-0.02932 0-0.04958-0.02029-0.04958-0.04961v-6.2506c0-0.02932 0.02032-0.04961 0.04958-0.04961z" opacity=".15" stroke-width=".26458"/><g stroke-width=".26458"><path d="m130.54 4.234c-0.20902 0.0404-0.36756 0.24702-0.3638 0.46302v11.774c0 0.24342 0.22437 0.46356 0.46302 0.46356h13.891c0.2387-2e-5 0.46301-0.22062 0.46302-0.46302v-11.592c-5.3e-4 -0.35618-0.27993-0.64712-0.54557-0.64504zm0.69448 1.0583h12.7v5.2917l-1.0583-1.0583-3.175 4.2333-3.175-3.175-4.2333 4.2333h-1.0583zm2.6459 1.0583c-0.87678 0-1.5875 0.71072-1.5875 1.5875s0.71072 1.5875 1.5875 1.5875 1.5875-0.71072 1.5875-1.5875-0.71072-1.5875-1.5875-1.5875z" color="#000000" opacity=".15" style="text-indent:0;text-transform:none"/><path d="m109.54 4.234c-0.26458 0-0.52917 0.26458-0.52917 0.52916v11.642c0 0.27516 0.254 0.52916 0.52917 0.52916h13.758c0.27517 0 0.52917-0.25506 0.52917-0.52916v-9.525c0-0.26458-0.26459-0.52918-0.52917-0.52918h-6.8792l-2.1167-2.1167z" opacity=".15"/><path d="m158.75 2.646-5.2917 9.525h5.8208l-0.52916 6.35 5.2917-9.525h-5.8208z" opacity=".15"/></g></g></svg>
