<svg viewBox="0 0 170 60" height="60" width="170" xmlns="http://www.w3.org/2000/svg" xml:space="preserve" style="fill-rule:evenodd;clip-rule:evenodd;stroke-linejoin:round;stroke-miterlimit:2"><path d="M170 6.313v47.374c-.002 3.463-2.85 6.311-6.313 6.313H6.313C2.85 59.998.002 57.15 0 53.687V6.313C.002 2.85 2.85.002 6.313 0h157.374c3.463.002 6.311 2.85 6.313 6.313Z"/><path d="M37.915-11.831c0 1.88-.536 3.32-1.609 4.32-1.068 1-2.612 1.5-4.633 1.5h-3.234v-11.422h3.586c1.864 0 3.312.493 4.343 1.477 1.032.984 1.547 2.359 1.547 4.125Zm-2.515.062c0-2.453-1.084-3.679-3.25-3.679h-1.289v7.437H31.9c2.333 0 3.5-1.252 3.5-3.758Zm8.648 5.915c-1.406 0-2.505-.388-3.297-1.165-.791-.776-1.187-1.875-1.187-3.296 0-1.464.364-2.594 1.094-3.391.734-.802 1.747-1.203 3.039-1.203 1.234 0 2.195.351 2.882 1.055.688.703 1.032 1.674 1.032 2.914v1.156h-5.633c.026.677.226 1.206.601 1.586.375.38.901.57 1.579.57.526 0 1.023-.055 1.492-.164a7.504 7.504 0 0 0 1.468-.523v1.843a5.442 5.442 0 0 1-1.335.461c-.474.104-1.053.157-1.735.157Zm-.336-7.36c-.505 0-.901.162-1.187.485-.287.317-.451.77-.492 1.359h3.343c-.01-.589-.164-1.042-.461-1.359-.297-.323-.698-.485-1.203-.485Zm11.93 4.61c0 .895-.313 1.578-.938 2.046-.619.469-1.549.704-2.789.704a8.59 8.59 0 0 1-1.625-.133 6.06 6.06 0 0 1-1.257-.375v-1.969c.442.208.94.383 1.492.523.557.141 1.047.211 1.468.211.865 0 1.297-.25 1.297-.75a.615.615 0 0 0-.172-.453c-.114-.12-.312-.252-.593-.398a14.008 14.008 0 0 0-1.125-.524c-.672-.281-1.167-.541-1.485-.781a2.262 2.262 0 0 1-.687-.82c-.141-.313-.211-.696-.211-1.149 0-.776.299-1.375.898-1.797.605-.427 1.459-.64 2.563-.64 1.052 0 2.075.229 3.07.687l-.719 1.719c-.401-.174-.81-.327-1.226-.461-.38-.12-.768-.18-1.164-.18-.703 0-1.055.191-1.055.571 0 .213.112.398.336.554.229.157.727.389 1.492.696.683.276 1.183.534 1.5.773.318.24.552.516.703.828.151.313.227.685.227 1.118Zm4.148-2.157 1.039-1.328 2.446-2.656h2.687l-3.469 3.789 3.68 4.945h-2.75L60.908-9.55l-1.024.821v2.718h-2.383v-12.156h2.383v5.422l-.125 1.984h.031Zm11.313 3.008c.417 0 .917-.091 1.5-.273v1.773c-.594.266-1.323.399-2.188.399-.953 0-1.648-.24-2.086-.719-.432-.485-.648-1.209-.648-2.172v-4.211H66.54v-1.008l1.313-.797.687-1.843h1.524v1.859h2.445v1.789h-2.445v4.211c0 .338.094.588.281.75.193.161.445.242.758.242Zm11.203-2.641c0 1.422-.375 2.534-1.125 3.336-.75.803-1.794 1.204-3.133 1.204-.838 0-1.578-.183-2.219-.547a3.7 3.7 0 0 1-1.476-1.586c-.344-.688-.516-1.49-.516-2.407 0-1.427.373-2.536 1.117-3.328.745-.791 1.792-1.187 3.141-1.187.839 0 1.578.182 2.219.547.64.364 1.133.888 1.476 1.57.344.682.516 1.482.516 2.398Zm-6.039 0c0 .865.141 1.519.422 1.961.286.443.75.664 1.39.664.636 0 1.092-.218 1.368-.656.281-.442.421-1.099.421-1.969 0-.864-.14-1.513-.421-1.945-.282-.432-.743-.648-1.383-.648-.636 0-1.094.216-1.375.648-.281.427-.422 1.076-.422 1.945Zm12.805 4.54c-1.026 0-1.831-.373-2.414-1.118h-.125c.083.73.125 1.151.125 1.266v3.539h-2.383v-12.578h1.937l.336 1.133h.11c.557-.865 1.382-1.297 2.476-1.297 1.031 0 1.839.398 2.422 1.195.583.797.875 1.904.875 3.32 0 .933-.138 1.743-.414 2.43-.271.688-.659 1.211-1.164 1.57-.505.36-1.099.54-1.781.54Zm-.704-7.149c-.588 0-1.018.182-1.289.547-.27.359-.411.956-.421 1.789v.258c0 .937.138 1.609.414 2.015.281.407.724.61 1.328.61 1.067 0 1.601-.88 1.601-2.641 0-.859-.133-1.502-.398-1.929-.261-.433-.672-.649-1.235-.649Zm15.735 6.992-.461-1.187h-.063c-.401.505-.815.857-1.242 1.054-.422.193-.974.29-1.656.29-.839 0-1.5-.24-1.984-.719-.48-.479-.719-1.162-.719-2.047 0-.927.323-1.609.969-2.047.651-.443 1.63-.687 2.937-.734l1.516-.047v-.383c0-.885-.453-1.328-1.36-1.328-.698 0-1.518.211-2.461.633l-.789-1.61c1.006-.526 2.12-.789 3.344-.789 1.172 0 2.07.255 2.695.766.625.51.938 1.286.938 2.328v5.82h-1.664Zm-.703-4.047-.922.032c-.693.021-1.208.146-1.547.375-.339.229-.508.578-.508 1.047 0 .671.386 1.007 1.156 1.007.552 0 .993-.158 1.321-.476.333-.318.5-.74.5-1.266v-.719Zm9.617 4.204c-1.026 0-1.831-.373-2.414-1.118h-.125c.083.73.125 1.151.125 1.266v3.539h-2.383v-12.578h1.938l.335 1.133h.11c.557-.865 1.383-1.297 2.476-1.297 1.032 0 1.839.398 2.422 1.195.584.797.875 1.904.875 3.32 0 .933-.138 1.743-.414 2.43-.271.688-.659 1.211-1.164 1.57-.505.36-1.099.54-1.781.54Zm-.703-7.149c-.589 0-1.018.182-1.289.547-.271.359-.412.956-.422 1.789v.258c0 .937.138 1.609.414 2.015.281.407.724.61 1.328.61 1.068 0 1.602-.88 1.602-2.641 0-.859-.133-1.502-.399-1.929-.26-.433-.672-.649-1.234-.649Zm10.828 7.149c-1.026 0-1.831-.373-2.414-1.118h-.125c.083.73.125 1.151.125 1.266v3.539h-2.383v-12.578h1.938l.335 1.133h.11c.557-.865 1.383-1.297 2.476-1.297 1.032 0 1.839.398 2.422 1.195.584.797.875 1.904.875 3.32 0 .933-.138 1.743-.414 2.43-.271.688-.659 1.211-1.164 1.57-.505.36-1.099.54-1.781.54Zm-.703-7.149c-.589 0-1.018.182-1.289.547-.271.359-.412.956-.422 1.789v.258c0 .937.138 1.609.414 2.015.281.407.724.61 1.328.61 1.068 0 1.602-.88 1.602-2.641 0-.859-.133-1.502-.399-1.929-.26-.433-.672-.649-1.234-.649ZM-17.272 10.108V6.566h7.085V4.795c-.974 0-1.808-.347-2.502-1.041-.694-.694-1.041-1.528-1.041-2.502v-17.711c0-.975.347-1.809 1.041-2.502.694-.694 1.528-1.041 2.502-1.041h28.339c.974 0 1.808.347 2.502 1.041.693.693 1.04 1.527 1.04 2.502V1.252c0 .974-.347 1.808-1.04 2.502-.694.694-1.528 1.041-2.502 1.041v1.771h7.085v3.542h-42.509Zm7.085-8.856h28.339v-17.711h-28.339V1.252Zm44.843 6.031h-.73l-1.282-4.255a13.38 13.38 0 0 1-.204-.712 4.107 4.107 0 0 1-.118-.518 9.763 9.763 0 0 1-.304 1.256l-1.243 4.229h-.73L28.355.929h.782l1.004 3.924c.139.551.24 1.049.304 1.495.078-.53.194-1.048.348-1.555L31.931.929h.782l1.195 3.898c.14.449.257.956.353 1.521.055-.411.159-.912.312-1.503l1-3.916h.782l-1.699 6.354Zm3.307 0h-.721V2.52h.721v4.763Zm-.782-6.054c0-.165.04-.285.121-.361a.424.424 0 0 1 .305-.117c.116 0 .216.039.3.117.084.079.126.199.126.361 0 .162-.042.284-.126.365a.426.426 0 0 1-.3.117.424.424 0 0 1-.305-.117c-.081-.081-.121-.203-.121-.365Zm5.571 6.054V4.202c0-.389-.088-.678-.265-.87-.177-.191-.453-.286-.83-.286-.498 0-.863.134-1.095.404-.232.269-.348.714-.348 1.334v2.499h-.721V2.52h.586l.118.652h.034c.148-.235.355-.416.622-.544.266-.13.563-.195.891-.195.573 0 1.005.139 1.295.417.29.275.434.717.434 1.326v3.107h-.721Zm5.445-.639h-.039c-.333.484-.831.726-1.495.726-.623 0-1.108-.213-1.456-.639-.344-.426-.517-1.032-.517-1.817 0-.785.174-1.395.522-1.829.347-.435.831-.652 1.451-.652.646 0 1.142.235 1.486.704h.057l-.031-.343-.017-.335V.521h.721v6.762h-.586l-.096-.639Zm-1.443.122c.493 0 .849-.134 1.069-.4.224-.27.335-.703.335-1.3v-.152c0-.675-.113-1.156-.339-1.443-.223-.289-.581-.434-1.073-.434-.423 0-.748.165-.974.495-.223.328-.334.791-.334 1.391 0 .608.111 1.068.334 1.378.223.31.551.465.982.465Zm7.766-1.869c0 .776-.195 1.383-.587 1.821-.391.434-.931.652-1.62.652-.426 0-.804-.1-1.135-.3-.33-.2-.585-.487-.765-.861-.179-.373-.269-.811-.269-1.312 0-.777.194-1.381.582-1.812.389-.435.927-.652 1.617-.652.666 0 1.195.222 1.586.665.394.443.591 1.043.591 1.799Zm-3.628 0c0 .608.121 1.072.365 1.391.243.318.601.478 1.073.478s.83-.158 1.073-.474c.247-.319.37-.784.37-1.395 0-.606-.123-1.065-.37-1.378-.243-.315-.604-.473-1.082-.473-.472 0-.828.155-1.069.465-.24.31-.36.772-.36 1.386Zm8.604 2.386-.873-2.795a22.862 22.862 0 0 1-.309-1.164h-.035c-.116.507-.217.898-.304 1.173l-.9 2.786h-.834L54.942 2.52h.756l.7 2.733c.162.626.254 1.048.278 1.265h.034c.032-.165.083-.378.153-.639.072-.264.134-.472.186-.626l.874-2.733h.782l.852 2.733c.162.499.272.917.33 1.256h.035a4.74 4.74 0 0 1 .091-.482c.052-.218.355-1.387.908-3.507h.748l-1.317 4.763h-.856Zm6.106-1.3c0 .444-.165.785-.496 1.026-.33.24-.794.361-1.39.361-.632 0-1.124-.1-1.478-.3v-.669a3.6 3.6 0 0 0 .735.273c.263.067.517.1.76.1.377 0 .666-.059.869-.178a.602.602 0 0 0 .304-.552.591.591 0 0 0-.243-.474c-.159-.133-.472-.289-.939-.469-.443-.165-.759-.308-.947-.43a1.347 1.347 0 0 1-.417-.422 1.103 1.103 0 0 1-.135-.56c0-.388.158-.694.474-.917.316-.226.749-.339 1.299-.339.513 0 1.014.104 1.504.313l-.257.586c-.478-.197-.911-.295-1.299-.295-.342 0-.6.054-.774.161a.498.498 0 0 0-.26.443c0 .127.032.236.095.326.067.09.173.175.318.256.144.081.423.199.834.352.565.206.946.413 1.143.622.2.208.3.471.3.786Zm1.929.265.065.1c-.075.29-.184.626-.326 1.009-.141.385-.289.743-.443 1.073h-.543c.078-.301.164-.674.256-1.117.096-.443.163-.798.2-1.065h.791Zm9.808 1.035V4.184c0-.379-.081-.663-.243-.852-.162-.191-.414-.286-.756-.286-.449 0-.781.129-.995.386-.215.258-.322.655-.322 1.191v2.66h-.721V4.184c0-.379-.081-.663-.244-.852-.162-.191-.415-.286-.76-.286-.452 0-.784.136-.995.408-.209.27-.313.713-.313 1.33v2.499h-.721V2.52h.586l.118.652h.034c.136-.232.328-.413.574-.544.249-.13.527-.195.834-.195.745 0 1.232.269 1.46.808h.035c.142-.249.348-.446.617-.591.27-.145.577-.217.922-.217.538 0 .941.139 1.208.417.269.275.404.717.404 1.326v3.107h-.722Zm5.137 0-.143-.678h-.035c-.238.298-.475.501-.713.608-.234.104-.529.157-.882.157-.472 0-.843-.122-1.112-.365-.267-.244-.4-.59-.4-1.039 0-.962.769-1.466 2.307-1.512l.809-.026v-.296c0-.374-.082-.649-.244-.826-.159-.179-.416-.269-.769-.269-.397 0-.846.122-1.347.365l-.222-.552a3.456 3.456 0 0 1 1.613-.408c.567 0 .987.126 1.26.378.275.252.413.656.413 1.212v3.251h-.535Zm-1.63-.509c.449 0 .801-.123 1.056-.369.258-.246.387-.591.387-1.034V4.94l-.721.031c-.574.02-.988.11-1.243.269-.252.157-.378.401-.378.735 0 .26.078.459.235.595.159.136.381.204.664.204Zm5.554.596c-.689 0-1.224-.212-1.603-.635-.377-.426-.565-1.027-.565-1.803 0-.797.191-1.413.573-1.847.386-.435.933-.652 1.643-.652.229 0 .458.025.687.074.229.049.408.107.539.174l-.222.612a3.233 3.233 0 0 0-.522-.156 2.212 2.212 0 0 0-.499-.065c-.968 0-1.452.617-1.452 1.851 0 .585.118 1.034.352 1.347.238.313.588.469 1.052.469.397 0 .804-.085 1.221-.256v.639c-.319.165-.72.248-1.204.248Zm7.957-3.273c0 1.017-.258 1.817-.773 2.399-.513.582-1.227.874-2.143.874-.936 0-1.658-.286-2.168-.857-.507-.573-.761-1.381-.761-2.424 0-1.035.255-1.836.765-2.404.51-.57 1.234-.856 2.173-.856.913 0 1.625.29 2.138.869.513.58.769 1.379.769 2.399Zm-5.063 0c0 .861.183 1.514.548 1.96.368.443.901.665 1.599.665.704 0 1.236-.222 1.595-.665.359-.443.539-1.096.539-1.96 0-.854-.18-1.502-.539-1.942-.356-.444-.885-.665-1.586-.665-.704 0-1.24.223-1.608.669-.365.443-.548 1.089-.548 1.938Zm10.065 1.495c0 .559-.203.995-.608 1.308-.406.313-.956.47-1.652.47-.753 0-1.332-.097-1.738-.292v-.712c.261.11.545.197.852.26.307.064.611.096.912.096.493 0 .864-.093 1.113-.278.249-.188.374-.449.374-.782 0-.22-.045-.4-.135-.539-.087-.142-.235-.272-.443-.391-.206-.119-.52-.254-.943-.404-.591-.212-1.014-.462-1.269-.752-.252-.29-.378-.668-.378-1.134 0-.49.184-.88.552-1.169.367-.29.854-.435 1.46-.435.631 0 1.212.116 1.742.348l-.23.643a3.939 3.939 0 0 0-1.53-.33c-.391 0-.696.084-.917.252-.22.168-.33.401-.33.699 0 .22.041.402.122.543.081.14.217.268.408.387.194.116.49.245.887.387.666.238 1.124.493 1.373.765.252.272.378.626.378 1.06Zm1.947.656.065.1c-.075.29-.184.626-.326 1.009-.142.385-.289.743-.443 1.073h-.543c.078-.301.163-.674.256-1.117.096-.443.162-.798.2-1.065h.791Zm3.846 1.035V.929h.739v5.684h2.803v.67h-3.542Zm5.232 0h-.721V2.52h.721v4.763Zm-.782-6.054c0-.165.041-.285.122-.361a.42.42 0 0 1 .304-.117c.116 0 .216.039.3.117.084.079.126.199.126.361 0 .162-.042.284-.126.365a.426.426 0 0 1-.3.117.42.42 0 0 1-.304-.117c-.081-.081-.122-.203-.122-.365Zm5.571 6.054V4.202c0-.389-.088-.678-.265-.87-.177-.191-.453-.286-.83-.286-.498 0-.863.134-1.095.404-.232.269-.348.714-.348 1.334v2.499h-.721V2.52h.587l.117.652h.035a1.46 1.46 0 0 1 .621-.544c.267-.13.564-.195.891-.195.574 0 1.005.139 1.295.417.29.275.435.717.435 1.326v3.107h-.722Zm2.881-4.763v3.09c0 .388.089.678.265.869.177.191.454.287.83.287.499 0 .862-.137 1.091-.409.232-.272.348-.717.348-1.334V2.52h.721v4.763h-.595l-.104-.639h-.039a1.438 1.438 0 0 1-.618.539c-.26.124-.559.187-.895.187-.579 0-1.014-.138-1.304-.413-.286-.275-.43-.716-.43-1.321V2.52h.73Zm5.932 2.325-1.655-2.325h.821l1.256 1.825 1.251-1.825h.813l-1.656 2.325 1.743 2.438h-.817l-1.334-1.93-1.347 1.93h-.817l1.742-2.438Z" style="fill:#fff" transform="translate(29.956 36.04)"/></svg>