<?xml version="1.0" encoding="UTF-8" standalone="no"?>
<svg xmlns:rdf="http://www.w3.org/1999/02/22-rdf-syntax-ns#" xmlns="http://www.w3.org/2000/svg" xml:space="preserve" height="60" width="170" version="1.1" y="0px" x="0px" xmlns:cc="http://creativecommons.org/ns#" enable-background="new 0 0 792 612" viewBox="0 0 1346.4 475.2" xmlns:dc="http://purl.org/dc/elements/1.1/">
    <rect rx="50" ry="50" height="475.2" width="1346.4" y="-3.5527e-15" x="-2.8405e-15"/>
    <path d="m150.48 126.72c-11.88 0-23.76 11.88-23.76 23.76v166.32l-47.52 23.76v11.88s0 11.88 11.88 11.88h356.4c11.88 0 11.88-11.88 11.88-11.88v-11.88l-47.52-23.76v-166.32c0-11.88-11.88-23.76-23.76-23.76zm0 23.667h237.6v142.65h-237.6z" fill="#fff"/>
    <g id="text8" style="font-size:316.79998779px;line-height:125%;font-family:Sans;letter-spacing:0px;word-spacing:0px;fill:#ffffff">
        <path d="m 537.87938,193.48313 q 0,22.33687 -12.74625,34.21687 -12.68438,11.88 -36.69188,11.88 l -25.61625,0 0,-90.46125 28.40063,0 q 22.15125,0 34.4025,11.69438 12.25125,11.69437 12.25125,32.67 z m -19.92375,0.495 q 0,-29.14313 -25.74,-29.14313 l -10.20938,0 0,58.905 8.22938,0 q 27.72,0 27.72,-29.76187 z" />
        <path d="m 583.79063,182.53125 q -6.00188,0 -9.405,3.83625 -3.40313,3.77438 -3.89813,10.76625 l 26.4825,0 q -0.12375,-6.99187 -3.65062,-10.76625 -3.52688,-3.83625 -9.52875,-3.83625 z m 2.66062,58.28625 q -16.70625,0 -26.11125,-9.21937 -9.405,-9.21938 -9.405,-26.11125 0,-17.38688 8.6625,-26.85375 8.72438,-9.52875 24.06938,-9.52875 14.66437,0 22.83187,8.35312 8.1675,8.35313 8.1675,23.07938 l 0,9.1575 -44.61187,0 q 0.30937,8.04375 4.76437,12.56062 4.455,4.51688 12.49875,4.51688 6.24938,0 11.81813,-1.29938 5.56875,-1.29937 11.6325,-4.14562 l 0,14.6025 q -4.95,2.475 -10.58063,3.65062 -5.63062,1.2375 -13.73625,1.2375 z" />
        <path d="m 678.3975,219.0375 q 0,10.6425 -7.425,16.21125 -7.36312,5.56875 -22.08937,5.56875 -7.54875,0 -12.87,-1.05187 -5.32125,-0.99 -9.96188,-2.97 l 0,-15.5925 q 5.25938,2.475 11.81813,4.14562 6.62062,1.67063 11.6325,1.67063 10.27125,0 10.27125,-5.94 0,-2.2275 -1.36125,-3.58875 -1.36125,-1.42313 -4.7025,-3.15563 -3.34125,-1.79437 -8.91,-4.14562 -7.98188,-3.34125 -11.75625,-6.1875 -3.7125,-2.84625 -5.445,-6.49688 -1.67063,-3.7125 -1.67063,-9.09562 0,-9.21938 7.11563,-14.23125 7.1775,-5.07375 20.295,-5.07375 12.49875,0 24.31687,5.445 l -5.6925,13.6125 q -5.1975,-2.2275 -9.71437,-3.65063 -4.51688,-1.42312 -9.21938,-1.42312 -8.35312,0 -8.35312,4.51687 0,2.53688 2.66062,4.39313 2.7225,1.85625 11.81813,5.50687 8.10562,3.27938 11.88,6.12563 3.77437,2.84625 5.56875,6.55875 1.79437,3.7125 1.79437,8.84812 z" />
        <path d="m 711.37688,201.96 8.22937,-10.51875 19.36688,-21.0375 21.285,0 -27.4725,30.00938 29.14312,39.16687 -21.78,0 -19.92375,-28.02937 -8.10562,6.49687 0,21.5325 -18.87188,0 0,-96.2775 18.87188,0 0,42.94125 -0.99,15.71625 0.2475,0 z" />
        <path d="m 801.09562,225.78188 q 4.95,0 11.88,-2.16563 l 0,14.04563 q -7.05375,3.15562 -17.325,3.15562 -11.32313,0 -16.52063,-5.6925 -5.13562,-5.75437 -5.13562,-17.20125 l 0,-33.35062 -9.03375,0 0,-7.98188 10.395,-6.31125 5.445,-14.6025 12.06562,0 0,14.72625 19.36688,0 0,14.16938 -19.36688,0 0,33.35062 q 0,4.02188 2.2275,5.94 2.28938,1.91813 6.00188,1.91813 z" />
        <path d="m 841.93312,204.86813 q 0,10.27125 3.34125,15.53062 3.40313,5.25938 11.01375,5.25938 7.54875,0 10.82813,-5.1975 3.34125,-5.25938 3.34125,-15.5925 0,-10.27125 -3.34125,-15.40688 -3.34125,-5.13562 -10.95188,-5.13562 -7.54875,0 -10.89,5.13562 -3.34125,5.07375 -3.34125,15.40688 z m 47.82938,0 q 0,16.89187 -8.91,26.42062 -8.91,9.52875 -24.81188,9.52875 -9.96187,0 -17.5725,-4.33125 -7.61062,-4.39312 -11.69437,-12.56062 -4.08375,-8.1675 -4.08375,-19.0575 0,-16.95375 8.84812,-26.35875 8.84813,-9.405 24.87375,-9.405 9.96188,0 17.5725,4.33125 7.61063,4.33125 11.69438,12.43687 4.08375,8.10563 4.08375,18.99563 z" />
        <path d="m 943.34627,240.8175 q -12.18938,0 -19.11938,-8.84812 l -0.99,0 q 0.99,8.6625 0.99,10.02375 l 0,28.02937 -18.87187,0 0,-99.61875 15.345,0 2.66062,8.97188 0.86625,0 q 6.62063,-10.27125 19.61438,-10.27125 12.25125,0 19.18125,9.46687 6.93,9.46688 6.93,26.29688 0,11.07562 -3.27938,19.24312 -3.2175,8.1675 -9.21937,12.43688 -6.00188,4.26937 -14.1075,4.26937 z m -5.56875,-56.61562 q -6.99188,0 -10.20938,4.33125 -3.2175,4.26937 -3.34125,14.16937 l 0,2.04188 q 0,11.1375 3.27938,15.96375 3.34125,4.82625 10.51875,4.82625 12.68437,0 12.68437,-20.91375 0,-10.20938 -3.15562,-15.28313 -3.09375,-5.13562 -9.77625,-5.13562 z" />
        <path d="m 1062.3938,239.58 -3.6507,-9.405 -0.495,0 q -4.7643,6.00188 -9.8381,8.35313 -5.0119,2.28937 -13.1175,2.28937 -9.9619,0 -15.7162,-5.6925 -5.6925,-5.6925 -5.6925,-16.21125 0,-11.01375 7.6725,-16.21125 7.7343,-5.25937 23.265,-5.81625 l 12.0037,-0.37125 0,-3.03187 q 0,-10.51875 -10.7662,-10.51875 -8.2913,0 -19.4907,5.01187 L 1020.3188,175.23 q 11.9418,-6.24937 26.4825,-6.24937 13.9218,0 21.3468,6.06375 7.425,6.06375 7.425,18.43875 l 0,46.09687 -13.1793,0 z m -5.5688,-32.05125 -7.3012,0.2475 q -8.2294,0.2475 -12.2513,2.97 -4.0219,2.7225 -4.0219,8.29125 0,7.98188 9.1575,7.98188 6.5588,0 10.4569,-3.77438 3.96,-3.77437 3.96,-10.02375 l 0,-5.6925 z" />
        <path d="m 1132.9312,240.8175 q -12.1893,0 -19.1193,-8.84812 l -0.99,0 q 0.99,8.6625 0.99,10.02375 l 0,28.02937 -18.8719,0 0,-99.61875 15.345,0 2.6606,8.97188 0.8663,0 q 6.6206,-10.27125 19.6143,-10.27125 12.2513,0 19.1813,9.46687 6.93,9.46688 6.93,26.29688 0,11.07562 -3.2794,19.24312 -3.2175,8.1675 -9.2194,12.43688 -6.0018,4.26937 -14.1075,4.26937 z m -5.5687,-56.61562 q -6.9919,0 -10.2094,4.33125 -3.2175,4.26937 -3.3412,14.16937 l 0,2.04188 q 0,11.1375 3.2793,15.96375 3.3413,4.82625 10.5188,4.82625 12.6844,0 12.6844,-20.91375 0,-10.20938 -3.1557,-15.28313 -3.0937,-5.13562 -9.7762,-5.13562 z" />
        <path d="m 1213.1213,240.8175 q -12.1894,0 -19.1194,-8.84812 l -0.99,0 q 0.99,8.6625 0.99,10.02375 l 0,28.02937 -18.8719,0 0,-99.61875 15.345,0 2.6607,8.97188 0.8662,0 q 6.6206,-10.27125 19.6144,-10.27125 12.2512,0 19.1812,9.46687 6.93,9.46688 6.93,26.29688 0,11.07562 -3.2793,19.24312 -3.2175,8.1675 -9.2194,12.43688 -6.0019,4.26937 -14.1075,4.26937 z m -5.5688,-56.61562 q -6.9918,0 -10.2093,4.33125 -3.2175,4.26937 -3.3413,14.16937 l 0,2.04188 q 0,11.1375 3.2794,15.96375 3.3412,4.82625 10.5187,4.82625 12.6844,0 12.6844,-20.91375 0,-10.20938 -3.1556,-15.28313 -3.0938,-5.13562 -9.7763,-5.13562 z" /></g>
    <g id="text12" style="fill:#ffffff">
        <path d="m 544.42648,342.54001 -5.84719,0 -10.26738,-34.07379 q -0.7309,-2.2623 -1.63582,-5.70797 -0.90492,-3.44566 -0.93973,-4.14176 -0.7657,4.59422 -2.43632,10.05856 l -9.95414,33.86496 -5.84719,0 -13.53902,-50.88445 6.26484,0 8.03988,31.42863 q 1.67063,6.61289 2.43633,11.97281 0.93973,-6.36926 2.78437,-12.46008 l 9.11883,-30.94136 6.26485,0 9.57128,31.2198 q 1.67063,5.39473 2.81918,12.18164 0.66129,-4.94226 2.50594,-12.04242 l 8.00508,-31.35902 6.26484,0 -13.60863,50.88445 z" />
        <path d="m 570.91285,342.54001 -5.77758,0 0,-38.14594 5.77758,0 0,38.14594 z M 564.648,294.05708 q 0,-1.98387 0.97453,-2.88879 0.97454,-0.93973 2.43633,-0.93973 1.39219,0 2.40153,0.93973 1.00933,0.93973 1.00933,2.88879 0,1.94906 -1.00933,2.92359 -1.00934,0.93973 -2.40153,0.93973 -1.46179,0 -2.43633,-0.93973 -0.97453,-0.97453 -0.97453,-2.92359 z" />
        <path d="m 609.33722,342.54001 0,-24.67652 q 0,-4.66383 -2.12309,-6.96094 -2.12308,-2.29711 -6.64769,-2.29711 -5.98641,0 -8.77078,3.23683 -2.78438,3.23684 -2.78438,10.68504 l 0,20.0127 -5.77758,0 0,-38.14594 4.69864,0 0.93972,5.2207 0.27844,0 q 1.77504,-2.81917 4.97707,-4.35058 3.20203,-1.56621 7.13496,-1.56621 6.89133,0 10.3718,3.34125 3.48047,3.30644 3.48047,10.61543 l 0,24.88535 -5.77758,0 z" />
        <path d="m 652.91269,337.42372 -0.31324,0 q -4.00254,5.81238 -11.97281,5.81238 -7.48301,0 -11.65957,-5.11629 -4.14176,-5.11629 -4.14176,-14.54836 0,-9.43207 4.17656,-14.65277 4.17656,-5.2207 11.62477,-5.2207 7.76144,0 11.9032,5.63836 l 0.45246,0 -0.24363,-2.74957 -0.13922,-2.67996 0,-15.52289 5.77758,0 0,54.15609 -4.69864,0 -0.7657,-5.11629 z m -11.55516,0.97453 q 5.9168,0 8.56196,-3.20203 2.67996,-3.23684 2.67996,-10.4066 l 0,-1.21817 q 0,-8.10949 -2.71477,-11.55515 -2.67996,-3.48047 -8.59675,-3.48047 -5.08149,0 -7.79625,3.96773 -2.67997,3.93293 -2.67997,11.1375 0,7.30899 2.67997,11.03309 2.67996,3.7241 7.86585,3.7241 z" />
        <path d="m 703.58832,323.43224 q 0,9.32765 -4.69863,14.58316 -4.69864,5.2207 -12.98215,5.2207 -5.11629,0 -9.08403,-2.40152 -3.96773,-2.40152 -6.12562,-6.89133 -2.15789,-4.4898 -2.15789,-10.51101 0,-9.32766 4.66383,-14.51356 4.66383,-5.2207 12.94734,-5.2207 8.00508,0 12.70371,5.32512 4.73344,5.32511 4.73344,14.40914 z m -29.06191,0 q 0,7.30898 2.92359,11.1375 2.92359,3.82851 8.59676,3.82851 5.67316,0 8.59675,-3.79371 2.9584,-3.82852 2.9584,-11.1723 0,-7.27418 -2.9584,-11.03309 -2.92359,-3.79371 -8.66636,-3.79371 -5.67317,0 -8.56196,3.7241 -2.88878,3.7241 -2.88878,11.1027 z" />
        <path d="m 744.83187,342.54001 -6.99575,-22.37942 q -0.66129,-2.05347 -2.47113,-9.32765 l -0.27844,0 q -1.39218,6.09082 -2.43633,9.39726 l -7.20457,22.30981 -6.6825,0 -10.4066,-38.14594 6.05602,0 q 3.6893,14.37434 5.60355,21.89215 1.94907,7.51781 2.2275,10.12816 l 0.27844,0 q 0.38285,-1.98386 1.21816,-5.11629 0.87012,-3.16722 1.49661,-5.01187 l 6.99574,-21.89215 6.26484,0 6.82172,21.89215 q 1.94906,5.98641 2.64516,10.05855 l 0.27843,0 q 0.13922,-1.25296 0.7309,-3.86332 0.62649,-2.61035 7.27418,-28.08738 l 5.98641,0 -10.54582,38.14594 -6.85652,0 z" />
        <path d="m 793.69766,332.13341 q 0,5.32511 -3.96774,8.2139 -3.96773,2.88879 -11.1375,2.88879 -7.58742,0 -11.83359,-2.40152 l 0,-5.35992 q 2.74957,1.39218 5.88199,2.19269 3.16723,0.80051 6.09082,0.80051 4.52461,0 6.96094,-1.42699 2.43633,-1.4618 2.43633,-4.4202 0,-2.2275 -1.94907,-3.79371 -1.91425,-1.60101 -7.51781,-3.7589 -5.32511,-1.98387 -7.58742,-3.44567 -2.2275,-1.4966 -3.34125,-3.37605 -1.07894,-1.87946 -1.07894,-4.48981 0,-4.66383 3.79371,-7.34379 3.79371,-2.71476 10.4066,-2.71476 6.16043,0 12.04242,2.50594 l -2.05348,4.69863 q -5.74277,-2.36672 -10.4066,-2.36672 -4.10695,0 -6.19523,1.28777 -2.08828,1.28778 -2.08828,3.55008 0,1.53141 0.7657,2.61035 0.80051,1.07895 2.54074,2.05348 1.74024,0.97453 6.6825,2.81918 6.78691,2.47113 9.15363,4.97707 2.40153,2.50594 2.40153,6.29965 z" />
        <path d="m 809.11612,334.25649 0.52207,0.80051 q -0.90492,3.48047 -2.61035,8.07469 -1.70543,4.62902 -3.55008,8.59676 l -4.35059,0 q 0.93973,-3.61969 2.05348,-8.94481 1.14856,-5.32512 1.60102,-8.52715 l 6.33445,0 z" />
        <path d="m 884.15502,317.02817 q 0,12.21645 -6.19524,19.21219 -6.16043,6.99574 -17.15871,6.99574 -11.24191,0 -17.36754,-6.85652 -6.09082,-6.89133 -6.09082,-19.42102 0,-12.42527 6.12563,-19.24699 6.12562,-6.85652 17.40234,-6.85652 10.96348,0 17.12391,6.96094 6.16043,6.96093 6.16043,19.21218 z m -40.54746,0 q 0,10.337 4.38539,15.69692 4.42019,5.32511 12.80812,5.32511 8.45754,0 12.77332,-5.32511 4.31578,-5.32512 4.31578,-15.69692 0,-10.26738 -4.31578,-15.55769 -4.28098,-5.32512 -12.70371,-5.32512 -8.45754,0 -12.87773,5.35992 -4.38539,5.32512 -4.38539,15.52289 z" />
        <path d="m 924.25001,329.00099 q 0,6.7173 -4.87265,10.47621 -4.87266,3.7589 -13.22578,3.7589 -9.04922,0 -13.92188,-2.33191 l 0,-5.70797 q 3.13242,1.32258 6.82172,2.08828 3.6893,0.7657 7.30898,0.7657 5.9168,0 8.91,-2.2275 2.99321,-2.2623 2.99321,-6.26484 0,-2.64516 -1.07895,-4.31578 -1.04414,-1.70543 -3.55008,-3.13242 -2.47113,-1.42699 -7.55261,-3.23684 -7.10016,-2.54074 -10.16297,-6.02121 -3.02801,-3.48047 -3.02801,-9.08402 0,-5.88199 4.4202,-9.36246 4.42019,-3.48047 11.69437,-3.48047 7.58742,0 13.95668,2.78437 l -1.84465,5.1511 q -6.29965,-2.64516 -12.25125,-2.64516 -4.69863,0 -7.34379,2.01867 -2.64515,2.01867 -2.64515,5.60356 0,2.64515 0.97453,4.35058 0.97453,1.67063 3.27164,3.09762 2.33191,1.39219 7.10016,3.09762 8.00507,2.85398 10.99828,6.12562 3.028,3.27164 3.028,8.49235 z" />
        <path d="m 987.03767,342.54001 -6.7173,0 -13.67824,-22.37942 -13.92188,22.37942 -6.26484,0 16.91508,-26.59078 -15.76653,-24.29367 6.54328,0 12.63411,20.15191 12.73851,-20.15191 6.29965,0 -15.76652,24.08484 16.98468,26.79961 z" />
        <path d="m 999.56738,334.25649 0.52212,0.80051 q -0.90497,3.48047 -2.6104,8.07469 -1.70543,4.62902 -3.55008,8.59676 l -4.35058,0 q 0.93972,-3.61969 2.05347,-8.94481 1.14856,-5.32512 1.60102,-8.52715 l 6.33445,0 z" />
        <path d="m 1030.4391,342.54001 0,-50.88445 5.9168,0 0,45.52453 22.449,0 0,5.35992 -28.3658,0 z" />
        <path d="m 1072.3788,342.54001 -5.7776,0 0,-38.14594 5.7776,0 0,38.14594 z m -6.2649,-48.48293 q 0,-1.98387 0.9746,-2.88879 0.9745,-0.93973 2.4363,-0.93973 1.3922,0 2.4015,0.93973 1.0094,0.93973 1.0094,2.88879 0,1.94906 -1.0094,2.92359 -1.0093,0.93973 -2.4015,0.93973 -1.4618,0 -2.4363,-0.93973 -0.9746,-0.97453 -0.9746,-2.92359 z" />
        <path d="m 1110.8032,342.54001 0,-24.67652 q 0,-4.66383 -2.1231,-6.96094 -2.1231,-2.29711 -6.6477,-2.29711 -5.9864,0 -8.7708,3.23683 -2.7844,3.23684 -2.7844,10.68504 l 0,20.0127 -5.7775,0 0,-38.14594 4.6986,0 0.9397,5.2207 0.2785,0 q 1.775,-2.81917 4.977,-4.35058 3.2021,-1.56621 7.135,-1.56621 6.8913,0 10.3718,3.34125 3.4805,3.30644 3.4805,10.61543 l 0,24.88535 -5.7776,0 z" />
        <path d="m 1133.8439,304.39407 0,24.74613 q 0,4.66383 2.123,6.96094 2.1231,2.29711 6.6477,2.29711 5.9864,0 8.736,-3.27164 2.7844,-3.27164 2.7844,-10.68504 l 0,-20.0475 5.7776,0 0,38.14594 -4.7683,0 -0.8353,-5.11629 -0.3132,0 q -1.7751,2.81918 -4.9423,4.31578 -3.1324,1.4966 -7.1698,1.4966 -6.9609,0 -10.4414,-3.30644 -3.4456,-3.30645 -3.4456,-10.58063 l 0,-24.95496 5.8472,0 z" />
        <path d="m 1181.3174,323.01458 -13.2606,-18.62051 6.5781,0 10.0586,14.61797 10.0237,-14.61797 6.5085,0 -13.2606,18.62051 13.9567,19.52543 -6.5433,0 -10.685,-15.45328 -10.7895,15.45328 -6.5433,0 13.9567,-19.52543 z" />
    </g>
</svg>
