<svg xmlns="http://www.w3.org/2000/svg" xml:space="preserve" width="170" height="60" viewBox="0 0 1346.4 475.2"><rect width="1346.4" height="475.2" rx="50" ry="50"/><path fill="#fff" d="M150.48 126.72c-11.88 0-23.76 11.88-23.76 23.76V316.8L79.2 340.56v11.88s0 11.88 11.88 11.88h356.4c11.88 0 11.88-11.88 11.88-11.88v-11.88l-47.52-23.76V150.48c0-11.88-11.88-23.76-23.76-23.76h-237.6zm542.766 16.584v96.276h18.873v-21.534l8.11-6.495 19.919 28.029h21.78l-29.146-39.164 27.475-30.01h-21.281l-19.373 21.036-8.229 10.518h-.245l.99-15.713v-42.943h-18.873zm-230.417 5.814v90.462h25.613c16.007 0 28.235-3.96 36.694-11.88 8.498-7.92 12.743-19.325 12.743-34.214 0-13.987-4.087-24.877-12.252-32.67-8.166-7.802-19.634-11.698-34.405-11.698H462.83zm-312.349 1.267h237.6V293.04h-237.6V150.385zm630.321 5.29-5.449 14.605-10.39 6.312v7.984h9.036v33.35c0 7.628 1.71 13.362 5.132 17.203 3.461 3.794 8.973 5.687 16.513 5.687 6.89 0 12.593-1.054 17.345-3.153v-14.05c-4.594 1.45-8.554 2.17-11.88 2.17-2.455 0-4.514-.641-6.02-1.916-1.504-1.283-2.217-3.263-2.217-5.94v-33.351h19.325v-14.17h-19.325v-14.73h-12.07zm-298.798 9.156h10.21c17.162 0 25.74 9.718 25.74 29.146 0 19.84-9.236 29.763-27.72 29.763h-8.23v-58.909zm564.783 4.15c-9.662 0-18.532 2.083-26.452 6.249l6.256 12.743c7.445-3.342 13.94-5.005 19.484-5.005 7.128 0 10.77 3.5 10.77 10.518v3.025l-12.038.372c-10.375.373-18.057 2.313-23.284 5.821-5.07 3.462-7.604 8.87-7.604 16.213 0 7.009 1.901 12.41 5.624 16.212 3.88 3.794 9.108 5.687 15.76 5.687 5.386 0 9.742-.76 13.148-2.29 3.326-1.568 6.652-4.347 9.82-8.355h.476l3.643 9.409h13.147v-46.094c0-8.253-2.455-14.399-7.366-18.438-4.99-4.047-12.117-6.067-21.384-6.067zm-463.122.127c-10.224 0-18.247 3.176-24.068 9.528-5.774 6.312-8.665 15.261-8.665 26.848 0 11.263 3.136 19.967 9.409 26.113s14.977 9.219 26.112 9.219c5.402 0 9.98-.412 13.734-1.236 3.754-.784 7.286-2.004 10.58-3.651v-14.605c-4.039 1.901-7.92 3.28-11.634 4.15-3.706.864-7.65 1.3-11.816 1.3-5.362 0-9.528-1.505-12.498-4.523-2.97-3.01-4.554-7.191-4.76-12.553h44.605v-9.164c0-9.812-2.716-17.51-8.165-23.078-5.441-5.568-13.052-8.348-22.834-8.348zm69.673 0c-8.744 0-15.508 1.687-20.291 5.069-4.744 3.342-7.12 8.086-7.12 14.232 0 3.588.562 6.621 1.67 9.1 1.157 2.431 2.97 4.594 5.45 6.494 2.51 1.893 6.43 3.96 11.753 6.186 3.714 1.568 6.684 2.946 8.91 4.142 2.225 1.156 3.794 2.21 4.704 3.16.903.91 1.363 2.107 1.363 3.588 0 3.96-3.43 5.94-10.273 5.94-3.342 0-7.223-.555-11.634-1.671-4.372-1.117-8.308-2.495-11.817-4.142v15.586c3.097 1.323 6.415 2.313 9.964 2.97 3.548.705 7.832 1.054 12.87 1.054 9.812 0 17.178-1.854 22.088-5.568 4.95-3.715 7.422-9.116 7.422-16.212 0-3.422-.594-6.368-1.79-8.847-1.196-2.471-3.058-4.657-5.568-6.558-2.519-1.9-6.479-3.936-11.88-6.122-6.067-2.44-10.003-4.277-11.825-5.512-1.774-1.236-2.66-2.701-2.66-4.388 0-3.018 2.787-4.522 8.355-4.522 3.136 0 6.209.475 9.219 1.425s6.249 2.162 9.717 3.651l5.687-13.614c-7.872-3.627-15.983-5.441-24.314-5.441zm203.053 0c-10.692 0-18.93 3.128-24.87 9.4-5.86 6.274-8.79 15.057-8.79 26.359 0 7.262 1.346 13.614 4.039 19.055 2.693 5.45 6.653 9.639 11.721 12.561 5.07 2.891 10.93 4.333 17.583 4.333 10.533 0 18.85-3.176 24.79-9.528s8.87-15.16 8.87-26.421c0-7.255-1.347-13.591-4.04-18.993-2.771-5.409-6.652-9.551-11.721-12.442-5.069-2.883-10.93-4.324-17.582-4.324zm87.436 0c-8.632 0-15.206 3.421-19.562 10.264h-.871l-2.693-8.965h-15.365v99.617h18.929v-28.028c0-.911-.396-4.253-1.03-10.027h1.03c4.594 5.9 10.93 8.847 19.087 8.847 5.386 0 10.138-1.418 14.098-4.27 4.039-2.843 7.049-6.993 9.187-12.434 2.218-5.449 3.326-11.864 3.326-19.245 0-11.215-2.296-19.983-6.97-26.295-4.593-6.312-11.008-9.464-19.166-9.464zm189.605 0c-8.633 0-15.206 3.421-19.641 10.264h-.872l-2.613-8.965h-15.365v99.617h18.85v-28.028c0-.911-.317-4.253-.95-10.027h.95c4.672 5.9 11.008 8.847 19.166 8.847 5.386 0 10.058-1.418 14.098-4.27 3.96-2.843 7.048-6.993 9.187-12.434 2.217-5.449 3.326-11.864 3.326-19.245 0-11.215-2.376-19.983-6.97-26.295s-11.008-9.464-19.166-9.464zm80.15 0c-8.632 0-15.127 3.421-19.562 10.264h-.871l-2.693-8.965h-15.285v99.617h18.85v-28.028c0-.911-.318-4.253-1.03-10.027h1.03c4.593 5.9 11.008 8.847 19.086 8.847 5.386 0 10.138-1.418 14.098-4.27 4.04-2.843 7.128-6.993 9.266-12.434 2.139-5.449 3.248-11.864 3.248-19.245 0-11.215-2.297-19.983-6.89-26.295-4.674-6.312-11.01-9.464-19.246-9.464zm-629.79 13.424c4 0 7.176 1.275 9.528 3.834 2.352 2.518 3.572 6.106 3.651 10.77h-26.484c.332-4.664 1.631-8.252 3.896-10.77 2.273-2.559 5.41-3.834 9.41-3.834zm354.016 1.671c4.435 0 7.683 1.711 9.742 5.133 2.138 3.381 3.168 8.482 3.168 15.285 0 13.94-4.198 20.917-12.672 20.917-4.831 0-8.316-1.616-10.534-4.831s-3.247-8.538-3.247-15.96v-2.043c.08-6.605 1.188-11.325 3.326-14.168 2.139-2.891 5.544-4.333 10.217-4.333zm189.526 0c4.514 0 7.761 1.711 9.82 5.133 2.06 3.381 3.169 8.482 3.169 15.285 0 13.94-4.277 20.917-12.672 20.917-4.832 0-8.316-1.616-10.534-4.831s-3.326-8.538-3.326-15.96v-2.043c.079-6.605 1.188-11.325 3.326-14.168 2.218-2.891 5.623-4.333 10.217-4.333zm80.23 0c4.435 0 7.682 1.711 9.741 5.133 2.138 3.381 3.168 8.482 3.168 15.285 0 13.94-4.198 20.917-12.672 20.917-4.752 0-8.316-1.616-10.534-4.831-2.138-3.216-3.247-8.538-3.247-15.96v-2.043c.08-6.605 1.188-11.325 3.327-14.168 2.138-2.891 5.544-4.333 10.216-4.333zm-351.411.12c5.069 0 8.712 1.718 10.93 5.14 2.296 3.42 3.405 8.56 3.405 15.404 0 6.89-1.109 12.086-3.405 15.594-2.139 3.461-5.782 5.196-10.772 5.196-5.068 0-8.79-1.75-11.008-5.26s-3.406-8.68-3.406-15.53c0-6.89 1.188-12.023 3.406-15.405 2.217-3.421 5.86-5.14 10.85-5.14zm200.693 23.205v5.694c0 4.166-1.347 7.508-3.96 10.027-2.614 2.51-6.099 3.77-10.455 3.77-6.098 0-9.187-2.661-9.187-7.983 0-3.707 1.347-6.471 4.04-8.293 2.692-1.813 6.731-2.803 12.275-2.97l7.287-.245zm-404.253 80.855v15.515l.143 2.693.245 2.74h-.443c-2.764-3.762-6.74-5.63-11.912-5.63-4.966 0-8.839 1.726-11.619 5.21-2.787 3.478-4.173 8.38-4.173 14.66 0 6.29 1.362 11.136 4.126 14.542 2.788 3.413 6.676 5.124 11.666 5.124 5.314 0 9.306-1.94 11.967-5.813h.317l.768 5.116h4.705v-54.157h-5.79zm-84.53 1.845c-.974 0-1.798.317-2.447.943-.65.602-.974 1.568-.974 2.89 0 1.3.324 2.274.974 2.923.65.626 1.473.927 2.447.927.927 0 1.719-.301 2.392-.927.673-.65 1.006-1.623 1.006-2.922s-.333-2.265-1.006-2.891-1.465-.943-2.392-.943zm501.455 0c-.95 0-1.822.317-2.455.943-.634.602-.95 1.568-.95 2.89 0 1.3.316 2.274.95 2.923.633.626 1.504.927 2.455.927s1.742-.301 2.376-.927c.713-.65 1.03-1.623 1.03-2.922s-.317-2.265-1.03-2.891c-.634-.626-1.426-.943-2.376-.943zm-208.613.634c-7.524 0-13.385 2.281-17.424 6.85-4.118 4.547-6.178 10.962-6.178 19.246 0 8.348 2.06 14.835 6.099 19.428 4.118 4.57 9.9 6.851 17.424 6.851 7.286 0 12.989-2.329 17.107-6.993 4.198-4.665 6.178-11.065 6.178-19.214 0-8.166-1.98-14.573-6.099-19.206-4.118-4.641-9.82-6.962-17.107-6.962zm48.074.055c-4.83 0-8.712 1.165-11.642 3.485-3.01 2.32-4.435 5.433-4.435 9.362 0 3.73 1.03 6.771 3.01 9.092 2.059 2.32 5.464 4.324 10.137 6.019 3.406 1.204 5.94 2.281 7.603 3.231s2.851 2.004 3.564 3.137c.713 1.116 1.03 2.558 1.03 4.316 0 2.67-.95 4.76-3.01 6.265-1.98 1.489-4.91 2.233-8.87 2.233-2.455 0-4.831-.269-7.287-.776-2.455-.515-4.752-1.204-6.89-2.09v5.71c3.247 1.552 7.92 2.336 13.94 2.336 5.622 0 9.978-1.251 13.226-3.762 3.247-2.503 4.91-5.995 4.91-10.47 0-3.477-1.03-6.313-3.01-8.49-2.059-2.186-5.702-4.222-11.008-6.13-3.168-1.133-5.544-2.179-7.128-3.105-1.505-.95-2.614-1.98-3.248-3.097-.633-1.133-1.03-2.582-1.03-4.348 0-2.384.951-4.253 2.694-5.6s4.197-2.027 7.365-2.027c3.96 0 8 .887 12.197 2.645l1.9-5.148c-4.276-1.853-8.949-2.788-14.018-2.788zm-415.016.73 13.536 50.893h5.845l9.947-33.858c1.117-3.643 1.933-7.01 2.448-10.074.023.467.34 1.853.942 4.15s1.14 4.197 1.624 5.702l10.272 34.08h5.845l13.614-50.894h-6.264l-8.015 31.371c-1.228 4.736-2.06 8.744-2.503 12.039-.768-4.53-1.703-8.578-2.82-12.173l-9.575-31.237h-6.265l-9.108 30.951a87.817 87.817 0 0 0-2.788 12.459c-.506-3.572-1.33-7.564-2.439-11.975l-8.03-31.435h-6.266zm453.666 0 15.76 24.306-16.948 26.587h6.257l13.939-22.382 13.702 22.382h6.652l-16.948-26.81 15.76-24.084h-6.256l-12.752 20.156-12.672-20.156h-6.494zm82.843 0v50.893h28.354v-5.37h-22.493v-45.524h-5.86zm-169.567 4.506c5.544 0 9.82 1.766 12.672 5.314 2.851 3.532 4.277 8.72 4.277 15.563 0 6.914-1.426 12.141-4.277 15.69s-7.128 5.337-12.751 5.337-9.9-1.79-12.83-5.338c-2.931-3.572-4.357-8.799-4.357-15.69 0-6.795 1.426-11.974 4.356-15.53 2.93-3.572 7.208-5.346 12.91-5.346zm-259.65 7.547c-2.62 0-4.997.515-7.127 1.56-2.139 1.022-3.802 2.464-4.982 4.349h-.277l-.935-5.212h-4.696v38.143h5.765v-20.014c0-4.966.927-8.53 2.788-10.692 1.854-2.154 4.776-3.231 8.768-3.231 3.017 0 5.235.768 6.653 2.305 1.417 1.528 2.122 3.849 2.122 6.961v24.671h5.782v-24.893c0-4.87-1.157-8.403-3.477-10.604-2.32-2.234-5.79-3.343-10.383-3.343zm84.895 0c-5.52 0-9.836 1.727-12.949 5.212-3.113 3.453-4.657 8.308-4.657 14.525 0 4.015.713 7.508 2.154 10.502 1.434 2.994 3.477 5.298 6.122 6.898s5.671 2.4 9.085 2.4c5.52 0 9.86-1.75 12.988-5.227 3.137-3.509 4.69-8.356 4.69-14.573 0-6.059-1.577-10.866-4.737-14.414-3.128-3.557-7.358-5.323-12.696-5.323zm94.7 0c-4.412 0-7.865.895-10.4 2.709-2.526 1.782-3.8 4.237-3.8 7.342 0 1.742.363 3.231 1.084 4.49.737 1.252 1.853 2.384 3.334 3.382 1.513.974 4.048 2.115 7.596 3.438 3.738 1.441 6.24 2.692 7.524 3.762 1.299 1.037 1.948 2.32 1.948 3.801 0 1.972-.824 3.437-2.447 4.412-1.624.95-3.944 1.433-6.962 1.433-1.948 0-3.984-.27-6.09-.8a28.706 28.706 0 0 1-5.885-2.202v5.37c2.835 1.6 6.78 2.4 11.84 2.4 4.776 0 8.49-.966 11.136-2.89 2.669-1.933 3.936-4.666 3.936-8.214 0-2.534-.792-4.625-2.376-6.296-1.576-1.671-4.617-3.335-9.14-4.982-3.294-1.235-5.52-2.17-6.684-2.82-1.156-.649-2.02-1.338-2.55-2.059-.515-.712-.76-1.592-.76-2.613 0-1.505.696-2.677 2.09-3.54 1.394-.856 3.446-1.284 6.186-1.284 3.112 0 6.581.792 10.415 2.369l2.027-4.705c-3.896-1.671-7.92-2.503-12.022-2.503zm321.853 0c-2.614 0-4.99.515-7.128 1.56-2.139 1.022-3.802 2.464-4.99 4.349h-.238l-.95-5.212h-4.673v38.143h5.782v-20.014c0-4.966.871-8.53 2.772-10.692 1.821-2.154 4.752-3.231 8.712-3.231 3.089 0 5.306.768 6.653 2.305 1.425 1.528 2.138 3.849 2.138 6.961v24.671h5.782v-24.893c0-4.87-1.11-8.403-3.485-10.604-2.297-2.234-5.782-3.343-10.375-3.343zm-537.57.697v38.143h5.773v-38.143h-5.773zm143.225 0 10.399 38.143h6.684l7.208-22.303c.696-2.21 1.512-5.346 2.439-9.409h.285c1.204 4.847 2.012 7.96 2.455 9.33l7.01 22.382h6.85l10.55-38.143h-5.988c-4.427 16.98-6.867 26.35-7.286 28.085-.388 1.742-.634 3.017-.721 3.857h-.285c-.46-2.717-1.339-6.067-2.645-10.059l-6.82-21.883h-6.264l-6.994 21.883a97.431 97.431 0 0 0-1.496 5.014c-.555 2.09-.967 3.801-1.22 5.124h-.285c-.182-1.743-.927-5.124-2.226-10.138-1.275-5.013-3.136-12.3-5.6-21.883h-6.05zm358.23 0v38.143h5.781v-38.143h-5.782zm61.38 0v24.948c0 4.847 1.187 8.38 3.484 10.581s5.782 3.311 10.455 3.311c2.692 0 5.068-.507 7.128-1.505 2.138-.998 3.801-2.431 4.99-4.308h.316l.792 5.116h4.752v-38.143h-5.782v20.046c0 4.942-.87 8.506-2.772 10.684-1.821 2.186-4.752 3.27-8.712 3.27-3.01 0-5.227-.76-6.652-2.288-1.426-1.537-2.139-3.857-2.139-6.962v-24.75h-5.86zm40.075 0 13.305 18.62-14.018 19.523h6.573l10.772-15.452 10.692 15.452h6.573L1188 323.017l13.226-18.62h-6.494l-10.058 14.613-10.059-14.613h-6.573zM641.29 308.54c3.944 0 6.812 1.165 8.601 3.477 1.806 2.305 2.701 6.154 2.701 11.556v1.211c0 4.776-.887 8.253-2.669 10.407-1.766 2.139-4.625 3.208-8.57 3.208-3.46 0-6.074-1.252-7.864-3.73-1.782-2.487-2.677-6.154-2.677-11.033 0-4.8.895-8.514 2.677-11.136 1.814-2.645 4.412-3.96 7.801-3.96zm44.685.064c3.833 0 6.716 1.26 8.664 3.786 1.973 2.51 2.955 6.2 2.955 11.048 0 4.895-.982 8.617-2.955 11.167-1.948 2.527-4.815 3.794-8.6 3.794-3.779 0-6.638-1.275-8.586-3.826s-2.922-6.264-2.922-11.135c0-4.918.95-8.625 2.875-11.104 1.924-2.487 4.791-3.73 8.569-3.73zm116.796 25.645c-.317 2.138-.871 4.99-1.584 8.538-.792 3.548-1.425 6.526-2.059 8.941h4.356a170.03 170.03 0 0 0 3.564-8.6c1.109-3.058 1.98-5.75 2.614-8.071l-.555-.808h-6.336zm190.476 0c-.317 2.138-.871 4.99-1.584 8.538-.792 3.548-1.425 6.526-2.059 8.941h4.356a119.572 119.572 0 0 0 3.485-8.6c1.188-3.058 2.059-5.75 2.613-8.071l-.475-.808h-6.336z"/></svg>
