<svg width="170" height="60" enable-background="new 0 0 792 612" version="1.1" viewBox="0 0 1346.4 475.2" xml:space="preserve" xmlns="http://www.w3.org/2000/svg"><rect x="-2.8405e-15" y="-3.5527e-15" width="1346.4" height="475.2" rx="50" ry="50"/><path transform="scale(7.92)" d="m19 16c-1.5 0-3 1.5-3 3v21l-6 3v1.5s0 1.5 1.5 1.5h45c1.5 0 1.5-1.5 1.5-1.5v-1.5l-6-3v-21c0-1.5-1.5-3-3-3h-30zm68.531 2.094v12.156h2.383v-2.719l1.024-0.82 2.515 3.539h2.75l-3.68-4.945 3.469-3.789h-2.687l-2.446 2.656-1.039 1.328h-0.031l0.125-1.984v-5.422h-2.383zm-29.093 0.734v11.422h3.234c2.021 0 3.565-0.5 4.633-1.5 1.073-1 1.609-2.44 1.609-4.32 0-1.766-0.516-3.141-1.547-4.125-1.031-0.985-2.479-1.477-4.344-1.477h-3.585zm-39.438 0.16h30v18.012h-30v-18.012zm79.586 0.668-0.688 1.844-1.312 0.797v1.008h1.141v4.211c0 0.963 0.216 1.687 0.648 2.172 0.437 0.479 1.133 0.718 2.085 0.718 0.87 0 1.59-0.133 2.19-0.398v-1.774c-0.58 0.183-1.08 0.274-1.5 0.274-0.31 0-0.57-0.081-0.76-0.242-0.19-0.162-0.28-0.412-0.28-0.75v-4.211h2.44v-1.789h-2.44v-1.86h-1.524zm-37.727 1.156h1.289c2.167 0 3.25 1.227 3.25 3.68 0 2.505-1.166 3.758-3.5 3.758h-1.039v-7.438zm71.311 0.524c-1.22 0-2.34 0.263-3.34 0.789l0.79 1.609c0.94-0.422 1.76-0.632 2.46-0.632 0.9 0 1.36 0.442 1.36 1.328v0.382l-1.52 0.047c-1.31 0.047-2.28 0.292-2.94 0.735-0.64 0.437-0.96 1.12-0.96 2.047 0 0.885 0.24 1.567 0.71 2.047 0.49 0.479 1.15 0.718 1.99 0.718 0.68 0 1.23-0.096 1.66-0.289 0.42-0.198 0.84-0.549 1.24-1.055h0.06l0.46 1.188h1.66v-5.82c0-1.042-0.31-1.818-0.93-2.328-0.63-0.511-1.53-0.766-2.7-0.766zm-58.475 0.016c-1.291 0-2.304 0.401-3.039 1.203-0.729 0.797-1.094 1.927-1.094 3.39 0 1.422 0.396 2.521 1.188 3.297s1.891 1.164 3.297 1.164c0.682 0 1.26-0.052 1.734-0.156 0.474-0.099 0.92-0.253 1.336-0.461v-1.844c-0.51 0.24-1 0.414-1.469 0.524-0.468 0.109-0.966 0.164-1.492 0.164-0.677 0-1.203-0.19-1.578-0.571-0.375-0.38-0.575-0.908-0.601-1.585h5.632v-1.157c0-1.239-0.343-2.211-1.031-2.914-0.687-0.703-1.648-1.054-2.883-1.054zm8.797 0c-1.104 0-1.958 0.213-2.562 0.64-0.599 0.422-0.899 1.021-0.899 1.797 0 0.453 0.071 0.836 0.211 1.149 0.146 0.307 0.375 0.58 0.688 0.82 0.317 0.239 0.812 0.5 1.484 0.781 0.469 0.198 0.844 0.372 1.125 0.523 0.281 0.146 0.479 0.279 0.594 0.399 0.114 0.115 0.172 0.266 0.172 0.453 0 0.5-0.433 0.75-1.297 0.75-0.422 0-0.912-0.07-1.469-0.211-0.552-0.141-1.049-0.315-1.492-0.523v1.968c0.391 0.167 0.81 0.292 1.258 0.375 0.448 0.089 0.989 0.133 1.625 0.133 1.239 0 2.169-0.234 2.789-0.703 0.625-0.469 0.937-1.151 0.937-2.047 0-0.432-0.075-0.804-0.226-1.117-0.151-0.312-0.386-0.588-0.703-0.828-0.318-0.24-0.818-0.497-1.5-0.773-0.766-0.308-1.263-0.54-1.493-0.696-0.224-0.156-0.336-0.341-0.336-0.554 0-0.381 0.352-0.571 1.055-0.571 0.396 0 0.784 0.06 1.164 0.18s0.789 0.273 1.227 0.461l0.718-1.719c-0.994-0.458-2.018-0.687-3.07-0.687zm25.638 0c-1.35 0-2.39 0.395-3.14 1.187-0.74 0.792-1.11 1.901-1.11 3.328 0 0.917 0.17 1.719 0.51 2.406 0.34 0.688 0.84 1.217 1.48 1.586 0.64 0.365 1.38 0.547 2.22 0.547 1.33 0 2.38-0.401 3.13-1.203s1.12-1.914 1.12-3.336c0-0.916-0.17-1.716-0.51-2.398-0.35-0.683-0.84-1.206-1.48-1.571-0.64-0.364-1.38-0.546-2.22-0.546zm11.04 0c-1.09 0-1.92 0.432-2.47 1.296h-0.11l-0.34-1.132h-1.94v12.578h2.39v-3.539c0-0.115-0.05-0.537-0.13-1.266h0.13c0.58 0.745 1.38 1.117 2.41 1.117 0.68 0 1.28-0.179 1.78-0.539 0.51-0.359 0.89-0.883 1.16-1.57 0.28-0.688 0.42-1.498 0.42-2.43 0-1.416-0.29-2.523-0.88-3.32-0.58-0.797-1.39-1.195-2.42-1.195zm23.94 0c-1.09 0-1.92 0.432-2.48 1.296h-0.11l-0.33-1.132h-1.94v12.578h2.38v-3.539c0-0.115-0.04-0.537-0.12-1.266h0.12c0.59 0.745 1.39 1.117 2.42 1.117 0.68 0 1.27-0.179 1.78-0.539 0.5-0.359 0.89-0.883 1.16-1.57 0.28-0.688 0.42-1.498 0.42-2.43 0-1.416-0.3-2.523-0.88-3.32s-1.39-1.195-2.42-1.195zm10.12 0c-1.09 0-1.91 0.432-2.47 1.296h-0.11l-0.34-1.132h-1.93v12.578h2.38v-3.539c0-0.115-0.04-0.537-0.13-1.266h0.13c0.58 0.745 1.39 1.117 2.41 1.117 0.68 0 1.28-0.179 1.78-0.539 0.51-0.359 0.9-0.883 1.17-1.57 0.27-0.688 0.41-1.498 0.41-2.43 0-1.416-0.29-2.523-0.87-3.32-0.59-0.797-1.39-1.195-2.43-1.195zm-79.519 1.695c0.505 0 0.906 0.161 1.203 0.484 0.297 0.318 0.451 0.771 0.461 1.36h-3.344c0.042-0.589 0.206-1.042 0.492-1.36 0.287-0.323 0.683-0.484 1.188-0.484zm44.699 0.211c0.56 0 0.97 0.216 1.23 0.648 0.27 0.427 0.4 1.071 0.4 1.93 0 1.76-0.53 2.641-1.6 2.641-0.61 0-1.05-0.204-1.33-0.61s-0.41-1.078-0.41-2.015v-0.258c0.01-0.834 0.15-1.43 0.42-1.789 0.27-0.365 0.7-0.547 1.29-0.547zm23.93 0c0.57 0 0.98 0.216 1.24 0.648 0.26 0.427 0.4 1.071 0.4 1.93 0 1.76-0.54 2.641-1.6 2.641-0.61 0-1.05-0.204-1.33-0.61s-0.42-1.078-0.42-2.015v-0.258c0.01-0.834 0.15-1.43 0.42-1.789 0.28-0.365 0.71-0.547 1.29-0.547zm10.13 0c0.56 0 0.97 0.216 1.23 0.648 0.27 0.427 0.4 1.071 0.4 1.93 0 1.76-0.53 2.641-1.6 2.641-0.6 0-1.05-0.204-1.33-0.61-0.27-0.406-0.41-1.078-0.41-2.015v-0.258c0.01-0.834 0.15-1.43 0.42-1.789 0.27-0.365 0.7-0.547 1.29-0.547zm-44.37 0.015c0.64 0 1.1 0.217 1.38 0.649 0.29 0.432 0.43 1.081 0.43 1.945 0 0.87-0.14 1.526-0.43 1.969-0.27 0.437-0.73 0.656-1.36 0.656-0.64 0-1.11-0.221-1.39-0.664s-0.43-1.096-0.43-1.961c0-0.87 0.15-1.518 0.43-1.945 0.28-0.432 0.74-0.649 1.37-0.649zm25.34 2.93v0.719c0 0.526-0.17 0.948-0.5 1.266-0.33 0.317-0.77 0.476-1.32 0.476-0.77 0-1.16-0.336-1.16-1.008 0-0.468 0.17-0.817 0.51-1.047 0.34-0.229 0.85-0.354 1.55-0.375l0.92-0.031zm-51.042 10.209v1.959l0.018 0.34 0.031 0.346h-0.056c-0.349-0.475-0.851-0.711-1.504-0.711-0.627 0-1.116 0.218-1.467 0.658-0.352 0.439-0.527 1.058-0.527 1.851 0 0.794 0.172 1.406 0.521 1.836 0.352 0.431 0.843 0.647 1.473 0.647 0.671 0 1.175-0.245 1.511-0.734h0.04l0.097 0.646h0.594v-6.838h-0.731zm-10.673 0.233c-0.123 0-0.227 0.04-0.309 0.119-0.082 0.076-0.123 0.198-0.123 0.365 0 0.164 0.041 0.287 0.123 0.369 0.082 0.079 0.186 0.117 0.309 0.117 0.117 0 0.217-0.038 0.302-0.117 0.085-0.082 0.127-0.205 0.127-0.369s-0.042-0.286-0.127-0.365-0.185-0.119-0.302-0.119zm63.315 0c-0.12 0-0.23 0.04-0.31 0.119-0.08 0.076-0.12 0.198-0.12 0.365 0 0.164 0.04 0.287 0.12 0.369 0.08 0.079 0.19 0.117 0.31 0.117s0.22-0.038 0.3-0.117c0.09-0.082 0.13-0.205 0.13-0.369s-0.04-0.286-0.13-0.365c-0.08-0.079-0.18-0.119-0.3-0.119zm-26.34 0.08c-0.95 0-1.69 0.288-2.2 0.865-0.52 0.574-0.78 1.384-0.78 2.43 0 1.054 0.26 1.873 0.77 2.453 0.52 0.577 1.25 0.865 2.2 0.865 0.92 0 1.64-0.294 2.16-0.883 0.53-0.589 0.78-1.397 0.78-2.426 0-1.031-0.25-1.84-0.77-2.425-0.52-0.586-1.24-0.879-2.16-0.879zm6.07 7e-3c-0.61 0-1.1 0.147-1.47 0.44-0.38 0.293-0.56 0.686-0.56 1.182 0 0.471 0.13 0.855 0.38 1.148 0.26 0.293 0.69 0.546 1.28 0.76 0.43 0.152 0.75 0.288 0.96 0.408s0.36 0.253 0.45 0.396c0.09 0.141 0.13 0.323 0.13 0.545 0 0.337-0.12 0.601-0.38 0.791-0.25 0.188-0.62 0.282-1.12 0.282-0.31 0-0.61-0.034-0.92-0.098-0.31-0.065-0.6-0.152-0.87-0.264v0.721c0.41 0.196 1 0.295 1.76 0.295 0.71 0 1.26-0.158 1.67-0.475 0.41-0.316 0.62-0.757 0.62-1.322 0-0.439-0.13-0.797-0.38-1.072-0.26-0.276-0.72-0.533-1.39-0.774-0.4-0.143-0.7-0.275-0.9-0.392-0.19-0.12-0.33-0.25-0.41-0.391-0.08-0.143-0.13-0.326-0.13-0.549 0-0.301 0.12-0.537 0.34-0.707s0.53-0.256 0.93-0.256c0.5 0 1.01 0.112 1.54 0.334l0.24-0.65c-0.54-0.234-1.13-0.352-1.77-0.352zm-52.401 0.092 1.709 6.426h0.738l1.256-4.275c0.141-0.46 0.244-0.885 0.309-1.272 3e-3 0.059 0.043 0.234 0.119 0.524s0.144 0.53 0.205 0.72l1.297 4.303h0.738l1.719-6.426h-0.791l-1.012 3.961c-0.155 0.598-0.26 1.104-0.316 1.52-0.097-0.572-0.215-1.083-0.356-1.537l-1.209-3.944h-0.791l-1.15 3.908c-0.155 0.513-0.272 1.037-0.352 1.573-0.064-0.451-0.168-0.955-0.308-1.512l-1.014-3.969h-0.791zm57.281 0 1.99 3.069-2.14 3.357h0.79l1.76-2.826 1.73 2.826h0.84l-2.14-3.385 1.99-3.041h-0.79l-1.61 2.545-1.6-2.545h-0.82zm10.46 0v6.426h3.58v-0.678h-2.84v-5.748h-0.74zm-21.41 0.569c0.7 0 1.24 0.223 1.6 0.671 0.36 0.446 0.54 1.101 0.54 1.965 0 0.873-0.18 1.533-0.54 1.981s-0.9 0.674-1.61 0.674-1.25-0.226-1.62-0.674c-0.37-0.451-0.55-1.111-0.55-1.981 0-0.858 0.18-1.512 0.55-1.961 0.37-0.451 0.91-0.675 1.63-0.675zm-32.784 0.953c-0.331 0-0.631 0.065-0.9 0.197-0.27 0.129-0.48 0.311-0.629 0.549h-0.035l-0.118-0.658h-0.593v4.816h0.728v-2.527c0-0.627 0.117-1.077 0.352-1.35 0.234-0.272 0.603-0.408 1.107-0.408 0.381 0 0.661 0.097 0.84 0.291 0.179 0.193 0.268 0.486 0.268 0.879v3.115h0.73v-3.143c0-0.615-0.146-1.061-0.439-1.339-0.293-0.282-0.731-0.422-1.311-0.422zm10.719 0c-0.697 0-1.242 0.218-1.635 0.658-0.393 0.436-0.588 1.049-0.588 1.834 0 0.507 0.09 0.948 0.272 1.326 0.181 0.378 0.439 0.669 0.773 0.871s0.716 0.303 1.147 0.303c0.697 0 1.245-0.221 1.64-0.66 0.396-0.443 0.592-1.055 0.592-1.84 0-0.765-0.199-1.372-0.598-1.82-0.395-0.449-0.929-0.672-1.603-0.672zm11.957 0c-0.557 0-0.993 0.113-1.313 0.342-0.319 0.225-0.48 0.535-0.48 0.927 0 0.22 0.046 0.408 0.137 0.567 0.093 0.158 0.234 0.301 0.421 0.427 0.191 0.123 0.511 0.267 0.959 0.434 0.472 0.182 0.788 0.34 0.95 0.475 0.164 0.131 0.246 0.293 0.246 0.48 0 0.249-0.104 0.434-0.309 0.557-0.205 0.12-0.498 0.181-0.879 0.181-0.246 0-0.503-0.034-0.769-0.101-0.264-0.068-0.511-0.16-0.743-0.278v0.678c0.358 0.202 0.856 0.303 1.495 0.303 0.603 0 1.072-0.122 1.406-0.365 0.337-0.244 0.497-0.589 0.497-1.037 0-0.32-0.1-0.584-0.3-0.795-0.199-0.211-0.583-0.421-1.154-0.629-0.416-0.156-0.697-0.274-0.844-0.356-0.146-0.082-0.255-0.169-0.322-0.26-0.065-0.09-0.096-0.201-0.096-0.33 0-0.19 0.088-0.338 0.264-0.447 0.176-0.108 0.435-0.162 0.781-0.162 0.393 0 0.831 0.1 1.315 0.299l0.256-0.594c-0.492-0.211-1-0.316-1.518-0.316zm40.638 0c-0.33 0-0.63 0.065-0.9 0.197-0.27 0.129-0.48 0.311-0.63 0.549h-0.03l-0.12-0.658h-0.59v4.816h0.73v-2.527c0-0.627 0.11-1.077 0.35-1.35 0.23-0.272 0.6-0.408 1.1-0.408 0.39 0 0.67 0.097 0.84 0.291 0.18 0.193 0.27 0.486 0.27 0.879v3.115h0.73v-3.143c0-0.615-0.14-1.061-0.44-1.339-0.29-0.282-0.73-0.422-1.31-0.422zm-67.875 0.088v4.816h0.729v-4.816h-0.729zm18.084 0 1.313 4.816h0.844l0.91-2.816c0.088-0.279 0.191-0.675 0.308-1.188h0.036c0.152 0.612 0.254 1.005 0.31 1.178l0.885 2.826h0.865l1.332-4.816h-0.756c-0.559 2.144-0.867 3.327-0.92 3.546-0.049 0.22-0.08 0.381-0.091 0.487h-0.036c-0.058-0.343-0.169-0.766-0.334-1.27l-0.861-2.763h-0.791l-0.883 2.763c-0.052 0.156-0.116 0.366-0.189 0.633-0.07 0.264-0.122 0.48-0.154 0.647h-0.036c-0.023-0.22-0.117-0.647-0.281-1.28-0.161-0.633-0.396-1.553-0.707-2.763h-0.764zm45.231 0v4.816h0.73v-4.816h-0.73zm7.75 0v3.15c0 0.612 0.15 1.058 0.44 1.336s0.73 0.418 1.32 0.418c0.34 0 0.64-0.064 0.9-0.19 0.27-0.126 0.48-0.307 0.63-0.544h0.04l0.1 0.646h0.6v-4.816h-0.73v2.531c0 0.624-0.11 1.074-0.35 1.349-0.23 0.276-0.6 0.413-1.1 0.413-0.38 0-0.66-0.096-0.84-0.289-0.18-0.194-0.27-0.487-0.27-0.879v-3.125h-0.74zm5.06 0 1.68 2.351-1.77 2.465h0.83l1.36-1.951 1.35 1.951h0.83l-1.76-2.465 1.67-2.351h-0.82l-1.27 1.845-1.27-1.845h-0.83zm-66.509 0.523c0.498 0 0.86 0.147 1.086 0.439 0.228 0.291 0.341 0.777 0.341 1.459v0.153c0 0.603-0.112 1.042-0.337 1.314-0.223 0.27-0.584 0.405-1.082 0.405-0.437 0-0.767-0.158-0.993-0.471-0.225-0.314-0.338-0.777-0.338-1.393 0-0.606 0.113-1.075 0.338-1.406 0.229-0.334 0.557-0.5 0.985-0.5zm5.642 8e-3c0.484 0 0.848 0.159 1.094 0.478 0.249 0.317 0.373 0.783 0.373 1.395 0 0.618-0.124 1.088-0.373 1.41-0.246 0.319-0.608 0.479-1.086 0.479-0.477 0-0.838-0.161-1.084-0.483s-0.369-0.791-0.369-1.406c0-0.621 0.12-1.089 0.363-1.402 0.243-0.314 0.605-0.471 1.082-0.471zm14.747 3.238c-0.04 0.27-0.11 0.63-0.2 1.078-0.1 0.448-0.18 0.824-0.26 1.129h0.55c0.15-0.334 0.3-0.696 0.45-1.086 0.14-0.386 0.25-0.726 0.33-1.019l-0.07-0.102h-0.8zm24.05 0c-0.04 0.27-0.11 0.63-0.2 1.078-0.1 0.448-0.18 0.824-0.26 1.129h0.55c0.15-0.334 0.3-0.696 0.44-1.086 0.15-0.386 0.26-0.726 0.33-1.019l-0.06-0.102h-0.8z" fill="#fff"/></svg>
