<?xml version="1.0" encoding="UTF-8" standalone="no"?>
<!DOCTYPE svg PUBLIC "-//W3C//DTD SVG 1.1//EN" "http://www.w3.org/Graphics/SVG/1.1/DTD/svg11.dtd">
<svg width="100%" height="100%" viewBox="0 0 170 60" version="1.1" xmlns="http://www.w3.org/2000/svg" xmlns:xlink="http://www.w3.org/1999/xlink" xml:space="preserve" xmlns:serif="http://www.serif.com/" style="fill-rule:evenodd;clip-rule:evenodd;stroke-linejoin:round;stroke-miterlimit:2;">
    <path d="M170,6.313L170,53.687C170,57.171 167.171,60 163.687,60L6.313,60C2.829,60 -0,57.171 -0,53.687L-0,6.313C-0,2.829 2.829,0 6.313,0L163.687,0C167.171,0 170,2.829 170,6.313Z"/>
    <g transform="matrix(1,0,0,1,29.9557,36.0405)">
        <path d="M38.124,7.232L37.467,7.232L36.315,3.408C36.26,3.239 36.199,3.025 36.132,2.767C36.064,2.509 36.029,2.354 36.026,2.302C35.969,2.646 35.878,3.022 35.753,3.431L34.635,7.232L33.979,7.232L32.46,1.521L33.163,1.521L34.065,5.048C34.19,5.543 34.281,5.991 34.339,6.392C34.409,5.916 34.513,5.45 34.651,4.994L35.675,1.521L36.378,1.521L37.452,5.025C37.577,5.429 37.682,5.884 37.768,6.392C37.818,6.022 37.911,5.572 38.05,5.041L38.948,1.521L39.651,1.521L38.124,7.232ZM41.096,7.232L40.448,7.232L40.448,2.951L41.096,2.951L41.096,7.232ZM40.393,1.791C40.393,1.642 40.43,1.534 40.503,1.466C40.576,1.396 40.667,1.361 40.776,1.361C40.88,1.361 40.97,1.396 41.046,1.466C41.121,1.537 41.159,1.645 41.159,1.791C41.159,1.937 41.121,2.046 41.046,2.119C40.97,2.189 40.88,2.224 40.776,2.224C40.667,2.224 40.576,2.189 40.503,2.119C40.43,2.046 40.393,1.937 40.393,1.791ZM45.401,7.232L45.401,4.463C45.401,4.114 45.322,3.853 45.163,3.681C45.004,3.509 44.755,3.423 44.417,3.423C43.969,3.423 43.641,3.545 43.432,3.787C43.224,4.029 43.12,4.429 43.12,4.986L43.12,7.232L42.471,7.232L42.471,2.951L42.999,2.951L43.104,3.537L43.135,3.537C43.268,3.326 43.454,3.163 43.694,3.048C43.934,2.931 44.201,2.873 44.495,2.873C45.01,2.873 45.398,2.998 45.659,3.248C45.919,3.495 46.05,3.892 46.05,4.439L46.05,7.232L45.401,7.232ZM50.296,6.658L50.26,6.658C49.961,7.093 49.513,7.31 48.917,7.31C48.357,7.31 47.921,7.119 47.608,6.736C47.298,6.353 47.143,5.809 47.143,5.103C47.143,4.397 47.3,3.849 47.612,3.459C47.925,3.068 48.359,2.873 48.917,2.873C49.497,2.873 49.943,3.084 50.253,3.506L50.303,3.506L50.276,3.197L50.26,2.896L50.26,1.154L50.909,1.154L50.909,7.232L50.382,7.232L50.296,6.658ZM48.999,6.767C49.441,6.767 49.762,6.647 49.96,6.408C50.16,6.166 50.26,5.776 50.26,5.24L50.26,5.103C50.26,4.496 50.159,4.064 49.956,3.806C49.755,3.546 49.434,3.416 48.991,3.416C48.611,3.416 48.319,3.564 48.116,3.861C47.915,4.155 47.815,4.572 47.815,5.111C47.815,5.658 47.915,6.071 48.116,6.349C48.316,6.628 48.611,6.767 48.999,6.767ZM55.979,5.088C55.979,5.785 55.803,6.331 55.452,6.724C55.1,7.115 54.615,7.31 53.995,7.31C53.612,7.31 53.272,7.22 52.975,7.041C52.678,6.861 52.449,6.603 52.288,6.267C52.126,5.931 52.046,5.538 52.046,5.088C52.046,4.39 52.22,3.847 52.569,3.459C52.918,3.068 53.402,2.873 54.022,2.873C54.621,2.873 55.096,3.072 55.448,3.47C55.802,3.869 55.979,4.408 55.979,5.088ZM52.717,5.088C52.717,5.634 52.827,6.051 53.046,6.338C53.264,6.624 53.586,6.767 54.01,6.767C54.435,6.767 54.757,6.625 54.975,6.341C55.197,6.055 55.307,5.637 55.307,5.088C55.307,4.543 55.197,4.131 54.975,3.849C54.757,3.565 54.432,3.423 54.003,3.423C53.578,3.423 53.258,3.563 53.042,3.841C52.826,4.12 52.717,4.535 52.717,5.088ZM60.452,7.232L59.667,4.72C59.617,4.567 59.525,4.218 59.389,3.673L59.358,3.673C59.254,4.129 59.163,4.481 59.085,4.728L58.276,7.232L57.526,7.232L56.358,2.951L57.038,2.951C57.314,4.026 57.523,4.845 57.667,5.408C57.813,5.97 57.896,6.349 57.917,6.545L57.948,6.545C57.977,6.396 58.022,6.205 58.085,5.97C58.15,5.733 58.206,5.546 58.253,5.408L59.038,2.951L59.741,2.951L60.507,5.408C60.652,5.856 60.751,6.232 60.803,6.537L60.835,6.537C60.845,6.443 60.872,6.298 60.917,6.103C60.964,5.908 61.236,4.857 61.733,2.951L62.405,2.951L61.221,7.232L60.452,7.232ZM65.94,6.064C65.94,6.463 65.792,6.77 65.495,6.986C65.198,7.202 64.781,7.31 64.245,7.31C63.677,7.31 63.234,7.22 62.917,7.041L62.917,6.439C63.122,6.543 63.342,6.625 63.577,6.685C63.814,6.745 64.042,6.775 64.26,6.775C64.599,6.775 64.859,6.722 65.042,6.615C65.224,6.506 65.315,6.34 65.315,6.119C65.315,5.952 65.242,5.81 65.096,5.693C64.953,5.573 64.672,5.433 64.253,5.271C63.854,5.123 63.57,4.994 63.401,4.884C63.234,4.772 63.109,4.646 63.026,4.506C62.945,4.365 62.905,4.197 62.905,4.002C62.905,3.653 63.047,3.378 63.331,3.177C63.615,2.974 64.004,2.873 64.499,2.873C64.96,2.873 65.41,2.966 65.85,3.154L65.62,3.681C65.19,3.504 64.801,3.416 64.452,3.416C64.145,3.416 63.913,3.464 63.757,3.56C63.6,3.657 63.522,3.789 63.522,3.959C63.522,4.073 63.551,4.171 63.608,4.252C63.668,4.332 63.763,4.409 63.893,4.482C64.023,4.555 64.273,4.66 64.643,4.798C65.151,4.983 65.494,5.17 65.671,5.357C65.85,5.545 65.94,5.78 65.94,6.064ZM67.675,6.302L67.733,6.392C67.665,6.653 67.568,6.955 67.44,7.298C67.313,7.645 67.18,7.966 67.042,8.263L66.553,8.263C66.624,7.993 66.701,7.658 66.784,7.259C66.87,6.861 66.93,6.542 66.964,6.302L67.675,6.302ZM76.491,7.232L76.491,4.447C76.491,4.106 76.418,3.851 76.272,3.681C76.126,3.509 75.9,3.423 75.592,3.423C75.189,3.423 74.891,3.539 74.698,3.771C74.505,4.003 74.409,4.36 74.409,4.841L74.409,7.232L73.76,7.232L73.76,4.447C73.76,4.106 73.688,3.851 73.542,3.681C73.396,3.509 73.168,3.423 72.858,3.423C72.452,3.423 72.154,3.546 71.964,3.791C71.776,4.033 71.682,4.431 71.682,4.986L71.682,7.232L71.034,7.232L71.034,2.951L71.561,2.951L71.667,3.537L71.698,3.537C71.82,3.328 71.992,3.166 72.214,3.048C72.438,2.931 72.688,2.873 72.964,2.873C73.633,2.873 74.07,3.115 74.276,3.599L74.307,3.599C74.435,3.375 74.62,3.198 74.862,3.068C75.104,2.938 75.38,2.873 75.69,2.873C76.175,2.873 76.536,2.998 76.776,3.248C77.018,3.495 77.139,3.892 77.139,4.439L77.139,7.232L76.491,7.232ZM81.108,7.232L80.979,6.623L80.948,6.623C80.734,6.891 80.521,7.073 80.307,7.17C80.096,7.263 79.832,7.31 79.514,7.31C79.09,7.31 78.757,7.201 78.514,6.982C78.275,6.763 78.155,6.452 78.155,6.048C78.155,5.184 78.846,4.731 80.229,4.689L80.956,4.666L80.956,4.4C80.956,4.064 80.883,3.817 80.737,3.658C80.594,3.496 80.363,3.416 80.046,3.416C79.689,3.416 79.285,3.525 78.835,3.744L78.635,3.248C78.846,3.133 79.077,3.043 79.327,2.978C79.579,2.913 79.832,2.881 80.085,2.881C80.595,2.881 80.973,2.994 81.217,3.22C81.465,3.447 81.589,3.81 81.589,4.31L81.589,7.232L81.108,7.232ZM79.643,6.775C80.047,6.775 80.363,6.664 80.592,6.443C80.824,6.222 80.94,5.912 80.94,5.513L80.94,5.127L80.292,5.154C79.776,5.172 79.404,5.253 79.175,5.396C78.948,5.537 78.835,5.757 78.835,6.056C78.835,6.291 78.905,6.469 79.046,6.591C79.189,6.714 79.388,6.775 79.643,6.775ZM84.635,7.31C84.016,7.31 83.535,7.12 83.194,6.74C82.856,6.357 82.686,5.817 82.686,5.119C82.686,4.403 82.858,3.849 83.202,3.459C83.548,3.068 84.04,2.873 84.678,2.873C84.884,2.873 85.09,2.895 85.296,2.939C85.501,2.983 85.663,3.035 85.78,3.095L85.581,3.646C85.438,3.589 85.281,3.542 85.112,3.506C84.943,3.466 84.793,3.447 84.663,3.447C83.793,3.447 83.358,4.002 83.358,5.111C83.358,5.637 83.464,6.041 83.675,6.322C83.888,6.603 84.203,6.744 84.62,6.744C84.977,6.744 85.342,6.667 85.717,6.513L85.717,7.088C85.431,7.236 85.07,7.31 84.635,7.31ZM91.788,4.369C91.788,5.283 91.556,6.002 91.092,6.525C90.632,7.048 89.99,7.31 89.167,7.31C88.326,7.31 87.676,7.054 87.217,6.541C86.762,6.025 86.534,5.298 86.534,4.361C86.534,3.431 86.763,2.711 87.221,2.201C87.68,1.688 88.331,1.431 89.175,1.431C89.995,1.431 90.635,1.692 91.096,2.213C91.557,2.733 91.788,3.452 91.788,4.369ZM87.237,4.369C87.237,5.142 87.401,5.729 87.729,6.131C88.06,6.529 88.539,6.728 89.167,6.728C89.8,6.728 90.277,6.529 90.6,6.131C90.923,5.732 91.085,5.145 91.085,4.369C91.085,3.601 90.923,3.019 90.6,2.623C90.28,2.224 89.805,2.025 89.175,2.025C88.542,2.025 88.06,2.226 87.729,2.627C87.401,3.025 87.237,3.606 87.237,4.369ZM96.284,5.713C96.284,6.215 96.102,6.607 95.737,6.888C95.372,7.17 94.878,7.31 94.253,7.31C93.576,7.31 93.055,7.223 92.69,7.048L92.69,6.408C92.925,6.507 93.18,6.585 93.456,6.642C93.732,6.7 94.005,6.728 94.276,6.728C94.719,6.728 95.052,6.645 95.276,6.478C95.5,6.309 95.612,6.075 95.612,5.775C95.612,5.577 95.572,5.416 95.491,5.291C95.413,5.163 95.28,5.046 95.092,4.939C94.908,4.832 94.625,4.711 94.245,4.576C93.714,4.386 93.333,4.16 93.104,3.9C92.878,3.64 92.764,3.3 92.764,2.881C92.764,2.44 92.93,2.09 93.26,1.83C93.591,1.569 94.029,1.439 94.573,1.439C95.141,1.439 95.663,1.543 96.139,1.752L95.932,2.33C95.461,2.132 95.003,2.033 94.557,2.033C94.206,2.033 93.931,2.108 93.733,2.259C93.535,2.41 93.436,2.62 93.436,2.888C93.436,3.086 93.473,3.249 93.546,3.377C93.619,3.502 93.741,3.618 93.913,3.724C94.087,3.828 94.353,3.944 94.71,4.072C95.309,4.285 95.72,4.515 95.944,4.759C96.171,5.004 96.284,5.322 96.284,5.713ZM98.034,6.302L98.092,6.392C98.025,6.653 97.927,6.955 97.8,7.298C97.672,7.645 97.539,7.966 97.401,8.263L96.913,8.263C96.983,7.993 97.06,7.658 97.143,7.259C97.229,6.861 97.289,6.542 97.323,6.302L98.034,6.302ZM101.491,7.232L101.491,1.521L102.155,1.521L102.155,6.631L104.675,6.631L104.675,7.232L101.491,7.232ZM106.194,7.232L105.546,7.232L105.546,2.951L106.194,2.951L106.194,7.232ZM105.491,1.791C105.491,1.642 105.527,1.534 105.6,1.466C105.673,1.396 105.764,1.361 105.874,1.361C105.978,1.361 106.068,1.396 106.143,1.466C106.219,1.537 106.257,1.645 106.257,1.791C106.257,1.937 106.219,2.046 106.143,2.119C106.068,2.189 105.978,2.224 105.874,2.224C105.764,2.224 105.673,2.189 105.6,2.119C105.527,2.046 105.491,1.937 105.491,1.791ZM110.499,7.232L110.499,4.463C110.499,4.114 110.419,3.853 110.26,3.681C110.102,3.509 109.853,3.423 109.514,3.423C109.066,3.423 108.738,3.545 108.53,3.787C108.322,4.029 108.217,4.429 108.217,4.986L108.217,7.232L107.569,7.232L107.569,2.951L108.096,2.951L108.202,3.537L108.233,3.537C108.366,3.326 108.552,3.163 108.792,3.048C109.031,2.931 109.298,2.873 109.592,2.873C110.108,2.873 110.496,2.998 110.757,3.248C111.017,3.495 111.147,3.892 111.147,4.439L111.147,7.232L110.499,7.232ZM113.089,2.951L113.089,5.728C113.089,6.077 113.168,6.338 113.327,6.509C113.486,6.681 113.734,6.767 114.073,6.767C114.521,6.767 114.848,6.645 115.053,6.4C115.262,6.155 115.366,5.756 115.366,5.201L115.366,2.951L116.014,2.951L116.014,7.232L115.479,7.232L115.385,6.658L115.35,6.658C115.217,6.869 115.033,7.03 114.796,7.142C114.561,7.254 114.293,7.31 113.991,7.31C113.47,7.31 113.079,7.187 112.819,6.939C112.561,6.692 112.432,6.296 112.432,5.752L112.432,2.951L113.089,2.951ZM118.421,5.041L116.932,2.951L117.671,2.951L118.8,4.591L119.925,2.951L120.655,2.951L119.167,5.041L120.733,7.232L119.999,7.232L118.8,5.498L117.589,7.232L116.854,7.232L118.421,5.041ZM37.915,-11.831C37.915,-9.951 37.379,-8.511 36.306,-7.511C35.238,-6.511 33.694,-6.011 31.673,-6.011L28.439,-6.011L28.439,-17.433L32.025,-17.433C33.889,-17.433 35.337,-16.94 36.368,-15.956C37.4,-14.972 37.915,-13.597 37.915,-11.831ZM35.4,-11.769C35.4,-14.222 34.316,-15.448 32.15,-15.448L30.861,-15.448L30.861,-8.011L31.9,-8.011C34.233,-8.011 35.4,-9.263 35.4,-11.769ZM44.048,-5.854C42.642,-5.854 41.543,-6.242 40.751,-7.019C39.96,-7.795 39.564,-8.894 39.564,-10.315C39.564,-11.779 39.928,-12.909 40.658,-13.706C41.392,-14.508 42.405,-14.909 43.697,-14.909C44.931,-14.909 45.892,-14.558 46.579,-13.854C47.267,-13.151 47.611,-12.18 47.611,-10.94L47.611,-9.784L41.978,-9.784C42.004,-9.107 42.204,-8.578 42.579,-8.198C42.954,-7.818 43.48,-7.628 44.158,-7.628C44.684,-7.628 45.181,-7.683 45.65,-7.792C46.118,-7.901 46.608,-8.076 47.118,-8.315L47.118,-6.472C46.702,-6.263 46.256,-6.11 45.783,-6.011C45.309,-5.907 44.73,-5.854 44.048,-5.854ZM43.712,-13.214C43.207,-13.214 42.811,-13.052 42.525,-12.729C42.238,-12.412 42.074,-11.959 42.033,-11.37L45.376,-11.37C45.366,-11.959 45.212,-12.412 44.915,-12.729C44.618,-13.052 44.217,-13.214 43.712,-13.214ZM55.642,-8.604C55.642,-7.709 55.329,-7.026 54.704,-6.558C54.085,-6.089 53.155,-5.854 51.915,-5.854C51.28,-5.854 50.738,-5.899 50.29,-5.987C49.842,-6.071 49.423,-6.196 49.033,-6.362L49.033,-8.331C49.475,-8.123 49.973,-7.948 50.525,-7.808C51.082,-7.667 51.572,-7.597 51.993,-7.597C52.858,-7.597 53.29,-7.847 53.29,-8.347C53.29,-8.534 53.233,-8.685 53.118,-8.8C53.004,-8.92 52.806,-9.052 52.525,-9.198C52.243,-9.349 51.868,-9.524 51.4,-9.722C50.728,-10.003 50.233,-10.263 49.915,-10.503C49.603,-10.742 49.374,-11.016 49.228,-11.323C49.087,-11.636 49.017,-12.019 49.017,-12.472C49.017,-13.248 49.316,-13.847 49.915,-14.269C50.52,-14.696 51.374,-14.909 52.478,-14.909C53.53,-14.909 54.553,-14.68 55.548,-14.222L54.829,-12.503C54.392,-12.69 53.983,-12.844 53.603,-12.964C53.223,-13.084 52.835,-13.144 52.439,-13.144C51.736,-13.144 51.384,-12.953 51.384,-12.573C51.384,-12.36 51.496,-12.175 51.72,-12.019C51.949,-11.862 52.447,-11.63 53.212,-11.323C53.895,-11.047 54.395,-10.789 54.712,-10.55C55.03,-10.31 55.264,-10.034 55.415,-9.722C55.566,-9.409 55.642,-9.037 55.642,-8.604ZM59.79,-10.761L60.829,-12.089L63.275,-14.745L65.962,-14.745L62.493,-10.956L66.173,-6.011L63.423,-6.011L60.908,-9.55L59.884,-8.729L59.884,-6.011L57.501,-6.011L57.501,-18.167L59.884,-18.167L59.884,-12.745L59.759,-10.761L59.79,-10.761ZM71.103,-7.753C71.52,-7.753 72.02,-7.844 72.603,-8.026L72.603,-6.253C72.009,-5.987 71.28,-5.854 70.415,-5.854C69.462,-5.854 68.767,-6.094 68.329,-6.573C67.897,-7.058 67.681,-7.782 67.681,-8.745L67.681,-12.956L66.54,-12.956L66.54,-13.964L67.853,-14.761L68.54,-16.604L70.064,-16.604L70.064,-14.745L72.509,-14.745L72.509,-12.956L70.064,-12.956L70.064,-8.745C70.064,-8.407 70.158,-8.157 70.345,-7.995C70.538,-7.834 70.79,-7.753 71.103,-7.753ZM82.306,-10.394C82.306,-8.972 81.931,-7.86 81.181,-7.058C80.431,-6.255 79.387,-5.854 78.048,-5.854C77.21,-5.854 76.47,-6.037 75.829,-6.401C75.189,-6.771 74.697,-7.3 74.353,-7.987C74.009,-8.675 73.837,-9.477 73.837,-10.394C73.837,-11.821 74.21,-12.93 74.954,-13.722C75.699,-14.513 76.746,-14.909 78.095,-14.909C78.934,-14.909 79.673,-14.727 80.314,-14.362C80.954,-13.998 81.447,-13.474 81.79,-12.792C82.134,-12.11 82.306,-11.31 82.306,-10.394ZM76.267,-10.394C76.267,-9.529 76.408,-8.875 76.689,-8.433C76.975,-7.99 77.439,-7.769 78.079,-7.769C78.715,-7.769 79.171,-7.987 79.447,-8.425C79.728,-8.867 79.868,-9.524 79.868,-10.394C79.868,-11.258 79.728,-11.907 79.447,-12.339C79.165,-12.771 78.704,-12.987 78.064,-12.987C77.428,-12.987 76.97,-12.771 76.689,-12.339C76.408,-11.912 76.267,-11.263 76.267,-10.394ZM89.072,-5.854C88.046,-5.854 87.241,-6.227 86.658,-6.972L86.533,-6.972C86.616,-6.242 86.658,-5.821 86.658,-5.706L86.658,-2.167L84.275,-2.167L84.275,-14.745L86.212,-14.745L86.548,-13.612L86.658,-13.612C87.215,-14.477 88.04,-14.909 89.134,-14.909C90.165,-14.909 90.973,-14.511 91.556,-13.714C92.139,-12.917 92.431,-11.81 92.431,-10.394C92.431,-9.461 92.293,-8.651 92.017,-7.964C91.746,-7.276 91.358,-6.753 90.853,-6.394C90.348,-6.034 89.754,-5.854 89.072,-5.854ZM88.368,-13.003C87.78,-13.003 87.35,-12.821 87.079,-12.456C86.809,-12.097 86.668,-11.5 86.658,-10.667L86.658,-10.409C86.658,-9.472 86.796,-8.8 87.072,-8.394C87.353,-7.987 87.796,-7.784 88.4,-7.784C89.467,-7.784 90.001,-8.664 90.001,-10.425C90.001,-11.284 89.868,-11.927 89.603,-12.354C89.342,-12.787 88.931,-13.003 88.368,-13.003ZM104.103,-6.011L103.642,-7.198L103.579,-7.198C103.178,-6.693 102.764,-6.341 102.337,-6.144C101.915,-5.951 101.363,-5.854 100.681,-5.854C99.842,-5.854 99.181,-6.094 98.697,-6.573C98.217,-7.052 97.978,-7.735 97.978,-8.62C97.978,-9.547 98.301,-10.229 98.947,-10.667C99.598,-11.11 100.577,-11.354 101.884,-11.401L103.4,-11.448L103.4,-11.831C103.4,-12.716 102.947,-13.159 102.04,-13.159C101.342,-13.159 100.522,-12.948 99.579,-12.526L98.79,-14.136C99.796,-14.662 100.91,-14.925 102.134,-14.925C103.306,-14.925 104.204,-14.67 104.829,-14.159C105.454,-13.649 105.767,-12.873 105.767,-11.831L105.767,-6.011L104.103,-6.011ZM103.4,-10.058L102.478,-10.026C101.785,-10.005 101.27,-9.88 100.931,-9.651C100.592,-9.422 100.423,-9.073 100.423,-8.604C100.423,-7.933 100.809,-7.597 101.579,-7.597C102.131,-7.597 102.572,-7.755 102.9,-8.073C103.233,-8.391 103.4,-8.813 103.4,-9.339L103.4,-10.058ZM113.017,-5.854C111.991,-5.854 111.186,-6.227 110.603,-6.972L110.478,-6.972C110.561,-6.242 110.603,-5.821 110.603,-5.706L110.603,-2.167L108.22,-2.167L108.22,-14.745L110.158,-14.745L110.493,-13.612L110.603,-13.612C111.16,-14.477 111.986,-14.909 113.079,-14.909C114.111,-14.909 114.918,-14.511 115.501,-13.714C116.085,-12.917 116.376,-11.81 116.376,-10.394C116.376,-9.461 116.238,-8.651 115.962,-7.964C115.691,-7.276 115.303,-6.753 114.798,-6.394C114.293,-6.034 113.699,-5.854 113.017,-5.854ZM112.314,-13.003C111.725,-13.003 111.296,-12.821 111.025,-12.456C110.754,-12.097 110.613,-11.5 110.603,-10.667L110.603,-10.409C110.603,-9.472 110.741,-8.8 111.017,-8.394C111.298,-7.987 111.741,-7.784 112.345,-7.784C113.413,-7.784 113.947,-8.664 113.947,-10.425C113.947,-11.284 113.814,-11.927 113.548,-12.354C113.288,-12.787 112.876,-13.003 112.314,-13.003ZM123.142,-5.854C122.116,-5.854 121.311,-6.227 120.728,-6.972L120.603,-6.972C120.686,-6.242 120.728,-5.821 120.728,-5.706L120.728,-2.167L118.345,-2.167L118.345,-14.745L120.283,-14.745L120.618,-13.612L120.728,-13.612C121.285,-14.477 122.111,-14.909 123.204,-14.909C124.236,-14.909 125.043,-14.511 125.626,-13.714C126.21,-12.917 126.501,-11.81 126.501,-10.394C126.501,-9.461 126.363,-8.651 126.087,-7.964C125.816,-7.276 125.428,-6.753 124.923,-6.394C124.418,-6.034 123.824,-5.854 123.142,-5.854ZM122.439,-13.003C121.85,-13.003 121.421,-12.821 121.15,-12.456C120.879,-12.097 120.738,-11.5 120.728,-10.667L120.728,-10.409C120.728,-9.472 120.866,-8.8 121.142,-8.394C121.423,-7.987 121.866,-7.784 122.47,-7.784C123.538,-7.784 124.072,-8.664 124.072,-10.425C124.072,-11.284 123.939,-11.927 123.673,-12.354C123.413,-12.787 123.001,-13.003 122.439,-13.003ZM-17.272,10.108L-17.272,6.566L-10.187,6.566L-10.187,4.795C-11.161,4.795 -11.995,4.448 -12.689,3.754C-13.383,3.06 -13.73,2.226 -13.73,1.252L-13.73,-16.459C-13.73,-17.434 -13.383,-18.268 -12.689,-18.961C-11.995,-19.655 -11.161,-20.002 -10.187,-20.002L18.152,-20.002C19.126,-20.002 19.96,-19.655 20.654,-18.961C21.347,-18.268 21.694,-17.434 21.694,-16.459L21.694,1.252C21.694,2.226 21.347,3.06 20.654,3.754C19.96,4.448 19.126,4.795 18.152,4.795L18.152,6.566L25.237,6.566L25.237,10.108L-17.272,10.108ZM-10.187,1.252L18.152,1.252L18.152,-16.459L-10.187,-16.459L-10.187,1.252Z" style="fill:white;"/>
    </g>
</svg>
