<svg width="172" height="60" version="1.1" viewBox="0 0 172 60" xmlns="http://www.w3.org/2000/svg" xmlns:xlink="http://www.w3.org/1999/xlink"><defs><radialGradient id="a" cx="-98.234" cy="3.4696" r="22.671" gradientTransform="matrix(0 1.9748 -2.1172 3.9784e-8 18.677 1199.6)" gradientUnits="userSpaceOnUse"><stop stop-color="#fff" stop-opacity=".098039" offset="0"/><stop stop-color="#fff" stop-opacity="0" offset="1"/></radialGradient></defs><g transform="translate(-289 -502.36)"><g><rect x="289" y="502.36" width="172" height="60" rx="7.7759" ry="7.7759" color="#000000"/><text x="345.49756" y="522.18518" color="#000000" fill="#ffffff" font-family="'DejaVu Sans'" font-size="12.395px" letter-spacing="0px" stroke-width="1px" word-spacing="0px" style="line-height:100%" xml:space="preserve"><tspan x="345.49756" y="522.18518" font-size="12.5px" font-weight="bold">AVAILABLE ON</tspan></text><text x="345.61896" y="552.05756" color="#000000" fill="#ffffff" font-family="Rokkitt" font-size="29.709px" font-weight="bold" letter-spacing="0px" stroke-width="1px" word-spacing="0px" style="line-height:100%" xml:space="preserve"><tspan x="345.61896" y="552.05756" fill="#ffffff" font-family="'Roboto Slab'" font-size="29.709px" font-weight="bold" style="line-height:100%">F-Droid</tspan></text></g><g transform="matrix(1 0 0 1 284 -498)"><g transform="translate(10)"><g transform="matrix(-1 0 0 1 48 0)" fill-rule="evenodd"><path d="m2.5889 1006.9 4.25 5.5" fill="#8ab000" stroke="#769616" stroke-linecap="round" stroke-width="2.5"/><g shape-rendering="auto"><path d="m2.6113 1005.6c-0.45346 0.012-0.7617 0.189-0.98075 0.4486 2.0269 2.4089 2.3684 2.7916 5.1355 6.2214 1.0195 1.319 2.0816 0.6373 1.0621-0.6817l-4.25-5.5c-0.22899-0.3056-0.58508-0.478-0.9668-0.4883z" color="#000000" color-rendering="auto" fill="#fff" fill-opacity=".29804" image-rendering="auto" solid-color="#000000" style="block-progression:tb;isolation:auto;mix-blend-mode:normal;text-decoration-color:#000000;text-decoration-line:none;text-decoration-style:solid;text-indent:0;text-transform:none;white-space:normal"/><path d="m1.6221 1006.1c-0.12389 0.1479-0.56118 0.8046-0.02249 1.5562l4.25 5.5c1.0195 1.319 1.1499-0.6123 1.1499-0.6123s-3.7345-4.51-5.3774-6.4439z" color="#000000" color-rendering="auto" fill="#263238" fill-opacity=".2" image-rendering="auto" solid-color="#000000" style="block-progression:tb;isolation:auto;mix-blend-mode:normal;text-decoration-color:#000000;text-decoration-line:none;text-decoration-style:solid;text-indent:0;text-transform:none;white-space:normal"/><path d="m2.3379 1005.8c-0.43818 0-0.95986 0.1416-0.82422 0.7986 0.10356 0.5016 4.6608 6.0744 4.6608 6.0744 1.0195 1.319 2.4935 0.6763 1.4739-0.6425l-4.2344-5.4727c-0.26024-0.29-0.60852-0.7436-1.0762-0.7578z" color="#000000" color-rendering="auto" fill="#8ab000" image-rendering="auto" solid-color="#000000" style="block-progression:tb;isolation:auto;mix-blend-mode:normal;text-decoration-color:#000000;text-decoration-line:none;text-decoration-style:solid;text-indent:0;text-transform:none;white-space:normal"/></g></g><g fill-rule="evenodd"><path d="m2.5889 1006.9 4.25 5.5" fill="#8ab000" stroke="#769616" stroke-linecap="round" stroke-width="2.5"/><g shape-rendering="auto"><path d="m2.6113 1005.6c-0.45346 0.012-0.7617 0.189-0.98075 0.4486 2.0269 2.4089 2.3684 2.7916 5.1355 6.2214 1.0195 1.319 2.0816 0.6373 1.0621-0.6817l-4.25-5.5c-0.22899-0.3056-0.58508-0.478-0.9668-0.4883z" color="#000000" color-rendering="auto" fill="#fff" fill-opacity=".29804" image-rendering="auto" solid-color="#000000" style="block-progression:tb;isolation:auto;mix-blend-mode:normal;text-decoration-color:#000000;text-decoration-line:none;text-decoration-style:solid;text-indent:0;text-transform:none;white-space:normal"/><path d="m1.6221 1006.1c-0.12389 0.1479-0.56118 0.8046-0.02249 1.5562l4.25 5.5c1.0195 1.319 1.1499-0.6123 1.1499-0.6123s-3.7345-4.51-5.3774-6.4439z" color="#000000" color-rendering="auto" fill="#263238" fill-opacity=".2" image-rendering="auto" solid-color="#000000" style="block-progression:tb;isolation:auto;mix-blend-mode:normal;text-decoration-color:#000000;text-decoration-line:none;text-decoration-style:solid;text-indent:0;text-transform:none;white-space:normal"/><path d="m2.3379 1005.8c-0.43818 0-0.95986 0.1416-0.82422 0.7986 0.10356 0.5016 4.6608 6.0744 4.6608 6.0744 1.0195 1.319 2.4935 0.6763 1.4739-0.6425l-4.2344-5.4727c-0.26024-0.29-0.60852-0.7436-1.0762-0.7578z" color="#000000" color-rendering="auto" fill="#8ab000" image-rendering="auto" solid-color="#000000" style="block-progression:tb;isolation:auto;mix-blend-mode:normal;text-decoration-color:#000000;text-decoration-line:none;text-decoration-style:solid;text-indent:0;text-transform:none;white-space:normal"/></g></g><g transform="translate(42)"><rect x="-37" y="1010.4" width="38" height="13" rx="3" ry="3" fill="#aeea00"/><rect x="-37" y="1013.4" width="38" height="10" rx="3" ry="3" fill="#263238" fill-opacity=".2"/><rect x="-37" y="1010.4" width="38" height="10" rx="3" ry="3" fill="#fff" fill-opacity=".29804"/><rect x="-37" y="1011.4" width="38" height="11" rx="3" ry="2.5385" fill="#aeea00"/></g><rect x="5" y="1024.4" width="38" height="26" rx="3" ry="3" fill="#1976d2"/><rect x="5" y="1037.4" width="38" height="13" rx="3" ry="3" fill="#263238" fill-opacity=".2"/><rect x="5" y="1024.4" width="38" height="13" rx="3" ry="3" fill="#fff" fill-opacity=".2"/><rect x="5" y="1025.4" width="38" height="24" rx="3" ry="2.7692" fill="#1976d2"/><g transform="translate(0 1013.4)"><path d="m24 17.75c-2.8807 0-5.3198 1.9847-6.0332 4.6504h3.2129c0.55432-0.98535 1.5951-1.6504 2.8203-1.6504 1.8127 0 3.25 1.4373 3.25 3.25 0 1.8127-1.4373 3.25-3.25 3.25-1.3074 0-2.4113-0.75269-2.9297-1.8496h-3.1543c0.64225 2.7658 3.1319 4.8496 6.084 4.8496 3.434 0 6.25-2.816 6.25-6.25 0-3.434-2.816-6.25-6.25-6.25z" color="#000000" color-rendering="auto" fill="#0d47a1" image-rendering="auto" shape-rendering="auto" solid-color="#000000" style="block-progression:tb;isolation:auto;mix-blend-mode:normal;text-decoration-color:#000000;text-decoration-line:none;text-decoration-style:solid;text-indent:0;text-transform:none;white-space:normal"/><circle cx="24" cy="24" r="9.55" fill="none" stroke="#0d47a1" stroke-linecap="round" stroke-width="1.9"/></g><g transform="translate(0 .50002)"><ellipse cx="14.375" cy="1016.5" rx="3.375" ry="3.875" fill="#263238" fill-opacity=".2"/><circle cx="14.375" cy="1017" r="3.375" fill="#fff"/></g><g transform="translate(19.5 .50002)"><ellipse cx="14.375" cy="1016.5" rx="3.375" ry="3.875" fill="#263238" fill-opacity=".2"/><circle cx="14.375" cy="1017" r="3.375" fill="#fff"/></g></g><path d="m12.613 1005.6a1.2501 1.2501 0 0 0-1.0117 2.0293l3.6035 4.6641c-0.12699 0.3331-0.20312 0.6915-0.20312 1.0703v4 2.8652 0.1348c0 1.662 1.338 3 3 3h32c1.662 0 3-1.338 3-3v-4-2.8652-0.1348c0-0.3803-0.0771-0.74-0.20508-1.0742l3.6016-4.6602a1.2501 1.2501 0 0 0-1.0488-2.0273 1.2501 1.2501 0 0 0-0.92969 0.498l-3.4316 4.4414c-0.31022-0.1079-0.63841-0.1777-0.98633-0.1777h-32c-0.34857 0-0.67757 0.069-0.98828 0.1777l-3.4336-4.4414a1.2501 1.2501 0 0 0-0.96679-0.5zm5.3887 18.764c-0.20775 0-0.40983 0.021-0.60547 0.061-1.3695 0.2761-2.3945 1.4698-2.3945 2.9101v0.029 19.779 0.029 0.1914c0 1.662 1.338 3 3 3h32c1.662 0 3-1.338 3-3v-20-0.029c0-1.4403-1.025-2.634-2.3945-2.9101-0.19565-0.039-0.39772-0.061-0.60547-0.061h-32z" color="#000000" color-rendering="auto" fill="url(#a)" fill-rule="evenodd" image-rendering="auto" shape-rendering="auto" solid-color="#000000" style="block-progression:tb;isolation:auto;mix-blend-mode:normal;text-decoration-color:#000000;text-decoration-line:none;text-decoration-style:solid;text-indent:0;text-transform:none;white-space:normal"/></g></g></svg>
