<svg version="1.1" viewBox="0 0 172 60" xmlns="http://www.w3.org/2000/svg"><defs><radialGradient id="a" cx="-98.234" cy="3.4696" r="22.671" gradientTransform="matrix(0 1.9748 -2.1172 3.9784e-8 18.677 1199.6)" gradientUnits="userSpaceOnUse"><stop stop-color="#fff" stop-opacity=".098039" offset="0"/><stop stop-color="#fff" stop-opacity="0" offset="1"/></radialGradient></defs><g transform="translate(-289 -502.36)"><rect x="289" y="502.36" width="172" height="60" rx="7.7759" ry="7.7759" color="#000000"/><path d="m352.17 520.53h-3.6743l-0.57984 1.6602h-2.3621l3.3752-9.1126h2.8015l3.3752 9.1126h-2.3621zm-3.0884-1.6907h2.4963l-1.2451-3.6255zm5.2978-5.7617h2.3621l2.417 6.7261 2.4109-6.7261h2.3621l-3.3752 9.1126h-2.8015zm15.442 7.4524h-3.6743l-0.57984 1.6602h-2.3621l3.3752-9.1126h2.8015l3.3752 9.1126h-2.3621zm-3.0884-1.6907h2.4963l-1.2451-3.6255zm7.2327-5.7617h2.3498v9.1126h-2.3498zm4.6509 0h2.3498v7.3364h4.126v1.7761h-6.4758zm13.495 7.4524h-3.6743l-0.57983 1.6602h-2.3621l3.3752-9.1126h2.8015l3.3752 9.1126h-2.3621zm-3.0884-1.6907h2.4963l-1.2451-3.6255zm10.883-2.2339c0.37028 0 0.65104-0.0814 0.84229-0.24414 0.19124-0.16276 0.28686-0.40283 0.28686-0.72021 0-0.31331-0.0956-0.55135-0.28686-0.71411-0.19125-0.16683-0.47201-0.25025-0.84229-0.25025h-1.3v1.9287zm0.0794 3.9856c0.472 0 0.826-0.0997 1.062-0.29907 0.24007-0.19938 0.36011-0.50049 0.36011-0.90332 0-0.39469-0.118-0.6897-0.35401-0.88501-0.236-0.19939-0.59204-0.29908-1.0681-0.29908h-1.3794v2.3865zm2.185-3.2776c0.50456 0.14649 0.89519 0.41708 1.1719 0.81177s0.41504 0.87891 0.41504 1.4526c0 0.87891-0.29704 1.534-0.89111 1.9653-0.59408 0.43131-1.4974 0.64697-2.71 0.64697h-3.9001v-9.1126h3.5278c1.2655 0 2.181 0.19124 2.7466 0.57373 0.56966 0.38249 0.85449 0.99487 0.85449 1.8372 0 0.44352-0.10376 0.82194-0.31128 1.1352-0.20751 0.30925-0.50862 0.53915-0.90332 0.6897zm3.6133-4.2358h2.3498v7.3364h4.126v1.7761h-6.4758zm7.9651 0h6.3416v1.7761h-3.9917v1.6968h3.7537v1.7761h-3.7537v2.0874h4.126v1.7761h-6.4758zm17.053 1.5381c-0.71615 0-1.2716 0.26448-1.6663 0.79345s-0.59204 1.2736-0.59204 2.2339c0 0.95622 0.19735 1.6988 0.59204 2.2278s0.95011 0.79346 1.6663 0.79346c0.72021 0 1.2777-0.26449 1.6724-0.79346s0.59204-1.2716 0.59204-2.2278c0-0.96029-0.19735-1.7049-0.59204-2.2339s-0.95215-0.79345-1.6724-0.79345zm0-1.7029c1.4648 0 2.6123 0.41911 3.4424 1.2573 0.83008 0.83822 1.2451 1.9958 1.2451 3.4729 0 1.473-0.41504 2.6286-1.2451 3.4668-0.83008 0.83821-1.9775 1.2573-3.4424 1.2573-1.4608 0-2.6082-0.41911-3.4424-1.2573-0.83007-0.83822-1.2451-1.9938-1.2451-3.4668 0-1.477 0.41504-2.6347 1.2451-3.4729 0.83415-0.83821 1.9816-1.2573 3.4424-1.2573zm6.4636 0.16479h2.6245l3.3142 6.25v-6.25h2.2278v9.1126h-2.6245l-3.3142-6.25v6.25h-2.2278z" fill="#fff" stroke-width="1px" aria-label="AVAILABLE ON"/><path d="m346.43 552.06v-2.5386l2.2485-0.4352v-15.159l-2.2485-0.43519v-2.5531h16.813v5.788h-3.2494l-0.18858-2.5241h-6.8905v5.817h7.3982v3.2639h-7.3982v5.8025l2.263 0.4352v2.5386zm19.439-7.3982v-3.2639h8.1816v3.2639zm10.735 7.3982v-2.5386l2.2775-0.47871v-15.058l-2.2775-0.49322v-2.5531h9.2696q2.8287 0 4.9902 1.3346 2.1614 1.3201 3.3655 3.6701 1.2185 2.3355 1.2185 5.3674v0.39167q0 3.0028-1.204 5.3528-1.1895 2.3355-3.3365 3.6701-2.1469 1.3346-4.9757 1.3346zm6.5134-3.2349h2.5966q1.7553 0 2.9738-0.9139 1.233-0.92841 1.8713-2.5386t0.63828-3.6701v-0.40617q0-2.0889-0.63828-3.6846-0.63828-1.6102-1.8713-2.5096-1.2185-0.9139-2.9738-0.9139h-2.5966zm14.593 3.2349v-2.5386l2.0309-0.4352v-9.7338l-2.2485-0.43519v-2.5531h6.1942l0.15956 1.9438 0.029 0.34815q1.1605-2.5821 3.4815-2.5821 0.37717 0 0.81236 0.058 0.44969 0.058 0.81235 0.17407l-0.44969 3.9022-2.1034-0.11605q-0.89939-0.0435-1.4651 0.30463-0.55124 0.34816-0.98643 1.0009v7.6884l2.0309 0.4352v2.5386zm19.729 0.30463q-2.3355 0-4.0038-1.0154-1.6537-1.0154-2.5386-2.8142-0.88488-1.8133-0.88488-4.1633v-0.30463q0-2.3355 0.88488-4.1343 0.88489-1.8133 2.5386-2.8287 1.6682-1.03 3.9747-1.03 2.321 0 3.9747 1.0154 1.6682 1.0154 2.5531 2.8287 0.88489 1.7988 0.88489 4.1488v0.30463q0 2.35-0.88489 4.1633-0.88489 1.7988-2.5386 2.8142-1.6537 1.0154-3.9602 1.0154zm0-3.2494q1.6392 0 2.3935-1.3056 0.76884-1.3056 0.76884-3.438v-0.30463q0-2.0889-0.76884-3.409-0.76883-1.3201-2.4226-1.3201-1.6537 0-2.408 1.3201-0.75433 1.3201-0.75433 3.409v0.30463q0 2.1469 0.75433 3.4525 0.75433 1.2911 2.4371 1.2911zm9.139 2.9448v-2.5386l2.0454-0.4352v-9.7338l-2.263-0.43519v-2.5531h6.4988v12.722l2.0309 0.4352v2.5386zm1.9003-19.018v-3.6121h4.3809v3.6121zm13.854 19.322q-1.8713 0-3.2204-0.95742-1.3346-0.97192-2.0454-2.6982-0.71081-1.7408-0.71081-4.0618v-0.30463q0-2.4806 0.71081-4.3374 0.72532-1.8568 2.0599-2.8868 1.3346-1.0445 3.1914-1.0445 1.3056 0 2.263 0.52223 0.97192 0.50772 1.6827 1.4506v-5.6285l-2.263-0.43519v-2.5531h6.4988v19.656l2.0309 0.4352v2.5386h-5.701l-0.31914-1.9148q-0.73982 1.088-1.7698 1.6537t-2.4081 0.56575zm1.262-3.2929q1.7553 0 2.6692-1.4651v-6.6584q-0.9139-1.5812-2.6402-1.5812-1.5957 0-2.321 1.3781-0.71081 1.3781-0.71081 3.5976v0.30463q0 2.0599 0.6963 3.2494 0.69631 1.175 2.3065 1.175z" fill="#fff" stroke-width="1px" aria-label="F-Droid"/><g transform="translate(284 -498)"><g transform="translate(10)"><g transform="matrix(-1 0 0 1 48 0)" fill-rule="evenodd"><path d="m2.5889 1006.9 4.25 5.5" fill="#8ab000" stroke="#769616" stroke-linecap="round" stroke-width="2.5"/><g shape-rendering="auto"><path d="m2.6113 1005.6c-0.45346 0.012-0.7617 0.189-0.98075 0.4486 2.0269 2.4089 2.3684 2.7916 5.1355 6.2214 1.0195 1.319 2.0816 0.6373 1.0621-0.6817l-4.25-5.5c-0.22899-0.3056-0.58508-0.478-0.9668-0.4883z" color="#000000" color-rendering="auto" fill="#fff" fill-opacity=".29804" image-rendering="auto" solid-color="#000000" style="block-progression:tb;isolation:auto;mix-blend-mode:normal;text-decoration-color:#000000;text-decoration-line:none;text-decoration-style:solid;text-indent:0;text-transform:none;white-space:normal"/><path d="m1.6221 1006.1c-0.12389 0.1479-0.56118 0.8046-0.02249 1.5562l4.25 5.5c1.0195 1.319 1.1499-0.6123 1.1499-0.6123s-3.7345-4.51-5.3774-6.4439z" color="#000000" color-rendering="auto" fill="#263238" fill-opacity=".2" image-rendering="auto" solid-color="#000000" style="block-progression:tb;isolation:auto;mix-blend-mode:normal;text-decoration-color:#000000;text-decoration-line:none;text-decoration-style:solid;text-indent:0;text-transform:none;white-space:normal"/><path d="m2.3379 1005.8c-0.43818 0-0.95986 0.1416-0.82422 0.7986 0.10356 0.5016 4.6608 6.0744 4.6608 6.0744 1.0195 1.319 2.4935 0.6763 1.4739-0.6425l-4.2344-5.4727c-0.26024-0.29-0.60852-0.7436-1.0762-0.7578z" color="#000000" color-rendering="auto" fill="#8ab000" image-rendering="auto" solid-color="#000000" style="block-progression:tb;isolation:auto;mix-blend-mode:normal;text-decoration-color:#000000;text-decoration-line:none;text-decoration-style:solid;text-indent:0;text-transform:none;white-space:normal"/></g></g><g fill-rule="evenodd"><path d="m2.5889 1006.9 4.25 5.5" fill="#8ab000" stroke="#769616" stroke-linecap="round" stroke-width="2.5"/><g shape-rendering="auto"><path d="m2.6113 1005.6c-0.45346 0.012-0.7617 0.189-0.98075 0.4486 2.0269 2.4089 2.3684 2.7916 5.1355 6.2214 1.0195 1.319 2.0816 0.6373 1.0621-0.6817l-4.25-5.5c-0.22899-0.3056-0.58508-0.478-0.9668-0.4883z" color="#000000" color-rendering="auto" fill="#fff" fill-opacity=".29804" image-rendering="auto" solid-color="#000000" style="block-progression:tb;isolation:auto;mix-blend-mode:normal;text-decoration-color:#000000;text-decoration-line:none;text-decoration-style:solid;text-indent:0;text-transform:none;white-space:normal"/><path d="m1.6221 1006.1c-0.12389 0.1479-0.56118 0.8046-0.02249 1.5562l4.25 5.5c1.0195 1.319 1.1499-0.6123 1.1499-0.6123s-3.7345-4.51-5.3774-6.4439z" color="#000000" color-rendering="auto" fill="#263238" fill-opacity=".2" image-rendering="auto" solid-color="#000000" style="block-progression:tb;isolation:auto;mix-blend-mode:normal;text-decoration-color:#000000;text-decoration-line:none;text-decoration-style:solid;text-indent:0;text-transform:none;white-space:normal"/><path d="m2.3379 1005.8c-0.43818 0-0.95986 0.1416-0.82422 0.7986 0.10356 0.5016 4.6608 6.0744 4.6608 6.0744 1.0195 1.319 2.4935 0.6763 1.4739-0.6425l-4.2344-5.4727c-0.26024-0.29-0.60852-0.7436-1.0762-0.7578z" color="#000000" color-rendering="auto" fill="#8ab000" image-rendering="auto" solid-color="#000000" style="block-progression:tb;isolation:auto;mix-blend-mode:normal;text-decoration-color:#000000;text-decoration-line:none;text-decoration-style:solid;text-indent:0;text-transform:none;white-space:normal"/></g></g><g transform="translate(42)"><rect x="-37" y="1010.4" width="38" height="13" rx="3" ry="3" fill="#aeea00"/><rect x="-37" y="1013.4" width="38" height="10" rx="3" ry="3" fill="#263238" fill-opacity=".2"/><rect x="-37" y="1010.4" width="38" height="10" rx="3" ry="3" fill="#fff" fill-opacity=".29804"/><rect x="-37" y="1011.4" width="38" height="11" rx="3" ry="2.5385" fill="#aeea00"/></g><rect x="5" y="1024.4" width="38" height="26" rx="3" ry="3" fill="#1976d2"/><rect x="5" y="1037.4" width="38" height="13" rx="3" ry="3" fill="#263238" fill-opacity=".2"/><rect x="5" y="1024.4" width="38" height="13" rx="3" ry="3" fill="#fff" fill-opacity=".2"/><rect x="5" y="1025.4" width="38" height="24" rx="3" ry="2.7692" fill="#1976d2"/><g transform="translate(0 1013.4)"><path d="m24 17.75c-2.8807 0-5.3198 1.9847-6.0332 4.6504h3.2129c0.55432-0.98535 1.5951-1.6504 2.8203-1.6504 1.8127 0 3.25 1.4373 3.25 3.25s-1.4373 3.25-3.25 3.25c-1.3074 0-2.4113-0.75269-2.9297-1.8496h-3.1543c0.64225 2.7658 3.1319 4.8496 6.084 4.8496 3.434 0 6.25-2.816 6.25-6.25s-2.816-6.25-6.25-6.25z" color="#000000" color-rendering="auto" fill="#0d47a1" image-rendering="auto" shape-rendering="auto" solid-color="#000000" style="block-progression:tb;isolation:auto;mix-blend-mode:normal;text-decoration-color:#000000;text-decoration-line:none;text-decoration-style:solid;text-indent:0;text-transform:none;white-space:normal"/><circle cx="24" cy="24" r="9.55" fill="none" stroke="#0d47a1" stroke-linecap="round" stroke-width="1.9"/></g><g transform="translate(0 .50002)"><ellipse cx="14.375" cy="1016.5" rx="3.375" ry="3.875" fill="#263238" fill-opacity=".2"/><circle cx="14.375" cy="1017" r="3.375" fill="#fff"/></g><g transform="translate(19.5 .50002)"><ellipse cx="14.375" cy="1016.5" rx="3.375" ry="3.875" fill="#263238" fill-opacity=".2"/><circle cx="14.375" cy="1017" r="3.375" fill="#fff"/></g></g><path d="m12.613 1005.6a1.2501 1.2501 0 0 0-1.0117 2.0293l3.6035 4.6641c-0.12699 0.3331-0.20312 0.6915-0.20312 1.0703v7c0 1.662 1.338 3 3 3h32c1.662 0 3-1.338 3-3v-7c0-0.3803-0.0771-0.74-0.20508-1.0742l3.6016-4.6602a1.2501 1.2501 0 0 0-1.0488-2.0273 1.2501 1.2501 0 0 0-0.92969 0.498l-3.4316 4.4414c-0.31022-0.1079-0.63841-0.1777-0.98633-0.1777h-32c-0.34857 0-0.67757 0.069-0.98828 0.1777l-3.4336-4.4414a1.2501 1.2501 0 0 0-0.96679-0.5zm5.3887 18.764c-0.20775 0-0.40983 0.021-0.60547 0.061-1.3695 0.2761-2.3945 1.4698-2.3945 2.9101v20.028c0 1.662 1.338 3 3 3h32c1.662 0 3-1.338 3-3v-20.029c0-1.4403-1.025-2.634-2.3945-2.9101-0.19565-0.039-0.39772-0.061-0.60547-0.061h-32z" color="#000000" color-rendering="auto" fill="url(#a)" fill-rule="evenodd" image-rendering="auto" shape-rendering="auto" solid-color="#000000" style="block-progression:tb;isolation:auto;mix-blend-mode:normal;text-decoration-color:#000000;text-decoration-line:none;text-decoration-style:solid;text-indent:0;text-transform:none;white-space:normal"/></g></g></svg>
