<svg xmlns="http://www.w3.org/2000/svg" xmlns:xlink="http://www.w3.org/1999/xlink" width="564" height="168"><defs><radialGradient xlink:href="#a" id="b" cx="113" cy="-12.89" r="59.662" fx="113" fy="-12.89" gradientTransform="matrix(0 1.96105 -1.97781 0 254.507 78.763)" gradientUnits="userSpaceOnUse"/><linearGradient id="a"><stop offset="0" style="stop-color:#fff;stop-opacity:.09803922"/><stop offset="1" style="stop-color:#fff;stop-opacity:0"/></linearGradient></defs><path d="M352 355.362h520c11.08 0 20 8.92 20 20v124c0 11.08-8.92 20-20 20H352c-11.08 0-20-8.92-20-20v-124c0-11.08 8.92-20 20-20z" style="display:inline;overflow:visible;stroke:#a6a6a6;stroke-width:4;marker:none" transform="translate(-330 -353.362)"/><g aria-label="GET IT ON" style="font-size:12.3952px;line-height:100%;font-family:&quot;DejaVu Sans&quot;;-inkscape-font-specification:&quot;DejaVu Sans&quot;;letter-spacing:0;word-spacing:0;display:inline;overflow:visible;fill:#fff;stroke-width:1px;marker:none"><path d="M529.263 398.818v-6.682h-5.499v-2.766h8.831v10.68q-1.95 1.384-4.299 2.1-2.35.7-5.015.7-5.832 0-9.131-3.399-3.283-3.416-3.283-9.498 0-6.098 3.283-9.497 3.299-3.416 9.13-3.416 2.434 0 4.616.6 2.2.6 4.05 1.766v3.582q-1.867-1.583-3.966-2.382t-4.416-.8q-4.565 0-6.865 2.55-2.283 2.549-2.283 7.597 0 5.032 2.283 7.582 2.3 2.55 6.865 2.55 1.783 0 3.183-.3 1.4-.317 2.516-.967m9.481-21.328h15.73v2.832H542.11v7.365h11.847v2.833H542.11v9.014h12.663v2.833h-16.03zm18.112 0h21.045v2.832h-8.831v22.045h-3.383v-22.045h-8.831zm35.141 0h3.366v24.877h-3.366zm6.615 0h21.045v2.832h-8.83v22.045h-3.383v-22.045h-8.832zm45.239 2.283q-3.665 0-5.832 2.732-2.149 2.733-2.149 7.448 0 4.7 2.15 7.432 2.166 2.733 5.831 2.733t5.799-2.733q2.15-2.733 2.15-7.432 0-4.715-2.15-7.448-2.133-2.732-5.799-2.732m0-2.733q5.232 0 8.365 3.516 3.133 3.499 3.133 9.397 0 5.882-3.133 9.398-3.133 3.5-8.365 3.5-5.248 0-8.398-3.5-3.132-3.5-3.132-9.398t3.132-9.397q3.15-3.516 8.398-3.516m16.763.45h4.532l11.03 20.811V377.49h3.267v24.877h-4.533l-11.03-20.812v20.812h-3.266z" style="font-size:34.125px" transform="translate(-330 -353.362)"/></g><g aria-label="F-Droid" style="font-weight:700;font-size:29.7088px;line-height:100%;font-family:Rokkitt;-inkscape-font-specification:&quot;Rokkitt Bold&quot;;letter-spacing:0;word-spacing:0;display:inline;overflow:visible;fill:#fff;stroke-width:1px;marker:none"><path d="M510.81 481.243v8.118h27.972v-8.118l-7.236-1.391v-18.555h23.657V450.86h-23.657v-18.601h22.033l.603 8.071h10.39v-18.508h-53.761v8.164l7.19 1.392v48.474zm88.321-15.539v-10.437h-26.162v10.437zm38.547-43.882h-30.383v8.164l7.19 1.392v48.474l-7.19 1.391v8.118h30.383c16.514 0 28.435-11.597 28.435-28.157v-11.179c0-16.514-11.921-28.203-28.435-28.203m-9.648 10.437h8.953c9.694 0 15.54 7.236 15.54 17.673v11.272c0 10.576-5.846 17.766-15.54 17.766h-8.953zm46.062 48.984v8.118h26.533v-8.118l-6.494-1.391v-24.585c1.484-2.83 3.896-4.314 7.886-4.129l6.68.325 1.437-12.478c-1.298-.464-3.432-.742-5.334-.742-4.87 0-8.628 3.061-10.994 8.257l-.093-1.114-.51-6.215h-19.807v8.164l7.19 1.391v31.126zm39.15-17.441v.974c0 15.076 8.86 25.56 23.75 25.56 14.705 0 23.611-10.484 23.611-25.56v-.974c0-15.03-8.86-25.56-23.703-25.56-14.798 0-23.658 10.577-23.658 25.56m13.545.974v-.974c0-8.906 3.062-15.122 10.113-15.122 7.05 0 10.205 6.216 10.205 15.122v.974c0 9.092-3.108 15.168-10.113 15.168-7.19 0-10.205-6.03-10.205-15.168m59.375-36.228v-11.55h-14.009v11.55Zm-20.085 52.695v8.118h26.58v-8.118l-6.495-1.391V439.17h-20.781v8.164l7.236 1.391v31.126zm63.689 1.995 1.02 6.123h18.23v-8.118l-6.494-1.391v-62.854h-20.781v8.164l7.236 1.391v17.998c-3.015-4.035-7.05-6.308-12.06-6.308-12.432 0-19.622 10.622-19.622 26.44v.974c0 14.844 7.144 24.678 19.529 24.678 5.52 0 9.787-2.458 12.942-7.097m-18.926-17.58v-.975c0-9.463 2.876-15.91 9.51-15.91 3.896 0 6.772 1.855 8.627 5.056v21.291c-1.855 3.015-4.778 4.685-8.72 4.685-6.68 0-9.417-5.38-9.417-14.148" style="font-size:95px;line-height:100%;font-family:&quot;Roboto Slab&quot;;-inkscape-font-specification:&quot;Roboto Slab Bold&quot;" transform="translate(-330 -353.362)"/></g><path d="m2.589 1006.862 4.25 5.5" style="fill:#8ab000;fill-opacity:1;fill-rule:evenodd;stroke:#769616;stroke-width:2.5;stroke-linecap:round;stroke-linejoin:miter;stroke-miterlimit:4;stroke-dasharray:none;stroke-opacity:1" transform="matrix(-2.63159 0 0 2.63157 153.158 -2623.837)"/><path d="M2.611 1005.61c-.453.011-.761.188-.98.448 2.027 2.409 2.368 2.792 5.135 6.221 1.02 1.32 2.082.638 1.062-.681l-4.25-5.5a1.24 1.24 0 0 0-.967-.489" style="color:#000;font-style:normal;font-variant:normal;font-weight:400;font-stretch:normal;font-size:medium;line-height:normal;font-family:sans-serif;text-indent:0;text-align:start;text-decoration:none;text-decoration-line:none;text-decoration-style:solid;text-decoration-color:#000;letter-spacing:normal;word-spacing:normal;text-transform:none;writing-mode:lr-tb;direction:ltr;baseline-shift:baseline;text-anchor:start;white-space:normal;clip-rule:nonzero;display:inline;overflow:visible;visibility:visible;opacity:1;isolation:auto;mix-blend-mode:normal;color-interpolation:sRGB;color-interpolation-filters:linearRGB;solid-color:#000;solid-opacity:1;fill:#fff;fill-opacity:.298039;fill-rule:evenodd;stroke:none;stroke-width:2.5;stroke-linecap:round;stroke-linejoin:miter;stroke-miterlimit:4;stroke-dasharray:none;stroke-dashoffset:0;stroke-opacity:1;color-rendering:auto;image-rendering:auto;shape-rendering:auto;text-rendering:auto" transform="matrix(-2.63159 0 0 2.63157 153.158 -2623.837)"/><path d="M1.622 1006.07a1.25 1.25 0 0 0-.022 1.557l4.25 5.5c1.02 1.319 1.15-.613 1.15-.613s-3.735-4.51-5.378-6.443" style="color:#000;font-style:normal;font-variant:normal;font-weight:400;font-stretch:normal;font-size:medium;line-height:normal;font-family:sans-serif;text-indent:0;text-align:start;text-decoration:none;text-decoration-line:none;text-decoration-style:solid;text-decoration-color:#000;letter-spacing:normal;word-spacing:normal;text-transform:none;writing-mode:lr-tb;direction:ltr;baseline-shift:baseline;text-anchor:start;white-space:normal;clip-rule:nonzero;display:inline;overflow:visible;visibility:visible;opacity:1;isolation:auto;mix-blend-mode:normal;color-interpolation:sRGB;color-interpolation-filters:linearRGB;solid-color:#000;solid-opacity:1;fill:#263238;fill-opacity:.2;fill-rule:evenodd;stroke:none;stroke-width:2.5;stroke-linecap:round;stroke-linejoin:miter;stroke-miterlimit:4;stroke-dasharray:none;stroke-dashoffset:0;stroke-opacity:1;color-rendering:auto;image-rendering:auto;shape-rendering:auto;text-rendering:auto" transform="matrix(-2.63159 0 0 2.63157 153.158 -2623.837)"/><path d="M2.338 1005.844c-.438 0-.96.142-.824.799.103.501 4.66 6.074 4.66 6.074 1.02 1.32 2.494.677 1.474-.642l-4.234-5.473c-.26-.29-.608-.744-1.076-.758" style="color:#000;font-style:normal;font-variant:normal;font-weight:400;font-stretch:normal;font-size:medium;line-height:normal;font-family:sans-serif;text-indent:0;text-align:start;text-decoration:none;text-decoration-line:none;text-decoration-style:solid;text-decoration-color:#000;letter-spacing:normal;word-spacing:normal;text-transform:none;writing-mode:lr-tb;direction:ltr;baseline-shift:baseline;text-anchor:start;white-space:normal;clip-rule:nonzero;display:inline;overflow:visible;visibility:visible;opacity:1;isolation:auto;mix-blend-mode:normal;color-interpolation:sRGB;color-interpolation-filters:linearRGB;solid-color:#000;solid-opacity:1;fill:#8ab000;fill-opacity:1;fill-rule:evenodd;stroke:none;stroke-width:2.5;stroke-linecap:round;stroke-linejoin:miter;stroke-miterlimit:4;stroke-dasharray:none;stroke-dashoffset:0;stroke-opacity:1;color-rendering:auto;image-rendering:auto;shape-rendering:auto;text-rendering:auto" transform="matrix(-2.63159 0 0 2.63157 153.158 -2623.837)"/><path d="m2.589 1006.862 4.25 5.5" style="fill:#8ab000;fill-opacity:1;fill-rule:evenodd;stroke:#769616;stroke-width:2.5;stroke-linecap:round;stroke-linejoin:miter;stroke-miterlimit:4;stroke-dasharray:none;stroke-opacity:1" transform="matrix(2.63159 0 0 2.63157 26.842 -2623.837)"/><path d="M2.611 1005.61c-.453.011-.761.188-.98.448 2.027 2.409 2.368 2.792 5.135 6.221 1.02 1.32 2.082.638 1.062-.681l-4.25-5.5a1.24 1.24 0 0 0-.967-.489" style="color:#000;font-style:normal;font-variant:normal;font-weight:400;font-stretch:normal;font-size:medium;line-height:normal;font-family:sans-serif;text-indent:0;text-align:start;text-decoration:none;text-decoration-line:none;text-decoration-style:solid;text-decoration-color:#000;letter-spacing:normal;word-spacing:normal;text-transform:none;writing-mode:lr-tb;direction:ltr;baseline-shift:baseline;text-anchor:start;white-space:normal;clip-rule:nonzero;display:inline;overflow:visible;visibility:visible;opacity:1;isolation:auto;mix-blend-mode:normal;color-interpolation:sRGB;color-interpolation-filters:linearRGB;solid-color:#000;solid-opacity:1;fill:#fff;fill-opacity:.298039;fill-rule:evenodd;stroke:none;stroke-width:2.5;stroke-linecap:round;stroke-linejoin:miter;stroke-miterlimit:4;stroke-dasharray:none;stroke-dashoffset:0;stroke-opacity:1;color-rendering:auto;image-rendering:auto;shape-rendering:auto;text-rendering:auto" transform="matrix(2.63159 0 0 2.63157 26.842 -2623.837)"/><path d="M1.622 1006.07a1.25 1.25 0 0 0-.022 1.557l4.25 5.5c1.02 1.319 1.15-.613 1.15-.613s-3.735-4.51-5.378-6.443" style="color:#000;font-style:normal;font-variant:normal;font-weight:400;font-stretch:normal;font-size:medium;line-height:normal;font-family:sans-serif;text-indent:0;text-align:start;text-decoration:none;text-decoration-line:none;text-decoration-style:solid;text-decoration-color:#000;letter-spacing:normal;word-spacing:normal;text-transform:none;writing-mode:lr-tb;direction:ltr;baseline-shift:baseline;text-anchor:start;white-space:normal;clip-rule:nonzero;display:inline;overflow:visible;visibility:visible;opacity:1;isolation:auto;mix-blend-mode:normal;color-interpolation:sRGB;color-interpolation-filters:linearRGB;solid-color:#000;solid-opacity:1;fill:#263238;fill-opacity:.2;fill-rule:evenodd;stroke:none;stroke-width:2.5;stroke-linecap:round;stroke-linejoin:miter;stroke-miterlimit:4;stroke-dasharray:none;stroke-dashoffset:0;stroke-opacity:1;color-rendering:auto;image-rendering:auto;shape-rendering:auto;text-rendering:auto" transform="matrix(2.63159 0 0 2.63157 26.842 -2623.837)"/><path d="M2.338 1005.844c-.438 0-.96.142-.824.799.103.501 4.66 6.074 4.66 6.074 1.02 1.32 2.494.677 1.474-.642l-4.234-5.473c-.26-.29-.608-.744-1.076-.758" style="color:#000;font-style:normal;font-variant:normal;font-weight:400;font-stretch:normal;font-size:medium;line-height:normal;font-family:sans-serif;text-indent:0;text-align:start;text-decoration:none;text-decoration-line:none;text-decoration-style:solid;text-decoration-color:#000;letter-spacing:normal;word-spacing:normal;text-transform:none;writing-mode:lr-tb;direction:ltr;baseline-shift:baseline;text-anchor:start;white-space:normal;clip-rule:nonzero;display:inline;overflow:visible;visibility:visible;opacity:1;isolation:auto;mix-blend-mode:normal;color-interpolation:sRGB;color-interpolation-filters:linearRGB;solid-color:#000;solid-opacity:1;fill:#8ab000;fill-opacity:1;fill-rule:evenodd;stroke:none;stroke-width:2.5;stroke-linecap:round;stroke-linejoin:miter;stroke-miterlimit:4;stroke-dasharray:none;stroke-dashoffset:0;stroke-opacity:1;color-rendering:auto;image-rendering:auto;shape-rendering:auto;text-rendering:auto" transform="matrix(2.63159 0 0 2.63157 26.842 -2623.837)"/><path d="M-34 1010.36h32c1.662 0 3 1.338 3 3v6.92c0 1.662-1.338 3-3 3h-32c-1.662 0-3-1.338-3-3v-6.92c0-1.662 1.338-3 3-3" style="opacity:1;fill:#aeea00;stroke-width:3;stroke-linecap:round;stroke-miterlimit:3" transform="matrix(2.63159 0 0 2.63157 137.369 -2623.837)"/><path d="M-34 1013.279h32c1.662 0 3 1.338 3 3v4c0 1.662-1.338 3-3 3h-32c-1.662 0-3-1.338-3-3v-4c0-1.662 1.338-3 3-3" style="opacity:1;fill:#263238;fill-opacity:.2;stroke-width:3;stroke-linecap:round;stroke-miterlimit:3" transform="matrix(2.63159 0 0 2.63157 137.369 -2623.837)"/><path d="M-34 1010.362h32c1.662 0 3 1.338 3 3v4c0 1.662-1.338 3-3 3h-32c-1.662 0-3-1.338-3-3v-4c0-1.662 1.338-3 3-3" style="opacity:1;fill:#fff;fill-opacity:.298039;stroke-width:3;stroke-linecap:round;stroke-miterlimit:3" transform="matrix(2.63159 0 0 2.63157 137.369 -2623.837)"/><path d="M-34 1011.5h32c1.662 0 3 1.095 3 2.456v5.729c0 1.36-1.338 2.456-3 2.456h-32c-1.662 0-3-1.095-3-2.456v-5.729c0-1.36 1.338-2.456 3-2.456" style="opacity:1;fill:#aeea00;stroke-width:3;stroke-linecap:round;stroke-miterlimit:3" transform="matrix(2.63159 0 0 2.63157 137.369 -2623.837)"/><path d="M8 1024.522h32c1.662 0 3 1.338 3 3v19.84c0 1.662-1.338 3-3 3H8c-1.662 0-3-1.338-3-3v-19.84c0-1.662 1.338-3 3-3" style="opacity:1;fill:#1976d2;stroke-width:3;stroke-linecap:round;stroke-miterlimit:3" transform="matrix(2.63159 0 0 2.63157 26.842 -2624.107)"/><path d="M8 1037.362h32c1.662 0 3 1.338 3 3v7c0 1.662-1.338 3-3 3H8c-1.662 0-3-1.338-3-3v-7c0-1.662 1.338-3 3-3" style="opacity:1;fill:#263238;fill-opacity:.2;stroke-width:3;stroke-linecap:round;stroke-miterlimit:3" transform="matrix(2.63159 0 0 2.63157 26.842 -2624.107)"/><path d="M8 1024.442h32c1.662 0 3 1.338 3 3v7c0 1.662-1.338 3-3 3H8c-1.662 0-3-1.338-3-3v-7c0-1.662 1.338-3 3-3" style="opacity:1;fill:#fff;fill-opacity:.2;stroke-width:3;stroke-linecap:round;stroke-miterlimit:3" transform="matrix(2.63159 0 0 2.63157 26.842 -2624.107)"/><path d="M8 1025.662h32c1.662 0 3 1.212 3 2.718v18.124c0 1.506-1.338 2.718-3 2.718H8c-1.662 0-3-1.212-3-2.718v-18.124c0-1.506 1.338-2.718 3-2.718" style="opacity:1;fill:#1976d2;stroke-width:3;stroke-linecap:round;stroke-miterlimit:3" transform="matrix(2.63159 0 0 2.63157 26.842 -2624.107)"/><path d="M24 17.75c-2.88 0-5.32 1.985-6.033 4.65h3.213A3.22 3.22 0 0 1 24 20.75 3.23 3.23 0 0 1 27.25 24 3.23 3.23 0 0 1 24 27.25a3.22 3.22 0 0 1-2.93-1.85h-3.154c.642 2.766 3.132 4.85 6.084 4.85 3.434 0 6.25-2.816 6.25-6.25s-2.816-6.25-6.25-6.25" style="color:#000;font-style:normal;font-variant:normal;font-weight:400;font-stretch:normal;font-size:medium;line-height:normal;font-family:sans-serif;text-indent:0;text-align:start;text-decoration:none;text-decoration-line:none;text-decoration-style:solid;text-decoration-color:#000;letter-spacing:normal;word-spacing:normal;text-transform:none;writing-mode:lr-tb;direction:ltr;baseline-shift:baseline;text-anchor:start;white-space:normal;clip-rule:nonzero;display:inline;overflow:visible;visibility:visible;opacity:1;isolation:auto;mix-blend-mode:normal;color-interpolation:sRGB;color-interpolation-filters:linearRGB;solid-color:#000;solid-opacity:1;fill:#0d47a1;fill-opacity:1;fill-rule:nonzero;stroke:none;stroke-width:3;stroke-linecap:round;stroke-linejoin:miter;stroke-miterlimit:4;stroke-dasharray:none;stroke-dashoffset:0;stroke-opacity:1;color-rendering:auto;image-rendering:auto;shape-rendering:auto;text-rendering:auto" transform="matrix(2.63159 0 0 2.63157 26.842 42.902)"/><path d="M33.55 24A9.55 9.55 0 0 1 24 33.55 9.55 9.55 0 0 1 14.45 24 9.55 9.55 0 0 1 24 14.45 9.55 9.55 0 0 1 33.55 24Z" style="opacity:1;fill:none;fill-opacity:.403922;stroke:#0d47a1;stroke-width:1.9;stroke-linecap:round" transform="matrix(2.63159 0 0 2.63157 26.842 42.902)"/><path d="M17.75 1016.487a3.375 3.875 0 0 1-3.375 3.875 3.375 3.875 0 0 1-3.375-3.875 3.375 3.875 0 0 1 3.375-3.875 3.375 3.875 0 0 1 3.375 3.875" style="opacity:1;fill:#263238;fill-opacity:.2;stroke-width:1.9;stroke-linecap:round;stroke-opacity:.697211" transform="matrix(2.63159 0 0 2.63157 26.842 -2622.521)"/><path d="M17.75 1016.987a3.375 3.375 0 0 1-3.375 3.375 3.375 3.375 0 0 1-3.375-3.375 3.375 3.375 0 0 1 3.375-3.375 3.375 3.375 0 0 1 3.375 3.375" style="opacity:1;fill:#fff;stroke-width:1.9;stroke-linecap:round;stroke-opacity:.697211" transform="matrix(2.63159 0 0 2.63157 26.842 -2622.521)"/><path d="M17.75 1016.487a3.375 3.875 0 0 1-3.375 3.875 3.375 3.875 0 0 1-3.375-3.875 3.375 3.875 0 0 1 3.375-3.875 3.375 3.875 0 0 1 3.375 3.875" style="opacity:1;fill:#263238;fill-opacity:.2;stroke-width:1.9;stroke-linecap:round;stroke-opacity:.697211" transform="matrix(2.63159 0 0 2.63157 78.158 -2622.521)"/><path d="M17.75 1016.987a3.375 3.375 0 0 1-3.375 3.375 3.375 3.375 0 0 1-3.375-3.375 3.375 3.375 0 0 1 3.375-3.375 3.375 3.375 0 0 1 3.375 3.375" style="opacity:1;fill:#fff;stroke-width:1.9;stroke-linecap:round;stroke-opacity:.697211" transform="matrix(2.63159 0 0 2.63157 78.158 -2622.521)"/><path d="M282.715 299.835a3.29 3.29 0 0 0-2.662 5.336l9.474 12.261a7.9 7.9 0 0 0-.527 2.825v18.21a7.877 7.877 0 0 0 7.895 7.895h84.21a7.877 7.877 0 0 0 7.895-7.894v-18.211c0-.999-.19-1.949-.525-2.826l9.472-12.26a3.29 3.29 0 0 0-2.433-5.334 3.29 3.29 0 0 0-2.772 1.31l-9.013 11.666a7.9 7.9 0 0 0-2.624-.45h-84.21c-.922 0-1.8.163-2.622.45l-9.015-11.666a3.29 3.29 0 0 0-2.543-1.312m14.18 49.527a7.877 7.877 0 0 0-7.895 7.895v52.21a7.877 7.877 0 0 0 7.895 7.895h84.21a7.877 7.877 0 0 0 7.895-7.894v-52.211a7.877 7.877 0 0 0-7.895-7.895z" style="color:#000;font-style:normal;font-variant:normal;font-weight:400;font-stretch:normal;font-size:medium;line-height:normal;font-family:sans-serif;text-indent:0;text-align:start;text-decoration:none;text-decoration-line:none;text-decoration-style:solid;text-decoration-color:#000;letter-spacing:normal;word-spacing:normal;text-transform:none;writing-mode:lr-tb;direction:ltr;baseline-shift:baseline;text-anchor:start;white-space:normal;clip-rule:nonzero;display:inline;overflow:visible;visibility:visible;opacity:1;isolation:auto;mix-blend-mode:normal;color-interpolation:sRGB;color-interpolation-filters:linearRGB;solid-color:#000;solid-opacity:1;fill:url(#b);fill-opacity:1;fill-rule:evenodd;stroke:none;stroke-width:6.57895;stroke-linecap:round;stroke-linejoin:miter;stroke-miterlimit:4;stroke-dasharray:none;stroke-dashoffset:0;stroke-opacity:1;color-rendering:auto;image-rendering:auto;shape-rendering:auto;text-rendering:auto" transform="translate(-249 -277.362)"/></svg>