<svg xmlns="http://www.w3.org/2000/svg" width="172" height="60"><defs><radialGradient id="a" cx="-98.234" cy="3.47" r="22.671" gradientTransform="matrix(0 1.9748 -2.1172 0 18.677 1199.6)" gradientUnits="userSpaceOnUse"><stop offset="0" stop-color="#fff" stop-opacity=".098"/><stop offset="1" stop-color="#fff" stop-opacity="0"/></radialGradient></defs><g transform="translate(-289 -502.36)"><rect width="172" height="60" x="289" y="502.36" color="#000" rx="7.776" ry="7.776"/><text xml:space="preserve" x="345.498" y="522.185" fill="#fff" color="#000" font-family="'DejaVu Sans'" font-size="12.395" letter-spacing="0" style="line-height:100%" word-spacing="0"><tspan x="345.498" y="522.185" font-size="12.5" font-weight="bold">AVAILABLE ON</tspan></text><text xml:space="preserve" x="345.619" y="552.058" fill="#fff" color="#000" font-family="Rokkitt" font-size="29.709" font-weight="bold" letter-spacing="0" style="line-height:100%" word-spacing="0"><tspan x="345.619" y="552.058" font-family="'Roboto Slab'" style="line-height:100%">F-Droid</tspan></text><g transform="translate(294 -498)"><g fill-rule="evenodd"><path fill="#8ab000" stroke="#769616" stroke-linecap="round" stroke-width="2.5" d="m45.411 1006.9-4.25 5.5"/><g color="#000"><path fill="#fff" fill-opacity=".298" d="M2.611 1005.6c-.453.012-.761.189-.98.449 2.026 2.409 2.368 2.791 5.135 6.221 1.02 1.319 2.082.637 1.062-.682l-4.25-5.5a1.239 1.239 0 0 0-.967-.488z" style="block-progression:tb;isolation:auto;mix-blend-mode:normal;text-decoration-color:#000;text-decoration-line:none;text-decoration-style:solid;text-indent:0;text-transform:none;white-space:normal" transform="matrix(-1 0 0 1 48 0)"/><path fill="#263238" fill-opacity=".2" d="M1.622 1006.1a1.25 1.25 0 0 0-.022 1.556l4.25 5.5c1.02 1.32 1.15-.612 1.15-.612s-3.735-4.51-5.378-6.444z" style="block-progression:tb;isolation:auto;mix-blend-mode:normal;text-decoration-color:#000;text-decoration-line:none;text-decoration-style:solid;text-indent:0;text-transform:none;white-space:normal" transform="matrix(-1 0 0 1 48 0)"/><path fill="#8ab000" d="M2.338 1005.8c-.438 0-.96.142-.824.799.103.501 4.66 6.074 4.66 6.074 1.02 1.319 2.494.676 1.474-.643l-4.234-5.472c-.26-.29-.609-.744-1.076-.758z" style="block-progression:tb;isolation:auto;mix-blend-mode:normal;text-decoration-color:#000;text-decoration-line:none;text-decoration-style:solid;text-indent:0;text-transform:none;white-space:normal" transform="matrix(-1 0 0 1 48 0)"/></g></g><g fill-rule="evenodd"><path fill="#8ab000" stroke="#769616" stroke-linecap="round" stroke-width="2.5" d="m2.589 1006.9 4.25 5.5"/><g color="#000"><path fill="#fff" fill-opacity=".298" d="M2.611 1005.6c-.453.012-.761.189-.98.449 2.026 2.409 2.368 2.791 5.135 6.221 1.02 1.319 2.082.637 1.062-.682l-4.25-5.5a1.239 1.239 0 0 0-.967-.488z" style="block-progression:tb;isolation:auto;mix-blend-mode:normal;text-decoration-color:#000;text-decoration-line:none;text-decoration-style:solid;text-indent:0;text-transform:none;white-space:normal"/><path fill="#263238" fill-opacity=".2" d="M1.622 1006.1a1.25 1.25 0 0 0-.022 1.556l4.25 5.5c1.02 1.32 1.15-.612 1.15-.612s-3.735-4.51-5.378-6.444z" style="block-progression:tb;isolation:auto;mix-blend-mode:normal;text-decoration-color:#000;text-decoration-line:none;text-decoration-style:solid;text-indent:0;text-transform:none;white-space:normal"/><path fill="#8ab000" d="M2.338 1005.8c-.438 0-.96.142-.824.799.103.501 4.66 6.074 4.66 6.074 1.02 1.319 2.494.676 1.474-.643l-4.234-5.472c-.26-.29-.609-.744-1.076-.758z" style="block-progression:tb;isolation:auto;mix-blend-mode:normal;text-decoration-color:#000;text-decoration-line:none;text-decoration-style:solid;text-indent:0;text-transform:none;white-space:normal"/></g></g><g transform="translate(42)"><rect width="38" height="13" x="-37" y="1010.4" fill="#aeea00" rx="3" ry="3"/><rect width="38" height="10" x="-37" y="1013.4" fill="#263238" fill-opacity=".2" rx="3" ry="3"/><rect width="38" height="10" x="-37" y="1010.4" fill="#fff" fill-opacity=".298" rx="3" ry="3"/><rect width="38" height="11" x="-37" y="1011.4" fill="#aeea00" rx="3" ry="2.538"/></g><rect width="38" height="26" x="5" y="1024.4" fill="#1976d2" rx="3" ry="3"/><rect width="38" height="13" x="5" y="1037.4" fill="#263238" fill-opacity=".2" rx="3" ry="3"/><rect width="38" height="13" x="5" y="1024.4" fill="#fff" fill-opacity=".2" rx="3" ry="3"/><rect width="38" height="24" x="5" y="1025.4" fill="#1976d2" rx="3" ry="2.769"/><g transform="translate(0 1013.4)"><path fill="#0d47a1" d="M24 17.75c-2.88 0-5.32 1.985-6.033 4.65h3.213A3.215 3.215 0 0 1 24 20.75c1.813 0 3.25 1.437 3.25 3.25s-1.437 3.25-3.25 3.25a3.219 3.219 0 0 1-2.93-1.85h-3.154c.642 2.766 3.132 4.85 6.084 4.85 3.434 0 6.25-2.816 6.25-6.25s-2.816-6.25-6.25-6.25z" color="#000" style="block-progression:tb;isolation:auto;mix-blend-mode:normal;text-decoration-color:#000;text-decoration-line:none;text-decoration-style:solid;text-indent:0;text-transform:none;white-space:normal"/><circle cx="24" cy="24" r="9.55" fill="none" stroke="#0d47a1" stroke-linecap="round" stroke-width="1.9"/></g><g transform="translate(0 .5)"><ellipse cx="14.375" cy="1016.5" fill="#263238" fill-opacity=".2" rx="3.375" ry="3.875"/><circle cx="14.375" cy="1017" r="3.375" fill="#fff"/></g><g transform="translate(19.5 .5)"><ellipse cx="14.375" cy="1016.5" fill="#263238" fill-opacity=".2" rx="3.375" ry="3.875"/><circle cx="14.375" cy="1017" r="3.375" fill="#fff"/></g></g><path fill="url(#a)" fill-rule="evenodd" d="M12.613 1005.6a1.25 1.25 0 0 0-1.012 2.03l3.604 4.663a2.992 2.992 0 0 0-.203 1.07v7c0 1.663 1.338 3 3 3h32c1.662 0 3-1.337 3-3v-7c0-.38-.077-.74-.205-1.074l3.601-4.66a1.25 1.25 0 0 0-1.049-2.027 1.25 1.25 0 0 0-.93.498l-3.43 4.441a2.987 2.987 0 0 0-.987-.177h-32c-.349 0-.678.069-.989.177l-3.433-4.441a1.25 1.25 0 0 0-.967-.5zm5.389 18.764c-.208 0-.41.021-.606.061a2.971 2.971 0 0 0-2.394 2.91v20.028c0 1.662 1.338 3 3 3h32c1.662 0 3-1.338 3-3v-20.029a2.971 2.971 0 0 0-2.395-2.91 3.092 3.092 0 0 0-.605-.061h-32z" color="#000" style="block-progression:tb;isolation:auto;mix-blend-mode:normal;text-decoration-color:#000;text-decoration-line:none;text-decoration-style:solid;text-indent:0;text-transform:none;white-space:normal" transform="translate(284 -498)"/></g></svg>
