<?xml version="1.0" encoding="UTF-8" standalone="no"?>
<svg xmlns="http://www.w3.org/2000/svg" enable-background="new 0 0 595.275 311.111" xml:space="preserve" height="128" width="128" version="1.1" y="0px" x="0px" viewBox="0 0 128 127.99999"><rect rx="20" ry="20" height="128" width="128" y="-.0000015" x="0" fill="#0082c9"/><path style="enable-background:accumulate;color-rendering:auto;text-decoration-color:#000000;color:#000000;isolation:auto;mix-blend-mode:normal;shape-rendering:auto;solid-color:#000000;block-progression:tb;text-decoration-line:none;image-rendering:auto;white-space:normal;text-indent:0;text-transform:none;text-decoration-style:solid" d="m64.091 37.368c-12.502 0.0012-23 8.5614-26.208 20.078-2.7996-6.1595-8.9621-10.525-16.122-10.525-9.7464 0.0011-17.76 8.015-17.761 17.762-0.0019 9.7488 8.0127 17.764 17.761 17.766 7.1608-0.000868 13.319-4.3688 16.119-10.529 3.2064 11.518 13.708 20.08 26.212 20.081 12.434 0.00096 22.881-8.4681 26.153-19.887 2.845 6.0464 8.9128 10.334 15.991 10.335 9.7502 0.0017 17.766-8.0148 17.765-17.766-0.00094-9.7488-8.0163-17.764-17.765-17.762-7.0781 0.00082-13.149 4.288-15.994 10.335-3.274-11.42-13.717-19.889-26.151-19.888zm0 10.427c9.3893-0.000624 16.889 7.4978 16.89 16.888 0.00047 9.3908-7.5 16.892-16.89 16.891-9.3893-0.000912-16.887-7.5015-16.887-16.891 0.000988-9.3886 7.4986-16.887 16.887-16.888zm-42.33 9.552c4.113 0.000472 7.3344 3.222 7.3349 7.3352 0.000728 4.1141-3.221 7.3384-7.3349 7.3389-4.1139-0.00048-7.3356-3.2248-7.3349-7.3389 0.000472-4.1132 3.2218-7.3348 7.3349-7.3352zm84.474 0c4.1138-0.00072 7.338 3.2211 7.3385 7.3352 0.00098 4.115-3.2236 7.3396-7.3385 7.3389-4.114-0.00048-7.3357-3.2248-7.335-7.3389 0.00047-4.1132 3.222-7.3348 7.335-7.3352z" fill="#fff"/></svg>
