<?xml version="1.0" encoding="UTF-8" standalone="no"?>
<svg xmlns="http://www.w3.org/2000/svg" enable-background="new 0 0 595.275 311.111" xml:space="preserve" height="16" width="16" version="1.1" y="0px" x="0px" viewBox="0 0 16 15.999999"><path d="m2.5 0c-1.385 0-2.5 1.115-2.5 2.5v11c0 1.385 1.115 2.5 2.5 2.5h11c1.385 0 2.5-1.115 2.5-2.5v-11c0-1.385-1.115-2.5-2.5-2.5h-11zm5.5117 4.6699c1.5543-0.0001 2.8603 1.0589 3.2693 2.4863 0.356-0.7558 1.114-1.2909 1.998-1.291 1.219-0.0002 2.221 1.0021 2.221 2.2207 0 1.2188-1.002 2.2211-2.221 2.2211-0.884 0-1.642-0.5375-1.998-1.2933-0.409 1.4273-1.7151 2.4863-3.2693 2.4863-1.563 0-2.8765-1.07-3.2773-2.5098-0.3499 0.7701-1.1186 1.3168-2.0137 1.3168-1.2185 0-2.2209-1.0025-2.2207-2.2211 0.0001-1.2183 1.0024-2.2205 2.2207-2.2207 0.895 0.0001 1.6657 0.5465 2.0156 1.3164 0.401-1.4395 1.7126-2.5096 3.2754-2.5097v-0.002zm0 1.3047c-1.1734 0.0002-2.1112 0.9377-2.1113 2.1113-0.0002 1.1737 0.9377 2.1111 2.1113 2.1111 1.1738 0 2.1113-0.9373 2.1113-2.1111 0-1.1737-0.9377-2.1114-2.1113-2.1113zm-5.291 1.1934c-0.5141 0-0.9179 0.4038-0.918 0.9179-0.0001 0.5143 0.4038 0.916 0.918 0.9161 0.5142-0.0001 0.9161-0.4018 0.916-0.9161 0-0.5141-0.4018-0.9179-0.916-0.9179zm10.558 0c-0.514 0-0.918 0.4038-0.918 0.9179 0 0.5143 0.404 0.916 0.918 0.9161 0.515 0.0001 0.918-0.4017 0.918-0.9161 0-0.5142-0.403-0.918-0.918-0.9179z"/></svg>
