<svg xmlns="http://www.w3.org/2000/svg" height="16" width="16" viewBox="0 0 16 16"><path d="M2.5 0A2.495 2.495 0 0 0 0 2.5v11C0 14.885 1.115 16 2.5 16h11c1.385 0 2.5-1.115 2.5-2.5v-11C16 1.115 14.885 0 13.5 0h-11zm5.512 4.67c1.554 0 2.86 1.06 3.27 2.486.355-.756 1.113-1.29 1.997-1.29a2.23 2.23 0 0 1 2.22 2.22 2.23 2.23 0 0 1-2.22 2.22c-.885 0-1.643-.537-2-1.292-.408 1.427-1.714 2.486-3.268 2.486-1.563 0-2.877-1.07-3.278-2.51a2.223 2.223 0 0 1-2.013 1.317A2.23 2.23 0 0 1 .5 8.087a2.23 2.23 0 0 1 2.22-2.222c.896 0 1.666.547 2.016 1.317.4-1.44 1.713-2.51 3.276-2.51V4.67zm0 1.305c-1.174 0-2.11.937-2.112 2.11a2.1 2.1 0 0 0 2.112 2.112 2.1 2.1 0 0 0 2.11-2.11c0-1.175-.937-2.112-2.11-2.112zm-5.29 1.193a.91.91 0 0 0-.92.918c0 .514.405.916.92.916a.906.906 0 0 0 .915-.916.907.907 0 0 0-.916-.918zm10.557 0a.91.91 0 0 0-.92.918c0 .514.405.916.92.916a.907.907 0 0 0 .917-.916.908.908 0 0 0-.918-.918z"/></svg>