<?xml version="1.0" encoding="UTF-8" standalone="no"?>
<svg xmlns="http://www.w3.org/2000/svg" xml:space="preserve" height="16" viewBox="0 0 16 15.999999" width="16" version="1.1" y="0px" x="0px" enable-background="new 0 0 595.275 311.111"><path style="color-rendering:auto;text-decoration-color:#000000;color:#000000;isolation:auto;mix-blend-mode:normal;shape-rendering:auto;solid-color:#000000;block-progression:tb;text-decoration-line:none;image-rendering:auto;white-space:normal;text-indent:0;enable-background:accumulate;text-transform:none;text-decoration-style:solid" d="m8.0115 4.671c-1.5628 0.00015-2.875 1.0702-3.276 2.5097-0.34996-0.76995-1.1202-1.3156-2.0152-1.3157-1.2183 0.000138-2.22 1.0019-2.2201 2.2202-0.000241 1.2186 1.0016 2.2206 2.2201 2.2207 0.8951-0.000109 1.6649-0.5461 2.0148-1.3162 0.4008 1.4398 1.7135 2.51 3.2765 2.5102 1.5542 0.00012 2.86-1.0585 3.2691-2.486 0.35562 0.7558 1.1141 1.2918 1.9988 1.2919 1.2188 0.000215 2.2208-1.0019 2.2206-2.2207-0.000118-1.2186-1.002-2.2204-2.2206-2.2202-0.88475 0.000102-1.6436 0.536-1.9992 1.2919-0.4091-1.4274-1.7144-2.4861-3.2687-2.486zm0 1.3034c1.1736-0.000078 2.1112 0.93725 2.1113 2.111 0.000059 1.1738-0.9375 2.1115-2.1113 2.1114-1.1736-0.000114-2.111-0.9377-2.1108-2.1114 0.000123-1.1736 0.93735-2.1108 2.1108-2.111zm-5.2915 1.194c0.51415 0.000059 0.9168 0.40275 0.91685 0.9169 0.000091 0.51425-0.40262 0.9173-0.91685 0.91735-0.51425-0.00006-0.91695-0.4031-0.91685-0.91735 0.000059-0.51415 0.40273-0.91685 0.91685-0.9169zm10.559 0c0.51425-0.00009 0.91725 0.40264 0.9173 0.9169 0.000122 0.5144-0.40295 0.91745-0.9173 0.91735-0.51425-0.00006-0.91695-0.4031-0.9169-0.91735 0.000059-0.51415 0.40274-0.91685 0.9169-0.9169z"/></svg>
