<svg xmlns="http://www.w3.org/2000/svg" viewBox="0 0 16 16" width="16" version="1.1" height="16"><path d="m2.5 0c-1.385 0-2.5 1.115-2.5 2.5v11c0 1.385 1.115 2.5 2.5 2.5h11c1.385 0 2.5-1.115 2.5-2.5v-11c0-1.385-1.115-2.5-2.5-2.5h-11zm5.5 4.58c1.55 0 2.87 1.05 3.283 2.473 0.359-0.748 1.117-1.273 1.997-1.273 1.22 0 2.22 1 2.22 2.22s-1 2.22-2.22 2.22c-0.88 0-1.64-0.52-1.997-1.27-0.413 1.42-1.733 2.47-3.283 2.47s-2.87-1.05-3.28-2.47c-0.36 0.75-1.12 1.27-2 1.27-1.22 0-2.22-1-2.22-2.22 0-1.218 1-2.22 2.22-2.22 0.88 0 1.64 0.525 2 1.273 0.41-1.423 1.73-2.473 3.28-2.473zm0 1.32c-1.168 0-2.1 0.932-2.1 2.1 0 1.17 0.93 2.1 2.1 2.1s2.1-0.93 2.1-2.1c0-1.168-0.93-2.1-2.1-2.1zm-5.28 1.2c-0.504 0-0.9 0.395-0.9 0.9s0.396 0.9 0.9 0.9c0.506 0 0.9-0.395 0.9-0.9s-0.394-0.9-0.9-0.9zm10.56 0c-0.506 0-0.9 0.4-0.9 0.9 0 0.505 0.395 0.9 0.9 0.9s0.9-0.395 0.9-0.9c0-0.5-0.396-0.9-0.9-0.9z"/></svg>
