<?xml version="1.0" encoding="UTF-8" standalone="no"?>
<svg xmlns:rdf="http://www.w3.org/1999/02/22-rdf-syntax-ns#" xmlns="http://www.w3.org/2000/svg" enable-background="new 0 0 595.275 311.111" xml:space="preserve" height="128" width="128" version="1.1" y="0px" x="0px" xmlns:cc="http://creativecommons.org/ns#" xmlns:xlink="http://www.w3.org/1999/xlink" viewBox="0 0 128 127.99999" xmlns:dc="http://purl.org/dc/elements/1.1/">
<rect rx="20" ry="20" height="128" width="128" y="-.0000015" x="0" fill="#1d2d44"/><path style="block-progression:tb;color:#000000;enable-background:accumulate;text-transform:none;text-indent:0" d="m58.332 29.124c-8.9317 0-16.148 7.216-16.148 16.148 0 3.6817 1.226 7.0702 3.2929 9.7836 4.4839-5.1898 11.102-8.4855 18.491-8.4855 3.615 0 7.0431 0.805 10.132 2.2164 0.25008-1.131 0.37996-2.3072 0.37996-3.5145 0-8.9317-7.216-16.148-16.148-16.148zm-21.087 7.472c-4.6514 0-8.3905 3.7708-8.3905 8.4222 0 1.506 0.38852 2.929 1.0765 4.1478 2.8068-1.5834 6.0519-2.5013 9.4987-2.5013 0.33264 0 0.65304 0.012 0.98154 0.032-0.0372-0.47152-0.06328-0.9438-0.06328-1.4248 0-2.5907 0.56269-5.0557 1.5515-7.2823-1.3313-0.89272-2.9263-1.3931-4.6544-1.3931zm39.831 5.7942c-0.34364 0-0.67487 0.042-1.0132 0.0632 0.14636 0.92272 0.25328 1.8544 0.25328 2.818 0 1.4994-0.19068 2.9463-0.53826 4.3377 4.0749 2.2551 7.459 5.6294 9.6887 9.7203 2.3126-1.204 4.8925-1.9695 7.6306-2.153-0.70568-8.2758-7.5618-14.786-16.021-14.786zm-13.108 6.0158c-12.498 0-22.607 10.108-22.607 22.607 0 12.498 10.108 22.607 22.607 22.607s22.607-10.109 22.607-22.607c0-12.499-10.109-22.607-22.607-22.607zm-24.538 0.0948c-9.6962 0-17.541 7.8447-17.541 17.541 0 5.708 2.7196 10.761 6.934 13.963 1.7767-3.4268 5.3452-5.7625 9.467-5.7625 0.49817 0 0.97633 0.0604 1.4565 0.1268-0.15072-1.0966-0.22164-2.2184-0.22164-3.3562 0-5.4397 1.7707-10.47 4.781-14.533-1.802-2.2548-3.0915-4.9641-3.6412-7.9156-0.40737-0.028-0.82022-0.0632-1.2348-0.0632zm54.966 10.449c-2.9442 0-5.7022 0.75168-8.1372 2.0264 1.3827 3.0627 2.153 6.4609 2.153 10.037 0 6.6958-2.6921 12.776-7.0607 17.193 3.2093 3.563 7.8657 5.7942 13.045 5.7942 9.6962 0 17.541-7.8446 17.541-17.541 0-9.6962-7.8447-17.509-17.541-17.509zm-74.216 2.3115c-8.933-0.001-16.18 7.183-16.18 16.115s7.2474 16.179 16.179 16.179c3.3996 0 6.5489-1.0592 9.1504-2.8496-1.075-1.6704-1.7098-3.6675-1.7098-5.7942 0-1.1038 0.16288-2.1643 0.47493-3.1662-4.8703-3.5197-8.0422-9.2473-8.0422-15.704 0-1.6406 0.2162-3.227 0.60159-4.7494-0.15996-0.004-0.3138-0.032-0.47494-0.032zm94.955 13.868c-0.47649 0-0.93756 0.0544-1.3931 0.1268 0.0252 0.40276 0.0316 0.79408 0.0316 1.2032 0 5.1501-2.0321 9.8246-5.3193 13.298 1.6172 1.8806 3.9926 3.0712 6.6808 3.0712 4.8964 0 8.8654-3.9373 8.8654-8.8338 0-4.8964-3.969-8.8654-8.8654-8.8654zm-76.844 0.94984c-4.8962 0-8.8338 3.9376-8.8338 8.8338s3.9376 8.8654 8.8338 8.8654c3.753 0 6.9386-2.3418 8.2322-5.6359-3.1565-3.2149-5.4251-7.3162-6.4274-11.873-0.58657-0.1212-1.1819-0.19-1.8048-0.19z" fill="#fff"/>
</svg>
