<svg xmlns="http://www.w3.org/2000/svg" height="128" width="128" viewBox="0 0 128 128"><rect rx="20" ry="20" height="128" width="128" fill="#0082c9"/><path style="text-decoration-color:#000;isolation:auto;mix-blend-mode:normal;block-progression:tb;text-decoration-line:none;text-indent:0;text-transform:none;text-decoration-style:solid" d="M64.09 37.368c-12.5 0-23 8.56-26.207 20.078-2.8-6.16-8.962-10.525-16.122-10.525C12.016 46.923 4 54.937 4 64.684c-.002 9.75 8.013 17.764 17.76 17.766 7.162-.002 13.32-4.37 16.12-10.53C41.086 83.438 51.588 92 64.092 92c12.434.002 22.88-8.467 26.153-19.886 2.845 6.046 8.913 10.334 15.99 10.335 9.75 0 17.767-8.016 17.766-17.767 0-9.75-8.015-17.764-17.764-17.762-7.078.002-13.15 4.29-15.994 10.336-3.274-11.42-13.717-19.89-26.15-19.888zm0 10.427a16.81 16.81 0 0 1 16.89 16.888c0 9.39-7.5 16.892-16.89 16.89a16.81 16.81 0 0 1-16.886-16.89c0-9.39 7.5-16.887 16.887-16.888zm-42.33 9.552c4.114 0 7.335 3.222 7.336 7.335 0 4.114-3.22 7.34-7.335 7.34-4.113 0-7.335-3.226-7.334-7.34 0-4.113 3.222-7.335 7.335-7.335zm84.475 0c4.114 0 7.338 3.22 7.338 7.335s-3.223 7.34-7.338 7.34c-4.114 0-7.336-3.226-7.335-7.34 0-4.113 3.222-7.335 7.335-7.335z" fill="#fff" color="#000" white-space="normal"/></svg>