<?xml version="1.0" encoding="UTF-8" standalone="no"?>
<svg xmlns:rdf="http://www.w3.org/1999/02/22-rdf-syntax-ns#" xmlns="http://www.w3.org/2000/svg" version="1.1" xml:space="preserve" height="16" width="16" enable-background="new 0 0 595.275 311.111" y="0px" x="0px" xmlns:cc="http://creativecommons.org/ns#" xmlns:dc="http://purl.org/dc/elements/1.1/" viewBox="0 0 16 15.999999"><g transform="matrix(.125 0 0 .125 0 14)"><path d="m20-112c-11.08 0-20 8.92-20 20v88c0 11.08 8.92 20 20 20h88c11.08 0 20-8.92 20-20v-88c0-11.08-8.92-20-20-20h-88zm38.328 29.125c8.932 0 16.156 7.2089 16.156 16.141 0 1.2073-0.14055 2.3846-0.39062 3.5156-3.0889-1.4114-6.51-2.2188-10.125-2.2188-7.389 0-14 3.3102-18.484 8.5-2.0669-2.7134-3.2969-6.1152-3.2969-9.7969 0-8.932 7.2089-16.141 16.141-16.141zm-21.078 7.4688c1.7281 0 3.325 0.4979 4.6562 1.3906-0.98881 2.2266-1.5625 4.6906-1.5625 7.2812-0.000001 0.481 0.0253 0.96598 0.0625 1.4375-0.3285-0.02-0.63611-0.03125-0.96875-0.03125-3.4468 0-6.6932 0.9166-9.5 2.5-0.68798-1.2188-1.0781-2.6502-1.0781-4.1562 0-4.6514 3.7392-8.4219 8.3906-8.4219zm39.828 5.7969c8.4592 0 15.31 6.5054 16.016 14.781-2.7381 0.1835-5.3124 0.95225-7.625 2.1562-2.2297-4.0909-5.6126-7.4636-9.6875-9.7188 0.34758-1.3914 0.53125-2.8444 0.53125-4.3438 0-0.9636-0.10364-1.8898-0.25-2.8125 0.33833-0.0212 0.67198-0.0625 1.0156-0.0625zm-13.109 6.0156c12.498 0 22.609 10.11 22.609 22.609 0 12.498-10.11 22.609-22.609 22.609s-22.609-10.111-22.609-22.609c0-12.499 10.111-22.609 22.609-22.609zm-24.531 0.09375c0.41458 0 0.827 0.0345 1.2344 0.0625 0.5497 2.9515 1.8386 5.6671 3.6406 7.9219-3.0103 4.063-4.7813 9.0916-4.7813 14.531 0.000001 1.1378 0.06803 2.2628 0.21875 3.3594-0.48017-0.0664-0.95496-0.125-1.4531-0.125-4.1218 0-7.6921 2.3232-9.4688 5.75-4.2144-3.202-6.9375-8.2451-6.9375-13.953 0-9.6963 7.8507-17.547 17.547-17.547zm54.953 10.453c9.6963 0 17.547 7.8038 17.547 17.5-0.00001 9.6964-7.8507 17.547-17.547 17.547-5.1793 0-9.8376-2.2339-13.047-5.7969 4.3686-4.417 7.0625-10.492 7.0625-17.188 0-3.5761-0.75792-6.9842-2.1406-10.047 2.435-1.2747 5.1808-2.0156 8.125-2.0156zm-74.219 2.3125h0.01563c0.15552 0.0017 0.31393 0.02738 0.46875 0.03125-0.38539 1.5224-0.60937 3.1094-0.60937 4.75 0 6.4567 3.1766 12.183 8.0469 15.703-0.31205 1.0019-0.46875 2.0524-0.46875 3.1562 0 2.1267 0.62812 4.1265 1.7031 5.7969-2.6015 1.7904-5.7566 2.8594-9.1562 2.8594-8.9316 0-16.172-7.2555-16.172-16.187 0-8.9267 7.2462-16.102 16.172-16.109zm94.969 13.859c4.8964 0 8.8594 3.9786 8.8594 8.875 0 4.8965-3.963 8.8281-8.8594 8.8281-2.6882 0-5.0703-1.1975-6.6875-3.0781 3.2872-3.4734 5.3281-8.1468 5.3281-13.297 0-0.40912-0.0217-0.80036-0.0469-1.2031 0.45554-0.0724 0.92976-0.125 1.4062-0.125zm-76.844 0.95312c0.6229 0 1.2103 0.0663 1.7969 0.1875 1.0023 4.5568 3.2654 8.6601 6.4219 11.875-1.2936 3.2941-4.4657 5.6406-8.2187 5.6406-4.8962 0-8.8438-3.9788-8.8438-8.875s3.9476-8.8281 8.8438-8.8281z"/></g></svg>
