<?xml version="1.0" encoding="UTF-8" standalone="no"?>
<svg xmlns:rdf="http://www.w3.org/1999/02/22-rdf-syntax-ns#" xmlns="http://www.w3.org/2000/svg" enable-background="new 0 0 595.275 311.111" xml:space="preserve" height="32" width="32" version="1.1" y="0px" x="0px" xmlns:cc="http://creativecommons.org/ns#" xmlns:xlink="http://www.w3.org/1999/xlink" viewBox="0 0 32 31.999997" xmlns:dc="http://purl.org/dc/elements/1.1/">
<rect rx="5" ry="5" height="32" width="32" y="-.0000052588" x="0" fill="#1d2d44"/><path style="block-progression:tb;color:#000000;enable-background:accumulate;text-transform:none;text-indent:0" d="m14.583 7.281c-2.2329 0-4.0369 1.804-4.0369 4.0369 0 0.92043 0.30649 1.7676 0.82322 2.4459 1.121-1.2974 2.7754-2.1214 4.6227-2.1214 0.90376 0 1.7608 0.20125 2.533 0.55409 0.06252-0.28275 0.09499-0.57681 0.09499-0.87863 0-2.2329-1.804-4.0369-4.0369-4.0369zm-5.2718 1.8681c-1.1629 0-2.0976 0.94269-2.0976 2.1055 0 0.3765 0.09713 0.73224 0.26913 1.0369 0.70171-0.39584 1.513-0.62533 2.3747-0.62533 0.08316 0 0.16326 0.003 0.24538 0.008-0.0093-0.11788-0.01582-0.23595-0.01582-0.3562 0-0.64768 0.14067-1.2639 0.38786-1.8206-0.33282-0.22318-0.73157-0.34828-1.1636-0.34828zm9.9578 1.4486c-0.08591 0-0.16872 0.0105-0.2533 0.0158 0.03659 0.23068 0.06332 0.46361 0.06332 0.70449 0 0.37486-0.04767 0.73658-0.13456 1.0844 1.0187 0.56378 1.8648 1.4073 2.4222 2.4301 0.57816-0.301 1.2231-0.49238 1.9077-0.53826-0.17642-2.0689-1.8904-3.6966-4.0053-3.6966zm-3.277 1.504c-3.1245 0-5.6517 2.527-5.6517 5.6517 0 3.1244 2.527 5.6517 5.6517 5.6517s5.6517-2.5273 5.6517-5.6517c0-3.1248-2.5272-5.6517-5.6517-5.6517zm-6.1346 0.0237c-2.4241 0-4.3852 1.9612-4.3852 4.3852 0 1.427 0.67991 2.6902 1.7335 3.4908 0.44418-0.85669 1.3363-1.4406 2.3668-1.4406 0.12454 0 0.24408 0.0151 0.36412 0.0317-0.03768-0.27414-0.05541-0.55461-0.05541-0.83905 0-1.3599 0.44267-2.6175 1.1952-3.6332-0.45049-0.56371-0.77288-1.241-0.91029-1.9789-0.10184-0.007-0.20505-0.0158-0.30871-0.0158zm13.741 2.6121c-0.73606 0-1.4255 0.18792-2.0343 0.5066 0.34567 0.76568 0.53826 1.6152 0.53826 2.5092 0 1.674-0.67302 3.1939-1.7652 4.2982 0.80233 0.89076 1.9664 1.4486 3.2612 1.4486 2.4241 0 4.3852-1.9612 4.3852-4.3852 0-2.4241-1.9612-4.3773-4.3852-4.3773zm-18.554 0.57788c-2.2321-0.001-4.044 1.795-4.044 4.028s1.8119 4.0449 4.0449 4.0449c0.84991 0 1.6372-0.2648 2.2876-0.7124-0.26875-0.41761-0.42744-0.91688-0.42744-1.4486 0-0.27596 0.04072-0.54107 0.11873-0.79156-1.2176-0.87992-2.0106-2.3118-2.0106-3.9261 0-0.41016 0.05405-0.80676 0.1504-1.1873-0.03999-0.001-0.07845-0.008-0.11874-0.008zm23.739 3.467c-0.11912 0-0.23439 0.0136-0.34828 0.0317 0.0063 0.10069 0.0079 0.19852 0.0079 0.30079 0 1.2875-0.50802 2.4561-1.3298 3.3245 0.4043 0.47015 0.99816 0.76781 1.6702 0.76781 1.2241 0 2.2164-0.98433 2.2164-2.2084s-0.99225-2.2164-2.2164-2.2164zm-19.211 0.23746c-1.224 0-2.2084 0.9844-2.2084 2.2084s0.98439 2.2164 2.2084 2.2164c0.93825 0 1.7346-0.58546 2.058-1.409-0.78913-0.80372-1.3563-1.8291-1.6069-2.9683-0.14664-0.0303-0.29548-0.0475-0.45119-0.0475z" fill="#fff"/>
</svg>
