<svg xmlns="http://www.w3.org/2000/svg" height="128" viewBox="0 0 128 128" width="128"><circle cy="64" cx="64" r="64" fill="#D95032"/><path d="M49.424 97.875c-19.018 0-34.49-15.193-34.49-33.874 0-18.68 15.472-33.874 34.49-33.874 8.318 0 16.354 2.952 22.624 8.31l-8.77 9.898c-3.84-3.28-8.76-5.086-13.854-5.086-11.652 0-21.13 9.31-21.13 20.752 0 11.44 9.48 20.75 21.13 20.75 9.858 0 16.31-4.723 18.407-13.197H49.588v-13.12h32.347v6.56c0 19.666-13.065 32.882-32.51 32.882zM117.93 58.438h-10v-10h-7.996v10h-10v8h10v10h7.996v-10h10z" fill="#fff"/></svg>