<?xml version="1.0" encoding="UTF-8" standalone="no"?>
<!DOCTYPE svg  PUBLIC '-//W3C//DTD SVG 1.1//EN'  'http://www.w3.org/Graphics/SVG/1.1/DTD/svg11.dtd'>
<svg xmlns="http://www.w3.org/2000/svg" xml:space="preserve" height="128px" viewBox="0 0 128 128" width="128px" version="1.1" enable-background="new 0 0 128 128"><circle cy="64" cx="64" r="64" fill="#D95032"/><path d="m49.424 97.875c-19.018 0-34.491-15.193-34.491-33.874 0-18.68 15.473-33.875 34.491-33.875 8.318 0 16.354 2.952 22.624 8.309l-8.771 9.899c-3.838-3.279-8.758-5.086-13.853-5.086-11.652 0-21.13 9.31-21.13 20.752 0 11.441 9.479 20.75 21.13 20.75 9.858 0 16.311-4.723 18.407-13.197h-18.244v-13.121h32.347v6.562c0 19.665-13.065 32.881-32.51 32.881z" fill="#fff"/><polygon points="117.93 58.438 107.93 58.438 107.93 48.438 99.934 48.438 99.934 58.438 89.934 58.438 89.934 66.438 99.934 66.438 99.934 76.438 107.93 76.438 107.93 66.438 117.93 66.438" fill="#fff"/></svg>
