<?xml version="1.0" encoding="UTF-8" standalone="no"?>
<svg xml:space="preserve" height="118.23" viewBox="0 0 250.00001 118.22802" xmlns:dc="http://purl.org/dc/elements/1.1/" width="250" version="1.1" xmlns:xlink="http://www.w3.org/1999/xlink" xmlns:cc="http://creativecommons.org/ns#" xmlns:rdf="http://www.w3.org/1999/02/22-rdf-syntax-ns#" xmlns="http://www.w3.org/2000/svg" y="0px" x="0px" enable-background="new 0 0 595.275 311.111">
<path style="block-progression:tb;text-indent:0;color:#000000;enable-background:accumulate;text-transform:none" d="m150.66 0c-11.241 0-20.322 9.0815-20.322 20.322 0 4.6335 1.5429 8.898 4.1442 12.313 5.6431-6.5315 13.972-10.679 23.271-10.679 4.5496 0 8.8639 1.0131 12.751 2.7893 0.31474-1.4234 0.47817-2.9037 0.47817-4.4231 0.01-11.24-9.08-20.322-20.32-20.322zm-26.539 9.404c-5.8539 0-10.56 4.7456-10.56 10.599 0 1.8953 0.48899 3.6862 1.3548 5.22 3.5325-1.9927 7.6164-3.148 11.954-3.148 0.41864 0 0.82186 0.01699 1.2353 0.03985-0.0468-0.59343-0.0797-1.1878-0.0797-1.7931 0-3.2605 0.70816-6.3627 1.9525-9.165-1.6754-1.1235-3.6828-1.7533-5.8576-1.7533zm50.128 7.2921c-0.43247 0-0.84934 0.05309-1.2751 0.0797 0.18418 1.1613 0.31878 2.3339 0.31878 3.5464 0 1.8871-0.24 3.708-0.67741 5.4591 5.1284 2.8381 9.3873 7.0847 12.193 12.233 2.9105-1.5152 6.1573-2.4787 9.6033-2.7096-0.8881-10.415-9.5166-18.609-20.163-18.609zm-16.497 7.5711c-15.729 0-28.451 12.721-28.451 28.451 0 15.729 12.721 28.451 28.451 28.451s28.451-12.723 28.451-28.451c0-15.73-12.722-28.451-28.451-28.451zm-30.882 0.11954c-12.203 0-22.076 9.8727-22.076 22.076 0 7.1836 3.4227 13.543 8.7266 17.573 2.236-4.3127 6.727-7.2523 11.914-7.2523 0.62695 0 1.2287 0.07599 1.833 0.15939-0.18969-1.3801-0.27893-2.792-0.27893-4.2239 0-6.846 2.2284-13.177 6.017-18.29-2.2678-2.8377-3.8907-6.2474-4.5825-9.9619-0.51269-0.03551-1.0323-0.0797-1.5541-0.0797zm69.18 13.149c-3.7054 0-7.1763 0.94599-10.241 2.5503 1.7401 3.8545 2.7096 8.1312 2.7096 12.632 0 8.4268-3.3881 16.079-8.886 21.637 4.039 4.4841 9.8991 7.2921 16.417 7.2921 12.203 0 22.076-9.8727 22.076-22.076s-9.8727-22.036-22.076-22.036zm-93.403 2.9089c-11.241 0-20.362 9.0413-20.362 20.282s9.121 20.362 20.362 20.362c4.2785 0 8.2419-1.333 11.516-3.5863-1.3529-2.1023-2.1518-4.6156-2.1518-7.2921 0-1.3892 0.20497-2.7238 0.59771-3.9848-6.1294-4.4296-10.121-11.638-10.121-19.764 0-2.0648 0.27209-4.0613 0.75711-5.9772-0.20132-0.0058-0.39495-0.03985-0.59772-0.03985zm119.5 17.453c-0.59968 0-1.1799 0.06831-1.7533 0.15939 0.0316 0.50688 0.0398 0.99939 0.0398 1.5142 0 6.4816-2.5574 12.364-6.6944 16.736 2.0353 2.3668 5.0248 3.8652 8.4079 3.8652 6.1623 0 11.157-4.9552 11.157-11.117 0-6.1623-4.9951-11.157-11.157-11.157zm-96.71 1.1954c-6.162 0-11.118 4.9555-11.118 11.117 0 6.162 4.9555 11.157 11.118 11.157 4.7232 0 8.7323-2.9472 10.36-7.0929-3.9726-4.046-6.8276-9.2077-8.0891-14.943-0.73821-0.15266-1.4875-0.23909-2.2713-0.23909zm122.21 9.3642v22.036h-11.675c-7.6322 0-13.827 6.2347-13.827 13.867 0 7.6311 6.195 13.827 13.827 13.827h3.387 1.1556c2.239 0 4.4748-1.0874 6.2561-2.7495s3.1409-3.9644 3.1878-6.535c0.0801-4.4122 0-17.254 0-17.254v-0.55787-22.633h-2.3112zm-106.75 9.9619v30.483c0 5.1232 4.2011 9.2845 9.3244 9.2845v-2.3112c-3.8766 0-7.0132-3.0967-7.0132-6.9733v-29.049c-0.80461-0.4325-1.5514-0.93449-2.3112-1.4345zm-23.112 2.8292c-4.0935 3.9059-6.6546 9.4053-6.6546 15.501 0 11.827 9.6118 21.438 21.438 21.438v-2.3112c-10.579 0-19.127-8.5469-19.127-19.127 0-5.6905 2.4839-10.805 6.4155-14.305-0.73485-0.33851-1.4155-0.73502-2.0721-1.1954zm-27.216 9.165c-7.6322 0-13.827 6.1949-13.827 13.827v12.791h2.3112v-12.791c0-6.3852 5.1309-11.556 11.516-11.556 6.3864 0 11.556 5.1706 11.556 11.556v12.791h2.3112v-12.791c0-7.6322-6.2338-13.827-13.867-13.827zm77.583 0.0797c-7.6326 0-13.827 6.2344-13.827 13.867s6.1945 13.867 13.827 13.867c7.6326 0 13.867-6.2344 13.867-13.867s-6.2344-13.867-13.867-13.867zm-154.29 0.0398c-7.632 0-13.867 6.1952-13.867 13.827 0 7.632 6.235 13.827 13.867 13.827s13.827-6.1952 13.827-13.827c0-7.632-6.1952-13.827-13.827-13.827zm20.761 1.036v17.334c0 5.1234 4.1622 9.2845 9.2845 9.2845 3.4912 0 6.5716-1.9303 8.1688-4.7817 1.5857 2.8514 4.6384 4.7817 8.1289 4.7817 5.1233 0 9.3243-4.1611 9.3243-9.2845v-17.334h-2.3112v17.334c0 3.8764-3.1366 6.9733-7.0132 6.9733s-6.9733-3.0969-6.9733-6.9733v-17.334h-2.3112v17.334c0 3.8766-3.1352 6.9733-7.0132 6.9733-3.8753 0-6.9733-3.0969-6.9733-6.9733v-17.334h-2.3112zm153.45 0v12.791c0 7.6311 6.195 13.827 13.827 13.827 7.6322 0 13.867-6.1959 13.867-13.827v-12.791h-2.3112v12.791c0 6.3837-5.1707 11.516-11.556 11.516-6.3851 0-11.516-5.1322-11.516-11.516v-12.791h-2.3112zm-19.924 1.2353c6.3856 0 11.556 5.1702 11.556 11.556 0 6.3856-5.1702 11.556-11.556 11.556-6.3856 0-11.516-5.1702-11.516-11.556 0-6.3856 5.1304-11.556 11.516-11.556zm67.821 0h11.675c0.009 1.5271 0.0728 12.046 0 16.059-0.0326 1.7858-1.0121 3.5776-2.4307 4.9013-1.4186 1.3236-3.2544 2.1119-4.702 2.1119h-4.5426c-6.3851 0-11.516-5.1322-11.516-11.516 0-6.3852 5.1309-11.556 11.516-11.556zm-222.11 0.0399c6.385 0 11.516 5.131 11.516 11.516s-5.131 11.516-11.516 11.516-11.556-5.131-11.556-11.516 5.1708-11.516 11.556-11.516z" fill="#fff"/>
</svg>
