<svg xmlns="http://www.w3.org/2000/svg" height="120" width="252" viewBox="0 0 252.00001 120.00171"><path style="text-decoration-color:#000;isolation:auto;mix-blend-mode:normal;block-progression:tb;text-decoration-line:none;text-indent:0;text-transform:none;text-decoration-style:solid" fill="#fff" d="M126.19 3.19c-26.05.003-47.917 17.835-54.6 41.827C65.758 32.185 52.92 23.09 38.002 23.09c-20.305.002-37 16.697-37.002 37.002-.004 20.31 16.693 37.008 37.002 37.01 14.918-.002 27.748-9.1 33.58-21.935C78.262 99.162 100.14 117 126.19 117c25.904.003 47.668-17.64 54.486-41.43 5.927 12.597 18.568 21.53 33.314 21.532 20.313.004 37.013-16.697 37.01-37.01-.002-20.31-16.7-37.006-37.01-37.002-14.746.002-27.395 8.933-33.32 21.53C173.86 20.83 152.1 3.19 126.2 3.19zm0 21.72c19.56 0 35.186 15.62 35.188 35.182 0 19.563-15.625 35.19-35.188 35.188-19.56 0-35.182-15.627-35.18-35.188.002-19.56 15.62-35.18 35.18-35.18zm-88.188 19.9c8.57.002 15.28 6.713 15.28 15.282.002 8.57-6.71 15.288-15.28 15.29-8.57-.002-15.283-6.72-15.28-15.29 0-8.57 6.71-15.28 15.28-15.28zm175.99 0c8.57 0 15.288 6.71 15.29 15.282 0 8.573-6.717 15.29-15.29 15.29-8.57-.002-15.283-6.72-15.28-15.29 0-8.57 6.71-15.28 15.28-15.28z" color="#000" white-space="normal"/></svg>