<?xml version="1.0" encoding="UTF-8" standalone="no"?>
<svg xmlns:rdf="http://www.w3.org/1999/02/22-rdf-syntax-ns#" xmlns="http://www.w3.org/2000/svg" xml:space="preserve" height="34" width="62" version="1.1" y="0px" x="0px" xmlns:cc="http://creativecommons.org/ns#" enable-background="new 0 0 595.275 311.111" viewBox="0 0 62.001102 34" xmlns:dc="http://purl.org/dc/elements/1.1/"><path style="block-progression:tb;color:#000000;enable-background:accumulate;text-transform:none;text-indent:0" d="m27.8 0.99971c-4.4056 0-7.9651 3.5593-7.9651 7.9651 0 1.816 0.60473 3.4874 1.6242 4.8258 2.2117-2.5599 5.4761-4.1855 9.1208-4.1855 1.7831 0 3.474 0.39707 4.9976 1.0932 0.12336-0.55787 0.18742-1.138 0.18742-1.7335 0-4.4056-3.5593-7.9651-7.9651-7.9651zm-10.402 3.6856c-2.2943 0-4.1387 1.86-4.1387 4.1543 0 0.74284 0.19164 1.4447 0.53099 2.0459 1.3845-0.78102 2.9851-1.2338 4.6853-1.2338 0.16407 0 0.32211 0.0059 0.48415 0.01578-0.01835-0.23258-0.03122-0.46553-0.03122-0.70279 0-1.2779 0.27755-2.4937 0.76528-3.592-0.65667-0.44034-1.4434-0.68715-2.2958-0.68715zm19.647 2.858c-0.16951 0-0.33288 0.020716-0.49977 0.031173 0.0722 0.45514 0.12493 0.91469 0.12493 1.39 0 0.73959-0.094 1.4533-0.2655 2.1396 2.01 1.1123 3.6792 2.7767 4.779 4.7946 1.1407-0.59388 2.4132-0.97146 3.7638-1.062-0.34808-4.0821-3.7299-7.2933-7.9024-7.2933zm-6.4656 2.9673c-6.1647 0-11.151 4.9858-11.151 11.151 0 6.1647 4.9858 11.151 11.151 11.151s11.151-4.9863 11.151-11.151c0-6.1652-4.9863-11.151-11.151-11.151zm-12.103 0.04676c-4.7827 0-8.6522 3.8694-8.6522 8.6522 0 2.8155 1.3415 5.3079 3.4202 6.8873 0.87636-1.6903 2.6365-2.8424 4.6696-2.8424 0.24572 0 0.48158 0.02979 0.71842 0.06255-0.07434-0.5409-0.10932-1.0942-0.10932-1.6555 0-2.6832 0.8734-5.1644 2.3582-7.1685-0.88884-1.1122-1.5249-2.4486-1.796-3.9044-0.20094-0.01381-0.40458-0.03117-0.60907-0.03117zm27.112 5.154c-1.4522 0-2.8126 0.37077-4.0137 0.99953 0.68202 1.5107 1.062 3.1869 1.062 4.9508 0 3.3027-1.3279 6.3018-3.4827 8.4805 1.583 1.7575 3.8798 2.858 6.4345 2.858 4.7827 0 8.6522-3.8694 8.6522-8.6522 0-4.7827-3.8694-8.6364-8.6522-8.6364zm-36.607 1.14c-4.4062-0.000493-7.9809 3.543-7.9809 7.9488 0 4.4057 3.5748 7.9804 7.9804 7.9804 1.6769 0 3.2303-0.52246 4.5135-1.4056-0.53025-0.82393-0.84337-1.809-0.84337-2.858 0-0.54446 0.08034-1.0676 0.23426-1.5617-2.4023-1.7361-3.9669-4.5613-3.9669-7.7461 0-0.80923 0.10664-1.5917 0.29674-2.3427-0.0789-0.002-0.15478-0.01578-0.23427-0.01578zm46.837 6.8405c-0.23502 0-0.46245 0.02683-0.68715 0.06255 0.0124 0.19866 0.0156 0.39168 0.0156 0.59348 0 2.5403-1.0023 4.846-2.6238 6.5593 0.79769 0.92761 1.9694 1.5149 3.2953 1.5149 2.4152 0 4.3729-1.9421 4.3729-4.3573s-1.9577-4.3729-4.3729-4.3729zm-37.904 0.46851c-2.4151 0-4.3573 1.9422-4.3573 4.3573s1.9422 4.3729 4.3573 4.3729c1.8512 0 3.4225-1.1551 4.0606-2.7799-1.557-1.5858-2.676-3.6087-3.1703-5.8564-0.28933-0.05978-0.58298-0.09372-0.89022-0.09372z" fill="#FFF"/></svg>
