<?xml version="1.0" encoding="UTF-8" standalone="no"?>
<svg
   xmlns:dc="http://purl.org/dc/elements/1.1/"
   xmlns:cc="http://creativecommons.org/ns#"
   xmlns:rdf="http://www.w3.org/1999/02/22-rdf-syntax-ns#"
   xmlns:svg="http://www.w3.org/2000/svg"
   xmlns="http://www.w3.org/2000/svg"
   xmlns:sodipodi="http://sodipodi.sourceforge.net/DTD/sodipodi-0.dtd"
   xmlns:inkscape="http://www.inkscape.org/namespaces/inkscape"
   enable-background="new 0 0 595.275 311.111"
   xml:space="preserve"
   height="32"
   width="60"
   version="1.1"
   y="0px"
   x="0px"
   viewBox="0 0 60.001066 32"
   id="svg2"
   inkscape:version="0.48.4 r9939"
   sodipodi:docname="logo-icon.svg"><metadata
     id="metadata28"><rdf:RDF><cc:Work
         rdf:about=""><dc:format>image/svg+xml</dc:format><dc:type
           rdf:resource="http://purl.org/dc/dcmitype/StillImage" /></cc:Work></rdf:RDF></metadata><defs
     id="defs26" /><sodipodi:namedview
     pagecolor="#ffffff"
     bordercolor="#666666"
     borderopacity="1"
     objecttolerance="10"
     gridtolerance="10"
     guidetolerance="10"
     inkscape:pageopacity="0"
     inkscape:pageshadow="2"
     inkscape:window-width="1920"
     inkscape:window-height="1002"
     id="namedview24"
     showgrid="false"
     inkscape:zoom="5.3370171"
     inkscape:cx="92.998089"
     inkscape:cy="17.546808"
     inkscape:window-x="0"
     inkscape:window-y="34"
     inkscape:window-maximized="1"
     inkscape:current-layer="svg2"
     fit-margin-top="0"
     fit-margin-left="0"
     fit-margin-right="0"
     fit-margin-bottom="0" /><path
     inkscape:connector-curvature="0"
     style="text-indent:0;text-transform:none;block-progression:tb;color:#000000;fill:#ffffff;enable-background:accumulate"
     d="m 26.799495,-2.8433247e-4 c -4.405596,0 -7.965069,3.55932393247 -7.965069,7.96507263247 0,1.8160141 0.604729,3.4874067 1.624238,4.8258037 2.211704,-2.559892 5.476107,-4.1855106 9.120767,-4.1855106 1.78311,0 3.47404,0.39707 4.99765,1.093249 0.12336,-0.55787 0.18742,-1.138036 0.18742,-1.7335421 0,-4.4056007 -3.55933,-7.96507263247 -7.965075,-7.96507263247 z M 16.398242,3.6853126 c -2.294322,0 -4.138652,1.8599639 -4.138652,4.1542875 0,0.7428413 0.19164,1.4447423 0.530989,2.0459199 1.384467,-0.7810176 2.985128,-1.2337766 4.685276,-1.2337766 0.164073,0 0.322114,0.0059 0.48415,0.01578 -0.01835,-0.232579 -0.03122,-0.465534 -0.03122,-0.7027887 0,-1.2778741 0.277549,-2.4937463 0.76528,-3.5920269 -0.656667,-0.440337 -1.443409,-0.687152 -2.295801,-0.687152 z m 19.646819,2.8580148 c -0.16951,0 -0.33288,0.020716 -0.49977,0.031173 0.0722,0.4551355 0.12493,0.9146904 0.12493,1.3899908 0,0.7395852 -0.094,1.4532752 -0.2655,2.1395898 2.00997,1.112338 3.67919,2.776726 4.779,4.79458 1.1407,-0.593878 2.41324,-0.971464 3.76382,-1.061976 -0.34808,-4.0820746 -3.72989,-7.2932591 -7.90242,-7.2932591 z m -6.46558,2.96732 c -6.164697,0 -11.151006,4.9858156 -11.151006,11.1510016 0,6.164694 4.985816,11.151003 11.151006,11.151003 6.16519,0 11.151,-4.986309 11.151,-11.151003 0,-6.165186 -4.98631,-11.1510016 -11.151,-11.1510016 z m -12.103478,0.04676 c -4.782694,0 -8.652175,3.8694326 -8.652175,8.6521756 0,2.815496 1.341453,5.30791 3.420225,6.887311 0.876365,-1.690285 2.636541,-2.842379 4.66964,-2.842379 0.245725,0 0.481581,0.02979 0.718422,0.06255 -0.07434,-0.540903 -0.109323,-1.094236 -0.109323,-1.655461 0,-2.683155 0.873405,-5.164373 2.358247,-7.168465 -0.888843,-1.112195 -1.524893,-2.448569 -1.796035,-3.9044096 -0.200939,-0.01381 -0.404575,-0.03117 -0.60907,-0.03117 z m 27.112218,5.1540156 c -1.45224,0 -2.81263,0.370769 -4.01371,0.99953 0.68202,1.51069 1.06198,3.186868 1.06198,4.950794 0,3.302733 -1.32789,6.301818 -3.48272,8.480523 1.583,1.757466 3.87979,2.858015 6.4345,2.858015 4.7827,0 8.65218,-3.869384 8.65218,-8.652175 0,-4.782693 -3.86943,-8.636391 -8.65218,-8.636391 z M 7.980856,15.851581 C 3.574615,15.851088 0,19.394627 0,23.800375 c 0,4.405749 3.574812,7.980363 7.980363,7.980363 1.676867,0 3.230273,-0.522455 4.513474,-1.405577 -0.530249,-0.823933 -0.843366,-1.809011 -0.843366,-2.858015 0,-0.544455 0.08034,-1.06755 0.234261,-1.561742 -2.402296,-1.736108 -3.96685,-4.561272 -3.96685,-7.746067 0,-0.809233 0.106642,-1.591732 0.296737,-2.342663 -0.0789,-0.002 -0.154783,-0.01578 -0.234266,-0.01578 z m 46.836965,6.840451 c -0.23502,0 -0.46245,0.02683 -0.68715,0.06255 0.0124,0.198664 0.0156,0.391684 0.0156,0.593484 0,2.540309 -1.00234,4.846027 -2.62377,6.559297 0.79769,0.927614 1.96937,1.514883 3.29533,1.514883 2.41517,0 4.3729,-1.94209 4.3729,-4.357311 0,-2.41517 -1.95773,-4.372897 -4.3729,-4.372897 z m -37.903634,0.468513 c -2.415074,0 -4.357313,1.942239 -4.357313,4.357311 0,2.415072 1.942239,4.372898 4.357313,4.372898 1.85118,0 3.422493,-1.155103 4.060565,-2.779933 -1.556954,-1.585764 -2.675951,-3.608748 -3.170341,-5.85641 -0.289328,-0.05978 -0.582977,-0.09372 -0.890224,-0.09372 z"
     id="path6" /></svg>