<?xml version="1.0" encoding="UTF-8" standalone="no"?>
<svg xmlns="http://www.w3.org/2000/svg" version="1.1" xml:space="preserve" height="120" width="252" enable-background="new 0 0 196.6 72" y="0px" x="0px" viewBox="0 0 252.00001 120.00171"><path style="color-rendering:auto;text-decoration-color:#000000;color:#000000;isolation:auto;mix-blend-mode:normal;shape-rendering:auto;solid-color:#000000;block-progression:tb;text-decoration-line:none;image-rendering:auto;white-space:normal;text-indent:0;enable-background:accumulate;text-transform:none;text-decoration-style:solid" fill="#fff" d="m126.19 3.19c-26.05 0.0025-47.917 17.835-54.6 41.827-5.832-12.832-18.671-21.926-33.588-21.927-20.305 0.002-37 16.697-37.002 37.002-0.00364 20.309 16.693 37.008 37.002 37.01 14.918-0.0018 27.748-9.1014 33.58-21.935 6.6801 23.995 28.558 41.832 54.608 41.834 25.904 0.002 47.668-17.641 54.486-41.43 5.9271 12.596 18.568 21.529 33.314 21.531 20.313 0.0036 37.013-16.697 37.01-37.01-0.002-20.309-16.701-37.006-37.01-37.002-14.746 0.0017-27.395 8.933-33.321 21.531-6.81-23.79-28.57-41.433-54.47-41.431zm0 21.721c19.561-0.0013 35.186 15.62 35.188 35.181 0.001 19.563-15.625 35.19-35.188 35.188-19.56-0.001-35.182-15.627-35.18-35.188 0.002-19.559 15.62-35.179 35.18-35.181zm-88.188 19.9c8.5689 0.00099 15.28 6.7122 15.281 15.281 0.0015 8.5707-6.7103 15.288-15.281 15.289-8.5707-0.001-15.283-6.718-15.281-15.289 0.001-8.5689 6.7122-15.28 15.281-15.281zm175.99 0c8.5705-0.0015 15.288 6.7103 15.289 15.281 0.002 8.5726-6.7159 15.29-15.289 15.289-8.5708-0.001-15.283-6.718-15.281-15.289 0.00097-8.5689 6.7124-15.28 15.281-15.281z"/></svg>
