<svg xmlns="http://www.w3.org/2000/svg" height="34" width="62" viewBox="0 0 62.000002 34"><path style="text-decoration-color:#000;isolation:auto;mix-blend-mode:normal;block-progression:tb;text-decoration-line:none;text-indent:0;text-transform:none;text-decoration-style:solid" fill="#fff" d="M31.6 4c-5.95 0-10.947 4.075-12.473 9.555-1.333-2.93-4.266-5.01-7.674-5.01C6.815 8.546 3 12.36 3 17c0 4.64 3.814 8.453 8.453 8.454 3.41 0 6.34-2.08 7.672-5.01C20.65 25.923 25.65 30 31.6 30c5.918 0 10.89-4.03 12.448-9.465 1.354 2.878 4.242 4.918 7.61 4.92 4.64 0 8.456-3.816 8.456-8.456s-3.816-8.455-8.455-8.454c-3.37 0-6.26 2.04-7.614 4.918C42.486 8.03 37.518 4 31.6 4zm0 4.962A8 8 0 0 1 39.64 17a8 8 0 0 1-8.04 8.038 8 8 0 0 1-8.037-8.04A8 8 0 0 1 31.6 8.963zm-20.147 4.546a3.454 3.454 0 0 1 3.49 3.49 3.455 3.455 0 0 1-3.49 3.494A3.455 3.455 0 0 1 7.963 17a3.454 3.454 0 0 1 3.49-3.492zm40.205 0a3.455 3.455 0 0 1 3.493 3.49 3.455 3.455 0 0 1-3.492 3.494A3.455 3.455 0 0 1 48.168 17a3.454 3.454 0 0 1 3.49-3.492z" color="#000" white-space="normal"/></svg>