<?xml version="1.0" encoding="UTF-8" standalone="no"?>
<svg xmlns:rdf="http://www.w3.org/1999/02/22-rdf-syntax-ns#" xmlns="http://www.w3.org/2000/svg" xml:space="preserve" height="34" viewBox="0 0 62.001102 34" width="62" version="1.1" y="0px" x="0px" xmlns:cc="http://creativecommons.org/ns#" xmlns:dc="http://purl.org/dc/elements/1.1/" enable-background="new 0 0 595.275 311.111"><path style="block-progression:tb;color:#000000;enable-background:accumulate;text-transform:none;text-indent:0" fill="#fff" d="m29.639 2.9681c-3.7216 0-6.7285 3.0067-6.7285 6.7285 0 1.5341 0.51084 2.946 1.372 4.0766 1.8683-2.1625 4.6259-3.5357 7.7047-3.5357 1.5063 0 2.9346 0.33542 4.2217 0.92347 0.10421-0.47126 0.15832-0.96132 0.15832-1.4644 0-3.7216-3.0067-6.7285-6.7285-6.7285zm-8.787 3.1134c-1.9381 0-3.4961 1.5712-3.4961 3.5093 0 0.62751 0.16189 1.2204 0.44855 1.7283 1.1695-0.65976 2.5216-1.0422 3.9579-1.0422 0.1386 0 0.2721 0.005 0.40898 0.01333-0.0155-0.19647-0.02637-0.39325-0.02637-0.59368 0-1.0795 0.23446-2.1065 0.64646-3.0343-0.55472-0.37197-1.2193-0.58046-1.9394-0.58046zm16.597 2.4143c-0.14319 0-0.2812 0.0175-0.42218 0.02633 0.06099 0.38448 0.10553 0.77268 0.10553 1.1742 0 0.62476-0.07941 1.2277-0.22428 1.8074 1.6979 0.93961 3.108 2.3456 4.037 4.0502 0.9636-0.50168 2.0385-0.82063 3.1794-0.89712-0.29404-3.4483-3.1508-6.161-6.6755-6.161zm-5.4618 2.5066c-5.2076 0-9.4197 4.2117-9.4197 9.4197 0 5.2076 4.2117 9.4197 9.4197 9.4197s9.4197-4.2121 9.4197-9.4197c0-5.208-4.2121-9.4197-9.4197-9.4197zm-10.224 0.0395c-4.0401 0-7.3089 3.2686-7.3089 7.3089 0 2.3784 1.1332 4.4838 2.8892 5.818 0.7403-1.4279 2.2272-2.4011 3.9446-2.4011 0.20757 0 0.40681 0.02517 0.60688 0.05284-0.0628-0.45692-0.09235-0.92432-0.09235-1.3985 0-2.2666 0.7378-4.3626 1.9921-6.0555-0.75084-0.93952-1.2881-2.0684-1.5172-3.2982-0.16974-0.01167-0.34177-0.02633-0.51451-0.02633zm22.903 4.3538c-1.2267 0-2.3759 0.3132-3.3905 0.84434 0.57613 1.2762 0.89712 2.6921 0.89712 4.1821 0 2.7899-1.1217 5.3234-2.942 7.1638 1.3372 1.4846 3.2774 2.4143 5.4355 2.4143 4.0401 0 7.3089-3.2686 7.3089-7.3089 0-4.0401-3.2686-7.2955-7.3089-7.2955zm-30.923 0.96301c-3.7221-0.000417-6.7418 2.9929-6.7418 6.7147 0 3.7217 3.0198 6.7414 6.7414 6.7414 1.4165 0 2.7288-0.44134 3.8127-1.1874-0.44792-0.69601-0.71243-1.5281-0.71243-2.4143 0-0.45993 0.06787-0.90185 0.19789-1.3192-2.0293-1.4666-3.351-3.8531-3.351-6.5435 0-0.68359 0.09008-1.3446 0.25067-1.979-0.06665-0.0017-0.13075-0.01333-0.1979-0.01333zm39.565 5.7785c-0.19853 0-0.39065 0.02266-0.58046 0.05284 0.01047 0.16782 0.01318 0.33087 0.01318 0.50134 0 2.1459-0.84668 4.0936-2.2164 5.5409 0.67384 0.78359 1.6636 1.2797 2.7837 1.2797 2.0402 0 3.694-1.6406 3.694-3.6808s-1.6538-3.694-3.694-3.694zm-32.019 0.39577c-2.0401 0-3.6808 1.6407-3.6808 3.6808s1.6407 3.694 3.6808 3.694c1.5638 0 2.8911-0.97576 3.4302-2.3483-1.3153-1.3396-2.2605-3.0484-2.6781-4.9471-0.24441-0.0505-0.49247-0.07917-0.75201-0.07917z"/></svg>
