<svg xmlns="http://www.w3.org/2000/svg" height="567.836" width="567.836" viewBox="0 0 532.35042 532.35042"><g transform="translate(-101.02 -213.94)"><rect fill-rule="evenodd" ry="266.18" height="532.35" width="532.35" y="213.94" x="101.02" fill="#5cb85c"/><path d="M530.17 434.64c-5.457 6.003-11.64 11.278-18.19 15.825-30.377 20.554-60.936 41.29-90.585 62.755-15.28 11.278-34.197 25.102-54.023 25.102h-.364c-19.827 0-38.744-13.824-54.023-25.102-29.65-21.646-60.208-42.2-90.403-62.755-6.73-4.547-12.915-9.822-18.372-15.825v144.43c0 16.007 13.097 29.104 29.104 29.104h267.75c16.007 0 29.104-13.097 29.104-29.104V434.64zm0-53.478c0-16.007-13.278-29.104-29.104-29.104h-267.75c-19.463 0-29.104 15.28-29.104 33.105 0 16.553 18.372 37.107 31.286 45.838 28.194 19.646 56.752 39.29 84.946 59.118 11.823 8.185 31.832 24.92 46.566 24.92h.364c14.734 0 34.742-16.735 46.566-24.92 28.194-19.827 56.752-39.472 85.128-59.117 16.007-11.095 31.104-29.466 31.104-49.84z" fill="#fff"/></g></svg>