<svg viewBox="0 0 16 16" height="16" width="16" xmlns="http://www.w3.org/2000/svg" xml:space="preserve" style="fill-rule:evenodd;clip-rule:evenodd;stroke-linejoin:round;stroke-miterlimit:2"><circle cx="8" cy="8" r="8" style="fill:#5cb85c"/><path d="M4 20c-.55 0-1.021-.196-1.412-.587A1.927 1.927 0 0 1 2 18V6c0-.55.196-1.021.588-1.413A1.926 1.926 0 0 1 4 4h16c.55 0 1.021.196 1.413.587.391.392.587.863.587 1.413v12a1.93 1.93 0 0 1-.587 1.413A1.93 1.93 0 0 1 20 20H4Zm8-7 8-5V6l-8 5-8-5v2l8 5Z" style="fill:#e8eaed;fill-rule:nonzero" transform="matrix(.45 0 0 .45 2.6 2.6)"/></svg>