<svg xmlns="http://www.w3.org/2000/svg" viewBox="0 0 480 479.99999" height="512" width="512"><g transform="translate(0 247.99)"><circle cx="240" cy="-7.99" r="240" fill="#3088d4"/><path d="M373.96 21.857c-4.113 21.162-36.842 44.322-74.431 48.81-19.601 2.34-38.9 4.49-59.479 3.545-33.655-1.542-60.21-8.033-60.21-8.033 0 3.276.201 6.396.606 9.313 4.375 33.214 32.934 35.204 59.986 36.131 27.304.935 51.617-6.732 51.617-6.732l1.121 24.685s-19.098 10.255-53.12 12.142c-18.76 1.03-42.055-.472-69.186-7.654-58.843-15.574-68.963-78.299-70.511-141.943-.472-18.896-.182-36.714-.182-51.616 0-65.08 42.64-84.155 42.64-84.155 21.5-9.874 58.393-14.027 96.746-14.34h.943c38.353.313 75.27 4.466 96.768 14.34 0 0 42.638 19.075 42.638 84.155 0 0 .535 48.015-5.946 81.352" fill="#fff"/><path d="M329.612-54.447v78.8h-31.22V-52.13c0-16.122-6.783-24.306-20.352-24.306-15.003 0-22.522 9.708-22.522 28.903V-5.67h-31.034v-41.864c0-19.195-7.521-28.903-22.524-28.903-13.569 0-20.352 8.184-20.352 24.306v76.484h-31.22v-78.8c0-16.105 4.101-28.903 12.338-38.371 8.494-9.468 19.617-14.322 33.425-14.322 15.976 0 28.074 6.14 36.073 18.423L240-75.682l7.778-13.035c7.997-12.283 20.095-18.423 36.073-18.423 13.806 0 24.93 4.854 33.425 14.322 8.235 9.468 12.336 22.266 12.336 38.371" fill="#3088d4"/></g></svg>