<svg xmlns="http://www.w3.org/2000/svg" width="20" height="20"><path fill="inherit" d="M17.194 5.542c-.235-1.719-1.757-3.074-3.562-3.336C13.328 2.16 12.174 2 9.502 2h-.02c-2.673 0-3.246.161-3.55.206-1.755.255-3.357 1.472-3.746 3.212-.187.857-.207 1.806-.172 2.677.05 1.25.06 2.497.174 3.741.08.827.22 1.647.416 2.454.37 1.49 1.866 2.731 3.331 3.237a9.07 9.07 0 0 0 4.873.253c.178-.04.354-.087.528-.141.392-.123.853-.26 1.191-.502a.038.038 0 0 0 .016-.03v-1.205a.035.035 0 0 0-.014-.027.035.035 0 0 0-.015-.007.038.038 0 0 0-.016 0 13.713 13.713 0 0 1-3.162.364c-1.833 0-2.326-.856-2.467-1.213a3.707 3.707 0 0 1-.214-.955.035.035 0 0 1 .028-.036.037.037 0 0 1 .016 0c1.019.242 2.063.364 3.11.364.253 0 .504 0 .756-.007 1.054-.029 2.164-.082 3.201-.281.026-.005.052-.01.074-.016 1.636-.31 3.192-1.28 3.35-3.736.006-.097.02-1.013.02-1.113.001-.341.112-2.42-.016-3.697zm-2.517 6.13h-1.72V7.527c0-.873-.369-1.318-1.12-1.318-.826 0-1.24.527-1.24 1.567v2.268h-1.71V7.776c0-1.04-.414-1.567-1.24-1.567-.747 0-1.12.445-1.121 1.318v4.145H4.807V7.4c0-.873.227-1.566.68-2.08.467-.513 1.08-.776 1.84-.776.88 0 1.545.333 1.988.999l.428.707.429-.707c.443-.666 1.108-.999 1.987-.999.76 0 1.372.263 1.84.776.454.514.68 1.207.68 2.08z" style="stroke-width:.206161"/></svg>