<svg xmlns="http://www.w3.org/2000/svg" width="16" height="16"><circle cx="8" cy="8" r="8" fill="#2b90d2"/><path fill="#fff" d="M13.183 9.282c-.157.806-1.403 1.687-2.834 1.858-.746.09-1.48.171-2.264.135a13.304 13.304 0 0 1-2.292-.306c0 .125.007.244.023.355.166 1.264 1.254 1.34 2.283 1.375 1.04.036 1.966-.256 1.966-.256l.042.94s-.727.39-2.022.462a8.46 8.46 0 0 1-2.634-.291c-2.24-.593-2.626-2.981-2.684-5.404-.018-.72-.007-1.398-.007-1.965 0-2.478 1.623-3.204 1.623-3.204.819-.376 2.223-.534 3.683-.546h.036c1.46.012 2.866.17 3.684.546 0 0 1.623.726 1.623 3.204 0 0 .02 1.828-.226 3.097"/><path fill="#2b90d9" d="M11.494 6.377v3h-1.188V6.465c0-.614-.259-.925-.775-.925-.571 0-.858.37-.858 1.1v1.594H7.492V6.64c0-.73-.287-1.1-.858-1.1-.516 0-.775.311-.775.925v2.912H4.671v-3c0-.613.156-1.1.47-1.46.323-.361.746-.546 1.272-.546.608 0 1.069.234 1.373.701l.296.497.297-.497c.304-.467.765-.701 1.373-.701.525 0 .949.185 1.272.545.314.36.47.848.47 1.461"/></svg>
