<?xml version="1.0" encoding="UTF-8" standalone="no"?>
<svg xmlns="http://www.w3.org/2000/svg" version="1.1" xml:space="preserve" enable-background="new 0 0 32 32" xmlns:xlink="http://www.w3.org/1999/xlink" viewBox="0 0 32 32"><path d="m16 0c-8.837 0-16 7.163-16 16 0 8.836 7.163 16 16 16s16-7.164 16-16c0-8.837-7.163-16-16-16z" fill="#F8991D"/><path d="m21.705 22.647h2.942c0-8.434-6.861-15.3-15.294-15.3v2.934c6.81 0 12.352 5.548 12.352 12.366zm-10.315 0.005c1.128 0 2.039-0.906 2.039-2.029 0-1.117-0.911-2.033-2.039-2.033-1.123 0-2.036 0.916-2.036 2.033-0.001 1.123 0.912 2.029 2.036 2.029zm5.116-0.004h2.945c0-5.57-4.531-10.101-10.099-10.101v2.933c1.91 0 3.705 0.746 5.057 2.1 1.352 1.349 2.097 3.152 2.097 5.068z" fill="#fff"/><defs><path id="a" d="m50.696-47.198c-8.837 0-16 7.163-16 16 0 8.836 7.163 16 16 16s16-7.164 16-16c0-8.836-7.163-16-16-16z"/></defs><clipPath><use overflow="visible" xlink:href="#a"/></clipPath></svg>
