<svg viewBox="0 0 16 16" height="16" width="16" xmlns="http://www.w3.org/2000/svg" xml:space="preserve" style="fill-rule:evenodd;clip-rule:evenodd;stroke-linejoin:round;stroke-miterlimit:2"><circle cx="8" cy="8" r="8" style="fill:#f8991d"/><path d="M5 21c-.55 0-1.021-.196-1.412-.587A1.927 1.927 0 0 1 3 19c0-.55.196-1.021.588-1.412A1.923 1.923 0 0 1 5 17c.55 0 1.021.196 1.413.588.391.391.587.862.587 1.412a1.93 1.93 0 0 1-.587 1.413A1.93 1.93 0 0 1 5 21Zm12 0c0-1.95-.367-3.771-1.1-5.462a14.185 14.185 0 0 0-3-4.438 14.192 14.192 0 0 0-4.437-3C6.771 7.367 4.95 7 3 7V4c2.367 0 4.575.442 6.625 1.325a17.164 17.164 0 0 1 9.05 9.05C19.558 16.425 20 18.633 20 21h-3Zm-6 0c0-1.117-.208-2.154-.625-3.112A8.155 8.155 0 0 0 8.65 15.35a8.162 8.162 0 0 0-2.537-1.725A7.719 7.719 0 0 0 3 13v-3c1.533 0 2.963.288 4.288.862a11.165 11.165 0 0 1 5.85 5.851C13.713 18.038 14 19.467 14 21h-3Z" style="fill:#fff;fill-rule:nonzero" transform="matrix(.47059 0 0 .47059 3.088 1.618)"/></svg>