<svg xmlns="http://www.w3.org/2000/svg" width="16" height="16"><circle cx="8" cy="8" r="8" fill="#1ebef0"/><path fill="#fff" d="M9.784 4c-1.095 0-1.982.89-1.982 1.982 0 .167.026.336.06.474h-.153c-1.361-.077-2.577-.56-3.445-1.512a4.77 4.77 0 0 1-.518-.654c-.294.509-.325 1.1-.19 1.648.123.41.34.776.64 1.05l.15.136-.19-.04a6.52 6.52 0 0 1-.722-.246c.027.49.218.94.517 1.294.286.34.667.6 1.103.722a6.8 6.8 0 0 1-.926.014 2.247 2.247 0 0 0 1.893 1.39c-.79.585-1.77.912-2.82.912a5.58 5.58 0 0 0 2.628.83h.627a5.655 5.655 0 0 0 5.34-5.652v-.286c.11-.095.218-.19.327-.3.259-.232.49-.504.68-.79a1.964 1.964 0 0 1-1.09.313H11.7a2.08 2.08 0 0 0 .8-1.035c-.41.212-.802.343-1.23.425-.46-.4-.83-.675-1.486-.675z"/></svg>
