<svg xmlns="http://www.w3.org/2000/svg" height="512" viewBox="0 0 512 512" width="512"><g clip-rule="evenodd" fill-rule="evenodd"><path d="M256.23 512C396.81 512 512 396.81 512 256.23 512 115.18 396.81 0 256.23 0 115.18 0 0 115.18 0 256.23 0 396.81 115.18 512 256.23 512z" fill="#1EBEF0"/><path d="M276.64 137.41c-9.077 6.35-15.873 15.42-20.865 25.396l-2.265 5.898c-1.36 4.077-2.273 8.163-2.726 12.24-.453 2.266-.453 4.086-.906 5.9v3.624l.453 5.898.907 7.71h-4.985c-22.224-.453-43.987-5.445-63.04-14.06l-11.334-5.438c-2.265-.914-4.078-2.273-6.35-3.632-12.695-7.257-24.03-16.78-34.013-27.208-6.343-6.804-12.24-14.06-17.232-21.77-5.438 10.436-8.616 22.676-8.616 35.378 0 4.53.453 9.07 1.36 13.6 0 2.265.452 4.085.913 5.898 4.078 13.6 11.334 25.85 21.31 34.918l4.992 4.54-6.35-1.368c-8.164-2.266-16.327-4.984-24.037-8.164.906 16.327 7.257 31.293 17.232 43.09 9.522 11.326 22.224 19.95 36.73 24.027l-16.78.906-14.053-.453c10.43 25.403 34.465 43.995 63.033 46.26-26.302 19.5-58.955 30.39-93.873 30.39 25.85 15.872 55.33 25.84 87.52 27.652h20.866c99.31-5.438 177.77-87.522 177.77-188.2v-9.522c3.625-3.17 7.25-6.343 10.89-9.975 8.608-7.71 16.326-16.78 22.67-26.302-10.437 6.804-22.67 10.43-36.277 10.43h-.906.453c12.232-8.164 21.763-20.405 26.747-34.466-9.515 4.992-20.404 8.616-31.294 11.796l-1.36.453-8.154 1.812c-11.796-12.702-28.576-20.865-47.168-20.865h-1.358a82.91 82.91 0 0 0-14.968 1.367c-7.25 1.812-14.514 4.984-20.404 8.616l-4.54 3.58z" fill="#fff"/></g></svg>