<?xml version="1.0" encoding="UTF-8" standalone="no"?>
<!DOCTYPE svg  PUBLIC '-//W3C//DTD SVG 1.1//EN'  'http://www.w3.org/Graphics/SVG/1.1/DTD/svg11.dtd'>
<svg xmlns="http://www.w3.org/2000/svg" xml:space="preserve" height="512px" viewBox="0 0 512 512" width="512px" version="1.1" enable-background="new 0 0 512 512"><g clip-rule="evenodd" fill-rule="evenodd"><path d="m256.23 512c140.58 0 255.77-115.19 255.77-255.77 0-141.05-115.19-256.23-255.77-256.23-141.05 0-256.23 115.18-256.23 256.23 0 140.58 115.18 255.77 256.23 255.77z" fill="#1EBEF0"/><path d="m276.64 137.41c-9.077 6.351-15.873 15.42-20.865 25.396l-2.265 5.898c-1.359 4.077-2.273 8.163-2.726 12.241-0.453 2.265-0.453 4.085-0.906 5.898v3.625l0.453 5.898 0.906 7.71h-4.985c-22.224-0.453-43.987-5.445-63.04-14.061l-11.334-5.437c-2.265-0.914-4.078-2.273-6.351-3.632-12.694-7.257-24.028-16.78-34.012-27.208-6.343-6.804-12.241-14.061-17.232-21.771-5.438 10.437-8.616 22.677-8.616 35.379 0 4.531 0.453 9.069 1.359 13.6 0 2.265 0.453 4.085 0.914 5.898 4.078 13.6 11.334 25.849 21.31 34.918l4.992 4.539-6.351-1.367c-8.163-2.266-16.326-4.984-24.036-8.164 0.906 16.327 7.257 31.293 17.232 43.089 9.522 11.327 22.224 19.951 36.73 24.028l-16.779 0.906-14.054-0.453c10.429 25.403 34.465 43.995 63.033 46.261-26.302 19.498-58.955 30.388-93.873 30.388 25.849 15.873 55.33 25.841 87.521 27.653h20.865c99.31-5.438 177.77-87.522 177.77-188.2v-9.522c3.625-3.171 7.25-6.343 10.89-9.975 8.608-7.71 16.326-16.78 22.67-26.302-10.437 6.804-22.67 10.429-36.277 10.429h-0.906 0.453c12.232-8.163 21.763-20.404 26.747-34.465-9.515 4.992-20.404 8.616-31.294 11.796l-1.359 0.453-8.155 1.812c-11.795-12.702-28.575-20.865-47.167-20.865h-1.358c-4.984 0-9.983 0.453-14.968 1.367-7.249 1.812-14.514 4.984-20.404 8.616l-4.54 3.58z" fill="#fff"/></g></svg>
