<svg xmlns="http://www.w3.org/2000/svg" height="16" viewBox="0 0 16 16" width="16" version="1.1"><circle cy="8" cx="8" r="8" fill="#1ebef0"/><path d="m9.784 4c-1.0945 0-1.982 0.89-1.982 1.982 0 0.167 0.026 0.336 0.06 0.474h-0.153c-1.361-0.077-2.577-0.56-3.445-1.512-0.19-0.204-0.368-0.422-0.518-0.654-0.294 0.509-0.325 1.1-0.19 1.648 0.123 0.41 0.34 0.776 0.64 1.05l0.15 0.1364-0.19-0.041c-0.245-0.068-0.49-0.15-0.722-0.245 0.027 0.49 0.218 0.94 0.517 1.294 0.286 0.34 0.667 0.6 1.103 0.722-0.31 0.032-0.6165 0.0236-0.926 0.0135 0.3132 0.763 1.035 1.322 1.8927 1.3897-0.79 0.585-1.77 0.912-2.82 0.912 0.7762 0.477 1.661 0.777 2.628 0.831h0.627c2.982-0.163 5.338-2.63 5.34-5.6526v-0.286c0.11-0.095 0.218-0.19 0.327-0.3 0.259-0.2316 0.49-0.504 0.681-0.79-0.313 0.204-0.681 0.3133-1.09 0.313h-0.014c0.366-0.2453 0.653-0.613 0.8-1.035-0.41 0.212-0.802 0.3433-1.23 0.425-0.46-0.4-0.83-0.675-1.486-0.675z" fill="#fff"/></svg>
