<?xml version="1.0" encoding="UTF-8" standalone="no"?>
<!-- Created with Inkscape (http://www.inkscape.org/) -->

<svg
   xmlns:dc="http://purl.org/dc/elements/1.1/"
   xmlns:cc="http://creativecommons.org/ns#"
   xmlns:rdf="http://www.w3.org/1999/02/22-rdf-syntax-ns#"
   xmlns:svg="http://www.w3.org/2000/svg"
   xmlns="http://www.w3.org/2000/svg"
   xmlns:xlink="http://www.w3.org/1999/xlink"
   xmlns:inkscape="http://www.inkscape.org/namespaces/inkscape"
   version="1.1"
   width="48"
   height="48"
   id="svg3759">
  <metadata
     id="metadata37">
    <rdf:RDF>
      <cc:Work
         rdf:about="">
        <dc:format>image/svg+xml</dc:format>
        <dc:type
           rdf:resource="http://purl.org/dc/dcmitype/StillImage" />
      </cc:Work>
    </rdf:RDF>
  </metadata>
  <defs
     id="defs3761">
    <radialGradient
       cx="17.81411"
       cy="24.149399"
       r="9.125"
       fx="17.81411"
       fy="24.149399"
       id="radialGradient2418"
       xlink:href="#linearGradient4845"
       gradientUnits="userSpaceOnUse"
       gradientTransform="matrix(-2.643979,0,2.93653e-8,2.534421,78.72514,-37.986139)" />
    <linearGradient
       id="linearGradient4845">
      <stop
         id="stop4847"
         style="stop-color:#ffffff;stop-opacity:1"
         offset="0" />
      <stop
         id="stop4849"
         style="stop-color:#b6b6b6;stop-opacity:1"
         offset="1" />
    </linearGradient>
    <linearGradient
       x1="62.200409"
       y1="-12.489107"
       x2="62.200409"
       y2="-1.4615115"
       id="linearGradient3697"
       xlink:href="#linearGradient4873"
       gradientUnits="userSpaceOnUse"
       gradientTransform="matrix(2.1153734,0,0,2.1153252,-107.57708,31.426557)" />
    <linearGradient
       id="linearGradient4873">
      <stop
         id="stop4875"
         style="stop-color:#ffffff;stop-opacity:1"
         offset="0" />
      <stop
         id="stop4877"
         style="stop-color:#ffffff;stop-opacity:0"
         offset="1" />
    </linearGradient>
    <radialGradient
       cx="61.240059"
       cy="-8.7256308"
       r="9.7552834"
       fx="61.240059"
       fy="-8.7256308"
       id="radialGradient3705"
       xlink:href="#linearGradient2867-449-88-871-390-598-476-591-434-148"
       gradientUnits="userSpaceOnUse"
       gradientTransform="matrix(0,3.5234091,-3.5234073,0,-6.7439676,-205.79862)" />
    <linearGradient
       id="linearGradient2867-449-88-871-390-598-476-591-434-148">
      <stop
         id="stop4627"
         style="stop-color:#51cfee;stop-opacity:1"
         offset="0" />
      <stop
         id="stop4629"
         style="stop-color:#49a3d2;stop-opacity:1"
         offset="0.26238" />
      <stop
         id="stop4631"
         style="stop-color:#3470b4;stop-opacity:1"
         offset="0.704952" />
      <stop
         id="stop4633"
         style="stop-color:#273567;stop-opacity:1"
         offset="1" />
    </linearGradient>
    <linearGradient
       x1="20"
       y1="43"
       x2="20"
       y2="2.6887112"
       id="linearGradient3713"
       xlink:href="#linearGradient3707-319-631"
       gradientUnits="userSpaceOnUse"
       gradientTransform="matrix(0.98001402,0,0,0.97999168,0.08994011,0.8703621)" />
    <linearGradient
       id="linearGradient3707-319-631">
      <stop
         id="stop4637"
         style="stop-color:#254b6d;stop-opacity:1"
         offset="0" />
      <stop
         id="stop4639"
         style="stop-color:#415b73;stop-opacity:1"
         offset="0.5" />
      <stop
         id="stop4641"
         style="stop-color:#6195b5;stop-opacity:1"
         offset="1" />
    </linearGradient>
    <linearGradient
       id="linearGradient8838">
      <stop
         id="stop8840"
         style="stop-color:#000000;stop-opacity:1"
         offset="0" />
      <stop
         id="stop8842"
         style="stop-color:#000000;stop-opacity:0"
         offset="1" />
    </linearGradient>
    <radialGradient
       cx="62.625"
       cy="4.625"
       r="10.625"
       fx="62.625"
       fy="4.625"
       id="radialGradient3757"
       xlink:href="#linearGradient8838"
       gradientUnits="userSpaceOnUse"
       gradientTransform="matrix(1,0,0,0.341176,0,3.047059)" />
  </defs>
  <g
     id="layer1">
    <path
       d="m 73.25,4.625 a 10.625,3.625 0 1 1 -21.25,0 10.625,3.625 0 1 1 21.25,0 z"
       inkscape:connector-curvature="0"
       transform="matrix(2.1647059,0,0,2.5636643,-111.56471,26.849769)"
       id="path8836"
       style="opacity:0.4;fill:url(#radialGradient3757);fill-opacity:1;fill-rule:evenodd;stroke:none;stroke-width:0.99999988;marker:none;visibility:visible;display:inline;overflow:visible" />
    <path
       d="M 43.500003,23.999309 C 43.500003,34.769208 34.768912,43.5 24.000248,43.5 13.230599,43.5 4.5000032,34.769109 4.5000032,23.999309 4.5000032,13.229904 13.230599,4.5 24.000248,4.5 c 10.768664,0 19.499755,8.729904 19.499755,19.499309 l 0,0 z"
       inkscape:connector-curvature="0"
       id="path6495"
       style="fill:url(#radialGradient3705);fill-opacity:1;fill-rule:nonzero;stroke:url(#linearGradient3713);stroke-width:1;stroke-miterlimit:4;stroke-dasharray:none" />
    <path
       d="m 24.329633,5.218182 -2.362344,0.2704567 -2.59858,0.7099494 c 0.221353,-0.077615 0.445595,-0.1623374 0.674956,-0.2366499 L 19.739934,5.4210246 18.727501,5.5900601 18.221284,6.0633596 17.445085,6.1647809 16.736382,6.502852 16.398905,6.6718876 16.29766,6.807116 15.791444,6.9085373 15.487716,7.5508723 15.08274,6.7395017 l -0.134989,0.3380711 0.0675,0.9127919 -0.641208,0.5409137 -0.371225,0.9804061 0.7762,0 0.303728,-0.642335 0.101245,-0.2366498 c 0.341288,-0.241775 0.66483,-0.5110331 1.012433,-0.7437563 l 0.809946,0.2704568 c 0.527335,0.3588995 1.058376,0.7234732 1.586147,1.0818274 L 19.368709,8.5312784 18.491266,8.1594002 18.086294,7.3480297 16.601391,7.1789941 16.567641,7.0099586 17.208847,7.145187 17.580075,6.7733087 18.390021,6.6042734 C 18.581694,6.5108897 18.770243,6.44363 18.963732,6.3676236 l -0.506216,0.4732995 1.82238,1.250863 0,0.7437562 -0.708703,0.7099493 0.944937,1.8931994 0.641208,-0.371881 0.809948,-1.2508614 c 1.138725,-0.3526792 2.165016,-0.7630693 3.239789,-1.2508632 l -0.0675,0.4732995 0.539963,0.3718782 0.944939,-0.6423349 -0.47247,-0.5409137 -0.641209,0.3718781 -0.202486,-0.067613 c 0.04651,-0.02129 0.08828,-0.045973 0.13499,-0.067613 L 26.388247,6.0295525 24.329633,5.218182 z m -9.246893,3.6511675 0.776199,0.5409136 0.641209,0 0,-0.6423349 L 15.72395,8.429857 15.08274,8.8693495 z M 33.002811,8.429857 31.619153,8.7679282 30.741712,9.342649 l 0,0.5071058 -1.383659,0.8789842 0.269983,1.31848 0.809946,-0.574723 0.506216,0.574723 0.573714,0.338071 0.371224,-0.980408 -0.202486,-0.57472 0.202486,-0.405687 0.809948,-0.7437548 0.371225,0 -0.371225,0.8113728 0,0.743754 c 0.333836,-0.09103 0.6708,-0.126483 1.012433,-0.169037 l -0.944938,0.676145 -0.0675,0.405683 -1.079929,0.912794 -1.113678,-0.270459 0,-0.642335 -0.506216,0.338072 0.236235,0.574722 -0.809947,0 -0.438721,0.743756 -0.539965,0.608528 -0.978685,0.202842 0.573712,0.574721 0.134991,0.57472 -0.708703,0 -0.944938,0.507108 0,1.48751 0.438721,0 0.404973,0.439494 0.91119,-0.439494 0.337478,-0.912791 0.674956,-0.405685 0.134991,-0.338071 1.079928,-0.270457 0.60746,0.676142 0.641209,0.338071 -0.371227,0.743758 0.573715,-0.169037 0.303728,-0.743757 -0.74245,-0.845177 0.303729,0 0.742451,0.608528 0.134992,0.811371 0.641207,0.743757 0.168739,-1.081827 0.337478,-0.169037 c 0.359225,0.373574 0.642383,0.83043 0.944938,1.250864 l 1.113677,0.06762 0.641207,0.405686 -0.303729,0.439492 -0.641208,0.574721 -0.944939,0 -1.248667,-0.405684 -0.641208,0.06762 -0.472469,0.540915 -1.349912,-1.352286 -0.944937,-0.270456 -1.383659,0.169036 -1.21492,0.33807 c -0.693063,0.7871 -1.402636,1.582869 -2.058616,2.400307 l -0.776198,1.893195 0.371226,0.405687 -0.674956,0.980406 0.742451,1.724162 c 0.617799,0.700089 1.239228,1.395452 1.856128,2.09604 l 0.91119,-0.777564 0.371226,0.473301 0.978687,-0.642335 0.337477,0.371878 0.978685,0 0.573713,0.642335 -0.337478,1.149442 0.674955,0.777564 -0.03375,1.352283 0.506216,0.980406 -0.371225,0.845178 c -0.03619,0.60617 -0.0675,1.18551 -0.0675,1.791777 0.297757,0.821342 0.59628,1.640668 0.877443,2.467918 l 0.202487,1.318476 0,0.676143 0.539963,0 0.7762,-0.507106 0.944939,0 1.417406,-1.588934 -0.168739,-0.540915 0.944939,-0.845177 -0.708705,-0.777563 0.843694,-0.676141 0.809948,-0.507109 0.371225,-0.405685 -0.236234,-0.912791 c 0,-0.768475 2e-6,-1.530306 0,-2.298884 l 0.641209,-1.419897 0.809945,-0.878985 0.877443,-2.163655 0,-0.574721 c -0.436643,0.0551 -0.855168,0.10478 -1.282416,0.13523 l 0.877442,-0.878986 1.21492,-0.81137 0.641209,-0.743758 0,-0.811369 C 41.631793,22.01604 41.484928,21.720356 41.338501,21.44561 l -0.573712,0.676141 -0.438721,-0.507105 -0.641209,-0.507107 0,-1.048021 0.742452,0.845178 0.843696,-0.101421 c 0.380615,0.346139 0.746089,0.65392 1.079927,1.04802 l 0.539978,-0.608545 c 0,-0.655131 -0.736573,-3.889319 -2.328596,-6.626192 -1.592024,-2.735972 -4.387213,-5.240102 -4.387211,-5.240102 l -0.202488,0.3718783 -0.742451,0.8113707 -0.944937,-0.9804063 0.944937,0 L 35.668888,9.1059992 33.914003,8.7679282 33.002811,8.429857 z M 12.720395,8.8693495 12.382918,9.7483343 c 0,0 -0.590841,0.097717 -0.74245,0.1352286 -1.9362043,1.7873441 -5.8406714,5.6641681 -6.7495557,12.9481221 0.035987,0.168879 0.6412078,1.14944 0.6412078,1.14944 l 1.4849023,0.878986 1.4849024,0.405684 0.6412079,0.777564 0.9786853,0.743756 0.573712,-0.101421 0.404974,0.202844 0,0.135226 -0.539965,1.521321 -0.438721,0.642336 0.134991,0.304263 -0.3374777,1.217057 1.2486677,2.298882 1.282416,1.115635 0.573711,0.81137 -0.0675,1.690355 0.404974,0.946598 -0.404974,1.825586 c 0,0 -0.05404,-0.01501 0,0.169036 0.05452,0.184134 2.25593,1.422835 2.396091,1.318476 0.139681,-0.106305 0.269983,-0.202843 0.269983,-0.202843 l -0.13499,-0.405685 0.573712,-0.540913 0.202486,-0.574722 0.911191,-0.304265 0.708702,-1.757968 -0.202486,-0.4733 0.472468,-0.743756 1.07993,-0.236649 0.539965,-1.28467 -0.134992,-1.588935 0.843695,-1.183247 0.13499,-1.217056 c -1.15759,-0.575052 -2.293316,-1.165913 -3.442272,-1.75797 l -0.573713,-1.115634 -1.046181,-0.23665 -0.573712,-1.521321 -1.383659,0.169035 -1.214921,-0.878983 -1.282415,1.115634 0,0.169036 C 10.716387,26.202752 10.261353,26.186409 9.9193333,25.975746 l -0.2699819,-0.811371 0,-0.878985 -0.8774423,0.101421 c 0.070612,-0.559892 0.1651315,-1.13056 0.2362324,-1.690355 l -0.5062167,0 -0.5062167,0.642335 -0.4724689,0.23665 -0.7087034,-0.405685 -0.067496,-0.878985 0.1349912,-0.946599 1.0461812,-0.811371 0.8436945,0 0.1687389,-0.473299 1.0461817,0.236648 0.7761987,0.980407 0.134991,-1.622742 1.349911,-1.115633 0.472468,-1.183248 1.012435,-0.405685 0.539964,-0.811372 1.282416,-0.23665 0.641208,-0.946599 c -0.634667,0 -1.288957,0 -1.923624,0 l 1.214921,-0.574721 0.843693,0 1.07993,-0.371877 0.202487,1.04802 0.472469,-0.743757 -0.539966,-0.371878 0.134992,-0.439491 -0.438721,-0.405687 -0.47247,-0.135228 0.134992,-0.507106 -0.371226,-0.709948 -0.843695,0.33807 0.134992,-0.642334 -0.978686,-0.574722 -0.776198,1.352284 0.0675,0.4733 -0.776198,0.338071 -0.472469,1.04802 -0.236234,-0.980407 -1.316164,-0.540913 -0.236234,-0.743756 1.788632,-1.014213 0.776198,-0.743757 0.0675,-0.8789846 -0.438721,-0.2366498 -0.573713,-0.067613 z m 14.477799,1.6227435 0,0.54091 0.30373,0.338072 0,0.811371 -0.168739,1.081827 0.877442,-0.169036 0.641209,-0.642334 -0.573713,-0.540915 c -0.186049,-0.496308 -0.3746,-0.943871 -0.607459,-1.419895 l -0.47247,0 z m -0.742452,1.081824 -0.539963,0.169038 0.13499,0.980405 0.708703,-0.371881 -0.30373,-0.777562 z m 9.888101,8.89127 0.809946,0.946598 0.978686,2.096042 0.607459,0.67614 -0.303728,0.709952 0.539964,0.642335 c -0.247792,0.01643 -0.487764,0.03381 -0.742451,0.03381 -0.462673,-0.973935 -0.828843,-1.956133 -1.181173,-2.975025 l -0.60746,-0.676142 -0.337478,-1.217056 0.236235,-0.23665 z"
       inkscape:connector-curvature="0"
       id="path6534"
       style="opacity:0.4;fill:#000000;fill-opacity:1;fill-rule:nonzero;stroke:none" />
    <path
       d="m 42.500001,23.999343 c 0,10.217597 -8.283342,18.500655 -18.499766,18.500655 -10.217359,0 -18.5002317,-8.283152 -18.5002317,-18.500655 0,-10.217125 8.2828727,-18.4993427 18.5002317,-18.4993427 10.216424,0 18.499766,8.2822177 18.499766,18.4993427 l 0,0 z"
       inkscape:connector-curvature="0"
       id="path8655"
       style="opacity:0.4;fill:none;stroke:url(#linearGradient3697);stroke-width:1.0000006;stroke-miterlimit:4;stroke-opacity:1;stroke-dasharray:none" />
    <g
       transform="matrix(0.9999061,-0.01370139,0.01370139,0.9999061,-0.2886966,0.5358538)"
       id="g2414">
      <path
         d="m 30.5,20.93716 17,16.500001 -7.75,0.25 c 0,0 3.25,6.75 3.25,6.75 1,3 -3.5,4.125 -4.25,1.875 0,0 -3,-6.75 -3,-6.75 l -5.5,5.875 0.25,-24.500001 z"
         inkscape:connector-curvature="0"
         id="path3970"
         style="fill:url(#radialGradient2418);fill-opacity:1;fill-rule:evenodd;stroke:#666666;stroke-width:1;stroke-linecap:butt;stroke-linejoin:round;stroke-miterlimit:4;stroke-opacity:1;stroke-dasharray:none;stroke-dashoffset:0;marker:none;visibility:visible;display:inline;overflow:visible" />
      <path
         d="m 31.657235,23.378571 13.475546,13.185793 -6.921861,0.277459 c 0,0 3.872136,7.756567 3.872136,7.756567 0.402731,1.650134 -2.028275,2.412565 -2.5071,1.152867 0,0 -3.683065,-7.844955 -3.683065,-7.844955 l -4.424727,4.708334 0.189071,-19.236065 z"
         inkscape:connector-curvature="0"
         id="path4853"
         style="opacity:0.4;fill:none;stroke:#ffffff;stroke-width:1;stroke-linecap:butt;stroke-linejoin:miter;stroke-miterlimit:4;stroke-opacity:1;stroke-dasharray:none;stroke-dashoffset:0;marker:none;visibility:visible;display:inline;overflow:visible" />
    </g>
  </g>
</svg>
