<?xml version="1.0" ?><svg xmlns="http://www.w3.org/2000/svg" xmlns:xlink="http://www.w3.org/1999/xlink" xml:space="preserve"   viewBox="0 0 16 16" enable-background="new 0 0 32 32"><defs id="defs17" /><g transform="matrix(0.50002129,0,0,0.50002129,0.0039363,-1.8128883e-4)" id="Flat_copy"><g id="g10"><path id="path2" d="m 4.993,8.985 c -1.105,0 -2.001,0.897 -2.001,2.001 v 8.005 c 0,1.105 0.897,2.001 2.001,2.001 1.104,0 2.001,-0.897 2.001,-2.001 V 10.986 C 6.994,9.88 6.097,8.985 4.993,8.985 Z" /><path id="path4" d="m 27.007,8.985 c -1.105,0 -2.001,0.897 -2.001,2.001 v 8.005 c 0,1.105 0.897,2.001 2.001,2.001 1.105,0 2.001,-0.897 2.001,-2.001 V 10.986 C 29.009,9.88 28.112,8.985 27.007,8.985 Z" /><path id="path6" d="m 7.995,24.995 h 2.001 v 5.003 c 0,1.105 0.897,2.001 2.001,2.001 1.104,0 2.001,-0.897 2.001,-2.001 v -5.003 h 4.003 v 5.003 c 0,1.105 0.897,2.001 2.001,2.001 1.104,0 2.001,-0.897 2.001,-2.001 v -5.003 h 2.001 V 9.985 H 7.995 Z" /><path id="path8" d="m 20.726,2.532 1.028,-1.78 C 21.893,0.512 21.811,0.207 21.57,0.068 21.332,-0.071 21.025,0.011 20.887,0.252 L 19.885,1.987 C 18.734,1.347 17.411,0.979 16,0.979 c -1.41,0 -2.733,0.367 -3.885,1.009 L 11.112,0.251 C 10.973,0.012 10.669,-0.07 10.428,0.068 10.19,0.206 10.108,0.511 10.245,0.751 l 1.029,1.781 C 9.29,3.989 7.995,6.333 7.995,8.985 H 24.006 C 24.005,6.333 22.71,3.989 20.726,2.532 Z m -7.728,3.451 c -0.553,0 -1.001,-0.447 -1.001,-1.001 0,-0.554 0.447,-1.001 1.001,-1.001 0.553,0 1.001,0.447 1.001,1.001 0,0.554 -0.448,1.001 -1.001,1.001 z m 6.004,0 c -0.553,0 -1.001,-0.447 -1.001,-1.001 0,-0.554 0.447,-1.001 1.001,-1.001 0.553,0 1.001,0.447 1.001,1.001 0,0.554 -0.448,1.001 -1.001,1.001 z" /></g></g></svg>