<?xml version="1.0" ?><svg xmlns="http://www.w3.org/2000/svg" xmlns:xlink="http://www.w3.org/1999/xlink" xml:space="preserve" viewBox="0 0 16 16" enable-background="new 0 0 32 32"><defs id="defs13" /><g transform="matrix(0.5,0,0,0.5,-0.048,0)" id="Flat_copy"><g id="g6"><path id="path2" d="M 29.458,22.818 V 22.6 c -2.624,-1.399 -4.049,-3.454 -4.049,-6.427 0,-2.404 1.068,-4.504 3.025,-5.858 l 0.089,-0.044 c -1.29,-1.573 -3.025,-3.146 -5.695,-3.146 -1.868,0 -3.426,1.792 -6.006,1.792 -2.046,0 -2.892,-1.705 -5.117,-1.705 -4.627,0 -9.209,4.066 -9.209,9.355 0,2.798 0.934,7.127 3.025,10.887 1.515,2.754 3.383,4.546 5.474,4.546 1.512,0 3.292,-1.355 5.428,-1.355 1.868,0 3.605,1.225 5.294,1.225 4.05,0 7.786,-5.159 7.786,-8.611 0,-0.178 -0.045,-0.309 -0.045,-0.441 z" /><path id="path4" d="m 16.73,8.35 c 3.025,-0.918 5.829,-3.148 5.829,-7.039 0,-0.306 -0.044,-0.699 -0.089,-1.136 L 22.426,0 c -3.069,0.829 -5.828,3.19 -5.828,6.907 0,0.35 0.045,0.787 0.133,1.268 z" /></g></g></svg>