<?xml version="1.0" ?><svg xmlns="http://www.w3.org/2000/svg" xmlns:xlink="http://www.w3.org/1999/xlink" viewBox="0 0 16 16" xml:space="preserve"><defs id="defs9" /><g id="g4" transform="matrix(0.33556476,0,0,0.33556476,-1.5866054,-1.7384467)"><path d="m 23.9119,16.9729 c -1.884,2.141 -2.8612,4.6136 -3.2311,7.4099 5.6693,0 11.2781,0 16.9289,0 0,-0.4139 0.0223,-0.8342 -0.0039,-1.2515 -0.1145,-1.8259 -0.5071,-3.5784 -1.5042,-5.1423 -1.336,-2.0954 -3.3417,-3.1383 -5.7285,-3.5229 -3.4634,-0.5581 -6.8051,0.033 -10.0522,1.216 -4.7503,1.7307 -8.7392,4.5588 -11.9133,8.5069 -0.5335,0.6636 -1.0082,1.3745 -1.5934,2.178 0.0485,-0.3993 0.0764,-0.6875 0.1192,-0.9734 0.6841,-4.5728 2.3307,-8.7442 5.2947,-12.3261 3.4833,-4.2094 7.9725,-6.7032 13.3569,-7.5721 5.2449,-0.8464 10.2058,0.0045 14.8107,2.6715 4.2386,2.4549 7.1601,6.0524 8.9041,10.6113 1.0058,2.6293 1.4971,5.3621 1.5227,8.1777 0.0161,1.7735 0.0324,3.547 0.0482,5.3204 0.0016,0.1771 2e-4,0.3543 2e-4,0.5999 -10.0212,0 -19.9979,0 -30.0079,0 0.0115,2.4612 0.7278,4.5816 2.3803,6.3431 1.9199,2.0465 4.3838,3.0406 7.0832,3.4341 5.6665,0.826 11.0037,-0.2087 15.9823,-3.0528 0.1275,-0.0728 0.2545,-0.1465 0.3826,-0.2183 0.0126,-0.0071 0.0314,-0.0032 0.1075,-0.0089 0.0105,0.1715 0.0301,0.3432 0.0301,0.5149 0.0013,3.0229 -0.0058,6.0459 0.0078,9.0687 0.0016,0.3467 -0.1105,0.5268 -0.417,0.6796 -3.5699,1.7792 -7.3483,2.7951 -11.3187,3.1029 C 32.5716,52.9356 30.0496,52.937 27.545,52.4292 20.0096,50.9015 13.9992,45.3841 12.62,37.6232 11.0462,28.767 15.2613,20.5901 23.7293,16.9739 c 0.0266,-0.0109 0.062,-0.001 0.1826,-0.001 z" id="path2" /></g></svg>