<?xml version="1.0" ?><svg xmlns="http://www.w3.org/2000/svg" xmlns:xlink="http://www.w3.org/1999/xlink" xml:space="preserve" viewBox="0 0 16 16" enable-background="new 0 0 57 82"><defs id="defs7" /><path style="fill:#231f20;stroke-width:0.19512194" id="path2" d="M 12.741463,0 H 3.1804878 C 2.7494634,0 2.4,0.349463 2.4,0.780488 V 15.219512 C 2.4,15.650537 2.7494634,16 3.1804878,16 h 9.5609752 c 0.431025,0 0.780488,-0.349463 0.780488,-0.780488 V 0.780488 C 13.521951,0.349463 13.172488,0 12.741463,0 Z M 7.8634146,15.414634 c -0.4310244,0 -0.7804878,-0.349463 -0.7804878,-0.780488 0,-0.431024 0.3494634,-0.780487 0.7804878,-0.780487 0.4310244,0 0.7804878,0.349463 0.7804878,0.780487 0,0.431025 -0.3494634,0.780488 -0.7804878,0.780488 z M 12.35122,13.658537 H 3.5707317 V 2.146341 h 8.7804873 z" /></svg>