<?xml version="1.0" ?><svg xmlns="http://www.w3.org/2000/svg" xmlns:xlink="http://www.w3.org/1999/xlink" xml:space="preserve" viewBox="0 0 16 16"><defs id="defs7" /><path style="stroke-width:0.5714286" id="path2" d="M 11.5,0 H 4.6429 C 4.0114,0 3.5,0.511429 3.5,1.142857 V 14.857143 C 3.5,15.488571 4.0114,16 4.6429,16 H 11.5 c 0.6314,0 1.1429,-0.511429 1.1429,-1.142857 V 1.142857 C 12.6429,0.511429 12.1314,0 11.5,0 Z M 8.0714,14.857143 c -0.3154,0 -0.5714,-0.256 -0.5714,-0.571429 0,-0.315428 0.256,-0.571428 0.5714,-0.571428 0.3155,0 0.5715,0.256 0.5715,0.571428 0,0.315429 -0.256,0.571429 -0.5715,0.571429 z M 11.5,13.142857 H 4.6429 V 1.714286 H 11.5 Z" /></svg>