<svg viewBox="0 0 16 16" height="16" width="16" xmlns="http://www.w3.org/2000/svg" xml:space="preserve" style="fill-rule:evenodd;clip-rule:evenodd;stroke-linejoin:round;stroke-miterlimit:2"><path d="M7 23c-.55 0-1.021-.196-1.412-.587A1.927 1.927 0 0 1 5 21V3c0-.55.196-1.021.588-1.413A1.926 1.926 0 0 1 7 1h10c.55 0 1.021.196 1.413.587.391.392.587.863.587 1.413v18a1.93 1.93 0 0 1-.587 1.413A1.93 1.93 0 0 1 17 23H7Zm0-5h10V6H7v12Z" style="fill-rule:nonzero" transform="matrix(.72727 0 0 .72727 -.736 -.727)"/></svg>