<svg viewBox="0 0 16 16" height="16" width="16" xmlns="http://www.w3.org/2000/svg" xml:space="preserve" style="fill-rule:evenodd;clip-rule:evenodd;stroke-linejoin:round;stroke-miterlimit:2"><path d="M3 20c-.55 0-1.021-.196-1.412-.587A1.927 1.927 0 0 1 1 18V6c0-.55.196-1.021.588-1.413A1.926 1.926 0 0 1 3 4h18c.55 0 1.021.196 1.413.587.391.392.587.863.587 1.413v12a1.93 1.93 0 0 1-.587 1.413A1.93 1.93 0 0 1 21 20H3Zm3-2h12V6H6v12Z" style="fill-rule:nonzero" transform="matrix(-.00047 .72727 -.72727 -.00047 16.738 -.716)"/></svg>