<?xml version="1.0" encoding="utf-8"?><svg version="1.1" id="Layer_1" xmlns="http://www.w3.org/2000/svg" xmlns:xlink="http://www.w3.org/1999/xlink" x="0px" y="0px" viewBox="0 0 78.99 122.88" style="enable-background:new 0 0 78.99 122.88" xml:space="preserve"><g><path d="M28,58.2c-0.04-0.13-0.09-0.3-0.11-0.45c-0.24-2.05-0.47-4.31-0.67-6.26c-0.28-2.86-0.6-6.16-0.82-8.48 c-0.15-1.57-0.65-3.06-1.38-4.18c-0.49-0.71-1.03-1.25-1.64-1.51c-0.49-0.19-1.08-0.22-1.7,0.02c-0.84,0.32-1.79,1.01-2.84,2.2 c-0.93,1.06-1.66,2.48-2.26,3.98c-0.86,2.2-1.36,4.54-1.57,6.14c-0.02,0.11-0.02,0.19-0.06,0.28L9.12,83.02 c-0.09,0.43-0.26,0.82-0.52,1.12c-1.96,2.52-3.19,4.69-3.55,6.44c-0.26,1.29,0,2.33,0.86,3.14l21.44,21.44 c1.36,1.31,2.95,2.13,4.84,2.48c2.07,0.39,4.48,0.17,7.26-0.58c0.04,0,0.11-0.02,0.15-0.02c1.05-0.28,2.43-0.62,3.75-0.95 c5.75-1.4,10.76-2.63,15.41-6.85l5.98-6.24c0.06-0.11,0.15-0.19,0.24-0.28c0.09-0.09,0.67-0.67,1.46-1.42 c4.09-4,9.15-8.93,6.07-13.26l-2.39-2.39c-1.16,1.12-2.39,2.22-3.57,3.27c-1.08,0.95-2.09,1.83-3.01,2.76 c-0.99,0.99-2.58,0.99-3.57,0c-0.99-0.99-0.99-2.58,0-3.57c0.93-0.93,2.07-1.94,3.25-2.99c4.05-3.57,8.7-7.66,6.2-11.24l-2.37-2.37 c-0.13-0.13-0.24-0.28-0.34-0.43c-1.36,1.4-2.86,2.73-4.33,4.03c-1.08,0.95-2.09,1.83-3.01,2.76c-0.99,0.99-2.58,0.99-3.57,0 c-0.99-0.99-0.99-2.58,0-3.57c0.93-0.93,2.07-1.94,3.25-2.99c4.05-3.57,8.7-7.66,6.2-11.24l-2.37-2.37 c-0.17-0.17-0.3-0.34-0.41-0.54l-6.95,6.95c-0.99,0.99-2.58,0.99-3.57,0c-0.99-0.99-0.99-2.58,0-3.57L70.6,41.86 c3.12-3.12,3.83-6.37,3.01-8.83c-0.3-0.9-0.8-1.7-1.42-2.32c-0.62-0.62-1.42-1.12-2.32-1.42c-2.43-0.8-5.66-0.06-8.87,3.14 l-32.7,32.7c-0.99,0.99-2.58,0.99-3.57,0c-0.99-0.99-0.99-2.58,0-3.57l3.32-3.32L28,58.2L28,58.2z M40.73,0l1.84,19.94l-5.61,0.51 L35.13,0.51L40.73,0L40.73,0z M66.95,8.97L53.97,24.59l-4.33-3.6L62.62,5.37L66.95,8.97L66.95,8.97z M16,11.84l15.43,12.82 l-3.6,4.33L12.4,16.17L16,11.84L16,11.84z M65.93,53.68c0.19,0.11,0.37,0.24,0.54,0.41l2.48,2.48c0.13,0.13,0.26,0.3,0.37,0.45 c2.78,3.81,2.35,7.21,0.45,10.31c0.34,0.13,0.67,0.32,0.93,0.58l2.48,2.48c0.13,0.13,0.26,0.3,0.37,0.45 c2.99,4.11,2.24,7.71,0,10.98c0.11,0.06,0.19,0.15,0.3,0.26l2.48,2.48c0.13,0.13,0.26,0.3,0.37,0.45 c5.75,7.86-1.1,14.53-6.61,19.91l-1.42,1.42l-6.14,6.44l-0.19,0.19c-5.62,5.1-11.19,6.46-17.63,8.03 c-1.08,0.26-2.17,0.54-3.68,0.93c-0.04,0-0.06,0.02-0.11,0.02c-3.49,0.95-6.65,1.18-9.49,0.67c-2.88-0.52-5.38-1.81-7.47-3.85 L2.51,97.34c-2.17-2.09-2.91-4.67-2.3-7.73c0.47-2.45,1.89-5.17,4.13-8.09l5.73-32.42v-0.13c0.26-1.85,0.84-4.59,1.85-7.23 c0.77-1.98,1.81-3.92,3.16-5.49c1.64-1.85,3.25-2.99,4.84-3.6c1.96-0.75,3.83-0.65,5.49,0.06c1.55,0.65,2.86,1.83,3.85,3.34 c1.21,1.81,2,4.11,2.22,6.52c0.17,1.98,0.52,5.25,0.84,8.46l0.26,2.67L57.4,28.88c4.76-4.76,9.92-5.71,14.04-4.35 c1.66,0.54,3.12,1.44,4.33,2.65c1.21,1.21,2.11,2.67,2.65,4.33c1.36,4.11,0.43,9.34-4.24,14.02l-8.22,8.22L65.93,53.68L65.93,53.68 z"/></g></svg>