<?xml version="1.0" encoding="UTF-8" standalone="no"?>
<svg
   height="21"
   viewBox="0 0 21 21"
   width="21"
   fill="#000000"
   version="1.1"
   id="svg6"
   sodipodi:docname="accessibility-dark.svg"
   inkscape:version="1.2.1 (9c6d41e410, 2022-07-14)"
   xmlns:inkscape="http://www.inkscape.org/namespaces/inkscape"
   xmlns:sodipodi="http://sodipodi.sourceforge.net/DTD/sodipodi-0.dtd"
   xmlns="http://www.w3.org/2000/svg"
   xmlns:svg="http://www.w3.org/2000/svg">
  <defs
     id="defs10" />
  <sodipodi:namedview
     id="namedview8"
     pagecolor="#ffffff"
     bordercolor="#666666"
     borderopacity="1.0"
     inkscape:showpageshadow="2"
     inkscape:pageopacity="0.0"
     inkscape:pagecheckerboard="0"
     inkscape:deskcolor="#d1d1d1"
     showgrid="false"
     inkscape:zoom="30.958333"
     inkscape:cx="2.551817"
     inkscape:cy="9.9811575"
     inkscape:window-width="1920"
     inkscape:window-height="1039"
     inkscape:window-x="0"
     inkscape:window-y="0"
     inkscape:window-maximized="1"
     inkscape:current-layer="svg6" />
  <path
     d="M -3,-2 H 21 V 22 H -3 Z"
     fill="none"
     id="path2" />
  <path
     d="m 19,4.5 c -2.61,0.7 -5.67,1 -8.5,1 C 7.67,5.5 4.61,5.2 2,4.5 l -0.5,2 c 1.86,0.5 4,0.83 6,1 v 13 h 2 v -6 h 2 v 6 h 2 v -13 c 2,-0.17 4.14,-0.5 6,-1 z m -8.5,0 c 1.1,0 2,-0.9 2,-2 0,-1.1 -0.9,-2 -2,-2 -1.1,0 -2,0.9 -2,2 0,1.1 0.9,2 2,2 z"
     id="path4" />
</svg>
