<svg width="16" height="16" viewBox="0 0 16 16" xmlns="http://www.w3.org/2000/svg"><path d="M10.707 11.412l-.587-.587-.03-.03a.513.513 0 0 1-.074-.526L13.07 3.4l-1.5-1.498-.15.15-.708-.706.505-.505a.538.538 0 0 1 .224-.128c.04-.01.05-.01.087-.016h.087c.04.006.05.006.086.016.072.02.134.055.192.1.74.676 1.42 1.415 2.127 2.124a.503.503 0 0 1 .103.556l-3.053 6.87.344.343.49-.49 3.01 3.01a1.192 1.192 0 0 1-1.685 1.686l-3.012-3.01.49-.488zm-.533-10.217a.986.986 0 0 0-1.396 0l-7.582 7.58a.99.99 0 0 0 0 1.398l1.397 1.396a.986.986 0 0 0 1.396 0l7.58-7.583a.988.988 0 0 0 0-1.396l-1.396-1.395z"/></svg>
