<svg viewBox="0 0 16 16" height="16" width="16" xmlns="http://www.w3.org/2000/svg" xml:space="preserve" style="fill-rule:evenodd;clip-rule:evenodd;stroke-linejoin:round;stroke-miterlimit:2"><path d="M11 17H7c-1.383 0-2.562-.487-3.537-1.462C2.488 14.563 2 13.383 2 12s.488-2.562 1.463-3.538C4.438 7.488 5.617 7 7 7h4v2H7c-.833 0-1.542.292-2.125.875A2.897 2.897 0 0 0 4 12c0 .833.292 1.542.875 2.125A2.897 2.897 0 0 0 7 15h4v2Zm-3-4v-2h8v2H8Zm5 4v-2h4c.833 0 1.542-.292 2.125-.875A2.897 2.897 0 0 0 20 12c0-.833-.292-1.542-.875-2.125A2.897 2.897 0 0 0 17 9h-4V7h4c1.383 0 2.563.488 3.538 1.462C21.513 9.438 22 10.617 22 12s-.487 2.563-1.462 3.538C19.563 16.513 18.383 17 17 17h-4Z" style="fill:#969696;fill-rule:nonzero" transform="matrix(.7 0 0 .7 -.4 -.4)"/></svg>