<svg viewBox="0 0 16 16" height="16" width="16" xmlns="http://www.w3.org/2000/svg" xml:space="preserve" style="fill-rule:evenodd;clip-rule:evenodd;stroke-linejoin:round;stroke-miterlimit:2"><path d="M12 12a1.931 1.931 0 0 0 1.413-.587c.382-.37.594-.881.587-1.413a1.931 1.931 0 0 0-.587-1.413A1.931 1.931 0 0 0 12 8c-.55 0-1.021.196-1.412.587A1.93 1.93 0 0 0 10 10c0 .55.196 1.021.588 1.413.391.391.862.587 1.412.587Zm0 10c-2.683-2.283-4.687-4.404-6.012-6.363C4.663 13.679 4 11.867 4 10.2c0-2.5.804-4.492 2.413-5.975C8.021 2.742 9.883 2 12 2c2.117 0 3.979.742 5.588 2.225C19.196 5.708 20 7.7 20 10.2c0 1.667-.662 3.479-1.987 5.437-1.325 1.959-3.33 4.08-6.013 6.363Z" style="fill:#969696;fill-rule:nonzero" transform="matrix(.7 0 0 .7 -.4 -.4)"/></svg>