<svg viewBox="0 0 16 16" height="16" width="16" xmlns="http://www.w3.org/2000/svg" xml:space="preserve" style="fill-rule:evenodd;clip-rule:evenodd;stroke-linejoin:round;stroke-miterlimit:2"><path d="M5 22c-.55 0-1.021-.196-1.412-.587A1.932 1.932 0 0 1 3 20V6c0-.55.196-1.021.588-1.413A1.925 1.925 0 0 1 5 4h1V2h2v2h8V2h2v2h1c.55 0 1.021.196 1.413.587.391.392.587.863.587 1.413v14a1.933 1.933 0 0 1-.587 1.413c-.37.382-.881.594-1.413.587H5Zm0-2h14V10H5v10Z" style="fill:#969696;fill-rule:nonzero" transform="matrix(.7 0 0 .7 -.3 -.4)"/></svg>