<?xml version="1.0" standalone="no"?>
<!DOCTYPE svg PUBLIC "-//W3C//DTD SVG 20010904//EN" "http://www.w3.org/TR/2001/REC-SVG-20010904/DTD/svg10.dtd">
<!-- Created using Karbon, part of Calligra: http://www.calligra.org/karbon -->
<svg xmlns="http://www.w3.org/2000/svg" xmlns:xlink="http://www.w3.org/1999/xlink" width="12.8pt" height="12.8pt">
<defs>
  <linearGradient id="gradient0" gradientTransform="translate(-0.54277, -2.50102)" gradientUnits="objectBoundingBox" x1="0.46156580718" y1="0.26673472489" x2="0.46156580718" y2="1.13340132578" spreadMethod="pad">
   <stop stop-color="#ffffff" offset="0.00000000000" stop-opacity="1.00000000000"/>
   <stop stop-color="#e6e6e6" offset="1.00000000000" stop-opacity="1.00000000000"/>
  </linearGradient>
  <linearGradient id="gradient1" gradientTransform="translate(-0.54277, -2.50102)" gradientUnits="objectBoundingBox" x1="0.15385526906" y1="1.20006799200" x2="0.15385526906" y2="0.13340137911" spreadMethod="pad">
   <stop stop-color="#969696" offset="0.00000000000" stop-opacity="1.00000000000"/>
   <stop stop-color="#bebebe" offset="1.00000000000" stop-opacity="1.00000000000"/>
  </linearGradient>
  <linearGradient id="gradient2" gradientTransform="matrix(0.415777 -0.417494 0.518983 0.514619 -17.796 1.86487)" gradientUnits="objectBoundingBox" x1="1.77989041379" y1="1.91182142950" x2="1.77989041379" y2="2.35319620460" spreadMethod="pad">
   <stop stop-color="#181818" offset="0.00000000000" stop-opacity="1.00000000000"/>
   <stop stop-color="#dbdbdb" offset="0.13482947648" stop-opacity="1.00000000000"/>
   <stop stop-color="#a4a4a4" offset="0.20224422216" stop-opacity="1.00000000000"/>
   <stop stop-color="#ffffff" offset="0.26965895295" stop-opacity="1.00000000000"/>
   <stop stop-color="#8d8d8d" offset="0.44650277495" stop-opacity="1.00000000000"/>
   <stop stop-color="#959595" offset="0.57114136219" stop-opacity="1.00000000000"/>
   <stop stop-color="#cecece" offset="0.72038066387" stop-opacity="1.00000000000"/>
   <stop stop-color="#181818" offset="1.00000000000" stop-opacity="1.00000000000"/>
  </linearGradient>
  <linearGradient id="gradient3" gradientTransform="matrix(0.404023 -0.405692 0.607375 0.602268 -27.0463 -3.00744)" gradientUnits="objectBoundingBox" x1="9.40879825249" y1="7.83967975733" x2="9.40879825249" y2="9.41157739957" spreadMethod="pad">
   <stop stop-color="#565656" offset="0.00000000000" stop-opacity="1.00000000000"/>
   <stop stop-color="#9a9a9a" offset="0.50000000000" stop-opacity="1.00000000000"/>
   <stop stop-color="#545454" offset="1.00000000000" stop-opacity="1.00000000000"/>
  </linearGradient>
  <linearGradient id="gradient4" gradientTransform="matrix(0.404023 -0.405692 0.607375 0.602268 -27.0463 -3.00744)" gradientUnits="objectBoundingBox" x1="9.40879584896" y1="7.83967765054" x2="9.40879584896" y2="9.41157487035" spreadMethod="pad">
   <stop stop-color="#b1b1b1" offset="0.00000000000" stop-opacity="1.00000000000"/>
   <stop stop-color="#ffffff" offset="0.50000000000" stop-opacity="1.00000000000"/>
   <stop stop-color="#8f8f8f" offset="1.00000000000" stop-opacity="1.00000000000"/>
  </linearGradient>
  <linearGradient id="gradient5" gradientTransform="matrix(0.404023 -0.405692 0.607375 0.602268 -27.0463 -3.00744)" gradientUnits="objectBoundingBox" x1="9.40879155931" y1="7.83968201339" x2="9.40879155931" y2="9.41158010798" spreadMethod="pad">
   <stop stop-color="#565656" offset="0.00000000000" stop-opacity="1.00000000000"/>
   <stop stop-color="#9a9a9a" offset="0.50000000000" stop-opacity="1.00000000000"/>
   <stop stop-color="#545454" offset="1.00000000000" stop-opacity="1.00000000000"/>
  </linearGradient>
  <linearGradient id="gradient6" gradientTransform="matrix(0.404023 -0.405692 0.607375 0.602268 -27.0463 -3.00744)" gradientUnits="objectBoundingBox" x1="9.40879343487" y1="7.83967992981" x2="9.40879343487" y2="9.41157760663" spreadMethod="pad">
   <stop stop-color="#b1b1b1" offset="0.00000000000" stop-opacity="1.00000000000"/>
   <stop stop-color="#ffffff" offset="0.50000000000" stop-opacity="1.00000000000"/>
   <stop stop-color="#8f8f8f" offset="1.00000000000" stop-opacity="1.00000000000"/>
  </linearGradient>
  <linearGradient id="gradient7" gradientTransform="matrix(0.404023 -0.405692 0.607375 0.602268 -27.0463 -3.00744)" gradientUnits="objectBoundingBox" x1="9.40879945977" y1="7.83968103847" x2="9.40879945977" y2="9.41157893758" spreadMethod="pad">
   <stop stop-color="#565656" offset="0.00000000000" stop-opacity="1.00000000000"/>
   <stop stop-color="#9a9a9a" offset="0.50000000000" stop-opacity="1.00000000000"/>
   <stop stop-color="#545454" offset="1.00000000000" stop-opacity="1.00000000000"/>
  </linearGradient>
  <linearGradient id="gradient8" gradientTransform="matrix(0.404023 -0.405692 0.607375 0.602268 -27.0463 -3.00744)" gradientUnits="objectBoundingBox" x1="9.40879596769" y1="7.83968060850" x2="9.40879596769" y2="9.41157842140" spreadMethod="pad">
   <stop stop-color="#b1b1b1" offset="0.00000000000" stop-opacity="1.00000000000"/>
   <stop stop-color="#ffffff" offset="0.50000000000" stop-opacity="1.00000000000"/>
   <stop stop-color="#8f8f8f" offset="1.00000000000" stop-opacity="1.00000000000"/>
  </linearGradient>
  <linearGradient id="gradient9" gradientTransform="matrix(0.37638 0.0361526 0.0367 0.374874 -2.47809 -12.1224)" gradientUnits="objectBoundingBox" x1="1.13556603092" y1="7.77791347304" x2="1.95960901921" y2="8.61454878179" spreadMethod="pad">
   <stop stop-color="#dbce48" offset="0.00000000000" stop-opacity="1.00000000000"/>
   <stop stop-color="#c5b625" offset="1.00000000000" stop-opacity="1.00000000000"/>
  </linearGradient>
 </defs>
<g id="g3433">
  <g id="layer1-3" transform="translate(0.0427701, 1.4e-07)" fill="none">
   <path id="path2855" transform="translate(0.5, 0.5)" fill="url(#gradient0)" stroke="url(#gradient1)" stroke-width="1.00000012000" stroke-linecap="round" stroke-linejoin="round" d="M4.44089e-16 0L12.9572 0.01L12.9992 15L1e-08 15L0 1e-07Z"/>
   <g id="g4198" transform="translate(3, 3)" fill="none">
    <path id="path6035" transform="matrix(1.01954 0 0 1 0 -5.55112e-16)" fill="#686868" opacity="0.70000000000" d="M0 0L1.12407 0L1.12407 1L0 1Z"/>
    <path id="path6033" transform="matrix(1.01954 0 0 1 1.30215 0)" fill="#686868" opacity="0.70000000000" d="M0 0L1.06061 0L1.06061 1L0 1Z"/>
    <path id="path6031" transform="matrix(1.01954 0 0 1 2.5396 0)" fill="#686868" opacity="0.70000000000" d="M0 0L0.933684 0L0.933684 1L0 1Z"/>
    <path id="path6029" transform="matrix(1.01954 0 0 1 3.64764 0)" fill="#686868" opacity="0.70000000000" d="M0 0L0.410114 0L0.410114 1L0 1Z"/>
    <path id="path6027" transform="matrix(1.01954 0 0 1 4.22189 0)" fill="#686868" opacity="0.70000000000" d="M0 0L0.917815 0L0.917815 1L0 1Z"/>
    <path id="path6025" transform="matrix(1.01954 0 0 1 5.31375 0)" fill="#686868" opacity="0.70000000000" d="M0 0L2.37746 0L2.37746 1L0 1Z"/>
    <path id="path6017" transform="matrix(1.01954 0 0 1 5.55112e-16 6)" fill="#686868" opacity="0.70000000000" d="M0 0L1.12407 0L1.12407 1L0 1Z"/>
    <path id="path6015" transform="matrix(1.01954 0 0 1 1.30215 6)" fill="#686868" opacity="0.70000000000" d="M0 0L1.06061 0L1.06061 1L0 1Z"/>
    <path id="path6013" transform="matrix(1.01954 0 0 1 2.5396 6)" fill="#686868" opacity="0.70000000000" d="M0 0L0.933683 0L0.933683 1L0 1Z"/>
    <path id="path6011" transform="matrix(1.01954 0 0 1 3.64764 6)" fill="#686868" opacity="0.70000000000" d="M0 0L0.410114 0L0.410114 1L0 1Z"/>
    <path id="path6009" transform="matrix(1.01954 0 0 1 4.22188 6)" fill="#686868" opacity="0.70000000000" d="M0 0L0.917814 0L0.917814 1L0 1Z"/>
    <path id="path5999" transform="matrix(1.01954 0 0 1 5.55112e-16 2)" fill="#686868" opacity="0.70000000000" d="M0 0L1.74283 0L1.74283 1L0 1Z"/>
    <path id="path5997" transform="matrix(1.01954 0 0 1 1.93908 2)" fill="#686868" opacity="0.70000000000" d="M0 0L0.838487 0L0.838487 1L0 1Z"/>
    <path id="path5995" transform="matrix(1.01954 0 0 1 2.95613 2)" fill="#686868" opacity="0.70000000000" d="M0 0L0.394245 0L0.394245 1L0 1Z"/>
    <path id="path5993" transform="matrix(1.01954 0 0 1 3.52026 2)" fill="#686868" opacity="0.70000000000" d="M0 0L0.759159 0L0.759159 1L0 1Z"/>
    <path id="path5991" transform="matrix(1.01954 0 0 1 4.45643 2)" fill="#686868" opacity="0.70000000000" d="M0 0L0.759159 0L0.759159 1L0 1Z"/>
    <path id="path5989" transform="matrix(1.01954 0 0 1 5.39261 2)" fill="#686868" opacity="0.70000000000" d="M0 0L1.21926 0L1.21926 1L0 1Z"/>
    <path id="path5981" transform="matrix(1.01954 0 0 1 5.55112e-16 4)" fill="#686868" opacity="0.70000000000" d="M0 0L1.99668 0L1.99668 1L0 1Z"/>
    <path id="path5979" transform="matrix(1.01954 0 0 1 2.19529 4)" fill="#686868" opacity="0.70000000000" d="M0 0L2.13947 0L2.13947 1L0 1Z"/>
    <path id="path5977" transform="matrix(1.01954 0 0 1 4.53615 4)" fill="#686868" opacity="0.70000000000" d="M0 0L0.854355 0L0.854355 1L0 1Z"/>
    <path id="path5975" transform="matrix(1.01954 0 0 1 5.56679 4)" fill="#686868" opacity="0.70000000000" d="M0 0L2.01255 0L2.01255 1L0 1Z"/>
    <path id="path2916" transform="matrix(1.01954 0 0 1 5.55112e-16 8)" fill="#686868" opacity="0.70000000000" d="M0 0L1.12407 0L1.12407 1L0 1Z"/>
    <path id="path2918" transform="matrix(1.01954 0 0 1 1.30215 8)" fill="#686868" opacity="0.70000000000" d="M0 0L1.06061 0L1.06061 1L0 1Z"/>
    <path id="path2920" transform="matrix(1.01954 0 0 1 2.5396 8)" fill="#686868" opacity="0.70000000000" d="M0 0L0.933683 0L0.933683 1L0 1Z"/>
   </g>
   <path id="path2422" transform="translate(4.99643, 5.67071)" fill="#0c0c0c" fill-rule="evenodd" opacity="0.15000000000" d="M8.25732 0.0337698C8.17317 -0.0162002 8.10805 -0.00320017 8.06503 0.0245698L2.33547 3.70464L1.28095 4.38385L1.24848 4.39759L0 7.23529L3.09408 7.32929L3.11977 7.31195L4.18107 6.63633L9.9092 2.92453C10.0813 2.81332 9.80913 2.07626 9.29872 1.26826C8.91592 0.662266 8.50978 0.183633 8.25732 0.0337318Z"/>
  </g>
  <g id="g8626" transform="translate(5.00026, 1.99974)" fill="none">
   <path id="path3041" transform="matrix(0.702577 0 0 0.704261 1.4709 0.216394)" fill="url(#gradient2)" stroke="#0c0c0c" stroke-width="0.60797864000" stroke-linecap="butt" stroke-linejoin="round" d="M0 10.2519C0.286542 10.0442 1.14795 10.5083 1.96034 11.3138C2.77078 12.1174 3.22054 12.9551 3.0179 13.2444C3.01713 13.2455 3.03767 13.2621 3.03688 13.2632L13.1753 3.08288C13.4327 2.82441 12.9622 1.93926 12.1241 1.10813C11.2859 0.277 10.3959 -0.186931 10.1385 0.0715409Z"/>
   <path id="path3045" transform="matrix(0.702577 0 0 0.704261 1.4709 2.44622)" fill="#0c0c0c" opacity="0.60000000000" d="M0 7.08568C0.286543 6.87797 1.14795 7.34207 1.96034 8.14762C2.77078 8.95125 3.22054 9.78895 3.0179 10.0782C3.01713 10.0793 3.03767 10.0959 3.03688 10.097L10.0189 3.08615L10.0442 3.0608C10.0449 3.05972 10.0244 3.04308 10.0252 3.04198C10.2278 2.75273 9.77807 1.91503 8.96762 1.1114C8.15523 0.305847 7.29382 -0.158247 7.00728 0.0494597L6.98203 0.0748147L4e-07 7.08568Z"/>
   <path id="path3047" transform="matrix(0.702577 0 0 0.704261 6.48008 2.26929)" fill="url(#gradient3)" d="M0 0.176239C0.286541 -0.031468 1.14795 0.432627 1.96034 1.23818C2.77078 2.04181 3.22054 2.87951 3.0179 3.16876C3.01712 3.16986 3.03767 3.18649 3.03688 3.18758L3.16313 3.0608C3.16392 3.05972 3.14338 3.04308 3.14415 3.04198C3.3468 2.75273 2.89704 1.91503 2.0866 1.1114C1.27421 0.305848 0.412799 -0.158247 0.126257 0.0494596Z"/>
   <path id="path3049" transform="matrix(0.702577 0 0 0.704261 6.39879 2.35112)" fill="url(#gradient4)" d="M0 0.176239C0.286544 -0.0314677 1.14795 0.432627 1.96034 1.23818C2.77078 2.04181 3.22054 2.87951 3.0179 3.16876C3.01712 3.16986 3.03767 3.1865 3.03688 3.18758L3.16313 3.0608C3.16392 3.05972 3.14338 3.04308 3.14415 3.04198C3.3468 2.75273 2.89704 1.91503 2.0866 1.1114C1.27421 0.305848 0.4128 -0.158247 0.126257 0.0494597Z"/>
   <path id="path3051" transform="matrix(0.702577 0 0 0.704261 6.76258 1.98495)" fill="url(#gradient5)" d="M0 0.176239C0.286543 -0.0314683 1.14795 0.432626 1.96034 1.23818C2.77078 2.04181 3.22054 2.87951 3.0179 3.16876C3.01712 3.16986 3.03767 3.18649 3.03688 3.18758L3.16313 3.0608C3.16393 3.05972 3.14338 3.04308 3.14415 3.04198C3.3468 2.75273 2.89704 1.91503 2.0866 1.1114C1.27421 0.305847 0.412801 -0.158247 0.126257 0.0494597Z"/>
   <path id="path3053" transform="matrix(0.702577 0 0 0.704261 6.68128 2.06678)" fill="url(#gradient6)" d="M0 0.176239C0.286544 -0.0314685 1.14795 0.432626 1.96034 1.23818C2.77078 2.04181 3.22054 2.87951 3.0179 3.16876C3.01713 3.16986 3.03767 3.18649 3.03688 3.18758L3.16313 3.0608C3.16392 3.05972 3.14338 3.04308 3.14415 3.04198C3.3468 2.75273 2.89704 1.91503 2.0866 1.1114C1.27421 0.305848 0.412801 -0.158247 0.126257 0.0494597Z"/>
   <path id="path3055" transform="matrix(0.702577 0 0 0.704261 7.04643 1.69924)" fill="url(#gradient7)" d="M0 0.176238C0.286541 -0.0314683 1.14795 0.432626 1.96034 1.23818C2.77078 2.04181 3.22054 2.87951 3.0179 3.16876C3.01713 3.16986 3.03767 3.18649 3.03688 3.18758L3.16313 3.0608C3.16392 3.05972 3.14338 3.04308 3.14415 3.04198C3.3468 2.75273 2.89704 1.91503 2.08659 1.1114C1.27421 0.305847 0.412799 -0.158247 0.126256 0.0494597Z"/>
   <path id="path3057" transform="matrix(0.702577 0 0 0.704261 6.96514 1.78107)" fill="url(#gradient8)" d="M0 0.176238C0.286541 -0.0314687 1.14795 0.432626 1.96034 1.23818C2.77078 2.04181 3.22054 2.87951 3.0179 3.16876C3.01712 3.16986 3.03767 3.18649 3.03688 3.18758L3.16313 3.0608C3.16392 3.05972 3.14338 3.04308 3.14415 3.04198C3.3468 2.75273 2.89704 1.91503 2.0866 1.1114C1.27421 0.305848 0.412799 -0.158247 0.126257 0.0494599Z"/>
   <path id="path3059" transform="matrix(0.702577 0 0 0.704261 0.213987 7.40255)" fill="#dcdcdc" fill-rule="evenodd" stroke="#cccccc" stroke-width="0.60797864000" stroke-linecap="butt" stroke-linejoin="miter" stroke-miterlimit="4.00000000000" d="M0 4.80486L4.77186 3.07937L4.81116 3.04011C5.01381 2.75087 4.55877 1.91283 3.74832 1.1092C2.93593 0.303642 2.07564 -0.158082 1.7891 0.0496248Z"/>
   <path id="path3061" transform="matrix(0.702577 0 0 0.704261 0.213576 9.8794)" fill="#0c0c0c" fill-rule="evenodd" stroke="#0c0c0c" stroke-width="0.60797864000" stroke-linecap="butt" stroke-linejoin="miter" stroke-miterlimit="4.00000000000" d="M0.485212 0L0 1.28269L1.30137 0.809298C1.18769 0.676163 1.08209 0.541463 0.947014 0.407525C0.791507 0.253326 0.639934 0.126858 0.485212 0Z"/>
   <path id="path3043" transform="matrix(0.702577 0 0 0.704261 7.45448 0.214088)" fill="#c0c0c0" stroke="#cccccc" stroke-width="0.60797864000" stroke-linecap="butt" stroke-linejoin="round" opacity="0.80000000000" d="M0 1.70187C0.286542 1.49416 1.14795 1.95826 1.96034 2.76381C2.77078 3.56744 3.22054 4.40514 3.01789 4.69439C3.01713 4.69549 3.03766 4.71213 3.03688 4.71321L4.58881 3.15609C4.99729 2.74751 4.55953 2.06327 3.60744 1.1114C2.79505 0.305848 1.93364 -0.158247 1.6471 0.0494596L1.62185 0.0748155L3e-06 1.70187Z"/>
  </g>
 </g>
</svg>
