<svg xmlns="http://www.w3.org/2000/svg" height="32" width="32" viewbox="0 0 32 32"><path d="M8 2c-1.108 0-2 .892-2 2v4c0 1.108.892 2 2 2s2-.892 2-2V4c0-1.108-.892-2-2-2zm16 0c-1.108 0-2 .892-2 2v4c0 1.108.892 2 2 2s2-.892 2-2V4c0-1.108-.892-2-2-2zM11 6v2c0 1.662-1.338 3-3 3S5 9.662 5 8V6.125A3.993 3.993 0 0 0 2 10v16c0 2.216 1.784 4 4 4h20c2.216 0 4-1.784 4-4V10a3.993 3.993 0 0 0-3-3.875V8c0 1.662-1.338 3-3 3s-3-1.338-3-3V6zM6.094 16h19.812a.09.09 0 0 1 .094.094v9.812a.09.09 0 0 1-.094.094H6.094A.09.09 0 0 1 6 25.906v-9.812A.09.09 0 0 1 6.094 16z"/></svg>
