<svg xmlns="http://www.w3.org/2000/svg" width="32" version="1.1" height="32" viewbox="0 0 32 32"><path fill="#fff" d="m8 2c-1.108 0-2 0.892-2 2v4c0 1.108 0.892 2 2 2s2-0.892 2-2v-4c0-1.108-0.892-2-2-2zm16 0c-1.108 0-2 0.892-2 2v4c0 1.108 0.892 2 2 2s2-0.892 2-2v-4c0-1.108-0.892-2-2-2zm-13 4v2c0 1.662-1.338 3-3 3s-3-1.338-3-3v-1.875a3.993 3.993 0 0 0 -3 3.875v16c0 2.216 1.784 4 4 4h20c2.216 0 4-1.784 4-4v-16a3.993 3.993 0 0 0 -3 -3.875v1.875c0 1.662-1.338 3-3 3s-3-1.338-3-3v-2zm-4.906 10h19.812a0.09 0.09 0 0 1 0.094 0.094v9.812a0.09 0.09 0 0 1 -0.094 0.094h-19.812a0.09 0.09 0 0 1 -0.094 -0.094v-9.812a0.09 0.09 0 0 1 0.094 -0.094z"/></svg>
