<svg xmlns="http://www.w3.org/2000/svg" width="16" height="16"><path d="M9 1C7.254 1 6 2.43 6 3.8c0 1.4.1 2.4.8 3.5.224.29.485.35.7.6.135.5.24 1 .1 1.5-.436.153-.85.332-1.27.5-.51-.273-1.1-.5-1.61-.7-.07-.28-.02-.487.05-.75.12-.125.23-.18.36-.3.37-.45.39-1.21.39-1.75 0-.8-.72-1.4-1.5-1.4-.87 0-1.5.72-1.5 1.4H2.5c0 .7.05 1.2.4 1.75.1.15.242.175.35.3.067.25.121.5.05.75-.64.223-1.244.5-1.8.8-.42.3-.233.182-.5 1.15-.124.5 1.3.73 2.32.81-.05.275-.12.64-.32 1.34-.32 1.25 4.353 1.7 6 1.7 2.43 0 6.313-.456 5.98-1.7-.52-1.94-.208-1.71-.98-2.3-1.09-.654-2.452-1.167-3.6-1.6-.15-.557-.04-.97.1-1.5.235-.25.5-.36.72-.6.69-.884.78-2.424.78-3.5C12 2.214 10.57 1 9 1z"/></svg>
