<?xml version="1.0" encoding="UTF-8" standalone="no"?>
<!-- Created with Inkscape (http://www.inkscape.org/) -->

<svg
   xmlns:dc="http://purl.org/dc/elements/1.1/"
   xmlns:cc="http://creativecommons.org/ns#"
   xmlns:rdf="http://www.w3.org/1999/02/22-rdf-syntax-ns#"
   xmlns:svg="http://www.w3.org/2000/svg"
   xmlns="http://www.w3.org/2000/svg"
   xmlns:sodipodi="http://sodipodi.sourceforge.net/DTD/sodipodi-0.dtd"
   xmlns:inkscape="http://www.inkscape.org/namespaces/inkscape"
   width="32"
   height="32"
   id="svg3301"
   version="1.1"
   inkscape:version="0.48.3.1 r9886"
   sodipodi:docname="contacts-dark.svg"
   inkscape:export-filename="contacts-dark.png"
   inkscape:export-xdpi="90"
   inkscape:export-ydpi="90">
  <defs
     id="defs3303" />
  <sodipodi:namedview
     id="base"
     pagecolor="#ffffff"
     bordercolor="#666666"
     borderopacity="1.0"
     inkscape:pageopacity="0.0"
     inkscape:pageshadow="2"
     inkscape:zoom="11.313708"
     inkscape:cx="20.488654"
     inkscape:cy="17.050062"
     inkscape:document-units="px"
     inkscape:current-layer="layer1"
     showgrid="false"
     fit-margin-top="0"
     fit-margin-left="0"
     fit-margin-right="0"
     fit-margin-bottom="0"
     inkscape:window-width="1280"
     inkscape:window-height="773"
     inkscape:window-x="0"
     inkscape:window-y="-1"
     inkscape:window-maximized="1" />
  <metadata
     id="metadata3306">
    <rdf:RDF>
      <cc:Work
         rdf:about="">
        <dc:format>image/svg+xml</dc:format>
        <dc:type
           rdf:resource="http://purl.org/dc/dcmitype/StillImage" />
        <dc:title />
      </cc:Work>
    </rdf:RDF>
  </metadata>
  <g
     inkscape:label="Layer 1"
     inkscape:groupmode="layer"
     id="layer1"
     transform="translate(-359.05493,-515.86218)">
    <path
       inkscape:connector-curvature="0"
       id="path2995"
       style="font-size:medium;font-style:normal;font-variant:normal;font-weight:normal;font-stretch:normal;text-indent:0;text-align:start;text-decoration:none;line-height:normal;letter-spacing:normal;word-spacing:normal;text-transform:none;direction:ltr;block-progression:tb;writing-mode:lr-tb;text-anchor:start;baseline-shift:baseline;color:#000000;fill:#ffffff;fill-opacity:1;fill-rule:nonzero;stroke:none;stroke-width:1.00012147;marker:none;visibility:visible;display:inline;overflow:visible;enable-background:accumulate;font-family:Sans;-inkscape-font-specification:Sans"
       d="m 368.28616,523.52657 c -1.95489,0 -3.61329,1.42966 -3.61329,3.27468 0.0139,0.58316 0.066,1.30227 0.41402,2.82301 l 0,0.0376 0.0377,0.0377 c 0.11171,0.32 0.27429,0.50305 0.4893,0.7528 0.21502,0.24974 0.47136,0.54371 0.71513,0.79045 0.0288,0.029 0.047,0.0469 0.0752,0.0753 0.0483,0.21038 0.1069,0.43679 0.15055,0.63988 0.11614,0.54034 0.10423,0.92299 0.0752,1.05392 -0.84004,0.29496 -1.88513,0.64623 -2.82289,1.05393 -0.52647,0.22889 -1.00287,0.43328 -1.39261,0.67751 -0.38974,0.24425 -0.77735,0.42877 -0.90332,0.97865 -0.002,0.025 -0.002,0.0502 0,0.0753 -0.1231,1.13039 -0.30932,2.79261 -0.45166,3.91458 -0.0307,0.23616 0.0937,0.48512 0.3011,0.60223 1.70267,0.91975 4.31819,1.28993 6.92547,1.27976 2.60727,-0.0102 5.20196,-0.4021 6.85019,-1.27976 0.20736,-0.11711 0.33184,-0.36607 0.3011,-0.60223 -0.0454,-0.35072 -0.10126,-1.14154 -0.15055,-1.91966 -0.0493,-0.77812 -0.092,-1.54354 -0.15055,-1.99492 -0.0204,-0.1119 -0.0734,-0.21766 -0.15056,-0.30112 -0.52359,-0.62524 -1.30583,-1.00746 -2.22067,-1.39269 -0.83517,-0.35169 -1.81429,-0.71689 -2.78523,-1.1292 -0.0543,-0.12106 -0.10833,-0.47327 0,-1.01628 0.029,-0.1458 0.0747,-0.30196 0.11292,-0.45168 0.0913,-0.1022 0.16236,-0.18571 0.26346,-0.30112 0.21564,-0.24614 0.44734,-0.50432 0.63986,-0.7528 0.19251,-0.24849 0.35001,-0.46165 0.45166,-0.7528 l 0.0377,-0.0376 c 0.39341,-1.58787 0.39363,-2.25045 0.41403,-2.82301 l 0,-0.0377 c 0,-1.84501 -1.6584,-3.27468 -3.61329,-3.27468 z m 10.33571,-3.00497 c -2.85015,0 -5.26802,2.08432 -5.26802,4.77416 0.0202,0.85019 0.0963,1.89859 0.60362,4.11566 l 0,0.0549 0.0549,0.0549 c 0.16287,0.46651 0.39989,0.73339 0.71338,1.0975 0.31349,0.36411 0.68722,0.79267 1.04262,1.15239 0.0418,0.0423 0.0686,0.0686 0.10975,0.10977 0.0705,0.3067 0.15586,0.63679 0.21951,0.93288 0.16931,0.78776 0.15194,1.34562 0.10976,1.5365 -1.22474,0.43004 -2.74844,0.94215 -4.11565,1.53651 -0.76758,0.3337 -1.46216,0.63168 -2.03038,0.98778 -0.56823,0.35608 -1.13334,0.6251 -1.31701,1.42675 -0.003,0.0365 -0.003,0.0733 0,0.10977 -0.17948,1.64799 -0.45098,4.07134 -0.6585,5.70704 -0.0448,0.34431 0.13667,0.70727 0.439,0.87801 2.48242,1.34091 6.29573,1.88059 10.09705,1.86576 3.8013,-0.0148 7.58424,-0.58622 9.98729,-1.86576 0.30232,-0.17074 0.4838,-0.5337 0.439,-0.87801 -0.0663,-0.51129 -0.14765,-1.66422 -0.21951,-2.79864 -0.0719,-1.13442 -0.13422,-2.25035 -0.21948,-2.90841 -0.0298,-0.16311 -0.10688,-0.31733 -0.2195,-0.43899 -0.76337,-0.91154 -1.90387,-1.46878 -3.23765,-2.0304 -1.21766,-0.51271 -2.64517,-1.04515 -4.06077,-1.64625 -0.0791,-0.1765 -0.15794,-0.69001 0,-1.48165 0.0424,-0.21256 0.10883,-0.44024 0.16463,-0.65849 0.13304,-0.14901 0.23672,-0.27077 0.38413,-0.43901 0.3144,-0.35883 0.6522,-0.73526 0.93288,-1.09751 0.28067,-0.36226 0.51031,-0.67304 0.65849,-1.09752 l 0.0549,-0.0549 c 0.57359,-2.31494 0.57389,-3.28093 0.60364,-4.11566 l 0,-0.0549 c 0,-2.68983 -2.41788,-4.77415 -5.26803,-4.77415 z" />
    <path
       d="m 368.28616,522.52661 c -1.95489,0 -3.61329,1.42966 -3.61329,3.27468 0.0139,0.58316 0.066,1.30227 0.41402,2.82301 l 0,0.0376 0.0377,0.0377 c 0.11171,0.32 0.27429,0.50305 0.4893,0.7528 0.21502,0.24974 0.47136,0.54371 0.71513,0.79045 0.0288,0.029 0.047,0.0469 0.0752,0.0753 0.0483,0.21038 0.1069,0.43679 0.15055,0.63988 0.11614,0.54034 0.10423,0.92299 0.0752,1.05392 -0.84004,0.29496 -1.88513,0.64623 -2.82289,1.05393 -0.52647,0.22889 -1.00287,0.43328 -1.39261,0.67751 -0.38974,0.24425 -0.77735,0.42877 -0.90332,0.97865 -0.002,0.025 -0.002,0.0502 0,0.0753 -0.1231,1.13039 -0.30932,2.79261 -0.45166,3.91458 -0.0307,0.23616 0.0937,0.48512 0.3011,0.60223 1.70267,0.91975 4.31819,1.28993 6.92547,1.27976 2.60727,-0.0102 5.20196,-0.4021 6.85019,-1.27976 0.20736,-0.11711 0.33184,-0.36607 0.3011,-0.60223 -0.0454,-0.35072 -0.10126,-1.14154 -0.15055,-1.91966 -0.0493,-0.77812 -0.092,-1.54354 -0.15055,-1.99492 -0.0204,-0.1119 -0.0734,-0.21766 -0.15056,-0.30112 -0.52359,-0.62524 -1.30583,-1.00746 -2.22067,-1.39269 -0.83517,-0.35169 -1.81429,-0.71689 -2.78523,-1.1292 -0.0543,-0.12106 -0.10833,-0.47327 0,-1.01628 0.029,-0.1458 0.0747,-0.30196 0.11292,-0.45168 0.0913,-0.1022 0.16236,-0.18571 0.26346,-0.30112 0.21564,-0.24614 0.44734,-0.50432 0.63986,-0.7528 0.19251,-0.24849 0.35001,-0.46165 0.45166,-0.7528 l 0.0377,-0.0376 c 0.39341,-1.58787 0.39363,-2.25045 0.41403,-2.82301 l 0,-0.0377 c 0,-1.84501 -1.6584,-3.27468 -3.61329,-3.27468 z m 10.33571,-3.00497 c -2.85015,0 -5.26802,2.08432 -5.26802,4.77416 0.0202,0.85019 0.0963,1.89859 0.60362,4.11566 l 0,0.0549 0.0549,0.0549 c 0.16287,0.46651 0.39989,0.73339 0.71338,1.0975 0.31349,0.36411 0.68722,0.79267 1.04262,1.15239 0.0418,0.0423 0.0686,0.0686 0.10975,0.10977 0.0705,0.3067 0.15586,0.63679 0.21951,0.93288 0.16931,0.78776 0.15194,1.34562 0.10976,1.5365 -1.22474,0.43004 -2.74844,0.94215 -4.11565,1.53651 -0.76758,0.3337 -1.46216,0.63168 -2.03038,0.98778 -0.56823,0.35608 -1.13334,0.6251 -1.31701,1.42675 -0.003,0.0365 -0.003,0.0733 0,0.10977 -0.17948,1.64799 -0.45098,4.07134 -0.6585,5.70704 -0.0448,0.34431 0.13667,0.70727 0.439,0.87801 2.48242,1.34091 6.29573,1.88059 10.09705,1.86576 3.8013,-0.0148 7.58424,-0.58622 9.98729,-1.86576 0.30232,-0.17074 0.4838,-0.5337 0.439,-0.87801 -0.0663,-0.51129 -0.14765,-1.66422 -0.21951,-2.79864 -0.0719,-1.13442 -0.13422,-2.25035 -0.21948,-2.90841 -0.0298,-0.16311 -0.10688,-0.31733 -0.2195,-0.43899 -0.76337,-0.91154 -1.90387,-1.46878 -3.23765,-2.0304 -1.21766,-0.51271 -2.64517,-1.04515 -4.06077,-1.64625 -0.0791,-0.1765 -0.15794,-0.69001 0,-1.48165 0.0424,-0.21256 0.10883,-0.44024 0.16463,-0.65849 0.13304,-0.14901 0.23672,-0.27077 0.38413,-0.43901 0.3144,-0.35883 0.6522,-0.73526 0.93288,-1.09751 0.28067,-0.36226 0.51031,-0.67304 0.65849,-1.09752 l 0.0549,-0.0549 c 0.57359,-2.31494 0.57389,-3.28093 0.60364,-4.11566 l 0,-0.0549 c 0,-2.68983 -2.41788,-4.77415 -5.26803,-4.77415 z"
       style="font-size:medium;font-style:normal;font-variant:normal;font-weight:normal;font-stretch:normal;text-indent:0;text-align:start;text-decoration:none;line-height:normal;letter-spacing:normal;word-spacing:normal;text-transform:none;direction:ltr;block-progression:tb;writing-mode:lr-tb;text-anchor:start;baseline-shift:baseline;color:#000000;fill:#000000;fill-opacity:1;fill-rule:nonzero;stroke:none;stroke-width:1.00012147;marker:none;visibility:visible;display:inline;overflow:visible;enable-background:accumulate;font-family:Sans;-inkscape-font-specification:Sans"
       id="path3763"
       inkscape:connector-curvature="0" />
  </g>
</svg>
