<?xml version="1.0" encoding="UTF-8" standalone="no"?>
<!-- Created with Inkscape (http://www.inkscape.org/) -->

<svg
   xmlns:dc="http://purl.org/dc/elements/1.1/"
   xmlns:cc="http://creativecommons.org/ns#"
   xmlns:rdf="http://www.w3.org/1999/02/22-rdf-syntax-ns#"
   xmlns:svg="http://www.w3.org/2000/svg"
   xmlns="http://www.w3.org/2000/svg"
   xmlns:sodipodi="http://sodipodi.sourceforge.net/DTD/sodipodi-0.dtd"
   xmlns:inkscape="http://www.inkscape.org/namespaces/inkscape"
   width="32"
   height="32"
   id="svg3301"
   version="1.1"
   inkscape:version="0.48.3.1 r9886"
   sodipodi:docname="contacts-dark.svg"
   inkscape:export-filename="contacts-dark.png"
   inkscape:export-xdpi="90"
   inkscape:export-ydpi="90">
  <defs
     id="defs3303" />
  <sodipodi:namedview
     id="base"
     pagecolor="#ffffff"
     bordercolor="#666666"
     borderopacity="1.0"
     inkscape:pageopacity="0.0"
     inkscape:pageshadow="2"
     inkscape:zoom="15.839192"
     inkscape:cx="8.6852576"
     inkscape:cy="15.605501"
     inkscape:document-units="px"
     inkscape:current-layer="layer1"
     showgrid="false"
     fit-margin-top="0"
     fit-margin-left="0"
     fit-margin-right="0"
     fit-margin-bottom="0"
     inkscape:window-width="1280"
     inkscape:window-height="773"
     inkscape:window-x="0"
     inkscape:window-y="-1"
     inkscape:window-maximized="1" />
  <metadata
     id="metadata3306">
    <rdf:RDF>
      <cc:Work
         rdf:about="">
        <dc:format>image/svg+xml</dc:format>
        <dc:type
           rdf:resource="http://purl.org/dc/dcmitype/StillImage" />
        <dc:title></dc:title>
      </cc:Work>
    </rdf:RDF>
  </metadata>
  <g
     inkscape:label="Layer 1"
     inkscape:groupmode="layer"
     id="layer1"
     transform="translate(-359.05493,-515.86218)">
    <path
       inkscape:connector-curvature="0"
       id="path2880-5-3-9-2"
       style="font-size:medium;font-style:normal;font-variant:normal;font-weight:normal;font-stretch:normal;text-indent:0;text-align:start;text-decoration:none;line-height:normal;letter-spacing:normal;word-spacing:normal;text-transform:none;direction:ltr;block-progression:tb;writing-mode:lr-tb;text-anchor:start;baseline-shift:baseline;color:#000000;fill:#ffffff;fill-opacity:1;fill-rule:nonzero;stroke:none;stroke-width:1.00012147;marker:none;visibility:visible;display:inline;overflow:visible;enable-background:accumulate;font-family:Sans;-inkscape-font-specification:Sans"
       d="m 367.29082,521.28462 c -2.22648,0 -4.11529,1.62829 -4.11529,3.72964 0.0158,0.66417 0.0752,1.48319 0.47155,3.2152 l 0,0.0429 0.0429,0.0429 c 0.12723,0.36445 0.31239,0.57294 0.55728,0.85739 0.24489,0.28444 0.53685,0.61924 0.81448,0.90025 0.0327,0.0331 0.0536,0.0535 0.0857,0.0858 0.0551,0.23961 0.12176,0.49747 0.17147,0.72878 0.13227,0.61541 0.11871,1.05122 0.0857,1.20034 -0.95674,0.33594 -2.14703,0.73601 -3.21507,1.20034 -0.59962,0.26069 -1.14221,0.49348 -1.5861,0.77165 -0.44388,0.27818 -0.88534,0.48834 -1.02882,1.11461 -0.002,0.0285 -0.002,0.0572 0,0.0858 -0.1402,1.28742 -0.35229,3.18058 -0.51441,4.45841 -0.035,0.26898 0.10676,0.55252 0.34294,0.68591 1.93923,1.04753 4.91812,1.46914 7.88764,1.45756 2.96951,-0.0116 5.92468,-0.45797 7.8019,-1.45756 0.23617,-0.13338 0.37794,-0.41693 0.34294,-0.68591 -0.0518,-0.39943 -0.11534,-1.30012 -0.17147,-2.18634 -0.0561,-0.88623 -0.10486,-1.75799 -0.17147,-2.27208 -0.0232,-0.12744 -0.0835,-0.2479 -0.17147,-0.34295 -0.59633,-0.71211 -1.48726,-1.14743 -2.52919,-1.58617 -0.95121,-0.40054 -2.06636,-0.81649 -3.1722,-1.28608 -0.0619,-0.13788 -0.12337,-0.53903 0,-1.15747 0.0331,-0.16606 0.085,-0.34392 0.12861,-0.51443 0.10392,-0.1164 0.18492,-0.21152 0.30007,-0.34296 0.2456,-0.28032 0.50949,-0.57438 0.72875,-0.85738 0.21926,-0.28301 0.39864,-0.52579 0.51441,-0.85739 l 0.0429,-0.0429 c 0.44807,-1.80846 0.44831,-2.5631 0.47155,-3.21521 l 0,-0.0429 c 0,-2.10134 -1.88881,-3.72963 -4.11529,-3.72963 z m 11.77168,-3.42244 c -3.24612,0 -5.99992,2.37389 -5.99992,5.43743 0.023,0.9683 0.10964,2.16235 0.68749,4.68744 l 0,0.0625 0.0625,0.0625 c 0.1855,0.53134 0.45545,0.83529 0.81249,1.24999 0.35704,0.4147 0.7827,0.90279 1.18748,1.31248 0.0476,0.0482 0.0781,0.0781 0.12499,0.12502 0.0803,0.34932 0.17752,0.72527 0.25,1.06249 0.19284,0.8972 0.17306,1.53256 0.12501,1.74997 -1.39489,0.48977 -3.13028,1.07303 -4.68744,1.74998 -0.87422,0.38005 -1.6653,0.71943 -2.31247,1.12499 -0.64717,0.40555 -1.29079,0.71195 -1.49998,1.62498 -0.003,0.0416 -0.003,0.0834 0,0.12502 -0.20442,1.87693 -0.51363,4.63697 -0.74999,6.49991 -0.051,0.39215 0.15566,0.80553 0.49999,0.99999 2.82732,1.5272 7.17042,2.14186 11.49986,2.12497 4.32943,-0.0168 8.63794,-0.66766 11.37485,-2.12497 0.34433,-0.19446 0.55102,-0.60784 0.49999,-0.99999 -0.0755,-0.58232 -0.16816,-1.89543 -0.25,-3.18746 -0.0818,-1.29202 -0.15288,-2.56297 -0.24998,-3.31246 -0.0339,-0.18578 -0.12172,-0.36141 -0.25,-0.49999 -0.86942,-1.03818 -2.16837,-1.67283 -3.68746,-2.31247 -1.38683,-0.58395 -3.01267,-1.19036 -4.62494,-1.87497 -0.0902,-0.20102 -0.17988,-0.78586 0,-1.68748 0.0483,-0.2421 0.12394,-0.50141 0.1875,-0.74999 0.15152,-0.1697 0.26961,-0.30838 0.4375,-0.5 0.35807,-0.40868 0.74281,-0.83739 1.06248,-1.24998 0.31967,-0.41259 0.58121,-0.76654 0.74999,-1.24999 l 0.0625,-0.0625 c 0.65328,-2.63655 0.65362,-3.73674 0.6875,-4.68744 l 0,-0.0625 c 0,-3.06354 -2.7538,-5.43743 -5.99993,-5.43743 z" />
    <path
       d="m 367.29082,520.28462 c -2.22648,0 -4.11529,1.62829 -4.11529,3.72964 0.0158,0.66417 0.0752,1.48319 0.47155,3.2152 l 0,0.0429 0.0429,0.0429 c 0.12723,0.36445 0.31239,0.57294 0.55728,0.85739 0.24489,0.28444 0.53685,0.61924 0.81448,0.90025 0.0327,0.0331 0.0536,0.0535 0.0857,0.0858 0.0551,0.23961 0.12176,0.49747 0.17147,0.72878 0.13227,0.61541 0.11871,1.05122 0.0857,1.20034 -0.95674,0.33594 -2.14703,0.73601 -3.21507,1.20034 -0.59962,0.26069 -1.14221,0.49348 -1.5861,0.77165 -0.44388,0.27818 -0.88534,0.48834 -1.02882,1.11461 -0.002,0.0285 -0.002,0.0572 0,0.0858 -0.1402,1.28742 -0.35229,3.18058 -0.51441,4.45841 -0.035,0.26898 0.10676,0.55252 0.34294,0.68591 1.93923,1.04753 4.91812,1.46914 7.88764,1.45756 2.96951,-0.0116 5.92468,-0.45797 7.8019,-1.45756 0.23617,-0.13338 0.37794,-0.41693 0.34294,-0.68591 -0.0518,-0.39943 -0.11534,-1.30012 -0.17147,-2.18634 -0.0561,-0.88623 -0.10486,-1.75799 -0.17147,-2.27208 -0.0232,-0.12744 -0.0835,-0.2479 -0.17147,-0.34295 -0.59633,-0.71211 -1.48726,-1.14743 -2.52919,-1.58617 -0.95121,-0.40054 -2.06636,-0.81649 -3.1722,-1.28608 -0.0619,-0.13788 -0.12337,-0.53903 0,-1.15747 0.0331,-0.16606 0.085,-0.34392 0.12861,-0.51443 0.10392,-0.1164 0.18492,-0.21152 0.30007,-0.34296 0.2456,-0.28032 0.50949,-0.57438 0.72875,-0.85738 0.21926,-0.28301 0.39864,-0.52579 0.51441,-0.85739 l 0.0429,-0.0429 c 0.44807,-1.80846 0.44831,-2.5631 0.47155,-3.21521 l 0,-0.0429 c 0,-2.10134 -1.88881,-3.72963 -4.11529,-3.72963 z m 11.77168,-3.42244 c -3.24612,0 -5.99992,2.37389 -5.99992,5.43743 0.023,0.9683 0.10964,2.16235 0.68749,4.68744 l 0,0.0625 0.0625,0.0625 c 0.1855,0.53134 0.45545,0.83529 0.81249,1.24999 0.35704,0.4147 0.7827,0.90279 1.18748,1.31248 0.0476,0.0482 0.0781,0.0781 0.12499,0.12502 0.0803,0.34932 0.17752,0.72527 0.25,1.06249 0.19284,0.8972 0.17306,1.53256 0.12501,1.74997 -1.39489,0.48977 -3.13028,1.07303 -4.68744,1.74998 -0.87422,0.38005 -1.6653,0.71943 -2.31247,1.12499 -0.64717,0.40555 -1.29079,0.71195 -1.49998,1.62498 -0.003,0.0416 -0.003,0.0834 0,0.12502 -0.20442,1.87693 -0.51363,4.63697 -0.74999,6.49991 -0.051,0.39215 0.15566,0.80553 0.49999,0.99999 2.82732,1.5272 7.17042,2.14186 11.49986,2.12497 4.32943,-0.0168 8.63794,-0.66766 11.37485,-2.12497 0.34433,-0.19446 0.55102,-0.60784 0.49999,-0.99999 -0.0755,-0.58232 -0.16816,-1.89543 -0.25,-3.18746 -0.0818,-1.29202 -0.15288,-2.56297 -0.24998,-3.31246 -0.0339,-0.18578 -0.12172,-0.36141 -0.25,-0.49999 -0.86942,-1.03818 -2.16837,-1.67283 -3.68746,-2.31247 -1.38683,-0.58395 -3.01267,-1.19036 -4.62494,-1.87497 -0.0902,-0.20102 -0.17988,-0.78586 0,-1.68748 0.0483,-0.2421 0.12394,-0.50141 0.1875,-0.74999 0.15152,-0.1697 0.26961,-0.30838 0.4375,-0.5 0.35807,-0.40868 0.74281,-0.83739 1.06248,-1.24998 0.31967,-0.41259 0.58121,-0.76654 0.74999,-1.24999 l 0.0625,-0.0625 c 0.65328,-2.63655 0.65362,-3.73674 0.6875,-4.68744 l 0,-0.0625 c 0,-3.06354 -2.7538,-5.43743 -5.99993,-5.43743 z"
       style="font-size:medium;font-style:normal;font-variant:normal;font-weight:normal;font-stretch:normal;text-indent:0;text-align:start;text-decoration:none;line-height:normal;letter-spacing:normal;word-spacing:normal;text-transform:none;direction:ltr;block-progression:tb;writing-mode:lr-tb;text-anchor:start;baseline-shift:baseline;color:#000000;fill:#000000;fill-opacity:1;fill-rule:nonzero;stroke:none;stroke-width:1.00012147;marker:none;visibility:visible;display:inline;overflow:visible;enable-background:accumulate;font-family:Sans;-inkscape-font-specification:Sans"
       id="path3763"
       inkscape:connector-curvature="0" />
  </g>
</svg>
