<?xml version="1.0" encoding="UTF-8" standalone="no"?>
<svg xmlns:rdf="http://www.w3.org/1999/02/22-rdf-syntax-ns#" xmlns="http://www.w3.org/2000/svg" height="32" width="32" version="1.1" xmlns:cc="http://creativecommons.org/ns#" xmlns:dc="http://purl.org/dc/elements/1.1/">
 <path style="block-progression:tb;color:#000000;text-transform:none;text-indent:0" d="m9.24 6.67c-1.9549 0-3.6133 1.4297-3.6133 3.2747 0.0139 0.58316 0.066 1.3023 0.41402 2.823v0.0376l0.0377 0.0377c0.11171 0.32 0.27429 0.50305 0.4893 0.7528 0.21502 0.24974 0.47136 0.54371 0.71513 0.79045 0.0288 0.029 0.047 0.0469 0.0752 0.0753 0.0483 0.21038 0.1069 0.43679 0.15055 0.63988 0.11614 0.54034 0.10423 0.92299 0.0752 1.0539-0.84004 0.29496-1.8851 0.64623-2.8229 1.0539-0.52647 0.22889-1.0029 0.43328-1.3926 0.67751-0.38974 0.24425-0.77735 0.42877-0.90332 0.97865-0.002 0.025-0.002 0.0502 0 0.0753-0.1231 1.1304-0.30932 2.7926-0.45166 3.9146-0.0307 0.23616 0.0937 0.48512 0.3011 0.60223 1.7027 0.91975 4.3182 1.2899 6.9255 1.2798 2.6073-0.0102 5.202-0.4021 6.8502-1.2798 0.20736-0.11711 0.33184-0.36607 0.3011-0.60223-0.0454-0.35072-0.10126-1.1415-0.15055-1.9197-0.0493-0.77812-0.092-1.5435-0.15055-1.9949-0.0204-0.1119-0.0734-0.21766-0.15056-0.30112-0.52359-0.62524-1.3058-1.0075-2.2207-1.3927-0.83517-0.35169-1.8143-0.71689-2.7852-1.1292-0.0543-0.12106-0.10833-0.47327 0-1.0163 0.029-0.1458 0.0747-0.30196 0.11292-0.45168 0.0913-0.1022 0.16236-0.18571 0.26346-0.30112 0.21564-0.24614 0.44734-0.50432 0.63986-0.7528 0.19251-0.24849 0.35001-0.46165 0.45166-0.7528l0.0377-0.0376c0.39341-1.5879 0.39363-2.2504 0.41403-2.823v-0.0377c0-1.845-1.6584-3.2747-3.6133-3.2747zm10.336-3.005c-2.8502 0-5.268 2.0843-5.268 4.7742 0.0202 0.85019 0.0963 1.8986 0.60362 4.1157v0.0549l0.0549 0.0549c0.16287 0.46651 0.39989 0.73339 0.71338 1.0975s0.68722 0.79267 1.0426 1.1524c0.0418 0.0423 0.0686 0.0686 0.10975 0.10977 0.0705 0.3067 0.15586 0.63679 0.21951 0.93288 0.16931 0.78776 0.15194 1.3456 0.10976 1.5365-1.2247 0.43004-2.7484 0.94215-4.1156 1.5365-0.76758 0.3337-1.4622 0.63168-2.0304 0.98778-0.56823 0.35608-1.1333 0.6251-1.317 1.4268-0.003 0.0365-0.003 0.0733 0 0.10977-0.17948 1.648-0.45098 4.0713-0.6585 5.707-0.0448 0.34431 0.13667 0.70727 0.439 0.87801 2.4824 1.3409 6.2957 1.8806 10.097 1.8658s7.5842-0.58622 9.9873-1.8658c0.30232-0.17074 0.4838-0.5337 0.439-0.87801-0.0663-0.51129-0.14765-1.6642-0.21951-2.7986-0.0719-1.1344-0.13422-2.2504-0.21948-2.9084-0.0298-0.16311-0.10688-0.31733-0.2195-0.43899-0.76337-0.91154-1.9039-1.4688-3.2376-2.0304-1.2177-0.51271-2.6452-1.0452-4.0608-1.6462-0.0791-0.1765-0.15794-0.69001 0-1.4816 0.0424-0.21256 0.10883-0.44024 0.16463-0.65849 0.13304-0.14901 0.23672-0.27077 0.38413-0.43901 0.3144-0.35883 0.6522-0.73526 0.93288-1.0975 0.28067-0.36226 0.51031-0.67304 0.65849-1.0975l0.0549-0.0549c0.57359-2.3149 0.57389-3.2809 0.60364-4.1157v-0.0549c0-2.6898-2.4179-4.7742-5.268-4.7742z"/>
</svg>
