<svg viewBox="0 0 16 16" height="16" width="16" xmlns="http://www.w3.org/2000/svg" xml:space="preserve" style="fill-rule:evenodd;clip-rule:evenodd;stroke-linejoin:round;stroke-miterlimit:2"><path d="m9.25 22-.4-3.2a3.653 3.653 0 0 1-.612-.3 8.091 8.091 0 0 1-.563-.375L4.7 19.375l-2.75-4.75 2.575-1.95a2.392 2.392 0 0 1-.025-.338v-.674c0-.109.008-.221.025-.338L1.95 9.375l2.75-4.75 2.975 1.25c.183-.133.375-.258.575-.375.2-.117.4-.217.6-.3l.4-3.2h5.5l.4 3.2c.217.083.421.183.613.3.191.117.379.242.562.375l2.975-1.25 2.75 4.75-2.575 1.95c.017.117.025.229.025.338v.674c0 .109-.017.221-.05.338l2.575 1.95-2.75 4.75-2.95-1.25a6.83 6.83 0 0 1-.575.375c-.2.117-.4.217-.6.3l-.4 3.2h-5.5Zm2.8-6.5c.967 0 1.792-.342 2.475-1.025A3.374 3.374 0 0 0 15.55 12c0-.967-.342-1.792-1.025-2.475A3.374 3.374 0 0 0 12.05 8.5c-.983 0-1.812.342-2.487 1.025A3.396 3.396 0 0 0 8.55 12c0 .967.338 1.792 1.013 2.475.675.683 1.504 1.025 2.487 1.025Z" style="fill:#fff;fill-rule:nonzero" transform="matrix(.75 0 0 .75 -.963 -1)"/></svg>