<svg xmlns="http://www.w3.org/2000/svg" width="16" height="16"><path d="M6.94.5C6.7.5 6.5.7 6.5.94V2.2c-.5.14-1.05.35-1.53.65l-.91-.91a.416.416 0 0 0-.62 0l-1.5 1.5c-.18.17-.18.46 0 .62l.91.91c-.284.48-.5 1-.65 1.53H.94c-.24 0-.44.2-.44.44v2.12c0 .25.19.44.44.44H2.2c.14.54.36 1.05.65 1.53l-.91.91c-.18.17-.18.45 0 .62l1.5 1.5c.18.18.46.18.62 0l.91-.91c.48.285 1 .5 1.53.65v1.26c0 .25.2.44.44.44h2.12c.24 0 .45-.2.44-.44V13.8c.54-.14 1.05-.36 1.53-.65l.91.91c.17.18.45.18.62 0l1.5-1.5c.18-.17.18-.45 0-.62l-.91-.91c.29-.48.5-1 .65-1.53h1.26c.24 0 .45-.2.44-.44V6.94c0-.24-.2-.44-.44-.44H13.8c-.14-.54-.36-1.05-.65-1.53l.91-.91c.18-.17.18-.45 0-.62l-1.5-1.5a.423.423 0 0 0-.62 0l-.91.91c-.48-.29-1-.5-1.53-.65V.94C9.5.7 9.3.5 9.06.5H6.94zM8 4.5A3.5 3.5 0 0 1 11.5 8 3.5 3.5 0 0 1 8 11.5 3.5 3.5 0 0 1 4.5 8 3.5 3.5 0 0 1 8 4.5z" style="fill:#fff"/></svg>
