<?xml version="1.0" encoding="UTF-8" standalone="no"?>
<svg xmlns:rdf="http://www.w3.org/1999/02/22-rdf-syntax-ns#" xmlns="http://www.w3.org/2000/svg" height="16" width="16" version="1.0" xmlns:cc="http://creativecommons.org/ns#" xmlns:dc="http://purl.org/dc/elements/1.1/">
 <rect style="color:#000000" fill-opacity="0" height="97.986" width="163.31" y="-32.993" x="-62.897"/>
 <path opacity=".7" style="block-progression:tb;color:#000000;text-transform:none;text-indent:0" d="m3.3501 1.002c-0.1975 0.0382-0.3535 0.2333-0.35 0.4374v13.123c0.0000047 0.22904 0.20522 0.43743 0.43077 0.43744h10.139c0.22555-0.000006 0.43076-0.2084 0.43077-0.43744v-10.143c-0.004-0.06684-0.022-0.13284-0.054-0.19134-0.966-1.3896-2.035-2.4191-3.312-3.1988-0.043-0.0164-0.088-0.0256-0.134-0.0274h-7.0695c-0.026843-0.0026-0.053928-0.0026-0.080774 0zm5.6499 2.498c0-0.2357 0.2643-0.5 0.5-0.5h0.5v2h2v0.5c0 0.2357-0.264 0.5-0.5 0.5h-2c-0.2357 0-0.5-0.2643-0.5-0.5 0-0.46411 0.0000019-1.4917 0.0000019-2z" fill="#1e1e1e"/>
</svg>
