<?xml version="1.0" encoding="UTF-8" standalone="no"?>
<svg xmlns:rdf="http://www.w3.org/1999/02/22-rdf-syntax-ns#" xmlns="http://www.w3.org/2000/svg" height="32" width="32" version="1.1" xmlns:cc="http://creativecommons.org/ns#" xmlns:xlink="http://www.w3.org/1999/xlink" xmlns:dc="http://purl.org/dc/elements/1.1/">
 <g transform="translate(573.14 110.3)" fill-rule="evenodd">
  <path d="m-570.22-108.3c-0.50115 0-0.92082 0.41966-0.92082 0.92081v24.158c0 0.51739 0.40324 0.92073 0.92082 0.92073h26.158c0.51756 0 0.92081-0.40316 0.92081-0.92073l0.00069-14.154c0-0.5011-0.41966-0.92524-0.92081-0.92524h-21.079l-0.0007 11.005c0 0.48012-0.52409 0.97706-1.0042 0.97706-0.48012 0-0.99573-0.49694-0.99573-0.97706l0.0007-12.143c0-0.48012 0.40484-0.86215 0.88497-0.86215h4.5944l14.521 0.00052-0.0007-2.9516c0-0.56713-0.42551-1.0481-0.99245-1.0481h-13.007v-3.0791c0-0.50118-0.40586-0.92081-0.90701-0.92081z"/>
  <path d="m-570.22-107.3c-0.50115 0-0.92082 0.41966-0.92082 0.92081v24.158c0 0.51739 0.40324 0.92073 0.92082 0.92073h26.158c0.51756 0 0.92081-0.40316 0.92081-0.92073l0.00069-14.154c0-0.5011-0.41966-0.92524-0.92081-0.92524h-21.079l-0.0007 11.005c0 0.48012-0.52409 0.97706-1.0042 0.97706-0.48012 0-0.99573-0.49694-0.99573-0.97706l0.0007-12.143c0-0.48012 0.40484-0.86214 0.88497-0.86214h4.5944l14.521 0.00052-0.0007-2.9516c0-0.56713-0.42551-1.0481-0.99245-1.0481h-13.007v-3.0791c0-0.50118-0.40586-0.92081-0.90701-0.92081z" fill="#fff"/>
 </g>
</svg>
