<?xml version="1.0" encoding="UTF-8" standalone="no"?>
<svg xmlns:rdf="http://www.w3.org/1999/02/22-rdf-syntax-ns#" xmlns="http://www.w3.org/2000/svg" height="16" width="16" version="1.0" xmlns:cc="http://creativecommons.org/ns#" xmlns:dc="http://purl.org/dc/elements/1.1/">
 <defs>
  <linearGradient id="a" y2="1013.5" gradientUnits="userSpaceOnUse" x2="209.34" y1="998.46" x1="209.34">
   <stop offset="0"/>
   <stop stop-color="#363636" offset="1"/>
  </linearGradient>
 </defs>
 <g transform="translate(-7.5118e-7 40)" fill-rule="evenodd">
  <g opacity=".6" transform="matrix(.86667 0 0 .86667 -172.04 -903.43)" fill="#fff">
   <path fill-rule="evenodd" d="m200.2 998.57c-0.28913 0-0.53125 0.24212-0.53125 0.53125v13.938c0 0.2985 0.23264 0.5312 0.53125 0.5312h15.091c0.2986 0 0.53125-0.2326 0.53125-0.5312l0.0004-8.166c0-0.2891-0.24212-0.5338-0.53125-0.5338h-12.161l-0.0004 6.349c0 0.277-0.30237 0.5637-0.57937 0.5637s-0.57447-0.2867-0.57447-0.5637l0.0004-7.0056c0-0.277 0.23357-0.4974 0.51057-0.4974h2.6507l8.3774 0.0003-0.0004-1.7029c0-0.3272-0.24549-0.6047-0.57258-0.6047h-7.5043v-1.7764c0-0.28915-0.23415-0.53125-0.52328-0.53125z" fill="#fff"/>
  </g>
  <g opacity=".7" transform="matrix(.86667 0 0 .86667 -172.04 -904.43)" fill="url(#a)">
   <path fill-rule="evenodd" d="m200.2 998.57c-0.28913 0-0.53125 0.24212-0.53125 0.53125v13.938c0 0.2985 0.23264 0.5312 0.53125 0.5312h15.091c0.2986 0 0.53125-0.2326 0.53125-0.5312l0.0004-8.166c0-0.2891-0.24212-0.5338-0.53125-0.5338h-12.161l-0.0004 6.349c0 0.277-0.30237 0.5637-0.57937 0.5637s-0.57447-0.2867-0.57447-0.5637l0.0004-7.0056c0-0.277 0.23357-0.4974 0.51057-0.4974h2.6507l8.3774 0.0003-0.0004-1.7029c0-0.3272-0.24549-0.6047-0.57258-0.6047h-7.5043v-1.7764c0-0.28915-0.23415-0.53125-0.52328-0.53125z" fill="url(#a)"/>
  </g>
 </g>
</svg>
