<svg xmlns="http://www.w3.org/2000/svg" height="32" width="32" version="1"><path d="M16 4C9.373 4 4 9.373 4 16s5.373 12 12 12 12-5.373 12-12S22.627 4 16 4zm1.375 1.53c2.06.047 3.88 1.284 5.72 2.095l2.968 4.11-.47 1.765.907.563-.015 2.093c-.02.6.008 1.2-.016 1.797-.286 1.136-.945 2.17-1.5 3.203-.378.186.034-1.23-.204-1.672.055-1.017-.807-.97-1.39-.405-.722.42-2.308.547-2.36-.595-.41-1.37-.06-2.833.5-4.11l-.92-1.124.326-2.89-1.47-1.484.346-1.625-1.72-.968c-.338-.266-.983-.37-1.124-.734.14-.008.284-.02.422-.016zm-4.22.017c.055.008.12.045.22.125.58.318-.14.68-.312 1.016-.926.626.284 1.138.687 1.64.646-.185 1.292-1.108 2.234-.828 1.206-.376 1.014 1.01 1.703 1.625.09.29 1.51 1.232.657.922-.702-.544-1.483-.503-1.985.28-1.356.736-.553-1.413-1.203-1.936-.982-1.095-.57.82-.687 1.392-.64-.014-1.83-.492-2.485.28l.64 1.048.766-1.172c.187-.424.42.33.626.47.246.472 1.41 1.273.532 1.5-1.304.722-2.33 1.82-3.438 2.796-.374.788-1.137.698-1.61.047-1.143-.703-1.058 1.126-1 1.813l1.002-.626v1.03c-.028.196-.004.4-.016.595-.7.732-1.406-1.027-2.015-1.422l-.046-2.578c.022-.724-.13-1.466.016-2.172 1.377-1.48 2.777-3.01 3.593-4.89h1.344c.94.454.404-1.01.78-.954zm-1.983 13.406a.955.955 0 0 1 .547.125c1.264.18 2.21 1.1 3.218 1.797.803.796 2.542.54 2.734 1.89-.292 1.464-1.732 2.25-3 2.766a3.132 3.132 0 0 1-1.015.377c-1.176.293-1.684-.912-1.922-1.814-.532-1.114-1.862-1.958-1.672-3.327.03-.68.403-1.738 1.11-1.813z" fill="#333"/></svg>