<?xml version="1.0" encoding="UTF-8" standalone="no"?>
<svg xmlns:rdf="http://www.w3.org/1999/02/22-rdf-syntax-ns#" xmlns="http://www.w3.org/2000/svg" height="32" width="32" version="1.0" xmlns:cc="http://creativecommons.org/ns#" xmlns:dc="http://purl.org/dc/elements/1.1/">
 <path d="m16 4c-6.6274 0-12 5.3726-12 12 0 6.627 5.3726 12 12 12 6.627 0 12-5.373 12-12 0-6.6274-5.373-12-12-12zm1.375 1.5313c2.059 0.0457 3.879 1.2826 5.719 2.0938l2.9691 4.1093-0.46971 1.7657 0.90686 0.56246-0.01543 2.0937c-0.02074 0.59892 0.0086 1.1986-0.0156 1.7969-0.28517 1.1355-0.94394 2.1713-1.5 3.2031-0.37695 0.18585 0.03437-1.2317-0.20313-1.6719 0.05486-1.0173-0.80743-0.97029-1.3903-0.40526-0.72172 0.42068-2.3074 0.54754-2.3589-0.59383-0.40972-1.3716-0.06-2.833 0.49886-4.1093l-0.921-1.125 0.327-2.891-1.469-1.4839 0.345-1.6252-1.719-0.9687c-0.339-0.2661-0.984-0.3713-1.125-0.7344 0.13954-0.00789 0.28457-0.018686 0.42189-0.0156zm-4.2187 0.015634c0.0539 0.00789 0.11999 0.045309 0.21874 0.125 0.57943 0.31834-0.14143 0.67954-0.31251 1.0157-0.92537 0.62589 0.28457 1.1385 0.68743 1.6406 0.64577-0.18549 1.2917-1.1086 2.2344-0.828 1.2058-0.37629 1.0137 1.0099 1.7031 1.625 0.08948 0.28954 1.5086 1.2317 0.65623 0.92177-0.702-0.54411-1.4827-0.50314-1.9845 0.28131-1.355 0.735-0.552-1.4144-1.202-1.9373-0.982-1.0957-0.57 0.8186-0.687 1.3907-0.639-0.0139-1.831-0.4913-2.485 0.2816l0.64046 1.0467 0.76577-1.1719c0.186-0.42411 0.41949 0.32966 0.62486 0.46886 0.24531 0.47297 1.4109 1.2744 0.53126 1.5-1.3039 0.72326-2.3295 1.8202-3.4375 2.7969-0.37371 0.78857-1.1366 0.6984-1.6094 0.0468-1.1438-0.70372-1.0589 1.1256-0.99994 1.8125l1.0013-0.626v1.0312c-0.028286 0.19509-0.00411 0.39806-0.0156 0.59383-0.70063 0.732-1.4069-1.0277-2.0157-1.422l-0.0468-2.5781c0.022114-0.72429-0.1308-1.4659 0.0156-2.1718 1.3779-1.4789 2.7775-3.0107 3.5935-4.891h1.3437c0.93909 0.45497 0.40406-1.0082 0.7812-0.95314zm-1.984 13.406c0.16303-0.01739 0.34848 0.01984 0.54688 0.12501 1.265 0.18106 2.2109 1.0987 3.2187 1.7969 0.80352 0.79632 2.5419 0.54134 2.7345 1.8907-0.29248 1.4636-1.7323 2.2495-3 2.7657-0.31646 0.17657-0.65657 0.31714-1.0157 0.37543-1.1753 0.29314-1.6834-0.912-1.9219-1.8137-0.53212-1.1143-1.8621-1.9577-1.6718-3.3274 0.0312-0.68057 0.40286-1.7373 1.1093-1.8125z" fill="#333"/>
</svg>
