<svg xmlns="http://www.w3.org/2000/svg" width="16" height="16" viewbox="0 0 16 16"><path d="M7.4 0C3.3 0 0 3.3 0 7.4s3.3 7.4 7.4 7.4 7.4-3.3 7.4-7.4S11.5 0 7.4 0zm.8.9c1.3 0 2.4.8 3.5 1.3l1.8 2.5-.3 1.1.6.3V8.5c-.2.7-.6 1.3-.9 2-.2.1 0-.8-.1-1 0-.6-.5-.6-.9-.2-.4.3-1.4.3-1.5-.4-.3-.8 0-1.7.3-2.5l-.6-.7.2-1.8-.8-.9.2-1-1-.6c-.2-.2-.6-.2-.7-.4.1 0 .2-.1.2-.1zM5.6 1s.1 0 .1.1c.4.2-.1.4-.2.6-.5.3.3.7.5 1 .4-.1.8-.7 1.4-.5.7-.2.6.6 1.1 1 .1.2.9.8.4.6-.5-.4-1-.4-1.3.1-.8.5-.3-.9-.7-1.2-.6-.7-.4.5-.4.9-.4 0-1.1-.3-1.5.2l.4.6.5-.7c0-.3.1.2.3.3.1.2.8.7.3.9-.8.4-1.4 1.1-2.1 1.7-.2.5-.7.4-1 0-.7-.4-.7.7-.6 1.1l.6-.4v1.1c-.4.4-.9-.7-1.3-.9V5.9c0-.4-.1-.9 0-1.3.8-.9 1.7-1.9 2.2-3h.8c.6.2.3-.7.5-.6zM4.4 9.2c.1 0 .2 0 .3.1.8.1 1.4.7 2 1.1.5.5 1.6.3 1.7 1.2-.2.9-1.1 1.4-1.8 1.7-.2.1-.4.2-.6.2-.7.2-1-.6-1.2-1.1-.3-.7-1.1-1.2-1-2.1 0-.4.2-1 .6-1.1z"/></svg>