<?xml version="1.0" encoding="UTF-8" standalone="no"?>
<svg xmlns:rdf="http://www.w3.org/1999/02/22-rdf-syntax-ns#" xmlns="http://www.w3.org/2000/svg" height="32" width="32" version="1.1" xmlns:cc="http://creativecommons.org/ns#" xmlns:dc="http://purl.org/dc/elements/1.1/">
 <path d="m26.72 1.0021c-4.714 0.7597-11.023 1.5417-15.724 2.3438-1.2449 0.6074-0.965 2.1714-1.0201 3.3062v15.192c-2.6235-0.49322-5.8227 1.6745-5.9615 5.1068-0.2265 2.1369 1.6684 3.9969 3.729 4.0469 3.6893 0.08956 6.2126-2.3582 6.2526-5.4537-0.0402-5.1988 0.012-10.4 0-15.599 0.57116-0.0423 9.222-1.693 10-1.8029v11.683c-2.2928-0.54927-5.2238 0.95744-5.9505 4.0345-0.30674 1.7248 0.273 3.8897 2.0231 4.62 3.4164 1.5699 8.1065-1.6101 7.9158-5.3421-0.053-6.9323 0.0434-13.868 0-20.801-0.09-0.6519-0.532-1.3816-1.265-1.3346z" fill="#FFF"/>
</svg>
