<?xml version="1.0" encoding="UTF-8" standalone="no"?>
<svg xmlns:rdf="http://www.w3.org/1999/02/22-rdf-syntax-ns#" xmlns="http://www.w3.org/2000/svg" version="1.1" xml:space="preserve" height="128" width="128" enable-background="new 0 0 595.275 311.111" y="0px" x="0px" xmlns:cc="http://creativecommons.org/ns#" xmlns:dc="http://purl.org/dc/elements/1.1/" viewBox="0 0 128 127.99999"><rect rx="20" ry="20" height="128" width="128" y="-.0000015" x="0" fill="#745bca"/><path d="m64 24a36 36 0 0 0 -35.758 32.016 20 20 0 0 0 -0.2422 -0.0156 20 20 0 0 0 -20 20 20 20 0 0 0 20 20h36 32a24 24 0 0 0 24 -24 24 24 0 0 0 -22.07 -23.906 36 36 0 0 0 -33.93 -24.094zm0 12a24 24 0 0 1 24 24 24 24 0 0 1 -24 24 24 24 0 0 1 -24 -24 24 24 0 0 1 24 -24z" fill="#fff"/></svg>
