<?xml version="1.0" encoding="UTF-8" standalone="no"?>
<svg xmlns:rdf="http://www.w3.org/1999/02/22-rdf-syntax-ns#" xmlns="http://www.w3.org/2000/svg" version="1.1" xml:space="preserve" height="32" width="32" enable-background="new 0 0 595.275 311.111" y="0px" x="0px" xmlns:cc="http://creativecommons.org/ns#" xmlns:dc="http://purl.org/dc/elements/1.1/" viewBox="0 0 32 31.999997"><rect rx="5" ry="5" height="32" width="32" y="-.0000052588" x="0" fill="#745bca"/><path d="m16 6a9 9 0 0 0 -8.9395 8.004 5 5 0 0 0 -0.0605 -0.004 5 5 0 0 0 -5 5 5 5 0 0 0 5 5h9 8a6 6 0 0 0 6 -6 6 6 0 0 0 -5.518 -5.977 9 9 0 0 0 -8.482 -6.023zm0 3a6 6 0 0 1 6 6 6 6 0 0 1 -6 6 6 6 0 0 1 -6 -6 6 6 0 0 1 6 -6z" transform="translate(0 -.0000019073)" fill="#fff"/></svg>
