<?xml version="1.0" encoding="UTF-8" standalone="no"?>
<svg xmlns:rdf="http://www.w3.org/1999/02/22-rdf-syntax-ns#" xmlns="http://www.w3.org/2000/svg" enable-background="new 0 0 595.275 311.111" xml:space="preserve" height="34" width="62" version="1.1" y="0px" x="0px" xmlns:cc="http://creativecommons.org/ns#" xmlns:dc="http://purl.org/dc/elements/1.1/" viewBox="0 0 62.001102 34"><path d="m31.001 2.9997a13.5 13.5 0 0 0 -13.409 12.006 7.5001 7.5001 0 0 0 -0.09082 -0.0058 7.5001 7.5001 0 0 0 -7.5001 7.5001 7.5001 7.5001 0 0 0 7.5001 7.5001h13.5 12a9.0002 9.0002 0 0 0 9 -9 9.0002 9.0002 0 0 0 -8.277 -8.965 13.5 13.5 0 0 0 -12.723 -9.0353zm0 4.5001a9.0002 9.0002 0 0 1 9.0002 9.0002 9.0002 9.0002 0 0 1 -9.0002 9.0002 9.0002 9.0002 0 0 1 -9.0002 -9.0002 9.0002 9.0002 0 0 1 9.0002 -9.0002z" fill="#fff"/></svg>
