<svg viewBox="0 0 16 16" height="16" width="16" xmlns="http://www.w3.org/2000/svg" xml:space="preserve" style="fill-rule:evenodd;clip-rule:evenodd;stroke-linejoin:round;stroke-miterlimit:2"><path d="M18 22a2.894 2.894 0 0 1-2.125-.875A2.894 2.894 0 0 1 15 19c0-.117.008-.237.025-.362a1.9 1.9 0 0 1 .075-.338l-7.05-4.1c-.283.25-.6.446-.95.588-.35.141-.717.212-1.1.212a2.894 2.894 0 0 1-2.125-.875A2.894 2.894 0 0 1 3 12c0-.833.292-1.542.875-2.125A2.894 2.894 0 0 1 6 9c.383 0 .75.071 1.1.212.35.142.667.338.95.588l7.05-4.1a1.888 1.888 0 0 1-.075-.337A2.691 2.691 0 0 1 15 5c0-.833.292-1.542.875-2.125A2.894 2.894 0 0 1 18 2c.833 0 1.542.292 2.125.875S21 4.167 21 5s-.292 1.542-.875 2.125A2.894 2.894 0 0 1 18 8a2.9 2.9 0 0 1-1.1-.213 3.273 3.273 0 0 1-.95-.587L8.9 11.3c.033.1.058.212.075.337a2.691 2.691 0 0 1 0 .725 1.9 1.9 0 0 1-.075.338l7.05 4.1c.283-.25.6-.446.95-.588.35-.141.717-.212 1.1-.212.833 0 1.542.292 2.125.875S21 18.167 21 19s-.292 1.542-.875 2.125A2.894 2.894 0 0 1 18 22Z" style="fill:#fff;fill-rule:nonzero" transform="matrix(.7 0 0 .7 -.5 -.378)"/></svg>