<svg xmlns="http://www.w3.org/2000/svg" xml:space="preserve" style="fill-rule:evenodd;clip-rule:evenodd;stroke-linejoin:round;stroke-miterlimit:2" viewBox="0 0 16 16" width="16" height="16"><path d="M480-480c22 0 40.833-7.833 56.5-23.5C552.167-519.167 560-538 560-560s-7.833-40.833-23.5-56.5C520.833-632.167 502-640 480-640s-40.833 7.833-56.5 23.5C407.833-600.833 400-582 400-560s7.833 40.833 23.5 56.5C439.167-487.833 458-480 480-480Zm0 294c81.333-74.667 141.667-142.5 181-203.5s59-115.167 59-162.5c0-72.667-23.167-132.167-69.5-178.5S547.333-800 480-800s-124.167 23.167-170.5 69.5S240-624.667 240-552c0 47.333 19.667 101.5 59 162.5S398.667-260.667 480-186Zm0 106c-107.333-91.333-187.5-176.167-240.5-254.5S160-485.333 160-552c0-100 32.167-179.667 96.5-239s138.833-89 223.5-89 159.167 29.667 223.5 89S800-652 800-552c0 66.667-26.5 139.167-79.5 217.5S587.333-171.333 480-80Z" style="fill-rule:nonzero" transform="translate(-.4 16.4) scale(.0175)"/></svg>