<svg viewBox="0 0 15 15" height="15" width="15" xmlns="http://www.w3.org/2000/svg" xml:space="preserve" style="fill-rule:evenodd;clip-rule:evenodd;stroke-linejoin:round;stroke-miterlimit:2"><path d="M1 21 12 2l11 19H1Zm3.45-2h15.1L12 6 4.45 19ZM12 18a.972.972 0 0 0 .713-.287A.972.972 0 0 0 13 17a.968.968 0 0 0-.287-.712A.969.969 0 0 0 12 16a.965.965 0 0 0-.712.288A.965.965 0 0 0 11 17c0 .283.096.521.288.713A.968.968 0 0 0 12 18Zm-1-3h2v-5h-2v5Z" style="fill-rule:nonzero" transform="matrix(.63636 0 0 .63636 -.136 .227)"/></svg>