<svg viewBox="0 0 16 16" height="16" width="16" xmlns="http://www.w3.org/2000/svg" xml:space="preserve" style="fill-rule:evenodd;clip-rule:evenodd;stroke-linejoin:round;stroke-miterlimit:2"><path d="m2.49 3.838 10.1 10.1-1.031 1.03-2.584-2.583a4.797 4.797 0 0 1-1.225.322v2.282H6.278v-2.282c-1.276-.172-2.331-.74-3.165-1.702-.834-.964-1.252-2.09-1.252-3.378h1.473c0 1.018.359 1.887 1.077 2.605a3.55 3.55 0 0 0 2.603 1.076c.276 0 .542-.028.799-.085L1.459 4.87l1.03-1.03Zm8.757 6.697L10.18 9.468c.171-.282.3-.577.386-.884.086-.307.129-.626.129-.957h1.472c0 .54-.08 1.052-.239 1.537-.16.485-.386.942-.68 1.37ZM9.076 8.327l-4.27-4.27V3.21c0-.613.215-1.135.644-1.564a2.13 2.13 0 0 1 1.564-.644 2.13 2.13 0 0 1 1.565.644c.429.43.644.951.644 1.564v4.417c0 .135-.016.258-.046.368-.03.11-.065.221-.101.332Z"/></svg>