<?xml version="1.0" encoding="UTF-8" standalone="no"?>
<svg xmlns="http://www.w3.org/2000/svg" height="16" width="16" version="1.1" viewBox="0 0 16 16">
 <path d="m8 1c-1.108 0-2 0.892-2 2v4c0 0.0535 0.0115 0.1038 0.0156 0.1562l3.9844-3.9824v-0.1738c0-1.108-0.892-2-2-2zm4.486 1.5137c-0.127 0-0.256 0.0233-0.377 0.0722-0.119 0.0488-0.232 0.1232-0.33 0.2207l-8.486 8.4844c-0.1959 0.196-0.293 0.453-0.293 0.709s0.0971 0.511 0.293 0.707c0.1958 0.196 0.4509 0.293 0.707 0.293s0.5131-0.097 0.709-0.293l8.484-8.4863c0.098-0.0975 0.172-0.2103 0.221-0.3301v-0.0019c0.147-0.361 0.073-0.7883-0.221-1.0821-0.196-0.1958-0.451-0.2929-0.707-0.2929zm-8.486 2.4863c-0.554 0-1 0.446-1 1v1a4.988 4.988 0 0 0 0.6719 2.5l1.5078-1.5078c-0.1093-0.3119-0.1797-0.6421-0.1797-0.9922v-1c0-0.554-0.446-1-1-1zm8.973 0.8594l-2.161 2.1582c-0.301 0.8367-0.9577 1.4934-1.7944 1.7949l-2.0742 2.0745a4.988 4.988 0 0 0 0.0566 0.013v1.1h-1.1699l-0.4141 0.414c-0.125 0.125-0.2683 0.222-0.416 0.307v1.279h6v-2h-2v-1.1c2.287-0.46 4-2.473 4-4.9v-1c0-0.0498-0.02-0.0928-0.027-0.1406z"/>
</svg>
