<svg xmlns="http://www.w3.org/2000/svg" height="16" width="16" version="1.1" viewBox="0 0 16 16"><path d="m5 3v3.5c0 0.21626 0.0337 0.40866 0.082028 0.58984l3.9178-3.9179v-0.1719c0-2.673-4-2.6707-4 0zm5.2832 0.3027-7.9803 7.9803c-0.91785 0.91785 0.50035 2.3441 1.414 1.4141l7.9803-7.9802c0.916-0.9163-0.493-2.3349-1.414-1.4141zm-8.283 2.6973c0 1.2904 0.3648 2.371 0.9374 3.2344l1.4492-1.4492c-0.2349-0.4922-0.3867-1.0781-0.3867-1.7852 0-1.3274-2-1.326-2 0zm9.9721-0.14453-5.9723 5.9727v1.1719h-1.1718l-0.40427 0.4043c-0.12553 0.13-0.2681 0.24231-0.42381 0.334v1.2617h6v-2h-2v-1.625c2.1244-0.466 4-2.3973 4-5.375 0-0.055-0-0.0941-0.028-0.1445z"/></svg>
