<svg viewBox="0 0 16 16" height="16" width="16" xmlns="http://www.w3.org/2000/svg" xml:space="preserve" style="fill-rule:evenodd;clip-rule:evenodd;stroke-linejoin:round;stroke-miterlimit:2"><path d="M12.05 20c-2.233 0-4.133-.775-5.7-2.325C4.783 16.125 4 14.233 4 12v-.175l-1.6 1.6-1.4-1.4 4-4 4 4-1.4 1.4-1.6-1.6V12c0 1.667.588 3.083 1.763 4.25C8.938 17.417 10.367 18 12.05 18c.433 0 .858-.05 1.275-.15.417-.1.825-.25 1.225-.45l1.5 1.5a8.212 8.212 0 0 1-1.95.825 7.711 7.711 0 0 1-2.05.275ZM19 15.975l-4-4 1.4-1.4 1.6 1.6V12c0-1.667-.587-3.083-1.762-4.25C15.063 6.583 13.633 6 11.95 6c-.433 0-.858.05-1.275.15-.417.1-.825.25-1.225.45l-1.5-1.5a8.212 8.212 0 0 1 1.95-.825A7.711 7.711 0 0 1 11.95 4c2.233 0 4.133.775 5.7 2.325C19.217 7.875 20 9.767 20 12v.175l1.6-1.6 1.4 1.4-4 4Z" style="fill-rule:nonzero" transform="matrix(.68182 0 0 .68182 -.182 -.227)"/></svg>