<svg width="16" height="16" version="1.1" viewbox="0 0 16 16" xmlns="http://www.w3.org/2000/svg"><path d="m13 15h-11l5e-4 -10h11v3.0002l1-4e-4 5e-4 -5.0001c5.8e-5 -0.5834-0.4165-1.0002-1.0005-1.0001l-3.467 5e-4c8e-4 -1.183-0.9492-2.0001-2.1325-2.0001s-2.1333 0.8171-2.1333 2.0004h-3.2c-0.5834 0-1.0662 0.4166-1.0662 0.9999l-5e-4 12c-2.43e-5 0.584 0.4833 1 1.0667 1l10.933-5e-4c0.584-1e-3 1-0.416 1-1v-3h-1zm-8.8005-12h1.0672c0.5833 0 1.0666-0.4162 1.0666-0.9996 0-0.5833 0.4834-0.9337 1.0667-0.9337s1.0667 0.3504 1.0667 0.9337c0 0.5834 0.5333 0.9996 1.0666 0.9996h1.2667c0.517 0 1.2 0.4166 1.2 1h-9c-4e-4 -0.65 0.5988-1 1.1988-1zm-1.1995 8h2v-1h-2zm7.9998-2v-2l-4 3 3.9998 3v-2l5.0002-5e-5v-2l-4.9998-5e-5zm-8 4h4v-1h-4zm6-7h-6v1h6zm-3 2h-3v1h3z"/></svg>
