<?xml version="1.0" encoding="UTF-8" standalone="no"?>
<svg xmlns="http://www.w3.org/2000/svg" xml:space="preserve" height="16px" width="16px" version="1.1" y="0px" x="0px" xmlns:xlink="http://www.w3.org/1999/xlink" viewBox="0 0 100 100">
<path d="m50 89.836c-23.389 0-42.418-19.027-42.418-42.417s19.029-42.419 42.418-42.419 42.418 19.029 42.418 42.419-19.029 42.417-42.418 42.417zm0-79.924c-20.681 0-37.506 16.826-37.506 37.508 0 20.681 16.826 37.505 37.506 37.505s37.507-16.824 37.507-37.505c0-20.683-16.826-37.508-37.507-37.508z"/>
<path d="m50.001 49.875c-0.141 0-0.283-0.011-0.427-0.037-1.173-0.206-2.03-1.226-2.03-2.419v-17.977c0-1.355 1.1-2.456 2.456-2.456 1.355 0 2.456 1.1 2.456 2.456v4.003l5.431-14.974c0.464-1.274 1.872-1.937 3.146-1.471 1.274 0.462 1.934 1.871 1.471 3.146l-10.195 28.11c-0.357 0.985-1.29 1.619-2.308 1.619z"/>
<circle cy="12.956" cx="49.999" r="1.617"/>
<path d="m50 14.778c-1.006 0-1.823-0.817-1.823-1.823 0-1.005 0.817-1.823 1.823-1.823 1.004 0 1.821 0.817 1.821 1.823s-0.817 1.823-1.821 1.823zm0-3.236c-0.779 0-1.414 0.635-1.414 1.413 0 0.779 0.635 1.414 1.414 1.414s1.412-0.635 1.412-1.414c0-0.778-0.633-1.413-1.412-1.413z"/>
<circle cy="20.301" cx="34.343" r="1.47"/>
<path d="m23.617 30.488c0.703 0.409 0.945 1.305 0.537 2.008-0.405 0.704-1.305 0.947-2.007 0.538-0.703-0.403-0.945-1.305-0.539-2.008 0.408-0.701 1.305-0.941 2.009-0.538z"/>
<circle cy="47.42" cx="15.536" r="1.618"/>
<path d="m15.536 49.242c-1.006 0-1.823-0.817-1.823-1.823 0.001-1 0.819-1.819 1.823-1.822 1.006 0 1.823 0.817 1.823 1.822 0 1.006-0.817 1.823-1.823 1.823zm0-3.236c-0.777 0.003-1.412 0.636-1.414 1.413 0 0.779 0.635 1.414 1.414 1.414s1.413-0.635 1.413-1.414c0-0.778-0.634-1.413-1.413-1.413z"/>
<path d="m22.147 61.803c0.705-0.406 1.602-0.167 2.007 0.537 0.408 0.703 0.166 1.602-0.537 2.008-0.704 0.406-1.604 0.163-2.008-0.537-0.407-0.707-0.162-1.602 0.538-2.008z"/>
<path d="m33.07 73.803c0.408-0.706 1.305-0.946 2.008-0.537 0.704 0.403 0.945 1.302 0.538 2.005-0.405 0.704-1.307 0.947-2.007 0.537-0.705-0.406-0.942-1.301-0.539-2.005z"/>
<path d="m48.382 81.884c0-0.896 0.725-1.618 1.618-1.618 0.892-0.003 1.618 0.723 1.618 1.618 0 0.892-0.728 1.618-1.618 1.618-0.896-0.004-1.615-0.727-1.618-1.618z"/>
<path d="m50 83.706c-1.002-0.003-1.819-0.82-1.823-1.822 0-1.006 0.817-1.823 1.823-1.823 1.007 0 1.822 0.817 1.822 1.823 0 1.005-0.816 1.822-1.822 1.822zm0.006-3.236c-0.785 0-1.42 0.635-1.42 1.414 0.003 0.775 0.637 1.41 1.414 1.413 0.78 0 1.413-0.635 1.413-1.413 0-0.78-0.631-1.414-1.407-1.414z"/>
<path d="m64.385 75.271c-0.408-0.703-0.167-1.602 0.537-2.005 0.702-0.409 1.601-0.169 2.008 0.537 0.406 0.7 0.163 1.603-0.539 2.005-0.705 0.406-1.6 0.163-2.006-0.537z"/>
<path d="m76.384 64.348c-0.704-0.406-0.945-1.305-0.537-2.008 0.402-0.704 1.301-0.943 2.006-0.537 0.704 0.402 0.945 1.308 0.539 2.008-0.412 0.7-1.305 0.94-2.008 0.537z"/>
<path d="m84.464 49.038c-0.896-0.003-1.618-0.726-1.618-1.618-0.001-0.892 0.723-1.618 1.618-1.618 0.893-0.003 1.618 0.726 1.618 1.618-0.005 0.895-0.726 1.614-1.618 1.618z"/>
<path d="m84.464 49.242c-1.006-0.003-1.822-0.822-1.822-1.823-0.002-0.486 0.188-0.943 0.532-1.287 0.344-0.345 0.803-0.535 1.29-0.535 1.007 0 1.822 0.817 1.822 1.822-0.004 1.003-0.823 1.82-1.822 1.823zm0.007-3.236c-0.386 0-0.74 0.147-1.008 0.416-0.267 0.267-0.412 0.621-0.412 0.998 0 0.777 0.635 1.41 1.413 1.414 0.775-0.003 1.408-0.638 1.413-1.415 0-0.778-0.631-1.413-1.406-1.413z"/>
<path d="m77.853 33.034c-0.705 0.409-1.604 0.166-2.006-0.538-0.408-0.7-0.168-1.599 0.537-2.008 0.701-0.406 1.604-0.163 2.008 0.537 0.403 0.707 0.161 1.602-0.539 2.009z"/>
<path d="m66.93 21.036c-0.407 0.704-1.308 0.943-2.008 0.537-0.704-0.403-0.945-1.305-0.537-2.008 0.404-0.703 1.306-0.943 2.006-0.537 0.704 0.409 0.942 1.305 0.539 2.008z"/>
</svg>
