<svg xmlns="http://www.w3.org/2000/svg" xml:space="preserve" style="fill-rule:evenodd;clip-rule:evenodd;stroke-linejoin:round;stroke-miterlimit:2" viewBox="0 0 16 16" width="16" height="16"><path d="M240-400h320v-80H240v80Zm0-120h480v-80H240v80Zm0-120h480v-80H240v80ZM80-80v-720c0-22 7.833-40.833 23.5-56.5C119.167-872.167 138-880 160-880h640c22 0 40.833 7.833 56.5 23.5C872.167-840.833 880-822 880-800v480c0 22-7.833 40.833-23.5 56.5C840.833-247.833 822-240 800-240H240L80-80Zm126-240h594v-480H160v525l46-45Zm-46 0v-480 480Z" style="fill-rule:nonzero" transform="translate(-.4 16.4) scale(.0175)"/></svg>