<svg xmlns="http://www.w3.org/2000/svg" height="16" width="16" viewBox="0 0 16 16"><path d="m3.1232 1.7297c-1.3471 0-2.4387 1.0999-2.4387 2.4559v5.8952c0 1.357 1.0921 2.4564 2.4387 2.4564 0.89667 0.0052 6.3138 0.0016 8.9128 0 0.58262 0.43997 0.94422 0.91339 1.5974 1.6752a0.48595 0.48595 0 0 0 0.29314 0.05382 0.50633 0.50633 0 0 0 0.23253-0.09771c0.1578-0.11652 0.2435-0.31509 0.22312-0.51626l-0.16408-1.5216a2.4554 2.4554 0 0 0 1.0973-2.0499v-5.8947c0-1.3565-1.0921-2.4564-2.4387-2.4564zm1.9506 4.4211c0.53821 0 0.97557 0.43997 0.97557 0.98236 0 0.87576-1.0503 1.3136-1.6653 0.69497-0.6145-0.61868-0.17923-1.6773 0.68974-1.6773zm2.9262 0c0.53821 0 0.97557 0.43997 0.97557 0.98236 0 0.87576-1.0503 1.3136-1.6653 0.69497-0.6145-0.61868-0.17923-1.6773 0.68974-1.6773zm2.9262 0c0.53821 0 0.97557 0.43997 0.97557 0.98236 0 0.87576-1.0503 1.3136-1.6653 0.69497-0.6145-0.61868-0.17923-1.6773 0.68974-1.6773z" stroke-width=".52253"/></svg>