<?xml version="1.0" encoding="UTF-8" standalone="no"?>
<svg xmlns="http://www.w3.org/2000/svg" height="16" width="16" version="1.1" viewBox="0 0 16 16">
 <path d="m8.6328 0.63477c-0.2556 0-0.5112 0.0971-0.707 0.29296-0.3918 0.39177-0.3918 1.0224 0 1.4141l4.6582 4.6582h-11.584c-0.554 0-1 0.446-1 1s0.446 1 1 1h11.586l-4.6583 4.658c-0.3917 0.392-0.3917 1.023 0 1.414 0.3918 0.392 1.0224 0.392 1.4141 0l6.3632-6.363v-0.002h0.002c0.093-0.093 0.166-0.2041 0.217-0.3281l0.002-0.0019v-0.002c0.02-0.0508 0.019-0.1053 0.031-0.1582 0.016-0.0718 0.043-0.14 0.043-0.2168 0-0.0714-0.027-0.1341-0.041-0.2012-0.012-0.0578-0.012-0.1202-0.033-0.1738v-0.002c-0.001-0.0013-0.002-0.0026-0.002-0.0039-0.051-0.1233-0.124-0.2335-0.217-0.3261-0.001-0.0007-0.001-0.0013-0.002-0.002l-6.3632-6.3633c-0.1959-0.19583-0.4534-0.29293-0.709-0.29293z" fill-rule="evenodd"/>
</svg>
