<svg xmlns="http://www.w3.org/2000/svg" xml:space="preserve" style="fill-rule:evenodd;clip-rule:evenodd;stroke-linejoin:round;stroke-miterlimit:2" viewBox="0 0 16 16" width="16" height="16"><path d="M280-120c-22 0-40.833-7.833-56.5-23.5C207.833-159.167 200-178 200-200v-520h-40v-80h200v-40h240v40h200v80h-40v520c0 22-7.833 40.833-23.5 56.5C720.833-127.833 702-120 680-120H280Zm400-600H280v520h400v-520ZM360-280h80v-360h-80v360Zm160 0h80v-360h-80v360ZM280-720v520-520Z" style="fill-rule:nonzero" transform="matrix(.01944 0 0 .01944 -1.311 17.333)"/></svg>