<svg xmlns="http://www.w3.org/2000/svg" xml:space="preserve" style="fill-rule:evenodd;clip-rule:evenodd;stroke-linejoin:round;stroke-miterlimit:2" viewBox="0 0 16 16" width="16" height="16"><path d="M440-280h80v-240h-80v240Zm40-320c11.333 0 20.833-3.833 28.5-11.5 7.667-7.667 11.5-17.167 11.5-28.5 0-11.333-3.833-20.833-11.5-28.5-7.667-7.667-17.167-11.5-28.5-11.5-11.333 0-20.833 3.833-28.5 11.5-7.667 7.667-11.5 17.167-11.5 28.5 0 11.333 3.833 20.833 11.5 28.5 7.667 7.667 17.167 11.5 28.5 11.5Zm0 520c-55.333 0-107.333-10.5-156-31.5S233-161 197-197s-64.5-78.333-85.5-127S80-424.667 80-480s10.5-107.333 31.5-156S161-727 197-763s78.333-64.5 127-85.5S424.667-880 480-880s107.333 10.5 156 31.5S727-799 763-763s64.5 78.333 85.5 127S880-535.333 880-480s-10.5 107.333-31.5 156S799-233 763-197s-78.333 64.5-127 85.5S535.333-80 480-80Zm0-80c89.333 0 165-31 227-93s93-137.667 93-227-31-165-93-227-137.667-93-227-93-165 31-227 93-93 137.667-93 227 31 165 93 227 137.667 93 227 93Z" style="fill-rule:nonzero" transform="translate(-.4 16.4) scale(.0175)"/></svg>