<svg viewBox="0 0 16 16" height="16" width="16" xmlns="http://www.w3.org/2000/svg" xml:space="preserve" style="fill-rule:evenodd;clip-rule:evenodd;stroke-linejoin:round;stroke-miterlimit:2"><path d="M20.475 23.3 17 19.825V20H1v-2.8c0-.567.146-1.087.438-1.563A2.918 2.918 0 0 1 2.6 14.55a14.853 14.853 0 0 1 3.15-1.163 13.778 13.778 0 0 1 3.863-.375c.208.009.412.021.612.038L9.175 12H9c-1.1 0-2.042-.392-2.825-1.175C5.392 10.042 5 9.1 5 8v-.175L.675 3.5 2.1 2.075l19.8 19.8-1.425 1.425ZM16.65 13.15a12.591 12.591 0 0 1 4.5 1.4c.6.333 1.058.704 1.375 1.113.317.408.475.854.475 1.337v3h-.125l-4-4a4.523 4.523 0 0 0-.787-1.562 5.397 5.397 0 0 0-1.438-1.288Zm-2.6-1.975c.317-.467.554-.967.713-1.5A5.866 5.866 0 0 0 15 8c0-.7-.121-1.375-.362-2.025A5.951 5.951 0 0 0 13.6 4.2c.233-.083.467-.137.7-.163.233-.025.467-.037.7-.037 1.1 0 2.042.392 2.825 1.175C18.608 5.958 19 6.9 19 8s-.412 2.042-1.237 2.825c-.825.783-1.788 1.175-2.888 1.175l-.825-.825Zm-1.45-1.45L7.275 4.4c.267-.133.542-.233.825-.3.283-.067.583-.1.9-.1 1.1 0 2.042.392 2.825 1.175C12.608 5.958 13 6.9 13 8c0 .317-.033.617-.1.9a3.818 3.818 0 0 1-.3.825Z" style="fill-rule:nonzero" transform="matrix(.6719 0 0 .6719 .046 -.594)"/></svg>