<svg xmlns="http://www.w3.org/2000/svg" xml:space="preserve" style="fill-rule:evenodd;clip-rule:evenodd;stroke-linejoin:round;stroke-miterlimit:2" viewBox="0 0 16 16" width="16" height="16"><path d="M819-28 680-167v7H40v-112c0-22.667 5.833-43.5 17.5-62.5S84.667-368 104-378c41.333-20.667 83.333-36.167 126-46.5 42.667-10.333 86-15.5 130-15.5 8 0 16.167.167 24.5.5 8.333.333 16.5.833 24.5 1.5l-42-42h-7c-44 0-81.667-15.667-113-47s-47-69-47-113v-7L27-820l57-57L876-85l-57 57ZM666-434c34 4 66 10.833 96 20.5s58 21.5 84 35.5c24 13.333 42.333 28.167 55 44.5 12.667 16.333 19 34.167 19 53.5v120h-5L755-320c-6-22-16.5-42.833-31.5-62.5S689.333-419.333 666-434Zm-306 74c-37.333 0-74.333 4.5-111 13.5S176-324 140-306c-6 3.333-10.833 8-14.5 14s-5.5 12.667-5.5 20v32h480v-7l-87-87c-25.333-8.667-50.833-15.167-76.5-19.5S385.333-360 360-360Zm202-153c12.667-18.667 22.167-38.667 28.5-60 6.333-21.333 9.5-43.667 9.5-67 0-28-4.833-55-14.5-81S562-770.667 544-792c9.333-3.333 18.667-5.5 28-6.5 9.333-1 18.667-1.5 28-1.5 44 0 81.667 15.667 113 47s47 69 47 113-16.5 81.667-49.5 113S639-480 595-480l-33-33Zm-58-58-64-64v-5c0-22-7.833-40.833-23.5-56.5C400.833-712.167 382-720 360-720h-5l-64-64c10.667-5.333 21.667-9.333 33-12 11.333-2.667 23.333-4 36-4 44 0 81.667 15.667 113 47s47 69 47 113c0 12.667-1.333 24.667-4 36-2.667 11.333-6.667 22.333-12 33Z" style="fill-rule:nonzero" transform="matrix(.0168 0 0 .0168 .046 15.531)"/></svg>