<svg xmlns="http://www.w3.org/2000/svg" width="16" height="16"><path d="M9 1C7.254 1 6 2.43 6 3.8c0 1.4.1 2.4.8 3.5.067.087.137.15.208.206l4.762-4.762C11.306 1.707 10.196 1 9 1zM4.02 5c-.87 0-1.5.72-1.5 1.4H2.5c0 .7.05 1.2.4 1.75.1.15.242.174.35.3.067.25.122.5.05.75-.64.222-1.244.5-1.8.8-.42.3-.233.182-.5 1.15-.098.394.762.615 1.63.733l2.515-2.514-.424-.17c-.07-.28-.021-.487.049-.75.12-.125.23-.179.36-.299.37-.45.39-1.21.39-1.75 0-.8-.72-1.4-1.5-1.4zm6.335 3.58-5.851 5.852C5.939 14.832 8.01 15 9 15c2.43 0 6.313-.455 5.98-1.7-.52-1.94-.208-1.71-.98-2.3-1.09-.654-2.452-1.167-3.6-1.6a2.004 2.004 0 0 1-.045-.82z"/><path d="M-8.956 11.077h18v1.5h-18z" style="paint-order:normal" transform="rotate(-45)"/></svg>
