<svg width="16" height="16" version="1.1" viewbox="0 0 16 16" xmlns="http://www.w3.org/2000/svg"><path d="m8 1c-1.75 0-3 1.4308-3 2.8008 0 1.4 0.10078 2.4 0.80078 3.5 0.2 0.286 0.49922 0.34961 0.69922 0.59961 0.0039248 0.014536 0.0058968 0.028465 0.0097656 0.042969l4.4551-4.4551c-0.17471-1.4311-1.5009-2.4883-2.9648-2.4883zm1.541 8.4551-5.3223 5.3223c1.1728 0.19277 2.6019 0.22266 3.7812 0.22266 2.5 0 6.163-0.099219 6-1.6992-0.215-2-0.23-1.7108-1-2.3008-1.0575-0.62876-2.3392-1.1226-3.459-1.5449zm-5.6484 1.1055c-0.29809 0.14662-0.60757 0.2854-0.89258 0.43945-0.66764 0.47127-0.77292 0.43452-0.89062 1.3438l1.7832-1.7832z"/><rect transform="rotate(-45)" x="-8.9968" y="11.118" width="16.999" height="1.4166" style="paint-order:normal"/></svg>
