<svg xmlns="http://www.w3.org/2000/svg" xml:space="preserve" style="fill-rule:evenodd;clip-rule:evenodd;stroke-linejoin:round;stroke-miterlimit:2" viewBox="0 0 16 16" width="16" height="16"><path d="M791-55 686-160H160v-112c0-22.667 5.833-43.5 17.5-62.5S204.667-368 224-378c30-15.333 60.5-27.667 91.5-37a655.52 655.52 0 0 1 94.5-21L55-791l57-57 736 736-57 57ZM240-240h366L486-360h-6c-37.333 0-74.333 4.5-111 13.5S296-324 260-306c-6 3.333-10.833 8-14.5 14s-5.5 12.667-5.5 20v32Zm496-138c19.333 9.333 34.667 23.5 46 42.5 11.333 19 17.333 39.5 18 61.5L666-408c12 4.667 23.833 9.333 35.5 14a357.394 357.394 0 0 1 34.5 16ZM568-506l-59-59c15.333-6 27.667-15.833 37-29.5 9.333-13.667 14-28.833 14-45.5 0-22-7.833-40.833-23.5-56.5C520.833-712.167 502-720 480-720c-16.667 0-31.833 4.667-45.5 14-13.667 9.333-23.5 21.667-29.5 37l-59-59c15.333-22.667 34.667-40.333 58-53 23.333-12.667 48.667-19 76-19 44 0 81.667 15.667 113 47s47 69 47 113c0 27.333-6.333 52.667-19 76s-30.333 42.667-53 58Zm38 266H240h366Z" style="fill-rule:nonzero" transform="matrix(.01892 0 0 .01892 -.54 16.54)"/></svg>