<svg width="16" height="16" version="1.1" viewbox="0 0 16 16" xmlns="http://www.w3.org/2000/svg"><path d="m9 1c-1.746 0-3 1.4308-3 2.8008 0 1.4 0.10078 2.4 0.80078 3.5 0.066421 0.085991 0.13627 0.14858 0.20703 0.20508l4.7617-4.7617c-0.46305-1.0371-1.5733-1.7441-2.7695-1.7441zm-4.9805 4c-0.87 0-1.5 0.72039-1.5 1.4004h-0.019531c0 0.7 0.050391 1.2 0.40039 1.75 0.1 0.15 0.24161 0.17383 0.34961 0.29883 0.0674 0.25 0.12178 0.5 0.050781 0.75-0.64 0.223-1.2448 0.50078-1.8008 0.80078-0.42 0.3-0.233 0.18239-0.5 1.1504-0.097631 0.39367 0.76198 0.61493 1.6309 0.73242l2.5137-2.5137c-0.14238-0.05672-0.28961-0.11729-0.42383-0.16992-0.07-0.28-0.021172-0.487 0.048828-0.75 0.12-0.125 0.23133-0.17883 0.36133-0.29883 0.37-0.45 0.38867-1.21 0.38867-1.75 0-0.8-0.72-1.4004-1.5-1.4004zm6.3359 3.5801-5.8516 5.8516c1.4351 0.4011 3.5062 0.56836 4.4961 0.56836 2.43 0 6.3135-0.45522 5.9805-1.6992-0.52-1.94-0.20847-1.7108-0.98047-2.3008-1.09-0.654-2.4516-1.1666-3.5996-1.5996-0.08115-0.30134-0.079548-0.56194-0.044922-0.82031z"/><rect transform="rotate(-45)" x="-8.9557" y="11.077" width="18" height="1.5" style="paint-order:normal"/></svg>
