<svg viewBox="0 0 16 16" height="16" width="16" xmlns="http://www.w3.org/2000/svg" xml:space="preserve" style="fill-rule:evenodd;clip-rule:evenodd;stroke-linejoin:round;stroke-miterlimit:2"><path d="M19.775 22.625 17.15 20H4v-2.8c0-.567.146-1.087.438-1.563A2.918 2.918 0 0 1 5.6 14.55c.75-.383 1.513-.692 2.288-.925a16.469 16.469 0 0 1 2.362-.525L1.375 4.225 2.8 2.8l18.4 18.4-1.425 1.425ZM18.4 14.55c.483.233.867.587 1.15 1.062.283.475.433.988.45 1.538l-3.35-3.35c.3.117.596.233.888.35.291.117.579.25.862.4Zm-4.2-3.2L8.65 5.8a4.085 4.085 0 0 1 1.45-1.325A3.915 3.915 0 0 1 12 4c1.1 0 2.042.392 2.825 1.175C15.608 5.958 16 6.9 16 8c0 .683-.158 1.317-.475 1.9a4.085 4.085 0 0 1-1.325 1.45Z" style="fill-rule:nonzero" transform="translate(-.54 -1.619) scale(.75662)"/></svg>