<svg xmlns="http://www.w3.org/2000/svg" xml:space="preserve" style="fill-rule:evenodd;clip-rule:evenodd;stroke-linejoin:round;stroke-miterlimit:2" viewBox="0 0 16 16" width="16" height="16"><path d="M560-80v-123l221-220c6-6 12.667-10.333 20-13s14.667-4 22-4c8 0 15.667 1.5 23 4.5s14 7.5 20 13.5l37 37c5.333 6 9.5 12.667 12.5 20s4.5 14.667 4.5 22-1.333 14.833-4 22.5-7 14.5-13 20.5L683-80H560Zm300-263-37-37 37 37ZM620-140h38l121-122-18-19-19-18-122 121v38ZM240-80c-22 0-40.833-7.833-56.5-23.5C167.833-119.167 160-138 160-160v-640c0-22 7.833-40.833 23.5-56.5C199.167-872.167 218-880 240-880h320l240 240v120h-80v-80H520v-200H240v640h240v80H240Zm521-201-19-18 37 37-18-19Z" style="fill-rule:nonzero" transform="translate(-.407 16.39) scale(.0175)"/></svg>