<svg viewBox="0 0 16 16" height="16" width="16" xmlns="http://www.w3.org/2000/svg" xml:space="preserve" style="fill-rule:evenodd;clip-rule:evenodd;stroke-linejoin:round;stroke-miterlimit:2"><path d="M12 17a.972.972 0 0 0 .713-.287A.972.972 0 0 0 13 16a.968.968 0 0 0-.287-.712A.969.969 0 0 0 12 15a.965.965 0 0 0-.712.288A.965.965 0 0 0 11 16c0 .283.096.521.288.713A.968.968 0 0 0 12 17Zm-1-4h2V7h-2v6Zm-2.75 8L3 15.75v-7.5L8.25 3h7.5L21 8.25v7.5L15.75 21h-7.5Z" style="fill:#fff;fill-rule:nonzero" transform="scale(.66667)"/></svg>