<svg viewBox="0 0 16 16" height="16" width="16" xmlns="http://www.w3.org/2000/svg" xml:space="preserve" style="fill-rule:evenodd;clip-rule:evenodd;stroke-linejoin:round;stroke-miterlimit:2"><path d="M5 21c-.55 0-1.021-.196-1.412-.587A1.927 1.927 0 0 1 3 19V5c0-.55.196-1.021.588-1.413A1.926 1.926 0 0 1 5 3h7v2H5v14h14v-7h2v7a1.93 1.93 0 0 1-.587 1.413A1.93 1.93 0 0 1 19 21H5Zm4.7-5.3-1.4-1.4L17.6 5H14V3h7v7h-2V6.4l-9.3 9.3Z" style="fill-rule:nonzero" transform="matrix(.77778 0 0 .77778 -1.333 -1.333)"/></svg>