<svg xmlns="http://www.w3.org/2000/svg" xml:space="preserve" style="fill-rule:evenodd;clip-rule:evenodd;stroke-linejoin:round;stroke-miterlimit:2" viewBox="0 0 16 16" width="16" height="16"><path d="M440-160c-11.333 0-20.833-3.833-28.5-11.5-7.667-7.667-11.5-17.167-11.5-28.5v-240L168-736c-10-13.333-11.5-27.333-4.5-42 7-14.667 19.167-22 36.5-22h560c17.333 0 29.5 7.333 36.5 22s5.5 28.667-4.5 42L560-440v240c0 11.333-3.833 20.833-11.5 28.5-7.667 7.667-17.167 11.5-28.5 11.5h-80Zm40-308 198-252H282l198 252Z" style="fill-rule:nonzero" transform="matrix(.02182 0 0 .02182 -2.48 18.448)"/></svg>