<svg viewBox="0 0 16 16" height="16" width="16" xmlns="http://www.w3.org/2000/svg" xml:space="preserve" style="fill-rule:evenodd;clip-rule:evenodd;stroke-linejoin:round;stroke-miterlimit:2"><path d="M11 20a.965.965 0 0 1-.712-.288A.965.965 0 0 1 10 19v-6L4.2 5.6c-.25-.333-.287-.683-.112-1.05S4.567 4 5 4h14c.433 0 .738.183.913.55.175.367.137.717-.113 1.05L14 13v6a.968.968 0 0 1-.287.712A.969.969 0 0 1 13 20h-2Z" style="fill-rule:nonzero" transform="matrix(.87275 0 0 .87275 -2.473 -2.491)"/></svg>