<?xml version="1.0" encoding="UTF-8" standalone="no"?>
<svg xmlns="http://www.w3.org/2000/svg" height="16" width="16" version="1.1" viewBox="0 0 16 16">
 <defs>
  <filter id="a" style="color-interpolation-filters:sRGB" height="1.36" width="1.36" y="-.18" x="-.18">
   <feGaussianBlur stdDeviation="1.05"/>
  </filter>
 </defs>
 <path opacity=".5" d="m8 1c-0.554 0-1 0.446-1 1s0.446 1 1 1h5v5c0 0.554 0.446 1 1 1s1-0.446 1-1v-6c0-0.554-0.446-1-1-1h-6zm-6 6c-0.554 0-1 0.446-1 1v6c0 0.554 0.446 1 1 1h6c0.554 0 1-0.446 1-1s-0.446-1-1-1h-5v-5c0-0.554-0.446-1-1-1z" fill-rule="evenodd" filter="url(#a)"/>
 <path fill-rule="evenodd" fill="#fff" d="m8 1c-0.554 0-1 0.446-1 1s0.446 1 1 1h5v5c0 0.554 0.446 1 1 1s1-0.446 1-1v-6c0-0.554-0.446-1-1-1h-6zm-6 6c-0.554 0-1 0.446-1 1v6c0 0.554 0.446 1 1 1h6c0.554 0 1-0.446 1-1s-0.446-1-1-1h-5v-5c0-0.554-0.446-1-1-1z"/>
</svg>
