<svg height="16" width="16" xmlns="http://www.w3.org/2000/svg" version="1.1" viewbox="0 0 16 16"><defs><filter id="a" height="21"><feGaussianBlur stdDeviation="1" in="SourceAlpha"/><feComponentTransfer><feFuncA slope="0.5" type="linear"/></feComponentTransfer><feMerge><feMergeNode/><feMergeNode in="SourceGraphic"/></feMerge></filter></defs><path filter="url(#a)" d="m8 1c-0.554 0-1 0.446-1 1s0.446 1 1 1h5v5c0 0.554 0.446 1 1 1s1-0.446 1-1v-6c0-0.554-0.446-1-1-1h-6zm-6 6c-0.554 0-1 0.446-1 1v6c0 0.554 0.446 1 1 1h6c0.554 0 1-0.446 1-1s-0.446-1-1-1h-5v-5c0-0.554-0.446-1-1-1z" fill="#fff"/></svg>
