<svg viewBox="0 0 16 16" height="16" width="16" xmlns="http://www.w3.org/2000/svg" xml:space="preserve" style="fill-rule:evenodd;clip-rule:evenodd;stroke-linejoin:round;stroke-miterlimit:2"><path d="M1 20v-2.8c0-.567.146-1.087.438-1.563A2.918 2.918 0 0 1 2.6 14.55a14.853 14.853 0 0 1 3.15-1.163A13.778 13.778 0 0 1 9 13c1.1 0 2.183.129 3.25.387 1.067.259 2.117.646 3.15 1.163.483.25.871.613 1.163 1.087.291.476.437.996.437 1.563V20H1Zm18 0v-3c0-.733-.204-1.437-.612-2.113-.409-.675-.988-1.254-1.738-1.737a12.591 12.591 0 0 1 4.5 1.4c.6.333 1.058.704 1.375 1.113.317.408.475.854.475 1.337v3h-4ZM9 12c-1.1 0-2.042-.392-2.825-1.175C5.392 10.042 5 9.1 5 8s.392-2.042 1.175-2.825C6.958 4.392 7.9 4 9 4s2.042.392 2.825 1.175C12.608 5.958 13 6.9 13 8s-.392 2.042-1.175 2.825C11.042 11.608 10.1 12 9 12Zm10-4c0 1.1-.392 2.042-1.175 2.825C17.042 11.608 16.1 12 15 12c-.183 0-.417-.021-.7-.062a6.181 6.181 0 0 1-.7-.138 5.951 5.951 0 0 0 1.038-1.775A5.78 5.78 0 0 0 15 8c0-.7-.121-1.375-.362-2.025A5.951 5.951 0 0 0 13.6 4.2c.233-.083.467-.137.7-.163.233-.025.467-.037.7-.037 1.1 0 2.042.392 2.825 1.175C18.608 5.958 19 6.9 19 8Z" style="fill-rule:nonzero" transform="matrix(.72727 0 0 .72727 -.727 -.71)"/></svg>