<svg xmlns="http://www.w3.org/2000/svg" xml:space="preserve" style="fill-rule:evenodd;clip-rule:evenodd;stroke-linejoin:round;stroke-miterlimit:2" viewBox="0 0 16 16" width="16" height="16"><path d="M40-160v-112c0-22.667 5.833-43.5 17.5-62.5S84.667-368 104-378c41.333-20.667 83.333-36.167 126-46.5 42.667-10.333 86-15.5 130-15.5s87.333 5.167 130 15.5 84.667 25.833 126 46.5c19.333 10 34.833 24.5 46.5 43.5 11.667 19 17.5 39.833 17.5 62.5v112H40Zm720 0v-120c0-29.333-8.167-57.5-24.5-84.5S696-414.667 666-434c34 4 66 10.833 96 20.5s58 21.5 84 35.5c24 13.333 42.333 28.167 55 44.5 12.667 16.333 19 34.167 19 53.5v120H760ZM360-480c-44 0-81.667-15.667-113-47s-47-69-47-113 15.667-81.667 47-113 69-47 113-47 81.667 15.667 113 47 47 69 47 113-15.667 81.667-47 113-69 47-113 47Zm400-160c0 44-15.667 81.667-47 113s-69 47-113 47c-7.333 0-16.667-.833-28-2.5-11.333-1.667-20.667-3.5-28-5.5 18-21.333 31.833-45 41.5-71 9.667-26 14.5-53 14.5-81s-4.833-55-14.5-81-23.5-49.667-41.5-71c9.333-3.333 18.667-5.5 28-6.5 9.333-1 18.667-1.5 28-1.5 44 0 81.667 15.667 113 47s47 69 47 113ZM120-240h480v-32c0-7.333-1.833-14-5.5-20s-8.5-10.667-14.5-14c-36-18-72.333-31.5-109-40.5S397.333-360 360-360s-74.333 4.5-111 13.5S176-324 140-306c-6 3.333-10.833 8-14.5 14s-5.5 12.667-5.5 20v32Zm240-320c22 0 40.833-7.833 56.5-23.5C432.167-599.167 440-618 440-640s-7.833-40.833-23.5-56.5C400.833-712.167 382-720 360-720s-40.833 7.833-56.5 23.5C287.833-680.833 280-662 280-640s7.833 40.833 23.5 56.5C319.167-567.833 338-560 360-560Z" style="fill-rule:nonzero" transform="translate(-.727 16.745) scale(.01818)"/></svg>