<svg viewBox="0 0 16 16" height="16" width="16" xmlns="http://www.w3.org/2000/svg" xml:space="preserve" style="fill-rule:evenodd;clip-rule:evenodd;stroke-linejoin:round;stroke-miterlimit:2"><path d="M12 22a8.702 8.702 0 0 1-3.512-.712 9.146 9.146 0 0 1-2.85-1.925 9.152 9.152 0 0 1-1.925-2.85A8.711 8.711 0 0 1 3 13h2c0 1.95.679 3.604 2.038 4.963C8.396 19.321 10.05 20 12 20c1.95 0 3.604-.679 4.963-2.037C18.321 16.604 19 14.95 19 13c0-1.95-.679-3.604-2.037-4.963C15.604 6.679 13.95 6 12 6h-.15l1.55 1.55L12 9 8 5l4-4 1.4 1.45L11.85 4H12a8.71 8.71 0 0 1 3.513.712 9.187 9.187 0 0 1 2.85 1.925 9.17 9.17 0 0 1 1.925 2.85A8.71 8.71 0 0 1 21 13a8.71 8.71 0 0 1-.712 3.513 9.17 9.17 0 0 1-1.925 2.85 9.17 9.17 0 0 1-2.85 1.925A8.71 8.71 0 0 1 12 22Z" style="fill-rule:nonzero" transform="matrix(.66667 0 0 .66667 0 .333)"/></svg>