<svg viewBox="0 0 16 16" height="16" width="16" xmlns="http://www.w3.org/2000/svg" xml:space="preserve" style="fill-rule:evenodd;clip-rule:evenodd;stroke-linejoin:round;stroke-miterlimit:2"><path d="M11 17h2v-6h-2v6Zm1-8a.969.969 0 0 0 .713-.288A.968.968 0 0 0 13 8a.972.972 0 0 0-.287-.713A.972.972 0 0 0 12 7a.968.968 0 0 0-.712.287A.969.969 0 0 0 11 8c0 .283.096.521.288.712A.965.965 0 0 0 12 9Zm0 13a9.723 9.723 0 0 1-3.9-.788 10.077 10.077 0 0 1-3.175-2.137c-.9-.9-1.612-1.958-2.137-3.175A9.74 9.74 0 0 1 2 12a9.74 9.74 0 0 1 .788-3.9 10.093 10.093 0 0 1 2.137-3.175c.9-.9 1.958-1.612 3.175-2.138A9.74 9.74 0 0 1 12 2a9.74 9.74 0 0 1 3.9.787 10.113 10.113 0 0 1 3.175 2.138c.9.9 1.613 1.958 2.138 3.175A9.74 9.74 0 0 1 22 12a9.74 9.74 0 0 1-.787 3.9 10.096 10.096 0 0 1-2.138 3.175c-.9.9-1.958 1.613-3.175 2.137A9.723 9.723 0 0 1 12 22Z" style="fill:#fff;fill-rule:nonzero" transform="matrix(.7 0 0 .7 -.4 -.4)"/></svg>