<?xml version="1.0" encoding="UTF-8" standalone="no"?>
<svg xmlns:rdf="http://www.w3.org/1999/02/22-rdf-syntax-ns#" xmlns="http://www.w3.org/2000/svg" height="16" width="16" version="1.0" xmlns:cc="http://creativecommons.org/ns#" xmlns:dc="http://purl.org/dc/elements/1.1/">
 <path style="block-progression:tb;color:#000000;text-transform:none;text-indent:0" fill="#fff" d="m8.0001 0.00045c-0.4714 0-0.96103 0.5419-0.95 1v6c-0.00747 0.52831 0.42163 1 0.95 1s0.95747-0.47169 0.95-1v-6c0.014622-0.6051-0.4786-1-0.95-1zm-3.3438 2.5c-0.0872 0.0193-0.1716 0.051-0.25 0.0938-2.9995 1.5715-3.9184 4.7979-3.125 7.4688 0.7934 2.67 3.2799 4.937 6.6875 4.937 3.3592 0 5.8772-2.149 6.7192-4.781 0.841-2.6321-0.058-5.8234-3.125-7.594-0.434-0.2536-1.059-0.0899-1.313 0.3437-0.2536 0.4336-0.09 1.0589 0.344 1.3125 2.3908 1.3798 2.8825 3.4944 2.2812 5.375-0.6012 1.8806-2.344 3.4375-4.9062 3.4375-2.5759 0-4.2976-1.6502-4.875-3.5938-0.5776-1.9436-0.047-4.0481 2.1873-5.2188 0.3787-0.2063 0.5791-0.6925 0.4558-1.1057-0.1232-0.4133-0.5572-0.7103-0.987-0.6755-0.0313-0.0015-0.0626-0.0015-0.0938 0z"/>
</svg>
