<svg xmlns="http://www.w3.org/2000/svg" height="16" width="16" version="1"><path style="block-progression:tb;text-transform:none;text-indent:0" d="M8 0c-.47 0-.96.542-.95 1v6c-.007.528.422 1 .95 1s.958-.472.95-1V1A.967.967 0 0 0 8 0zM4.656 2.5a.952.952 0 0 0-.25.094c-3 1.57-3.918 4.798-3.125 7.47A6.907 6.907 0 0 0 7.97 15c3.358 0 5.876-2.15 6.718-4.78.84-2.634-.058-5.825-3.125-7.595-.434-.254-1.06-.09-1.313.343-.254.434-.09 1.06.344 1.313 2.39 1.38 2.882 3.495 2.28 5.376-.6 1.88-2.343 3.437-4.905 3.437-2.577 0-4.3-1.65-4.876-3.594-.578-1.944-.047-4.05 2.187-5.22a.98.98 0 0 0 .457-1.105.98.98 0 0 0-.987-.675.978.978 0 0 0-.094 0z" color="#000"/></svg>