<?xml version="1.0" encoding="UTF-8" standalone="no"?>
<!-- Created with Inkscape (http://www.inkscape.org/) -->

<svg
   xmlns:dc="http://purl.org/dc/elements/1.1/"
   xmlns:cc="http://creativecommons.org/ns#"
   xmlns:rdf="http://www.w3.org/1999/02/22-rdf-syntax-ns#"
   xmlns:svg="http://www.w3.org/2000/svg"
   xmlns="http://www.w3.org/2000/svg"
   xmlns:xlink="http://www.w3.org/1999/xlink"
   xmlns:sodipodi="http://sodipodi.sourceforge.net/DTD/sodipodi-0.dtd"
   xmlns:inkscape="http://www.inkscape.org/namespaces/inkscape"
   version="1.0"
   width="16"
   height="16"
   id="svg2403"
   inkscape:version="0.48.3.1 r9886"
   sodipodi:docname="logout.svg"
   inkscape:export-filename="logout.png"
   inkscape:export-xdpi="90"
   inkscape:export-ydpi="90">
  <sodipodi:namedview
     pagecolor="#ffffff"
     bordercolor="#666666"
     borderopacity="1"
     objecttolerance="10"
     gridtolerance="10"
     guidetolerance="10"
     inkscape:pageopacity="0"
     inkscape:pageshadow="2"
     inkscape:window-width="1280"
     inkscape:window-height="745"
     id="namedview3047"
     showgrid="false"
     inkscape:zoom="25.279067"
     inkscape:cx="5.0341304"
     inkscape:cy="6.4537904"
     inkscape:window-x="0"
     inkscape:window-y="27"
     inkscape:window-maximized="1"
     inkscape:current-layer="svg2403" />
  <metadata
     id="metadata15">
    <rdf:RDF>
      <cc:Work
         rdf:about="">
        <dc:format>image/svg+xml</dc:format>
        <dc:type
           rdf:resource="http://purl.org/dc/dcmitype/StillImage" />
        <dc:title></dc:title>
      </cc:Work>
    </rdf:RDF>
  </metadata>
  <defs
     id="defs2405">
    <linearGradient
       x1="11.644068"
       y1="2.4988678"
       x2="11.644068"
       y2="15.00281"
       id="linearGradient2392"
       xlink:href="#linearGradient3678"
       gradientUnits="userSpaceOnUse"
       gradientTransform="translate(1.0000001,1.1920928e-8)" />
    <linearGradient
       x1="8.4964771"
       y1="-0.061573759"
       x2="8.4964771"
       y2="8.083209"
       id="linearGradient2395"
       xlink:href="#linearGradient3678"
       gradientUnits="userSpaceOnUse"
       gradientTransform="matrix(1.0526316,0,0,0.9843625,0.578947,0.06024281)" />
    <linearGradient
       id="linearGradient3678">
      <stop
         id="stop3680"
         style="stop-color:#ffffff;stop-opacity:1"
         offset="0" />
      <stop
         id="stop3682"
         style="stop-color:#e6e6e6;stop-opacity:1"
         offset="1" />
    </linearGradient>
    <linearGradient
       inkscape:collect="always"
       xlink:href="#linearGradient3678"
       id="linearGradient3879"
       gradientUnits="userSpaceOnUse"
       gradientTransform="matrix(1.0526316,0,0,0.9843625,0.578947,0.06024281)"
       x1="8.4964771"
       y1="-0.061573759"
       x2="8.4964771"
       y2="8.083209" />
    <linearGradient
       inkscape:collect="always"
       xlink:href="#linearGradient3678"
       id="linearGradient3908"
       gradientUnits="userSpaceOnUse"
       gradientTransform="translate(1.0000001,1.1920928e-8)"
       x1="11.644068"
       y1="2.4988678"
       x2="11.644068"
       y2="15.00281" />
    <linearGradient
       inkscape:collect="always"
       xlink:href="#linearGradient3678"
       id="linearGradient3914"
       gradientUnits="userSpaceOnUse"
       gradientTransform="matrix(1.0526316,0,0,0.9843625,0.578947,0.06024281)"
       x1="8.4964771"
       y1="-0.061573759"
       x2="8.4964771"
       y2="8.083209" />
    <linearGradient
       inkscape:collect="always"
       xlink:href="#linearGradient3678"
       id="linearGradient3916"
       gradientUnits="userSpaceOnUse"
       gradientTransform="translate(1.0000001,1.1920928e-8)"
       x1="11.644068"
       y1="2.4988678"
       x2="11.644068"
       y2="15.00281" />
    <linearGradient
       inkscape:collect="always"
       xlink:href="#linearGradient3678"
       id="linearGradient3919"
       gradientUnits="userSpaceOnUse"
       gradientTransform="translate(1.0000001,1.1920928e-8)"
       x1="11.644068"
       y1="2.4988678"
       x2="11.644068"
       y2="15.00281" />
    <linearGradient
       inkscape:collect="always"
       xlink:href="#linearGradient3678"
       id="linearGradient3922"
       gradientUnits="userSpaceOnUse"
       gradientTransform="matrix(1.0526316,0,0,0.9843625,0.578947,0.06024281)"
       x1="8.4964771"
       y1="-0.061573759"
       x2="8.4964771"
       y2="8.083209" />
    <linearGradient
       inkscape:collect="always"
       xlink:href="#linearGradient3678"
       id="linearGradient3925"
       gradientUnits="userSpaceOnUse"
       gradientTransform="matrix(1.0526316,0,0,0.9843625,0.578947,0.06024281)"
       x1="8.4964771"
       y1="-0.061573759"
       x2="8.4964771"
       y2="15.216674" />
    <linearGradient
       inkscape:collect="always"
       xlink:href="#linearGradient3678"
       id="linearGradient3942"
       gradientUnits="userSpaceOnUse"
       gradientTransform="matrix(1.0526316,0,0,0.9843625,-0.42098964,0.06024281)"
       x1="8.4964771"
       y1="-0.061573759"
       x2="8.4964771"
       y2="15.216674" />
  </defs>
  <path
     id="path3927"
     d="m 8.0000634,1 c -0.4714045,0 -0.9610304,0.5419023 -0.95,1 l 0,6 c -0.00747,0.5283126 0.4216346,1 0.95,1 0.5283654,0 0.957472,-0.4716874 0.95,-1 l 0,-6 c 0.014622,-0.605105 -0.4785955,-1 -0.95,-1 z m -3.34375,2.5 c -0.087186,0.019294 -0.1716251,0.050959 -0.25,0.09375 -2.9994999,1.5715133 -3.91842874,4.7978566 -3.125,7.46875 C 2.0747421,13.733393 4.5611725,16 7.9688134,16 11.327833,16 13.846204,13.850562 14.687563,11.21875 15.528922,8.5869378 14.630363,5.3955638 11.562563,3.625 11.128957,3.3713639 10.503661,3.535122 10.250038,3.9687356 9.9964154,4.4023491 10.160192,5.0276401 10.593813,5.28125 c 2.390793,1.3798311 2.882452,3.4944109 2.28125,5.375 -0.601202,1.880589 -2.344037,3.4375 -4.9062496,3.4375 -2.575923,0 -4.297634,-1.650181 -4.875,-3.59375 C 2.5164474,8.5564313 3.0469519,6.451888 5.2813134,5.28125 5.6599659,5.0748887 5.8603711,4.5887067 5.7371222,4.1754605 5.6138734,3.7622144 5.1798937,3.4652349 4.7500634,3.5 4.7188384,3.49846 4.6875384,3.49846 4.6563134,3.5 z"
     style="font-size:medium;font-style:normal;font-variant:normal;font-weight:normal;font-stretch:normal;text-indent:0;text-align:start;text-decoration:none;line-height:normal;letter-spacing:normal;word-spacing:normal;text-transform:none;direction:ltr;block-progression:tb;writing-mode:lr-tb;text-anchor:start;baseline-shift:baseline;opacity:0.5;color:#000000;fill:#000000;fill-opacity:1;stroke:none;stroke-width:2;marker:none;visibility:visible;display:inline;overflow:visible;enable-background:accumulate;font-family:Sans;-inkscape-font-specification:Sans"
     inkscape:connector-curvature="0"
     sodipodi:nodetypes="sccsccsccssscscssscscc" />
  <path
     style="font-size:medium;font-style:normal;font-variant:normal;font-weight:normal;font-stretch:normal;text-indent:0;text-align:start;text-decoration:none;line-height:normal;letter-spacing:normal;word-spacing:normal;text-transform:none;direction:ltr;block-progression:tb;writing-mode:lr-tb;text-anchor:start;baseline-shift:baseline;color:#000000;fill:url(#linearGradient3942);fill-opacity:1;stroke:none;stroke-width:2;marker:none;visibility:visible;display:inline;overflow:visible;enable-background:accumulate;font-family:Sans;-inkscape-font-specification:Sans"
     d="m 8.0000634,0 c -0.4714045,0 -1.0110304,0.54190231 -1,1 l 0,6 c -0.00747,0.5283126 0.4716346,1 1,1 0.5283654,0 1.007472,-0.4716874 1,-1 l 0,-6 c 0.014622,-0.60510499 -0.5285955,-1 -1,-1 z m -3.34375,2.5 a 0.95009499,0.95009499 0 0 0 -0.25,0.09375 C 1.4068135,4.1652633 0.48788466,7.3916066 1.2813134,10.0625 2.0747421,12.733393 4.5611725,15 7.9688134,15 c 3.3590196,0 5.8773906,-2.149438 6.7187496,-4.78125 0.841359,-2.6318122 -0.0572,-5.8231862 -3.125,-7.59375 a 0.95938009,0.95938009 0 1 0 -0.96875,1.65625 c 2.390793,1.3798311 2.882452,3.4944109 2.28125,5.375 -0.601202,1.880589 -2.344037,3.4375 -4.9062496,3.4375 -2.575923,0 -4.297634,-1.650181 -4.875,-3.59375 -0.577366,-1.9435687 -0.046862,-4.048112 2.1875,-5.21875 A 0.95009499,0.95009499 0 0 0 4.7500634,2.5 a 0.95009499,0.95009499 0 0 0 -0.09375,0 z"
     id="path3716"
     inkscape:connector-curvature="0" />
</svg>
