<svg xmlns="http://www.w3.org/2000/svg" width="32" height="32"><path d="M16.092 0c-4.03.017-8.03.528-10.113 1.488 0 0-4.48 2.04-4.48 8.985 0 8.268-.005 18.65 7.422 20.658 2.844.764 5.29.929 7.257.815 3.569-.201 5.334-1.295 5.334-1.295l-.12-2.637s-2.313.816-5.178.722c-2.837-.1-5.827-.313-6.293-3.856a7.525 7.525 0 0 1-.062-.996c6.013 1.493 11.14.65 12.552.48 3.94-.48 7.372-2.95 7.81-5.209.685-3.56.627-8.682.627-8.682 0-6.946-4.471-8.985-4.471-8.985C24.182.463 20.122-.016 16.092 0zm-4.313 5.298c1.381.037 2.745.655 3.586 1.96l.813 1.38.81-1.38c1.688-2.625 5.47-2.461 7.27-.43 1.66 1.931 1.29 3.178 1.29 11.808v.003h-3.265v-7.51c0-3.515-4.482-3.65-4.482.488v4.351h-3.244v-4.351c0-4.139-4.48-4.006-4.48-.49v7.51H6.806c0-8.638-.363-9.893 1.29-11.81.906-1.021 2.304-1.566 3.684-1.53z"/></svg>
