<svg viewBox="0 0 32 32" height="32" width="32" xmlns="http://www.w3.org/2000/svg" xml:space="preserve" style="fill-rule:evenodd;clip-rule:evenodd;stroke-linejoin:round;stroke-miterlimit:2"><path d="M30.713 19.184c-.44 2.258-3.93 4.727-7.94 5.206-2.09.25-4.15.479-6.343.378-3.59-.165-6.422-.857-6.422-.857 0 .35.02.683.065.994.465 3.542 3.513 3.755 6.396 3.853 2.914.1 5.508-.718 5.508-.718l.118 2.634s-2.037 1.093-5.665 1.295c-2 .109-4.486-.05-7.38-.816-6.276-1.661-7.358-8.352-7.52-15.14-.05-2.018-.02-3.918-.02-5.506 0-6.943 4.548-8.977 4.548-8.977C8.352.476 12.286.034 16.377 0h.1c4.091.034 8.03.476 10.322 1.53 0 0 4.548 2.034 4.548 8.977 0 0 .059 5.121-.634 8.677Zm-4.732-8.14c0-1.717-.437-3.081-1.317-4.093-.905-1.008-2.093-1.527-3.563-1.527-1.704 0-2.996.656-3.847 1.964l-.832 1.393-.83-1.393c-.852-1.308-2.143-1.964-3.847-1.964-1.473 0-2.659.519-3.564 1.527-.88 1.012-1.316 2.376-1.316 4.094v8.405h3.328v-8.159c0-1.72.726-2.591 2.172-2.591 1.6 0 2.403 1.033 2.403 3.082v4.466h3.31v-4.466c0-2.049.803-3.082 2.403-3.082 1.446 0 2.172.871 2.172 2.591v8.16h3.328v-8.406Z"/></svg>