<svg width="32px" height="32px" fill="#000000" version="1.1" viewBox="0 0 32 32" xmlns="http://www.w3.org/2000/svg"><path d="m16.092 4.0424e-4c-4.0298 0.016343-8.0309 0.52796-10.113 1.4879 0 0-4.4793 2.0391-4.4793 8.9846 0 8.2676-6e-3 18.65 7.4211 20.658 2.8444 0.76446 5.2905 0.929 7.257 0.81559 3.5688-0.20146 5.3339-1.295 5.3339-1.295l-0.11986-2.637s-2.3132 0.81518-5.1776 0.72179c-2.8377-0.10006-5.8272-0.31302-6.2928-3.8565-0.042694-0.32953-0.063873-0.66319-0.062538-0.99539 6.0129 1.4929 11.14 0.65022 12.552 0.47946 3.941-0.47896 7.3718-2.9502 7.8094-5.2089 0.68575-3.5595 0.62798-8.6823 0.62798-8.6823 0-6.9455-4.4714-8.9846-4.4714-8.9846-2.1953-1.0253-6.2551-1.5042-10.285-1.4879zm-4.3125 5.2975c1.3807 0.037022 2.745 0.65473 3.5855 1.9595l0.81299 1.381 0.81038-1.381c1.6877-2.6242 5.4702-2.4605 7.27-0.42995 1.6597 1.9318 1.2898 3.1787 1.2898 11.809v0.0025h-3.265v-7.5097c0-3.5154-4.4819-3.6512-4.4819 0.48727v4.3516h-3.2441v-4.3515c0-4.1385-4.4793-4.0053-4.4793-0.48988v7.5097h-3.2728c0-8.6371-0.36316-9.892 1.2898-11.809 0.90654-1.0219 2.3038-1.5666 3.6845-1.5296z" stroke-width="1.3341"/></svg>
