<svg xmlns="http://www.w3.org/2000/svg" width="16" height="16"><path d="M2 2c-.554 0-1 .446-1 1s.446 1 1 1h12c.554 0 1-.446 1-1s-.446-1-1-1H2zm9.717 4.006c-1.247 0-2.143 1.02-2.143 1.998 0 1 .073 1.713.572 2.498.16.207.347.251.5.43.097.357.171.713.071 1.07-.311.109-.607.237-.906.357-.364-.195-.787-.357-1.15-.5-.05-.2-.014-.347.036-.535.086-.089.163-.129.256-.215.264-.321.28-.864.28-1.25 0-.57-.514-.998-1.07-.998-.622 0-1.073.513-1.073.998h-.014c0 .5.036.858.285 1.25.072.107.173.126.25.215.048.179.086.357.036.535a8.93 8.93 0 0 0-1.284.571c-.3.214-.166.131-.357.822-.089.357.928.521 1.656.578a9.045 9.045 0 0 1-.228.957C7.205 15.68 10.54 16 11.717 16c1.735 0 4.507-.325 4.269-1.213-.371-1.385-.15-1.221-.701-1.642-.778-.467-1.749-.834-2.568-1.143-.107-.398-.03-.692.07-1.07.168-.179.357-.259.514-.43.492-.631.556-1.73.556-2.498 0-1.132-1.019-1.998-2.14-1.998zM2 7c-.554 0-1 .446-1 1s.446 1 1 1h4.285c.09-.185.2-.365.352-.52.372-.38.917-.598 1.488-.619h.02c.172.017.304.06.43.143 0-.349.074-.685.195-1.004H2zm0 5c-.554 0-1 .446-1 1s.446 1 1 1h3.25c-.037-.049-.078-.09-.111-.152a1.268 1.268 0 0 1-.104-.838l.002-.012.004-.012c.082-.298.056-.322.144-.615.032-.103.112-.245.2-.371H2z"/></svg>
