<svg viewBox="0 0 16 16" height="16" width="16" xmlns="http://www.w3.org/2000/svg" xml:space="preserve" style="fill-rule:evenodd;clip-rule:evenodd;stroke-linejoin:round;stroke-miterlimit:2"><path d="M15.963 15.993h-1.888v-1.428c0-.35-.097-.685-.291-1.007a2.562 2.562 0 0 0-.828-.827c.75.084 1.477.31 2.144.666.286.159.504.335.654.53.108.139.177.286.208.442 0-.025-.001-.052-.003-.077a.99.99 0 0 1 .041.283v1.428h-.037v-.01Zm-10.708-3.36H1v-1.555h5.312c.084.32.218.62.392.893-.414.148-.82.322-1.214.522a2.04 2.04 0 0 0-.235.14Zm1.362-3.889H1V7.19h7.915a3.131 3.131 0 0 0-2.298 1.555ZM1 4.856V3.3h14v1.556H1Zm4.5 11.137V14.66c0-.27.07-.517.209-.744.133-.22.324-.4.553-.518.478-.241.981-.427 1.5-.554a6.568 6.568 0 0 1 3.097 0 7.044 7.044 0 0 1 1.501.554c.23.12.416.293.554.518.14.227.208.475.208.744v1.334H5.5Zm3.811-3.81c-.524 0-.973-.187-1.346-.56a1.835 1.835 0 0 1-.56-1.346c0-.525.187-.973.56-1.346.373-.373.822-.56 1.346-.56.525 0 .973.187 1.346.56.373.373.56.821.56 1.346 0 .524-.187.973-.56 1.345-.373.374-.821.56-1.346.56Zm4.764-1.906c0 .524-.186.973-.56 1.345-.372.374-.821.56-1.345.56-.087 0-.199-.01-.334-.03a3.082 3.082 0 0 1-.334-.065c.213-.25.38-.537.495-.846.115-.308.173-.635.173-.964a2.823 2.823 0 0 0-.667-1.81c.11-.04.223-.066.333-.078.111-.012.222-.018.334-.018.524 0 .973.187 1.345.56.374.373.56.821.56 1.346Z"/></svg>