<svg viewBox="0 0 16 16" height="16" width="16" xmlns="http://www.w3.org/2000/svg" xml:space="preserve" style="fill-rule:evenodd;clip-rule:evenodd;stroke-linejoin:round;stroke-miterlimit:2"><path d="M6 14c-.55 0-1.021-.196-1.412-.587A1.927 1.927 0 0 1 4 12c0-.55.196-1.021.588-1.413A1.926 1.926 0 0 1 6 10c.55 0 1.021.196 1.413.587.391.392.587.863.587 1.413a1.93 1.93 0 0 1-.587 1.413A1.93 1.93 0 0 1 6 14Zm6 0c-.55 0-1.021-.196-1.412-.587A1.927 1.927 0 0 1 10 12c0-.55.196-1.021.588-1.413A1.926 1.926 0 0 1 12 10c.55 0 1.021.196 1.413.587.391.392.587.863.587 1.413a1.93 1.93 0 0 1-.587 1.413A1.93 1.93 0 0 1 12 14Zm6 0c-.55 0-1.021-.196-1.412-.587A1.927 1.927 0 0 1 16 12c0-.55.196-1.021.588-1.413A1.926 1.926 0 0 1 18 10c.55 0 1.021.196 1.413.587.391.392.587.863.587 1.413a1.93 1.93 0 0 1-.587 1.413A1.93 1.93 0 0 1 18 14Z" style="fill-rule:nonzero" transform="translate(-3.25 -3.275) scale(.9375)"/></svg>