<?xml version="1.0" encoding="UTF-8" standalone="no"?>
<svg
   viewbox="0 0 16 16"
   height="16"
   width="16"
   version="1.1"
   id="svg4"
   xmlns="http://www.w3.org/2000/svg"
   xmlns:svg="http://www.w3.org/2000/svg">
  <defs
     id="defs8" />
  <path
     id="path2"
     style="display:inline;stroke-width:0.800014"
     d="M 8.0039062 2.3457031 L 8.0039062 2.3554688 C 6.6696937 2.3554688 5.6996597 3.3931649 5.6113281 4.4394531 C 5.6052148 4.4899805 5.6059553 4.5420492 5.6035156 4.59375 C 5.6019453 4.6270287 5.5976562 4.6596244 5.5976562 4.6933594 C 5.5976563 5.5533732 5.6763191 6.7861292 6.2363281 7.4941406 C 6.3963307 7.6861436 6.6088721 7.7726531 6.796875 7.9726562 C 6.8668761 8.2376605 6.9272655 8.4662461 6.9335938 8.7089844 C 6.9331309 8.7310589 6.9349596 8.7533161 6.9335938 8.7753906 C 6.9335542 8.777987 6.9316932 8.7806023 6.9316406 8.7832031 C 6.9251191 8.8805327 6.9100648 8.9768892 6.8828125 9.0742188 C 6.6588092 9.1542201 6.462191 9.2498892 6.2421875 9.3378906 C 6.1741865 9.2178886 6.0591908 9.1795337 5.8671875 9.0195312 C 5.2831781 8.6675255 4.6199162 8.4195038 4.0039062 8.1875 C 3.9239043 7.8914953 3.9239043 7.6667233 4.0039062 7.3867188 C 4.1287083 7.2539166 4.2983422 7.1709707 4.4023438 7.0429688 C 4.7703497 6.562961 4.8027344 5.7192936 4.8027344 5.1464844 C 4.8027344 4.2984708 4.0399377 3.6269531 3.203125 3.6269531 C 2.2671101 3.6269531 1.6035156 4.4264729 1.6035156 5.1464844 C 1.6035156 5.8904963 1.6291467 6.4589593 2.0019531 7.0429688 C 2.1059548 7.2029713 2.2959422 7.2507166 2.4023438 7.3867188 C 2.4823457 7.650723 2.4823457 7.9106956 2.4023438 8.1875 C 1.7223329 8.427504 1.1232594 8.6995261 0.53125 9.0195312 C 0.075242636 9.3395363 0.11395491 9.1821701 0.001953125 10.242188 C -0.086048487 11.090201 1.8711036 11.146484 3.203125 11.146484 L 3.3398438 11.146484 C 3.2966438 11.365688 3.2591246 11.651491 3.203125 12.1875 C 3.2004816 12.213768 3.2012437 12.238404 3.2011719 12.263672 C 3.1999724 12.274794 3.1984808 12.281665 3.1972656 12.292969 C 3.0692637 13.57299 5.9960618 13.654297 7.9960938 13.654297 C 9.9586328 13.654297 12.813371 13.568274 12.798828 12.363281 C 12.806568 12.306657 12.80895 12.249655 12.802734 12.1875 C 12.756727 11.759526 12.721327 11.468266 12.683594 11.253906 L 12.796875 11.253906 C 14.128896 11.253906 16.086047 11.197623 15.998047 10.349609 C 15.886045 9.2895927 15.924758 9.4450048 15.46875 9.125 C 14.876741 8.8049949 14.277667 8.5329726 13.597656 8.2929688 C 13.517656 8.0161643 13.517656 7.7581448 13.597656 7.4941406 C 13.704058 7.3581384 13.894045 7.3084401 13.998047 7.1484375 C 14.370853 6.5644281 14.396484 5.9979182 14.396484 5.2539062 C 14.396484 4.5338947 13.732889 3.7324219 12.796875 3.7324219 C 11.960062 3.7324219 11.197266 4.4058927 11.197266 5.2539062 C 11.197266 5.8267154 11.22965 6.6684298 11.597656 7.1484375 C 11.701657 7.2764395 11.871292 7.3613385 11.996094 7.4941406 C 12.076094 7.774145 12.076094 7.996964 11.996094 8.2929688 C 11.380084 8.5249724 10.716822 8.7729943 10.132812 9.125 C 10.006694 9.2300986 9.9161272 9.2835681 9.8476562 9.3417969 C 9.5999447 9.2451594 9.3560782 9.1535397 9.1230469 9.0664062 C 9.0863369 8.9293558 9.0714063 8.8043679 9.0683594 8.6835938 C 9.080618 8.4493976 9.1340327 8.2146649 9.1972656 7.9804688 C 9.3572683 7.7804655 9.5978099 7.7339568 9.7578125 7.5019531 C 10.261281 6.7107885 10.374389 5.9818057 10.392578 5.0292969 C 10.39842 4.8749765 10.402344 4.7246602 10.402344 4.5859375 C 10.402344 3.3059171 9.2599263 2.3457031 8.0039062 2.3457031 z " />
</svg>
