<svg viewBox="0 0 16 16" height="16" width="16" xmlns="http://www.w3.org/2000/svg" xml:space="preserve" style="fill-rule:evenodd;clip-rule:evenodd;stroke-linejoin:round;stroke-miterlimit:2"><path d="M6 22c-.55 0-1.021-.196-1.412-.587A1.927 1.927 0 0 1 4 20V10c0-.55.196-1.021.588-1.413A1.926 1.926 0 0 1 6 8h1V6c0-1.383.488-2.562 1.463-3.538C9.438 1.487 10.617 1 12 1s2.563.487 3.538 1.462C16.513 3.438 17 4.617 17 6v2h1c.55 0 1.021.196 1.413.587.391.392.587.863.587 1.413v10a1.93 1.93 0 0 1-.587 1.413A1.93 1.93 0 0 1 18 22H6Zm6-5a1.93 1.93 0 0 0 1.413-.587A1.93 1.93 0 0 0 14 15a1.93 1.93 0 0 0-.587-1.413A1.93 1.93 0 0 0 12 13c-.55 0-1.021.196-1.412.587A1.927 1.927 0 0 0 10 15c0 .55.196 1.021.588 1.413.391.391.862.587 1.412.587ZM9 8h6V6c0-.833-.292-1.542-.875-2.125A2.894 2.894 0 0 0 12 3c-.833 0-1.542.292-2.125.875A2.894 2.894 0 0 0 9 6v2Z" style="fill-rule:nonzero" transform="matrix(.66667 0 0 .66667 -.01 .333)"/></svg>