<svg xmlns="http://www.w3.org/2000/svg" xml:space="preserve" style="fill-rule:evenodd;clip-rule:evenodd;stroke-linejoin:round;stroke-miterlimit:2" viewBox="0 0 16 16" width="16" height="16"><path d="M240-80c-22 0-40.833-7.833-56.5-23.5C167.833-119.167 160-138 160-160v-400c0-22 7.833-40.833 23.5-56.5C199.167-632.167 218-640 240-640h40v-80c0-55.333 19.5-102.5 58.5-141.5S424.667-920 480-920s102.5 19.5 141.5 58.5S680-775.333 680-720v80h40c22 0 40.833 7.833 56.5 23.5C792.167-600.833 800-582 800-560v400c0 22-7.833 40.833-23.5 56.5C760.833-87.833 742-80 720-80H240Zm0-80h480v-400H240v400Zm240-120c22 0 40.833-7.833 56.5-23.5C552.167-319.167 560-338 560-360s-7.833-40.833-23.5-56.5C520.833-432.167 502-440 480-440s-40.833 7.833-56.5 23.5C407.833-400.833 400-382 400-360s7.833 40.833 23.5 56.5C439.167-287.833 458-280 480-280ZM360-640h240v-80c0-33.333-11.667-61.667-35-85s-51.667-35-85-35-61.667 11.667-85 35-35 51.667-35 85v80ZM240-160v-400 400Z" style="fill-rule:nonzero" transform="matrix(.01667 0 0 .01667 .033 16.333)"/></svg>