<svg viewBox="0 0 16 16" height="16" width="16" xmlns="http://www.w3.org/2000/svg" xml:space="preserve" style="fill-rule:evenodd;clip-rule:evenodd;stroke-linejoin:round;stroke-miterlimit:2"><path d="M19.95 21c-2.083 0-4.142-.454-6.175-1.362-2.033-.909-3.883-2.196-5.55-3.863-1.667-1.667-2.954-3.517-3.862-5.55C3.454 8.192 3 6.133 3 4.05c0-.3.1-.55.3-.75.2-.2.45-.3.75-.3H8.1c.233 0 .442.079.625.237a.916.916 0 0 1 .325.563l.65 3.5a1.77 1.77 0 0 1-.025.675c-.05.183-.142.342-.275.475L6.975 10.9c.333.617.729 1.212 1.187 1.788a17.76 17.76 0 0 0 1.513 1.662c.517.517 1.058.996 1.625 1.438.567.441 1.167.845 1.8 1.212l2.35-2.35c.15-.15.346-.263.588-.337.241-.076.479-.096.712-.063l3.45.7c.233.067.425.187.575.363.15.174.225.37.225.587v4.05c0 .3-.1.55-.3.75-.2.2-.45.3-.75.3Z" style="fill-rule:nonzero" transform="scale(.66667)"/></svg>