<svg xmlns="http://www.w3.org/2000/svg" xml:space="preserve" style="fill-rule:evenodd;clip-rule:evenodd;stroke-linejoin:round;stroke-miterlimit:2" viewBox="0 0 16 16" width="16" height="16"><path d="M480-480c-44 0-81.667-15.667-113-47s-47-69-47-113 15.667-81.667 47-113 69-47 113-47 81.667 15.667 113 47 47 69 47 113-15.667 81.667-47 113-69 47-113 47ZM160-160v-112c0-22.667 5.833-43.5 17.5-62.5S204.667-368 224-378c41.333-20.667 83.333-36.167 126-46.5 42.667-10.333 86-15.5 130-15.5s87.333 5.167 130 15.5 84.667 25.833 126 46.5c19.333 10 34.833 24.5 46.5 43.5 11.667 19 17.5 39.833 17.5 62.5v112H160Zm80-80h480v-32c0-7.333-1.833-14-5.5-20s-8.5-10.667-14.5-14c-36-18-72.333-31.5-109-40.5S517.333-360 480-360s-74.333 4.5-111 13.5S296-324 260-306c-6 3.333-10.833 8-14.5 14s-5.5 12.667-5.5 20v32Zm240-320c22 0 40.833-7.833 56.5-23.5C552.167-599.167 560-618 560-640s-7.833-40.833-23.5-56.5C520.833-712.167 502-720 480-720s-40.833 7.833-56.5 23.5C407.833-680.833 400-662 400-640s7.833 40.833 23.5 56.5C439.167-567.833 458-560 480-560Z" style="fill-rule:nonzero" transform="matrix(.02187 0 0 .02187 -2.5 18.5)"/></svg>