<svg width="16" height="16" fill="none" viewBox="0 0 16 16" xmlns="http://www.w3.org/2000/svg"><path d="m8 1c0.92826 0 1.8185 0.36875 2.4749 1.0251 0.6564 0.65637 1.0251 1.5466 1.0251 2.4749s-0.3687 1.8185-1.0251 2.4749c-0.6564 0.65638-1.5466 1.0251-2.4749 1.0251s-1.8185-0.36875-2.4749-1.0251c-0.65638-0.65637-1.0251-1.5466-1.0251-2.4749s0.36875-1.8185 1.0251-2.4749c0.65637-0.65638 1.5466-1.0251 2.4749-1.0251zm0 8.75c3.8675 0 7 1.5662 7 3.5v1.75h-14v-1.75c0-1.9338 3.1325-3.5 7-3.5z" fill="#000"/></svg>
