<svg viewBox="0 0 16 16" height="16" width="16" xmlns="http://www.w3.org/2000/svg" xml:space="preserve" style="fill-rule:evenodd;clip-rule:evenodd;stroke-linejoin:round;stroke-miterlimit:2"><path d="M4 22c-.55 0-1.021-.196-1.412-.587A1.927 1.927 0 0 1 2 20v-9c0-.55.196-1.021.588-1.413A1.926 1.926 0 0 1 4 9h2V4c0-.55.196-1.021.588-1.413A1.926 1.926 0 0 1 8 2h12c.55 0 1.021.196 1.413.587.391.392.587.863.587 1.413v9a1.93 1.93 0 0 1-.587 1.413A1.93 1.93 0 0 1 20 15h-2v5a1.93 1.93 0 0 1-.587 1.413A1.93 1.93 0 0 1 16 22H4Zm0-2h12v-7H4v7Zm14-7h2V6H8v3h8c.55 0 1.021.196 1.413.587.391.392.587.863.587 1.413v2Z" style="fill-rule:nonzero" transform="matrix(.7 0 0 .7 -.4 -.4)"/></svg>