<svg xmlns="http://www.w3.org/2000/svg" version="1.1" viewBox="0 0 16 16" height="16" width="16"><path fill="#fff" d="m9.2363 2.166-3.1816 3.1836c-0.7071 0.7072-1.0378 1.6182-0.9883 2.457 0.05 0.8389 0.4333 1.5841 0.9883 2.1387l1.4121-1.416c-0.5672-0.5672-0.5444-1.2192 0.002-1.7656l3.1812-3.1817c0.52536-0.52536 1.2507-0.52318 1.772-0.002 0.48245 0.5556 0.52732 1.2382-0.004 1.7695l-0.82 0.8203c0.555 0.785 0.645 1.3663 0.593 2.2344l1.641-1.6406c1.2374-1.2374 1.2371-3.3645 0-4.6016-1.236-1.2361-3.342-1.2113-4.5957 0.004zm0.7071 3.8848-1.4141 1.418c0 0 0.003-00 0.004 0 0.55 0.55 0.50736 1.2582-0.004 1.7695l-3.1816 3.1817c-0.696 0.59192-1.2985 0.47105-1.7696 0-0.62636-0.62636-0.5-1.2681 0-1.768l0.85-0.8473c-0.556-0.7835-0.6484-1.365-0.5976-2.2324l-1.666 1.666c-1.2393 1.2393-1.2357 3.36 0 4.5957 1.2353 1.2353 3.362 1.2356 4.5976 0l3.1817-3.182c0.7086-0.7083 1.0396-1.6184 0.9906-2.4586-0.048-0.8401-0.432-1.5864-0.9887-2.1407z"/></svg>
