<?xml version="1.0" encoding="UTF-8" standalone="no"?>
<svg xmlns:rdf="http://www.w3.org/1999/02/22-rdf-syntax-ns#" xmlns="http://www.w3.org/2000/svg" height="16" width="16" version="1.0" xmlns:cc="http://creativecommons.org/ns#" xmlns:xlink="http://www.w3.org/1999/xlink" xmlns:dc="http://purl.org/dc/elements/1.1/">
 <path d="m8 1c-3.866 0-7 3.134-7 7s3.134 7 7 7 7-3.134 7-7-3.134-7-7-7zm0.80208 0.89323c1.2011 0.026708 2.2625 0.74821 3.3359 1.2214l1.732 2.3971-0.274 1.03 0.529 0.3281-0.009 1.2213c-0.0121 0.34937 0.005 0.69921-0.0091 1.0482-0.16635 0.66235-0.55063 1.2666-0.875 1.8685-0.21989 0.10841 0.02005-0.7185-0.11849-0.97526 0.032-0.5934-0.471-0.566-0.811-0.2364-0.421 0.2454-1.346 0.3194-1.376-0.3464-0.239-0.8001-0.035-1.6526 0.291-2.3971l-0.537-0.6563 0.191-1.6862-0.857-0.8658 0.201-0.948-1.0028-0.5651c-0.1977-0.1552-0.5738-0.2166-0.6563-0.4284 0.0814-0.0046 0.166-0.0109 0.2461-0.0091zm-2.4609 0.00912c0.031442 0.00459 0.069992 0.026431 0.1276 0.072917 0.338 0.1857-0.0825 0.3964-0.1823 0.5925-0.5398 0.3651 0.166 0.6641 0.401 0.957 0.3767-0.1082 0.7535-0.6467 1.3034-0.483 0.7034-0.2195 0.5913 0.5891 0.9935 0.9479 0.0522 0.1689 0.88 0.7185 0.3828 0.5377-0.4095-0.3174-0.8649-0.2935-1.1576 0.1641-0.7909 0.4286-0.3228-0.8252-0.7018-1.1302-0.5729-0.6392-0.3328 0.4775-0.401 0.8112-0.3725-0.0081-1.0681-0.2866-1.4492 0.1641l0.3736 0.6106 0.4467-0.6836c0.1085-0.2474 0.2447 0.1923 0.3645 0.2735 0.1431 0.2759 0.823 0.7434 0.3099 0.875-0.7606 0.4219-1.3589 1.0618-2.0052 1.6315-0.218 0.46-0.663 0.4074-0.9388 0.0273-0.6672-0.4105-0.6177 0.6566-0.5833 1.0573l0.58333-0.36458v0.60156c-0.0165 0.1138-0.0024 0.2322-0.0091 0.3464-0.4087 0.427-0.8207-0.5995-1.1758-0.8295l-0.0273-1.5039c0.0129-0.4225-0.0763-0.8551 0.0091-1.2669 0.8038-0.8625 1.6202-1.7561 2.0964-2.8529h0.78385c0.5478 0.2654 0.2357-0.5881 0.4557-0.556zm-1.1576 7.8204c0.095099-0.010145 0.20328 0.011573 0.31901 0.072921 0.73794 0.10562 1.2897 0.6409 1.8776 1.0482 0.46872 0.46452 1.4828 0.31578 1.5951 1.1029-0.17061 0.85375-1.0105 1.3122-1.75 1.6133-0.1846 0.103-0.383 0.185-0.5925 0.219-0.6856 0.171-0.982-0.532-1.1211-1.058-0.3104-0.65-1.0862-1.142-0.9752-1.941 0.0182-0.397 0.235-1.0134 0.6471-1.0573z"/>
</svg>
