<svg xmlns="http://www.w3.org/2000/svg" width="16" height="16"><path fill="#fff" d="M9.236 2.166 6.055 5.35c-.707.707-1.038 1.618-.989 2.457.05.839.434 1.584.989 2.138L7.467 8.53c-.567-.567-.545-1.219.002-1.765l3.181-3.182c.525-.525 1.25-.523 1.772-.002.482.556.527 1.238-.004 1.77l-.82.82c.555.785.645 1.366.593 2.234l1.641-1.64c1.237-1.238 1.237-3.365 0-4.602C12.596.926 10.49.951 9.236 2.166zm.707 3.885L8.53 7.469h.004c.55.55.508 1.258-.004 1.77L5.348 12.42c-.696.592-1.299.471-1.77 0-.626-.626-.5-1.268 0-1.768l.85-.847c-.556-.784-.648-1.365-.597-2.233L2.165 9.238c-1.24 1.24-1.236 3.36 0 4.596 1.235 1.235 3.362 1.236 4.597 0l3.182-3.182c.708-.708 1.04-1.618.99-2.459-.048-.84-.432-1.586-.988-2.14z"/></svg>
