<svg viewBox="0 0 16 16" height="16" width="16" xmlns="http://www.w3.org/2000/svg" xml:space="preserve" style="fill-rule:evenodd;clip-rule:evenodd;stroke-linejoin:round;stroke-miterlimit:2"><path d="m15.3 16.7 1.4-1.4-3.7-3.7V7h-2v5.4l4.3 4.3ZM12 22a9.723 9.723 0 0 1-3.9-.788 10.077 10.077 0 0 1-3.175-2.137c-.9-.9-1.612-1.958-2.137-3.175A9.74 9.74 0 0 1 2 12a9.74 9.74 0 0 1 .788-3.9 10.093 10.093 0 0 1 2.137-3.175c.9-.9 1.958-1.612 3.175-2.138A9.74 9.74 0 0 1 12 2a9.74 9.74 0 0 1 3.9.787 10.113 10.113 0 0 1 3.175 2.138c.9.9 1.613 1.958 2.138 3.175A9.74 9.74 0 0 1 22 12a9.74 9.74 0 0 1-.787 3.9 10.096 10.096 0 0 1-2.138 3.175c-.9.9-1.958 1.613-3.175 2.137A9.723 9.723 0 0 1 12 22Zm0-2c2.217 0 4.104-.779 5.663-2.337C19.221 16.104 20 14.217 20 12s-.779-4.104-2.337-5.663C16.104 4.779 14.217 4 12 4s-4.104.779-5.662 2.337C4.779 7.896 4 9.783 4 12s.779 4.104 2.338 5.663C7.896 19.221 9.783 20 12 20Z" style="fill-rule:nonzero" transform="matrix(.8 0 0 .8 -1.6 -1.6)"/></svg>