<svg xmlns="http://www.w3.org/2000/svg" xml:space="preserve" style="fill-rule:evenodd;clip-rule:evenodd;stroke-linejoin:round;stroke-miterlimit:2" viewBox="0 0 16 16" width="16" height="16"><path d="M200-200h57l391-391-57-57-391 391v57Zm-80 80v-170l528-527c8-7.333 16.833-13 26.5-17 9.667-4 19.833-6 30.5-6 10.667 0 21 2 31 6s18.667 10 26 18l55 56c8 7.333 13.833 16 17.5 26s5.5 20 5.5 30c0 10.667-1.833 20.833-5.5 30.5-3.667 9.667-9.5 18.5-17.5 26.5L290-120H120Zm640-584-56-56 56 56Zm-141 85-28-29 57 57-29-28Z" style="fill-rule:nonzero" transform="matrix(.01944 0 0 .01944 -1.333 17.333)"/></svg>