<svg viewBox="0 0 16 16" height="16" width="16" xmlns="http://www.w3.org/2000/svg" xml:space="preserve" style="fill-rule:evenodd;clip-rule:evenodd;stroke-linejoin:round;stroke-miterlimit:2"><path d="M8 21v-2h2v-2H4c-.55 0-1.021-.196-1.412-.587A1.927 1.927 0 0 1 2 15V5c0-.55.196-1.021.588-1.413A1.926 1.926 0 0 1 4 3h16c.55 0 1.021.196 1.413.587.391.392.587.863.587 1.413v10a1.93 1.93 0 0 1-.587 1.413A1.93 1.93 0 0 1 20 17h-6v2h2v2H8Zm-4-6h16V5H4v10Zm0 0V5v10Z" style="fill-rule:nonzero" transform="matrix(.7 0 0 .7 -.4 -.4)"/></svg>