<svg viewBox="0 0 16 16" height="16" width="16" xmlns="http://www.w3.org/2000/svg" xml:space="preserve" style="fill-rule:evenodd;clip-rule:evenodd;stroke-linejoin:round;stroke-miterlimit:2"><path d="m1.004 2.987-.913-.913.99-.99 12.93 12.93-.99.99L9.519 11.5H9.4v1.4h1.4v1.4H5.2v-1.4h1.4v-1.4H2.4a1.35 1.35 0 0 1-.99-.41A1.35 1.35 0 0 1 1 10.1v-7c0-.038.001-.076.004-.113ZM8.118 10.1 2.4 4.382V10.1h5.718ZM3.664 1.7H13.6c.385 0 .715.137.99.41.273.275.41.605.41.99v7c0 .385-.137.715-.41.99a1.35 1.35 0 0 1-.99.41h-.136l-1.4-1.4H13.6v-7H5.064l-1.4-1.4Z"/></svg>