<svg xmlns="http://www.w3.org/2000/svg" height="16" width="16" version="1.1" viewBox="0 0 16 16"><path d="m12.986 1.0117v0.002c-0.255 0-0.511 0.0952-0.707 0.291l-9.986 9.9843c-0.3918 0.392-0.3918 1.024 0 1.416 0.3917 0.392 1.0242 0.392 1.416 0l9.984-9.9862c0.392-0.392 0.392-1.0223 0-1.4141-0.196-0.1958-0.451-0.293-0.707-0.293zm-10.986 0.9883c-0.554 0-1 0.446-1 1v8c0 0.152 0.0393 0.293 0.0996 0.422 0.0909-0.308 0.2469-0.598 0.4863-0.838v-0.002l1.4141-1.414v-5.168h5.1699l2.0001-2h-8.17zm12.893 0.5664c-0.09 0.3155-0.248 0.6146-0.493 0.8594l-1.4 1.4004v5.1738h-5.1719l-2 2h1.1719v1h-2v2h6v-2h-2v-1h5c0.554 0 1-0.446 1-1v-8c0-0.1573-0.043-0.3014-0.107-0.4336z"/></svg>
