<?xml version="1.0" encoding="UTF-8" standalone="no"?>
<svg xmlns="http://www.w3.org/2000/svg" height="16" width="16" version="1.1" viewBox="0 0 16 16">
 <defs>
  <filter id="a" style="color-interpolation-filters:sRGB" height="1.3602" width="1.3598" y="-.18008" x="-.17992">
   <feGaussianBlur stdDeviation="1.0495605"/>
  </filter>
 </defs>
 <path opacity=".5" d="m12.986 1.0117v0.00195c-0.255 0-0.51103 0.095216-0.70703 0.29102l-9.986 9.9844c-0.3918 0.392-0.3918 1.024 0 1.416 0.3917 0.392 1.0242 0.392 1.416 0l9.984-9.9862c0.392-0.392 0.392-1.0223 0-1.4141-0.196-0.1958-0.45103-0.29297-0.70703-0.29297zm-10.986 0.9883c-0.554 0-1 0.446-1 1v8c0 0.15223 0.03927 0.29296 0.09961 0.42188 0.09087-0.30747 0.24693-0.59837 0.48633-0.83789v-0.002l1.4141-1.414v-5.168h5.1699l2-2h-8.17zm12.893 0.56641c-0.08943 0.31553-0.24744 0.61463-0.49219 0.85938l-1.401 1.4004v5.1738h-5.1719l-2 2h1.1719v1h-2v2h6v-2h-2v-1h5c0.554 0 1-0.446 1-1v-8c0-0.1573-0.043-0.3014-0.107-0.4336z" fill-rule="evenodd" filter="url(#a)"/>
 <path d="m12.986 1.0117v0.00195c-0.255 0-0.51103 0.095216-0.70703 0.29102l-9.986 9.9844c-0.3918 0.392-0.3918 1.024 0 1.416 0.3917 0.392 1.0242 0.392 1.416 0l9.984-9.9862c0.392-0.392 0.392-1.0223 0-1.4141-0.196-0.1958-0.45103-0.29297-0.70703-0.29297zm-10.986 0.9883c-0.554 0-1 0.446-1 1v8c0 0.15223 0.03927 0.29296 0.09961 0.42188 0.09087-0.30747 0.24693-0.59837 0.48633-0.83789v-0.002l1.4141-1.414v-5.168h5.1699l2-2h-8.17zm12.893 0.56641c-0.08943 0.31553-0.24744 0.61463-0.49219 0.85938l-1.401 1.4004v5.1738h-5.1719l-2 2h1.1719v1h-2v2h6v-2h-2v-1h5c0.554 0 1-0.446 1-1v-8c0-0.1573-0.043-0.3014-0.107-0.4336z" fill-rule="evenodd" fill="#fff"/>
</svg>
