<svg viewBox="0 0 16 16" height="16" width="16" xmlns="http://www.w3.org/2000/svg" xml:space="preserve" style="fill-rule:evenodd;clip-rule:evenodd;stroke-linejoin:round;stroke-miterlimit:2"><path d="m19.6 21-6.3-6.3A6.105 6.105 0 0 1 9.5 16c-1.817 0-3.354-.629-4.612-1.888C3.629 12.854 3 11.317 3 9.5c0-1.817.629-3.354 1.888-4.613C6.146 3.629 7.683 3 9.5 3c1.817 0 3.354.629 4.613 1.887C15.371 6.146 16 7.683 16 9.5a6.105 6.105 0 0 1-1.3 3.8l6.3 6.3-1.4 1.4ZM9.5 14c1.25 0 2.313-.437 3.188-1.312S14 10.75 14 9.5c0-1.25-.437-2.312-1.312-3.187S10.75 5 9.5 5c-1.25 0-2.312.438-3.187 1.313S5 8.25 5 9.5c0 1.25.438 2.313 1.313 3.188S8.25 14 9.5 14Z" style="fill-rule:nonzero" transform="matrix(.77778 0 0 .77778 -1.333 -1.333)"/></svg>