<svg xmlns="http://www.w3.org/2000/svg" version="1.1" height="16" width="16" viewBox="0 0 16 16"><path opacity="#fff" d="m6.938 0.5a0.43 0.43 0 0 0 -0.438 0.438v1.25a5.818 5.818 0 0 0 -1.53 0.656l-0.907-0.906a0.436 0.436 0 0 0 -0.625 0l-1.5 1.5a0.436 0.436 0 0 0 0 0.624l0.906 0.907c-0.285 0.48-0.514 0.976-0.656 1.53h-1.25a0.43 0.43 0 0 0 -0.438 0.438v2.125c0 0.248 0.19 0.438 0.438 0.438h1.25a5.82 5.82 0 0 0 0.656 1.53l-0.907 0.908a0.436 0.436 0 0 0 0 0.625l1.5 1.5c0.176 0.176 0.45 0.176 0.625 0l0.907-0.907c0.48 0.285 0.976 0.514 1.53 0.656v1.25c0 0.25 0.19 0.438 0.437 0.438h2.125a0.43 0.43 0 0 0 0.438 -0.438v-1.25a5.82 5.82 0 0 0 1.53 -0.657l0.907 0.907c0.176 0.175 0.45 0.175 0.625 0l1.5-1.5a0.436 0.436 0 0 0 0 -0.625l-0.906-0.906a5.79 5.79 0 0 0 0.657 -1.531h1.25a0.43 0.43 0 0 0 0.438 -0.438v-2.125a0.43 0.43 0 0 0 -0.438 -0.437h-1.25a5.79 5.79 0 0 0 -0.656 -1.532l0.906-0.906a0.436 0.436 0 0 0 0 -0.625l-1.5-1.5a0.436 0.436 0 0 0 -0.625 0l-0.906 0.906a5.816 5.816 0 0 0 -1.53 -0.656v-1.25a0.43 0.43 0 0 0 -0.438 -0.437zm1.062 4.157a3.344 3.344 0 0 1 0 6.6861 3.344 3.344 0 0 1 0 -6.6861z"/></svg>
