<svg xmlns="http://www.w3.org/2000/svg" xml:space="preserve" style="fill-rule:evenodd;clip-rule:evenodd;stroke-linejoin:round;stroke-miterlimit:2" viewBox="0 0 16 16" width="16" height="16"><path d="m370-80-16-128c-8.667-3.333-16.833-7.333-24.5-12a329.789 329.789 0 0 1-22.5-15l-119 50L78-375l103-78c-.667-4.667-1-9.167-1-13.5v-27c0-4.333.333-8.833 1-13.5L78-585l110-190 119 50a272.7 272.7 0 0 1 23-15c8-4.667 16-8.667 24-12l16-128h220l16 128c8.667 3.333 16.833 7.333 24.5 12a329.789 329.789 0 0 1 22.5 15l119-50 110 190-103 78c.667 4.667 1 9.167 1 13.5v27c0 4.333-.667 8.833-2 13.5l103 78-110 190-118-50a272.7 272.7 0 0 1-23 15c-8 4.667-16 8.667-24 12L590-80H370Zm70-80h79l14-106c20.667-5.333 39.833-13.167 57.5-23.5s33.833-22.833 48.5-37.5l99 41 39-68-86-65c3.333-9.333 5.667-19.167 7-29.5 1.333-10.333 2-20.833 2-31.5 0-10.667-.667-21.167-2-31.5-1.333-10.333-3.667-20.167-7-29.5l86-65-39-68-99 42c-14.667-15.333-30.833-28.167-48.5-38.5-17.667-10.333-36.833-18.167-57.5-23.5l-13-106h-79l-14 106c-20.667 5.333-39.833 13.167-57.5 23.5S335.667-647.667 321-633l-99-41-39 68 86 64c-3.333 10-5.667 20-7 30-1.333 10-2 20.667-2 32 0 10.667.667 21 2 31s3.667 20 7 30l-86 65 39 68 99-42c14.667 15.333 30.833 28.167 48.5 38.5 17.667 10.333 36.833 18.167 57.5 23.5l13 106Zm42-180c38.667 0 71.667-13.667 99-41s41-60.333 41-99-13.667-71.667-41-99-60.333-41-99-41c-39.333 0-72.5 13.667-99.5 41S342-518.667 342-480s13.5 71.667 40.5 99 60.167 41 99.5 41Z" style="fill-rule:nonzero" transform="translate(-.963 17) scale(.01875)"/></svg>