<?xml version="1.0" encoding="UTF-8" standalone="no"?>
<svg xmlns:rdf="http://www.w3.org/1999/02/22-rdf-syntax-ns#" xmlns="http://www.w3.org/2000/svg" height="16" width="16" version="1.0" xmlns:cc="http://creativecommons.org/ns#" xmlns:xlink="http://www.w3.org/1999/xlink" xmlns:dc="http://purl.org/dc/elements/1.1/">
 <rect style="color:#000000" fill-opacity="0" height="97.986" width="163.31" y="-32.993" x="-62.897"/>
 <path style="block-progression:tb;color:#000000;text-transform:none;text-indent:0" d="m4.5689 2.4831c-0.96481 0-1.7833 0.70559-1.7833 1.6162 0.00685 0.28781 0.032588 0.64272 0.20434 1.3933v0.018581l0.018574 0.018573c0.055135 0.15793 0.13537 0.24827 0.24149 0.37154 0.10612 0.12326 0.23263 0.26834 0.35294 0.39011 0.014154 0.014326 0.023227 0.023201 0.037149 0.037163 0.023859 0.10383 0.052763 0.21557 0.074304 0.3158 0.057317 0.26668 0.051439 0.45553 0.037155 0.52015-0.4146 0.1454-0.9304 0.3187-1.3932 0.5199-0.2598 0.113-0.4949 0.2139-0.6873 0.3344-0.1923 0.1206-0.3836 0.2116-0.4458 0.483-0.0007972 0.012367-0.0007972 0.024787 0 0.037163-0.060756 0.55788-0.15266 1.3783-0.22291 1.932-0.015166 0.11656 0.046264 0.23943 0.14861 0.29723 0.84033 0.45393 2.1312 0.63663 3.418 0.63161 1.2868-0.005 2.5674-0.19845 3.3808-0.63161 0.10234-0.0578 0.16378-0.18067 0.14861-0.29723-0.0224-0.173-0.05-0.5633-0.0743-0.9474-0.0243-0.384-0.0454-0.7617-0.0743-0.9845-0.0101-0.0552-0.0362-0.1074-0.0743-0.1486-0.2584-0.3086-0.6445-0.4973-1.096-0.6874-0.4122-0.1735-0.8954-0.3538-1.3746-0.5573-0.02682-0.059748-0.053461-0.23358 0-0.50157 0.014356-0.071959 0.036836-0.14903 0.055729-0.22292 0.045032-0.05044 0.080132-0.091658 0.13003-0.14861 0.1064-0.1215 0.2207-0.2489 0.3157-0.3715 0.0951-0.1226 0.1728-0.2279 0.223-0.3715l0.018574-0.018581c0.1941-0.7837 0.1942-1.1107 0.2043-1.3933v-0.018573c0-0.91058-0.81848-1.6162-1.7833-1.6162zm5.101-1.4831c-1.4067 0-2.6 1.0287-2.6 2.3562 0.00998 0.4196 0.047512 0.93701 0.29791 2.0312v0.027083l0.027081 0.027083c0.080384 0.23025 0.19736 0.36196 0.35208 0.54166s0.33917 0.39121 0.51458 0.56874c0.020637 0.020887 0.033864 0.033826 0.054161 0.054175 0.034785 0.15137 0.076926 0.31428 0.10833 0.46041 0.083566 0.38879 0.074995 0.66411 0.054171 0.75832-0.6045 0.2122-1.3565 0.465-2.0312 0.7583-0.3789 0.1647-0.7217 0.3118-1.0021 0.4875-0.28044 0.17574-0.55934 0.30851-0.64999 0.70416-0.00116 0.01804-0.00116 0.03613 0 0.05418-0.08858 0.81334-0.22257 2.0094-0.325 2.8166-0.022111 0.16993 0.067452 0.34906 0.21666 0.43333 1.2252 0.66179 3.1072 0.92814 4.9833 0.92082 1.8761-0.0073 3.7431-0.28932 4.9291-0.92082 0.14921-0.08427 0.23878-0.2634 0.21666-0.43333-0.0327-0.25234-0.07287-0.82136-0.10833-1.3812-0.03546-0.55988-0.06625-1.1106-0.10833-1.4354-0.01468-0.0805-0.05274-0.15661-0.10833-0.21666-0.377-0.4498-0.94-0.7248-1.598-1.002-0.601-0.253-1.306-0.5158-2.004-0.8125-0.0391-0.087106-0.07795-0.34054 0-0.73124 0.02093-0.10491 0.05371-0.21727 0.08125-0.325 0.06566-0.073537 0.11683-0.13363 0.18958-0.21666 0.15516-0.17709 0.32189-0.36287 0.46041-0.54166s0.25186-0.33217 0.325-0.54166l0.02708-0.027083c0.28309-1.1425 0.28324-1.6193 0.29792-2.0312v-0.027083c0-1.3275-1.1933-2.3562-2.6-2.3562z"/>
</svg>
