<?xml version="1.0" encoding="UTF-8" standalone="no"?>
<svg xmlns:rdf="http://www.w3.org/1999/02/22-rdf-syntax-ns#" xmlns="http://www.w3.org/2000/svg" height="16" width="16" version="1.1" xmlns:cc="http://creativecommons.org/ns#" xmlns:dc="http://purl.org/dc/elements/1.1/">
 <g transform="translate(0 -1036.4)">
  <path d="m12.228 1037.4c-1.3565 0-2.4592 1.0977-2.4592 2.4542 0 0.075 0.0084 0.1504 0.0149 0.2236l-4.7346 2.4145c-0.4291-0.3667-0.98611-0.5863-1.5947-0.5863-1.3565 0-2.4542 1.0977-2.4542 2.4543 0 1.3565 1.0977 2.4542 2.4542 2.4542 0.54607 0 1.0528-0.1755 1.4606-0.477l4.8637 2.4741c-0.0024 0.044-0.0099 0.089-0.0099 0.1342 0 1.3565 1.1027 2.4542 2.4592 2.4542s2.4542-1.0977 2.4542-2.4542-1.0977-2.4592-2.4542-2.4592c-0.63653 0-1.218 0.2437-1.6544 0.6409l-4.6953-2.4c0.01892-0.1228 0.03478-0.2494 0.03478-0.3775 0-0.072-0.0089-0.1437-0.0149-0.2137l4.7395-2.4145c0.42802 0.3627 0.98488 0.5813 1.5898 0.5813 1.3565 0 2.4542-1.1027 2.4542-2.4592s-1.0977-2.4542-2.4542-2.4542z"/>
 </g>
</svg>
