<svg xmlns="http://www.w3.org/2000/svg" xml:space="preserve" style="fill-rule:evenodd;clip-rule:evenodd;stroke-linejoin:round;stroke-miterlimit:2" viewBox="0 0 16 16" width="16" height="16"><path d="M560-131v-82c60-17.333 108.333-50.667 145-100s55-105.333 55-168-18.333-118.667-55-168-85-82.667-145-100v-82c82.667 18.667 150 60.5 202 125.5s78 139.833 78 224.5-26 159.5-78 224.5S642.667-149.667 560-131ZM120-360v-240h160l200-200v640L280-360H120Zm440 40v-322c31.333 14.667 55.833 36.667 73.5 66s26.5 61.333 26.5 96c0 34-8.833 65.5-26.5 94.5S591.333-334.667 560-320ZM400-606l-86 86H200v80h114l86 86v-252Z" style="fill-rule:nonzero" transform="matrix(.01944 0 0 .01944 -1.333 17.358)"/></svg>