<?xml version="1.0" encoding="UTF-8" standalone="no"?>
<svg xmlns:rdf="http://www.w3.org/1999/02/22-rdf-syntax-ns#" xmlns="http://www.w3.org/2000/svg" height="16" width="16" version="1.1" xmlns:cc="http://creativecommons.org/ns#" xmlns:dc="http://purl.org/dc/elements/1.1/">
 <g transform="translate(0 -1036.4)">
  <path d="m1 1042.4v4h3l3 3h1v-10h-1l-3 3z"/>
  <path d="m13.25 1039.4-0.78125 0.625c0.96519 1.1998 1.5312 2.7153 1.5312 4.375s-0.56606 3.1752-1.5312 4.375l0.78125 0.625c1.0983-1.3697 1.75-3.1078 1.75-5s-0.65174-3.6303-1.75-5zm-1.5625 1.25-0.8125 0.6563c0.68791 0.8565 1.125 1.9096 1.125 3.0937s-0.43709 2.2372-1.125 3.0938l0.8125 0.6562c0.82312-1.0271 1.3125-2.3314 1.3125-3.75s-0.48938-2.7229-1.3125-3.75zm-1.5625 1.25-0.78125 0.625c0.41127 0.5135 0.65625 1.1659 0.65625 1.875s-0.24498 1.3615-0.65625 1.875l0.78125 0.625c0.54532-0.6836 0.875-1.5576 0.875-2.5s-0.32968-1.8164-0.875-2.5z"/>
 </g>
</svg>
