<svg viewBox="0 0 16 16" height="16" width="16" xmlns="http://www.w3.org/2000/svg" xml:space="preserve" style="fill-rule:evenodd;clip-rule:evenodd;stroke-linejoin:round;stroke-miterlimit:2"><path d="M14 20.725v-2.05c1.5-.433 2.708-1.267 3.625-2.5.917-1.233 1.375-2.633 1.375-4.2 0-1.567-.458-2.967-1.375-4.2S15.5 5.708 14 5.275v-2.05c2.067.467 3.75 1.512 5.05 3.138C20.35 7.988 21 9.858 21 11.975s-.65 3.988-1.95 5.613c-1.3 1.624-2.983 2.67-5.05 3.137ZM3 15V9h4l5-5v16l-5-5H3Zm11 1V7.95a4.16 4.16 0 0 1 1.838 1.65A4.57 4.57 0 0 1 16.5 12c0 .85-.221 1.637-.662 2.362A4.175 4.175 0 0 1 14 16Z" style="fill-rule:nonzero" transform="matrix(.74853 0 0 .74853 -.746 -1.002)"/></svg>