<svg xmlns="http://www.w3.org/2000/svg" xml:space="preserve" style="fill-rule:evenodd;clip-rule:evenodd;stroke-linejoin:round;stroke-miterlimit:2" viewBox="0 0 16 16" width="16" height="16"><path d="M856-390 570-104c-8 8-17 14-27 18s-20 6-30 6-20-2-30-6-19-10-27-18L103-457c-7.333-7.333-13-15.833-17-25.5s-6-19.833-6-30.5v-287c0-22 7.833-40.833 23.5-56.5C119.167-872.167 138-880 160-880h287c10.667 0 21 2.167 31 6.5s18.667 10.167 26 17.5l352 353c8 8 13.833 17 17.5 27s5.5 20 5.5 30-1.833 19.833-5.5 29.5c-3.667 9.667-9.5 18.5-17.5 26.5ZM513-160l286-286-353-354H160v286l353 354ZM260-640c16.667 0 30.833-5.833 42.5-17.5 11.667-11.667 17.5-25.833 17.5-42.5s-5.833-30.833-17.5-42.5C290.833-754.167 276.667-760 260-760s-30.833 5.833-42.5 17.5C205.833-730.833 200-716.667 200-700s5.833 30.833 17.5 42.5c11.667 11.667 25.833 17.5 42.5 17.5Z" style="fill-rule:nonzero" transform="translate(-.402 16.42) scale(.01752)"/></svg>