<svg viewBox="0 0 16 16" height="16" width="16" xmlns="http://www.w3.org/2000/svg" xml:space="preserve" style="fill-rule:evenodd;clip-rule:evenodd;stroke-linejoin:round;stroke-miterlimit:2"><path d="m21.95 15.025-6.925 6.925c-.305.3-.648.525-1.028.675a3.174 3.174 0 0 1-2.343 0 3.052 3.052 0 0 1-1.029-.675l-8.55-8.55a3.228 3.228 0 0 1-.675-.997 2.964 2.964 0 0 1-.25-1.203V4.275c0-.859.306-1.595.918-2.207a3.01 3.01 0 0 1 2.207-.918H11.2c.412 0 .81.079 1.196.237.386.159.721.388 1.004.688l8.55 8.525c.317.317.55.667.7 1.05.15.383.225.774.225 1.172 0 .399-.075.79-.225 1.175a2.8 2.8 0 0 1-.7 1.028ZM6.747 8.2c.402 0 .745-.141 1.028-.422.283-.281.425-.623.425-1.025 0-.402-.141-.745-.422-1.028A1.391 1.391 0 0 0 6.753 5.3c-.402 0-.745.141-1.028.422A1.391 1.391 0 0 0 5.3 6.747c0 .402.141.745.422 1.028.281.283.623.425 1.025.425Z" style="fill-rule:nonzero" transform="translate(.258 .258) scale(.64516)"/></svg>