<svg viewBox="0 0 16 16" height="16" width="16" xmlns="http://www.w3.org/2000/svg" xml:space="preserve" style="fill-rule:evenodd;clip-rule:evenodd;stroke-linejoin:round;stroke-miterlimit:2"><path d="M5 21c-.55 0-1.021-.196-1.412-.587A1.927 1.927 0 0 1 3 19V5c0-.55.196-1.021.588-1.413A1.926 1.926 0 0 1 5 3h9v2H5v14h14v-9h2v9a1.93 1.93 0 0 1-.587 1.413A1.93 1.93 0 0 1 19 21H5Zm3-4v-2h8v2H8Zm0-3v-2h8v2H8Zm0-3V9h8v2H8Zm9-2V7h-2V5h2V3h2v2h2v2h-2v2h-2Z" style="fill-rule:nonzero" transform="matrix(.77778 0 0 .77778 -1.333 -1.333)"/></svg>