<svg viewBox="0 0 16 16" height="16" width="16" xmlns="http://www.w3.org/2000/svg" xml:space="preserve" style="fill-rule:evenodd;clip-rule:evenodd;stroke-linejoin:round;stroke-miterlimit:2"><path d="M12 22a9.66 9.66 0 0 1-3.875-.788 10.12 10.12 0 0 1-3.187-2.149 10.138 10.138 0 0 1-2.15-3.188A9.676 9.676 0 0 1 2 12c0-1.383.263-2.679.788-3.888a10.167 10.167 0 0 1 2.15-3.174 10.142 10.142 0 0 1 3.187-2.151A9.676 9.676 0 0 1 12 2c1.383 0 2.679.262 3.888.787a10.203 10.203 0 0 1 3.175 2.151 10.184 10.184 0 0 1 2.15 3.174A9.654 9.654 0 0 1 22 12a9.676 9.676 0 0 1-.787 3.875 10.155 10.155 0 0 1-2.15 3.188 10.18 10.18 0 0 1-3.175 2.149A9.638 9.638 0 0 1 12 22Zm0-2.05c.433-.6.808-1.225 1.125-1.875.317-.65.575-1.342.775-2.075h-3.8c.2.733.458 1.425.775 2.075.317.65.692 1.275 1.125 1.875Zm-2.6-.4c-.3-.55-.562-1.121-.787-1.712A14.728 14.728 0 0 1 8.05 16H5.1a8.304 8.304 0 0 0 1.813 2.175A7.19 7.19 0 0 0 9.4 19.55Zm5.2 0a7.195 7.195 0 0 0 2.488-1.375A8.3 8.3 0 0 0 18.9 16h-2.95c-.15.633-.337 1.246-.562 1.838a13.9 13.9 0 0 1-.788 1.712ZM4.25 14h3.4a13.77 13.77 0 0 1-.15-2 13.236 13.236 0 0 1 .15-2h-3.4a8.503 8.503 0 0 0-.187.987A7.917 7.917 0 0 0 4 12c0 .35.021.688.063 1.012.041.325.104.655.187.988Zm5.4 0h4.7a13.182 13.182 0 0 0 .15-2 13.246 13.246 0 0 0-.15-2h-4.7a13.236 13.236 0 0 0-.112 3.012c.025.325.062.655.112.988Zm6.7 0h3.4a8.066 8.066 0 0 0 .25-2c0-.35-.021-.687-.062-1.013A8.725 8.725 0 0 0 19.75 10h-3.4a13.246 13.246 0 0 1 .15 2 13.182 13.182 0 0 1-.15 2Zm-.4-6h2.95a8.3 8.3 0 0 0-1.812-2.175A7.195 7.195 0 0 0 14.6 4.45c.3.55.563 1.121.788 1.712.225.592.412 1.205.562 1.838ZM10.1 8h3.8a11.82 11.82 0 0 0-.775-2.075A12.753 12.753 0 0 0 12 4.05c-.433.6-.808 1.225-1.125 1.875A11.82 11.82 0 0 0 10.1 8Zm-5 0h2.95c.15-.633.338-1.246.563-1.838C8.838 5.571 9.1 5 9.4 4.45a7.19 7.19 0 0 0-2.487 1.375A8.304 8.304 0 0 0 5.1 8Z" style="fill-rule:nonzero" transform="matrix(.8 0 0 .8 -1.6 -1.6)"/></svg>