<?xml version="1.0" encoding="UTF-8" standalone="no"?>
<svg xmlns:rdf="http://www.w3.org/1999/02/22-rdf-syntax-ns#" xmlns="http://www.w3.org/2000/svg" xml:space="preserve" height="16" viewBox="0 0 16 16" width="16" version="1.1" y="0px" x="0px" xmlns:cc="http://creativecommons.org/ns#" enable-background="new 0 0 16 9" overflow="visible" xmlns:dc="http://purl.org/dc/elements/1.1/"><path d="m8 3c-3.109 0-5.927 1.719-8 4.5 2.073 2.781 4.891 4.5 8 4.5 3.111 0 5.927-1.719 8-4.5-2.073-2.781-4.891-4.5-8-4.5zm0 1.5c1.657 0 3 1.343 3 3s-1.343 3-3 3-3-1.343-3-3 1.343-3 3-3zm0 1.5c-0.8284 0-1.5 0.6716-1.5 1.5s0.6716 1.5 1.5 1.5 1.5-0.6716 1.5-1.5-0.6716-1.5-1.5-1.5z" fill="#222"/></svg>
