<svg xmlns="http://www.w3.org/2000/svg" xml:space="preserve" style="fill-rule:evenodd;clip-rule:evenodd;stroke-linejoin:round;stroke-miterlimit:2" viewBox="0 0 16 16" width="16" height="16"><path d="M280-600v-80h560v80H280Zm0 160v-80h560v80H280Zm0 160v-80h560v80H280ZM160-600c-11.333 0-20.833-3.833-28.5-11.5-7.667-7.667-11.5-17.167-11.5-28.5 0-11.333 3.833-20.833 11.5-28.5 7.667-7.667 17.167-11.5 28.5-11.5 11.333 0 20.833 3.833 28.5 11.5 7.667 7.667 11.5 17.167 11.5 28.5 0 11.333-3.833 20.833-11.5 28.5-7.667 7.667-17.167 11.5-28.5 11.5Zm0 160c-11.333 0-20.833-3.833-28.5-11.5-7.667-7.667-11.5-17.167-11.5-28.5 0-11.333 3.833-20.833 11.5-28.5 7.667-7.667 17.167-11.5 28.5-11.5 11.333 0 20.833 3.833 28.5 11.5 7.667 7.667 11.5 17.167 11.5 28.5 0 11.333-3.833 20.833-11.5 28.5-7.667 7.667-17.167 11.5-28.5 11.5Zm0 160c-11.333 0-20.833-3.833-28.5-11.5-7.667-7.667-11.5-17.167-11.5-28.5 0-11.333 3.833-20.833 11.5-28.5 7.667-7.667 17.167-11.5 28.5-11.5 11.333 0 20.833 3.833 28.5 11.5 7.667 7.667 11.5 17.167 11.5 28.5 0 11.333-3.833 20.833-11.5 28.5-7.667 7.667-17.167 11.5-28.5 11.5Z" style="fill-rule:nonzero" transform="matrix(.01944 0 0 .01944 -1.343 16.337)"/></svg>