<svg viewBox="0 0 16 16" height="16" width="16" xmlns="http://www.w3.org/2000/svg" xml:space="preserve" style="fill-rule:evenodd;clip-rule:evenodd;stroke-linejoin:round;stroke-miterlimit:2"><path d="M12 16c1.25 0 2.313-.437 3.188-1.312S16.5 12.75 16.5 11.5c0-1.25-.437-2.312-1.312-3.187S13.25 7 12 7c-1.25 0-2.312.438-3.187 1.313S7.5 10.25 7.5 11.5c0 1.25.438 2.313 1.313 3.188S10.75 16 12 16Zm0-1.8c-.75 0-1.387-.262-1.912-.787A2.607 2.607 0 0 1 9.3 11.5c0-.75.263-1.388.788-1.913A2.606 2.606 0 0 1 12 8.8c.75 0 1.388.263 1.913.787.525.525.787 1.163.787 1.913s-.262 1.387-.787 1.913A2.604 2.604 0 0 1 12 14.2Zm0 4.8c-2.433 0-4.65-.679-6.65-2.037-2-1.359-3.45-3.18-4.35-5.463.9-2.283 2.35-4.104 4.35-5.463C7.35 4.679 9.567 4 12 4c2.433 0 4.65.679 6.65 2.037 2 1.359 3.45 3.18 4.35 5.463-.9 2.283-2.35 4.104-4.35 5.463C16.65 18.321 14.433 19 12 19Z" style="fill-opacity:.5;fill-rule:nonzero" transform="matrix(.72727 0 0 .72727 -.727 -.338)"/></svg>