<svg viewBox="0 0 16 16" height="16" width="16" xmlns="http://www.w3.org/2000/svg" xml:space="preserve" style="fill-rule:evenodd;clip-rule:evenodd;stroke-linejoin:round;stroke-miterlimit:2"><path d="M12 22a9.723 9.723 0 0 1-3.9-.788 10.077 10.077 0 0 1-3.175-2.137c-.9-.9-1.612-1.958-2.137-3.175A9.74 9.74 0 0 1 2 12a9.74 9.74 0 0 1 .788-3.9 10.093 10.093 0 0 1 2.137-3.175c.9-.9 1.958-1.612 3.175-2.138A9.74 9.74 0 0 1 12 2a9.74 9.74 0 0 1 3.9.787 10.113 10.113 0 0 1 3.175 2.138c.9.9 1.613 1.958 2.138 3.175A9.74 9.74 0 0 1 22 12a9.74 9.74 0 0 1-.787 3.9 10.096 10.096 0 0 1-2.138 3.175c-.9.9-1.958 1.613-3.175 2.137A9.723 9.723 0 0 1 12 22Zm1-2.075c1.983-.25 3.646-1.121 4.988-2.612C19.329 15.821 20 14.05 20 12s-.671-3.821-2.012-5.312C16.646 5.196 14.983 4.325 13 4.075v15.85Z" style="fill-rule:nonzero" transform="matrix(-.7 0 0 -.7 16.414 16.386)"/></svg>