<svg xmlns="http://www.w3.org/2000/svg" width="16" height="16" fill="none"><path fill="#000" d="M14.319 5.309c.01.14.01.28.01.421 0 4.305-3.278 9.27-9.27 9.27v-.002a9.225 9.225 0 0 1-4.995-1.46 6.542 6.542 0 0 0 4.822-1.35 3.262 3.262 0 0 1-3.044-2.264c.488.095.992.075 1.471-.056A3.258 3.258 0 0 1 .7 6.675v-.042c.453.253.96.393 1.48.408a3.262 3.262 0 0 1-1.01-4.35 9.247 9.247 0 0 0 6.716 3.404 3.26 3.26 0 0 1 5.552-2.972 6.538 6.538 0 0 0 2.069-.79 3.27 3.27 0 0 1-1.432 1.801 6.48 6.48 0 0 0 1.87-.513A6.62 6.62 0 0 1 14.32 5.31z"/></svg>
