<svg width="16" height="16" fill="none" viewBox="0 0 16 16" xmlns="http://www.w3.org/2000/svg"><path d="m14.319 5.309c0.0096 0.14 0.0096 0.28 0.0096 0.42129 0 4.3052-3.2774 9.2703-9.2703 9.2703v-0.0025c-1.7703 0.0025-3.5039-0.5046-4.9942-1.4607 0.25742 0.031 0.51613 0.0465 0.77548 0.0471 1.4671 0.0013 2.8923-0.491 4.0464-1.3974-1.3942-0.0265-2.6168-0.9355-3.0439-2.2626 0.48839 0.09418 0.99161 0.07483 1.471-0.05613-1.52-0.3071-2.6136-1.6426-2.6136-3.1936v-0.04129c0.4529 0.25226 0.96 0.39226 1.4787 0.40774-1.4316-0.95678-1.8729-2.8613-1.0084-4.3503 1.6542 2.0355 4.0948 3.2729 6.7148 3.4039-0.26258-1.1316 0.09613-2.3174 0.94258-3.1129 1.3123-1.2335 3.3762-1.1703 4.6097 0.14129 0.7297-0.14387 1.4291-0.41161 2.0691-0.79096-0.2433 0.75419-0.7523 1.3948-1.4323 1.8019 0.6458-0.07613 1.2768-0.24903 1.871-0.5129-0.4375 0.65548-0.9884 1.2264-1.6258 1.6877z" fill="#000"/></svg>
