<svg xmlns="http://www.w3.org/2000/svg" width="16" height="16"><path d="M12.5 1A2.5 2.5 0 0 0 10 3.5a2.5 2.5 0 0 0 .004.129L5.102 6.08A2.5 2.5 0 0 0 3.5 5.5 2.5 2.5 0 0 0 1 8a2.5 2.5 0 0 0 2.5 2.5 2.5 2.5 0 0 0 .305-.021l3.44-1.725-1.25-.625A2.5 2.5 0 0 0 6 8a2.5 2.5 0 0 0-.004-.129l4.902-2.451A2.5 2.5 0 0 0 12.5 6a2.5 2.5 0 0 0 .266-.014l1.562-.783A2.5 2.5 0 0 0 15 3.5 2.5 2.5 0 0 0 12.5 1zm.254 9.016-3.725 1.867.977.488A2.5 2.5 0 0 0 10 12.5a2.5 2.5 0 0 0 2.5 2.5 2.5 2.5 0 0 0 2.5-2.5 2.5 2.5 0 0 0-2.246-2.484z"/><rect width="11.687" height="2.003" x="-1.059" y="11.891" ry="0" style="paint-order:normal" transform="rotate(-26.63)"/></svg>
