<svg viewBox="0 0 16 16" height="16" width="16" xmlns="http://www.w3.org/2000/svg" xml:space="preserve" style="fill-rule:evenodd;clip-rule:evenodd;stroke-linejoin:round;stroke-miterlimit:2"><path d="M21.429 11H15V9h6.429v2ZM9 12c-1.1 0-2.042-.392-2.825-1.175C5.392 10.042 5 9.1 5 8s.392-2.042 1.175-2.825C6.958 4.392 7.9 4 9 4s2.042.392 2.825 1.175C12.608 5.958 13 6.9 13 8s-.392 2.042-1.175 2.825C11.042 11.608 10.1 12 9 12Zm-8 8v-2.8c0-.567.146-1.087.438-1.563A2.918 2.918 0 0 1 2.6 14.55a14.853 14.853 0 0 1 3.15-1.163A13.778 13.778 0 0 1 9 13c1.1 0 2.183.129 3.25.387 1.067.259 2.117.646 3.15 1.163.483.25.871.613 1.163 1.087.291.476.437.996.437 1.563V20H1Z" style="fill-rule:nonzero" transform="matrix(.63636 0 0 .63636 .364 .355)"/></svg>