<?xml version="1.0" encoding="UTF-8" standalone="no"?>
<svg xmlns="http://www.w3.org/2000/svg" version="1.1" viewBox="0 0 1792 1792">
 <path d="m576 896q-159 0-271.5-112.5t-112.5-271.5 112.5-271.5 271.5-112.5 271.5 112.5 112.5 271.5-112.5 271.5-271.5 112.5zm960 128h352q13 0 22.5 9.5t9.5 22.5v192q0 13-9.5 22.5t-22.5 9.5h-352v352q0 13-9.5 22.5t-22.5 9.5h-192q-13 0-22.5-9.5t-9.5-22.5v-352h-352q-13 0-22.5-9.5t-9.5-22.5v-192q0-13 9.5-22.5t22.5-9.5h352v-352q0-13 9.5-22.5t22.5-9.5h192q13 0 22.5 9.5t9.5 22.5v352zm-736 224q0 52 38 90t90 38h256v238q-68 50-171 50h-874q-121 0-194-69t-73-190q0-53 3.5-103.5t14-109 26.5-108.5 43-97.5 62-81 85.5-53.5 111.5-20q19 0 39 17 79 61 154.5 91.5t164.5 30.5 164.5-30.5 154.5-91.5q20-17 39-17 132 0 217 96h-223q-52 0-90 38t-38 90v192z"/>
</svg>
