<svg viewBox="0 0 16 16" height="16" width="16" xmlns="http://www.w3.org/2000/svg" xml:space="preserve" style="fill-rule:evenodd;clip-rule:evenodd;stroke-linejoin:round;stroke-miterlimit:2"><path d="m16 21-.3-1.5a7.194 7.194 0 0 1-.562-.262 4.418 4.418 0 0 1-.538-.338l-1.45.45-1-1.7 1.15-1a4.662 4.662 0 0 1-.05-.65c0-.2.017-.417.05-.65l-1.15-1 1-1.7 1.45.45c.183-.133.363-.246.538-.338.175-.091.362-.179.562-.262L16 11h2l.3 1.5c.2.083.388.175.563.275.175.1.354.225.537.375l1.45-.5 1 1.75-1.15 1c.033.2.05.408.05.625 0 .217-.017.425-.05.625l1.15 1-1 1.7-1.45-.45a4.41 4.41 0 0 1-.537.338 7.22 7.22 0 0 1-.563.262L18 21h-2ZM2 20v-2.8c0-.55.142-1.067.425-1.55.283-.483.675-.85 1.175-1.1.85-.433 1.808-.8 2.875-1.1C7.542 13.15 8.717 13 10 13h.35c.1 0 .2.017.3.05-.483 1.2-.683 2.392-.6 3.575.083 1.183.483 2.308 1.2 3.375H2Zm15-2a1.93 1.93 0 0 0 1.413-.587A1.93 1.93 0 0 0 19 16c0-.55-.196-1.021-.587-1.412A1.927 1.927 0 0 0 17 14c-.55 0-1.021.196-1.412.588A1.923 1.923 0 0 0 15 16c0 .55.196 1.021.588 1.413.391.391.862.587 1.412.587Zm-7-6c-1.1 0-2.042-.392-2.825-1.175C6.392 10.042 6 9.1 6 8s.392-2.042 1.175-2.825C7.958 4.392 8.9 4 10 4s2.042.392 2.825 1.175C13.608 5.958 14 6.9 14 8s-.392 2.042-1.175 2.825C12.042 11.608 11.1 12 10 12Z" style="fill-rule:nonzero" transform="translate(-.41 -.821) scale(.70529)"/></svg>