<svg xmlns="http://www.w3.org/2000/svg" viewbox="0 0 16 16" width="16" version="1.1" height="16"><path d="m5 3.8c0 1.4 0.1 2.4 0.8 3.5 0.22 0.286 0.5 0.35 0.7 0.6 0.135 0.5 0.24 0.98 0.1 1.5-1.276 0.447-2.49 1-3.6 1.6-0.85 0.6-0.47 0.365-0.98 2.3-0.336 1.2525 4.335 1.695 5.9823 1.7 2.4277-0.03 6.3077-0.457 5.9777-1.7-0.519-1.936-0.21-1.71-0.98-2.3-1.09-0.654-2.45-1.167-3.6-1.6-0.15-0.56-0.04-0.973 0.1-1.5 0.235-0.25 0.522-0.363 0.72-0.6 0.69-0.885 0.78-2.425 0.78-3.5 0-1.59-1.432-2.8-3-2.8-1.75 0-3 1.43-3 2.8z"/></svg>
