<svg xmlns="http://www.w3.org/2000/svg" version="1.1" viewbox="0 0 16 16" width="16" height="16"><path d="m8 1c-1.5904 0-3 1.2822-3 2.9 0 1.3943 0.082446 2.1318 0.77973 3.2324 0.22302 0.28625 0.43972 0.51842 0.65526 0.76757 0.040265 0.186 0.08888 0.3864 0.12446 0.5664 0.096449 0.478 0.08879 0.81759 0.064444 0.93359-0.69668 0.26-1.5642 0.57064-2.3414 0.93164-0.43636 0.203-0.83189 0.38556-1.155 0.60156-0.32306 0.217-0.64374 0.38018-0.74861 0.86718-0.14982 0.633-0.18794 0.75225-0.37522 1.5312-0.025283 0.21 0.07846 0.43116 0.25076 0.53516 1.4026 0.807 3.5994 1.138 5.7456 1.133 2.116-0.0045 4.3624-0.33713 5.7453-1.1328 0.17229-0.104 0.27604-0.32516 0.25076-0.53516-0.187-0.779-0.225-0.898-0.375-1.531-0.105-0.487-0.426-0.65-0.749-0.867-0.323-0.216-0.718-0.399-1.155-0.602-0.777-0.3609-1.644-0.6716-2.3407-0.9316-0.0243-0.116-0.0324-0.4556 0.0641-0.9336 0.0355-0.18 0.0842-0.3804 0.1244-0.5664 0.2349-0.2491 0.4572-0.5303 0.6552-0.7675 0.69-0.8845 0.78-2.1571 0.78-3.2325 0-1.5874-1.4316-2.9-3-2.9z"/></svg>
