<svg xmlns="http://www.w3.org/2000/svg" width="16" height="16"><path d="M6.94.5C6.7.5 6.5.7 6.5.94V2.2c-.5.14-1.05.35-1.53.65l-.91-.91c-.16-.18-.46-.19-.62 0l-1.5 1.5a.425.425 0 0 0 0 .62l.91.91c-.284.48-.5 1-.65 1.53H.94c-.24 0-.44.2-.44.44v2.12c0 .25.19.44.44.44H2.2c.14.54.36 1.05.65 1.53l-.91.91a.425.425 0 0 0 0 .62l1.5 1.5c.18.18.46.18.62 0l.91-.91c.48.285 1 .5 1.53.65v1.26c0 .25.2.44.44.44h2.12c.24 0 .45-.2.44-.44V13.8a5.73 5.73 0 0 0 1.53-.65l.91.91c.17.18.45.18.62 0l1.5-1.5a.425.425 0 0 0 0-.62l-.91-.91c.29-.48.5-1 .65-1.53h1.26c.24 0 .45-.2.44-.44V6.94c0-.24-.2-.44-.44-.44H13.8a5.73 5.73 0 0 0-.65-1.53l.91-.91a.425.425 0 0 0 0-.62l-1.5-1.5a.425.425 0 0 0-.62 0l-.91.91c-.48-.29-1-.5-1.53-.65V.94C9.5.7 9.3.5 9.06.5H6.94zM8 3.492A4.508 4.508 0 0 1 12.508 8a4.508 4.508 0 0 1-1.082 2.928c-.074-.243-.182-.292-.457-.502-.653-.388-1.456-.694-2.139-.951-.089-.333-.022-.578.06-.891.14-.148.298-.215.417-.356.41-.525.474-1.44.474-2.078 0-.943-.85-1.662-1.781-1.662-1.039 0-1.781.85-1.781 1.662 0 .831.059 1.426.474 2.078.12.17.298.208.416.356.08.297.144.582.061.89-.757.268-1.48.596-2.139.952-.295.208-.4.262-.465.486A4.508 4.508 0 0 1 3.492 8 4.508 4.508 0 0 1 8 3.492z"/></svg>
