<svg xmlns="http://www.w3.org/2000/svg" xml:space="preserve" style="fill-rule:evenodd;clip-rule:evenodd;stroke-linejoin:round;stroke-miterlimit:2" viewBox="0 0 16 16" width="16" height="16"><path d="M400-480c-44 0-81.667-15.667-113-47s-47-69-47-113 15.667-81.667 47-113 69-47 113-47 81.667 15.667 113 47 47 69 47 113-15.667 81.667-47 113-69 47-113 47ZM80-160v-112c0-22 5.667-42.667 17-62s27-34 47-44c34-17.333 72.333-32 115-44s89.667-18 141-18h14c4 0 8 .667 12 2-5.333 12-9.833 24.5-13.5 37.5S406-374 404-360h-4c-47.333 0-89.833 6-127.5 18S204-318 180-306c-6 3.333-10.833 8-14.5 14s-5.5 12.667-5.5 20v32h252c4 14 9.333 27.833 16 41.5 6.667 13.667 14 26.5 22 38.5H80Zm560 40-12-60c-8-3.333-15.5-6.833-22.5-10.5s-14.167-8.167-21.5-13.5l-58 18-40-68 46-40c-1.333-9.333-2-18-2-26s.667-16.667 2-26l-46-40 40-68 58 18c7.333-5.333 14.5-9.833 21.5-13.5S620-456.667 628-460l12-60h80l12 60c8 3.333 15.5 7 22.5 11s14.167 9 21.5 15l58-20 40 70-46 40c1.333 8 2 16.333 2 25 0 8.667-.667 17-2 25l46 40-40 68-58-18c-7.333 5.333-14.5 9.833-21.5 13.5S740-183.333 732-180l-12 60h-80Zm40-120c22 0 40.833-7.833 56.5-23.5C752.167-279.167 760-298 760-320s-7.833-40.833-23.5-56.5C720.833-392.167 702-400 680-400s-40.833 7.833-56.5 23.5C607.833-360.833 600-342 600-320s7.833 40.833 23.5 56.5C639.167-247.833 658-240 680-240ZM400-560c22 0 40.833-7.833 56.5-23.5C472.167-599.167 480-618 480-640s-7.833-40.833-23.5-56.5C440.833-712.167 422-720 400-720s-40.833 7.833-56.5 23.5C327.833-680.833 320-662 320-640s7.833 40.833 23.5 56.5C359.167-567.833 378-560 400-560Z" style="fill-rule:nonzero" transform="translate(-.41 16.106) scale(.01763)"/></svg>