<svg xmlns="http://www.w3.org/2000/svg" width="16" height="16"><path fill="#0082c9" d="M8 0a3 3 0 0 0-2.828 2A3 3 0 0 0 5 2a3 3 0 0 0-3 3 3 3 0 0 0 0 .172A3 3 0 0 0 0 8a3 3 0 0 0 2 2.828A3 3 0 0 0 2 11a3 3 0 0 0 3 3 3 3 0 0 0 .172 0A3 3 0 0 0 8 16a3 3 0 0 0 2.828-2.01A3 3 0 0 0 11 14a3 3 0 0 0 3-3 3 3 0 0 0 0-.172A3 3 0 0 0 16 8a3 3 0 0 0-2.01-2.828A3 3 0 0 0 14 5a3 3 0 0 0-3-3 3 3 0 0 0-.172 0A3 3 0 0 0 8 0zm-.035 3.492a4.484 4.484 0 0 1 1.756.334 4.476 4.476 0 0 1 1.724 1.283L12.5 4.055V7.43H9.125l1.125-1.125a2.815 2.815 0 0 0-4.852.615l-1.564-.65a4.506 4.506 0 0 1 4.131-2.778zM3.5 8.836h3.375l-.984.984c.277.321.619.6 1.037.774a2.816 2.816 0 0 0 3.674-1.53l1.563.65a4.512 4.512 0 0 1-5.887 2.444 4.46 4.46 0 0 1-1.6-1.125l-1.177 1.178V8.836z"/></svg>
