<?xml version="1.0" encoding="UTF-8" standalone="no"?>
<svg xmlns="http://www.w3.org/2000/svg" height="16" width="16" version="1.1">
 <path d="m8 0a3 3 0 0 0 -2.8281 2.0098 3 3 0 0 0 -0.1719 -0.0098 3 3 0 0 0 -3 3 3 3 0 0 0 0.0059 0.1719 3 3 0 0 0 -2.0059 2.8281 3 3 0 0 0 2.0098 2.828 3 3 0 0 0 -0.0098 0.172 3 3 0 0 0 3 3 3 3 0 0 0 0.1719 -0.006 3 3 0 0 0 2.8281 2.006 3 3 0 0 0 2.828 -2.01 3 3 0 0 0 0.172 0.01 3 3 0 0 0 3 -3 3 3 0 0 0 -0.006 -0.172 3 3 0 0 0 2.006 -2.828 3 3 0 0 0 -2.01 -2.8281 3 3 0 0 0 0.01 -0.1719 3 3 0 0 0 -3 -3 3 3 0 0 0 -0.172 0.0059 3 3 0 0 0 -2.828 -2.0059zm2.934 4.5625 1.433 1.4336-5.7772 5.7789-2.9511-2.9508 1.414-1.414 1.5371 1.5351 4.3442-4.3828z" fill-rule="evenodd" fill="#0082c9"/>
</svg>
