<svg xmlns="http://www.w3.org/2000/svg" version="1.1" viewbox="0 0 16 16" width="16" height="16"><path d="m8 0a3 3 0 0 0 -2.828 2 3 3 0 0 0 -0.172 -0 3 3 0 0 0 -3 3 3 3 0 0 0 0 0.172 3 3 0 0 0 -2 2.828 3 3 0 0 0 2 2.828 3 3 0 0 0 -0 0.172 3 3 0 0 0 3 3 3 3 0 0 0 0.172 -0 3 3 0 0 0 2.828 2 3 3 0 0 0 2.828 -2.01 3 3 0 0 0 0.172 0.01 3 3 0 0 0 3 -3 3 3 0 0 0 -0 -0.172 3 3 0 0 0 2 -2.828 3 3 0 0 0 -2.01 -2.828 3 3 0 0 0 0.01 -0.172 3 3 0 0 0 -3 -3 3 3 0 0 0 -0.172 0 3 3 0 0 0 -2.828 -2zm2.934 4.5625 1.433 1.4336-5.7772 5.7789-2.9511-2.9508 1.414-1.414 1.5371 1.5351 4.3442-4.3828z" fill="#0082c9"/></svg>
