<svg viewBox="0 0 16 16" height="16" width="16" xmlns="http://www.w3.org/2000/svg" xml:space="preserve" style="fill-rule:evenodd;clip-rule:evenodd;stroke-linejoin:round;stroke-miterlimit:2"><path d="m8.6 22.5-1.9-3.2-3.6-.8.35-3.7L1 12l2.45-2.8-.35-3.7 3.6-.8 1.9-3.2L12 2.95l3.4-1.45 1.9 3.2 3.6.8-.35 3.7L23 12l-2.45 2.8.35 3.7-3.6.8-1.9 3.2-3.4-1.45-3.4 1.45Zm8.43-7.608 2.874-2.885-1.006-1.01-1.15 1.154v-.126c0-1.61-.563-2.975-1.688-4.092-1.126-1.118-2.492-1.677-4.096-1.677a5.52 5.52 0 0 0-1.473.198c-.479.132-.946.33-1.401.595l1.078 1.082a3.91 3.91 0 0 1 1.796-.433c1.209 0 2.237.421 3.081 1.262.844.842 1.266 1.863 1.266 3.065v.126l-1.15-1.154-1.005 1.01 2.874 2.885Zm-4.994 2.902a5.52 5.52 0 0 0 1.473-.198c.479-.132.946-.33 1.401-.595l-1.078-1.082a3.91 3.91 0 0 1-1.796.433c-1.209 0-2.236-.421-3.08-1.262-.845-.842-1.267-1.863-1.267-3.065v-.126l1.15 1.154 1.005-1.01L6.97 9.158l-2.874 2.885 1.006 1.01 1.15-1.154v.126c0 1.61.563 2.975 1.688 4.092 1.126 1.118 2.491 1.677 4.096 1.677Z" style="fill:#0082c9" transform="matrix(.72727 0 0 .72727 -.727 -.79)"/></svg>