<svg viewBox="0 0 16 16" height="16" width="16" xmlns="http://www.w3.org/2000/svg" xml:space="preserve" style="fill-rule:evenodd;clip-rule:evenodd;stroke-linejoin:round;stroke-miterlimit:2"><path d="m22 17.5-4-4v1.675L6.825 4H16c.55 0 1.021.196 1.413.587.391.392.587.863.587 1.413v4.5l4-4v11Zm-1.45 5.85L.65 3.45l1.4-1.4 19.9 19.9-1.4 1.4ZM4 4l14 14a1.93 1.93 0 0 1-.587 1.413A1.93 1.93 0 0 1 16 20H4c-.55 0-1.021-.196-1.412-.587A1.927 1.927 0 0 1 2 18V6c0-.55.196-1.021.588-1.413A1.926 1.926 0 0 1 4 4Z" style="fill-rule:nonzero" transform="matrix(.69981 0 0 .69981 -.396 -.41)"/></svg>