<svg width="16" height="16" version="1.1" viewbox="0 0 16 16" xmlns="http://www.w3.org/2000/svg"><path d="m13.486 1.5137c-0.255 0-0.511 0.0971-0.707 0.2929l-10.486 10.484c-0.3918 0.392-0.3918 1.024 0 1.416 0.3917 0.392 1.0242 0.392 1.416 0l10.484-10.486c0.392-0.392 0.392-1.0226 0-1.4144-0.196-0.1958-0.451-0.2929-0.707-0.2929zm-10.486 1.4863c-1.108 0-2 0.892-2 2v6c0 0.368 0.1054 0.706 0.2773 1.002 0.0849-0.149 0.1825-0.292 0.3086-0.418l8.3457-8.3457c-0.2792-0.1477-0.5926-0.2383-0.9316-0.2383h-6zm12 0.8066c-0.034 0.0401-0.062 0.0835-0.1 0.1211l-9.0699 9.0723h3.1699c1.108 0 2-0.892 2-2v-1.334l4 3.334v-9.1934z"/></svg>
