<svg xmlns="http://www.w3.org/2000/svg" xml:space="preserve" width="121.48" height="103.95" viewBox="0 0 113.89 97.45"><g fill="#fbffff" stroke-width=".902" aria-label="Enterprise"><path d="M18.81 93.113h-7.42V80.228h7.42v2.239h-4.689v2.829h4.363v2.238H14.12v3.323h4.689zM30.382 93.113h-2.688v-5.755q0-1.067-.38-1.595-.378-.538-1.206-.538-1.129 0-1.631.758-.502.75-.502 2.494v4.636h-2.688V83.26h2.053l.361 1.26h.15q.45-.714 1.234-1.075.793-.37 1.798-.37 1.719 0 2.609.934.89.925.89 2.679zM37.301 91.148q.705 0 1.692-.308v2q-1.005.45-2.468.45-1.612 0-2.353-.811-.731-.82-.731-2.45v-4.75h-1.287V84.14l1.48-.899.776-2.08h1.719v2.098h2.758v2.018H36.13v4.75q0 .574.317.847.326.273.855.273zM45.065 84.987q-.855 0-1.34.546-.484.538-.555 1.534h3.772q-.017-.996-.52-1.534-.502-.546-1.357-.546zm.379 8.302q-2.38 0-3.72-1.313-1.339-1.313-1.339-3.72 0-2.476 1.234-3.824 1.243-1.358 3.428-1.358 2.09 0 3.253 1.19t1.163 3.288v1.304h-6.355q.045 1.146.68 1.79.634.643 1.78.643.89 0 1.683-.185t1.657-.591v2.08q-.705.353-1.507.52-.802.176-1.957.176zM57.149 83.075q.546 0 .908.08l-.203 2.52q-.326-.088-.793-.088-1.287 0-2.01.66-.714.662-.714 1.852v5.015H51.65V83.26h2.036l.397 1.657h.132q.458-.828 1.234-1.33.784-.512 1.701-.512zM65.257 93.29q-1.736 0-2.723-1.26h-.141q.14 1.234.14 1.428v3.992h-2.687V83.26h2.185l.38 1.278h.123q.943-1.463 2.793-1.463 1.746 0 2.733 1.349.987 1.348.987 3.745 0 1.578-.467 2.741-.459 1.164-1.314 1.772t-2.009.608zm-.793-8.064q-.996 0-1.454.617-.459.608-.476 2.018v.29q0 1.587.467 2.275.476.687 1.498.687 1.807 0 1.807-2.979 0-1.454-.45-2.177-.44-.731-1.392-.731zM76.768 83.075q.546 0 .908.08l-.203 2.52q-.326-.088-.793-.088-1.287 0-2.01.66-.714.662-.714 1.852v5.015h-2.688V83.26h2.036l.397 1.657h.132q.458-.828 1.234-1.33.784-.512 1.701-.512zM79.35 80.713q0-1.313 1.463-1.313t1.463 1.313q0 .626-.37.978-.362.344-1.093.344-1.463 0-1.463-1.322zm2.803 12.401h-2.688V83.26h2.688zM91.847 90.187q0 1.516-1.058 2.31-1.048.792-3.146.792-1.075 0-1.833-.15-.758-.14-1.42-.423v-2.22q.75.352 1.684.59.943.238 1.657.238 1.463 0 1.463-.846 0-.317-.194-.511-.194-.203-.67-.45-.476-.255-1.269-.59-1.137-.476-1.674-.882-.53-.405-.776-.925-.238-.529-.238-1.296 0-1.313 1.014-2.027 1.022-.723 2.89-.723 1.78 0 3.464.776l-.81 1.94q-.74-.318-1.384-.521-.644-.203-1.314-.203-1.19 0-1.19.644 0 .361.38.625.387.265 1.683.785 1.155.467 1.692.872.538.406.793.935t.256 1.26zM98.026 84.987q-.855 0-1.34.546-.484.538-.555 1.534h3.772q-.017-.996-.52-1.534-.502-.546-1.357-.546zm.379 8.302q-2.38 0-3.72-1.313-1.339-1.313-1.339-3.72 0-2.476 1.234-3.824 1.243-1.358 3.428-1.358 2.09 0 3.253 1.19t1.163 3.288v1.304h-6.355q.045 1.146.68 1.79.634.643 1.78.643.89 0 1.683-.185.793-.186 1.657-.591v2.08q-.705.353-1.507.52-.802.176-1.957.176z"/></g><path fill="#fff" d="M56.986 0C45.19 0 35.193 8.003 32.094 18.847c-2.693-5.752-8.529-9.781-15.251-9.781C7.599 9.066 0 16.67 0 25.923s7.599 16.86 16.843 16.86c6.722 0 12.558-4.031 15.251-9.784 3.099 10.844 13.096 18.85 24.892 18.85 11.708 0 21.655-7.885 24.833-18.607 2.743 5.622 8.506 9.542 15.133 9.542 9.244 0 16.847-7.61 16.847-16.861S106.196 9.066 96.952 9.066c-6.626 0-12.39 3.917-15.133 9.538C78.641 7.883 68.694 0 56.986 0zm0 9.895c8.904 0 16.018 7.116 16.018 16.027 0 8.912-7.113 16.031-16.018 16.031-8.904 0-16.014-7.12-16.014-16.031 0-8.912 7.11-16.027 16.014-16.027zm-40.143 9.066c3.901 0 6.96 3.057 6.96 6.961s-3.059 6.965-6.96 6.965-6.956-3.06-6.956-6.965c0-3.904 3.055-6.961 6.956-6.961zm80.109 0c3.901 0 6.96 3.057 6.96 6.961s-3.059 6.965-6.96 6.965-6.956-3.06-6.956-6.965c0-3.904 3.055-6.961 6.956-6.961z" color="#000" style="isolation:auto;mix-blend-mode:normal;text-decoration-color:#000;text-decoration-line:none;text-decoration-style:solid;text-indent:0;text-transform:none;white-space:normal"/><path fill="#fff" d="M11.851 59.668c-.329 0-.471.188-.471.517v13.643c0 .33.142.515.471.515h.377c.33 0 .515-.185.515-.515V62.5l7.441 11.558c.032.05.068.084.103.121.01.013.018.026.03.037.031.029.066.044.1.062.02.01.034.025.055.032.015.005.03.002.046.006.052.013.106.027.17.027h.374c.33 0 .471-.185.471-.515V60.185c0-.329-.142-.517-.47-.517h-.376c-.329 0-.517.188-.517.517v11.33l-7.44-11.559c-.026-.039-.057-.063-.085-.093-.086-.122-.222-.195-.417-.195zm89.347.188c-.329 0-.188.188-.188.517v4.657c0 .47.046.799.046.799h-.046s-.893-2.069-3.384-2.069c-2.726 0-4.654 2.164-4.56 5.362 0 3.199 1.74 5.41 4.512 5.41 2.68 0 3.572-2.164 3.572-2.164h.048s-.094.283-.094.659v.799c0 .329.188.471.517.471h.33c.328 0 .468-.188.468-.517V60.373c0-.33-.517-.517-.846-.517zm-36.52.048c-.329 0-.14.188-.14.517v11.523c0 2.258 1.503 2.54 2.349 2.54.376 0 .517-.188.517-.517v-.33c0-.329-.188-.469-.423-.469-.47-.047-1.08-.188-1.08-1.505V60.42c0-.33-.517-.518-.846-.518zm-16.872 1.222c-.329 0-.517.188-.517.517v8.937c0 2.446 1.364 3.811 3.62 3.811.423 0 .563-.14.563-.47v-.283c0-.376-.14-.47-.563-.517-.799-.047-2.257-.33-2.257-2.728v-5.175h2.115c.33 0 .517-.14.517-.47v-.141c0-.33-.188-.517-.517-.517h-2.115v-2.447c0-.33-.14-.517-.469-.517zm-18.72 2.634c-2.82 0-5.078 2.024-5.125 5.41 0 3.2 2.351 5.409 5.406 5.409a5.82 5.82 0 0 0 3.43-1.129c.235-.188.283-.423.142-.659l-.142-.233c-.14-.282-.374-.33-.656-.142-.47.376-1.412.94-2.728.94-2.115 0-3.948-1.505-3.995-4.14h7.473a.521.521 0 0 0 .517-.517c0-2.963-1.549-4.939-4.322-4.939zm29.2 0c-3.055 0-5.405 2.258-5.452 5.456 0 3.199 2.351 5.41 5.406 5.41 1.88 0 3.149-.894 3.666-1.318.235-.235.28-.422.14-.704l-.14-.188c-.188-.282-.377-.33-.659-.142a4.343 4.343 0 0 1-2.913 1.083c-2.256 0-4.043-1.695-4.043-4.14 0-2.494 1.787-4.187 4.043-4.187 1.222 0 2.114.612 2.584.941.282.188.516.188.704-.094l.142-.235c.235-.283.187-.517-.048-.705-.517-.424-1.644-1.177-3.43-1.177zm15.886 0c-3.008 0-5.452 2.305-5.452 5.363 0 3.104 2.444 5.456 5.452 5.456s5.452-2.352 5.452-5.456c0-3.058-2.444-5.363-5.452-5.363zm-30.405.158c-.115.019-.226.096-.332.222l-1.902 2.268-1.423 1.698-2.156-2.57-1.168-1.396a.522.522 0 0 0-.35-.206.525.525 0 0 0-.38.142l-.288.243c-.252.211-.239.445-.028.698l1.903 2.268 1.578 1.883-2.31 2.754-.005.006-1.166 1.389c-.211.252-.188.518.064.73l.288.24c.252.212.482.159.693-.094l1.9-2.268 1.425-1.698 2.157 2.572c0 .002.004.004.005.005l1.164 1.392c.211.252.477.273.73.062l.287-.24c.252-.212.24-.447.028-.699l-1.903-2.27L41 69.168l2.31-2.756.005-.006 1.166-1.39c.211-.251.188-.518-.064-.73l-.288-.24c-.126-.105-.246-.146-.362-.128zm38.63.078c-.329 0-.471.188-.471.517v6.068c0 2.68 1.974 3.998 4.418 3.998s4.418-1.317 4.418-3.998v-6.068c.047-.329-.14-.517-.469-.517h-.377c-.329 0-.517.188-.517.517v5.692c0 1.6-1.034 3.058-3.055 3.058-1.974 0-3.055-1.458-3.055-3.058v-5.692c0-.329-.188-.517-.517-.517zm-53.36.94c1.504 0 2.82 1.082 2.913 3.246h-6.485c.33-2.117 1.833-3.245 3.572-3.245zm45.134.095c2.209 0 3.995 1.74 3.995 4.092 0 2.446-1.786 4.234-3.995 4.234s-3.996-1.835-4.043-4.234c0-2.305 1.834-4.092 4.043-4.092zm23.547 0c2.209 0 3.29 2.023 3.29 4.14 0 2.963-1.599 4.186-3.338 4.186-1.927 0-3.242-1.646-3.288-4.186 0-2.634 1.503-4.14 3.336-4.14z"/></svg>
