<svg xmlns="http://www.w3.org/2000/svg" width="256" height="128"><path fill="#fff" d="M128 7c-25.871 0-47.817 17.485-54.713 41.209C67.307 35.748 54.645 27 40 27 19.696 27 3 43.696 3 64s16.696 37 37 37c14.645 0 27.308-8.748 33.287-21.209C80.183 103.515 102.129 121 128 121s47.817-17.485 54.713-41.209C188.693 92.252 201.355 101 216 101c20.304 0 37-16.696 37-37s-16.696-37-37-37c-14.645 0-27.308 8.748-33.287 21.209C175.817 24.485 153.871 7 128 7zm0 22c19.46 0 35 15.54 35 35s-15.54 35-35 35-35-15.54-35-35 15.54-35 35-35zM40 49c8.415 0 15 6.585 15 15s-6.585 15-15 15-15-6.585-15-15 6.585-15 15-15zm176 0c8.415 0 15 6.585 15 15s-6.585 15-15 15-15-6.585-15-15 6.585-15 15-15z" color="#000" style="-inkscape-stroke:none"/></svg>
