<?xml version="1.0" encoding="utf-8"?>
<!-- Generator: Adobe Illustrator 16.0.0, SVG Export Plug-In . SVG Version: 6.00 Build 0)  -->
<!DOCTYPE svg PUBLIC "-//W3C//DTD SVG 1.1//EN" "http://www.w3.org/Graphics/SVG/1.1/DTD/svg11.dtd">
<svg version="1.1" id="Layer_2" xmlns="http://www.w3.org/2000/svg" xmlns:xlink="http://www.w3.org/1999/xlink" x="0px" y="0px"
	 width="1029px" height="122px" viewBox="0 0 1029 122" enable-background="new 0 0 1029 122" xml:space="preserve">
<path fill="none" stroke="#242358" stroke-miterlimit="10" d="M125.292,77.381c-10.058,0-18.24-8.182-18.24-18.239v-31.47
	c0-10.058,8.182-18.24,18.24-18.24h31.471c10.057,0,18.24,8.183,18.24,18.24v31.47c0,10.058-8.183,18.239-18.24,18.239H125.292z"/>
<path fill="none" stroke="#242358" stroke-miterlimit="10" d="M156.763,12.736c8.235,0,14.936,6.7,14.936,14.935v31.47
	c0,8.235-6.7,14.936-14.936,14.936h-31.471c-8.235,0-14.935-6.7-14.935-14.936v-31.47c0-8.235,6.7-14.935,14.935-14.935H156.763
	 M156.763,6.127h-31.471c-11.898,0-21.544,9.646-21.544,21.544v31.47c0,11.899,9.646,21.545,21.544,21.545h31.471
	c11.898,0,21.544-9.646,21.544-21.545v-31.47C178.307,15.772,168.661,6.127,156.763,6.127"/>
<path fill="none" stroke="#242358" stroke-miterlimit="10" d="M103.53,99.401c-10.058,0-18.24-8.182-18.24-18.24V45.313
	c0-10.058,8.183-18.24,18.24-18.24h35.849c10.058,0,18.24,8.182,18.24,18.24v35.848c0,10.059-8.182,18.24-18.24,18.24H103.53z"/>
<path fill="none" stroke="#242358" stroke-miterlimit="10" d="M139.379,30.378c8.235,0,14.936,6.7,14.936,14.936v35.848
	c0,8.235-6.701,14.937-14.936,14.937H103.53c-8.235,0-14.936-6.701-14.936-14.937V45.313c0-8.235,6.7-14.936,14.936-14.936H139.379
	 M139.379,23.769H103.53c-11.898,0-21.544,9.646-21.544,21.544v35.848c0,11.899,9.646,21.545,21.544,21.545h35.849
	c11.899,0,21.544-9.646,21.544-21.545V45.313C160.923,33.415,151.278,23.769,139.379,23.769"/>
<path fill="none" stroke="#242358" stroke-miterlimit="10" d="M89.236,113.695c-10.058,0-18.24-8.182-18.24-18.24V65.145
	c0-10.058,8.182-18.24,18.24-18.24h30.312c10.058,0,18.24,8.183,18.24,18.24v30.311c0,10.059-8.183,18.24-18.24,18.24H89.236z"/>
<path fill="none" stroke="#242358" stroke-miterlimit="10" d="M119.548,50.209c8.235,0,14.935,6.7,14.935,14.936v30.312
	c0,8.234-6.7,14.936-14.935,14.936H89.236c-8.235,0-14.936-6.701-14.936-14.936V65.145c0-8.235,6.701-14.936,14.936-14.936H119.548
	 M119.548,43.6H89.236c-11.898,0-21.544,9.646-21.544,21.545v30.312c0,11.898,9.646,21.544,21.544,21.544h30.312
	c11.899,0,21.544-9.646,21.544-21.544V65.145C141.092,53.245,131.447,43.6,119.548,43.6"/>
<path fill="none" stroke="#242358" stroke-miterlimit="10" d="M161.255,70.428l-0.219-43.594c-0.009-1.73-1.429-3.085-3.128-3.129
	l-43.596-0.216c-1.719-0.007-3.106,1.379-3.098,3.098c0.009,1.722,1.409,3.122,3.131,3.131l36.15,0.256L90.06,90.407
	c-1.283,1.136-1.274,3.107-0.052,4.33c1.223,1.223,3.195,1.23,4.423,0.041l60.437-60.437l0.163,36.058
	c0.006,1.719,1.409,3.121,3.128,3.128C159.877,73.536,161.264,72.149,161.255,70.428"/>
<g>
	<path fill="none" stroke="#242358" stroke-miterlimit="10" d="M217.676,51.597h40.17c1.645,0,3.228,0.325,4.745,0.975
		c1.515,0.65,2.837,1.518,3.965,2.6c1.125,1.085,2.015,2.297,2.665,3.64c0.65,1.345,0.975,2.71,0.975,4.095v15.08
		c0,1.388-0.305,2.775-0.91,4.16c-0.607,1.387-1.475,2.645-2.6,3.77c-1.127,1.128-2.427,2.038-3.9,2.73
		c-1.475,0.695-3.077,1.04-4.81,1.04h-59.02c0.52-1.3,1.538-2.795,3.055-4.485c1.515-1.689,3.075-3.314,4.68-4.875
		c1.603-1.56,3.076-2.88,4.42-3.965c1.342-1.082,2.1-1.625,2.275-1.625h38.09v-8.189h-40.3c-1.735,0-3.337-0.325-4.81-0.976
		c-1.475-0.649-2.775-1.495-3.9-2.534c-1.127-1.041-1.995-2.231-2.6-3.576c-0.607-1.343-0.91-2.708-0.91-4.095v-15.08
		c0-1.385,0.303-2.773,0.91-4.16c0.605-1.385,1.473-2.643,2.6-3.77c1.125-1.125,2.425-2.035,3.9-2.73
		c1.473-0.692,3.075-1.04,4.81-1.04h59.02c-0.52,1.3-1.54,2.795-3.055,4.485c-1.518,1.69-3.1,3.315-4.745,4.875
		c-1.647,1.56-3.142,2.883-4.485,3.965c-1.345,1.084-2.06,1.625-2.145,1.625h-38.09V51.597z"/>
	<path fill="none" stroke="#242358" stroke-miterlimit="10" d="M332.204,89.687h-39.91c-1.735,0-3.337-0.345-4.81-1.04
		c-1.475-0.692-2.775-1.58-3.9-2.665c-1.127-1.083-1.995-2.317-2.6-3.705c-0.607-1.386-0.91-2.772-0.91-4.159V40.287
		c0-1.385,0.303-2.773,0.91-4.16c0.605-1.385,1.473-2.643,2.6-3.77c1.125-1.125,2.425-2.035,3.9-2.73
		c1.473-0.692,3.075-1.04,4.81-1.04h54.34c-0.52,1.3-1.54,2.795-3.055,4.485c-1.517,1.69-3.1,3.315-4.745,4.875
		c-1.647,1.56-3.143,2.883-4.485,3.965c-1.345,1.084-2.06,1.625-2.145,1.625h-33.41v31.2h47.84c-0.52,1.301-1.54,2.795-3.055,4.485
		c-1.517,1.69-3.1,3.315-4.745,4.875c-1.647,1.56-3.143,2.882-4.485,3.965C333.004,89.146,332.289,89.687,332.204,89.687z"/>
	<path fill="none" stroke="#242358" stroke-miterlimit="10" d="M403.963,43.537h-52.13c1.905-2.34,3.748-4.44,5.525-6.305
		c1.775-1.863,3.335-3.445,4.68-4.745c1.342-1.3,2.837-2.6,4.485-3.9h45.37c1.125,0,2.317,0.325,3.575,0.975
		c1.255,0.65,2.425,1.43,3.51,2.34c1.083,0.91,1.97,1.885,2.665,2.925c0.692,1.04,1.04,1.995,1.04,2.86v42.899
		c0,0.955-0.39,1.951-1.17,2.99c-0.78,1.041-1.712,2.016-2.795,2.926c-1.084,0.91-2.254,1.67-3.51,2.274
		c-1.257,0.607-2.405,0.91-3.445,0.91h-46.8c-1.387,0-2.73-0.28-4.03-0.845c-1.3-0.563-2.47-1.277-3.51-2.146
		c-1.04-0.865-1.865-1.84-2.47-2.925c-0.607-1.082-0.91-2.145-0.91-3.186v-19.5c0-0.953,0.303-1.993,0.91-3.12
		c0.605-1.125,1.385-2.165,2.34-3.12c0.953-0.953,1.97-1.733,3.055-2.34c1.083-0.605,2.1-0.91,3.055-0.91h40.56V43.537z
		 M372.828,73.631c0.13,0.738,0.627,1.105,1.495,1.105h29.64v-20.15l-14.04,11.96h-15.6c-0.694,0-1.149,0.348-1.365,1.039
		c-0.217,0.695-0.325,1.346-0.325,1.951v2.209C372.633,72.267,372.698,72.896,372.828,73.631z"/>
	<path fill="none" stroke="#242358" stroke-miterlimit="10" d="M451.412,5.057v68.64c-0.26,0.694-1.127,1.864-2.6,3.511
		c-1.475,1.646-3.185,3.379-5.135,5.199c-1.95,1.82-3.922,3.533-5.915,5.135c-1.995,1.605-3.685,2.666-5.07,3.186v-67.08
		c2.86-3.033,5.85-6.26,8.97-9.685C444.781,10.539,448.031,7.571,451.412,5.057z"/>
	<path fill="none" stroke="#242358" stroke-miterlimit="10" d="M480.141,74.736h52.13c-3.9,4.768-7.281,8.45-10.141,11.051
		c-2.859,2.6-4.377,3.899-4.55,3.899h-45.37c-1.04,0-2.189-0.325-3.445-0.976c-1.257-0.649-2.428-1.43-3.51-2.34
		c-1.084-0.91-1.995-1.885-2.73-2.925c-0.737-1.04-1.105-1.992-1.105-2.86V37.687c0-0.865,0.39-1.84,1.17-2.925
		c0.78-1.083,1.71-2.08,2.795-2.99c1.083-0.91,2.253-1.667,3.51-2.275c1.255-0.605,2.405-0.91,3.445-0.91h46.8
		c1.386,0,2.73,0.282,4.03,0.845c1.3,0.564,2.47,1.28,3.511,2.145c1.039,0.867,1.861,1.842,2.469,2.925
		c0.605,1.085,0.91,2.145,0.91,3.185v19.5c0,0.955-0.305,1.995-0.91,3.12c-0.607,1.127-1.387,2.167-2.34,3.12
		c-0.954,0.954-1.973,1.734-3.055,2.34c-1.084,0.607-2.102,0.91-3.055,0.91h-40.56V74.736z M511.406,44.642
		c-0.13-0.735-0.672-1.105-1.625-1.105h-29.64v20.15l14.04-11.96h15.6c0.693,0,1.17-0.345,1.43-1.04
		c0.26-0.693,0.39-1.343,0.39-1.95v-2.21C511.601,46.006,511.536,45.379,511.406,44.642z"/>
</g>
<g>
	<path fill="none" stroke="#242358" stroke-miterlimit="10" d="M573.66,73.787c-0.26,0.694-1.127,1.864-2.6,3.51
		c-1.475,1.646-3.186,3.38-5.136,5.199c-1.95,1.82-3.923,3.533-5.915,5.135c-1.994,1.605-3.685,2.666-5.07,3.186v-61.23h18.721
		V73.787z"/>
	<path fill="none" stroke="#242358" stroke-miterlimit="10" d="M602.388,44.796v30.03c-0.26,0.695-1.127,1.865-2.6,3.51
		c-1.475,1.648-3.186,3.381-5.135,5.201c-1.95,1.819-3.923,3.531-5.916,5.135c-1.994,1.604-3.684,2.664-5.069,3.185v-51.74
		c0-0.693,0.303-1.646,0.91-2.86c0.604-1.212,1.364-2.382,2.274-3.51c0.91-1.125,1.928-2.101,3.056-2.925
		c1.125-0.822,2.253-1.235,3.38-1.235h51.74c1.125,0,2.252,0.413,3.38,1.235c1.125,0.825,2.146,1.8,3.055,2.925
		c0.91,1.127,1.646,2.297,2.21,3.51c0.563,1.215,0.846,2.167,0.846,2.86v50.57h-18.721v-45.89H602.388z"/>
	<path fill="none" stroke="#242358" stroke-miterlimit="10" d="M676.748,29.586h45.11c-0.521,1.3-1.54,2.795-3.056,4.485
		c-1.517,1.69-3.1,3.315-4.744,4.875c-1.647,1.56-3.143,2.883-4.485,3.965c-1.345,1.084-2.06,1.625-2.146,1.625h-24.18v15.99h34.58
		c-0.52,1.3-1.539,2.795-3.055,4.485c-1.518,1.689-3.1,3.314-4.745,4.875c-1.647,1.56-3.142,2.883-4.485,3.965
		c-1.344,1.084-2.059,1.625-2.145,1.625h-20.15v21.45c-0.26,0.692-1.127,1.862-2.6,3.51c-1.475,1.646-3.186,3.38-5.135,5.2
		c-1.95,1.819-3.923,3.53-5.916,5.135c-1.994,1.603-3.684,2.665-5.069,3.185V41.287c0-1.385,0.303-2.773,0.91-4.16
		c0.604-1.385,1.473-2.643,2.601-3.77c1.125-1.125,2.425-2.035,3.899-2.73C673.411,29.934,675.013,29.586,676.748,29.586z"/>
	<path fill="none" stroke="#242358" stroke-miterlimit="10" d="M748.117,73.787c-0.26,0.694-1.127,1.864-2.6,3.51
		c-1.475,1.646-3.186,3.38-5.135,5.199c-1.95,1.82-3.923,3.533-5.916,5.135c-1.994,1.605-3.684,2.666-5.069,3.186v-61.23h18.72
		V73.787z"/>
	<path fill="none" stroke="#242358" stroke-miterlimit="10" d="M776.846,44.796v30.03c-0.261,0.695-1.128,1.865-2.601,3.51
		c-1.475,1.648-3.185,3.381-5.135,5.201c-1.949,1.819-3.922,3.531-5.915,5.135c-1.995,1.604-3.685,2.664-5.069,3.185v-51.74
		c0-0.693,0.303-1.646,0.91-2.86c0.604-1.212,1.364-2.382,2.274-3.51c0.91-1.125,1.928-2.101,3.056-2.925
		c1.125-0.822,2.252-1.235,3.379-1.235h51.74c1.126,0,2.253,0.413,3.38,1.235c1.126,0.825,2.146,1.8,3.056,2.925
		c0.909,1.127,1.645,2.297,2.21,3.51c0.563,1.215,0.845,2.167,0.845,2.86v50.57h-18.721v-45.89H776.846z"/>
	<path fill="none" stroke="#242358" stroke-miterlimit="10" d="M857.706,73.787c-0.26,0.694-1.128,1.864-2.601,3.51
		c-1.475,1.646-3.185,3.38-5.135,5.199c-1.95,1.82-3.922,3.533-5.915,5.135c-1.994,1.605-3.685,2.666-5.069,3.186v-61.23h18.72
		V73.787z"/>
	<path fill="none" stroke="#242358" stroke-miterlimit="10" d="M886.434,6.057v23.53h38.74c-0.521,1.3-1.54,2.795-3.056,4.485
		c-1.517,1.69-3.1,3.315-4.745,4.875c-1.646,1.56-3.119,2.883-4.42,3.965c-1.3,1.084-1.994,1.625-2.08,1.625h-24.439v31.2h38.74
		c-0.521,1.301-1.54,2.795-3.056,4.485c-1.517,1.69-3.1,3.315-4.745,4.875c-1.646,1.56-3.119,2.882-4.42,3.965
		c-1.3,1.085-1.994,1.625-2.08,1.625h-30.939c-1.734,0-3.338-0.345-4.811-1.04c-1.475-0.692-2.774-1.58-3.899-2.665
		c-1.128-1.083-1.995-2.317-2.601-3.705c-0.607-1.386-0.909-2.772-0.909-4.159V24.646c2.859-3.033,5.85-6.26,8.97-9.685
		C879.804,11.539,883.054,8.571,886.434,6.057z"/>
	<path fill="none" stroke="#242358" stroke-miterlimit="10" d="M951.434,75.736h52.13c-3.9,4.768-7.28,8.45-10.14,11.051
		c-2.86,2.6-4.378,3.899-4.551,3.899h-45.369c-1.04,0-2.19-0.325-3.445-0.976c-1.258-0.649-2.428-1.43-3.51-2.34
		c-1.085-0.91-1.995-1.885-2.73-2.925c-0.737-1.04-1.104-1.992-1.104-2.86V38.687c0-0.865,0.39-1.84,1.17-2.925
		c0.779-1.083,1.71-2.08,2.795-2.99c1.082-0.91,2.252-1.667,3.51-2.275c1.255-0.605,2.405-0.91,3.445-0.91h46.8
		c1.385,0,2.729,0.282,4.03,0.845c1.3,0.564,2.47,1.28,3.51,2.145c1.04,0.867,1.862,1.842,2.47,2.925
		c0.605,1.085,0.91,2.145,0.91,3.185v19.5c0,0.955-0.305,1.995-0.91,3.12c-0.607,1.127-1.388,2.167-2.34,3.12
		c-0.955,0.954-1.973,1.734-3.055,2.34c-1.085,0.607-2.103,0.91-3.056,0.91h-40.56V75.736z M982.699,45.642
		c-0.13-0.735-0.672-1.105-1.625-1.105h-29.64v20.15l14.04-11.96h15.6c0.692,0,1.17-0.345,1.431-1.04
		c0.26-0.693,0.39-1.343,0.39-1.95v-2.21C982.894,47.006,982.829,46.379,982.699,45.642z"/>
</g>
</svg>
