<?xml version="1.0" encoding="utf-8"?>
<!-- Generator: Adobe Illustrator 16.0.0, SVG Export Plug-In . SVG Version: 6.00 Build 0)  -->
<!DOCTYPE svg PUBLIC "-//W3C//DTD SVG 1.1//EN" "http://www.w3.org/Graphics/SVG/1.1/DTD/svg11.dtd">
<svg version="1.1" id="Layer_2" xmlns="http://www.w3.org/2000/svg" xmlns:xlink="http://www.w3.org/1999/xlink" x="0px" y="0px"
	 width="256px" height="128px" viewBox="0 0 256 128" enable-background="new 0 0 256 128" xml:space="preserve">
<g transform="translate(0.000000,441.000000) scale(0.100000,-0.100000)">
	<path fill="#FFFFFF" d="M1160.249,4335.771c-47.437-6.963-91.523-33.511-118.848-71.929
		c-12.637-17.529-27.329-49.497-25.005-53.364c0.771-1.294,8.506-1.812,17.271-0.771c8.506,0.771,131.738,1.538,273.53,1.538
		l257.813-0.254l11.592-5.669c22.686-11.089,20.889,13.926,21.406-296.733c0.254-202.896,1.279-274.829,3.35-274.829
		c1.807,0,12.119,4.639,23.457,10.313c39.443,19.6,72.188,57.49,87.393,100.801l7.48,21.66l0.771,204.956
		c0.771,227.905,0.771,228.936-15.986,264.248c-21.904,46.152-56.709,76.826-105.957,93.589l-20.625,6.953l-204.951,0.269
		C1260.278,4336.801,1164.629,4336.279,1160.249,4335.771z"/>
	<path fill="#FFFFFF" d="M894.707,4128.75c-13.408-2.837-42.539-13.657-52.08-19.59c-45.884-29.131-72.183-67.026-84.297-122.72
		l-1.548-6.953l200.313-1.04c199.546-0.767,200.576-0.767,221.201-6.699c23.975-6.704,57.749-21.909,74.761-33.77l12.119-8.252
		l87.139,85.85c47.695,47.437,87.139,86.88,87.139,87.91c0.264,1.035-7.988,5.928-18.301,10.83
		c-36.094,17.529-27.07,17.012-284.111,16.758C1009.433,4130.815,900.381,4129.785,894.707,4128.75z"/>
	<path fill="#FFFFFF" d="M1404.394,3965.561c-46.924-46.919-85.596-86.367-85.596-87.397c0-0.771,4.639-9.023,10.059-18.306
		c12.109-19.595,21.143-40.22,29.141-66.509c5.664-19.082,5.918-19.854,6.689-220.947l0.771-202.109l10.566,1.797
		c50.273,8.506,100.547,45.888,122.725,91.523c20.889,42.539,19.854,26.553,19.854,287.451c0,215.01-0.264,233.315-4.639,248.784
		c-4.902,17.529-19.609,51.558-22.178,51.558C1491.016,4051.406,1451.572,4012.739,1404.394,3965.561z"/>
	<path fill="#FFFFFF" d="M722.241,3896.469c-61.362-15.215-108.54-61.621-127.104-124.78c-4.121-13.916-4.639-33.77-5.415-204.961
		c-0.513-128.896,0-196.435,2.065-211.133c9.023-67.813,53.618-121.426,119.878-144.111l20.625-6.963l194.644-0.781
		c207.021-1.025,218.364-0.508,249.814,11.348c51.821,19.59,95.898,70.391,107.246,123.75c5.674,27.061,5.674,404.492-0.254,428.984
		c-4.38,19.6-18.564,51.563-22.695,51.563c-1.538,0-102.598-99.775-224.546-221.455
		c-195.156-195.156-222.739-221.709-231.25-223.261c-26.807-4.902-48.726,19.59-42.28,46.924
		c1.289,4.902,70.127,75.537,224.038,229.697c178.657,178.667,221.45,223.003,218.359,225.073
		c-9.277,6.187-23.203,12.373-39.961,18.047l-18.052,6.187l-202.373,0.513C752.143,3901.625,741.572,3901.367,722.241,3896.469z"/>
</g>
</svg>
