<svg width="256" height="128" version="1.1" viewBox="0 0 256 128" xmlns="http://www.w3.org/2000/svg"><path d="m128 7c-25.871 0-47.817 17.485-54.713 41.209-5.9795-12.461-18.642-21.209-33.287-21.209-20.304 0-37 16.696-37 37s16.696 37 37 37c14.645 0 27.308-8.7481 33.287-21.209 6.8957 23.724 28.842 41.209 54.713 41.209s47.817-17.485 54.713-41.209c5.9795 12.461 18.642 21.209 33.287 21.209 20.304 0 37-16.696 37-37s-16.696-37-37-37c-14.645 0-27.308 8.7481-33.287 21.209-6.8957-23.724-28.842-41.209-54.713-41.209zm0 22c19.46 0 35 15.54 35 35s-15.54 35-35 35-35-15.54-35-35 15.54-35 35-35zm-88 20c8.4146 0 15 6.5854 15 15s-6.5854 15-15 15-15-6.5854-15-15 6.5854-15 15-15zm176 0c8.4146 0 15 6.5854 15 15s-6.5854 15-15 15-15-6.5854-15-15 6.5854-15 15-15z" color="#000000" fill="#fff" style="-inkscape-stroke:none"/></svg>
