<svg width="121.48" height="103.95" enable-background="new 0 0 196.6 72" version="1.1" viewBox="0 0 113.89 97.45" xml:space="preserve" xmlns="http://www.w3.org/2000/svg" xmlns:xlink="http://www.w3.org/1999/xlink"><g fill="#fbffff" stroke-width=".9025" aria-label="Enterprise"><path d="m18.81 93.113h-7.4209v-12.885h7.4209v2.2386h-4.6888v2.8291h4.3627v2.2386h-4.3627v3.3227h4.6888z"/><path d="m30.382 93.113h-2.6881v-5.7552q0-1.0664-0.37898-1.5952-0.37898-0.53762-1.2074-0.53762-1.1281 0-1.6305 0.75796-0.50237 0.74914-0.50237 2.4942v4.6359h-2.6881v-9.8535h2.0535l0.36135 1.2603h0.14983q0.44949-0.71389 1.2339-1.0752 0.79321-0.37017 1.798-0.37017 1.7186 0 2.6088 0.93423 0.89016 0.92542 0.89016 2.6793z"/><path d="m37.301 91.148q0.70508 0 1.6922-0.30847v2.0007q-1.0047 0.44949-2.4678 0.44949-1.6129 0-2.3532-0.81084-0.73152-0.81965-0.73152-2.4501v-4.7505h-1.2868v-1.1369l1.4807-0.89897 0.77559-2.08h1.7186v2.0976h2.7586v2.0183h-2.7586v4.7505q0 0.57288 0.31728 0.84609 0.3261 0.27322 0.85491 0.27322z"/><path d="m45.065 84.987q-0.85491 0-1.3396 0.54644-0.48474 0.53762-0.55525 1.5335h3.7722q-0.01763-0.99592-0.52-1.5335-0.50237-0.54644-1.3573-0.54644zm0.37898 8.3023q-2.3796 0-3.7193-1.3132-1.3396-1.3132-1.3396-3.7193 0-2.4766 1.2339-3.825 1.2427-1.3573 3.4284-1.3573 2.0888 0 3.2522 1.1898 1.1634 1.1898 1.1634 3.2874v1.3044h-6.3545q0.04407 1.1458 0.67864 1.7891 0.63457 0.64338 1.7803 0.64338 0.89016 0 1.6834-0.18508t1.6569-0.5905v2.08q-0.70508 0.35254-1.5071 0.52-0.80203 0.17627-1.9566 0.17627z"/><path d="m57.149 83.075q0.54644 0 0.90779 0.07932l-0.20271 2.5207q-0.3261-0.08813-0.79321-0.08813-1.2868 0-2.0095 0.66101-0.71389 0.66101-0.71389 1.8508v5.0149h-2.6881v-9.8535h2.0359l0.39661 1.6569h0.1322q0.4583-0.82847 1.2339-1.3308 0.7844-0.51118 1.701-0.51118z"/><path d="m65.257 93.29q-1.7363 0-2.7234-1.2603h-0.14102q0.14102 1.2339 0.14102 1.4278v3.9925h-2.6881v-14.19h2.1857l0.37898 1.278h0.12339q0.94304-1.463 2.7939-1.463 1.7451 0 2.7322 1.3485 0.98711 1.3485 0.98711 3.7457 0 1.5776-0.46711 2.741-0.4583 1.1634-1.3132 1.7715t-2.0095 0.60813zm-0.79321-8.0643q-0.99592 0-1.4542 0.61694-0.4583 0.60813-0.47593 2.0183v0.29084q0 1.5864 0.46711 2.2739 0.47593 0.68745 1.4983 0.68745 1.8068 0 1.8068-2.979 0-1.4542-0.44949-2.1769-0.44067-0.73152-1.3925-0.73152z"/><path d="m76.768 83.075q0.54644 0 0.90779 0.07932l-0.20271 2.5207q-0.3261-0.08813-0.79321-0.08813-1.2868 0-2.0095 0.66101-0.71389 0.66101-0.71389 1.8508v5.0149h-2.6881v-9.8535h2.0359l0.39661 1.6569h0.1322q0.4583-0.82847 1.2339-1.3308 0.7844-0.51118 1.701-0.51118z"/><path d="m79.35 80.713q0-1.3132 1.463-1.3132 1.463 0 1.463 1.3132 0 0.62576-0.37017 0.9783-0.36135 0.34373-1.0929 0.34373-1.463 0-1.463-1.322zm2.8027 12.401h-2.6881v-9.8535h2.6881z"/><path d="m91.847 90.187q0 1.5159-1.0576 2.3091-1.0488 0.79321-3.1464 0.79321-1.0752 0-1.8332-0.14983-0.75796-0.14102-1.419-0.42305v-2.221q0.74915 0.35254 1.6834 0.5905 0.94304 0.23796 1.6569 0.23796 1.463 0 1.463-0.84609 0-0.31728-0.1939-0.51118-0.1939-0.20271-0.66982-0.44949-0.47593-0.25559-1.2691-0.5905-1.1369-0.47593-1.6746-0.88135-0.52881-0.40542-0.77559-0.92542-0.23796-0.52881-0.23796-1.2956 0-1.3132 1.0136-2.0271 1.0224-0.7227 2.8908-0.7227 1.7803 0 3.4637 0.77559l-0.81084 1.939q-0.74033-0.31728-1.3837-0.52-0.64338-0.20271-1.3132-0.20271-1.1898 0-1.1898 0.64338 0 0.36135 0.37898 0.62576 0.38779 0.2644 1.6834 0.7844 1.1546 0.46712 1.6922 0.87253 0.53762 0.40542 0.79321 0.93423t0.25559 1.2603z"/><path d="m98.026 84.987q-0.85491 0-1.3396 0.54644-0.48474 0.53762-0.55525 1.5335h3.7722q-0.01763-0.99592-0.52-1.5335-0.50237-0.54644-1.3573-0.54644zm0.37898 8.3023q-2.3796 0-3.7193-1.3132-1.3396-1.3132-1.3396-3.7193 0-2.4766 1.2339-3.825 1.2427-1.3573 3.4284-1.3573 2.0888 0 3.2522 1.1898 1.1634 1.1898 1.1634 3.2874v1.3044h-6.3545q0.04407 1.1458 0.67864 1.7891 0.63457 0.64338 1.7803 0.64338 0.89016 0 1.6834-0.18508 0.79321-0.18508 1.6569-0.5905v2.08q-0.70507 0.35254-1.5071 0.52-0.80203 0.17627-1.9566 0.17627z"/></g>































































































































<path d="m56.986-4.6225e-4c-11.796 0-21.793 8.0032-24.892 18.847-2.693-5.7515-8.5289-9.7809-15.251-9.7809-9.2442 0-16.843 7.6053-16.843 16.857s7.599 16.861 16.843 16.861c6.7219 0 12.558-4.0319 15.251-9.7844 3.0986 10.844 13.096 18.85 24.892 18.85 11.708 0 21.655-7.8851 24.833-18.607 2.7428 5.6219 8.5064 9.5414 15.133 9.5414 9.2442 0 16.847-7.6087 16.847-16.861s-7.6025-16.857-16.847-16.857c-6.6264 0-12.39 3.917-15.133 9.5379-3.1779-10.721-13.125-18.604-24.833-18.604zm0 9.8955c8.9043 0 16.018 7.1157 16.018 16.027 0 8.9116-7.1132 16.031-16.018 16.031-8.9043 0-16.014-7.1191-16.014-16.031 0-8.9116 7.1098-16.027 16.014-16.027zm-40.143 9.0657c3.9012 0 6.9593 3.0572 6.9593 6.9616 0 3.9044-3.0582 6.965-6.9593 6.965-3.9012 0-6.9559-3.0607-6.9559-6.965 0-3.9044 3.0547-6.9616 6.9559-6.9616zm80.109 0c3.9012 0 6.9593 3.0572 6.9593 6.9616 0 3.9044-3.0582 6.965-6.9593 6.965-3.9011 0-6.9558-3.0607-6.9558-6.965 0-3.9044 3.0547-6.9616 6.9558-6.9616z" color="#000000" color-rendering="auto" enable-background="accumulate" fill="#fff" image-rendering="auto" shape-rendering="auto" solid-color="#000000" style="isolation:auto;mix-blend-mode:normal;text-decoration-color:#000000;text-decoration-line:none;text-decoration-style:solid;text-indent:0;text-transform:none;white-space:normal"/><path d="m11.851 59.668c-0.32898 0-0.47108 0.18794-0.47108 0.51724v13.643c0 0.32927 0.1421 0.51495 0.47108 0.51495h0.37733c0.32899 0 0.51451-0.18568 0.51451-0.51495v-11.329l7.4412 11.558c0.03237 0.0505 0.06764 0.0842 0.1029 0.12123 0.01059 0.0125 0.01788 0.0256 0.02978 0.0366 0.03167 0.0289 0.06645 0.044 0.10057 0.0618 0.01898 0.01 0.03377 0.0247 0.05495 0.032 0.01479 5e-3 0.03037 2e-3 0.04576 6e-3 0.05246 0.0135 0.10608 0.0275 0.16921 0.0275h0.37504c0.32899 0 0.47107-0.18567 0.47107-0.51495v-13.642c0-0.3293-0.14208-0.51724-0.47107-0.51724h-0.37504c-0.32901 0-0.5168 0.18794-0.5168 0.51724v11.329l-7.4412-11.558c-0.02538-0.0394-0.05605-0.0634-0.08463-0.0939-0.08593-0.12161-0.22202-0.19455-0.4162-0.19455zm89.347 0.18768c-0.32899 0-0.18751 0.18795-0.18751 0.51724v4.6574c0 0.47037 0.0456 0.79872 0.0456 0.79872h-0.0456s-0.89344-2.0689-3.3844-2.0689c-2.726 0-4.6539 2.1637-4.5598 5.3623 0 3.1986 1.7388 5.4104 4.5118 5.4104 2.679 0 3.572-2.1651 3.572-2.1651h0.048s-0.0938 0.28283-0.0938 0.65913v0.79874c0 0.32926 0.1878 0.47148 0.51681 0.47148h0.32929c0.329 0 0.46877-0.18798 0.46877-0.51724v-13.407c0-0.32929-0.51709-0.51724-0.84609-0.51724zm-36.52 0.0481c-0.32901 0-0.1395 0.18797-0.1395 0.51724v11.523c0 2.2578 1.5025 2.5404 2.3485 2.5404 0.376 0 0.51679-0.18795 0.51679-0.5172v-0.32958c0-0.32927-0.18806-0.46919-0.42304-0.46919-0.47002-0.047-1.0794-0.18886-1.0794-1.5059v-11.242c0-0.32927-0.5171-0.51725-0.84611-0.51725zm-16.872 1.2222c-0.329 0-0.51681 0.18797-0.51681 0.51724v8.9372c0 2.446 1.364 3.8106 3.62 3.8106 0.42299 0 0.56255-0.13993 0.56255-0.46918v-0.2838c0-0.37629-0.13956-0.47024-0.56255-0.51724-0.79899-0.047-2.257-0.32912-2.257-2.7281v-5.1746h2.1153c0.329 0 0.51682-0.1399 0.51682-0.46918v-0.1419c0-0.32926-0.18782-0.51722-0.51682-0.51722h-2.1153v-2.4466c0-0.32926-0.1398-0.51724-0.46879-0.51724zm-18.72 2.6343c-2.82 0-5.0777 2.0236-5.1247 5.4104 0 3.1986 2.351 5.4081 5.4059 5.4081 1.645 0 2.8662-0.70495 3.4302-1.1283 0.23507-0.18814 0.28278-0.42392 0.14177-0.65912l-0.14177-0.23346c-0.141-0.28223-0.3743-0.33005-0.65631-0.14188-0.46999 0.37629-1.4121 0.94064-2.7281 0.94064-2.115 0-3.9481-1.506-3.995-4.1402h7.4732c0.28202 0 0.51681-0.23501 0.51681-0.51725 0-2.9634-1.549-4.9389-4.322-4.9389zm29.2 0c-3.055 0-5.4048 2.2576-5.4517 5.4561 0 3.1986 2.351 5.4104 5.4059 5.4104 1.88 0 3.1487-0.89493 3.6657-1.3183 0.23507-0.2352 0.2805-0.42265 0.1395-0.7049l-0.1395-0.18766c-0.18798-0.28225-0.37659-0.33005-0.65859-0.14191-0.46999 0.42334-1.4564 1.0826-2.9134 1.0826-2.256 0-4.043-1.6942-4.043-4.1402 0-2.493 1.787-4.186 4.043-4.186 1.222 0 2.1141 0.61137 2.5841 0.94065 0.28201 0.18807 0.51632 0.18838 0.70433-0.0938l0.14178-0.23572c0.23508-0.28224 0.18698-0.51677-0.04806-0.7049-0.51699-0.42337-1.6442-1.1764-3.4302-1.1764zm15.886 0c-3.008 0-5.4517 2.3048-5.4517 5.3623 0 3.1045 2.4437 5.4562 5.4517 5.4562 3.008 0 5.4517-2.3516 5.4517-5.4562 0-3.0575-2.4437-5.3623-5.4517-5.3623zm-30.405 0.15793c-0.11508 0.0184-0.22585 0.0959-0.33159 0.22197l-1.9026 2.268-1.4224 1.6982-2.1564-2.5702-1.1685-1.3961c-0.10579-0.12611-0.22561-0.19525-0.34987-0.20597-0.12426-0.01-0.25359 0.0361-0.37961 0.14189l-0.28814 0.24258c-0.25201 0.21167-0.23881 0.44583-0.02748 0.69807l1.9026 2.268 1.5779 1.8836-2.3096 2.7533c-2e-3 2e-3 -4e-3 5e-3 -5e-3 6e-3l-1.1662 1.3892c-0.21149 0.25223-0.18798 0.51842 0.06405 0.73009l0.28812 0.2403c0.25203 0.21164 0.48142 0.15841 0.6929-0.0939l1.9003-2.2681 1.4247-1.6982 2.1564 2.5724c1e-3 2e-3 4e-3 4e-3 5e-3 5e-3l1.164 1.3915c0.21148 0.25223 0.47744 0.27337 0.72948 0.0617l0.28813-0.2403c0.25203-0.21165 0.23894-0.44581 0.02748-0.69805l-1.9026-2.2703-1.5779-1.8813 2.3096-2.7555c2e-3 -2e-3 4e-3 -4e-3 5e-3 -6e-3l1.1662-1.3892c0.21149-0.25224 0.18798-0.51844-0.06405-0.73009l-0.28813-0.2403c-0.12601-0.10587-0.24621-0.14655-0.3613-0.12815zm38.63 0.0779c-0.32901 0-0.47109 0.18796-0.47109 0.51723v6.0672c0 2.6812 1.9741 3.9983 4.4181 3.9983 2.444 0 4.4181-1.3171 4.4181-3.9983v-6.0672c0.04696-0.32926-0.1398-0.51723-0.4688-0.51723h-0.37731c-0.32901 0-0.51682 0.18797-0.51682 0.51723v5.6919c0 1.5993-1.0341 3.0577-3.0551 3.0577-1.974 0-3.0551-1.4584-3.0551-3.0577v-5.6919c0-0.32926-0.18782-0.51723-0.51684-0.51723zm-53.36 0.94063c1.504 0 2.8193 1.0816 2.9134 3.2453h-6.4853c0.329-2.1167 1.833-3.2453 3.5719-3.2453zm45.134 0.0939c2.209 0 3.995 1.7402 3.995 4.0921 0 2.446-1.786 4.234-3.995 4.234-2.209 0-3.9961-1.835-4.043-4.234 0-2.3049 1.834-4.0921 4.043-4.0921zm23.547 0c2.209 0 3.2907 2.0235 3.2907 4.1402 0 2.9634-1.5997 4.186-3.3387 4.186-1.927 0-3.2415-1.6459-3.2884-4.186 0-2.6342 1.5034-4.1402 3.3364-4.1402z" fill="#fff" stroke-width=".47038"/></svg>
