<svg width="275" height="24" viewBox="0 0 275 24" fill="none" xmlns="http://www.w3.org/2000/svg">
<g clip-path="url(#clip0_122_7804)">
<path d="M63.8665 20.1443C63.525 20.1452 63.1844 20.1105 62.85 20.041C62.1302 19.8922 61.4494 19.5943 60.8517 19.1664C60.2539 18.7386 59.7524 18.1903 59.3794 17.5569L59.3604 17.5216C59.1753 17.1709 59.1304 16.763 59.2349 16.3804C59.3394 15.9979 59.5853 15.6694 59.923 15.4615C60.1568 15.3208 60.4246 15.2466 60.6975 15.2468C60.9694 15.2472 61.2363 15.3199 61.4708 15.4574C61.7052 15.595 61.8989 15.7924 62.032 16.0295L62.0836 16.1165L62.2467 16.3366L62.4641 16.5568C62.7468 16.8014 63.089 16.9673 63.4561 17.0378C63.753 17.0952 64.0587 17.0901 64.3535 17.0227C64.6483 16.9553 64.9258 16.8272 65.1683 16.6464C65.4188 16.4682 65.6266 16.2365 65.7765 15.9681C65.9265 15.6997 66.0149 15.4013 66.0353 15.0946C66.0605 14.7909 66.0203 14.4854 65.9177 14.1985C65.815 13.9116 65.6522 13.65 65.4401 13.4313C65.4401 13.4313 60.4285 8.26746 60.3198 8.12342L60.0724 7.75651C59.4861 6.84134 59.2212 5.75696 59.3196 4.67453C59.3733 3.92449 59.5953 3.19619 59.9692 2.54377L60.1866 2.16328C60.5821 1.59755 61.0994 1.12763 61.7004 0.788074L61.9477 0.611417C63.1039 -0.024086 64.4631 -0.18081 65.7335 0.174908C67.004 0.530626 68.0842 1.37041 68.7422 2.51388C68.8448 2.68645 68.9115 2.87787 68.9386 3.07676C68.9657 3.27565 68.9525 3.47796 68.8999 3.67166C68.8477 3.86886 68.7566 4.05364 68.632 4.21513C68.5074 4.37662 68.3517 4.51156 68.1742 4.61202C67.948 4.74618 67.6898 4.81661 67.4268 4.81585C67.1564 4.81511 66.8911 4.74249 66.6581 4.60542C66.425 4.46836 66.2326 4.27178 66.1005 4.03585C65.9571 3.79185 65.7635 3.58111 65.5325 3.41759C65.3015 3.25407 65.0384 3.1415 64.7607 3.08733C64.4782 3.03234 64.1875 3.03655 63.9068 3.0997C63.6261 3.16286 63.3616 3.28358 63.13 3.45424C62.9074 3.62769 62.7244 3.84663 62.5932 4.09642C62.462 4.34622 62.3855 4.62114 62.369 4.90282C62.3454 5.18558 62.3817 5.47013 62.4753 5.73796C62.569 6.00579 62.7179 6.25092 62.9125 6.45741L67.6225 11.3141C68.3329 12.0512 68.8106 12.9812 68.9959 13.988C69.1812 14.9948 69.0659 16.0339 68.6644 16.9757C68.263 17.9174 67.5931 18.7201 66.7385 19.2836C65.8838 19.847 64.8821 20.1464 63.8583 20.1443H63.8665Z" fill="#003D8F"/>
<path d="M48.9656 20.1416C47.6232 20.1402 46.3362 19.6063 45.3869 18.657C44.4377 17.7078 43.9038 16.4208 43.9023 15.0784V5.06326C43.9023 4.39835 44.0333 3.73994 44.2878 3.12564C44.5422 2.51133 44.9152 1.95316 45.3853 1.483C45.8555 1.01283 46.4137 0.639871 47.028 0.385418C47.6423 0.130965 48.3007 0 48.9656 0C49.6305 0 50.2889 0.130965 50.9032 0.385418C51.5175 0.639871 52.0757 1.01283 52.5459 1.483C53.016 1.95316 53.389 2.51133 53.6435 3.12564C53.8979 3.73994 54.0289 4.39835 54.0289 5.06326V15.0784C54.0274 16.4208 53.4935 17.7078 52.5443 18.657C51.5951 19.6063 50.308 20.1402 48.9656 20.1416V20.1416ZM48.9656 3.05753C48.4339 3.05825 47.9241 3.26979 47.5481 3.64579C47.1721 4.02178 46.9606 4.53153 46.9599 5.06326V15.0784C46.957 15.3426 47.0068 15.6047 47.1066 15.8494C47.2064 16.094 47.354 16.3163 47.5408 16.5031C47.7277 16.69 47.9499 16.8376 48.1946 16.9374C48.4393 17.0371 48.7014 17.087 48.9656 17.0841C49.4973 17.0834 50.0071 16.8718 50.3831 16.4958C50.7591 16.1198 50.9706 15.6101 50.9713 15.0784V5.06326C50.9643 4.5335 50.7507 4.02741 50.3761 3.65277C50.0015 3.27814 49.4954 3.06456 48.9656 3.05753V3.05753Z" fill="#003D8F"/>
<path d="M29.3009 10.3301V18.6276C29.3009 19.0327 29.14 19.4212 28.8535 19.7076C28.5671 19.994 28.1786 20.155 27.7735 20.155C27.3684 20.155 26.9799 19.994 26.6935 19.7076C26.407 19.4212 26.2461 19.0327 26.2461 18.6276V3.98677L29.3009 10.3301ZM37.5494 16.1625V1.52716C37.5328 1.13286 37.3645 0.760234 37.0796 0.487116C36.7947 0.213998 36.4153 0.0615126 36.0207 0.0615126C35.626 0.0615126 35.2466 0.213998 34.9617 0.487116C34.6769 0.760234 34.5085 1.13286 34.4919 1.52716V9.81646L37.5494 16.1625ZM29.1569 0.866736V0.83684C29.0192 0.590584 28.8185 0.385327 28.5755 0.242067C28.3324 0.0988083 28.0556 0.0226901 27.7735 0.0215002C27.6702 0.0210094 27.5672 0.0319472 27.4664 0.0541138C27.1228 0.121019 26.8137 0.306581 26.5931 0.578343C26.3725 0.850105 26.2545 1.19077 26.2597 1.54075V1.89135L34.6468 19.3043C34.7783 19.5521 34.9736 19.7604 35.2125 19.9075C35.4514 20.0547 35.7252 20.1354 36.0057 20.1414C36.1239 20.1417 36.2417 20.1271 36.3563 20.0979C36.6939 20.0273 36.9968 19.8425 37.2141 19.5747C37.4315 19.3069 37.5499 18.9724 37.5494 18.6276V18.2824C37.5494 18.2824 29.3824 1.33148 29.1569 0.866736Z" fill="#003D8F"/>
<path d="M14.7859 20.1416C13.4433 20.1409 12.1558 19.6072 11.2064 18.6578C10.2571 17.7084 9.72338 16.421 9.72266 15.0784V5.06326C9.72266 3.7204 10.2561 2.43254 11.2057 1.483C12.1552 0.533449 13.4431 0 14.7859 0C16.1288 0 17.4166 0.533449 18.3662 1.483C19.3157 2.43254 19.8492 3.7204 19.8492 5.06326V15.0784C19.8485 16.421 19.3148 17.7084 18.3654 18.6578C17.416 19.6072 16.1286 20.1409 14.7859 20.1416V20.1416ZM14.7859 3.05753C14.5224 3.05717 14.2614 3.1088 14.0179 3.20948C13.7744 3.31015 13.5532 3.45787 13.3669 3.64419C13.1805 3.83052 13.0328 4.05177 12.9321 4.29528C12.8315 4.53879 12.7798 4.79977 12.7802 5.06326V15.0784C12.7802 15.6103 12.9915 16.1205 13.3676 16.4966C13.7438 16.8728 14.254 17.0841 14.7859 17.0841C15.3179 17.0841 15.828 16.8728 16.2042 16.4966C16.5803 16.1205 16.7917 15.6103 16.7917 15.0784V5.06326C16.7846 4.5335 16.571 4.02741 16.1964 3.65277C15.8218 3.27814 15.3157 3.06456 14.7859 3.05753V3.05753Z" fill="#003D8F"/>
<path d="M1.6608 20.1333C1.44081 20.1344 1.22281 20.0916 1.01959 20.0073C0.81637 19.9231 0.632018 19.7991 0.477347 19.6427C0.322677 19.4862 0.200803 19.3005 0.118872 19.0963C0.0369406 18.8921 -0.00339725 18.6737 0.000223885 18.4537V1.63867C0.00808453 1.20157 0.187994 0.785202 0.500912 0.479916C0.81383 0.17463 1.23451 0.0050545 1.67167 0.00798717C2.03775 0.00263045 2.39497 0.120621 2.68584 0.342962C2.97671 0.565304 3.18429 0.879059 3.27517 1.23372C3.28638 1.27214 3.29545 1.31116 3.30235 1.35058V1.42396C3.31791 1.5137 3.32519 1.60467 3.32409 1.69574C3.32409 1.69574 3.32409 18.2743 3.32409 18.4646C3.32553 18.6837 3.28353 18.9009 3.20052 19.1036C3.11751 19.3064 2.99513 19.4907 2.84047 19.6458C2.6858 19.801 2.50191 19.924 2.29943 20.0076C2.09695 20.0913 1.87989 20.134 1.6608 20.1333V20.1333Z" fill="#003D8F"/>
</g>
<path d="M270.503 9.56348C271.386 9.56348 272.146 9.73438 272.784 10.0762C273.422 10.4123 273.915 10.9022 274.262 11.5459C274.61 12.1896 274.784 12.9757 274.784 13.9043V15.1689H268.623C268.651 15.9038 268.871 16.482 269.281 16.9036C269.697 17.3194 270.272 17.5273 271.007 17.5273C271.616 17.5273 272.175 17.4647 272.682 17.3394C273.189 17.214 273.71 17.026 274.245 16.7754V18.792C273.773 19.0256 273.277 19.1965 272.759 19.3047C272.246 19.4129 271.622 19.467 270.887 19.467C269.93 19.467 269.081 19.2904 268.341 18.9373C267.606 18.5841 267.028 18.0457 266.606 17.3223C266.19 16.5988 265.982 15.6873 265.982 14.5879C265.982 13.4714 266.17 12.5428 266.546 11.8022C266.928 11.056 267.458 10.4977 268.136 10.1274C268.814 9.75146 269.603 9.56348 270.503 9.56348ZM270.52 11.4177C270.013 11.4177 269.591 11.5801 269.255 11.9048C268.925 12.2295 268.734 12.7393 268.683 13.4343H272.34C272.334 13.047 272.263 12.7023 272.126 12.4004C271.995 12.0985 271.796 11.8592 271.528 11.6826C271.266 11.506 270.93 11.4177 270.52 11.4177Z" fill="#003D8F"/>
<path d="M261.437 19.467C260.491 19.467 259.685 19.2961 259.019 18.9543C258.352 18.6069 257.845 18.0714 257.498 17.3479C257.15 16.6244 256.977 15.6987 256.977 14.5708C256.977 13.403 257.173 12.4517 257.566 11.7168C257.965 10.9762 258.515 10.4322 259.215 10.0847C259.922 9.73722 260.739 9.56348 261.668 9.56348C262.329 9.56348 262.898 9.62899 263.377 9.76001C263.861 9.88534 264.282 10.0363 264.641 10.2129L263.872 12.2295C263.462 12.0643 263.08 11.9304 262.727 11.8279C262.374 11.7196 262.021 11.6655 261.668 11.6655C261.212 11.6655 260.833 11.7738 260.531 11.9902C260.229 12.201 260.004 12.52 259.856 12.9473C259.708 13.3745 259.634 13.91 259.634 14.5537C259.634 15.186 259.714 15.7101 259.873 16.126C260.033 16.5418 260.264 16.8523 260.565 17.0574C260.867 17.2568 261.235 17.3564 261.668 17.3564C262.209 17.3564 262.69 17.2852 263.112 17.1428C263.533 16.9947 263.944 16.7896 264.342 16.5276V18.7578C263.944 19.0085 263.525 19.1879 263.086 19.2961C262.653 19.4101 262.104 19.467 261.437 19.467Z" fill="#003D8F"/>
<path d="M250.894 9.5459C252.175 9.5459 253.158 9.82503 253.842 10.3833C254.525 10.9416 254.867 11.7904 254.867 12.9297V19.2957H253.047L252.543 17.9968H252.474C252.201 18.3386 251.922 18.6178 251.637 18.8342C251.352 19.0507 251.025 19.2102 250.654 19.3127C250.284 19.4153 249.834 19.4666 249.304 19.4666C248.74 19.4666 248.233 19.3583 247.783 19.1418C247.339 18.9254 246.989 18.595 246.732 18.1506C246.476 17.7006 246.348 17.1309 246.348 16.4417C246.348 15.4277 246.704 14.6814 247.416 14.2029C248.128 13.7187 249.196 13.4509 250.62 13.3997L252.278 13.3484V12.9297C252.278 12.4284 252.147 12.061 251.885 11.8274C251.623 11.5938 251.258 11.4771 250.791 11.4771C250.33 11.4771 249.877 11.5426 249.432 11.6736C248.988 11.8046 248.544 11.9698 248.099 12.1692L247.236 10.4089C247.743 10.1412 248.31 9.93042 248.937 9.77661C249.569 9.6228 250.221 9.5459 250.894 9.5459ZM252.278 14.8694L251.27 14.9036C250.426 14.9264 249.84 15.0773 249.509 15.3564C249.185 15.6356 249.022 16.003 249.022 16.4587C249.022 16.8575 249.139 17.1423 249.373 17.3132C249.606 17.4784 249.911 17.561 250.287 17.561C250.845 17.561 251.315 17.3958 251.697 17.0654C252.084 16.735 252.278 16.2651 252.278 15.6555V14.8694Z" fill="#003D8F"/>
<path d="M241.219 9.56348C242.296 9.56348 243.165 9.98218 243.825 10.8196C244.492 11.657 244.825 12.8846 244.825 14.5024C244.825 15.5848 244.669 16.4963 244.355 17.2368C244.042 17.9717 243.609 18.5271 243.056 18.9031C242.504 19.2791 241.869 19.467 241.151 19.467C240.689 19.467 240.294 19.4101 239.963 19.2961C239.633 19.1765 239.351 19.0256 239.117 18.8433C238.884 18.6553 238.681 18.4559 238.51 18.2451H238.374C238.419 18.473 238.454 18.7065 238.476 18.9458C238.499 19.1851 238.51 19.4186 238.51 19.6465V23.5002H235.904V9.74292H238.023L238.391 10.9819H238.51C238.681 10.7256 238.889 10.4892 239.134 10.2727C239.379 10.0562 239.673 9.88534 240.014 9.76001C240.362 9.62899 240.764 9.56348 241.219 9.56348ZM240.382 11.6484C239.926 11.6484 239.564 11.7424 239.297 11.9304C239.029 12.1184 238.832 12.4004 238.707 12.7764C238.587 13.1523 238.522 13.628 238.51 14.2034V14.4854C238.51 15.1006 238.567 15.6218 238.681 16.0491C238.801 16.4763 238.998 16.801 239.271 17.0232C239.55 17.2454 239.932 17.3564 240.416 17.3564C240.815 17.3564 241.142 17.2454 241.399 17.0232C241.655 16.801 241.846 16.4763 241.971 16.0491C242.102 15.6161 242.168 15.0892 242.168 14.4683C242.168 13.534 242.022 12.8305 241.732 12.3577C241.441 11.8848 240.991 11.6484 240.382 11.6484Z" fill="#003D8F"/>
<path d="M233.871 16.4592C233.871 17.1086 233.717 17.6584 233.41 18.1084C233.108 18.5527 232.655 18.8917 232.051 19.1252C231.447 19.3531 230.695 19.467 229.795 19.467C229.129 19.467 228.556 19.4243 228.078 19.3389C227.605 19.2534 227.126 19.111 226.642 18.9116V16.7583C227.16 16.9919 227.716 17.1855 228.308 17.3394C228.906 17.4875 229.431 17.5615 229.881 17.5615C230.388 17.5615 230.749 17.4875 230.966 17.3394C231.188 17.1855 231.299 16.9862 231.299 16.7412C231.299 16.5817 231.253 16.4393 231.162 16.314C231.077 16.1829 230.889 16.0377 230.598 15.8782C230.308 15.713 229.852 15.4993 229.231 15.2373C228.633 14.9867 228.14 14.7332 227.753 14.4768C227.371 14.2205 227.086 13.9185 226.898 13.571C226.716 13.2179 226.625 12.7707 226.625 12.2295C226.625 11.3465 226.967 10.6829 227.65 10.2385C228.34 9.78849 229.26 9.56348 230.41 9.56348C231.003 9.56348 231.567 9.62329 232.102 9.74292C232.643 9.86255 233.199 10.0534 233.769 10.3154L232.982 12.1953C232.51 11.9902 232.062 11.8222 231.641 11.6912C231.225 11.5601 230.801 11.4946 230.368 11.4946C229.986 11.4946 229.698 11.5459 229.505 11.6484C229.311 11.751 229.214 11.9076 229.214 12.1184C229.214 12.2722 229.263 12.4089 229.359 12.5286C229.462 12.6482 229.656 12.7821 229.94 12.9302C230.231 13.0726 230.655 13.2577 231.214 13.4856C231.755 13.7078 232.225 13.9413 232.624 14.1863C233.022 14.4255 233.33 14.7246 233.546 15.0835C233.763 15.4367 233.871 15.8953 233.871 16.4592Z" fill="#003D8F"/>
<path d="M218.96 6V11.9473C218.96 12.3062 218.945 12.665 218.917 13.0239C218.889 13.3828 218.857 13.7417 218.823 14.1006H218.857C219.034 13.8499 219.213 13.6021 219.396 13.3572C219.583 13.1122 219.783 12.8758 219.994 12.6479L222.668 9.74268H225.608L221.814 13.887L225.838 19.2959H222.831L220.079 15.425L218.96 16.3223V19.2959H216.354V6H218.96Z" fill="#003D8F"/>
<path d="M213.74 9.56348C213.871 9.56348 214.022 9.57202 214.193 9.58911C214.37 9.6005 214.512 9.61759 214.62 9.64038L214.424 12.0842C214.338 12.0557 214.216 12.0358 214.056 12.0244C213.903 12.0073 213.769 11.9988 213.655 11.9988C213.319 11.9988 212.991 12.0415 212.672 12.127C212.359 12.2124 212.077 12.352 211.826 12.5457C211.576 12.7336 211.376 12.9843 211.228 13.2976C211.086 13.6052 211.014 13.984 211.014 14.4341V19.2961H208.408V9.74292H210.382L210.767 11.3494H210.895C211.083 11.0247 211.316 10.7284 211.595 10.4607C211.88 10.1873 212.202 9.97078 212.561 9.81128C212.926 9.64608 213.319 9.56348 213.74 9.56348Z" fill="#003D8F"/>
<path d="M206.255 14.5024C206.255 15.3 206.147 16.0063 205.93 16.6216C205.719 17.2368 205.409 17.7581 204.999 18.1853C204.594 18.6069 204.104 18.9259 203.529 19.1423C202.959 19.3588 202.316 19.467 201.598 19.467C200.926 19.467 200.308 19.3588 199.744 19.1423C199.185 18.9259 198.698 18.6069 198.282 18.1853C197.872 17.7581 197.553 17.2368 197.325 16.6216C197.103 16.0063 196.992 15.3 196.992 14.5024C196.992 13.4429 197.18 12.5457 197.556 11.8108C197.932 11.0759 198.468 10.5177 199.163 10.136C199.858 9.75431 200.686 9.56348 201.649 9.56348C202.544 9.56348 203.335 9.75431 204.025 10.136C204.72 10.5177 205.264 11.0759 205.657 11.8108C206.056 12.5457 206.255 13.4429 206.255 14.5024ZM199.65 14.5024C199.65 15.1291 199.718 15.656 199.855 16.0833C199.991 16.5105 200.205 16.8324 200.496 17.0488C200.786 17.2653 201.165 17.3735 201.632 17.3735C202.094 17.3735 202.467 17.2653 202.751 17.0488C203.042 16.8324 203.253 16.5105 203.384 16.0833C203.521 15.656 203.589 15.1291 203.589 14.5024C203.589 13.8701 203.521 13.346 203.384 12.9302C203.253 12.5086 203.042 12.1925 202.751 11.9817C202.461 11.7709 202.082 11.6655 201.615 11.6655C200.926 11.6655 200.424 11.9019 200.111 12.3748C199.803 12.8476 199.65 13.5568 199.65 14.5024Z" fill="#003D8F"/>
<path d="M196.206 6.80371L193.027 19.2964H190.011L188.319 12.7339C188.285 12.6086 188.239 12.4177 188.182 12.1614C188.125 11.905 188.066 11.6259 188.003 11.324C187.94 11.0164 187.883 10.7287 187.832 10.4609C187.786 10.1875 187.755 9.97103 187.738 9.81152C187.721 9.97103 187.687 10.1847 187.635 10.4524C187.59 10.7201 187.536 11.005 187.473 11.3069C187.416 11.6088 187.359 11.8908 187.302 12.1528C187.245 12.4149 187.2 12.6143 187.166 12.751L185.482 19.2964H182.474L179.287 6.80371H181.893L183.491 13.6226C183.537 13.8276 183.588 14.0726 183.645 14.3574C183.708 14.6423 183.767 14.9413 183.824 15.2546C183.887 15.5623 183.941 15.8613 183.987 16.1519C184.038 16.4367 184.075 16.6845 184.098 16.8953C184.126 16.6788 184.163 16.4281 184.209 16.1433C184.255 15.8528 184.303 15.5594 184.354 15.2632C184.411 14.9613 184.468 14.6821 184.525 14.4258C184.582 14.1694 184.633 13.9615 184.679 13.802L186.499 6.80371H189.003L190.823 13.802C190.863 13.9558 190.908 14.1637 190.959 14.4258C191.016 14.6821 191.073 14.9613 191.13 15.2632C191.187 15.5651 191.239 15.8613 191.284 16.1519C191.335 16.4367 191.372 16.6845 191.395 16.8953C191.435 16.6104 191.489 16.2658 191.558 15.8613C191.632 15.4512 191.709 15.0439 191.788 14.6394C191.874 14.2349 191.948 13.896 192.01 13.6226L193.6 6.80371H196.206Z" fill="#003D8F"/>
<path d="M168.059 19.4668C166.994 19.4668 166.125 19.0509 165.453 18.2192C164.786 17.3818 164.453 16.1542 164.453 14.5364C164.453 12.9014 164.792 11.6653 165.47 10.8279C166.148 9.98478 167.034 9.56323 168.127 9.56323C168.583 9.56323 168.985 9.6259 169.332 9.75122C169.68 9.87655 169.979 10.0446 170.229 10.2554C170.486 10.4661 170.702 10.7026 170.879 10.9646H170.964C170.93 10.7823 170.887 10.5146 170.836 10.1614C170.791 9.80249 170.768 9.43506 170.768 9.05908V6H173.383V19.2959H171.383L170.879 18.0569H170.768C170.603 18.3189 170.395 18.5582 170.144 18.7747C169.899 18.9854 169.606 19.1535 169.264 19.2788C168.922 19.4041 168.521 19.4668 168.059 19.4668ZM168.973 17.3904C169.685 17.3904 170.187 17.1796 170.477 16.7581C170.774 16.3308 170.93 15.6899 170.947 14.8354V14.5535C170.947 13.6249 170.805 12.9157 170.52 12.4258C170.235 11.9302 169.705 11.6824 168.931 11.6824C168.355 11.6824 167.905 11.9302 167.581 12.4258C167.256 12.9214 167.094 13.6363 167.094 14.5706C167.094 15.5048 167.256 16.2083 167.581 16.6812C167.911 17.154 168.375 17.3904 168.973 17.3904Z" fill="#003D8F"/>
<path d="M162.299 9.74316V19.2964H160.299L159.949 18.0745H159.812C159.607 18.3992 159.351 18.6641 159.043 18.8691C158.736 19.0742 158.397 19.2252 158.026 19.322C157.656 19.4189 157.272 19.4673 156.873 19.4673C156.189 19.4673 155.594 19.3477 155.087 19.1084C154.58 18.8634 154.184 18.4846 153.899 17.9719C153.62 17.4592 153.48 16.7927 153.48 15.9724V9.74316H156.087V15.323C156.087 16.0066 156.209 16.5221 156.454 16.8696C156.699 17.2171 157.089 17.3909 157.625 17.3909C158.155 17.3909 158.57 17.2712 158.872 17.032C159.174 16.787 159.385 16.431 159.505 15.9639C159.63 15.491 159.693 14.9157 159.693 14.2378V9.74316H162.299Z" fill="#003D8F"/>
<path d="M151.378 14.5024C151.378 15.3 151.27 16.0063 151.053 16.6216C150.842 17.2368 150.532 17.7581 150.122 18.1853C149.717 18.6069 149.227 18.9259 148.652 19.1423C148.082 19.3588 147.439 19.467 146.721 19.467C146.049 19.467 145.431 19.3588 144.867 19.1423C144.308 18.9259 143.821 18.6069 143.406 18.1853C142.995 17.7581 142.676 17.2368 142.448 16.6216C142.226 16.0063 142.115 15.3 142.115 14.5024C142.115 13.4429 142.303 12.5457 142.679 11.8108C143.055 11.0759 143.591 10.5177 144.286 10.136C144.981 9.75431 145.809 9.56348 146.772 9.56348C147.667 9.56348 148.458 9.75431 149.148 10.136C149.843 10.5177 150.387 11.0759 150.78 11.8108C151.179 12.5457 151.378 13.4429 151.378 14.5024ZM144.773 14.5024C144.773 15.1291 144.841 15.656 144.978 16.0833C145.115 16.5105 145.328 16.8324 145.619 17.0488C145.909 17.2653 146.288 17.3735 146.755 17.3735C147.217 17.3735 147.59 17.2653 147.875 17.0488C148.165 16.8324 148.376 16.5105 148.507 16.0833C148.644 15.656 148.712 15.1291 148.712 14.5024C148.712 13.8701 148.644 13.346 148.507 12.9302C148.376 12.5086 148.165 12.1925 147.875 11.9817C147.584 11.7709 147.205 11.6655 146.738 11.6655C146.049 11.6655 145.547 11.9019 145.234 12.3748C144.927 12.8476 144.773 13.5568 144.773 14.5024Z" fill="#003D8F"/>
<path d="M139.954 19.2959H137.348V6H139.954V19.2959Z" fill="#003D8F"/>
<path d="M132.22 19.467C131.275 19.467 130.469 19.2961 129.802 18.9543C129.135 18.6069 128.628 18.0714 128.281 17.3479C127.934 16.6244 127.76 15.6987 127.76 14.5708C127.76 13.403 127.956 12.4517 128.349 11.7168C128.748 10.9762 129.298 10.4322 129.999 10.0847C130.705 9.73722 131.522 9.56348 132.451 9.56348C133.112 9.56348 133.681 9.62899 134.16 9.76001C134.644 9.88534 135.066 10.0363 135.425 10.2129L134.656 12.2295C134.245 12.0643 133.864 11.9304 133.51 11.8279C133.157 11.7196 132.804 11.6655 132.451 11.6655C131.995 11.6655 131.616 11.7738 131.314 11.9902C131.013 12.201 130.788 12.52 130.639 12.9473C130.491 13.3745 130.417 13.91 130.417 14.5537C130.417 15.186 130.497 15.7101 130.656 16.126C130.816 16.5418 131.047 16.8523 131.349 17.0574C131.651 17.2568 132.018 17.3564 132.451 17.3564C132.992 17.3564 133.473 17.2852 133.895 17.1428C134.317 16.9947 134.727 16.7896 135.125 16.5276V18.7578C134.727 19.0085 134.308 19.1879 133.869 19.2961C133.436 19.4101 132.887 19.467 132.22 19.467Z" fill="#003D8F"/>
<path d="M124.762 17.3904C125.047 17.3904 125.323 17.3619 125.591 17.3049C125.864 17.248 126.135 17.1768 126.402 17.0913V19.031C126.123 19.1563 125.776 19.2589 125.36 19.3386C124.95 19.4241 124.5 19.4668 124.01 19.4668C123.44 19.4668 122.927 19.3757 122.472 19.1934C122.022 19.0054 121.666 18.6835 121.404 18.2278C121.147 17.7664 121.019 17.1255 121.019 16.3052V11.6995H119.771V10.5972L121.207 9.72559L121.959 7.70898H123.625V9.74268H126.3V11.6995H123.625V16.3052C123.625 16.6698 123.728 16.9432 123.933 17.1255C124.144 17.3021 124.42 17.3904 124.762 17.3904Z" fill="#003D8F"/>
<path d="M112.576 14.4172L109.5 9.74316H112.457L114.311 12.7852L116.182 9.74316H119.139L116.029 14.4172L119.284 19.2964H116.319L114.311 16.0237L112.294 19.2964H109.338L112.576 14.4172Z" fill="#003D8F"/>
<path d="M104.219 9.56348C105.102 9.56348 105.863 9.73438 106.501 10.0762C107.139 10.4123 107.632 10.9022 107.979 11.5459C108.327 12.1896 108.5 12.9757 108.5 13.9043V15.1689H102.34C102.368 15.9038 102.587 16.482 102.998 16.9036C103.413 17.3194 103.989 17.5273 104.724 17.5273C105.333 17.5273 105.891 17.4647 106.398 17.3394C106.905 17.214 107.427 17.026 107.962 16.7754V18.792C107.489 19.0256 106.994 19.1965 106.475 19.3047C105.963 19.4129 105.339 19.467 104.604 19.467C103.647 19.467 102.798 19.2904 102.058 18.9373C101.323 18.5841 100.745 18.0457 100.323 17.3223C99.9071 16.5988 99.6992 15.6873 99.6992 14.5879C99.6992 13.4714 99.8872 12.5428 100.263 11.8022C100.645 11.056 101.175 10.4977 101.853 10.1274C102.53 9.75146 103.319 9.56348 104.219 9.56348ZM104.237 11.4177C103.73 11.4177 103.308 11.5801 102.972 11.9048C102.642 12.2295 102.451 12.7393 102.399 13.4343H106.057C106.051 13.047 105.98 12.7023 105.843 12.4004C105.712 12.0985 105.513 11.8592 105.245 11.6826C104.983 11.506 104.647 11.4177 104.237 11.4177Z" fill="#003D8F"/>
<path d="M97.3328 19.2964H93.9661L88.5315 9.8457H88.4546C88.4774 10.2388 88.4973 10.6347 88.5144 11.0334C88.5315 11.4322 88.5486 11.831 88.5657 12.2297C88.5828 12.6228 88.5999 13.0187 88.6169 13.4175V19.2964H86.25V6.80371H89.5911L95.0171 16.1604H95.0769C95.0655 15.773 95.0513 15.3885 95.0342 15.0068C95.0171 14.6252 95 14.2435 94.9829 13.8618C94.9715 13.4801 94.9601 13.0985 94.9487 12.7168V6.80371H97.3328V19.2964Z" fill="#003D8F"/>
<defs>
<clipPath id="clip0_122_7804">
<rect width="69.1001" height="20.1471" fill="white"/>
</clipPath>
</defs>
</svg>
