<?xml version="1.0" encoding="UTF-8" standalone="no"?><!DOCTYPE svg PUBLIC "-//W3C//DTD SVG 1.1//EN" "http://www.w3.org/Graphics/SVG/1.1/DTD/svg11.dtd"><svg width="100%" height="100%" viewBox="0 0 168 168" version="1.1" xmlns="http://www.w3.org/2000/svg" xmlns:xlink="http://www.w3.org/1999/xlink" xml:space="preserve" xmlns:serif="http://www.serif.com/" style="fill-rule:evenodd;clip-rule:evenodd;stroke-linejoin:round;stroke-miterlimit:1.41421;"><g><path d="M110.805,0l-53.618,0c-19.681,0.002 -25.037,0.082 -33.127,2.803c-9.854,3.601 -17.66,11.407 -21.261,21.261c-2.803,8.335 -2.803,13.767 -2.803,33.127l0,53.618c0,19.36 0,24.792 2.803,33.127c3.601,9.854 11.407,17.66 21.261,21.262c8.335,2.802 13.767,2.802 33.127,2.802l53.618,0c19.425,0 24.842,-0.017 33.127,-2.802c9.854,-3.602 17.66,-11.408 21.262,-21.262c2.802,-8.335 2.802,-13.767 2.802,-33.127l0,-53.618c0,-19.36 0,-24.792 -2.802,-33.127c-3.602,-9.854 -11.408,-17.66 -21.262,-21.261c-8.09,-2.721 -13.446,-2.801 -33.127,-2.803Z" style="fill:#80cc2b;"/><g><path d="M129.216,124.455l-40.961,16.967l0,-44.336l40.961,-16.967c0,14.779 0,29.558 0,44.336Z" style="fill:#fff;fill-rule:nonzero;"/><path d="M129.216,70.914l-40.961,16.967l0,-44.336l40.961,-16.967c0,14.779 0,29.557 0,44.336Z" style="fill:#fff;fill-rule:nonzero;"/><path d="M40.083,76.04l39.66,16.428l0,-32.855l-39.66,16.427Z" style="fill:#fff;fill-rule:nonzero;"/><path d="M79.737,97.068l0,44.336l-40.961,-16.966l0,-44.336c13.654,5.655 27.308,11.311 40.961,16.966Z" style="fill:#fff;fill-rule:nonzero;"/></g></g></svg>