<?xml version="1.0" encoding="UTF-8" standalone="no"?><!DOCTYPE svg PUBLIC "-//W3C//DTD SVG 1.1//EN" "http://www.w3.org/Graphics/SVG/1.1/DTD/svg11.dtd"><svg width="100%" height="100%" viewBox="0 0 12 12" version="1.1" xmlns="http://www.w3.org/2000/svg" xmlns:xlink="http://www.w3.org/1999/xlink" xml:space="preserve" xmlns:serif="http://www.serif.com/" style="fill-rule:evenodd;clip-rule:evenodd;stroke-linejoin:round;stroke-miterlimit:1.41421;"><g><path d="M7.915,0l-3.83,0c-1.406,0 -1.788,0.006 -2.366,0.2c-0.704,0.257 -1.262,0.815 -1.519,1.519c-0.2,0.595 -0.2,0.983 -0.2,2.366l0,3.83c0,1.383 0,1.771 0.2,2.366c0.257,0.704 0.815,1.262 1.519,1.519c0.595,0.2 0.983,0.2 2.366,0.2l3.83,0c1.387,0 1.774,-0.001 2.366,-0.2c0.704,-0.257 1.262,-0.815 1.519,-1.519c0.2,-0.595 0.2,-0.983 0.2,-2.366l0,-3.83c0,-1.383 0,-1.771 -0.2,-2.366c-0.257,-0.704 -0.815,-1.262 -1.519,-1.519c-0.578,-0.194 -0.96,-0.2 -2.366,-0.2Z" style="fill:#80cc2b;"/><g id="favicon"><path d="M9.746,9.144l-3.397,1.326l0,-3.463l3.397,-1.325c0,1.154 0,2.308 0,3.462Z" style="fill:#fff;fill-rule:nonzero;stroke:#80cc2b;stroke-width:0.2px;"/><path d="M9.746,4.963l-3.397,1.325l0,-3.463l3.397,-1.325c0,1.154 0,2.308 0,3.463Z" style="fill:#fff;fill-rule:nonzero;stroke:#80cc2b;stroke-width:0.2px;"/><path d="M2.354,5.363l3.289,1.283l0,-2.566l-3.289,1.283Z" style="fill:#fff;fill-rule:nonzero;stroke:#80cc2b;stroke-width:0.2px;"/><path d="M5.643,7.005l0,3.463l-3.397,-1.325l0,-3.463c1.132,0.442 2.264,0.884 3.397,1.325Z" style="fill:#fff;fill-rule:nonzero;stroke:#80cc2b;stroke-width:0.2px;"/></g></g></svg>