<?xml version="1.0" encoding="UTF-8" standalone="no"?><!DOCTYPE svg PUBLIC "-//W3C//DTD SVG 1.1//EN" "http://www.w3.org/Graphics/SVG/1.1/DTD/svg11.dtd"><svg width="100%" height="100%" viewBox="0 0 47 26" version="1.1" xmlns="http://www.w3.org/2000/svg" xmlns:xlink="http://www.w3.org/1999/xlink" xml:space="preserve" xmlns:serif="http://www.serif.com/" style="fill-rule:evenodd;clip-rule:evenodd;stroke-linejoin:round;stroke-miterlimit:1.41421;"><g><g><path d="M18.934,22.02l-8.575,3.48l0,-9.093l8.575,-3.48c0,3.031 0,6.062 0,9.093Z" style="fill:#fff;fill-rule:nonzero;"/><path d="M18.934,11.039l-8.575,3.479l0,-9.093l8.575,-3.48c0,3.031 0,6.062 0,9.094Z" style="fill:#fff;fill-rule:nonzero;"/><path d="M0.274,12.09l8.302,3.369l0,-6.738l-8.302,3.369Z" style="fill:#fff;fill-rule:nonzero;"/><path d="M8.575,16.403l0,9.093l-8.575,-3.48l0,-9.093c2.858,1.16 5.717,2.32 8.575,3.48Z" style="fill:#fff;fill-rule:nonzero;"/></g><g><path d="M28.755,15.441c0,0.475 -0.085,0.923 -0.256,1.343c-0.171,0.421 -0.405,0.807 -0.702,1.16c-0.297,0.353 -0.643,0.669 -1.039,0.948c-0.396,0.28 -0.814,0.509 -1.255,0.688l-4.669,1.894l0,-10.997l5.33,-2.163c0.333,-0.135 0.634,-0.174 0.904,-0.119c0.27,0.056 0.5,0.177 0.688,0.364c0.189,0.186 0.336,0.427 0.439,0.72c0.103,0.294 0.155,0.616 0.155,0.967c0,0.527 -0.114,1.069 -0.344,1.627c-0.229,0.557 -0.573,1.048 -1.032,1.472c0.549,-0.037 0.983,0.117 1.302,0.463c0.319,0.345 0.479,0.889 0.479,1.633Zm-2.253,0.403c0,-0.34 -0.086,-0.595 -0.257,-0.763c-0.171,-0.168 -0.387,-0.199 -0.648,-0.093l-2.55,1.035l0,2.4l2.456,-0.996c0.288,-0.117 0.526,-0.322 0.715,-0.616c0.189,-0.293 0.284,-0.616 0.284,-0.967Zm-3.455,-4.096l0,2.277l2.173,-0.882c0.242,-0.099 0.458,-0.279 0.647,-0.542c0.189,-0.262 0.284,-0.59 0.284,-0.982c0,-0.361 -0.084,-0.607 -0.25,-0.735c-0.166,-0.129 -0.367,-0.146 -0.6,-0.051l-2.254,0.915Z" style="fill:#fff;fill-rule:nonzero;"/><path d="M33.586,16.392c-0.711,0.289 -1.358,0.392 -1.943,0.309c-0.585,-0.083 -1.084,-0.301 -1.498,-0.655c-0.414,-0.353 -0.735,-0.819 -0.965,-1.397c-0.229,-0.578 -0.344,-1.223 -0.344,-1.936c0,-0.723 0.119,-1.468 0.358,-2.236c0.238,-0.768 0.571,-1.494 0.998,-2.179c0.428,-0.684 0.934,-1.297 1.518,-1.839c0.585,-0.542 1.224,-0.954 1.916,-1.235c0.711,-0.288 1.359,-0.391 1.944,-0.308c0.584,0.083 1.084,0.303 1.498,0.662c0.413,0.359 0.733,0.828 0.958,1.408c0.225,0.58 0.337,1.216 0.337,1.907c0,0.723 -0.119,1.469 -0.358,2.237c-0.238,0.767 -0.569,1.493 -0.991,2.175c-0.423,0.683 -0.927,1.298 -1.512,1.845c-0.585,0.547 -1.223,0.961 -1.916,1.242Zm-2.496,-4.562c0,0.423 0.054,0.811 0.161,1.165c0.108,0.354 0.268,0.643 0.48,0.867c0.211,0.224 0.474,0.365 0.789,0.423c0.315,0.058 0.675,0.005 1.079,-0.159c0.423,-0.172 0.792,-0.42 1.107,-0.744c0.315,-0.324 0.576,-0.685 0.783,-1.084c0.207,-0.399 0.362,-0.818 0.465,-1.258c0.104,-0.439 0.155,-0.865 0.155,-1.279c0,-0.423 -0.054,-0.811 -0.162,-1.165c-0.107,-0.354 -0.269,-0.639 -0.485,-0.856c-0.216,-0.217 -0.479,-0.353 -0.79,-0.408c-0.31,-0.055 -0.668,0 -1.073,0.164c-0.422,0.172 -0.789,0.416 -1.099,0.733c-0.311,0.317 -0.572,0.674 -0.783,1.069c-0.211,0.396 -0.369,0.813 -0.472,1.253c-0.104,0.439 -0.155,0.866 -0.155,1.279Z" style="fill:#fff;fill-rule:nonzero;"/><path d="M39.928,2.729l2.092,2.946l2.092,-4.644l2.388,-0.969l-3.32,6.923l3.212,4.118l-2.388,0.969l-1.984,-2.835l-1.984,4.445l-2.402,0.975l3.212,-6.725l-3.32,-4.228l2.402,-0.975Z" style="fill:#fff;fill-rule:nonzero;"/></g></g></svg>