<?xml version="1.0" encoding="UTF-8" standalone="no"?><!DOCTYPE svg PUBLIC "-//W3C//DTD SVG 1.1//EN" "http://www.w3.org/Graphics/SVG/1.1/DTD/svg11.dtd"><svg width="100%" height="100%" viewBox="0 0 203 113" version="1.1" xmlns="http://www.w3.org/2000/svg" xmlns:xlink="http://www.w3.org/1999/xlink" xml:space="preserve" xmlns:serif="http://www.serif.com/" style="fill-rule:evenodd;clip-rule:evenodd;stroke-linejoin:round;stroke-miterlimit:1.41421;"><g><g><path d="M82.454,97.147l-37.344,15.353l0,-40.118l37.344,-15.353c0,13.373 0,26.746 0,40.118Z" style="fill:#80cc2b;fill-rule:nonzero;"/><path d="M82.454,48.699l-37.344,15.353l0,-40.118l37.344,-15.353c0,13.373 0,26.746 0,40.118Z" style="fill:#80cc2b;fill-rule:nonzero;"/><path d="M1.191,53.338l36.158,14.865l0,-29.729l-36.158,14.864Z" style="fill:#80cc2b;fill-rule:nonzero;"/><path d="M37.344,72.366l0,40.118l-37.344,-15.352l0,-40.119c12.448,5.118 24.896,10.235 37.344,15.353Z" style="fill:#80cc2b;fill-rule:nonzero;"/></g><g><path d="M125.224,68.122c0,2.095 -0.373,4.071 -1.117,5.925c-0.744,1.855 -1.763,3.561 -3.056,5.117c-1.293,1.557 -2.801,2.951 -4.525,4.184c-1.723,1.233 -3.545,2.243 -5.465,3.033l-20.333,8.359l0,-48.516l23.213,-9.543c1.449,-0.596 2.762,-0.771 3.937,-0.525c1.175,0.245 2.174,0.78 2.997,1.603c0.823,0.824 1.459,1.883 1.91,3.178c0.45,1.296 0.676,2.718 0.676,4.267c0,2.323 -0.5,4.715 -1.499,7.176c-0.999,2.46 -2.497,4.625 -4.495,6.494c2.389,-0.162 4.28,0.519 5.67,2.042c1.391,1.524 2.087,3.926 2.087,7.206Zm-9.814,1.779c0,-1.503 -0.372,-2.625 -1.117,-3.367c-0.744,-0.742 -1.684,-0.879 -2.821,-0.412l-11.106,4.566l0,10.591l10.695,-4.397c1.254,-0.515 2.292,-1.42 3.115,-2.715c0.822,-1.295 1.234,-2.717 1.234,-4.266Zm-15.044,-18.073l0,10.045l9.461,-3.89c1.058,-0.434 1.998,-1.231 2.821,-2.389c0.823,-1.158 1.234,-2.603 1.234,-4.334c0,-1.595 -0.363,-2.676 -1.087,-3.243c-0.725,-0.568 -1.597,-0.642 -2.615,-0.223l-9.814,4.034Z" style="fill:#80cc2b;fill-rule:nonzero;"/><path d="M146.262,72.319c-3.095,1.273 -5.916,1.726 -8.463,1.361c-2.546,-0.365 -4.72,-1.328 -6.523,-2.887c-1.802,-1.56 -3.202,-3.615 -4.201,-6.165c-0.999,-2.551 -1.499,-5.398 -1.499,-8.541c0,-3.189 0.519,-6.477 1.557,-9.865c1.039,-3.388 2.488,-6.592 4.349,-9.612c1.861,-3.02 4.065,-5.725 6.611,-8.116c2.547,-2.391 5.328,-4.206 8.345,-5.446c3.095,-1.273 5.916,-1.726 8.462,-1.361c2.547,0.365 4.721,1.339 6.523,2.922c1.802,1.582 3.193,3.653 4.172,6.211c0.98,2.558 1.469,5.364 1.469,8.416c0,3.189 -0.519,6.477 -1.557,9.865c-1.038,3.388 -2.478,6.588 -4.319,9.6c-1.841,3.011 -4.035,5.724 -6.582,8.138c-2.546,2.413 -5.328,4.24 -8.344,5.48Zm-10.872,-20.13c0,1.868 0.235,3.582 0.705,5.143c0.47,1.56 1.166,2.835 2.086,3.823c0.921,0.988 2.067,1.61 3.438,1.866c1.371,0.257 2.938,0.022 4.701,-0.702c1.842,-0.757 3.448,-1.85 4.819,-3.28c1.371,-1.429 2.507,-3.023 3.408,-4.783c0.902,-1.76 1.577,-3.61 2.028,-5.549c0.45,-1.939 0.676,-3.819 0.676,-5.642c0,-1.867 -0.235,-3.582 -0.705,-5.142c-0.471,-1.561 -1.176,-2.82 -2.116,-3.777c-0.94,-0.957 -2.086,-1.557 -3.438,-1.798c-1.351,-0.242 -2.909,0 -4.672,0.725c-1.841,0.757 -3.437,1.834 -4.789,3.233c-1.352,1.398 -2.488,2.97 -3.408,4.715c-0.921,1.745 -1.607,3.587 -2.057,5.526c-0.451,1.939 -0.676,3.82 -0.676,5.642Z" style="fill:#80cc2b;fill-rule:nonzero;"/><path d="M173.881,12.039l9.109,12.996l9.109,-20.486l10.401,-4.276l-14.456,30.543l13.986,18.166l-10.402,4.277l-8.638,-12.507l-8.639,19.609l-10.46,4.301l13.986,-29.666l-14.456,-18.657l10.46,-4.3Z" style="fill:#80cc2b;fill-rule:nonzero;"/></g></g></svg>