<svg width="16" height="16" viewBox="0 0 71 100" xmlns="http://www.w3.org/2000/svg"><path d="M35.5 6.25c-13.807 0-25 11.193-25 25v12.5H4.25V87.5h62.5V43.75H60.5v-12.5c0-13.807-11.194-25-25-25zm0 12.5c6.904 0 12.5 5.596 12.5 12.5v12.5H23v-12.5c0-6.904 5.596-12.5 12.5-12.5z" fill="#fff"/><path d="M4.653 65.678v-21.61h5.82l.308-7.52c.404-9.786.707-11.478 2.82-15.76 1.322-2.676 2.526-4.333 4.78-6.575 9.53-9.487 23.32-9.89 33.515-.98 2.4 2.097 5.513 6.726 6.588 9.798.92 2.63 1.643 10.055 1.666 17.118l.01 3.92h6.357v43.22H4.653v-21.61zm43.76-25.953c-.127-2.39-.3-4.423-.385-4.52-.085-.097-.155 1.762-.155 4.13v4.31H23.335l-.148-2.86-.148-2.86-.084 3.07-.083 3.073H48.64l-.228-4.343zM26.372 23.2c.678-.875 1.125-1.59.994-1.59-.393 0-3.647 4.276-3.647 4.794 0 .263.32.008.71-.568a64.69 64.69 0 0 1 1.943-2.637zm20.064 1.906c-.336-.64-1.342-1.832-2.236-2.648l-1.624-1.482 1.54 1.694c.846.932 1.758 2.123 2.027 2.648.27.524.582.953.696.953.114 0-.067-.523-.403-1.164zm-15.29-5.534c-.207-.205-2.665 1.11-2.956 1.58-.133.216.51-.02 1.428-.522.92-.503 1.606-.98 1.528-1.058z" fill="none"/></svg>
