<?xml version="1.0" standalone="no"?>
<!DOCTYPE svg PUBLIC "-//W3C//DTD SVG 20010904//EN" "http://www.w3.org/TR/2001/REC-SVG-20010904/DTD/svg10.dtd">
<!-- Created using Karbon, part of Calligra: http://www.calligra.org/karbon -->
<svg xmlns="http://www.w3.org/2000/svg" xmlns:xlink="http://www.w3.org/1999/xlink" width="133.098pt" height="134.778pt">
<defs>
  <linearGradient id="gradient0" gradientTransform="matrix(0.935714 0 0 0.971429 -260.198 309.044)" gradientUnits="objectBoundingBox" x1="1.86062897958" y1="-2.28811738018" x2="1.88918016404" y2="-1.09199169808" spreadMethod="pad">
   <stop stop-color="#edf4fd" offset="0.00000000000" stop-opacity="0.52845044633"/>
   <stop stop-color="#175bb3" offset="1.00000000000" stop-opacity="0.00000000000"/>
  </linearGradient>
 </defs>
<g id="layer1">
  <g id="g5381" transform="translate(-5.94477e-06, 2.56921e-06)" fill="none">
   <path id="path4167" transform="matrix(0.758527 0 0 0.768105 -8.17197e-15 -3.02746e-16)" fill="#000000" d="M219.336 109.668C219.336 170.236 170.236 219.336 109.668 219.336C49.1001 219.336 0 170.236 0 109.668C0 49.1001 49.1001 0 109.668 0C170.236 0 219.336 49.1001 219.336 109.668Z"/>
   <path id="path4169" transform="matrix(0.709764 0 0 0.736855 5.34768 4.47751)" fill="#000000" d="M219.336 109.668C219.336 170.236 170.236 219.336 109.668 219.336C49.1001 219.336 0 170.236 0 109.668C0 49.1001 49.1001 0 109.668 0C170.236 0 219.336 49.1001 219.336 109.668Z"/>
   <g id="text4182" transform="translate(66.8213, 30.5499)" fill="none"/>
   <path id="path4171" transform="matrix(0.758527 0 0 0.758527 5.33866 4.46647)" fill="url(#gradient0)" d="M102.625 0C45.9507 0 0 47.725 0 106.562C0 110.315 0.1979 114.004 0.5625 117.656C50.6291 136.382 127.144 150.025 205.25 107.062C205.251 106.896 205.25 106.73 205.25 106.562C205.25 47.725 159.299 0 102.625 0Z"/>
  </g>
 </g>
</svg>
