<?xml version="1.0" standalone="no"?>
<!DOCTYPE svg PUBLIC "-//W3C//DTD SVG 20010904//EN" "http://www.w3.org/TR/2001/REC-SVG-20010904/DTD/svg10.dtd">
<!-- Created using Karbon, part of Calligra: http://www.calligra.org/karbon -->
<svg xmlns="http://www.w3.org/2000/svg" xmlns:xlink="http://www.w3.org/1999/xlink" width="133.098pt" height="134.778pt">
<defs>
  <linearGradient id="gradient0" gradientTransform="matrix(0.935714 0 0 0.971429 -260.198 309.044)" gradientUnits="objectBoundingBox" x1="1.86062897958" y1="-2.28811738018" x2="1.88918016404" y2="-1.09199169808" spreadMethod="pad">
   <stop stop-color="#edf4fd" offset="0.00000000000" stop-opacity="0.52845044633"/>
   <stop stop-color="#175bb3" offset="1.00000000000" stop-opacity="0.00000000000"/>
  </linearGradient>
 </defs>
<g id="layer1">
  <g id="g5327" transform="translate(5.00882e-07, -1.00277e-06)" fill="none">
   <path id="path4155" transform="matrix(0.758527 0 0 0.768105 -6.61744e-23 0)" fill="#000000" d="M219.336 109.668C219.336 170.236 170.236 219.336 109.668 219.336C49.1001 219.336 0 170.236 0 109.668C0 49.1001 49.1001 0 109.668 0C170.236 0 219.336 49.1001 219.336 109.668Z"/>
   <path id="path4157" transform="matrix(0.709764 0 0 0.736855 5.34768 4.47751)" fill="#000000" d="M219.336 109.668C219.336 170.236 170.236 219.336 109.668 219.336C49.1001 219.336 0 170.236 0 109.668C0 49.1001 49.1001 0 109.668 0C170.236 0 219.336 49.1001 219.336 109.668Z"/>
   <g id="g4149" transform="translate(32.6557, 32.5571)" fill="none">
    <path id="path4138" transform="matrix(-0.168373 -0.438415 0.36134 -0.202146 27.838 126.426)" fill="#eeeeee" d="M160.243 0.00621995C156.111 0.109866 152.106 1.44866 148.743 3.84997L8.68012 103.631C2.66423 107.918 -0.608526 115.089 0.0939771 122.442C0.79648 129.796 5.36759 136.217 12.0864 139.287L168.524 210.694C175.246 213.766 183.097 213.018 189.118 208.731C195.139 204.444 198.415 197.27 197.711 189.912L181.336 18.725C180.308 7.91607 171.097 -0.257837 160.243 0.00621995Z"/>
    <rect id="rect4143" transform="matrix(0.624447 0 0 0.610576 81.3708 26.8172)" fill="#eeeeee" width="16.29353760000pt" height="62.66744960000pt" rx="8.14676880000pt" ry="15.60399600000pt"/>
   </g>
   <path id="path4159" transform="matrix(0.758527 0 0 0.758527 5.33866 4.46647)" fill="url(#gradient0)" d="M102.625 0C45.9507 0 0 47.725 0 106.562C0 110.315 0.1979 114.004 0.5625 117.656C50.6291 136.382 127.144 150.025 205.25 107.062C205.251 106.896 205.25 106.73 205.25 106.562C205.25 47.725 159.299 0 102.625 0Z"/>
  </g>
 </g>
</svg>
