<?xml version="1.0" standalone="no"?>
<!DOCTYPE svg PUBLIC "-//W3C//DTD SVG 20010904//EN" "http://www.w3.org/TR/2001/REC-SVG-20010904/DTD/svg10.dtd">
<!-- Created using Karbon, part of Calligra: http://www.calligra.org/karbon -->
<svg xmlns="http://www.w3.org/2000/svg" xmlns:xlink="http://www.w3.org/1999/xlink" width="133.098pt" height="134.778pt">
<defs>
  <linearGradient id="gradient0" gradientTransform="matrix(0.935714 0 0 0.971429 -260.198 309.044)" gradientUnits="objectBoundingBox" x1="1.86062897958" y1="-2.28811738018" x2="1.88918016404" y2="-1.09199169808" spreadMethod="pad">
   <stop stop-color="#edf4fd" offset="0.00000000000" stop-opacity="0.52845044633"/>
   <stop stop-color="#175bb3" offset="1.00000000000" stop-opacity="0.00000000000"/>
  </linearGradient>
 </defs>
<g id="layer1">
  <g id="g5381" transform="translate(-5.94477e-06, 2.56921e-06)" fill="none">
   <path id="path4167" transform="matrix(0.758527 0 0 0.768105 -8.17197e-15 -3.02746e-16)" fill="#000000" d="M219.336 109.668C219.336 170.236 170.236 219.336 109.668 219.336C49.1001 219.336 0 170.236 0 109.668C0 49.1001 49.1001 0 109.668 0C170.236 0 219.336 49.1001 219.336 109.668Z"/>
   <path id="path4169" transform="matrix(0.709764 0 0 0.736855 5.34768 4.47751)" fill="#000000" d="M219.336 109.668C219.336 170.236 170.236 219.336 109.668 219.336C49.1001 219.336 0 170.236 0 109.668C0 49.1001 49.1001 0 109.668 0C170.236 0 219.336 49.1001 219.336 109.668Z"/>
   <g id="text4182" transform="translate(66.8213, 30.5499)" fill="none"/>
   <path id="path4171" transform="matrix(0.758527 0 0 0.758527 5.33866 4.46647)" fill="url(#gradient0)" d="M102.625 0C45.9507 0 0 47.725 0 106.562C0 110.315 0.1979 114.004 0.5625 117.656C50.6291 136.382 127.144 150.025 205.25 107.062C205.251 106.896 205.25 106.73 205.25 106.562C205.25 47.725 159.299 0 102.625 0Z"/>
  </g>
  <g id="g4549" transform="translate(42.322, 7.02379)" fill="none">
   <g id="g4542" transform="translate(-3.5, 49.2276)" fill="none">
    <rect id="rect812" transform="translate(3.5, 3.5)" fill="none" stroke="#ffffff" stroke-width="7.00000000000" stroke-linecap="butt" stroke-linejoin="round" width="52.59049680000pt" height="52.21751680000pt" rx="2.07274704000pt" ry="2.07274704000pt"/>
    <path id="path842" transform="translate(10.9597, 16.8727)" fill="none" stroke="#ffffff" stroke-width="7.00000000000" stroke-linecap="round" stroke-linejoin="round" d="M0 0L49.8864 0"/>
    <path id="path845" transform="translate(10.9597, 29.7461)" fill="none" stroke="#ffffff" stroke-width="7.00000000000" stroke-linecap="round" stroke-linejoin="round" d="M0 0L49.8864 0"/>
    <path id="path846" transform="translate(10.9597, 42.6194)" fill="none" stroke="#ffffff" stroke-width="7.00000000000" stroke-linecap="round" stroke-linejoin="round" d="M0 0L49.8864 0"/>
    <path id="path848" transform="translate(10.8847, 55.4927)" fill="none" stroke="#ffffff" stroke-width="7.00000000000" stroke-linecap="round" stroke-linejoin="round" d="M0 0L27.6572 0"/>
   </g>
   <g id="g886" transform="translate(24.5258, 32.1333)" fill="none">
    <path id="path599" transform="translate(1.56892, 48.6283)" fill="#ffffff" stroke="#b3b3b3" stroke-width="3.13784003000" stroke-linecap="round" stroke-linejoin="round" d="M16.3475 5.47447C0 17.0594 0 17.0594 0 17.0594L10.0728 0Z"/>
    <rect id="rect598" transform="matrix(-0.911191 -0.824059 0.824059 -0.911191 17.3856 54.0244)" fill="#ffffff" stroke="#b3b3b3" stroke-width="3.13783836000" stroke-linecap="round" stroke-linejoin="round" width="5.23702200000pt" height="37.70656160000pt"/>
    <path id="path600" transform="translate(4.47967, 60.1754)" fill="#ffffff" stroke="#b3b3b3" stroke-width="2.31749964000" stroke-linecap="butt" stroke-linejoin="round" d="M0.264548 0.337176C0.643913 -0.0822999 1.2915 -0.114817 1.71098 0.264548C2.13045 0.643913 2.16297 1.2915 1.7836 1.71098C1.40424 2.13045 0.756651 2.16297 0.337175 1.7836C-0.0823005 1.40424 -0.114816 0.756651 0.264548 0.337176Z"/>
    <rect id="rect601" transform="matrix(-0.911191 -0.824059 0.824059 -0.911191 56.463 11.5345)" fill="#ffffff" stroke="#b3b3b3" stroke-width="3.13783836000" stroke-linecap="butt" stroke-linejoin="round" width="5.97020528000pt" height="3.24695360000pt" rx="1.64633232000pt" ry="1.62347680000pt"/>
   </g>
  </g>
 </g>
</svg>
