<?xml version="1.0" standalone="no"?>
<!DOCTYPE svg PUBLIC "-//W3C//DTD SVG 20010904//EN" "http://www.w3.org/TR/2001/REC-SVG-20010904/DTD/svg10.dtd">
<!-- Created using Karbon, part of Calligra: http://www.calligra.org/karbon -->
<svg xmlns="http://www.w3.org/2000/svg" xmlns:xlink="http://www.w3.org/1999/xlink" width="133.098pt" height="134.778pt">
<defs>
  <linearGradient id="gradient0" gradientTransform="matrix(0.935714 0 0 0.971429 -260.198 309.044)" gradientUnits="objectBoundingBox" x1="1.86062897958" y1="-2.28811733465" x2="1.88918016404" y2="-1.09199167635" spreadMethod="pad">
   <stop stop-color="#edf4fd" offset="0.00000000000" stop-opacity="0.52845044633"/>
   <stop stop-color="#175bb3" offset="1.00000000000" stop-opacity="0.00000000000"/>
  </linearGradient>
 </defs>
<g id="layer1">
  <g id="g5362" transform="translate(-3.40191e-06, 5.08678e-06)" fill="none">
   <path id="path4239" transform="matrix(0.758527 0 0 0.768105 5.29396e-22 0)" fill="#000000" d="M219.336 109.668C219.336 170.236 170.236 219.336 109.668 219.336C49.1001 219.336 0 170.236 0 109.668C0 49.1001 49.1001 0 109.668 0C170.236 0 219.336 49.1001 219.336 109.668Z"/>
   <path id="path4241" transform="matrix(0.709764 0 0 0.736855 5.34768 4.47748)" fill="#000000" d="M219.336 109.668C219.336 170.236 170.236 219.336 109.668 219.336C49.1001 219.336 0 170.236 0 109.668C0 49.1001 49.1001 0 109.668 0C170.236 0 219.336 49.1001 219.336 109.668Z"/>
   <path id="path244" transform="matrix(0.758527 0 0 0.758527 23.1973 27.4649)" fill="#eeeeee" d="M80.5927 0.0948932C60.0949 -0.911807 40.4347 6.11839 25.2406 19.8968C10.0239 33.6889 1.10091 52.5655 0.0948972 73.0487C-0.911853 93.5465 6.11847 113.207 19.9112 128.409C33.6819 143.61 52.5585 152.533 73.0563 153.54C115.377 155.618 151.469 122.891 153.547 80.5855C155.625 38.2798 122.913 2.17339 80.5927 0.0948932ZM141.304 79.9841C140.952 87.1558 139.42 93.9908 136.945 100.317C131.792 99.6461 126.706 98.7947 121.689 97.7487C126.836 85.2521 128.594 71.5547 126.644 57.7998C124.785 44.717 119.689 32.8544 112.313 22.9264C130.73 35.0912 142.463 56.3835 141.304 79.9841ZM92.0321 26.1704C79.4068 40.6691 68.6314 56.7845 60.0807 74.2049C52.8482 70.0132 45.8857 65.4019 39.2203 60.4163C44.6575 50.0833 52.8087 41.3948 63.0583 35.2373C72.1673 29.7501 82.0974 26.8121 92.0321 26.1704ZM54.9821 85.4129C49.529 98.3126 45.2546 111.857 42.3271 125.908C41.8765 125.226 41.4339 124.529 41.0136 123.826C32.1223 109.048 29.5275 91.6818 33.686 74.9699C33.9167 74.0056 34.1893 73.0873 34.4639 72.1252C41.0431 76.9231 47.8895 81.3601 54.9821 85.4129ZM59.6738 132.526C57.583 132.827 55.4987 132.996 53.4253 133.092C56.1068 118.523 60.2937 104.519 65.8325 91.2201C77.7539 97.1755 90.2767 102.089 103.311 105.84C102.95 106.335 102.586 106.868 102.209 107.377C91.8412 121.166 76.7464 130.085 59.6738 132.526ZM70.8853 80.0467C79.4919 62.3869 90.5152 46.1516 103.52 31.6862C109.148 39.7311 113.028 49.1426 114.5 59.5069C116.233 71.7252 114.484 83.8752 109.573 94.8576C96.0784 91.2018 83.1341 86.2087 70.8853 80.0467ZM33.472 28.994C46.248 17.4001 62.7647 11.4919 79.9914 12.338C83.8846 12.5292 87.6863 13.0901 91.3568 13.9305C79.4801 14.6823 67.6153 18.1782 56.7378 24.723C45.2255 31.6472 35.9361 41.2556 29.501 52.6399C26.5147 50.1165 23.5977 47.5232 20.7443 44.8302C24.0834 38.9789 28.3438 33.6351 33.472 28.994ZM12.3453 73.6503C12.6332 67.7886 13.7123 62.0978 15.4974 56.669C18.3272 59.2435 21.2192 61.7475 24.1803 64.1891C23.2561 66.7258 22.4531 69.3346 21.7789 72.0084C18.4881 85.2417 18.776 98.7975 22.4326 111.573C15.2371 100.355 11.6786 87.2253 12.3453 73.6503ZM75.343 141.335C89.8738 136.43 102.603 127.284 112.015 114.74C113.396 112.9 114.692 111.006 115.896 109.055C120.881 110.158 125.911 111.094 131.015 111.873C119.175 130.1 98.4601 141.884 75.343 141.335Z"/>
   <path id="path4243" transform="matrix(0.758527 0 0 0.758527 5.33865 4.46648)" fill="url(#gradient0)" d="M102.625 0C45.9507 0 0 47.725 0 106.562C0 110.315 0.1979 114.004 0.5625 117.656C50.6291 136.382 127.144 150.025 205.25 107.062C205.251 106.896 205.25 106.73 205.25 106.562C205.25 47.725 159.299 -1.13687e-13 102.625 0Z"/>
  </g>
 </g>
</svg>
