<?xml version="1.0" standalone="no"?>
<!DOCTYPE svg PUBLIC "-//W3C//DTD SVG 20010904//EN" "http://www.w3.org/TR/2001/REC-SVG-20010904/DTD/svg10.dtd">
<!-- Created using Karbon, part of Calligra: http://www.calligra.org/karbon -->
<svg xmlns="http://www.w3.org/2000/svg" xmlns:xlink="http://www.w3.org/1999/xlink" width="133.098pt" height="134.778pt">
<defs>
  <linearGradient id="gradient0" gradientTransform="matrix(0.935714 0 0 0.971429 -260.198 309.044)" gradientUnits="objectBoundingBox" x1="1.86062897958" y1="-2.28811738018" x2="1.88918016404" y2="-1.09199169808" spreadMethod="pad">
   <stop stop-color="#edf4fd" offset="0.00000000000" stop-opacity="0.52845044633"/>
   <stop stop-color="#175bb3" offset="1.00000000000" stop-opacity="0.00000000000"/>
  </linearGradient>
 </defs>
<g id="layer1">
  <g id="g5314" transform="translate(-8.17503e-06, -2.94544e-06)" fill="none">
   <path id="path4087" transform="matrix(0.758527 0 0 0.768105 1.05879e-21 0)" fill="#000000" d="M219.336 109.668C219.336 170.236 170.236 219.336 109.668 219.336C49.1001 219.336 0 170.236 0 109.668C0 49.1001 49.1001 0 109.668 0C170.236 0 219.336 49.1001 219.336 109.668Z"/>
   <path id="path4089" transform="matrix(0.709764 0 0 0.736855 5.34768 4.47751)" fill="#000000" d="M219.336 109.668C219.336 170.236 170.236 219.336 109.668 219.336C49.1001 219.336 0 170.236 0 109.668C0 49.1001 49.1001 0 109.668 0C170.236 0 219.336 49.1001 219.336 109.668Z"/>
   <g id="g4126" transform="translate(27.3419, 27.8174)" fill="none">
    <path id="path4109" transform="matrix(0.646168 0 0 0.646168 2.22045e-14 1.77636e-14)" fill="#eeeeee" d="M83.9733 0.0146219C81.7822 0.0969449 79.6354 0.511418 77.6608 1.23337C74.7217 2.30249 72.2731 4.0111 70.6295 6.13962L2.22329 94.9209C-0.141455 97.987 -0.646597 101.673 0.836575 105.04C2.31975 108.407 5.648 111.13 9.97329 112.515L71.4108 32.7959C73.0479 30.6558 75.4972 28.9358 78.442 27.8584C86.1818 25.036 95.4931 27.2205 99.7545 32.8584L160.005 112.39C163.905 110.818 166.796 108.12 168.021 104.912C169.245 101.704 168.698 98.2572 166.505 95.3584L98.9733 6.23337C95.9221 2.19242 90.1245 -0.211173 83.9733 0.0146219Z"/>
    <path id="rect4116" transform="matrix(0.646168 0 0 0.646168 20.0253 26.3303)" fill="#eeeeee" d="M52.6562 0.00858529C51.3133 0.0537124 49.9957 0.308743 48.7812 0.758585C46.9652 1.43702 45.452 2.5257 44.4375 3.88359L2.4062 60.2898C2.26096 60.4729 2.12543 60.6606 1.99995 60.8523C1.98995 60.8666 2.00995 60.9004 1.99995 60.9148C1.96841 60.9459 1.93718 60.9771 1.90625 61.0085C0.67894 62.8827 0 65.1221 0 67.5398L0 116.571C0 123.169 5.28309 128.477 11.875 128.477L36.4375 128.477L36.4375 85.571C36.4375 78.9733 41.7206 73.6648 48.3125 73.6648L57.4375 73.6648C64.0294 73.6648 69.3125 78.9733 69.3125 85.571L69.3125 128.477L93.8437 128.477C100.436 128.477 105.75 123.169 105.75 116.571L105.75 67.5398C105.75 64.4233 104.538 61.6268 102.594 59.5085L61.8437 3.94604C59.9691 1.39179 56.4219 -0.128436 52.6562 0.00853529Z"/>
    <rect id="rect4124" transform="matrix(0.646168 0 0 0.646168 21.5365 9.64032)" fill="#eeeeee" width="18.17356080000pt" height="31.33372480000pt" rx="9.08678040000pt" ry="14.74450800000pt"/>
   </g>
   <path id="path4091" transform="matrix(0.758527 0 0 0.758527 5.33866 4.46647)" fill="url(#gradient0)" d="M102.625 0C45.9507 0 0 47.725 0 106.562C0 110.315 0.1979 114.004 0.5625 117.656C50.6291 136.382 127.144 150.025 205.25 107.062C205.251 106.896 205.25 106.73 205.25 106.562C205.25 47.725 159.299 0 102.625 0Z"/>
  </g>
 </g>
</svg>
