<?xml version="1.0" standalone="no"?>
<!DOCTYPE svg PUBLIC "-//W3C//DTD SVG 20010904//EN" "http://www.w3.org/TR/2001/REC-SVG-20010904/DTD/svg10.dtd">
<!-- Created using Karbon, part of Calligra: http://www.calligra.org/karbon -->
<svg xmlns="http://www.w3.org/2000/svg" xmlns:xlink="http://www.w3.org/1999/xlink" width="133.098pt" height="134.778pt">
<defs>
  <linearGradient id="gradient0" gradientTransform="matrix(0.935714 0 0 0.971429 -260.198 309.044)" gradientUnits="objectBoundingBox" x1="1.86062897958" y1="-2.28811738018" x2="1.88918016404" y2="-1.09199169808" spreadMethod="pad">
   <stop stop-color="#edf4fd" offset="0.00000000000" stop-opacity="0.52845044633"/>
   <stop stop-color="#175bb3" offset="1.00000000000" stop-opacity="0.00000000000"/>
  </linearGradient>
 </defs>
<g id="layer1">
  <g id="g5381" transform="translate(-5.94477e-06, 2.56921e-06)" fill="none">
   <path id="path4167" transform="matrix(0.758527 0 0 0.768105 0 0)" fill="#000000" d="M219.336 109.668C219.336 170.236 170.236 219.336 109.668 219.336C49.1001 219.336 0 170.236 0 109.668C0 49.1001 49.1001 0 109.668 0C170.236 0 219.336 49.1001 219.336 109.668Z"/>
   <path id="path4169" transform="matrix(0.709764 0 0 0.736855 5.34768 4.47751)" fill="#000000" d="M219.336 109.668C219.336 170.236 170.236 219.336 109.668 219.336C49.1001 219.336 0 170.236 0 109.668C0 49.1001 49.1001 0 109.668 0C170.236 0 219.336 49.1001 219.336 109.668Z"/>
   <g id="text4182" transform="translate(66.8213, 30.5499)" fill="none">
    <path id="path4187" transform="matrix(1.54651 0 0 0.965127 -2.30926e-13 8.88178e-15)" fill="#eeeeee" d="M19.1953 38.6016L19.1953 94.0781C19.1953 97.9219 18.2812 100.828 16.4531 102.797C14.625 104.766 12.3047 105.75 9.49218 105.75C6.67967 105.75 4.38279 104.742 2.60156 102.727C0.86717 100.711 -9.99991e-06 97.8281 8.66294e-11 94.0781L8.66294e-11 39.1641C-9.99991e-06 35.3673 0.86717 32.5079 2.60156 30.5859C4.38279 28.6641 6.67967 27.7032 9.49218 27.7031C12.3047 27.7032 14.625 28.6641 16.4531 30.5859C18.2812 32.5079 19.1953 35.1798 19.1953 38.6016M9.70312 18.7734C7.03123 18.7735 4.73436 17.9532 2.8125 16.3125C0.93748 14.672 -9.99991e-06 12.3517 8.66294e-11 9.35156C-9.99991e-06 6.63291 0.96092 4.40634 2.88281 2.67187C4.85154 0.89072 7.12498 0.0001 9.70312 0C12.1875 0.0001 14.3906 0.79697 16.3125 2.39062C18.2343 3.98447 19.1953 6.30478 19.1953 9.35156C19.1953 12.3048 18.2578 14.6251 16.3828 16.3125C14.5078 17.9532 12.2812 18.7735 9.70312 18.7734"/>
   </g>
   <path id="path4171" transform="matrix(0.758527 0 0 0.758527 5.33866 4.46647)" fill="url(#gradient0)" d="M102.625 0C45.9507 0 0 47.725 0 106.562C0 110.315 0.1979 114.004 0.5625 117.656C50.6291 136.382 127.144 150.025 205.25 107.062C205.251 106.896 205.25 106.73 205.25 106.562C205.25 47.725 159.299 0 102.625 0Z"/>
  </g>
 </g>
</svg>
