<?xml version="1.0" standalone="no"?>
<!DOCTYPE svg PUBLIC "-//W3C//DTD SVG 20010904//EN" "http://www.w3.org/TR/2001/REC-SVG-20010904/DTD/svg10.dtd">
<!-- Created using Karbon, part of Calligra: http://www.calligra.org/karbon -->
<svg xmlns="http://www.w3.org/2000/svg" xmlns:xlink="http://www.w3.org/1999/xlink" width="133.098pt" height="134.778pt">
<defs>
  <linearGradient id="gradient0" gradientTransform="matrix(0.935714 0 0 0.971429 -260.198 309.044)" gradientUnits="objectBoundingBox" x1="1.86062886879" y1="-2.28811738018" x2="1.88918005155" y2="-1.09199169808" spreadMethod="pad">
   <stop stop-color="#edf4fd" offset="0.00000000000" stop-opacity="0.52845044633"/>
   <stop stop-color="#175bb3" offset="1.00000000000" stop-opacity="0.00000000000"/>
  </linearGradient>
 </defs>
<g id="layer1">
  <g id="g5449" transform="translate(-8.40215e-06, -2.8318e-06)" fill="none">
   <path id="path5051" transform="matrix(0.758527 0 0 0.768105 1.05879e-21 0)" fill="#000000" d="M219.336 109.668C219.336 170.236 170.236 219.336 109.668 219.336C49.1001 219.336 0 170.236 0 109.668C0 49.1001 49.1001 0 109.668 0C170.236 0 219.336 49.1001 219.336 109.668Z"/>
   <path id="path5053" transform="matrix(0.709764 0 0 0.736855 5.34768 4.47751)" fill="#000000" d="M219.336 109.668C219.336 170.236 170.236 219.336 109.668 219.336C49.1001 219.336 0 170.236 0 109.668C0 49.1001 49.1001 0 109.668 0C170.236 0 219.336 49.1001 219.336 109.668Z"/>
   <g id="g5152" transform="translate(24.1282, 25.4609)" fill="none">
    <path id="path5092" transform="matrix(0.7132 0 0 0.7132 29.7461 0)" fill="#eeeeee" d="M9.9163 0C4.4218 0 0 4.14395 0 9.293L0 44.7222C0 49.8712 4.4218 54.0153 9.9163 54.0153L73.1505 54.0153C78.645 54.0153 83.0668 49.8712 83.0668 44.7222L83.0668 9.293C83.0668 4.14395 78.645 0 73.1505 0ZM19.0295 8.14427L64.0374 8.14427C69.5318 8.14427 73.9537 12.2882 73.9537 17.4373L73.9537 36.5778C73.9537 41.7269 69.5318 45.8709 64.0374 45.8709L19.0295 45.8709C13.535 45.8709 9.1132 41.7269 9.1132 36.5778L9.1132 17.4373C9.1132 12.2882 13.535 8.14427 19.0295 8.14427Z"/>
    <rect id="rect5098" transform="matrix(0.7132 0 0 0.7132 0 75.1881)" fill="#eeeeee" width="38.99506800000pt" height="30.13255280000pt" rx="11.21705440000pt" ry="11.21705440000pt"/>
    <rect id="rect5114" transform="matrix(0.7132 0 0 0.7132 86.1201 75.9782)" fill="#eeeeee" width="38.99506800000pt" height="30.13255280000pt" rx="11.21705440000pt" ry="11.21705440000pt"/>
    <rect id="rect5116" transform="matrix(0.7132 0 0 0.7132 42.665 75.9782)" fill="#eeeeee" width="38.99506800000pt" height="30.13255280000pt" rx="11.21705440000pt" ry="11.21705440000pt"/>
    <g id="g5138" transform="translate(8.18351, 44.967)" fill="none">
     <rect id="rect5126" transform="matrix(0.7132 0 0 0.7132 48.3081 8.88178e-15)" fill="#eeeeee" width="7.31157528000pt" height="29.91099280000pt"/>
     <rect id="rect5128" transform="matrix(0.7132 0 0 0.7132 91.8912 8.69104)" fill="#eeeeee" width="7.53313824000pt" height="20.16222400000pt"/>
     <rect id="rect5134" transform="matrix(0.7132 0 0 0.7132 0 8.69104)" fill="#eeeeee" width="7.53313824000pt" height="20.16222400000pt"/>
     <rect id="rect5136" transform="matrix(0.7132 0 0 0.7132 -8.88178e-15 8.69104)" fill="#eeeeee" width="110.60805600000pt" height="8.61677440000pt"/>
    </g>
    <rect id="rect5144" transform="matrix(0.7132 0 0 0.7132 42.2636 10.4152)" fill="#eeeeee" width="39.63716160000pt" height="4.23005296000pt"/>
    <rect id="rect5146" transform="matrix(0.7132 0 0 0.7132 42.2636 10.4152)" fill="#eeeeee" width="39.63716160000pt" height="4.23005296000pt"/>
    <rect id="rect5148" transform="matrix(0.7132 0 0 0.7132 42.2636 17.5472)" fill="#eeeeee" width="39.63716160000pt" height="4.23005296000pt"/>
    <rect id="rect5150" transform="matrix(0.7132 0 0 0.7132 42.2636 24.6792)" fill="#eeeeee" width="39.63716160000pt" height="4.23005296000pt"/>
   </g>
   <path id="path5055" transform="matrix(0.758527 0 0 0.758527 5.33866 4.46647)" fill="url(#gradient0)" d="M102.625 0C45.9507 0 0 47.725 0 106.562C0 110.315 0.1979 114.004 0.5625 117.656C50.6291 136.382 127.144 150.025 205.25 107.062C205.251 106.896 205.25 106.73 205.25 106.562C205.25 47.725 159.299 0 102.625 0Z"/>
  </g>
 </g>
</svg>
