<?xml version="1.0" standalone="no"?>
<!DOCTYPE svg PUBLIC "-//W3C//DTD SVG 20010904//EN" "http://www.w3.org/TR/2001/REC-SVG-20010904/DTD/svg10.dtd">
<!-- Created using Karbon, part of Calligra: http://www.calligra.org/karbon -->
<svg xmlns="http://www.w3.org/2000/svg" xmlns:xlink="http://www.w3.org/1999/xlink" width="133.098pt" height="134.778pt">
<defs>
  <linearGradient id="gradient0" gradientTransform="matrix(0.935714 0 0 0.971429 -260.198 309.044)" gradientUnits="objectBoundingBox" x1="1.86062891915" y1="-2.28811733465" x2="1.88918010268" y2="-1.09199167635" spreadMethod="pad">
   <stop stop-color="#edf4fd" offset="0.00000000000" stop-opacity="0.52845044633"/>
   <stop stop-color="#175bb3" offset="1.00000000000" stop-opacity="0.00000000000"/>
  </linearGradient>
 </defs>
<g id="layer1">
  <g id="g5434" transform="translate(-6.50233e-06, 2.52429e-06)" fill="none">
   <path id="path5075" transform="matrix(0.758527 0 0 0.768105 1.05879e-21 0)" fill="#000000" d="M219.336 109.668C219.336 170.236 170.236 219.336 109.668 219.336C49.1001 219.336 0 170.236 0 109.668C0 49.1001 49.1001 0 109.668 0C170.236 0 219.336 49.1001 219.336 109.668Z"/>
   <path id="path5077" transform="matrix(0.709764 0 0 0.736855 5.34768 4.47756)" fill="#000000" stroke="#000000" stroke-width="1.25000000000" stroke-linecap="square" stroke-linejoin="miter" stroke-miterlimit="2.00000000000" d="M219.336 109.668C219.336 170.236 170.236 219.336 109.668 219.336C49.1001 219.336 0 170.236 0 109.668C0 49.1001 49.1001 0 109.668 0C170.236 0 219.336 49.1001 219.336 109.668Z"/>
   <path id="rect5206" transform="matrix(0.758527 0 0 0.758527 28.5135 43.1225)" fill="#eeeeee" d="M12 0C5.352 0 0 5.352 0 12L0 72.5937C0 79.2417 5.352 84.5937 12 84.5937L83.4687 84.5937C92.9385 97.8632 117.244 131.838 117.469 130.938C117.697 130.027 118.047 97.894 118.188 84.5937L129 84.5937C135.648 84.5937 141 79.2417 141 72.5937L141 12C141 5.352 135.648 1.13687e-13 129 1.13687e-13ZM29.8125 25.2812C31.4969 25.2813 33.0089 25.5233 34.3437 26C35.6946 26.4768 36.7976 27.1045 37.6875 27.9063C38.5932 28.7081 39.2892 29.6186 39.75 30.5937C40.2268 31.5689 40.4687 32.5057 40.4687 33.4375C40.4687 34.456 40.1959 35.2874 39.6875 35.9375C39.1948 36.5876 38.4842 36.9063 37.5625 36.9062C36.8951 36.9063 36.3205 36.6451 35.8437 36.125C35.383 35.6049 34.8537 34.8527 34.25 33.8125C33.7573 32.9457 33.1984 32.2388 32.5313 31.7187C31.8637 31.1987 30.9566 30.9375 29.8125 30.9375C28.6366 30.9375 27.6536 31.2753 26.875 31.9687C26.0963 32.6405 25.7187 33.4815 25.7187 34.5C25.7187 35.4318 25.9904 36.2057 26.5625 36.8125C27.1345 37.3976 27.9056 37.8912 28.875 38.2812C29.8444 38.6713 31.1747 39.1553 32.875 39.7187C34.8932 40.3905 36.5412 41.1932 37.8125 42.125C39.0997 43.0568 40.0673 44.1589 40.7187 45.4375C41.3863 46.6944 41.7187 48.1247 41.7187 49.75C41.7187 52.1988 41.2802 54.3072 40.4063 56.0625C39.5322 57.7961 38.2474 59.1211 36.5313 60.0312C34.8308 60.9197 32.7597 61.375 30.3125 61.375C27.9765 61.375 25.9811 60.8814 24.3125 59.9062C22.6439 58.9311 21.3884 57.7019 20.5937 56.25C19.7993 54.7764 19.4063 53.3173 19.4063 51.8437C19.4063 50.8686 19.679 50.0372 20.1875 49.3437C20.696 48.6503 21.3151 48.2813 22.0937 48.2812C22.7773 48.2813 23.322 48.5137 23.6875 48.9687C24.053 49.4238 24.3852 50.0828 24.7187 50.9062C25.3863 52.4882 26.2033 53.6573 27.125 54.4375C28.0625 55.2176 29.3325 55.625 30.9375 55.625C32.2405 55.625 33.2987 55.2176 34.125 54.4375C34.9672 53.6357 35.375 52.7373 35.375 51.7187C35.375 50.1585 34.9364 48.9964 34.0625 48.2812C33.2044 47.5661 31.7988 46.9001 29.8125 46.25C27.5719 45.4915 25.7268 44.6985 24.3125 43.875C22.9141 43.0299 21.811 41.9277 20.9687 40.5625C20.1267 39.1973 19.6875 37.5249 19.6875 35.5312C19.6875 33.7543 20.0964 32.0507 20.875 30.4687C21.6536 28.8868 22.8028 27.6506 24.3125 26.7188C25.838 25.7653 27.6673 25.2813 29.8125 25.2812ZM49.9687 25.2812C50.8587 25.2813 51.5995 25.7078 52.1875 26.5312C52.7912 27.3331 53.0937 28.4448 53.0937 29.875L53.0937 30.7187C54.2221 28.8768 55.4316 27.5231 56.7187 26.6563C58.006 25.7895 59.4268 25.3438 61 25.3438C62.6368 25.3438 64.0429 25.799 65.2187 26.6875C66.3947 27.576 67.3621 28.9201 68.125 30.7187C69.2214 28.8985 70.4007 27.5544 71.6563 26.6875C72.9115 25.799 74.3182 25.3438 75.8437 25.3438C77.6236 25.3438 79.1503 25.8278 80.4375 26.7812C81.7247 27.7348 82.6768 29.098 83.3125 30.875C83.8686 32.4786 84.1561 34.9919 84.1563 38.4375L84.1563 55.7812C84.156 57.6449 83.8385 59.0369 83.2187 59.9687C82.5991 60.9006 81.7982 61.375 80.7813 61.375C79.7959 61.375 78.9794 60.9006 78.3437 59.9687C77.7241 59.0152 77.4063 57.6232 77.4063 55.7812L77.4063 40.8437C77.4063 38.9368 77.3463 37.4298 77.2187 36.2812C77.1078 35.1327 76.7744 34.1551 76.25 33.375C75.7256 32.5949 74.9397 32.2188 73.875 32.2187C73.0169 32.2188 72.2161 32.5566 71.4375 33.25C70.6747 33.9435 70.0541 34.8611 69.625 36.0312C69.1483 37.5265 68.9063 40.1764 68.9063 43.9687L68.9063 55.7812C68.9063 57.6449 68.6197 59.0369 68 59.9687C67.3802 60.9006 66.5482 61.375 65.5313 61.375C64.5459 61.375 63.7447 60.9006 63.125 59.9687C62.5211 59.0369 62.2187 57.6449 62.2187 55.7812L62.2187 41.625C62.2187 39.3929 62.1737 37.6727 62.0625 36.4375C61.9514 35.2023 61.6487 34.1864 61.1563 33.4062C60.6636 32.6045 59.8772 32.2188 58.8125 32.2187C56.6831 32.2188 55.2772 33.1938 54.5937 35.1875C53.9264 37.1812 53.5937 40.0539 53.5937 43.7812L53.5937 55.7812C53.5937 57.6232 53.2759 59.0152 52.6563 59.9687C52.0523 60.9006 51.2511 61.375 50.25 61.375C49.2648 61.375 48.4482 60.9006 47.8125 59.9687C47.1928 59.0152 46.9061 57.6232 46.9063 55.7812L46.9063 30.375C46.9063 28.7064 47.1627 27.4606 47.7187 26.5937C48.291 25.727 49.0471 25.2813 49.9687 25.2812ZM99.5 25.2812C101.184 25.2813 102.697 25.5233 104.031 26C105.382 26.4768 106.516 27.1045 107.406 27.9063C108.312 28.7081 108.977 29.6186 109.438 30.5937C109.914 31.5689 110.156 32.5057 110.156 33.4375C110.156 34.456 109.915 35.2874 109.406 35.9375C108.914 36.5876 108.203 36.9063 107.281 36.9062C106.614 36.9063 106.039 36.6451 105.562 36.125C105.102 35.6049 104.573 34.8527 103.969 33.8125C103.476 32.9457 102.886 32.2388 102.219 31.7187C101.551 31.1987 100.644 30.9375 99.5 30.9375C98.324 30.9375 97.3412 31.2753 96.5625 31.9687C95.7839 32.6405 95.4062 33.4815 95.4063 34.5C95.4063 35.4318 95.678 36.2057 96.25 36.8125C96.8221 37.3976 97.5931 37.8912 98.5625 38.2812C99.5318 38.6713 100.862 39.1553 102.562 39.7187C104.581 40.3905 106.229 41.1932 107.5 42.125C108.787 43.0568 109.755 44.1589 110.406 45.4375C111.074 46.6944 111.406 48.1247 111.406 49.75C111.406 52.1988 110.968 54.3072 110.094 56.0625C109.22 57.7961 107.935 59.1211 106.219 60.0312C104.519 60.9197 102.447 61.375 100 61.375C97.6641 61.375 95.6686 60.8814 94 59.9062C92.3314 58.9311 91.1071 57.7019 90.3125 56.25C89.518 54.7764 89.0938 53.3173 89.0937 51.8437C89.0937 50.8686 89.3665 50.0372 89.875 49.3437C90.3834 48.6503 91.0339 48.2813 91.8125 48.2812C92.4958 48.2813 93.0095 48.5137 93.375 48.9687C93.7404 49.4238 94.1038 50.0828 94.4375 50.9062C95.1049 52.4882 95.8907 53.6573 96.8125 54.4375C97.75 55.2176 99.0199 55.625 100.625 55.625C101.928 55.625 102.986 55.2176 103.813 54.4375C104.655 53.6357 105.094 52.7373 105.094 51.7187C105.094 50.1585 104.655 48.9964 103.781 48.2812C102.923 47.5661 101.486 46.9001 99.5 46.25C97.2593 45.4915 95.4456 44.6985 94.0313 43.875C92.6329 43.0299 91.4985 41.9277 90.6563 40.5625C89.814 39.1973 89.4063 37.5249 89.4063 35.5312C89.4063 33.7543 89.7839 32.0507 90.5625 30.4687C91.3411 28.8868 92.4903 27.6506 94 26.7188C95.5255 25.7653 97.3548 25.2813 99.5 25.2812Z"/>
   <path id="path5079" transform="matrix(0.758527 0 0 0.758527 5.33866 4.46648)" fill="url(#gradient0)" d="M102.625 0C45.9507 0 0 47.725 0 106.562C0 110.315 0.1979 114.004 0.5625 117.656C50.6291 136.382 127.144 150.025 205.25 107.062C205.251 106.896 205.25 106.73 205.25 106.562C205.25 47.725 159.299 0 102.625 0Z"/>
  </g>
 </g>
</svg>
