<?xml version="1.0" standalone="no"?>
<!DOCTYPE svg PUBLIC "-//W3C//DTD SVG 20010904//EN" "http://www.w3.org/TR/2001/REC-SVG-20010904/DTD/svg10.dtd">
<!-- Created using Karbon, part of Calligra: http://www.calligra.org/karbon -->
<svg xmlns="http://www.w3.org/2000/svg" xmlns:xlink="http://www.w3.org/1999/xlink" width="133.098pt" height="134.778pt">
<defs>
  <linearGradient id="gradient0" gradientTransform="matrix(0.935714 0 0 0.971429 -260.198 309.044)" gradientUnits="objectBoundingBox" x1="1.86062897958" y1="-2.28811733465" x2="1.88918016404" y2="-1.09199167635" spreadMethod="pad">
   <stop stop-color="#edf4fd" offset="0.00000000000" stop-opacity="0.52845044633"/>
   <stop stop-color="#175bb3" offset="1.00000000000" stop-opacity="0.00000000000"/>
  </linearGradient>
 </defs>
<g id="layer1">
  <g id="g5228" transform="translate(7.95475e-07, 1.12198e-05)" fill="none">
   <path id="path4227" transform="matrix(0.758527 0 0 0.768105 0 0)" fill="#000000" d="M219.336 109.668C219.336 170.236 170.236 219.336 109.668 219.336C49.1001 219.336 0 170.236 0 109.668C0 49.1001 49.1001 0 109.668 0C170.236 0 219.336 49.1001 219.336 109.668Z"/>
   <path id="path4229" transform="matrix(0.709764 0 0 0.736855 5.34768 4.47748)" fill="#000000" d="M219.336 109.668C219.336 170.236 170.236 219.336 109.668 219.336C49.1001 219.336 0 170.236 0 109.668C0 49.1001 49.1001 0 109.668 0C170.236 0 219.336 49.1001 219.336 109.668Z"/>
   <g id="g5179" transform="translate(32.168, 32.4772)" fill="none">
    <path id="rect5085" transform="matrix(0.758527 0 0 0.758527 5.76033 -8.88178e-15)" fill="#eeeeee" d="M14.0643 1.13687e-13C6.27157 1.13687e-13 0 6.74806 0 15.1328L0 72.8262C0 81.211 6.27157 87.959 14.0643 87.959L103.749 87.959C111.542 87.959 117.814 81.211 117.814 72.8262L117.814 15.1328C117.814 6.74806 111.542 0 103.749 0ZM26.9895 13.2622L90.8242 13.2622C98.6169 13.2622 104.889 20.0103 104.889 28.3951L104.889 59.5638C104.889 67.9486 98.6169 74.6968 90.8242 74.6968L26.9895 74.6968C19.1968 74.6968 12.9252 67.9486 12.9252 59.5638L12.9252 28.3951C12.9252 20.0103 19.1968 13.2622 26.9895 13.2622Z"/>
    <path id="rect5167" transform="matrix(0.758527 0 0 0.758527 -4.44089e-15 73.5695)" fill="#eeeeee" d="M5 0C2.23 0 0 2.23 0 5L0 31.125C0 33.895 2.23 36.125 5 36.125L127.938 36.125C130.708 36.125 132.938 33.895 132.938 31.125L132.938 5C132.938 2.23 130.708 0 127.938 0ZM15.375 9C19.5823 9 22.9688 12.0823 22.9688 15.9062C22.9688 19.7302 19.5823 22.8438 15.375 22.8438C11.1677 22.8438 7.75 19.7302 7.75 15.9062C7.75 12.0823 11.1677 9 15.375 9ZM78.0938 9.53125L118.5 9.53125C121.27 9.53125 123.5 11.7613 123.5 14.5312L123.5 16.1875C123.5 18.9575 121.27 21.1875 118.5 21.1875L78.0938 21.1875C75.3237 21.1875 73.0938 18.9575 73.0938 16.1875L73.0938 14.5312C73.0938 11.7613 75.3237 9.53125 78.0938 9.53125Z"/>
   </g>
   <path id="path4231" transform="matrix(0.758527 0 0 0.758527 5.33866 4.46648)" fill="url(#gradient0)" d="M102.625 0C45.9507 0 0 47.725 0 106.563C0 110.315 0.1979 114.004 0.5625 117.656C50.6291 136.382 127.144 150.025 205.25 107.063C205.251 106.896 205.25 106.73 205.25 106.563C205.25 47.725 159.299 1.13687e-13 102.625 0Z"/>
  </g>
 </g>
</svg>
