<?xml version="1.0" encoding="UTF-8" standalone="no"?>
<svg xmlns="http://www.w3.org/2000/svg" height="32" width="32" version="1.1" viewBox="0 0 32 32">
 <path style="block-progression:tb;color:#000000;text-transform:none;text-indent:0" d="m8.24 4.42c-2.2265 0-4.1153 1.6283-4.1153 3.7296 0.0158 0.66417 0.0752 1.4832 0.47155 3.2152v0.0429l0.0429 0.0429c0.12723 0.36445 0.31239 0.57294 0.55728 0.85739 0.24489 0.28444 0.53685 0.61924 0.81448 0.90025 0.0327 0.0331 0.0536 0.0535 0.0857 0.0858 0.0551 0.23961 0.12176 0.49747 0.17147 0.72878 0.13227 0.61541 0.11871 1.0512 0.0857 1.2003-0.95674 0.33594-2.147 0.73601-3.2151 1.2003-0.59962 0.26069-1.1422 0.49348-1.5861 0.77165-0.44388 0.27818-0.88534 0.48834-1.0288 1.1146-0.002 0.0285-0.002 0.0572 0 0.0858-0.1402 1.2874-0.35229 3.1806-0.51441 4.4584-0.035 0.26898 0.10676 0.55252 0.34294 0.68591 1.9392 1.0475 4.9181 1.4691 7.8876 1.4576 2.9695-0.0116 5.9247-0.45797 7.8019-1.4576 0.23617-0.13338 0.37794-0.41693 0.34294-0.68591-0.0518-0.39943-0.11534-1.3001-0.17147-2.1863-0.0561-0.88623-0.10486-1.758-0.17147-2.2721-0.0232-0.12744-0.0835-0.2479-0.17147-0.34295-0.59633-0.71211-1.4873-1.1474-2.5292-1.5862-0.95121-0.40054-2.0664-0.81649-3.1722-1.2861-0.0619-0.13788-0.12337-0.53903 0-1.1575 0.0331-0.16606 0.085-0.34392 0.12861-0.51443 0.10392-0.1164 0.18492-0.21152 0.30007-0.34296 0.2456-0.28032 0.50949-0.57438 0.72875-0.85738 0.21926-0.28301 0.39864-0.52579 0.51441-0.85739l0.0429-0.0429c0.44807-1.8085 0.44831-2.5631 0.47155-3.2152v-0.0429c0-2.1013-1.8888-3.7296-4.1153-3.7296zm11.772-3.4224c-3.2461 0-5.9999 2.3739-5.9999 5.4374 0.023 0.9683 0.10964 2.1624 0.68749 4.6874v0.0625l0.0625 0.0625c0.1855 0.53134 0.45545 0.83529 0.81249 1.25 0.35704 0.4147 0.7827 0.90279 1.1875 1.3125 0.0476 0.0482 0.0781 0.0781 0.12499 0.12502 0.0803 0.34932 0.17752 0.72527 0.25 1.0625 0.19284 0.8972 0.17306 1.5326 0.12501 1.75-1.3949 0.48977-3.1303 1.073-4.6874 1.75-0.87422 0.38005-1.6653 0.71943-2.3125 1.125-0.64717 0.40555-1.2908 0.71195-1.5 1.625-0.003 0.0416-0.003 0.0834 0 0.12502-0.20442 1.8769-0.51363 4.637-0.74999 6.4999-0.051 0.39215 0.15566 0.80553 0.49999 0.99999 2.8273 1.5272 7.1704 2.1419 11.5 2.125 4.3294-0.0168 8.6379-0.66766 11.375-2.125 0.34433-0.19446 0.55102-0.60784 0.49999-0.99999-0.0755-0.58232-0.16816-1.8954-0.25-3.1875-0.0818-1.292-0.15288-2.563-0.24998-3.3125-0.0339-0.18578-0.12172-0.36141-0.25-0.49999-0.86942-1.0382-2.1684-1.6728-3.6875-2.3125-1.3868-0.58395-3.0127-1.1904-4.6249-1.875-0.0902-0.20102-0.17988-0.78586 0-1.6875 0.0483-0.2421 0.12394-0.50141 0.1875-0.74999 0.15152-0.1697 0.26961-0.30838 0.4375-0.5 0.35807-0.40868 0.74281-0.83739 1.0625-1.25 0.31967-0.41259 0.58121-0.76654 0.74999-1.25l0.0625-0.0625c0.65328-2.6366 0.65362-3.7367 0.6875-4.6874v-0.0625c0-3.0635-2.7538-5.4374-5.9999-5.4374z" />
</svg>
