<?xml version="1.0" ?><svg enable-background="new 0 0 32 32" version="1.1" viewBox="0 0 32 32" xml:space="preserve" xmlns="http://www.w3.org/2000/svg" xmlns:xlink="http://www.w3.org/1999/xlink"><g id="Flat_copy"><g><path d="M29.458,22.818V22.6c-2.624-1.399-4.049-3.454-4.049-6.427c0-2.404,1.068-4.504,3.025-5.858l0.089-0.044    c-1.29-1.573-3.025-3.146-5.695-3.146c-1.868,0-3.426,1.792-6.006,1.792c-2.046,0-2.892-1.705-5.117-1.705    c-4.627,0-9.209,4.066-9.209,9.355c0,2.798,0.934,7.127,3.025,10.887C7.036,30.208,8.904,32,10.995,32    c1.512,0,3.292-1.355,5.428-1.355c1.868,0,3.605,1.225,5.294,1.225c4.05,0,7.786-5.159,7.786-8.611    C29.503,23.081,29.458,22.95,29.458,22.818z"/><path d="M16.73,8.35c3.025-0.918,5.829-3.148,5.829-7.039c0-0.306-0.044-0.699-0.089-1.136L22.426,0    c-3.069,0.829-5.828,3.19-5.828,6.907c0,0.35,0.045,0.787,0.133,1.268L16.73,8.35L16.73,8.35z"/></g></g></svg>