<?xml version="1.0" ?><svg xmlns="http://www.w3.org/2000/svg" xmlns:xlink="http://www.w3.org/1999/xlink" enable-background="new 0 0 515.91 728.5" viewBox="0 0 16 16" xml:space="preserve"><defs id="defs7" /><g id="g6625" style="fill:#000000;fill-opacity:1" transform="matrix(0.03125,0,0,0.03125,-4.4348162,-4.4886137)"><path d="m 397.91414,530.64366 c -26.00001,0 -49.66401,-7.008 -71.00801,-20.992 -21.344,-14 -37.344,-32 -48,-54 L 173.91412,271.63565 c -22,39.344 -32,83.344 -32,128.00001 0,64 20.832,119.84 62.496,167.50401 41.66401,47.664 93.50401,76.16 155.50401,85.504 l 74.25601,-128.49601 c -7.472,2.192 -19.936,6.496 -36.256,6.496 z" id="path5-5" style="fill:#000000;fill-opacity:1" /><path d="m 317.41813,296.13165 c 23.648,-18.32 50.496,-24.496 80.49601,-24.496 4,0 220.00001,0 220.00001,0 -22.672,-38.656 -53.504,-71.32801 -92.49601,-94.00001 -39.008,-22.656 -81.504,-34 -127.504,-34 -40.00001,0 -77.34401,8.496 -112.00001,25.504 -34.672,16.992 -66.75201,41.744 -90.25601,73.50401 l 74.25601,124.992 c 7.328,-28.656 23.824,-53.152 47.504,-71.504 z" id="path7-1" style="fill:#000000;fill-opacity:1" /><path d="M 634.66615,303.63565 H 485.91414 c 26,26 43.008,59.344 43.008,96.00001 0,27.344 -7.664,52.336 -23.008,75.008 l -104.992,180.99201 c 70,-0.672 129.664,-26 179.00801,-76 49.312,-50.00001 73.984,-110.00001 73.984,-180.00001 0,-32.65601 -5.504,-67.00801 -19.248,-96.00001 z" id="path9-7" style="fill:#000000;fill-opacity:1" /><circle cx="16" cy="16" id="circle11" r="6" style="fill:#000000;fill-opacity:1" transform="matrix(16.000001,0,0,16.000001,141.91412,143.63564)" /></g></svg>