<?xml version="1.0" ?><svg enable-background="new 0 0 32 32" version="1.1" viewBox="0 0 32 32" xml:space="preserve" xmlns="http://www.w3.org/2000/svg" xmlns:xlink="http://www.w3.org/1999/xlink"><g id="Flat_copy"><g><path d="M11.456,18.421v0.064c0,1.051,0.24,2.061,0.725,3.023c0.569,1.008,1.35,1.807,2.337,2.398    c0.987,0.59,2.085,0.886,3.292,0.886c1.207,0,2.306-0.296,3.294-0.886c0.986-0.592,1.766-1.391,2.336-2.398h7.837    c-1.011,2.848-2.766,5.181-5.267,6.997c-2.503,1.818-5.313,2.727-8.429,2.727c-2.326,0-4.521-0.503-6.584-1.512    c-4.609,2.235-7.924,2.344-9.943,0.329C0.35,29.395,0,28.299,0,26.765c0-1.533,0.296-3.242,0.889-5.125    c0.592-1.883,1.58-3.954,2.963-6.21c1.382-2.256,3.017-4.304,4.904-6.144c1.098-1.14,1.8-1.841,2.106-2.103    c-2.722,1.313-5.18,3.352-7.373,6.11c0.789-3.197,2.491-5.826,5.102-7.886c2.611-2.059,5.608-3.088,8.988-3.088    c0.351,0,0.701,0.022,1.052,0.065c2.459-1.096,4.697-1.708,6.717-1.84c2.019-0.132,3.445,0.197,4.279,0.985    c1.668,1.709,1.822,4.381,0.461,8.017c1.273,2.238,1.91,4.648,1.91,7.232c0,0.613-0.022,1.161-0.065,1.644h-7.771L11.456,18.421    L11.456,18.421z M10.075,29.199c-2.94-1.796-5.005-4.314-6.191-7.558c-1.975,3.856-2.238,6.506-0.79,7.952    C4.367,30.863,6.693,30.731,10.075,29.199z M23.638,14.611c-0.088-1.578-0.724-2.924-1.909-4.042    c-1.186-1.117-2.579-1.676-4.181-1.676c-1.604,0-2.996,0.559-4.181,1.676c-1.187,1.118-1.823,2.464-1.911,4.042H23.638z     M22.914,3.373c2.808,1.139,5.047,2.978,6.715,5.52c1.01-2.716,0.965-4.621-0.131-5.718C28.312,1.95,26.117,2.016,22.914,3.373z"/></g></g></svg>