<?xml version="1.0" ?><!DOCTYPE svg  PUBLIC '-//W3C//DTD SVG 1.1//EN'  'http://www.w3.org/Graphics/SVG/1.1/DTD/svg11.dtd'><svg enable-background="new 0 0 57 82" height="82px" id="Layer_1" version="1.1" viewBox="0 0 57 82" width="57px" xml:space="preserve" xmlns="http://www.w3.org/2000/svg" xmlns:xlink="http://www.w3.org/1999/xlink"><path d="M53,0H4C1.791,0,0,1.791,0,4v74c0,2.209,1.791,4,4,4h49c2.209,0,4-1.791,4-4V4C57,1.791,55.209,0,53,0z   M28,79c-2.209,0-4-1.791-4-4s1.791-4,4-4c2.209,0,4,1.791,4,4S30.209,79,28,79z M51,70H6V11h45V70z" fill="#231F20"/></svg>