<?xml version="1.0" encoding="UTF-8" standalone="no"?>
<svg xmlns="http://www.w3.org/2000/svg" height="32" width="32" version="1.0" viewBox="0 0 32 32">
<path fill="#fff" d="m12.372 1.9224-9.614 0.02632c-0.54322 0-0.69312 0.41974-0.69406 0.69208l-0.030264 9.6034 17.446 17.444c0.39376 0.39658 1.0247 0.39394 1.4184 0l8.9138-8.9138c0.39344-0.39376 0.3979-1.0265 0.004-1.4205l-0.0022 0.01752-16.734-16.734-0.7082-0.70834zm-4.3336 3.7044a2.2876 2.2876 0 0 1 2.2876 2.288 2.2876 2.2876 0 0 1 -2.2876 2.2882 2.2876 2.2876 0 0 1 -2.288 -2.2882 2.2876 2.2876 0 0 1 2.288 -2.288z"/>
</svg>
