<svg viewBox="0 0 32 32" height="32" width="32" xmlns="http://www.w3.org/2000/svg" xml:space="preserve" style="fill-rule:evenodd;clip-rule:evenodd;stroke-linejoin:round;stroke-miterlimit:2"><path d="m21.075 14.025-7.025 7.05a1.716 1.716 0 0 1-.6.4 1.874 1.874 0 0 1-1.35 0 1.716 1.716 0 0 1-.6-.4l-8.582-8.582a1.695 1.695 0 0 1-.393-.59 1.867 1.867 0 0 1-.125-.678V4.2c0-.495.176-.919.529-1.271A1.73 1.73 0 0 1 4.2 2.4h7.025c.232 0 .457.042.674.125.217.083.415.214.594.393l8.582 8.582c.183.183.317.379.4.587.083.209.125.43.125.663 0 .233-.042.459-.125.677a1.687 1.687 0 0 1-.4.598ZM6.6 8.1c.417 0 .771-.146 1.063-.438.291-.291.437-.645.437-1.062a1.45 1.45 0 0 0-.437-1.063A1.45 1.45 0 0 0 6.6 5.1c-.417 0-.771.146-1.062.437A1.447 1.447 0 0 0 5.1 6.6c0 .417.146.771.438 1.062.291.292.645.438 1.062.438Z" style="fill:#fff;fill-rule:nonzero" transform="translate(-1.503 -1.503) scale(1.45963)"/></svg>