<svg xmlns="http://www.w3.org/2000/svg" height="16" width="16" version="1"><path color="#000" fill="none" d="M-62.897-32.993h163.31v97.986h-163.31z"/><path style="text-decoration-color:#000;isolation:auto;mix-blend-mode:normal;block-progression:tb;text-decoration-line:none;text-decoration-style:solid;text-indent:0;text-transform:none" d="M8 0C3.594 0 0 3.594 0 8c0 4.406 3.594 8 8 8 4.406 0 8-3.594 8-8 0-4.406-3.594-8-8-8zm0 2c3.326 0 6 2.674 6 6s-2.674 6-6 6-6-2.674-6-6 2.674-6 6-6zm-.44.932a.617.617 0 0 0-.605.613l-.852 4.44V8C5.92 8.755 6.44 9 7.02 9.352h.005l2.998 1.58c.653.502 1.407-.476.754-.98L9 8.01V8l-.81-4.45a.617.617 0 0 0-.63-.618z" color="#000" white-space="normal"/></svg>