<svg width="16" height="16" version="1.1" viewBox="0 0 16 16" xmlns="http://www.w3.org/2000/svg"><path d="m12.5 1a2.5 2.5 0 0 0-2.5 2.5 2.5 2.5 0 0 0 0.003906 0.12891l-4.9023 2.4512a2.5 2.5 0 0 0-1.6016-0.58008 2.5 2.5 0 0 0-2.5 2.5 2.5 2.5 0 0 0 2.5 2.5 2.5 2.5 0 0 0 0.30469-0.021484l3.4395-1.7246-1.25-0.625a2.5 2.5 0 0 0 0.0058594-0.12891 2.5 2.5 0 0 0-0.0039062-0.12891l4.9023-2.4512a2.5 2.5 0 0 0 1.6016 0.58008 2.5 2.5 0 0 0 0.26562-0.013672l1.5625-0.7832a2.5 2.5 0 0 0 0.67188-1.7031 2.5 2.5 0 0 0-2.5-2.5zm0.25391 9.0156-3.7246 1.8672 0.97656 0.48828a2.5 2.5 0 0 0-0.005859 0.12891 2.5 2.5 0 0 0 2.5 2.5 2.5 2.5 0 0 0 2.5-2.5 2.5 2.5 0 0 0-2.2461-2.4844z"/><rect transform="rotate(-26.63)" x="-1.0586" y="11.891" width="11.687" height="2.0029" ry="0" style="paint-order:normal"/></svg>
