<svg xmlns="http://www.w3.org/2000/svg" height="16" width="16" version="1" viewBox="0 0 16 16"><path color="#000" fill="none" d="M-62.897-32.993h163.31v97.986h-163.31z"/><path style="block-progression:tb;text-transform:none;text-indent:0" fill="#fff" d="M8.404 1c-1.732 0-3.2 1.266-3.2 2.9.012.516.058 1.153.366 2.5v.033l.034.034c.1.283.243.445.433.666s.417.482.633.7l.067.067c.043.186.095.387.133.567.103.478.093.817.067.933-.744.26-1.67.572-2.5.933-.466.203-.888.384-1.233.6-.345.217-.688.38-.8.867-.16.633-.2.754-.4 1.533-.027.21.083.43.267.534C3.78 14.68 6.096 15.01 8.405 15s4.606-.356 6.066-1.133c.117-.074.143-.11.133-.234-.043-.69-.08-1.367-.133-1.766a.537.537 0 0 0-.133-.267c-.464-.554-1.157-.892-1.967-1.233-.74-.312-1.607-.635-2.466-1-.05-.107-.096-.42 0-.9.025-.13.066-.268.1-.4.08-.09.143-.165.233-.267.19-.218.396-.447.566-.667s.31-.408.4-.666l.034-.034c.348-1.406.348-1.992.366-2.5V3.9c0-1.634-1.468-2.9-3.2-2.9z" color="#000"/></svg>