<svg xmlns="http://www.w3.org/2000/svg" width="16" height="16"><g stroke-linejoin="round"><path fill="none" stroke="#fff" stroke-width="2.16696042" d="M2.18 1.25a.628.628 0 0 0-.453.188.635.635 0 0 0-.188.453v8.18c0 .171.066.332.188.453a.635.635 0 0 0 .453.187h7.718a.642.642 0 0 0 .641-.64V1.89a.642.642 0 0 0-.64-.64z"/><path fill="#fff" fill-rule="evenodd" stroke="#000" stroke-width=".83334375" d="M2.18 1.25a.628.628 0 0 0-.453.188.635.635 0 0 0-.188.453v8.18c0 .171.066.332.188.453a.635.635 0 0 0 .453.187h7.718a.642.642 0 0 0 .641-.64V1.89a.642.642 0 0 0-.64-.64z"/><path fill="none" stroke="#fff" stroke-width="2.16696042" d="M6.102 5.29a.642.642 0 0 0-.641.64v8.18a.642.642 0 0 0 .64.64h7.72a.628.628 0 0 0 .453-.187.635.635 0 0 0 .187-.453V5.93a.635.635 0 0 0-.187-.453.628.628 0 0 0-.454-.188z"/><path fill="#fff" fill-rule="evenodd" stroke="#000" stroke-width=".83334375" d="M6.102 5.29a.642.642 0 0 0-.641.64v8.18a.642.642 0 0 0 .64.64h7.72a.628.628 0 0 0 .453-.187.635.635 0 0 0 .187-.453V5.93a.635.635 0 0 0-.187-.453.628.628 0 0 0-.454-.188z"/><path fill="none" stroke="#fff" stroke-linecap="round" stroke-width="2.1666937500000003" d="M3.32 5.762c.621 5.472 5.375 5.105 5.68 5.074v1.64l2.395-2.37L9 7.737v1.617c-.36.043-3.715.38-5.68-3.597zm0 0"/><path fill-rule="evenodd" stroke="#000" stroke-linecap="round" stroke-width=".83334375" d="M3.32 5.762c.621 5.472 5.375 5.105 5.68 5.074v1.64l2.395-2.37L9 7.737v1.617c-.36.043-3.715.38-5.68-3.597zm0 0"/></g></svg>
