<svg xmlns="http://www.w3.org/2000/svg" viewBox="0 0 60 60" version="1"><path d="M8.172 4.685A2.4 2.4 0 0 0 5.767 7.09v30.675a2.4 2.4 0 0 0 2.405 2.404h28.944a2.4 2.4 0 0 0 2.404-2.405V7.09a2.4 2.4 0 0 0-2.404-2.405H8.172z" stroke-linejoin="round" stroke="#fff" stroke-width="8.12547063" fill="none"/><path d="M8.172 4.685A2.4 2.4 0 0 0 5.767 7.09v30.675a2.4 2.4 0 0 0 2.405 2.404h28.944a2.4 2.4 0 0 0 2.404-2.405V7.09a2.4 2.4 0 0 0-2.404-2.405H8.172z" stroke-linejoin="round" fill-rule="evenodd" stroke="#000" stroke-width="3.1254052800000003" fill="#fff"/><path d="M22.884 19.83a2.4 2.4 0 0 0-2.404 2.406V52.91a2.4 2.4 0 0 0 2.404 2.405h28.944a2.4 2.4 0 0 0 2.406-2.404V22.237a2.4 2.4 0 0 0-2.406-2.406H22.884z" stroke-linejoin="round" stroke="#fff" stroke-width="8.12547063" fill="none"/><path d="M22.884 19.83a2.4 2.4 0 0 0-2.404 2.406V52.91a2.4 2.4 0 0 0 2.404 2.405h28.944a2.4 2.4 0 0 0 2.406-2.404V22.237a2.4 2.4 0 0 0-2.406-2.406H22.884z" stroke-linejoin="round" fill-rule="evenodd" stroke="#000" stroke-width="3.1254052800000003" fill="#fff"/><path d="M12.457 21.6c2.325 20.528 20.15 19.15 21.296 19.042v6.14l8.98-8.89-8.98-8.87v6.066c-1.348.16-13.94 1.422-21.296-13.49z" stroke-linejoin="round" stroke="#fff" stroke-linecap="round" stroke-width="8.125" fill="none"/><path d="M12.457 21.6c2.325 20.528 20.15 19.15 21.296 19.042v6.14l8.98-8.89-8.98-8.87v6.066c-1.348.16-13.94 1.422-21.296-13.49z" stroke-linejoin="round" fill-rule="evenodd" stroke="#000" stroke-linecap="round" stroke-width="3.125"/></svg>