<svg xmlns="http://www.w3.org/2000/svg" xml:space="preserve" style="fill-rule:evenodd;clip-rule:evenodd;stroke-linejoin:round;stroke-miterlimit:2" viewBox="0 0 20 20" height="20" width="20"><path d="M360-240c-22 0-40.833-7.833-56.5-23.5C287.833-279.167 280-298 280-320v-480c0-22 7.833-40.833 23.5-56.5C319.167-872.167 338-880 360-880h360c22 0 40.833 7.833 56.5 23.5C792.167-840.833 800-822 800-800v480c0 22-7.833 40.833-23.5 56.5C760.833-247.833 742-240 720-240H360Zm0-80h360v-480H360v480ZM200-80c-22 0-40.833-7.833-56.5-23.5C127.833-119.167 120-138 120-160v-560h80v560h440v80H200Zm160-240v-480 480Z" style="fill-rule:nonzero" transform="matrix(.02059 0 0 .02059 .53 19.818)"/></svg>