<svg width="16px" height="16px" version="1.1" viewBox="0 0 16 16" xmlns="http://www.w3.org/2000/svg"><g stroke-linejoin="round"><g><path transform="scale(.26667)" d="m8.1738 4.6875c-0.64453 0-1.2598 0.24902-1.6992 0.70312-0.4541 0.4541-0.70312 1.0547-0.70312 1.6992v30.674c0 0.64453 0.24902 1.2451 0.70312 1.6992 0.4541 0.4541 1.0547 0.70312 1.6992 0.70312h28.945c0.62988 0 1.2451-0.24902 1.6992-0.70312 0.4541-0.4541 0.70312-1.0547 0.70312-1.6992v-30.674c0-0.64453-0.24902-1.2451-0.70312-1.6992-0.4541-0.4541-1.0693-0.70312-1.6992-0.70312z" fill="none" stroke="#fff" stroke-width="8.1255"/><path transform="scale(.26667)" d="m8.1738 4.6875c-0.64453 0-1.2598 0.24902-1.6992 0.70312-0.4541 0.4541-0.70312 1.0547-0.70312 1.6992v30.674c0 0.64453 0.24902 1.2451 0.70312 1.6992 0.4541 0.4541 1.0547 0.70312 1.6992 0.70312h28.945c0.62988 0 1.2451-0.24902 1.6992-0.70312 0.4541-0.4541 0.70312-1.0547 0.70312-1.6992v-30.674c0-0.64453-0.24902-1.2451-0.70312-1.6992-0.4541-0.4541-1.0693-0.70312-1.6992-0.70312z" fill="#fff" fill-rule="evenodd" stroke="#000" stroke-width="3.1254"/><path transform="scale(.26667)" d="m22.881 19.834c-0.62988 0-1.2451 0.24902-1.6992 0.70312-0.4541 0.4541-0.70312 1.0547-0.70312 1.6992v30.674c0 0.64453 0.24902 1.2451 0.70312 1.6992 0.4541 0.4541 1.0693 0.70312 1.6992 0.70312h28.945c0.64453 0 1.2598-0.24902 1.6992-0.70312 0.4541-0.4541 0.70312-1.0547 0.70312-1.6992v-30.674c0-0.64453-0.24902-1.2451-0.70312-1.6992-0.43945-0.4541-1.0547-0.70312-1.6992-0.70312z" fill="none" stroke="#fff" stroke-width="8.1255"/><path transform="scale(.26667)" d="m22.881 19.834c-0.62988 0-1.2451 0.24902-1.6992 0.70312-0.4541 0.4541-0.70312 1.0547-0.70312 1.6992v30.674c0 0.64453 0.24902 1.2451 0.70312 1.6992 0.4541 0.4541 1.0693 0.70312 1.6992 0.70312h28.945c0.64453 0 1.2598-0.24902 1.6992-0.70312 0.4541-0.4541 0.70312-1.0547 0.70312-1.6992v-30.674c0-0.64453-0.24902-1.2451-0.70312-1.6992-0.43945-0.4541-1.0547-0.70312-1.6992-0.70312z" fill="#fff" fill-rule="evenodd" stroke="#000" stroke-width="3.1254"/></g><path transform="scale(.26667)" d="m12.451 21.606c2.3291 20.522 20.156 19.146 21.299 19.028v6.1523l8.9795-8.8916-8.9795-8.877v6.0645c-1.3477 0.16113-13.931 1.4209-21.299-13.491zm0 0" fill="none" stroke="#fff" stroke-linecap="round" stroke-width="8.125"/><path transform="scale(.26667)" d="m12.451 21.606c2.3291 20.522 20.156 19.146 21.299 19.028v6.1523l8.9795-8.8916-8.9795-8.877v6.0645c-1.3477 0.16113-13.931 1.4209-21.299-13.491zm0 0" fill-rule="evenodd" stroke="#000" stroke-linecap="round" stroke-width="3.125"/></g></svg>
