<?xml version="1.0" encoding="UTF-8" standalone="no"?>
<!-- Created using Karbon, part of Calligra: http://www.calligra.org/karbon -->

<svg
   xmlns:dc="http://purl.org/dc/elements/1.1/"
   xmlns:cc="http://creativecommons.org/ns#"
   xmlns:rdf="http://www.w3.org/1999/02/22-rdf-syntax-ns#"
   xmlns:svg="http://www.w3.org/2000/svg"
   xmlns="http://www.w3.org/2000/svg"
   xmlns:sodipodi="http://sodipodi.sourceforge.net/DTD/sodipodi-0.dtd"
   xmlns:inkscape="http://www.inkscape.org/namespaces/inkscape"
   width="119.308pt"
   height="121.472pt"
   id="svg2"
   version="1.1"
   inkscape:version="0.48.2 r9819"
   sodipodi:docname="recycle_arrows.svg">
  <title
     id="title2987">recycle</title>
  <metadata
     id="metadata10">
    <rdf:RDF>
      <cc:Work
         rdf:about="">
        <dc:format>image/svg+xml</dc:format>
        <dc:type
           rdf:resource="http://purl.org/dc/dcmitype/StillImage" />
        <dc:title>recycle</dc:title>
        <cc:license
           rdf:resource="http://creativecommons.org/licenses/by/3.0/" />
        <dc:date>2012</dc:date>
        <dc:creator>
          <cc:Agent>
            <dc:title>Christian Reiner</dc:title>
          </cc:Agent>
        </dc:creator>
        <dc:rights>
          <cc:Agent>
            <dc:title>Copyright 2012: Christian Reiner</dc:title>
          </cc:Agent>
        </dc:rights>
        <dc:description>recycle</dc:description>
      </cc:Work>
      <cc:License
         rdf:about="http://creativecommons.org/licenses/by/3.0/">
        <cc:permits
           rdf:resource="http://creativecommons.org/ns#Reproduction" />
        <cc:permits
           rdf:resource="http://creativecommons.org/ns#Distribution" />
        <cc:requires
           rdf:resource="http://creativecommons.org/ns#Notice" />
        <cc:requires
           rdf:resource="http://creativecommons.org/ns#Attribution" />
        <cc:permits
           rdf:resource="http://creativecommons.org/ns#DerivativeWorks" />
      </cc:License>
    </rdf:RDF>
  </metadata>
  <sodipodi:namedview
     pagecolor="#ffffff"
     bordercolor="#666666"
     borderopacity="1"
     objecttolerance="10"
     gridtolerance="10"
     guidetolerance="10"
     inkscape:pageopacity="0"
     inkscape:pageshadow="2"
     inkscape:window-width="965"
     inkscape:window-height="679"
     id="namedview8"
     showgrid="false"
     inkscape:zoom="1.5542677"
     inkscape:cx="74.567497"
     inkscape:cy="75.919998"
     inkscape:window-x="0"
     inkscape:window-y="0"
     inkscape:window-maximized="0"
     inkscape:current-layer="svg2" />
  <defs
     id="defs4" />
  <g
     id="layer0"
     transform="matrix(-1,0,0,1,149.13468,0)"
     inkscape:export-xdpi="9.6599998"
     inkscape:export-ydpi="9.6599998"
     inkscape:export-filename="/home/arkascha/Downloads/icons/recycle.png">
    <path
       id="path1298"
       d="M 70.8025,151.722 C 37.2549,149.448 11.1077,128.26 2.59247,96.4481 -1.14036,82.5027 -0.820931,65.3241 3.41386,52.2741 10.1512,31.5121 26.9843,13.3207 46.7093,5.48511 82.2059,-8.61567 120.257,5.14042 139.563,39.0531 c 7.34,12.8923 10.355,26.3175 9.4,41.853 -0.76,12.368 -2.629,19.5529 -7.945,30.5419 -3.422,7.074 -5.716,10.094 -13.664,18 -6.689,6.653 -11.649,10.604 -16.551,13.184 -12.0281,6.329 -27.8135,9.916 -40.0005,9.09 z m 4.5,-19.274 0.5,-7.481 5.5,-0.737 c 12.7535,-1.708 24.6295,-7.529 34.4625,-16.892 11.858,-11.2904 18.207,-24.78 19.251,-40.9052 0.739,-11.3966 -0.975,-20.6043 -5.72,-30.7354 C 122.022,20.167 104.421,6.43624 87.9323,3.42918 78.3665,1.68465 61.6527,2.66382 53.3025,5.45794 32.3445,12.4709 14.6307,28.9197 7.32185,48.1551 c -8.71433,22.9342 -5.7724,50.0896 7.63305,70.4559 4.2466,6.452 11.0409,13.477 12.0541,12.464 0.2731,-0.273 -1.1342,-3.139 -3.1273,-6.368 -6.2607,-10.143 -10.5792,-24.58 -10.5792,-35.3665 0,-5.978 2.4851,-18.5157 4.962,-25.0345 6.7044,-17.6444 24.9878,-32.6283 45.6647,-37.4235 3.7707,-0.8745 7.4223,-2.0601 8.1146,-2.6347 0.7686,-0.6379 1.2587,-3.5049 1.2587,-7.3632 0,-3.4751 0.4448,-6.5934 0.9885,-6.9294 1.3812,-0.85363 8.7657,2.5714 15.6814,7.2734 7.1284,4.8465 13.9516,12.0276 19.3896,20.4063 3.307,5.0959 3.997,6.944 3.578,9.5846 -1.425,8.9891 -17.7832,27.9223 -29.4402,34.0753 -3.4665,1.8297 -6.8857,3.1031 -7.5982,2.8297 -0.7624,-0.2926 -1.5662,-3.0878 -1.9535,-6.793 -0.3619,-3.4627 -1.0505,-6.6884 -1.5303,-7.1681 -1.2221,-1.2221 -9.6586,3.2474 -16.2231,8.5948 -9.0772,7.3942 -17.8922,20.3499 -17.8922,26.2968 0,9.067 14.0387,25.185 28.5,32.72 7.3326,3.821 7.9129,3.458 8.5,-5.327 z"
       inkscape:connector-curvature="0"
       style="fill:#010101" />
  </g>
</svg>
