<svg xmlns="http://www.w3.org/2000/svg" width="280.5" height="280.5" viewBox="0 0 280 280"><path d="M140.22 210.04c38.48 0 69.78-31.3 69.78-69.78s-31.3-69.78-69.78-69.78c-38.47 0-69.78 31.3-69.78 69.78s31.3 69.78 69.78 69.78M132.8 38.9a7.43 7.43 0 0 0 14.85 0V7.44a7.43 7.43 0 0 0-14.85 0V38.9m0 202.73v31.46a7.43 7.43 0 0 0 14.85 0v-31.46a7.43 7.43 0 0 0-14.85 0M89.54 59.91a7.43 7.43 0 0 0 6.43-11.14L80.24 21.53a7.43 7.43 0 0 0-12.86 7.43L83.1 56.2a7.42 7.42 0 0 0 6.43 3.71m97.67 161.71a7.43 7.43 0 0 0-2.72 10.14L200.2 259a7.42 7.42 0 1 0 12.86-7.42l-15.73-27.25a7.43 7.43 0 0 0-10.15-2.71M18.76 70.14a7.43 7.43 0 0 0 2.72 10.15L48.72 96a7.42 7.42 0 1 0 7.43-12.86L28.9 67.42a7.43 7.43 0 0 0-10.14 2.72m240.21 130.1-27.25-15.73a7.43 7.43 0 0 0-7.42 12.87l27.24 15.73a7.4 7.4 0 0 0 10.14-2.72 7.43 7.43 0 0 0-2.71-10.15M46.28 140.27c0-4.1-3.33-7.42-7.43-7.42H7.4a7.43 7.43 0 0 0 0 14.85h31.46c4.1 0 7.43-3.33 7.43-7.43m226.76-7.42h-31.46a7.43 7.43 0 0 0 0 14.85h31.46a7.43 7.43 0 0 0 0-14.85M48.73 184.51 21.5 200.24a7.43 7.43 0 1 0 7.42 12.86l27.25-15.73a7.43 7.43 0 0 0-7.43-12.86m202.8-117.09L224.3 83.15A7.43 7.43 0 0 0 231.72 96l27.24-15.73a7.43 7.43 0 0 0-7.42-12.86M83.1 224.34l-15.73 27.24a7.43 7.43 0 0 0 12.87 7.43l15.73-27.25a7.43 7.43 0 0 0-12.87-7.42M187.2 58.91a7.4 7.4 0 0 0 10.14-2.71l15.73-27.25a7.43 7.43 0 1 0-12.86-7.42l-15.73 27.24a7.43 7.43 0 0 0 2.71 10.14"/></svg>
