<svg width="294.71" height="189.16" xmlns="http://www.w3.org/2000/svg" viewBox="0 0 295 190"><path d="M109.03 119.2c0-29.19 26.4-52.94 58.86-52.94 7.02 0 13.81 1.08 20.29 3.22a54.36 54.36 0 0125.04-14.36A51.95 51.95 0 00166.9 26.3c-4.21 0-8.41.52-12.48 1.52-3 .74-6.15-.44-7.9-2.99a57.13 57.13 0 00-85.58-9.84 56.95 56.95 0 00-18.33 36.65 7.42 7.42 0 01-4.2 6c-.69.34-1.38.68-2.05 1.06-.62.34-1.29.6-1.98.76A44.3 44.3 0 009.8 74.66a43.2 43.2 0 00-9.8 27.58c0 24.19 19.78 43.86 44.1 43.86h52.96a48.04 48.04 0 0112.03-24.63c-.03-.76-.05-1.51-.05-2.27" fill="#61c9e7"/><path d="M269.25 120.4a7.43 7.43 0 01-4.46-9.5 28.85 28.85 0 001.72-9.82c0-14.1-10.27-26.16-24.7-30.9a43.63 43.63 0 00-21.08-1.55c-9.9 1.68-18.74 6.7-24.5 14.12a7.43 7.43 0 01-8.8 2.26 49.12 49.12 0 00-19.53-3.96c-24.27 0-44.02 17.1-44.02 38.1 0 1.34.09 2.73.26 4.1a7.39 7.39 0 01-2.23 6.26 34.3 34.3 0 00-9.71 16.53 31.03 31.03 0 00.02 14.85c4 16.13 20.62 28.27 40.46 28.27h100.63c22.82 0 41.38-16.04 41.38-35.76 0-14.45-9.99-27.41-25.44-33" fill="#4492a8"/></svg>