<svg width="251.88" height="220.4" xmlns="http://www.w3.org/2000/svg" viewBox="0 0 252 220"><g fill="#61c9e7"><path d="M47.2 155.9h157.35c26.07 0 47.27-21.1 47.27-47a46.59 46.59 0 00-18.56-37.34 7.5 7.5 0 01-2.64-3.85 55.5 55.5 0 00-53.08-39.86c-4.5 0-9 .54-13.35 1.62-3 .74-6.14-.45-7.9-3a61.1 61.1 0 00-91.5-10.5 60.87 60.87 0 00-19.6 39.19 7.43 7.43 0 01-4.2 6c-.74.35-1.48.73-2.2 1.13-.62.34-1.29.6-1.98.75a47.48 47.48 0 00-26.35 16.3A46.3 46.3 0 00-.05 108.9c0 25.92 21.2 47 47.26 47M47.94 186.84a16.77 16.77 0 100 33.54 16.77 16.77 0 000-33.54M141.7 203.6a16.78 16.78 0 10-33.56.02 16.78 16.78 0 0033.56-.01M214.36 203.6a16.77 16.77 0 10-33.54 0 16.77 16.77 0 0033.54 0"/></g></svg>