<svg xmlns="http://www.w3.org/2000/svg" width="254.44" height="256.38" viewBox="0 0 255 257"><path fill="#61c9e7" d="M233.3 71.58a7.42 7.42 0 0 1-2.63-3.84 55.5 55.5 0 0 0-53.08-39.87c-4.5 0-9 .55-13.35 1.63-3 .74-6.15-.45-7.9-3A61.1 61.1 0 0 0 106 .01 60.89 60.89 0 0 0 64.83 16a60.87 60.87 0 0 0-19.6 39.2 7.42 7.42 0 0 1-4.2 6 38 38 0 0 0-2.2 1.12c-.61.35-1.28.6-1.97.75a47.48 47.48 0 0 0-26.36 16.3A46.3 46.3 0 0 0 0 108.92c0 25.91 21.2 47 47.26 47H204.6c26.06 0 47.27-21.09 47.27-47a46.6 46.6 0 0 0-18.56-37.34m-1.99 116.33c0-4.1-3.33-7.43-7.43-7.43H28.87a7.42 7.42 0 1 0 0 14.86h195.02c4.1 0 7.43-3.34 7.43-7.43m-18.18 53.63H18.12a7.43 7.43 0 0 0 0 14.85h195.02a7.42 7.42 0 1 0 0-14.85M62.28 211.43a7.42 7.42 0 1 0 0 14.85h71.47a7.43 7.43 0 0 0 0-14.85H62.28m184.72 0h-71.48a7.42 7.42 0 1 0 0 14.85H247a7.43 7.43 0 0 0 0-14.85"/></svg>
