<svg width="254.44" height="256.38" xmlns="http://www.w3.org/2000/svg" viewBox="0 0 255 257"><g fill="#61c9e7"><path d="M233.3 71.58a7.42 7.42 0 01-2.63-3.84 55.5 55.5 0 00-53.08-39.87c-4.5 0-9 .55-13.35 1.63-3 .74-6.15-.45-7.9-3A61.1 61.1 0 00106 .01 60.89 60.89 0 0064.83 16a60.87 60.87 0 00-19.6 39.2 7.42 7.42 0 01-4.2 6c-.73.34-1.47.72-2.2 1.12-.61.35-1.28.6-1.97.75A47.48 47.48 0 0010.5 79.37 46.3 46.3 0 000 108.92c0 25.91 21.2 47 47.26 47H204.6c26.06 0 47.27-21.09 47.27-47a46.6 46.6 0 00-18.56-37.34M231.32 187.91c0-4.1-3.33-7.43-7.43-7.43H28.87a7.42 7.42 0 100 14.86h195.02c4.1 0 7.43-3.34 7.43-7.43M213.14 241.54H18.12a7.43 7.43 0 000 14.85h195.02a7.42 7.42 0 100-14.85M62.28 211.43a7.42 7.42 0 100 14.85h71.47a7.43 7.43 0 000-14.85H62.28M247 211.43h-71.48a7.42 7.42 0 100 14.85H247a7.43 7.43 0 000-14.85"/></g></svg>