<svg xmlns="http://www.w3.org/2000/svg" width="318.87" height="166.86" viewBox="0 0 319 167"><path fill="#dec60f" d="M159.33 78.52c-42.13 0-76.84 32.35-80.6 73.5h161.19c-3.76-41.15-38.47-73.5-80.59-73.5M152 7.44v36a7.42 7.42 0 1 0 14.85 0v-36a7.43 7.43 0 0 0-14.85 0M79.67 21.37a7.43 7.43 0 0 0-2.72 10.15l18 31.18a7.42 7.42 0 1 0 12.86-7.43l-18-31.18a7.43 7.43 0 0 0-10.14-2.72M62.63 95.01l-31.18-18a7.43 7.43 0 0 0-7.42 12.86l31.17 18a7.4 7.4 0 0 0 10.15-2.71A7.43 7.43 0 0 0 62.63 95M50.8 159.45c0-4.1-3.32-7.43-7.42-7.43h-36a7.43 7.43 0 0 0 0 14.86h36c4.1 0 7.42-3.33 7.42-7.43m260.53-7.43h-36a7.43 7.43 0 0 0 0 14.86h36a7.42 7.42 0 1 0 0-14.86m-47.73-44.14 31.17-18A7.42 7.42 0 1 0 287.34 77l-31.17 18a7.43 7.43 0 0 0 7.43 12.87m-49.87-42.44a7.43 7.43 0 0 0 10.15-2.72l18-31.18a7.42 7.42 0 1 0-12.86-7.43l-18 31.18a7.42 7.42 0 0 0 2.71 10.15"/></svg>
