<svg width="318.87" height="166.86" xmlns="http://www.w3.org/2000/svg" viewBox="0 0 319 167"><g fill="#dec60f"><path d="M159.33 78.52c-42.13 0-76.84 32.35-80.6 73.5h161.19c-3.76-41.15-38.47-73.5-80.59-73.5M152 7.44v36a7.42 7.42 0 1014.85 0v-36a7.43 7.43 0 00-14.85 0M79.67 21.37a7.43 7.43 0 00-2.72 10.15l18 31.18a7.42 7.42 0 1012.86-7.43l-18-31.18a7.43 7.43 0 00-10.14-2.72M62.63 95.01l-31.18-18a7.43 7.43 0 00-7.42 12.86l31.17 18a7.4 7.4 0 0010.15-2.71A7.43 7.43 0 0062.63 95M50.8 159.45c0-4.1-3.32-7.43-7.42-7.43h-36a7.43 7.43 0 000 14.86h36c4.1 0 7.42-3.33 7.42-7.43M311.33 152.02h-36a7.43 7.43 0 000 14.86h36a7.42 7.42 0 100-14.86M263.6 107.88l31.17-18A7.42 7.42 0 10287.34 77l-31.17 18a7.43 7.43 0 007.43 12.87M213.73 65.43a7.43 7.43 0 0010.15-2.72l18-31.18a7.42 7.42 0 10-12.86-7.43l-18 31.18a7.42 7.42 0 002.71 10.15"/></g></svg>