<svg width="251.88" height="258.64" viewBox="0 0 251 259" xmlns="http://www.w3.org/2000/svg"><path d="M251.85 108.9a46.6 46.6 0 00-18.56-37.34 7.43 7.43 0 01-2.63-3.85 55.5 55.5 0 00-53.08-39.86c-4.5 0-9 .54-13.35 1.62-3 .74-6.15-.45-7.9-3A61.1 61.1 0 00106 0a60.89 60.89 0 00-41.18 15.97 60.87 60.87 0 00-19.6 39.2 7.43 7.43 0 01-4.2 6c-.73.35-1.47.73-2.2 1.13-.61.34-1.28.6-1.97.75a47.48 47.48 0 00-26.35 16.3A46.3 46.3 0 00-.01 108.9c0 25.92 21.2 47 47.26 47H204.6c26.07 0 47.27-21.08 47.27-47" fill="#4492a8"/><g fill="#61c9e7"><path d="M66.66 223.44a7.42 7.42 0 007.1-9.6l-8.94-29.18a7.42 7.42 0 10-14.2 4.35l8.94 29.17a7.43 7.43 0 007.1 5.26M107.4 258.62a7.43 7.43 0 007.1-9.6l-8.93-29.18a7.42 7.42 0 10-14.2 4.35l8.94 29.18a7.43 7.43 0 007.1 5.25M159.22 213.06a7.43 7.43 0 00-4.93 9.28l8.94 29.17a7.43 7.43 0 1014.2-4.35L168.5 218a7.43 7.43 0 00-9.27-4.93M128.84 223.44a7.41 7.41 0 007.1-9.6l-8.93-29.18a7.43 7.43 0 10-14.2 4.35l8.94 29.17a7.43 7.43 0 007.1 5.26M191.03 223.44a7.41 7.41 0 007.1-9.6l-8.94-29.18A7.42 7.42 0 10175 189l8.94 29.17a7.43 7.43 0 007.1 5.26"/></g></svg>
