<svg xmlns="http://www.w3.org/2000/svg" width="251.88" height="258.64" viewBox="0 0 251 259"><path fill="#4492a8" d="M251.85 108.9a46.6 46.6 0 0 0-18.56-37.34 7.43 7.43 0 0 1-2.63-3.85 55.5 55.5 0 0 0-53.08-39.86c-4.5 0-9 .54-13.35 1.62-3 .74-6.15-.45-7.9-3A61.1 61.1 0 0 0 106 0a60.89 60.89 0 0 0-41.18 15.97 60.87 60.87 0 0 0-19.6 39.2 7.43 7.43 0 0 1-4.2 6c-.73.35-1.47.73-2.2 1.13-.61.34-1.28.6-1.97.75a47.48 47.48 0 0 0-26.35 16.3A46.3 46.3 0 0 0-.01 108.9c0 25.92 21.2 47 47.26 47H204.6c26.07 0 47.27-21.08 47.27-47"/><path fill="#61c9e7" d="M66.66 223.44a7.42 7.42 0 0 0 7.1-9.6l-8.94-29.18a7.42 7.42 0 1 0-14.2 4.35l8.94 29.17a7.43 7.43 0 0 0 7.1 5.26m40.74 35.18a7.43 7.43 0 0 0 7.1-9.6l-8.93-29.18a7.42 7.42 0 1 0-14.2 4.35l8.94 29.18a7.43 7.43 0 0 0 7.1 5.25m51.81-45.56a7.43 7.43 0 0 0-4.93 9.28l8.94 29.17a7.43 7.43 0 1 0 14.2-4.35L168.5 218a7.43 7.43 0 0 0-9.27-4.93m-30.39 10.37a7.41 7.41 0 0 0 7.1-9.6l-8.93-29.18a7.43 7.43 0 1 0-14.2 4.35l8.94 29.17a7.43 7.43 0 0 0 7.1 5.26m62.18 0a7.41 7.41 0 0 0 7.1-9.6l-8.94-29.18A7.42 7.42 0 1 0 175 189l8.94 29.17a7.43 7.43 0 0 0 7.1 5.26"/></svg>
