<svg width="294.71" height="258.57" xmlns="http://www.w3.org/2000/svg" viewBox="0 0 295 259"><g fill="#61c9e7"><path d="M109.04 119.18c0-29.2 26.4-52.95 58.87-52.95 7 0 13.8 1.08 20.28 3.22a54.32 54.32 0 0125.04-14.35 51.93 51.93 0 00-46.32-28.83c-4.21 0-8.41.51-12.47 1.52-3 .75-6.16-.45-7.91-3A57.15 57.15 0 0099.46.02c-14.3 0-27.97 5.31-38.51 14.95a56.93 56.93 0 00-18.33 36.65 7.43 7.43 0 01-4.2 6c-.68.32-1.37.68-2.05 1.05-.62.35-1.29.6-1.98.75A44.3 44.3 0 009.8 74.64 43.2 43.2 0 000 102.2c0 24.18 19.78 43.86 44.1 43.86h52.96a48.04 48.04 0 0112.03-24.63c-.03-.76-.05-1.51-.05-2.26M64.99 258.59a7.44 7.44 0 007.1-9.6l-8.94-29.18a7.43 7.43 0 00-14.2 4.35l8.94 29.17a7.43 7.43 0 007.1 5.26M127.17 258.59a7.43 7.43 0 007.1-9.6l-8.94-29.18a7.43 7.43 0 00-14.2 4.35l8.94 29.17a7.43 7.43 0 007.1 5.26M189.36 258.59a7.43 7.43 0 007.1-9.6l-8.94-29.18a7.43 7.43 0 00-14.2 4.35l8.94 29.17a7.43 7.43 0 007.1 5.26"/></g><path d="M269.26 120.42a7.43 7.43 0 01-4.46-9.5 28.86 28.86 0 001.73-9.82c0-14.1-10.28-26.15-24.7-30.91a43.57 43.57 0 00-21.09-1.55c-9.9 1.69-18.74 6.7-24.49 14.12a7.43 7.43 0 01-8.8 2.28 49.12 49.12 0 00-19.54-3.96c-24.27 0-44.02 17.09-44.02 38.09 0 1.35.09 2.73.26 4.1a7.43 7.43 0 01-2.23 6.26 34.21 34.21 0 00-9.71 16.53 31.03 31.03 0 00.03 14.85c4 16.13 20.61 28.27 40.45 28.27h100.63c22.82 0 41.38-16.05 41.38-35.76 0-14.46-9.98-27.41-25.44-33" fill="#4492a8"/></svg>