<svg width="318.94" height="289.62" viewBox="0 0 319 290" xmlns="http://www.w3.org/2000/svg"><g fill="#61c9e7"><path d="M285.04 127.6a7.42 7.42 0 01-2.64-3.85 55.5 55.5 0 00-53.08-39.86c-4.5 0-9 .54-13.34 1.62-3 .75-6.15-.45-7.9-3a61.1 61.1 0 00-50.33-26.48 60.89 60.89 0 00-41.18 15.98 60.88 60.88 0 00-19.6 39.19 7.42 7.42 0 01-4.2 6c-.73.35-1.47.73-2.2 1.13-.62.34-1.29.6-1.98.75a47.48 47.48 0 00-26.35 16.3 46.29 46.29 0 00-10.51 29.55c0 25.92 21.2 47 47.27 47h157.34c26.06 0 47.26-21.08 47.26-47a46.6 46.6 0 00-18.56-37.33" paint-order="stroke fill markers"/><path d="M119.95 289.63a7.41 7.41 0 007.1-9.6l-8.94-29.18a7.43 7.43 0 00-14.2 4.35l8.94 29.18a7.43 7.43 0 007.1 5.25M182.13 289.63a7.43 7.43 0 007.1-9.6l-8.93-29.18a7.43 7.43 0 00-14.2 4.35l8.94 29.18a7.43 7.43 0 007.1 5.25M244.32 289.63a7.43 7.43 0 007.1-9.6l-8.94-29.18a7.43 7.43 0 10-14.2 4.35l8.94 29.18a7.43 7.43 0 007.1 5.25"/></g><path d="M80.66-.9C77.29.14 73.97 1.32 70.7 2.66 13.15 26.22-14.5 92.21 9.07 149.77c8.19 20 21.61 36.84 38.8 49.07A61.6 61.6 0 0137.07 164c0-14.3 4.93-28.13 13.96-39.22a62.66 62.66 0 015.99-6.36 125.82 125.82 0 01-1.69-70.09A128.43 128.43 0 0180.66-.89z" fill="#e1c014"/></svg>
