<svg xmlns="http://www.w3.org/2000/svg" width="238.3" height="228.57" viewBox="0 0 239 229"><g fill="#61c9e7"><path d="m98.43 102.12-5.19 19.36 18.53-7.65 16.8 10.9-1.56-19.97 15.58-12.61-19.49-4.7-7.18-18.7-10.48 17.08-20.02 1.04 13.01 15.25m78.36-56.66-7.67-10.3-3.51 12.35-12.17 4.1 10.66 7.16.14 12.84 10.1-7.92 12.27 3.83-4.42-12.06 7.43-10.48-12.83.48"/><path d="M220.76 179.59a3.53 3.53 0 0 1-1.26-1.84 26.54 26.54 0 0 0-31.76-18.28 3.55 3.55 0 0 1-3.78-1.44 29.21 29.21 0 0 0-53.12 13.72 3.56 3.56 0 0 1-2 2.87c-.36.17-.71.35-1.06.54-.3.16-.61.28-.95.35a22.73 22.73 0 0 0-12.6 7.8 22.15 22.15 0 0 0-5.02 14.13 22.56 22.56 0 0 0 22.6 22.47h75.23a22.56 22.56 0 0 0 22.6-22.47 22.3 22.3 0 0 0-8.88-17.85" paint-order="stroke fill markers"/></g><path fill="#e1c014" d="M82.47-.02a117.62 117.62 0 0 0-10.3 3.67C12.63 28.03-15.97 96.3 8.41 155.85a115.91 115.91 0 0 0 62.9 63.4 116.18 116.18 0 0 0 54.39 8.73c-14.4-2.74-25.45-15.44-25.45-30.57 0-3.46.59-6.86 1.7-10.09a130.42 130.42 0 0 1-40.12-53.35 130.4 130.4 0 0 1-5.56-83.06A132.88 132.88 0 0 1 82.47-.02z"/></svg>
