<svg width="238.3" height="228.57" viewBox="0 0 239 229" xmlns="http://www.w3.org/2000/svg"><g fill="#61c9e7"><path d="M91.64 66.54L86.46 85.9l18.52-7.66 16.8 10.91-1.55-19.97 15.57-12.62-19.48-4.69-7.19-18.7-10.48 17.07-20.01 1.04 13 15.26M176.79 45.46l-7.67-10.3-3.51 12.35-12.17 4.1 10.66 7.16.14 12.84 10.1-7.92 12.27 3.83-4.42-12.06 7.43-10.48-12.83.48"/><path d="M212.17 155.64a5.25 5.25 0 01-1.87-2.73 39.52 39.52 0 00-37.79-28.38c-3.2 0-6.4.39-9.5 1.16a5.29 5.29 0 01-5.63-2.14 43.5 43.5 0 00-65.14-7.48 43.35 43.35 0 00-13.95 27.9 5.3 5.3 0 01-3 4.28c-.52.24-1.04.51-1.56.8-.44.24-.91.42-1.4.53a33.84 33.84 0 00-18.77 11.6 32.99 32.99 0 00-7.48 21.05c0 18.44 15.1 33.45 33.65 33.45h112c18.56 0 33.66-15 33.66-33.45a33.2 33.2 0 00-13.22-26.59" paint-order="stroke fill markers"/></g><path d="M82.9-.33a117.62 117.62 0 00-10.3 3.67C13.06 27.73-15.55 96 8.84 155.54a116.43 116.43 0 0026.36 39.24 45.62 45.62 0 01-1.87-12.9A46.3 46.3 0 0143.7 152.7l.01-.01a46.59 46.59 0 0120.52-14.47A130.4 130.4 0 0156.7 50.6 132.88 132.88 0 0182.9-.32z" fill="#e1c014"/></svg>
