<svg width="251.87" height="223.45" xmlns="http://www.w3.org/2000/svg" viewBox="0 0 252 224"><path d="M47.26 155.9H204.6c26.06 0 47.27-21.1 47.27-47a46.6 46.6 0 00-18.56-37.34 7.43 7.43 0 01-2.64-3.85 55.5 55.5 0 00-53.08-39.86c-4.5 0-9 .54-13.34 1.62-3 .74-6.15-.45-7.9-3A61.1 61.1 0 00106.01 0a60.89 60.89 0 00-41.18 15.98 60.88 60.88 0 00-19.6 39.19 7.42 7.42 0 01-4.2 6c-.74.35-1.48.73-2.2 1.13-.62.34-1.29.6-1.98.75a47.47 47.47 0 00-26.35 16.3A46.3 46.3 0 000 108.9c0 25.92 21.2 47 47.26 47" fill="#4492a8"/><g fill="#61c9e7"><path d="M55.55 179.74a7.42 7.42 0 00-4.92 9.28l8.94 29.17a7.43 7.43 0 1014.2-4.35l-8.94-29.17a7.42 7.42 0 00-9.28-4.93M117.74 179.74a7.43 7.43 0 00-4.93 9.28l8.94 29.17a7.43 7.43 0 0014.2-4.35l-8.94-29.17a7.43 7.43 0 00-9.27-4.93M179.92 179.74a7.43 7.43 0 00-4.92 9.28l8.94 29.17a7.43 7.43 0 0014.2-4.35l-8.94-29.17a7.43 7.43 0 00-9.28-4.93"/></g></svg>