<svg width="251.87" height="236.67" viewBox="0 0 252 237" xmlns="http://www.w3.org/2000/svg"><g fill="#61c9e7"><path d="M233.28 71.56a7.43 7.43 0 01-2.63-3.85 55.5 55.5 0 00-53.08-39.86c-4.5 0-9 .55-13.35 1.63-3 .74-6.15-.45-7.9-3A61.1 61.1 0 00105.99-.01 60.88 60.88 0 0064.8 15.97a60.87 60.87 0 00-19.6 39.2 7.43 7.43 0 01-4.2 6c-.73.34-1.47.72-2.2 1.12-.62.34-1.28.6-1.97.75a47.48 47.48 0 00-26.36 16.3A46.3 46.3 0 00-.02 108.9c0 25.91 21.2 47 47.26 47h157.34c26.06 0 47.27-21.09 47.27-47a46.6 46.6 0 00-18.56-37.34M42.25 186.84a6.63 6.63 0 00-6.63 6.63v10.21l-10.86-2.94a6.63 6.63 0 10-3.47 12.8l10.45 2.83-6.32 9.73a6.63 6.63 0 1011.12 7.21l5.8-8.93 6.28 9.35a6.62 6.62 0 1011-7.4l-6.71-10 10.3-2.8a6.63 6.63 0 10-3.48-12.8l-10.85 2.95v-10.21a6.63 6.63 0 00-6.63-6.63M125.91 186.84a6.63 6.63 0 00-6.63 6.63v10.21l-10.86-2.94a6.63 6.63 0 10-3.47 12.8l10.45 2.83-6.31 9.73a6.63 6.63 0 1011.12 7.21l5.8-8.93 6.28 9.35a6.62 6.62 0 1011-7.4l-6.72-10 10.3-2.8a6.63 6.63 0 00-3.47-12.8l-10.86 2.95v-10.21a6.63 6.63 0 00-6.63-6.63M209.58 186.84a6.63 6.63 0 00-6.63 6.63v10.21l-10.86-2.94a6.63 6.63 0 10-3.47 12.8l10.45 2.83-6.32 9.73a6.63 6.63 0 1011.12 7.21l5.8-8.93 6.28 9.35a6.62 6.62 0 1011-7.4l-6.71-10 10.3-2.8a6.63 6.63 0 10-3.48-12.8l-10.85 2.95v-10.21a6.63 6.63 0 00-6.63-6.63"/></g></svg>
