<svg xmlns="http://www.w3.org/2000/svg" width="251.87" height="236.67" viewBox="0 0 252 237"><path fill="#61c9e7" d="M233.28 71.56a7.43 7.43 0 0 1-2.63-3.85 55.5 55.5 0 0 0-53.08-39.86c-4.5 0-9 .55-13.35 1.63-3 .74-6.15-.45-7.9-3A61.1 61.1 0 0 0 105.99-.01 60.88 60.88 0 0 0 64.8 15.97a60.87 60.87 0 0 0-19.6 39.2 7.43 7.43 0 0 1-4.2 6 38 38 0 0 0-2.2 1.12c-.62.34-1.28.6-1.97.75a47.48 47.48 0 0 0-26.36 16.3A46.3 46.3 0 0 0-.02 108.9c0 25.91 21.2 47 47.26 47h157.34c26.06 0 47.27-21.09 47.27-47a46.6 46.6 0 0 0-18.56-37.34M42.25 186.84a6.63 6.63 0 0 0-6.63 6.63v10.21l-10.86-2.94a6.63 6.63 0 1 0-3.47 12.8l10.45 2.83-6.32 9.73a6.63 6.63 0 1 0 11.12 7.21l5.8-8.93 6.28 9.35a6.62 6.62 0 1 0 11-7.4l-6.71-10 10.3-2.8a6.63 6.63 0 1 0-3.48-12.8l-10.85 2.95v-10.21a6.63 6.63 0 0 0-6.63-6.63m83.66 0a6.63 6.63 0 0 0-6.63 6.63v10.21l-10.86-2.94a6.63 6.63 0 1 0-3.47 12.8l10.45 2.83-6.31 9.73a6.63 6.63 0 1 0 11.12 7.21l5.8-8.93 6.28 9.35a6.62 6.62 0 1 0 11-7.4l-6.72-10 10.3-2.8a6.63 6.63 0 0 0-3.47-12.8l-10.86 2.95v-10.21a6.63 6.63 0 0 0-6.63-6.63m83.67 0a6.63 6.63 0 0 0-6.63 6.63v10.21l-10.86-2.94a6.63 6.63 0 1 0-3.47 12.8l10.45 2.83-6.32 9.73a6.63 6.63 0 1 0 11.12 7.21l5.8-8.93 6.28 9.35a6.62 6.62 0 1 0 11-7.4l-6.71-10 10.3-2.8a6.63 6.63 0 1 0-3.48-12.8l-10.85 2.95v-10.21a6.63 6.63 0 0 0-6.63-6.63"/></svg>
