<svg xmlns="http://www.w3.org/2000/svg" width="280.5" height="280.5" viewBox="0 0 280 280"><path fill="#61c9e7" d="M257 219.74a4.3 4.3 0 0 1-1.53-2.24 32.38 32.38 0 0 0-30.96-23.26c-2.63 0-5.25.32-7.78.95a4.33 4.33 0 0 1-4.61-1.75 35.63 35.63 0 0 0-53.38-6.13 35.52 35.52 0 0 0-11.43 22.87 4.34 4.34 0 0 1-2.45 3.5c-.42.2-.86.42-1.28.65-.36.2-.75.35-1.15.44a27.73 27.73 0 0 0-15.37 9.5 27.03 27.03 0 0 0-6.13 17.25 27.52 27.52 0 0 0 27.56 27.4h91.77c15.2 0 27.57-12.29 27.57-27.4a27.2 27.2 0 0 0-10.82-21.78" paint-order="stroke fill markers"/><path fill="#dec60f" d="M140.2 70.73a69.86 69.86 0 0 0-69.8 69.77c0 33.33 23.5 61.27 54.8 68.14a40.6 40.6 0 0 1 10.03-5.1 48.61 48.61 0 0 1 14.7-25.58h.01a48.59 48.59 0 0 1 53.5-8.05 69.35 69.35 0 0 0 6.52-29.41 69.86 69.86 0 0 0-69.78-69.78zm-.9 131.44-.1.04-.04.03.13-.07zM132.8 38.9a7.43 7.43 0 0 0 14.85 0V7.44a7.43 7.43 0 0 0-14.85 0V38.9M89.54 59.91a7.43 7.43 0 0 0 6.43-11.14L80.24 21.53a7.43 7.43 0 0 0-12.86 7.43L83.1 56.2a7.42 7.42 0 0 0 6.43 3.71M18.76 70.14a7.43 7.43 0 0 0 2.72 10.15L48.72 96a7.42 7.42 0 1 0 7.43-12.86L28.9 67.42a7.43 7.43 0 0 0-10.14 2.72m27.52 70.13c0-4.1-3.33-7.42-7.43-7.42H7.4a7.43 7.43 0 0 0 0 14.85h31.46c4.1 0 7.43-3.33 7.43-7.43m226.76-7.42h-31.46a7.43 7.43 0 0 0 0 14.85h31.46a7.43 7.43 0 0 0 0-14.85M48.73 184.51 21.5 200.24a7.43 7.43 0 1 0 7.42 12.86l27.25-15.73a7.43 7.43 0 0 0-7.43-12.86m202.8-117.09L224.3 83.15A7.43 7.43 0 0 0 231.72 96l27.24-15.73a7.43 7.43 0 0 0-7.42-12.86M83.1 224.34l-15.73 27.24a7.43 7.43 0 0 0 12.87 7.43l15.73-27.25a7.43 7.43 0 0 0-12.87-7.42M187.2 58.91a7.4 7.4 0 0 0 10.14-2.71l15.73-27.25a7.43 7.43 0 1 0-12.86-7.42l-15.73 27.24a7.43 7.43 0 0 0 2.71 10.14"/></svg>
