<svg xmlns="http://www.w3.org/2000/svg" width="307.19" height="291.33" viewBox="0 0 307 291"><path fill="#dec60f" d="M55.57 92.54c0 9.27 3.43 18.02 9.54 24.76a62.36 62.36 0 0 1 21.22-10.38 75.72 75.72 0 0 1 25.61-45.8 36.97 36.97 0 0 0-56.37 31.4"/><path fill="#61c9e7" d="M288.6 129.3a7.42 7.42 0 0 1-2.63-3.85A55.5 55.5 0 0 0 232.9 85.6c-4.5 0-9 .54-13.34 1.62-3 .75-6.15-.45-7.9-3a61.1 61.1 0 0 0-50.33-26.48 60.89 60.89 0 0 0-41.18 15.98 60.88 60.88 0 0 0-19.6 39.19 7.42 7.42 0 0 1-4.2 6c-.73.35-1.47.73-2.2 1.13-.62.34-1.29.6-1.98.75a47.48 47.48 0 0 0-26.35 16.3 46.29 46.29 0 0 0-10.51 29.55c0 25.92 21.2 47 47.27 47H259.9c26.06 0 47.26-21.08 47.26-47a46.6 46.6 0 0 0-18.56-37.33M116.92 264.97a7.41 7.41 0 0 0 7.1-9.6l-8.94-29.18a7.43 7.43 0 0 0-14.2 4.35l8.94 29.18a7.43 7.43 0 0 0 7.1 5.25m62.18 0a7.43 7.43 0 0 0 7.1-9.6l-8.93-29.18a7.43 7.43 0 0 0-14.2 4.35l8.94 29.18a7.43 7.43 0 0 0 7.1 5.25m62.18 0a7.43 7.43 0 0 0 7.1-9.6l-8.94-29.18a7.43 7.43 0 1 0-14.2 4.35l8.94 29.18a7.43 7.43 0 0 0 7.1 5.25"/><path fill="#dec60f" d="M85.08 7.45v20.89a7.43 7.43 0 0 0 14.85 0V7.44a7.43 7.43 0 1 0-14.85 0M60.41 44.36a7.43 7.43 0 0 0 6.42-11.14L56.4 15.12a7.43 7.43 0 0 0-12.86 7.44l10.45 18.09a7.42 7.42 0 0 0 6.43 3.71M40.61 54 22.52 43.56a7.43 7.43 0 1 0-7.43 12.86l18.1 10.45A7.43 7.43 0 0 0 40.62 54m-4.89 38.54c0-4.1-3.32-7.43-7.42-7.43H7.4a7.43 7.43 0 0 0 0 14.85h20.9c4.1 0 7.42-3.32 7.42-7.42m4.89 38.53a7.43 7.43 0 1 0-7.42-12.86l-18.1 10.44a7.43 7.43 0 1 0 7.43 12.87l18.1-10.45m80.28-87.71a7.42 7.42 0 0 0 10.15-2.72l10.43-18.09a7.43 7.43 0 0 0-12.86-7.42l-10.45 18.1a7.43 7.43 0 0 0 2.72 10.13"/><path fill="#61c9e7" d="M215.98 291.79a7.41 7.41 0 0 0 7.1-9.6L214.15 253a7.43 7.43 0 0 0-14.2 4.35l8.95 29.17a7.43 7.43 0 0 0 7.1 5.26m-61.73-1.19a7.41 7.41 0 0 0 7.1-9.6l-8.94-29.18a7.43 7.43 0 0 0-14.2 4.35l8.94 29.17a7.43 7.43 0 0 0 7.1 5.26"/></svg>
