<svg xmlns="http://www.w3.org/2000/svg" width="307.19" height="213.61" viewBox="0 0 307 214"><path fill="#61c9e7" d="M288.6 129.37a7.38 7.38 0 0 1-2.63-3.84 55.51 55.51 0 0 0-53.08-39.87c-4.5 0-9 .55-13.34 1.63-3 .75-6.15-.45-7.9-3a61.1 61.1 0 0 0-91.51-10.5 60.89 60.89 0 0 0-19.6 39.2 7.44 7.44 0 0 1-4.2 6c-.73.34-1.47.71-2.2 1.11-.62.35-1.29.6-1.98.75a47.54 47.54 0 0 0-26.35 16.3 46.33 46.33 0 0 0-10.51 29.56c0 25.92 21.2 47 47.27 47H259.9c26.06 0 47.26-21.08 47.26-47a46.63 46.63 0 0 0-18.56-37.34"/><path fill="#dec60f" d="M55.57 92.57a36.7 36.7 0 0 0 9.54 24.76 62.36 62.36 0 0 1 21.22-10.39 75.68 75.68 0 0 1 25.61-45.78 36.97 36.97 0 0 0-56.37 31.41m36.93-56.8c4.1 0 7.43-3.33 7.43-7.43V7.45a7.42 7.42 0 1 0-14.85 0v20.9c0 4.09 3.33 7.42 7.43 7.42M53.97 40.7a7.42 7.42 0 1 0 12.87-7.42l-10.45-18.1a7.43 7.43 0 0 0-12.86 7.43l10.44 18.1M15.1 56.44l18.09 10.45a7.47 7.47 0 0 0 10.14-2.72 7.43 7.43 0 0 0-2.71-10.15l-18.1-10.45a7.43 7.43 0 0 0-7.43 12.87m-7.67 43.6H28.3a7.43 7.43 0 0 0 0-14.86H7.41a7.42 7.42 0 1 0 0 14.86m35.92 20.93a7.42 7.42 0 0 0-10.14-2.72l-18.1 10.44a7.43 7.43 0 0 0 7.43 12.86l18.1-10.44a7.43 7.43 0 0 0 2.71-10.14m77.57-77.6a7.42 7.42 0 0 0 10.15-2.72l10.43-18.1a7.43 7.43 0 0 0-12.86-7.42l-10.45 18.1a7.43 7.43 0 0 0 2.72 10.14"/></svg>
