<svg width="307.19" height="213.61" viewBox="0 0 307 214" xmlns="http://www.w3.org/2000/svg"><path d="M288.6 129.37a7.38 7.38 0 01-2.63-3.84 55.51 55.51 0 00-53.08-39.87c-4.5 0-9 .55-13.34 1.63-3 .75-6.15-.45-7.9-3a61.1 61.1 0 00-91.51-10.5 60.89 60.89 0 00-19.6 39.2 7.44 7.44 0 01-4.2 6c-.73.34-1.47.71-2.2 1.11-.62.35-1.29.6-1.98.75a47.54 47.54 0 00-26.35 16.3 46.33 46.33 0 00-10.51 29.56c0 25.92 21.2 47 47.27 47H259.9c26.06 0 47.26-21.08 47.26-47a46.63 46.63 0 00-18.56-37.34" fill="#61c9e7"/><g fill="#dec60f"><path d="M55.57 92.57a36.7 36.7 0 009.54 24.76 62.36 62.36 0 0121.22-10.39 75.68 75.68 0 0125.61-45.78 36.97 36.97 0 00-56.37 31.41M92.5 35.77c4.1 0 7.43-3.33 7.43-7.43V7.45a7.42 7.42 0 10-14.85 0v20.9c0 4.09 3.33 7.42 7.43 7.42M53.97 40.7a7.42 7.42 0 1012.87-7.42l-10.45-18.1a7.43 7.43 0 00-12.86 7.43l10.44 18.1M15.1 56.44l18.09 10.45a7.47 7.47 0 0010.14-2.72 7.43 7.43 0 00-2.71-10.15l-18.1-10.45a7.43 7.43 0 00-7.43 12.87M7.42 100.04H28.3a7.43 7.43 0 000-14.86H7.41a7.42 7.42 0 100 14.86M43.33 120.97a7.42 7.42 0 00-10.14-2.72l-18.1 10.44a7.43 7.43 0 007.43 12.86l18.1-10.44a7.43 7.43 0 002.71-10.14M120.9 43.37a7.42 7.42 0 0010.15-2.72l10.43-18.1a7.43 7.43 0 00-12.86-7.42l-10.45 18.1a7.43 7.43 0 002.72 10.14"/></g></svg>
