<svg width="251.88" height="229.04" viewBox="0 0 252 229" xmlns="http://www.w3.org/2000/svg"><path d="M75.45 140.62l33.04-97.27h41.74l-24.34 65.69h50.42l-30.73 46.87h58.97c26.07 0 47.27-21.08 47.27-47a46.61 46.61 0 00-18.56-37.34 7.46 7.46 0 01-2.64-3.84 55.5 55.5 0 00-53.08-39.86c-4.5 0-9 .54-13.35 1.62-3 .75-6.14-.45-7.9-3A61.08 61.08 0 0064.79 16a60.88 60.88 0 00-19.6 39.2 7.43 7.43 0 01-4.2 6c-.73.34-1.47.72-2.2 1.12-.62.34-1.29.6-1.98.76a47.44 47.44 0 00-26.35 16.29A46.33 46.33 0 00-.05 108.92c0 25.9 21.2 47 47.26 47h68.74l3.84-15.3H75.45" fill="#61c9e7"/><path d="M125.83 108.97l24.35-65.7h-41.75L75.4 140.56h44.35l-3.84 15.3-3.72 14.84-14.61 58.29 38.2-58.29 9.76-14.85 30.73-46.87h-50.43" fill="#dec60f"/></svg>
