<svg xmlns="http://www.w3.org/2000/svg" width="251.88" height="229.04" viewBox="0 0 252 229"><path fill="#61c9e7" d="m75.45 140.62 33.04-97.27h41.74l-24.34 65.69h50.42l-30.73 46.87h58.97c26.07 0 47.27-21.08 47.27-47a46.61 46.61 0 0 0-18.56-37.34 7.46 7.46 0 0 1-2.64-3.84 55.5 55.5 0 0 0-53.08-39.86c-4.5 0-9 .54-13.35 1.62-3 .75-6.14-.45-7.9-3A61.08 61.08 0 0 0 64.79 16a60.88 60.88 0 0 0-19.6 39.2 7.43 7.43 0 0 1-4.2 6 38 38 0 0 0-2.2 1.12 7.8 7.8 0 0 1-1.98.76 47.44 47.44 0 0 0-26.35 16.29A46.33 46.33 0 0 0-.05 108.92c0 25.9 21.2 47 47.26 47h68.74l3.84-15.3H75.45"/><path fill="#dec60f" d="m125.83 108.97 24.35-65.7h-41.75L75.4 140.56h44.35l-3.84 15.3-3.72 14.84-14.61 58.29 38.2-58.29 9.76-14.85 30.73-46.87h-50.43"/></svg>
