<svg width="245.8" height="298.37" viewBox="0 0 246 299" xmlns="http://www.w3.org/2000/svg"><g fill="#4492a8"><path d="M-.06 132.86c8.9-5.53 21.39-11.12 35.4-11.12 23.22 0 34.73 7.95 44.28 16.87 9.1-8.16 21.08-16.87 43.97-16.87 22.8 0 36.28 9.08 44.27 16.46 9.12-8.71 21.61-16.46 43.96-16.46 13.6 0 25.4 5.26 33.91 10.63-8.93-53.35-60.62-94.4-122.85-94.4-62.43 0-114.24 41.3-122.94 94.9"/><path d="M115.5 137.06v113.96c0 12.32 3.83 23.97 10.79 32.83 7.36 9.36 17.32 14.52 28.04 14.52 10.7 0 20.66-5.16 28.03-14.52 6.96-8.86 10.8-20.51 10.8-32.83a7.42 7.42 0 10-14.86 0c0 17.92-10.76 32.5-23.97 32.5-13.23 0-23.98-14.58-23.98-32.5V136.93a66.87 66.87 0 00-6.72-.33c-2.97 0-5.65.16-8.13.46M130.3 23.3V7.44a7.43 7.43 0 00-14.85 0v15.88a155.99 155.99 0 0114.85 0"/></g></svg>
