<svg viewBox="0 0 16 16" height="16" width="16" xmlns="http://www.w3.org/2000/svg" xml:space="preserve" style="fill-rule:evenodd;clip-rule:evenodd;stroke-linejoin:round;stroke-miterlimit:2"><path d="M12 14c-.55 0-1.021-.196-1.412-.587A1.927 1.927 0 0 1 10 12c0-.55.196-1.021.588-1.413A1.926 1.926 0 0 1 12 10c.55 0 1.021.196 1.413.587.391.392.587.863.587 1.413a1.93 1.93 0 0 1-.587 1.413A1.93 1.93 0 0 1 12 14Zm0 7c-2.317 0-4.325-.762-6.025-2.287C4.275 17.188 3.3 15.283 3.05 13H5.1c.233 1.733 1.004 3.167 2.313 4.3C8.721 18.433 10.25 19 12 19c1.95 0 3.604-.679 4.963-2.037C18.321 15.604 19 13.95 19 12c0-1.95-.679-3.604-2.037-4.963C15.604 5.679 13.95 5 12 5c-1.15 0-2.225.267-3.225.8A7.428 7.428 0 0 0 6.25 8H9v2H3V4h2v2.35a8.726 8.726 0 0 1 3.113-2.475A8.932 8.932 0 0 1 12 3a8.71 8.71 0 0 1 3.513.712 9.187 9.187 0 0 1 2.85 1.925 9.17 9.17 0 0 1 1.925 2.85A8.71 8.71 0 0 1 21 12c0 1.25-.237 2.421-.712 3.512a9.162 9.162 0 0 1-1.925 2.851 9.17 9.17 0 0 1-2.85 1.925A8.71 8.71 0 0 1 12 21Z" style="fill:#fff;fill-rule:nonzero" transform="matrix(.77778 0 0 .77778 -1.333 -1.333)"/></svg>