<svg viewBox="0 0 16 16" height="16" width="16" xmlns="http://www.w3.org/2000/svg" xml:space="preserve" style="fill-rule:evenodd;clip-rule:evenodd;stroke-linejoin:round;stroke-miterlimit:2"><path d="M12.075 20.45c-2.233 0-4.167-.746-5.8-2.237-1.633-1.492-2.542-3.346-2.725-5.563v-.125l-1.3 1.3L.375 11.95l4.5-4.5 4.5 4.5-1.825 1.875L6.225 12.5v.125c.133 1.417.75 2.633 1.85 3.65s2.433 1.525 4 1.525c.483 0 .942-.058 1.375-.175a6.045 6.045 0 0 0 1.225-.475l1.95 1.95c-.7.433-1.429.767-2.187 1a8.003 8.003 0 0 1-2.363.35Zm7.05-4-4.5-4.5 1.825-1.875 1.325 1.325v-.125c-.133-1.417-.75-2.633-1.85-3.65s-2.433-1.525-4-1.525c-.483 0-.942.058-1.375.175a6.045 6.045 0 0 0-1.225.475L7.375 4.8a9.383 9.383 0 0 1 2.188-1 7.992 7.992 0 0 1 2.362-.35c2.233 0 4.167.746 5.8 2.238 1.633 1.491 2.542 3.345 2.725 5.562v.125l1.3-1.3 1.875 1.875-4.5 4.5Z" style="fill-rule:nonzero" transform="translate(.258 .274) scale(.64516)"/></svg>