<svg width="16" height="16" viewBox="0 0 16 16" xmlns="http://www.w3.org/2000/svg"><path d="M6.508 10.106v-.642q0-.833.356-1.449.356-.616 1.302-1.31.91-.65 1.197-1.059.295-.408.295-.91 0-.565-.416-.86-.417-.295-1.163-.295-1.302 0-2.968.85l-.945-1.9Q6.1 1.447 8.27 1.447q1.787 0 2.837.859 1.059.859 1.059 2.29 0 .955-.434 1.649-.434.694-1.649 1.562-.833.616-1.058.937-.217.32-.217.842v.52zm-.277 2.968q0-.73.39-1.102.39-.373 1.137-.373.72 0 1.11.381.4.382.4 1.094 0 .685-.4 1.084-.399.39-1.11.39-.729 0-1.128-.381-.4-.39-.4-1.093z"/></svg>
