<svg viewBox="0 0 16 16" height="16" width="16" xmlns="http://www.w3.org/2000/svg" xml:space="preserve" style="fill-rule:evenodd;clip-rule:evenodd;stroke-linejoin:round;stroke-miterlimit:2"><path d="M10.6 16c0-1.35.121-2.321.363-2.913.241-.591.754-1.237 1.537-1.937.683-.6 1.204-1.121 1.563-1.563.358-.441.537-.945.537-1.512 0-.683-.229-1.25-.687-1.7-.459-.45-1.096-.675-1.913-.675-.85 0-1.496.258-1.937.775-.442.517-.755 1.042-.938 1.575L6.55 6.95c.35-1.067.992-1.992 1.925-2.775C9.408 3.392 10.583 3 12 3c1.75 0 3.096.487 4.038 1.462.941.976 1.412 2.146 1.412 3.513 0 .833-.179 1.546-.537 2.137-.359.592-.921 1.263-1.688 2.013-.817.783-1.312 1.379-1.487 1.788-.175.408-.263 1.104-.263 2.087H10.6Zm1.4 6c-.55 0-1.021-.196-1.412-.587A1.927 1.927 0 0 1 10 20c0-.55.196-1.021.588-1.412A1.923 1.923 0 0 1 12 18c.55 0 1.021.196 1.413.588.391.391.587.862.587 1.412a1.93 1.93 0 0 1-.587 1.413A1.93 1.93 0 0 1 12 22Z" style="fill-rule:nonzero" transform="matrix(.68947 0 0 .68947 -.266 -.618)"/></svg>