<svg xmlns="http://www.w3.org/2000/svg" xml:space="preserve" style="fill-rule:evenodd;clip-rule:evenodd;stroke-linejoin:round;stroke-miterlimit:2" viewBox="0 0 16 16" height="16" width="16"><path d="M478-240c14 0 25.833-4.833 35.5-14.5 9.667-9.667 14.5-21.5 14.5-35.5s-4.833-25.833-14.5-35.5C503.833-335.167 492-340 478-340s-25.833 4.833-35.5 14.5C432.833-315.833 428-304 428-290s4.833 25.833 14.5 35.5c9.667 9.667 21.5 14.5 35.5 14.5Zm-36-154h74c0-22 2.5-39.333 7.5-52 5-12.667 19.167-30 42.5-52 17.333-17.333 31-33.833 41-49.5 10-15.667 15-34.5 15-56.5 0-37.333-13.667-66-41-86s-59.667-30-97-30c-38 0-68.833 10-92.5 30s-40.167 44-49.5 72l66 26c3.333-12 10.833-25 22.5-39s29.5-21 53.5-21c21.333 0 37.333 5.833 48 17.5 10.667 11.667 16 24.5 16 38.5 0 13.333-4 25.833-12 37.5-8 11.667-18 22.5-30 32.5-29.333 26-47.333 45.667-54 59-6.667 13.333-10 37.667-10 73Zm38 314c-55.333 0-107.333-10.5-156-31.5S233-161 197-197s-64.5-78.333-85.5-127S80-424.667 80-480s10.5-107.333 31.5-156S161-727 197-763s78.333-64.5 127-85.5S424.667-880 480-880s107.333 10.5 156 31.5S727-799 763-763s64.5 78.333 85.5 127S880-535.333 880-480s-10.5 107.333-31.5 156S799-233 763-197s-78.333 64.5-127 85.5S535.333-80 480-80Zm0-80c89.333 0 165-31 227-93s93-137.667 93-227-31-165-93-227-137.667-93-227-93-165 31-227 93-93 137.667-93 227 31 165 93 227 137.667 93 227 93Z" style="fill-rule:nonzero" transform="translate(-.4 16.4) scale(.0175)"/></svg>