<svg viewBox="0 0 16 16" height="16" width="16" xmlns="http://www.w3.org/2000/svg" xml:space="preserve" style="fill-rule:evenodd;clip-rule:evenodd;stroke-linejoin:round;stroke-miterlimit:2"><path d="M6.308 21.5c-.497 0-.923-.177-1.277-.531a1.742 1.742 0 0 1-.531-1.277v-9.384c0-.497.177-.923.531-1.277.354-.354.78-.531 1.277-.531H7.5v-2c0-1.249.438-2.311 1.314-3.187C9.689 2.438 10.751 2 12 2c1.249 0 2.311.438 3.187 1.313.875.876 1.313 1.938 1.313 3.187v2h1.192c.497 0 .923.177 1.277.531.354.354.531.78.531 1.277v9.384c0 .497-.177.923-.531 1.277-.354.354-.78.531-1.277.531H6.308ZM12 16.75c.486 0 .899-.17 1.24-.51.34-.341.51-.754.51-1.24s-.17-.899-.51-1.239A1.688 1.688 0 0 0 12 13.25c-.486 0-.899.17-1.239.511-.341.34-.511.753-.511 1.239 0 .486.17.899.511 1.24.34.34.753.51 1.239.51ZM9 8.5h6v-2c0-.833-.292-1.542-.875-2.125A2.894 2.894 0 0 0 12 3.5c-.833 0-1.542.292-2.125.875A2.894 2.894 0 0 0 9 6.5v2Z" style="fill-rule:nonzero" transform="matrix(.71795 0 0 .71795 -.61 -.414)"/></svg>