<svg viewBox="0 0 16 16" height="16" width="16" xmlns="http://www.w3.org/2000/svg" xml:space="preserve" style="fill-rule:evenodd;clip-rule:evenodd;stroke-linejoin:round;stroke-miterlimit:2"><path d="M12 11.692c-.962 0-1.786-.342-2.472-1.028C8.843 9.979 8.5 9.155 8.5 8.192c0-.962.343-1.786 1.028-2.471.686-.686 1.51-1.029 2.472-1.029.963 0 1.786.343 2.472 1.029.685.685 1.028 1.509 1.028 2.471 0 .963-.343 1.787-1.028 2.472-.686.686-1.509 1.028-2.472 1.028Zm-7.5 7.616v-2.224c0-.489.133-.943.399-1.36a2.663 2.663 0 0 1 1.067-.962 14.51 14.51 0 0 1 2.991-1.091 12.965 12.965 0 0 1 6.086 0c1.006.243 2.003.606 2.992 1.091.445.224.8.545 1.066.962.266.417.399.871.399 1.36v2.224h-15Z" style="fill-rule:nonzero" transform="matrix(.95789 0 0 .95789 -3.484 -3.495)"/></svg>