<svg viewBox="0 0 16 16" height="16" width="16" xmlns="http://www.w3.org/2000/svg" xml:space="preserve" style="fill-rule:evenodd;clip-rule:evenodd;stroke-linejoin:round;stroke-miterlimit:2"><path d="M18.13 22.45c-.937 0-1.734-.326-2.392-.977a3.21 3.21 0 0 1-.963-2.709c.017-.117.042-.221.075-.314l-6.8-3.9c-.3.25-.637.437-1.012.562A3.581 3.581 0 0 1 5.9 15.3c-.944 0-1.747-.326-2.408-.978a3.212 3.212 0 0 1-.992-2.375c0-.931.331-1.722.992-2.372.661-.65 1.464-.975 2.408-.975.383 0 .763.063 1.138.188.375.125.712.312 1.012.562l6.8-3.9a1.752 1.752 0 0 1-.075-.322 3.22 3.22 0 0 1 .958-2.701c.656-.651 1.451-.977 2.388-.977.936 0 1.733.326 2.392.978a3.22 3.22 0 0 1 .987 2.375c0 .931-.331 1.722-.992 2.372-.661.65-1.463.975-2.408.975-.383 0-.762-.063-1.137-.188A3.098 3.098 0 0 1 15.95 7.4l-6.8 3.9c.033.093.058.197.075.314a2.315 2.315 0 0 1 0 .672 1.644 1.644 0 0 1-.075.314l6.8 3.9c.3-.25.638-.437 1.013-.562a3.575 3.575 0 0 1 1.137-.188c.945 0 1.747.326 2.408.978.661.652.992 1.444.992 2.375s-.328 1.722-.983 2.372c-.655.65-1.451.975-2.387.975Z" style="fill-rule:nonzero" transform="matrix(.71429 0 0 .71429 -.586 -.536)"/></svg>