<svg xmlns="http://www.w3.org/2000/svg" width="16" height="16" viewbox="0 0 16 16"><path d="M10 1C8.25 1 7 2.43 7 3.8c0 1.4.1 2.4.8 3.5.2.29.5.35.7.6.135.5.24 1 .1 1.5-.28.1-.525.22-.8.33-.085-.15-.23-.2-.47-.4C6.6 8.89 5.77 8.58 5 8.29c-.1-.37-.1-.65 0-1 .156-.166.37-.27.5-.43.46-.6.5-1.654.5-2.37 0-1.06-.954-1.9-2-1.9-1.17 0-2 1-2 1.9 0 .93.034 1.64.5 2.37.13.2.367.26.5.43.1.33.1.654 0 1-.85.3-1.6.64-2.34 1.04-.57.4-.52.205-.66 1.53-.11 1.06 2.335 1.13 4 1.13h.17c-.054.274-.1.63-.17 1.3-.16 1.59 3.5 1.7 6 1.7s6.16-.1 6-1.7c-.215-2-.23-1.71-1-2.3-1.1-.654-2.45-1.17-3.6-1.6-.15-.56-.04-.97.1-1.5.235-.25.5-.36.7-.6.7-.885.8-2.425.8-3.5 0-1.6-1.43-2.8-3-2.8z"/></svg>