<svg viewBox="0 0 16 16" height="16" width="16" xmlns="http://www.w3.org/2000/svg" xml:space="preserve" style="fill-rule:evenodd;clip-rule:evenodd;stroke-linejoin:round;stroke-miterlimit:2"><path d="M1.798 19.308v-2.224c0-.515.133-.975.399-1.379a2.721 2.721 0 0 1 1.066-.944c.95-.465 1.906-.823 2.867-1.076.961-.251 2.017-.377 3.168-.377 1.151 0 2.207.126 3.168.377.961.253 1.917.611 2.867 1.076.445.225.8.539 1.066.944.266.404.399.864.399 1.379v2.224h-15Zm17 0v-2.346c0-.657-.161-1.282-.482-1.877a4.533 4.533 0 0 0-1.368-1.531c.671.1 1.307.255 1.91.464.602.21 1.177.458 1.725.744.516.275.915.6 1.197.974.281.374.422.783.422 1.226v2.346h-3.404Zm-9.5-7.616c-.962 0-1.786-.342-2.472-1.028-.685-.685-1.028-1.509-1.028-2.472 0-.962.343-1.786 1.028-2.471.686-.686 1.51-1.029 2.472-1.029.963 0 1.787.343 2.472 1.029.685.685 1.028 1.509 1.028 2.471 0 .963-.343 1.787-1.028 2.472a3.367 3.367 0 0 1-2.472 1.028Zm8.635-3.5c0 .963-.343 1.787-1.028 2.472-.686.686-1.51 1.028-2.472 1.028-.113 0-.257-.013-.431-.038a3.814 3.814 0 0 1-.431-.085c.395-.474.698-1 .91-1.578a5.209 5.209 0 0 0-.007-3.593 5.774 5.774 0 0 0-.903-1.582c.144-.052.287-.085.431-.1.144-.016.287-.024.431-.024.962 0 1.786.343 2.472 1.029.685.685 1.028 1.509 1.028 2.471Z" style="fill-rule:nonzero" transform="matrix(.78418 0 0 .78418 -1.41 -1.43)"/></svg>