<svg viewBox="0 0 16 16" height="16" width="16" xmlns="http://www.w3.org/2000/svg" xml:space="preserve" style="fill-rule:evenodd;clip-rule:evenodd;stroke-linejoin:round;stroke-miterlimit:2"><path d="M17.999 22.775c-1.049 0-1.941-.367-2.674-1.101-.733-.734-1.1-1.625-1.1-2.674a3.472 3.472 0 0 1 .1-.825l-5.825-3.4a3.604 3.604 0 0 1-1.146.737A3.545 3.545 0 0 1 6 15.775c-1.049 0-1.94-.367-2.674-1.102-.734-.734-1.101-1.625-1.101-2.674s.367-1.941 1.101-2.674c.734-.733 1.625-1.1 2.674-1.1.472 0 .923.088 1.354.262.431.176.813.421 1.146.738l5.825-3.4a3.388 3.388 0 0 1-.1-.825c0-1.049.367-1.94 1.101-2.674.735-.734 1.626-1.101 2.676-1.101 1.049 0 1.94.367 2.673 1.101.733.735 1.1 1.626 1.1 2.675s-.367 1.941-1.101 2.674c-.734.733-1.625 1.1-2.674 1.1-.472 0-.923-.079-1.354-.237a3.3 3.3 0 0 1-1.146-.713l-5.825 3.35a3.388 3.388 0 0 1 .1.825 3.46 3.46 0 0 1-.1.825l5.825 3.35a3.284 3.284 0 0 1 1.146-.712A3.879 3.879 0 0 1 18 15.225c1.049 0 1.94.367 2.674 1.101.734.735 1.101 1.627 1.101 2.676 0 1.049-.367 1.94-1.101 2.673-.735.733-1.626 1.1-2.675 1.1Z" style="fill:#fff;fill-rule:nonzero" transform="translate(.06 .204) scale(.64965)"/></svg>