<?xml version="1.0" encoding="UTF-8" standalone="no"?>
<svg xmlns="http://www.w3.org/2000/svg" height="32" width="32" version="1.0" viewBox="0 0 32 32">
 <path d="m13.733 0.00064c-0.52991 0-0.93331 0.40337-0.93331 0.93333v2.6666c-1.182 0.3034-2.243 0.7934-3.2668 1.4001l-1.9334-1.9334c-0.3747-0.3747-0.9586-0.3747-1.3333 0l-3.1999 3.2c-0.37473 0.37474-0.37473 0.95859 0 1.3333l1.9334 1.9335c-0.6067 1.0239-1.0967 2.0849-1.4001 3.2669h-2.6666c-0.52994 0-0.9333 0.403-0.9333 0.933v4.5333c2e-8 0.52996 0.40336 0.93333 0.93331 0.93333h2.6666c0.30335 1.1817 0.79332 2.2426 1.4 3.2666l-1.9334 1.9349c-0.37473 0.37474-0.37473 0.95859 0 1.3333l3.1999 3.2c0.37473 0.37474 0.95857 0.37474 1.3333 0l1.9334-1.9349c1.024 0.608 2.0849 1.0965 3.2665 1.3995v2.6667c0 0.53 0.403 0.933 0.933 0.933h4.5332c0.52991 0 0.93331-0.4032 0.93331-0.9344v-2.6667c1.1816-0.30336 2.2425-0.79335 3.2665-1.4l1.9333 1.9333c0.37473 0.37474 0.95857 0.37474 1.3333 0l3.1999-3.2c0.37473-0.37474 0.37473-0.95859 0-1.3333l-1.9327-1.9328c0.60798-1.024 1.0965-2.0845 1.3994-3.2661h2.6666c0.532 0 0.935-0.403 0.935-0.933v-4.534c0-0.53-0.403-0.933-0.934-0.933h-2.667c-0.303-1.182-0.791-2.243-1.399-3.2666l1.932-1.9334c0.37473-0.37474 0.37473-0.95859 0-1.3333l-3.2-3.2c-0.37473-0.37474-0.95857-0.37474-1.3333 0l-1.9327 1.9334c-1.024-0.6067-2.084-1.0967-3.266-1.4001v-2.6667c0-0.52993-0.403-0.9333-0.933-0.9333zm2.2666 8.8689c3.9361 0 7.1309 3.1947 7.1309 7.1311 0 3.9362-3.1946 7.1311-7.1309 7.1311-3.9361 0-7.1309-3.1955-7.1309-7.1317s3.1948-7.1311 7.1309-7.1311z" display="block" fill="#fff"/>
</svg>
