<?xml version="1.0" encoding="utf-8"?>
<!-- Generator: Adobe Illustrator 16.0.0, SVG Export Plug-In . SVG Version: 6.00 Build 0)  -->
<!DOCTYPE svg PUBLIC "-//W3C//DTD SVG 1.1//EN" "http://www.w3.org/Graphics/SVG/1.1/DTD/svg11.dtd">
<svg version="1.1" id="Layer_2" xmlns="http://www.w3.org/2000/svg" xmlns:xlink="http://www.w3.org/1999/xlink" x="0px" y="0px"
	 width="16px" height="16px" viewBox="0 0 16 16" enable-background="new 0 0 16 16" xml:space="preserve">
<g>
	<path fill="#FFFFFF" d="M13.695,1.658H2.255c-0.409,0-0.777,0.36-0.777,0.769v8.251c0,0.409,0.368,0.769,0.777,0.769h11.44
		c0.467,0,0.826-0.359,0.826-0.769V2.427C14.521,2.018,14.162,1.658,13.695,1.658L13.695,1.658z M13.491,10.064L13.491,10.064H2.459
		V2.733h11.032V10.064z M10.973,13.344L10.973,13.344H5.027l1.48-1.537h2.985L10.973,13.344z M7.897,5.55L7.897,5.55
		c0,0.311-0.204,0.564-0.515,0.564c-0.311,0-0.564-0.253-0.564-0.564c0-0.253,0.253-0.511,0.564-0.511
		C7.693,5.039,7.897,5.297,7.897,5.55L7.897,5.55z M10.057,7.297L10.057,7.297c0,0.253-0.262,0.511-0.564,0.511
		c-0.262,0-0.515-0.258-0.515-0.511c0-0.311,0.253-0.564,0.515-0.564C9.795,6.732,10.057,6.986,10.057,7.297L10.057,7.297z
		 M12.158,5.452L12.158,5.452c0,0.253-0.262,0.511-0.516,0.511c-0.311,0-0.563-0.258-0.563-0.511c0-0.311,0.253-0.568,0.563-0.568
		C11.896,4.884,12.158,5.142,12.158,5.452L12.158,5.452z M4.667,8.065L4.667,8.065c0,0.307-0.204,0.563-0.515,0.563
		S3.637,8.372,3.637,8.065c0-0.258,0.205-0.516,0.516-0.516S4.667,7.808,4.667,8.065L4.667,8.065z M11.488,5.297L11.488,5.297
		L11.75,5.55L9.492,7.604c0,0-1.955-1.64-2.159-1.795c-0.204,0.102-3.181,2.51-3.181,2.51L3.997,8.012l3.386-2.666
		c0,0,1.896,1.59,2.109,1.794C9.697,6.937,11.488,5.297,11.488,5.297L11.488,5.297z"/>
</g>
</svg>
